<?xml version="1.0" standalone="no"?>
<!DOCTYPE svg PUBLIC "-//W3C//DTD SVG 20010904//EN"
 "http://www.w3.org/TR/2001/REC-SVG-20010904/DTD/svg10.dtd">
<svg version="1.0" xmlns="http://www.w3.org/2000/svg"
 width="640.000000pt" height="1280.000000pt" viewBox="0 0 640.000000 1280.000000"
 preserveAspectRatio="xMidYMid meet">
<metadata>
Created by potrace 1.15, written by Peter Selinger 2001-2017
</metadata>
<g transform="translate(0.000000,1280.000000) scale(0.100000,-0.100000)"
fill="#000000" stroke="none">
<path d="M3118 12742 c-37 -38 -58 -69 -63 -92 -3 -19 -16 -64 -27 -100 -13
-44 -21 -105 -24 -190 -4 -87 -10 -135 -21 -158 -14 -27 -14 -38 -4 -72 10
-32 9 -49 -4 -94 -21 -72 -104 -556 -116 -676 -5 -52 -16 -119 -24 -148 -7
-30 -11 -60 -9 -67 3 -7 -4 -75 -14 -151 -11 -77 -19 -150 -19 -164 1 -27 -19
-376 -29 -497 -3 -39 -11 -78 -17 -86 -8 -9 -62 -20 -152 -32 -359 -45 -498
-71 -672 -125 -50 -16 -115 -32 -143 -36 -56 -7 -61 -12 -70 -64 -5 -33 -8
-35 -50 -42 -87 -13 -183 -9 -220 10 -46 22 -52 55 -13 70 61 25 127 34 199
30 86 -6 88 10 3 19 -59 5 -179 -18 -217 -43 -31 -21 -46 -62 -30 -82 29 -35
90 -52 189 -52 84 0 100 3 131 23 35 25 63 21 96 -11 26 -24 86 -43 172 -52
206 -24 273 -29 281 -24 5 3 35 0 66 -7 32 -6 90 -12 128 -14 75 -2 275 -21
279 -27 1 -3 -3 -266 -23 -1193 -25 -1215 -31 -1916 -31 -3498 0 -929 -1
-1691 -4 -1695 -2 -4 -6 -257 -10 -562 -5 -444 -4 -595 8 -755 18 -238 35
-415 41 -425 2 -4 14 -88 25 -186 20 -168 55 -398 65 -426 3 -7 16 -76 30
-153 32 -175 71 -327 135 -525 27 -85 56 -180 65 -210 15 -56 69 -160 83 -160
4 0 19 21 34 45 l27 45 -24 -6 c-22 -5 -24 -2 -30 40 -4 26 -5 1004 -1 2174 6
2032 8 2391 21 3347 4 231 10 1247 14 2258 4 1149 11 1841 17 1847 6 6 79 7
194 2 l185 -7 6 -60 c18 -162 34 -811 34 -1335 0 -532 -3 -851 -20 -2375 -11
-891 -12 -1516 -5 -1840 4 -176 3 -408 -1 -515 -4 -107 -13 -400 -19 -650 -6
-250 -15 -509 -20 -575 -5 -66 -14 -210 -20 -320 -31 -568 -50 -745 -126
-1130 -57 -293 -139 -649 -170 -744 -14 -40 -23 -75 -21 -77 21 -21 138 409
211 776 57 283 95 557 111 795 8 132 22 328 30 435 39 518 53 1230 60 3025 3
710 9 1625 15 2035 11 853 14 1745 6 1759 -9 15 -26 723 -18 761 l8 35 89 6
c205 15 326 29 425 48 58 11 168 32 245 46 77 15 163 37 190 49 45 20 53 21
72 9 12 -8 60 -17 112 -20 119 -8 194 9 223 49 27 39 17 46 -24 17 -29 -21
-44 -24 -128 -24 -92 0 -155 14 -172 39 -4 6 -8 23 -8 38 0 38 49 52 187 51
120 0 163 -14 163 -53 0 -23 10 -29 32 -21 17 6 17 8 0 35 -29 48 -86 62 -215
54 -60 -4 -131 -12 -157 -19 -43 -11 -53 -10 -97 8 -52 23 -188 57 -268 68
-27 4 -153 24 -280 45 -126 21 -260 42 -297 45 -37 4 -73 12 -81 19 -10 8 -19
69 -31 211 -18 211 -51 491 -93 790 -13 99 -31 227 -39 285 -7 58 -18 132 -24
165 -6 33 -17 105 -26 160 -9 55 -22 130 -31 166 -13 60 -13 70 1 97 9 17 16
40 16 51 0 11 5 23 11 27 8 4 2 12 -15 21 -28 14 -29 18 -26 99 3 103 -39 325
-74 393 -16 29 -61 73 -92 89 -17 9 -27 3 -76 -46z m108 -18 c36 -24 52 -61
76 -172 21 -99 30 -281 15 -316 -7 -17 -16 -18 -125 -12 -64 4 -125 10 -134
12 -16 5 -18 19 -18 119 0 63 4 116 9 119 5 3 9 25 9 49 2 92 74 217 124 217
10 0 30 -7 44 -16z m100 -539 c19 -8 34 -20 34 -28 0 -34 -27 -39 -175 -35
-121 3 -147 6 -162 21 -14 13 -15 21 -7 35 14 21 44 28 44 10 0 -7 12 -19 27
-25 32 -16 107 -17 98 -3 -3 6 1 10 9 10 9 0 16 4 16 10 0 5 -28 12 -62 16
-38 4 -55 10 -45 13 27 10 183 -7 223 -24z m-84 -110 c86 -7 121 -21 79 -32
-11 -3 -18 -10 -15 -15 3 -5 12 -7 20 -4 9 3 15 -3 18 -17 2 -12 11 -56 19
-97 20 -96 33 -182 46 -295 6 -49 20 -151 31 -225 11 -74 27 -189 35 -255 8
-66 19 -139 25 -162 5 -23 17 -120 25 -215 9 -95 20 -209 25 -253 15 -132 19
-122 -47 -118 -43 3 -54 2 -43 -6 8 -6 28 -11 43 -11 36 0 67 -16 67 -35 0
-12 -13 -13 -67 -8 -39 3 -64 2 -60 -3 5 -5 34 -11 65 -14 52 -5 57 -7 60 -31
5 -46 -8 -48 -218 -33 -107 7 -274 13 -372 14 l-176 0 -4 63 c-1 34 2 123 9
197 6 74 16 216 23 315 6 99 18 223 26 275 8 52 21 140 28 195 7 56 18 116 23
135 6 19 16 82 22 140 7 58 16 134 21 170 5 36 12 86 16 113 l6 47 57 2 c31 1
93 1 137 -1 102 -4 122 14 28 24 -36 4 -100 5 -141 1 l-75 -7 7 33 c16 73 42
85 171 75 41 -3 76 -2 79 3 5 8 -16 13 -130 26 -53 7 -56 8 -30 15 17 4 41 5
55 3 14 -1 64 -6 112 -9z m-232 -1864 c7 -15 6 -23 -6 -35 -18 -19 -19 -19
-47 -5 -41 21 -59 42 -45 51 26 16 87 9 98 -11z m493 -2 c86 -17 86 -20 -6
-39 -93 -19 -105 -18 -148 11 -26 18 -27 18 -44 -1 -16 -18 -31 -20 -142 -20
l-123 0 0 29 c0 24 5 31 28 35 44 8 379 -4 435 -15z m-863 -13 c0 -2 -26 -21
-57 -42 -32 -21 -74 -52 -93 -70 -35 -31 -86 -54 -121 -54 -12 0 -24 13 -33
33 -8 21 -25 38 -45 46 -17 8 -31 16 -31 20 0 3 67 17 149 30 82 13 155 27
162 32 14 9 69 13 69 5z m241 -11 c32 -17 31 -35 -2 -35 -10 0 -66 -11 -124
-25 -98 -23 -140 -41 -173 -72 -7 -7 -34 -13 -60 -13 l-47 -1 30 -21 c17 -13
44 -37 60 -54 40 -42 61 -52 150 -69 61 -11 82 -20 107 -46 24 -24 27 -30 13
-26 -11 4 -69 9 -130 12 -60 3 -131 8 -157 11 -54 7 -59 19 -32 72 18 38 12
52 -24 52 -45 0 -94 -18 -152 -55 -48 -31 -62 -35 -120 -35 -111 0 -397 53
-422 78 -5 5 -6 25 -3 45 6 32 11 36 53 45 26 6 63 15 82 21 130 37 230 61
262 61 25 0 52 -10 81 -30 51 -34 62 -53 42 -70 -16 -13 -35 -5 -35 15 0 19
-45 52 -80 60 -55 12 -140 -51 -140 -105 0 -33 19 -60 42 -60 21 0 21 0 3 14
-31 23 -26 83 11 112 33 27 53 29 101 12 31 -11 34 -16 31 -48 l-3 -35 50 3
c79 5 171 39 213 79 49 47 139 105 177 114 56 13 164 10 196 -6z m1029 -24
c326 -41 532 -85 610 -128 31 -17 35 -25 35 -58 0 -38 -2 -39 -45 -51 -77 -21
-239 -48 -246 -41 -4 4 1 16 10 26 10 11 15 25 11 32 -6 8 -12 4 -22 -14 -16
-31 -72 -45 -115 -29 -15 5 -28 7 -28 3 0 -9 38 -29 65 -34 35 -6 -355 -57
-439 -57 l-49 0 58 42 c32 23 73 46 90 53 34 11 109 11 183 0 28 -5 42 -3 42
4 0 6 -12 11 -26 11 -14 0 -45 5 -69 11 -66 17 -141 -3 -220 -57 -70 -48 -140
-78 -163 -69 -7 3 -23 0 -34 -6 -17 -9 -24 -8 -33 4 -15 21 -127 65 -189 74
-39 6 -10 9 129 14 177 6 181 6 250 39 39 18 65 34 58 37 -7 2 -21 0 -32 -6
-10 -6 -34 -8 -53 -5 -23 4 -29 3 -19 -4 11 -8 2 -12 -35 -18 -74 -11 -137
-10 -389 6 -126 8 -261 14 -300 12 -38 -1 -99 2 -135 7 -36 5 -105 15 -153 22
-124 18 -136 30 -55 57 36 11 90 32 120 46 59 27 150 41 344 52 81 4 128 3
140 -4 16 -10 13 -12 -21 -14 -22 -1 12 -5 75 -8 63 -4 192 -12 285 -20 207
-15 238 -27 259 -94 5 -14 9 -16 20 -7 40 33 -42 91 -160 113 -65 13 -78 22
-46 32 24 8 162 -18 200 -38 27 -14 79 -66 99 -99 16 -27 58 -47 100 -47 23 0
44 -4 47 -9 6 -8 66 -21 66 -14 0 2 -7 14 -16 28 -37 56 56 122 130 91 24 -10
35 -23 44 -55 8 -25 19 -41 28 -41 11 0 14 6 9 23 -18 60 -84 110 -162 122
-35 5 -51 2 -78 -15 -33 -21 -37 -26 -49 -82 -10 -43 -37 -35 -100 31 -35 36
-77 67 -109 81 -94 40 -116 53 -111 61 7 12 19 12 194 -10z m-310 -14 c-14 -6
-29 -17 -35 -24 -8 -10 -20 -10 -60 1 -29 8 -44 16 -35 19 38 14 48 15 100 16
49 0 52 -2 30 -12z m547 -79 c-2 -7 -10 -12 -18 -11 -8 1 -21 -12 -29 -30 -17
-37 -34 -41 -38 -10 -2 16 6 28 30 43 37 23 62 26 55 8z m-1401 -123 c218 -16
448 -47 456 -61 4 -6 40 -15 80 -18 46 -5 82 -15 99 -27 15 -10 31 -19 37 -19
5 0 16 -7 23 -17 13 -15 10 -16 -26 -10 -22 4 -103 9 -180 12 -77 3 -169 8
-205 11 l-64 6 39 24 c22 13 52 24 67 24 15 0 30 5 34 11 13 21 -79 -2 -130
-33 -42 -26 -50 -27 -65 -15 -30 27 -97 55 -192 83 -112 32 -144 48 -78 39 25
-3 73 -8 105 -10z m-287 -24 c-16 -16 -29 -37 -29 -45 0 -17 -42 -20 -88 -7
l-24 6 24 22 c34 32 79 53 115 53 l31 0 -29 -29z m22 -37 c-16 -32 -21 -36
-27 -21 -4 12 1 26 16 42 31 33 34 27 11 -21z m324 -110 c12 -13 19 -13 30 -4
21 17 35 4 35 -33 0 -22 3 -28 9 -18 5 7 6 22 4 32 -6 20 23 38 36 23 5 -5 5
-684 0 -1509 -5 -825 -5 -1503 -1 -1507 5 -5 8 49 8 119 -1 414 13 2374 18
2381 3 5 6 122 6 261 1 138 5 251 10 251 5 0 11 -10 13 -22 l4 -23 8 23 c4 12
15 22 25 22 17 0 18 -23 21 -352 2 -194 3 -652 3 -1018 -1 -576 0 -629 8 -395
5 149 9 606 8 1018 0 442 3 747 8 747 11 0 27 -815 18 -916 -3 -38 -8 -811
-11 -1719 -5 -1402 -20 -3398 -42 -5540 -6 -548 5 -1192 19 -1115 5 34 12 701
7 845 -5 181 8 845 16 854 3 2 5 -440 5 -982 0 -565 -4 -987 -9 -987 -5 0 -11
8 -14 18 -3 9 -24 71 -47 137 -46 134 -107 368 -150 580 -16 77 -38 183 -49
235 -25 123 -58 354 -77 539 -28 278 -35 601 -29 1186 4 314 9 1367 11 2340 3
974 7 1952 11 2175 3 223 6 515 7 650 1 252 22 1240 32 1548 6 179 11 194 49
156z m313 -291 l-1 -288 -9 273 c-9 252 -8 302 7 302 3 0 4 -129 3 -287z m-6
-713 l-9 -105 -2 176 c0 97 2 179 7 183 11 12 13 -137 4 -254z m-12 -1564 c-5
-5 -12 -8 -14 -5 -3 2 -1 85 4 184 5 99 11 227 12 285 1 58 4 -21 5 -174 2
-177 0 -283 -7 -290z m9 -154 c0 -41 -3 -51 -9 -37 -12 29 -12 108 0 100 6 -3
10 -32 9 -63z m0 -630 c-1 -229 -5 -478 -8 -552 -5 -87 -8 62 -9 423 -1 370 1
556 8 552 6 -4 10 -155 9 -423z m-12 -1319 c-1 -109 -2 -20 -2 197 0 217 1
306 2 198 2 -109 2 -287 0 -395z m2 -416 c0 -51 -4 -110 -8 -132 -6 -29 -9 -3
-10 98 -1 90 2 136 9 132 6 -3 10 -47 9 -98z m-27 -2237 l-9 -145 -2 197 c0
108 2 205 7 215 11 28 13 -104 4 -267z"/>
<path d="M3147 12613 c-4 -3 -7 -37 -7 -74 0 -96 -18 -98 -23 -2 -1 43 -4 10
-5 -74 -1 -83 -7 -164 -12 -179 -6 -15 -8 -29 -5 -32 9 -10 17 6 22 48 6 43
23 38 23 -7 0 -30 23 -20 35 15 6 15 8 70 5 122 -6 108 -18 92 -24 -30 -1 -41
-2 -9 -2 73 1 81 1 147 1 147 -1 0 -5 -3 -8 -7z"/>
<path d="M3041 11991 c-19 -3 -36 -11 -38 -17 -2 -7 14 -8 54 -3 32 5 84 5
116 2 36 -4 57 -2 57 4 0 22 -106 29 -189 14z"/>
<path d="M3042 11880 c-29 -4 -56 -11 -59 -14 -16 -16 13 -18 76 -7 39 7 89 9
115 6 28 -5 46 -3 46 3 0 20 -84 25 -178 12z"/>
<path d="M3325 11860 c-18 -8 -17 -9 8 -9 16 -1 26 3 22 9 -3 6 -7 10 -8 9 -1
0 -11 -4 -22 -9z"/>
<path d="M3011 11819 c-18 -6 -32 -11 -30 -13 10 -7 259 7 259 15 0 12 -186
10 -229 -2z"/>
<path d="M3325 11800 c3 -5 16 -10 28 -10 18 0 19 2 7 10 -20 13 -43 13 -35 0z"/>
<path d="M2993 11750 c-26 -11 -32 -36 -7 -26 38 15 95 17 168 7 80 -11 98 -9
79 10 -14 14 -212 22 -240 9z"/>
<path d="M3320 11720 c0 -5 9 -10 20 -10 11 0 20 5 20 10 0 6 -9 10 -20 10
-11 0 -20 -4 -20 -10z"/>
<path d="M3015 11689 c-74 -12 -44 -19 88 -19 75 0 138 4 142 9 6 11 -176 19
-230 10z"/>
<path d="M3320 11660 c0 -5 14 -10 31 -10 17 0 28 4 24 10 -3 6 -17 10 -31 10
-13 0 -24 -4 -24 -10z"/>
<path d="M2993 11633 c-71 -10 -27 -19 92 -19 69 0 121 4 117 8 -9 9 -165 18
-209 11z"/>
<path d="M3330 11590 c0 -5 12 -10 26 -10 14 0 23 4 19 10 -3 6 -15 10 -26 10
-10 0 -19 -4 -19 -10z"/>
<path d="M3037 11579 c-86 -13 -109 -32 -27 -23 35 3 100 6 144 6 74 0 79 1
56 14 -28 15 -85 16 -173 3z"/>
<path d="M3330 11541 c0 -11 26 -22 34 -14 12 12 5 23 -14 23 -11 0 -20 -4
-20 -9z"/>
<path d="M2947 11498 c-14 -11 7 -13 118 -13 127 0 156 5 119 19 -30 12 -220
6 -237 -6z"/>
<path d="M3015 11456 c-5 -3 -27 -7 -48 -11 -22 -3 -35 -10 -31 -16 4 -7 23
-8 53 -4 25 4 90 7 144 6 63 -2 97 1 97 8 0 6 -17 11 -37 11 -21 0 -67 2 -103
5 -36 3 -69 3 -75 1z"/>
<path d="M3353 11427 c5 -15 37 -22 37 -9 0 5 -9 12 -21 15 -13 3 -19 1 -16
-6z"/>
<path d="M2963 11380 c-13 -5 -23 -11 -23 -13 0 -2 45 -2 99 1 58 3 112 0 130
-6 32 -11 40 -5 19 16 -14 14 -191 16 -225 2z"/>
<path d="M2944 11314 c-18 -14 -16 -15 30 -10 27 3 94 6 150 6 69 0 96 3 86
10 -8 5 -67 10 -131 10 -90 0 -119 -3 -135 -16z"/>
<path d="M2985 11263 c-11 -2 -31 -6 -44 -9 -15 -3 -20 -9 -15 -14 6 -6 23 -6
44 0 19 6 84 10 143 10 70 0 106 4 102 10 -6 10 -188 12 -230 3z"/>
<path d="M3383 11243 c9 -2 25 -2 35 0 9 3 1 5 -18 5 -19 0 -27 -2 -17 -5z"/>
<path d="M2980 11198 c-30 -5 -59 -15 -65 -20 -7 -7 -1 -9 20 -4 17 3 89 9
162 13 73 3 130 10 127 14 -7 12 -174 9 -244 -3z"/>
<path d="M3370 11191 c25 -14 70 -22 70 -12 0 10 -34 21 -65 21 -16 -1 -17 -2
-5 -9z"/>
<path d="M2971 11139 c-41 -5 -76 -11 -79 -14 -15 -14 15 -16 83 -6 42 6 120
12 173 12 66 1 87 4 67 9 -40 10 -152 10 -244 -1z"/>
<path d="M3380 11132 c0 -5 14 -12 30 -14 19 -3 29 -1 27 6 -4 14 -57 21 -57
8z"/>
<path d="M2948 11080 c-51 -9 -68 -16 -68 -30 0 -5 12 -4 28 2 16 7 82 12 165
11 75 0 137 3 137 7 0 19 -170 25 -262 10z"/>
<path d="M3374 11078 c-8 -13 46 -21 69 -11 19 9 17 11 -21 14 -24 3 -46 1
-48 -3z"/>
<path d="M2928 11018 c-27 -6 -48 -15 -48 -20 0 -7 14 -8 38 -3 29 6 146 12
275 15 4 0 7 5 7 10 0 13 -208 11 -272 -2z"/>
<path d="M3375 11020 c-3 -5 11 -14 32 -19 44 -13 69 -14 59 -4 -13 13 -86 31
-91 23z"/>
<path d="M2930 10958 c-30 -5 -59 -15 -65 -20 -7 -7 -1 -8 20 -4 17 4 93 10
170 13 84 3 132 9 120 14 -27 11 -178 9 -245 -3z"/>
<path d="M3400 10952 c0 -11 69 -26 78 -18 8 9 1 13 -40 20 -22 4 -38 3 -38
-2z"/>
<path d="M2915 10899 c-52 -12 -75 -35 -25 -25 86 18 179 26 231 20 37 -4 59
-2 63 5 9 14 -209 14 -269 0z"/>
<path d="M3420 10892 c0 -5 15 -12 33 -15 54 -8 53 8 -1 19 -19 4 -32 2 -32
-4z"/>
<path d="M2999 10850 c-75 -7 -155 -28 -145 -37 2 -3 49 3 103 12 72 13 125
16 198 11 62 -4 96 -3 90 3 -14 14 -158 20 -246 11z"/>
<path d="M3420 10850 c0 -5 14 -10 31 -10 17 0 28 4 24 10 -3 6 -17 10 -31 10
-13 0 -24 -4 -24 -10z"/>
<path d="M3420 10801 c0 -9 71 -22 80 -14 2 2 -2 8 -10 13 -19 12 -70 13 -70
1z"/>
<path d="M2925 10763 c-27 -2 -54 -9 -60 -15 -7 -7 9 -9 54 -4 35 3 108 6 162
6 59 0 99 4 99 10 0 10 -143 11 -255 3z"/>
<path d="M3430 10741 c0 -10 36 -21 65 -20 16 0 13 4 -10 14 -35 16 -55 19
-55 6z"/>
<path d="M2941 10689 c-35 -4 -69 -13 -75 -20 -8 -9 1 -10 39 -6 28 3 108 9
180 13 80 4 122 10 110 15 -26 10 -171 9 -254 -2z"/>
<path d="M3446 10671 c13 -12 74 -22 74 -12 0 10 -34 21 -64 21 -12 0 -16 -3
-10 -9z"/>
<path d="M2892 10612 c-13 -4 -22 -11 -20 -17 2 -5 8 -8 13 -5 6 3 71 6 145 7
160 2 169 3 110 14 -54 9 -215 10 -248 1z"/>
<path d="M3443 10603 c9 -2 25 -2 35 0 9 3 1 5 -18 5 -19 0 -27 -2 -17 -5z"/>
<path d="M2975 10549 c-120 -11 -155 -18 -155 -30 0 -6 12 -8 28 -5 61 13 201
26 277 27 54 0 73 3 60 9 -24 10 -90 10 -210 -1z"/>
<path d="M3445 10550 c-4 -6 7 -10 27 -10 25 0 29 3 18 10 -19 13 -37 13 -45
0z"/>
<path d="M3435 10490 c3 -5 17 -10 31 -10 14 0 22 4 19 10 -3 6 -17 10 -31 10
-14 0 -22 -4 -19 -10z"/>
<path d="M2875 10473 c-16 -3 -34 -8 -39 -13 -9 -9 191 -2 289 10 46 6 28 7
-80 7 -77 0 -153 -2 -170 -4z"/>
<path d="M3445 10430 c3 -5 19 -10 36 -10 16 0 29 5 29 10 0 6 -16 10 -36 10
-21 0 -33 -4 -29 -10z"/>
<path d="M2860 10390 c-10 -6 44 -9 160 -9 103 1 165 4 150 9 -36 12 -292 12
-310 0z"/>
<path d="M2860 10331 l-25 -8 25 -4 c14 -2 63 -2 110 1 47 3 118 1 158 -3 70
-8 93 -5 79 9 -10 10 -319 14 -347 5z"/>
<path d="M2817 9548 c2 -112 6 -207 8 -213 2 -5 4 83 4 197 1 114 -3 209 -8
212 -5 4 -7 -77 -4 -196z"/>
<path d="M2983 9650 c0 -30 2 -43 4 -27 2 15 2 39 0 55 -2 15 -4 2 -4 -28z"/>
<path d="M2872 9173 c1 -311 4 -465 8 -398 12 178 11 893 0 900 -7 4 -9 -165
-8 -502z"/>
<path d="M2977 9488 c-4 -46 -6 -348 -5 -673 l1 -590 8 670 c4 369 6 671 5
673 -2 1 -6 -35 -9 -80z"/>
<path d="M2823 9255 c0 -22 2 -30 4 -17 2 12 2 30 0 40 -3 9 -5 -1 -4 -23z"/>
<path d="M2817 8998 c-4 -24 -9 -333 -12 -688 -3 -355 -8 -777 -11 -937 -4
-209 -3 -293 5 -293 8 0 11 116 11 399 0 219 5 658 11 976 5 317 8 579 6 582
-3 2 -7 -15 -10 -39z"/>
<path d="M2866 8585 c-3 -9 -5 -33 -5 -53 1 -34 2 -33 10 13 8 51 6 68 -5 40z"/>
<path d="M2864 8065 c0 -137 2 -195 3 -128 2 67 2 179 0 250 -1 70 -3 16 -3
-122z"/>
<path d="M2976 8048 c-11 -81 -12 -1368 -1 -1368 7 0 11 244 14 705 2 388 1
705 -2 705 -3 0 -8 -19 -11 -42z"/>
<path d="M2857 7668 c-10 -162 -9 -468 1 -468 12 0 25 547 14 566 -6 10 -11
-25 -15 -98z"/>
<path d="M3028 7305 c-4 -220 -9 -467 -11 -550 -5 -211 -16 -2729 -20 -4425
-2 -784 -2 -1317 -1 -1185 12 1056 26 2881 30 3860 3 649 8 1392 12 1650 4
259 5 601 2 760 l-5 290 -7 -400z"/>
<path d="M2858 7055 c-11 -103 -9 -499 4 -580 5 -38 13 -268 17 -510 l7 -440
-3 530 c-3 658 -15 1101 -25 1000z m19 -582 c-3 -10 -5 -2 -5 17 0 19 2 27 5
18 2 -10 2 -26 0 -35z"/>
<path d="M2791 7053 c1 -5 1 -12 0 -18 0 -5 -3 -273 -6 -595 -3 -322 -8 -607
-11 -635 -3 -27 -2 -653 3 -1390 l8 -1340 7 1750 c4 963 9 1859 12 1993 4 155
2 242 -4 242 -6 0 -9 -3 -9 -7z"/>
<path d="M2927 6520 c-11 -324 -19 -3780 -9 -4020 7 -167 9 -12 10 703 2 726
5 917 15 917 8 0 8 3 -2 9 -12 8 -12 46 -5 237 11 295 11 436 0 503 -6 42 -6
52 5 46 10 -7 11 51 5 298 -4 187 -3 308 3 311 5 4 11 -25 13 -66 2 -40 0
-900 -5 -1911 -6 -1170 -6 -1846 0 -1860 6 -14 12 616 16 1773 4 987 10 2089
14 2449 5 497 4 652 -5 647 -9 -5 -12 -126 -12 -460 0 -434 -4 -551 -20 -541
-4 2 -5 221 -3 487 2 266 0 528 -5 583 -7 99 -8 98 -15 -105z"/>
<path d="M2972 6620 c0 -14 2 -19 5 -12 2 6 2 18 0 25 -3 6 -5 1 -5 -13z"/>
<path d="M2872 5104 c-1 -138 -4 -327 -6 -420 -4 -149 -4 -158 5 -74 5 52 8
241 6 420 -2 313 -2 316 -5 74z"/>
<path d="M2863 4450 c0 -25 2 -35 4 -22 2 12 2 32 0 45 -2 12 -4 2 -4 -23z"/>
<path d="M2863 4315 c0 -33 2 -45 4 -27 2 18 2 45 0 60 -2 15 -4 0 -4 -33z"/>
<path d="M2858 4131 c-12 -52 -9 -749 2 -729 7 10 9 159 8 390 -2 205 -6 358
-10 339z"/>
<path d="M2853 3185 c0 -22 2 -30 4 -17 2 12 2 30 0 40 -3 9 -5 -1 -4 -23z"/>
<path d="M2853 3050 c0 -30 2 -43 4 -27 2 15 2 39 0 55 -2 15 -4 2 -4 -28z"/>
<path d="M2783 2895 c0 -27 2 -38 4 -22 2 15 2 37 0 50 -2 12 -4 0 -4 -28z"/>
<path d="M2783 2785 c0 -27 2 -38 4 -22 2 15 2 37 0 50 -2 12 -4 0 -4 -28z"/>
<path d="M2783 2620 c0 -41 2 -58 4 -37 2 20 2 54 0 75 -2 20 -4 3 -4 -38z"/>
<path d="M2783 2360 c0 -30 2 -43 4 -27 2 15 2 39 0 55 -2 15 -4 2 -4 -28z"/>
</g>
</svg>
