<?xml version="1.0" standalone="no"?>
<!DOCTYPE svg PUBLIC "-//W3C//DTD SVG 20010904//EN"
 "http://www.w3.org/TR/2001/REC-SVG-20010904/DTD/svg10.dtd">
<svg version="1.0" xmlns="http://www.w3.org/2000/svg"
 width="1280.000000pt" height="878.000000pt" viewBox="0 0 1280.000000 878.000000"
 preserveAspectRatio="xMidYMid meet">
<metadata>
Created by potrace 1.15, written by Peter Selinger 2001-2017
</metadata>
<g transform="translate(0.000000,878.000000) scale(0.100000,-0.100000)"
fill="#000000" stroke="none">
<path d="M5920 8770 c-213 -15 -315 -44 -370 -107 -41 -46 -58 -91 -76 -198
-22 -133 -27 -143 -88 -160 -28 -7 -121 -21 -206 -30 -285 -30 -382 -58 -735
-218 -278 -126 -322 -141 -385 -135 -70 7 -188 67 -257 131 -84 76 -158 85
-278 32 -98 -43 -148 -126 -149 -250 -1 -103 23 -149 87 -166 121 -31 132 -52
163 -329 20 -176 30 -615 15 -652 -13 -35 -22 -35 -65 3 -24 21 -48 31 -74 33
-48 4 -97 36 -185 123 -115 114 -110 91 -136 558 -14 249 -48 336 -173 449
-110 100 -248 150 -408 149 -118 -1 -156 -10 -334 -78 -77 -30 -188 -66 -245
-80 -181 -45 -231 -77 -283 -183 -32 -64 -33 -71 -33 -187 1 -146 23 -235 66
-267 17 -13 34 -40 44 -70 9 -27 52 -131 97 -231 156 -351 154 -340 188 -997
29 -554 44 -746 70 -929 6 -41 8 -82 5 -92 -7 -22 -44 -34 -172 -53 -126 -19
-196 -45 -271 -100 -69 -51 -113 -101 -194 -221 -91 -133 -134 -181 -183 -205
-87 -42 -146 -4 -358 235 -282 315 -376 434 -433 548 -39 76 -83 114 -173 148
-65 24 -185 24 -236 -2 -28 -14 -30 -18 -29 -67 3 -84 41 -149 142 -239 157
-141 326 -316 438 -453 138 -169 164 -208 164 -242 0 -34 -6 -37 -171 -94 -72
-24 -154 -56 -182 -71 -198 -100 -357 -259 -438 -439 -56 -124 -73 -205 -73
-359 -1 -197 26 -281 124 -388 90 -99 280 -203 555 -306 165 -61 232 -74 370
-74 128 1 174 10 424 88 161 50 239 62 299 47 173 -46 547 -288 622 -403 29
-44 77 -82 205 -161 198 -121 407 -222 489 -235 23 -3 106 -40 186 -81 259
-135 275 -142 314 -148 46 -8 124 -59 200 -132 l56 -53 -40 -141 c-50 -176
-60 -237 -60 -365 0 -177 38 -317 115 -421 86 -118 304 -278 530 -389 186 -91
245 -108 380 -107 158 1 244 29 748 244 195 83 217 95 217 116 0 50 168 139
660 348 l314 134 76 -71 c89 -84 202 -156 364 -232 287 -135 531 -188 655
-142 74 28 240 145 316 222 208 211 339 534 346 855 2 108 1 107 189 174 168
60 479 189 797 330 144 64 284 121 311 127 28 6 100 40 168 80 147 86 290 156
594 289 129 56 327 147 440 201 l204 100 146 -64 c190 -84 209 -91 342 -126
111 -30 199 -44 349 -57 l75 -6 85 114 c105 140 121 165 152 253 35 101 91
368 141 675 41 256 71 665 57 778 -11 88 -34 122 -116 171 -92 56 -197 81
-380 92 -88 5 -200 16 -250 25 -160 27 -447 135 -500 188 -33 33 -32 67 6 163
48 123 48 157 0 297 -77 224 -64 242 179 239 138 -1 425 -23 521 -39 28 -5 41
-1 66 20 25 21 41 26 85 26 70 0 187 -30 286 -73 89 -40 178 -61 216 -51 54
13 166 175 166 240 0 35 -76 138 -191 259 -59 63 -113 124 -120 136 -20 39
-29 82 -39 199 -6 63 -19 151 -30 195 -63 266 -211 583 -316 674 -19 17 -90
59 -157 93 -149 74 -221 119 -242 152 -10 15 -20 61 -25 114 -4 49 -16 104
-25 121 -24 47 -94 86 -230 130 -338 110 -1234 324 -1508 361 -136 18 -528
107 -1147 260 -535 132 -790 189 -1045 236 -104 19 -319 64 -477 99 -413 94
-433 96 -853 100 -198 2 -412 0 -475 -5z m710 -85 c165 -19 300 -45 560 -110
297 -73 428 -102 550 -120 181 -26 410 -75 945 -200 127 -30 492 -113 813
-185 851 -191 1572 -364 1761 -422 59 -18 63 -21 47 -34 -30 -22 -147 -43
-283 -52 -240 -16 -383 2 -846 108 -99 22 -225 44 -280 49 -56 5 -131 19 -167
30 -141 44 -711 191 -1268 327 -495 120 -595 143 -697 155 -49 6 -133 19 -185
30 -141 28 -1510 373 -1510 380 0 13 88 38 190 53 64 9 257 5 370 -9z m-819
-96 c267 -53 1091 -261 1097 -277 2 -6 -51 -38 -120 -73 -187 -94 -266 -164
-309 -277 -19 -50 -21 -70 -15 -164 7 -132 4 -136 -87 -118 -34 6 -149 36
-256 66 -210 59 -398 99 -503 109 -94 9 -103 18 -89 86 6 30 22 157 36 283 24
223 47 348 67 374 15 17 60 15 179 -9z m-421 -409 c35 -19 51 -106 30 -167
-17 -48 -47 -56 -225 -59 l-160 -2 115 9 c119 10 220 32 220 50 0 16 -51 30
-135 36 -145 10 -304 -27 -779 -183 -219 -73 -360 -114 -380 -112 l-31 3 27
27 c14 15 39 30 55 33 71 15 172 54 343 133 269 123 463 188 674 227 86 16
221 19 246 5z m1720 -80 c312 -50 1489 -321 1669 -384 130 -45 203 -103 251
-195 53 -105 -3 -350 -91 -393 -81 -39 -404 -57 -464 -26 -56 29 -367 98 -687
152 -296 50 -792 178 -935 241 -86 38 -188 111 -216 154 -47 71 -60 184 -32
278 18 61 88 132 168 168 67 32 163 33 337 5z m-3454 -94 c24 -20 28 -32 32
-90 8 -127 -55 -157 -117 -56 -30 50 -28 114 4 145 30 31 47 31 81 1z m-873
-126 c78 -29 127 -85 127 -144 0 -35 -5 -48 -22 -60 -12 -9 -29 -16 -37 -16
-8 0 -24 -9 -36 -20 -28 -27 -47 -20 -161 60 -56 38 -112 68 -154 81 -83 25
-94 32 -86 56 21 65 242 91 369 43z m2601 -95 c-2 -46 -81 -170 -160 -250 -39
-40 -131 -155 -205 -256 -213 -294 -443 -590 -620 -799 -155 -185 -189 -210
-250 -188 -81 28 -157 86 -183 138 -41 81 -57 273 -59 723 l-2 359 24 19 c13
10 37 19 55 19 39 0 223 47 376 95 332 105 707 175 920 172 l105 -2 -1 -30z
m369 -44 c26 -4 50 -11 53 -14 20 -19 -231 -387 -564 -827 -315 -416 -664
-830 -713 -845 -28 -9 -111 34 -174 89 l-49 43 29 39 c77 103 522 654 620 769
148 173 156 185 150 206 -7 21 55 104 211 284 221 256 268 284 437 256z
m-3532 -16 c210 -36 449 -154 579 -283 31 -32 75 -88 97 -127 23 -38 62 -94
86 -122 50 -58 61 -85 77 -188 13 -81 32 -115 97 -176 102 -95 299 -219 347
-219 18 0 42 -12 66 -34 20 -18 115 -89 211 -156 96 -68 217 -154 271 -191
146 -104 250 -189 245 -202 -2 -7 -20 -18 -41 -24 -50 -17 -154 4 -254 52
-100 47 -153 87 -206 155 -32 42 -55 61 -83 70 -78 25 -312 171 -499 312 -102
76 -264 238 -264 264 0 9 9 27 20 41 62 79 -14 220 -199 371 -58 48 -134 110
-168 139 -88 74 -168 84 -168 22 0 -18 9 -27 43 -39 63 -23 152 -92 255 -200
79 -83 173 -220 152 -220 -26 0 -214 156 -225 186 -11 27 -78 63 -174 93 -77
24 -130 28 -124 9 3 -7 54 -45 114 -86 165 -111 312 -265 358 -376 44 -106 5
-87 -147 70 -120 124 -209 195 -224 181 -14 -15 13 -62 97 -166 106 -132 119
-172 26 -83 -62 60 -101 80 -131 68 -17 -6 -20 -42 -4 -52 16 -9 49 -85 49
-111 0 -37 -16 -27 -48 31 -61 108 -112 119 -206 46 -55 -41 -74 -47 -106 -30
-23 12 -65 79 -55 88 3 4 28 12 53 17 41 9 47 13 47 35 0 21 -11 30 -61 55
-107 53 -175 120 -258 259 -49 81 -59 141 -45 257 30 252 122 313 400 264z
m7269 -19 c163 -34 1099 -242 1132 -252 52 -16 87 -278 69 -504 -12 -147 -31
-217 -67 -251 -38 -35 -105 -30 -319 24 -99 25 -243 55 -320 67 -229 34 -690
145 -837 200 -86 32 -89 41 -26 88 29 22 63 50 75 63 58 64 153 265 153 326 0
15 -16 76 -36 134 -38 107 -39 139 -7 139 10 0 92 -15 183 -34z m-311 -71 c21
-25 31 -46 31 -69 0 -78 -65 -64 -94 20 -37 109 -9 131 63 49z m-3035 -29 c14
-29 19 -59 18 -125 -2 -235 -88 -221 -100 16 -4 85 -2 107 12 128 23 35 47 28
70 -19z m-3185 -91 c0 -22 -3 -46 -8 -53 -12 -20 -23 50 -15 95 6 31 8 34 15
18 4 -11 8 -38 8 -60z m3373 48 c41 -51 63 -179 56 -341 -6 -133 -16 -166 -60
-203 -30 -25 -31 -27 -15 -50 30 -41 20 -215 -41 -748 -22 -190 -30 -236 -44
-245 -9 -5 -21 -7 -25 -2 -13 13 -16 381 -3 526 23 274 55 460 90 530 18 35
19 44 8 51 -7 5 -16 9 -20 9 -30 0 -47 416 -19 468 14 27 52 29 73 5z m196
-41 c25 -17 33 -82 32 -285 0 -225 -12 -398 -34 -517 -17 -89 -23 -153 -37
-410 -13 -255 -24 -328 -51 -358 -13 -13 -31 -22 -43 -20 -19 3 -20 11 -23
117 -2 72 9 239 28 445 35 373 42 430 71 536 19 69 21 92 15 280 -4 113 -4
209 0 213 10 9 26 9 42 -1z m4979 -39 c29 -44 24 -200 -11 -338 -30 -119 -87
-251 -129 -302 -30 -35 -100 -63 -159 -63 -34 0 -38 3 -38 25 0 38 32 95 134
240 51 72 96 137 101 145 5 8 10 74 10 146 0 115 2 135 19 153 26 29 52 26 73
-6z m-237 -13 c10 -5 26 -30 35 -55 34 -88 5 -198 -93 -354 -77 -123 -171
-233 -244 -287 -52 -38 -67 -44 -109 -44 -59 0 -78 23 -59 71 14 33 89 105
149 143 57 36 116 97 140 145 12 22 27 78 36 125 8 47 17 98 21 113 11 47 52
121 76 137 27 19 24 19 48 6z m-5294 -180 c5 -97 4 -123 -5 -114 -27 25 -40
164 -24 259 l6 40 9 -30 c4 -16 11 -86 14 -155z m5110 156 c3 -14 1 -40 -5
-58 -5 -18 -19 -79 -30 -135 -25 -126 -53 -187 -100 -219 -80 -54 -108 -14
-80 115 6 27 28 78 50 113 22 35 51 88 66 118 14 30 33 63 41 73 22 25 50 21
58 -7z m-186 -35 c15 -28 12 -63 -6 -89 -19 -27 -39 -16 -49 27 -13 58 30 107
55 62z m-4014 -60 c77 -16 219 -50 315 -74 273 -72 470 -114 653 -141 218 -33
427 -78 565 -121 162 -52 153 -40 414 -615 177 -391 232 -519 224 -526 -7 -8
-110 -24 -151 -24 -23 0 -66 6 -96 14 -71 18 -384 33 -980 46 -581 12 -1080
28 -1178 36 -94 8 -98 15 -78 131 33 194 86 711 110 1063 12 188 23 240 49
240 7 0 75 -13 153 -29z m-1070 -63 c12 -23 17 -57 17 -108 0 -137 -76 -284
-277 -535 -48 -60 -131 -175 -185 -255 -112 -165 -144 -205 -244 -308 -70 -72
-104 -99 -114 -89 -12 13 60 122 203 308 278 360 499 670 573 801 24 42 30 62
23 74 -8 14 -20 4 -73 -62 -70 -85 -219 -257 -251 -289 -28 -27 -15 -6 53 90
100 139 169 257 186 315 8 30 20 63 25 73 14 28 46 20 64 -15z m317 -326 c-1
-114 -7 -247 -12 -296 -6 -50 -16 -199 -22 -331 -6 -133 -16 -269 -22 -301
-11 -53 -14 -59 -37 -59 -19 0 -29 9 -44 39 -19 39 -19 41 2 205 24 177 32
265 57 596 22 289 41 393 68 366 9 -9 11 -68 10 -219z m5690 186 c104 -54 234
-180 289 -282 113 -207 209 -566 225 -839 6 -108 2 -126 -30 -127 -17 0 -36
71 -61 230 -55 339 -102 482 -209 626 -51 69 -156 160 -255 220 -74 45 -102
85 -102 146 0 82 25 87 143 26z m-5855 -173 c0 -27 -3 -59 -7 -70 -10 -24 -18
68 -12 130 4 35 5 37 12 15 4 -14 7 -47 7 -75z m-2158 -20 c0 -33 -5 -47 -19
-54 -22 -12 -31 -5 -31 26 0 31 28 85 40 78 6 -4 10 -26 10 -50z m1651 -2 c-5
-10 -28 -38 -51 -63 -31 -33 -44 -41 -48 -30 -3 9 15 33 48 62 59 53 65 56 51
31z m3432 -2 c154 -40 210 -91 294 -269 172 -364 318 -702 329 -757 5 -29 2
-36 -22 -52 -24 -15 -49 -18 -156 -18 l-129 0 -95 200 c-220 460 -404 865
-404 890 0 10 43 24 76 24 17 1 65 -8 107 -18z m481 -131 c102 -39 136 -81
220 -274 59 -136 114 -295 122 -355 7 -51 -2 -78 -39 -118 -35 -39 -52 -29
-107 60 -98 158 -301 579 -316 656 -14 68 6 73 120 31z m-3564 -37 c-1 -49
-33 -103 -175 -293 -248 -332 -418 -530 -454 -530 -33 0 18 91 99 175 37 39
122 153 190 255 191 287 295 420 326 420 9 0 14 -11 14 -27z m-510 -52 c-18
-33 -75 -114 -126 -178 -101 -126 -343 -387 -351 -379 -6 6 104 154 266 356
123 153 231 274 238 266 3 -3 -10 -32 -27 -65z m6447 -27 c77 -53 186 -157
222 -211 53 -79 169 -469 187 -623 l6 -58 -48 -8 c-27 -5 -214 -9 -415 -9
-403 0 -393 -2 -405 63 -12 64 69 821 89 834 19 12 115 40 182 53 76 14 114 6
182 -41z m-1977 12 c42 -8 131 -22 198 -30 67 -8 127 -18 132 -21 18 -11 10
-51 -20 -96 -71 -106 -216 -274 -235 -274 -38 0 -209 373 -192 419 8 20 22 20
117 2z m1476 -71 c3 -8 1 -36 -5 -63 -6 -28 -22 -159 -36 -293 -26 -244 -56
-424 -77 -463 -55 -100 5 481 79 772 16 61 28 76 39 47z m-189 -40 c49 -34 49
-100 -1 -410 -13 -82 -30 -188 -36 -233 -18 -122 -68 -174 -116 -121 -33 36
-30 144 10 414 39 261 56 327 89 350 26 19 28 19 54 0z m-8028 -20 c30 -14
122 -79 205 -143 200 -157 239 -182 275 -182 46 0 96 -51 141 -145 22 -45 40
-86 40 -92 0 -23 55 -142 86 -186 20 -27 34 -59 34 -76 0 -37 -54 -119 -261
-396 -90 -121 -208 -286 -261 -366 -118 -177 -206 -274 -285 -316 -57 -31
-264 -83 -327 -83 -44 0 -111 37 -151 82 -81 96 -112 293 -145 938 -16 324
-40 868 -40 925 l0 52 88 -14 c134 -22 331 -19 417 5 93 27 120 26 184 -3z
m7382 4 c71 -24 134 -54 144 -69 12 -19 -14 -53 -334 -445 -141 -171 -257
-255 -354 -255 -54 0 -140 25 -157 45 -19 23 -5 46 106 187 54 67 107 139 119
160 36 64 144 196 245 300 109 112 116 115 231 77z m455 -63 c3 -8 -4 -75 -15
-148 -11 -73 -30 -203 -41 -288 -21 -168 -39 -241 -58 -248 -20 -6 -19 141 4
398 17 193 29 257 51 282 19 22 51 24 59 4z m-5091 -236 c-7 -161 -21 -249
-46 -289 -25 -41 -89 -70 -156 -71 -44 0 -55 4 -72 26 -28 36 -27 96 3 159 13
28 66 104 118 168 52 65 100 134 107 155 8 20 19 43 25 51 18 23 28 -61 21
-199z m-585 122 c0 -27 -253 -356 -316 -411 -55 -49 -99 -38 -70 16 22 42 138
175 257 296 98 98 129 121 129 99z m5290 -479 c-5 -33 -18 -64 -27 -70 -21
-16 -55 -17 -70 -2 -15 15 -6 39 55 149 l47 85 3 -52 c2 -29 -2 -79 -8 -110z
m-146 55 c-68 -95 -72 -99 -77 -85 -8 21 10 54 54 96 59 56 68 51 23 -11z
m-6223 -95 c62 -33 63 -48 4 -40 -51 7 -145 52 -145 69 0 18 87 1 141 -29z
m456 -34 c24 -11 43 -24 43 -29 0 -25 -154 -16 -187 11 -16 14 -17 36 0 43 22
10 100 -4 144 -25z m398 -10 c58 -16 69 -28 49 -50 -21 -23 -54 -24 -144 -3
-73 16 -105 38 -79 55 20 12 126 11 174 -2z m490 -24 c28 -8 59 -21 70 -29 19
-14 16 -15 -40 -16 -62 0 -162 20 -209 41 -69 32 70 34 179 4z m354 19 c45 -9
27 -24 -30 -24 -61 0 -66 18 -8 29 4 0 20 -2 38 -5z m381 -12 c46 -22 46 -46
0 -50 -37 -3 -120 33 -128 56 -6 19 87 15 128 -6z m308 6 c17 -17 15 -47 -3
-54 -41 -16 -107 36 -74 57 20 13 63 11 77 -3z m391 -43 c35 -18 47 -43 24
-52 -17 -7 -123 43 -123 58 0 14 68 10 99 -6z m401 -10 c33 -30 8 -48 -58 -43
-58 5 -89 26 -78 53 9 24 107 16 136 -10z m813 -8 c31 -12 57 -26 57 -30 0 -5
-29 -7 -64 -5 -66 4 -106 25 -106 56 0 17 28 12 113 -21z m-407 -22 c48 -20
44 -50 -6 -49 -41 1 -160 43 -160 55 0 15 128 10 166 -6z m832 6 c11 -7 10
-10 -3 -15 -22 -8 -69 -8 -91 1 -16 6 -16 7 2 14 26 10 76 10 92 0z m-3782
-79 c135 -65 222 -118 549 -332 165 -108 359 -232 430 -275 154 -92 282 -179
668 -452 159 -113 346 -242 418 -289 149 -97 201 -141 241 -203 76 -120 -19
-189 -179 -130 -115 44 -622 409 -764 551 -79 78 -104 98 -136 104 -50 9 -69
19 -123 67 -25 21 -88 64 -140 95 -309 180 -1141 778 -1183 850 -29 49 -11 65
68 60 46 -3 83 -14 151 -46z m4569 33 c0 -5 -19 -11 -42 -13 -40 -3 -58 10
-30 22 20 8 72 2 72 -9z m890 0 c0 -5 -19 -11 -42 -13 -40 -3 -58 10 -30 22
20 8 72 2 72 -9z m-4927 -38 c27 -22 34 -47 22 -81 -17 -53 -42 -70 -82 -57
-42 14 -94 59 -103 88 -7 24 18 53 58 65 27 8 87 0 105 -15z m600 -7 c10 -18
12 -55 8 -135 -5 -115 -26 -210 -68 -300 l-23 -50 -3 45 c-4 57 24 446 33 460
11 18 38 7 53 -20z m183 20 c25 -14 24 -46 -5 -163 -29 -115 -50 -157 -76
-157 -31 0 -37 44 -10 77 21 26 22 34 15 130 -6 91 -4 102 12 112 23 13 40 14
64 1z m173 -12 c31 -44 15 -512 -19 -578 -17 -33 -89 -69 -159 -80 -87 -14
-116 11 -116 99 0 86 43 103 81 30 22 -44 29 -47 51 -21 33 39 58 154 58 273
0 90 16 168 41 202 14 19 19 37 15 53 -12 46 21 61 48 22z m4841 2 c4 -6 -15
-10 -50 -10 -35 0 -54 4 -50 10 3 6 26 10 50 10 24 0 47 -4 50 -10z m-5351
-16 c20 -19 20 -59 1 -149 -14 -66 -73 -266 -80 -274 -5 -4 -54 25 -147 87
-90 59 -103 87 -94 204 6 98 16 125 49 138 12 5 75 9 139 9 93 1 120 -2 132
-15z m694 -46 c2 -20 -4 -83 -12 -141 -9 -57 -16 -141 -16 -186 0 -117 -40
-201 -55 -118 -4 19 0 125 8 236 12 151 20 209 32 227 22 33 39 26 43 -18z
m1032 7 c132 -15 186 -25 132 -25 -11 0 -249 -45 -528 -101 -279 -55 -513 -98
-520 -95 -16 6 -18 72 -8 174 l7 61 56 4 c138 10 721 -2 861 -18z m5210 15 c0
-6 -28 -10 -65 -10 -37 0 -65 4 -65 10 0 6 28 10 65 10 37 0 65 -4 65 -10z
m-3994 -42 c4 -5 5 -11 1 -14 -16 -16 -135 -46 -334 -84 -249 -48 -486 -105
-588 -143 -38 -14 -158 -41 -265 -61 -107 -20 -347 -66 -533 -103 -185 -36
-339 -64 -342 -61 -3 3 -1 17 5 32 7 20 6 37 -7 68 -16 39 -15 42 2 55 11 7
49 22 85 33 90 28 565 123 796 160 192 30 276 51 305 76 19 17 95 32 220 43
113 11 644 9 655 -1z m1734 -23 c18 -21 -11 -60 -185 -253 -145 -159 -215
-231 -215 -219 0 23 241 386 281 424 31 29 85 63 100 63 4 0 12 -7 19 -15z
m-1161 -4 c33 -21 -39 -123 -97 -135 -30 -7 -144 24 -177 47 -18 14 -17 15 16
32 91 48 225 77 258 56z m492 -1 c87 -24 75 -61 -66 -211 -162 -171 -322 -392
-310 -429 3 -11 -9 -32 -32 -56 -20 -21 -213 -259 -429 -529 -216 -269 -465
-580 -554 -690 -203 -251 -482 -620 -509 -674 -40 -78 -182 -240 -235 -268
-17 -9 -38 -12 -54 -8 -20 5 -221 118 -250 141 -2 1 87 119 197 261 208 267
346 455 374 509 12 23 26 33 50 38 40 7 52 20 97 101 58 107 121 188 491 640
267 326 353 438 400 518 23 38 103 144 179 237 77 93 173 213 213 267 89 116
104 131 154 149 45 16 231 18 284 4z m276 -7 c9 -23 -38 -109 -123 -222 -114
-152 -233 -275 -250 -258 -3 3 6 28 21 57 34 68 316 440 332 440 8 0 17 -7 20
-17z m170 -10 c6 -17 -72 -123 -153 -208 l-76 -80 38 70 c96 178 175 268 191
218z m-5837 -23 c0 -39 -118 -199 -209 -284 -101 -93 -72 -29 71 162 67 87
107 132 119 132 11 0 19 -5 19 -10z m6406 -17 c4 -14 -3 -116 -14 -227 -12
-111 -26 -266 -32 -346 -5 -80 -15 -163 -21 -185 -13 -46 -38 -80 -51 -67 -12
12 -11 262 2 456 18 268 49 396 96 396 8 0 17 -12 20 -27z m190 -10 c19 -45 8
-113 -32 -204 -53 -118 -68 -97 -63 89 4 128 13 152 56 152 18 0 28 -9 39 -37z
m199 27 c3 -6 0 -45 -9 -88 -8 -42 -18 -104 -21 -137 -4 -33 -17 -83 -30 -112
-23 -51 -99 -143 -118 -143 -15 0 -2 131 22 222 48 177 126 307 156 258z
m-6994 -28 c-5 -10 -38 -54 -73 -98 -34 -45 -107 -138 -161 -207 -53 -69 -156
-216 -227 -326 -214 -333 -226 -346 -299 -339 -59 6 -181 62 -181 84 0 33 113
221 276 459 181 263 295 409 339 429 30 15 37 14 90 -4 76 -26 112 -25 176 4
56 26 75 26 60 -2z m364 6 c-30 -99 -394 -562 -421 -535 -27 26 198 349 349
499 61 62 83 73 72 36z m95 -99 c0 -26 -123 -193 -179 -243 -42 -38 -33 -5 21
76 85 127 158 204 158 167z m5800 -54 c0 -39 -47 -105 -190 -265 -107 -120
-150 -175 -150 -192 0 -20 -100 -185 -168 -278 -129 -176 -362 -432 -362 -399
0 20 34 73 172 265 64 89 157 222 206 297 103 153 255 346 384 489 89 97 108
112 108 83z m-1760 -5 c0 -15 -36 -27 -151 -50 -154 -31 -151 -26 21 36 69 24
130 31 130 14z m-3940 -19 c0 -17 -79 -127 -150 -209 -66 -76 -100 -100 -100
-69 0 30 70 129 144 205 74 75 106 97 106 73z m3119 -49 c-13 -39 -60 -63
-132 -69 l-62 -4 55 23 c30 13 73 36 95 51 50 34 56 34 44 -1z m-2904 -46 c28
-19 70 -53 95 -76 42 -39 43 -43 26 -55 -10 -8 -48 -21 -85 -29 -91 -21 -310
-51 -317 -43 -14 14 14 54 99 142 57 59 100 95 112 95 11 0 43 -15 70 -34z
m3360 25 c3 -5 -111 -48 -252 -94 -142 -47 -310 -103 -373 -125 -150 -53 -174
-59 -306 -76 -66 -9 -137 -25 -175 -41 -77 -31 -213 -68 -329 -90 -110 -20
-257 -35 -276 -28 -44 17 18 60 146 101 100 33 185 50 356 72 294 39 503 93
779 200 83 32 182 65 220 73 79 17 201 22 210 8z m306 -42 c61 -32 -81 -90
-520 -213 -102 -29 -188 -59 -227 -81 -64 -36 -147 -58 -268 -70 -38 -4 -77
-9 -85 -12 -35 -13 7 17 79 56 41 22 104 47 140 57 39 10 73 26 85 40 25 28
110 57 385 130 118 31 253 67 300 80 47 12 86 23 88 23 2 1 12 -4 23 -10z
m1354 -26 c-3 -16 -28 -62 -56 -104 -27 -41 -65 -107 -84 -147 -56 -112 -141
-214 -504 -601 -141 -151 -191 -210 -191 -228 0 -43 -28 -87 -122 -189 -188
-204 -352 -413 -573 -729 -141 -202 -212 -291 -256 -324 -32 -24 -83 -31 -101
-13 -11 11 105 187 193 292 35 41 122 145 193 230 72 85 182 216 246 290 127
149 209 255 379 493 62 86 150 203 197 260 46 56 98 125 113 152 16 28 86 110
156 183 96 102 133 150 157 199 23 49 56 91 127 164 100 102 139 124 126 72z
m-9611 2 c47 -31 161 -218 154 -253 -2 -12 -22 0 -75 46 -108 93 -168 174
-156 210 6 17 49 15 77 -3z m7221 -20 c0 -12 -60 -19 -83 -10 -14 5 -14 7 -2
16 19 12 85 7 85 -6z m-170 -35 c4 -6 -15 -10 -50 -10 -35 0 -54 4 -50 10 3 6
26 10 50 10 24 0 47 -4 50 -10z m3479 -249 c-9 -9 -72 68 -76 93 -5 28 8 89
29 134 l16 37 18 -129 c10 -72 16 -132 13 -135z m-6820 227 c-3 -13 -30 -54
-59 -93 -29 -38 -79 -112 -110 -163 -73 -119 -145 -194 -145 -149 0 6 29 47
64 90 35 44 66 91 69 106 3 15 25 55 48 90 73 110 152 180 133 119z m286 -109
c-16 -35 -28 -71 -25 -79 3 -9 -21 -48 -59 -95 -69 -87 -264 -281 -273 -272
-8 9 52 91 117 161 38 40 69 85 86 127 15 35 43 85 62 111 32 46 112 122 119
114 2 -2 -10 -32 -27 -67z m4268 43 c10 -69 -222 -184 -408 -203 -162 -16
-318 -69 -354 -120 -12 -18 -35 -25 -133 -40 -65 -10 -212 -45 -327 -79 -226
-65 -306 -76 -306 -41 0 44 88 81 330 141 280 70 546 153 1005 314 88 31 167
55 175 54 8 -2 16 -13 18 -26z m1785 -39 c15 -36 15 -349 -1 -454 -17 -114
-44 -176 -112 -256 -67 -78 -184 -183 -205 -183 -22 0 -28 60 -22 228 7 221
32 303 145 477 67 104 157 215 174 215 5 0 14 -12 21 -27z m-3713 -21 c0 -12
-118 -51 -175 -58 l-50 -5 30 25 c16 14 45 29 65 34 44 12 130 15 130 4z
m2915 -19 c-8 -35 -68 -116 -100 -137 -24 -16 -25 -16 -25 4 0 47 83 160 117
160 11 0 13 -7 8 -27z m-4360 3 c28 -7 78 -27 113 -45 133 -67 96 -91 -263
-170 -434 -96 -585 -116 -630 -87 -14 9 -25 24 -25 34 0 48 123 156 220 193
54 20 265 73 325 82 69 9 213 6 260 -7z m-1115 -61 c0 -2 -11 -15 -24 -28 -14
-14 -28 -41 -32 -61 -11 -61 -74 -74 -74 -16 0 31 41 87 74 100 23 10 56 13
56 5z m3337 -51 c4 -10 -1 -22 -11 -30 -24 -17 -105 -26 -141 -15 l-30 8 45
20 c67 30 73 31 103 32 17 1 30 -5 34 -15z m1140 -31 c7 -18 -56 -83 -82 -83
-34 0 -5 64 40 88 27 15 35 15 42 -5z m-1377 -42 c0 -10 -38 -26 -100 -41 -70
-17 -121 -39 -153 -66 -33 -28 -92 -32 -123 -9 -19 15 -19 15 3 34 22 18 149
62 233 79 59 13 140 14 140 3z m1238 -13 c-12 -42 -450 -198 -554 -198 -14 0
-36 -11 -50 -25 -40 -40 -108 -69 -271 -115 -144 -40 -155 -42 -198 -30 -50
14 -109 62 -103 82 7 21 90 46 252 79 195 39 298 66 311 83 36 46 389 129 451
106 23 -9 67 -1 101 19 25 15 65 14 61 -1z m-6334 -62 c87 -36 117 -164 46
-201 -73 -38 -520 -105 -520 -78 0 16 58 101 101 147 103 112 275 173 373 132z
m3485 -2 c53 -15 101 -54 101 -80 0 -23 -35 -15 -76 17 -38 30 -39 30 -143 27
-94 -3 -106 -1 -109 15 -2 11 5 21 20 26 37 15 150 12 207 -5z m-1673 -21
c-10 -40 -95 -163 -122 -175 -59 -27 -73 33 -24 101 31 42 111 101 138 101 10
0 12 -7 8 -27z m-3035 -186 c49 -61 40 -82 -13 -30 -33 31 -128 150 -172 213
-20 30 147 -136 185 -183z m5770 134 c119 -50 233 -104 704 -333 209 -102 412
-197 452 -212 39 -14 104 -41 143 -61 l71 -36 -48 -67 c-135 -191 -181 -254
-240 -323 -87 -103 -96 -108 -175 -79 -125 45 -462 231 -517 285 l-24 24 29 6
c92 20 167 85 181 156 21 105 -20 179 -160 289 -56 44 -140 111 -187 150 -47
38 -120 89 -163 112 -167 92 -216 128 -173 128 7 0 56 -18 107 -39z m4421 3
c17 -60 -18 -214 -48 -214 -46 0 -46 155 1 227 20 30 36 26 47 -13z m-5964 10
c32 -9 27 -21 -15 -43 -64 -32 -195 -69 -375 -106 -94 -19 -206 -44 -249 -55
-42 -11 -82 -20 -88 -20 -17 0 -13 35 7 53 49 44 360 131 582 162 120 16 111
16 138 9z m6359 -76 c78 -24 143 -46 143 -49 0 -12 -164 -82 -247 -105 -93
-25 -177 -31 -189 -13 -20 34 12 180 44 199 33 19 107 9 249 -32z m-2967 24
c0 -38 -168 -107 -390 -162 -139 -34 -243 -70 -282 -97 -57 -39 -214 -45 -263
-9 -16 11 -15 14 9 30 15 9 65 27 112 38 47 11 99 31 117 44 77 57 265 116
457 143 41 6 86 13 100 15 51 7 140 6 140 -2z m-4850 -21 c0 -19 -75 -111 -91
-111 -5 0 2 22 15 49 38 73 76 105 76 62z m2193 -7 c114 -58 446 -294 538
-383 49 -47 56 -71 22 -71 -8 0 -52 24 -96 54 -91 60 -213 123 -359 185 -150
64 -164 55 -61 -44 79 -75 78 -94 -4 -70 -68 20 -98 46 -120 103 -26 67 -25
202 1 231 11 12 21 21 23 21 2 0 27 -12 56 -26z m-229 -75 c-2 -78 -30 -149
-67 -174 -29 -18 -122 -31 -161 -21 -30 7 -34 31 -10 57 9 10 51 30 94 44 91
30 112 48 80 65 -28 15 -76 8 -250 -36 -74 -18 -228 -49 -342 -68 -213 -36
-278 -55 -278 -79 0 -22 63 -25 177 -9 54 8 143 15 198 16 96 1 100 0 103 -21
4 -24 -9 -29 -132 -53 -33 -7 -87 -22 -120 -35 -34 -13 -133 -37 -221 -55
-194 -38 -286 -64 -317 -89 -22 -19 -23 -20 -3 -28 63 -26 267 5 670 102 99
24 230 53 290 65 122 24 258 28 281 10 32 -28 9 -67 -56 -94 -59 -24 -617
-164 -760 -190 -74 -13 -202 -32 -285 -41 -82 -9 -193 -26 -245 -37 -167 -37
-271 -34 -287 8 -10 26 12 36 107 49 116 16 153 43 93 66 -20 8 -75 8 -198 -1
-187 -13 -243 -7 -303 33 -37 25 -52 64 -31 78 29 17 116 29 361 49 139 11
275 26 302 32 59 15 79 39 54 64 -20 20 -98 23 -293 11 -86 -6 -127 -5 -120 1
44 44 1000 257 1460 326 144 22 157 24 185 22 24 -1 25 -3 24 -67z m-2483 3
c78 -28 166 -72 185 -93 14 -16 14 -18 -3 -27 -55 -30 -569 -125 -747 -139
-69 -5 -81 -4 -92 12 -14 19 -17 101 -5 145 11 41 79 66 266 100 195 34 303
35 396 2z m7781 -58 c19 -203 -66 -635 -125 -634 -52 1 -70 76 -42 180 23 85
34 156 44 275 5 61 17 133 26 160 18 52 61 108 80 102 5 -2 13 -39 17 -83z
m-1352 -11 c-81 -151 -210 -322 -343 -455 -47 -46 -67 -74 -67 -91 0 -33 -73
-133 -265 -363 -88 -105 -208 -258 -267 -340 -126 -174 -124 -173 -162 -202
-99 -76 -60 61 57 200 32 38 67 89 77 112 16 38 23 44 61 52 42 9 44 11 51 53
12 71 114 210 343 466 128 143 193 232 206 280 6 20 23 45 40 57 16 12 75 74
131 138 105 120 168 183 176 176 2 -3 -15 -40 -38 -83z m2716 41 c64 -31 56
-45 -53 -97 -54 -26 -116 -58 -138 -72 -49 -30 -542 -227 -715 -285 -69 -23
-151 -44 -182 -47 -55 -6 -58 -5 -68 21 -6 18 -6 43 1 79 31 158 55 175 399
290 314 105 469 138 621 133 69 -2 107 -8 135 -22z m-8088 4 c20 -20 14 -45
-18 -71 -38 -32 -144 -57 -415 -97 -115 -17 -258 -40 -317 -52 -59 -12 -111
-18 -115 -14 -12 12 46 53 91 65 565 142 716 179 747 180 8 1 20 -4 27 -11z
m5722 -146 c0 -95 -22 -281 -44 -377 -10 -43 -22 -66 -41 -80 -52 -39 -520
-220 -552 -213 -20 4 26 70 143 203 53 61 171 201 261 313 154 189 203 242
224 242 5 0 9 -40 9 -88z m-7692 30 c16 -19 11 -92 -9 -135 -17 -37 -72 -61
-219 -96 -321 -76 -484 -96 -553 -67 -31 13 -117 97 -117 115 0 5 20 12 45 15
28 5 49 14 54 25 15 28 187 75 477 132 212 42 297 44 322 11z m-1008 -242 c46
-52 99 -116 117 -142 19 -26 47 -51 63 -57 47 -16 122 -93 273 -281 197 -244
242 -290 283 -290 26 0 39 7 60 35 32 42 52 44 122 9 64 -32 126 -101 146
-162 19 -57 36 -193 36 -283 0 -63 -15 -167 -25 -177 -7 -8 -101 43 -450 246
-176 102 -353 201 -393 220 -74 35 -117 75 -128 118 -8 30 23 77 98 151 l53
53 119 -130 c213 -234 292 -283 377 -233 41 25 43 40 6 59 -64 33 -403 390
-653 689 -104 124 -313 389 -328 415 -12 19 117 -118 224 -240z m7040 134
c-52 -52 -107 -102 -122 -110 -49 -26 -96 -17 -203 37 -55 28 -103 54 -108 58
-9 9 228 77 333 96 41 7 102 14 135 14 l60 1 -95 -96z m4158 44 c-2 -7 -29
-30 -59 -50 -80 -55 -428 -228 -471 -235 -34 -5 -38 -3 -38 16 0 24 46 56 95
67 42 9 100 40 160 84 111 83 327 164 313 118z m-1750 -99 c3 -81 -24 -388
-38 -424 -11 -30 -48 -51 -63 -36 -17 17 -20 112 -8 223 30 265 102 421 109
237z m-7421 49 c28 -26 29 -34 4 -48 -41 -21 -98 23 -71 55 17 21 40 19 67 -7z
m5712 -65 c-90 -160 -196 -300 -529 -698 -238 -285 -379 -464 -500 -633 -101
-142 -150 -190 -150 -144 0 44 107 191 389 536 109 132 287 354 396 491 109
138 237 294 284 348 47 54 97 112 110 128 36 44 36 35 0 -28z m-5223 26 c13
-14 13 -17 -3 -30 -10 -9 -47 -21 -82 -27 -44 -8 -76 -21 -100 -40 -60 -48
-78 -55 -108 -40 -14 7 -31 21 -37 31 -15 25 13 45 76 53 37 5 53 13 65 31 9
14 26 29 37 34 32 13 134 5 152 -12z m2442 -53 c72 -30 317 -156 986 -508 272
-144 413 -234 394 -253 -8 -9 -115 44 -644 315 -611 315 -793 416 -833 463
-21 26 1 22 97 -17z m-3193 13 c22 -6 137 -59 255 -118 119 -60 241 -114 270
-120 100 -23 192 -63 525 -229 704 -351 1580 -766 1690 -802 53 -17 308 -132
472 -213 l133 -66 -56 -21 c-80 -30 -194 -60 -226 -60 -15 0 -71 16 -125 35
-54 19 -137 46 -184 59 -133 38 -402 161 -1292 587 -558 268 -794 374 -927
419 -173 57 -786 370 -881 450 l-33 27 23 13 c36 19 189 49 256 49 33 1 78 -4
100 -10z m9396 -85 c35 -42 -63 -109 -214 -144 -89 -21 -127 -17 -127 14 0 17
43 60 88 88 85 53 225 76 253 42z m-11325 -36 c25 -23 50 -50 55 -61 16 -29
-15 -55 -95 -78 -275 -79 -329 -104 -411 -184 -28 -27 -77 -88 -109 -133 -90
-130 -122 -162 -162 -162 -48 0 -99 23 -119 54 -56 85 53 283 219 400 144 103
403 204 524 205 48 1 56 -2 98 -41z m1148 -14 c60 -23 -74 -66 -312 -98 -121
-17 -262 -21 -262 -8 0 20 272 89 410 105 61 7 148 7 164 1z m3542 -18 c20
-53 -69 -94 -317 -145 -107 -23 -222 -50 -255 -61 -139 -49 -554 -127 -726
-137 -76 -4 -116 -2 -138 7 -104 43 86 109 370 129 159 11 252 30 439 90 131
42 234 68 421 105 140 28 199 31 206 12z m5244 -51 c0 -48 -15 -69 -22 -31 -7
33 2 87 13 80 5 -3 9 -25 9 -49z m-8098 -141 c397 -194 566 -272 646 -298 77
-26 99 -86 32 -86 -60 0 -312 99 -434 170 -38 22 -175 88 -305 146 -257 115
-296 136 -312 165 -10 19 -4 79 8 79 3 0 168 -79 365 -176z m3333 105 c14 -17
24 -34 21 -36 -7 -8 -96 46 -96 57 0 23 50 8 75 -21z m4092 -54 c-3 -46 -11
-93 -16 -104 -20 -36 -135 -57 -147 -26 -13 32 117 215 153 215 14 0 15 -12
10 -85z m-4427 36 c0 -6 -15 -21 -32 -35 -43 -32 -198 -107 -209 -100 -21 13
-7 45 31 70 72 48 210 90 210 65z m5823 -40 c-120 -100 -190 -190 -248 -317
-20 -43 -48 -94 -63 -114 -26 -33 -27 -40 -27 -149 0 -97 -3 -115 -17 -125
-34 -21 -141 62 -158 122 -31 115 99 388 252 526 89 81 144 105 241 106 l78 0
-58 -49z m655 28 c17 -26 18 -125 1 -145 -18 -22 -45 -17 -72 16 -64 75 -53
150 21 150 27 0 41 -6 50 -21z m-10150 -35 c31 -20 28 -50 -6 -68 -28 -15 -73
-23 -242 -47 -47 -6 -114 -20 -149 -31 -71 -22 -84 -17 -75 29 11 57 38 71
151 82 63 6 113 16 134 28 19 10 45 21 59 24 34 9 100 0 128 -17z m-966 -51
c31 -33 138 -182 138 -192 0 -4 -32 -22 -70 -41 -94 -46 -105 -59 -119 -155
-15 -102 -37 -168 -61 -190 -14 -13 -47 -20 -117 -26 -54 -5 -193 -18 -309
-30 -215 -22 -284 -21 -284 7 0 50 67 117 162 162 88 42 165 61 297 72 165 14
208 48 92 70 -107 20 -298 3 -369 -34 -46 -24 -62 -21 -62 12 0 61 113 125
251 142 179 23 294 59 380 122 39 28 41 32 36 69 -6 46 0 48 35 12z m10038 14
c0 -20 -146 -112 -272 -171 -160 -76 -578 -212 -693 -226 -139 -17 -182 -29
-288 -77 -54 -25 -101 -42 -104 -39 -12 12 41 56 116 95 103 54 921 342 1151
406 47 13 86 24 88 24 1 1 2 -5 2 -12z m738 -11 c93 -19 119 -29 143 -52 39
-37 84 -132 104 -216 16 -69 44 -261 40 -266 -2 -2 -61 16 -132 39 -112 36
-140 42 -224 43 -90 1 -98 -1 -132 -27 -58 -44 -72 -149 -31 -228 53 -104 247
-161 363 -108 61 27 74 21 57 -29 -23 -65 -115 -221 -152 -256 -59 -57 -206
-76 -282 -37 -70 37 -158 137 -148 168 4 12 -8 37 -33 71 -67 88 -85 149 -85
282 0 134 22 227 80 343 80 159 219 296 299 296 11 0 71 -10 133 -23z m-10938
-15 l25 -7 -26 -17 c-28 -19 -245 -77 -283 -77 -21 1 -21 1 -1 16 36 29 143
75 192 84 59 10 62 10 93 1z m4497 -14 c33 -32 -49 -72 -176 -85 -36 -4 -79
-5 -95 -2 -27 5 -27 6 -10 21 92 78 236 112 281 66z m-2936 -58 c270 -80 297
-90 357 -129 91 -58 847 -434 980 -486 92 -37 123 -44 164 -42 29 2 53 8 55
15 8 22 -45 60 -155 113 -120 58 -278 159 -336 216 -81 81 -78 79 894 -386
1040 -498 1112 -530 1180 -530 33 0 38 -11 15 -30 -22 -18 -185 -7 -265 19
-42 13 -77 32 -95 51 -23 24 -62 41 -202 85 -95 31 -226 78 -290 106 -65 28
-141 59 -169 69 -28 10 -89 46 -135 80 -99 74 -210 130 -257 130 -30 0 -32 -2
-22 -21 17 -32 130 -109 263 -181 67 -37 280 -130 472 -208 392 -159 480 -198
513 -229 26 -26 26 -25 6 -45 -20 -20 -82 -21 -159 -1 -33 9 -170 67 -305 129
-135 63 -369 169 -520 236 -151 67 -435 200 -630 295 -195 96 -386 183 -425
195 -159 49 -435 180 -621 296 -135 83 -245 138 -320 159 -105 31 -143 61
-129 105 8 26 13 26 136 -11z m3474 16 c33 -9 109 -37 170 -62 164 -70 1017
-498 1039 -522 18 -20 19 -23 3 -56 -30 -62 -204 -180 -378 -256 -87 -38 -366
-129 -455 -149 -54 -12 -52 -13 -430 161 -155 71 -315 141 -355 155 -119 43
-872 404 -884 424 -8 14 102 46 413 120 333 79 418 103 482 135 38 19 98 36
205 58 46 10 135 6 190 -8z m-895 -43 c0 -23 -158 -75 -355 -116 -251 -54
-315 -57 -315 -16 0 13 15 24 53 38 153 58 617 128 617 94z m-3021 -25 c51
-18 61 -40 32 -71 -26 -27 -117 -66 -155 -66 -38 0 -111 29 -147 60 -28 24
-32 31 -23 47 17 28 71 42 169 42 50 0 105 -5 124 -12z m7946 -47 c18 -20 18
-21 -4 -44 -25 -26 -319 -152 -329 -141 -11 11 150 159 198 183 57 28 111 29
135 2z m-607 -32 c-33 -48 -231 -245 -322 -321 -58 -49 -99 -75 -157 -97 -80
-31 -218 -64 -227 -55 -7 6 22 48 92 135 120 148 233 242 340 283 41 15 66 18
128 13 73 -5 78 -4 89 17 14 27 49 56 67 57 9 0 6 -11 -10 -32z m-6785 -86
c45 -21 195 -103 332 -182 301 -172 417 -230 462 -230 48 0 134 -35 348 -142
105 -53 294 -141 420 -197 388 -173 745 -355 795 -408 13 -14 12 -14 -10 -8
-67 19 -300 117 -765 320 -496 216 -713 305 -785 320 -52 11 -238 94 -471 210
-441 219 -560 294 -543 339 17 44 93 36 217 -22z m8337 42 c21 -25 0 -65 -50
-96 -25 -16 -113 -52 -196 -82 -183 -65 -261 -101 -275 -127 -28 -53 12 -48
258 33 100 33 193 58 205 56 17 -2 24 -11 26 -31 4 -36 -8 -50 -79 -92 -83
-48 -186 -83 -298 -100 -202 -30 -573 -166 -702 -257 -56 -38 -68 -43 -119
-43 -49 0 -65 5 -114 38 -60 40 -66 56 -25 68 132 38 240 75 296 101 58 26 81
31 155 33 74 2 94 6 133 29 57 34 78 72 50 92 -48 35 -193 8 -355 -66 -60 -27
-160 -64 -222 -80 -106 -29 -267 -90 -454 -174 -99 -44 -139 -53 -147 -34 -18
48 87 140 258 226 173 87 298 127 442 142 56 6 91 15 110 29 37 26 135 58 372
121 258 68 394 112 521 170 58 26 112 50 120 53 31 11 78 6 90 -9z m-4050 -29
c34 -18 59 -55 37 -55 -18 0 -79 42 -85 58 -5 16 13 15 48 -3z m-6787 -161
c55 -40 87 -87 87 -126 0 -58 -60 -52 -133 11 -43 39 -62 87 -48 125 14 35 36
33 94 -10z m11743 -129 c18 -28 13 -69 -13 -97 -35 -39 -93 -9 -93 49 0 65 73
99 106 48z m-2691 -92 c-9 -20 -20 -42 -26 -50 -15 -18 -59 -17 -59 1 0 15 77
86 92 86 5 0 1 -17 -7 -37z m-6625 -49 c159 -96 240 -157 240 -181 0 -7 -40
-55 -88 -105 -103 -110 -127 -142 -139 -188 -5 -20 -17 -36 -26 -38 -26 -5
-75 54 -92 110 -31 106 -46 406 -21 446 12 20 29 14 126 -44z m-1557 25 c26
-7 47 -23 67 -51 34 -47 38 -73 13 -86 -10 -5 -103 -12 -208 -16 -104 -3 -235
-12 -290 -21 -165 -24 -218 -17 -236 33 -11 30 23 66 77 81 79 23 398 67 499
70 22 0 57 -4 78 -10z m-850 -61 c60 -44 68 -54 49 -56 -12 -2 -35 6 -51 17
-27 20 -88 91 -76 91 3 0 38 -24 78 -52z m10818 30 c14 -27 5 -127 -16 -168
-21 -41 -72 -67 -290 -150 -104 -40 -289 -113 -410 -162 -177 -72 -231 -90
-275 -91 l-55 -2 0 72 c0 104 11 113 184 154 302 70 781 239 781 275 0 14 -32
24 -82 24 -55 0 -54 15 4 44 68 34 142 36 159 4z m241 -14 c118 -78 94 -122
-32 -59 -54 27 -85 59 -77 80 10 25 51 17 109 -21z m-634 -83 c18 -11 -58 -41
-308 -121 -261 -84 -319 -100 -358 -100 -29 0 -31 2 -23 18 44 82 615 250 689
203z m-1918 -39 c0 -31 -146 -96 -372 -166 -163 -51 -223 -63 -231 -49 -9 15
23 28 318 129 290 100 285 98 285 86z m-5070 -92 c36 -12 171 -72 300 -134
256 -123 387 -182 610 -274 261 -108 420 -189 420 -214 0 -15 -107 -8 -181 11
-156 40 -454 175 -780 353 -264 144 -309 160 -351 121 -23 -20 -35 -14 -112
51 -25 21 -63 44 -83 51 -46 16 -65 41 -43 56 23 15 146 4 220 -21z m-2484 0
c153 -13 191 -21 269 -56 l60 -27 -75 -35 c-97 -46 -161 -51 -256 -23 -106 31
-158 27 -322 -24 -163 -51 -165 -51 -243 22 -52 49 -84 97 -74 113 21 34 382
51 641 30z m6233 -231 c28 -17 51 -34 51 -39 0 -8 -68 -32 -620 -221 -501
-172 -909 -306 -973 -320 -45 -10 -69 -10 -109 0 -58 13 -268 99 -268 109 1 4
35 23 78 42 42 19 92 46 112 59 89 61 207 109 635 257 154 53 388 140 520 194
l240 97 142 -73 c78 -40 164 -87 192 -105z m1244 159 c-199 -259 -213 -269
-435 -323 -236 -56 -317 -88 -406 -160 -25 -21 -55 -35 -70 -35 -33 0 -92 35
-92 54 0 48 241 173 640 330 135 54 272 108 305 121 71 29 70 28 58 13z m737
-25 c0 -42 -79 -110 -195 -167 -127 -63 -386 -176 -402 -176 -25 0 -13 39 27
89 122 154 352 278 518 280 50 1 52 0 52 -26z m249 -18 c45 -23 74 -101 55
-149 -9 -23 -35 -20 -85 13 -80 52 -114 105 -84 135 20 20 77 21 114 1z
m-1579 -44 c0 -11 -57 -47 -225 -141 -71 -40 -152 -89 -178 -108 -63 -46 -121
-66 -256 -92 -168 -32 -227 -52 -452 -160 -113 -55 -253 -115 -310 -133 -57
-19 -167 -59 -244 -90 -77 -31 -185 -68 -240 -82 -110 -29 -285 -45 -285 -27
0 32 189 110 690 285 381 134 911 327 1050 384 47 19 127 57 178 84 120 63
272 108 272 80z m-4539 -76 c114 -39 338 -141 584 -265 277 -140 411 -218 422
-247 8 -20 -24 -49 -116 -102 -38 -23 -87 -62 -109 -89 -28 -33 -66 -61 -130
-95 -49 -26 -98 -47 -109 -47 -31 0 -170 72 -274 142 -70 46 -120 72 -185 92
-172 54 -479 219 -543 291 -37 42 -39 70 -8 116 29 44 177 162 242 194 60 29
158 33 226 10z m6368 -33 c13 -25 -5 -52 -34 -52 -29 0 -39 14 -31 46 8 29 50
34 65 6z m-419 -47 c20 -17 88 -51 152 -75 29 -11 66 -31 83 -44 l30 -24 -20
-22 c-32 -35 -211 -117 -635 -291 -575 -235 -686 -279 -708 -279 -26 0 -66 62
-57 90 10 32 56 57 144 80 110 28 187 58 296 114 50 26 117 53 149 62 33 8
150 52 260 98 111 45 215 87 231 92 19 6 31 17 33 31 7 48 -78 55 -168 14 -57
-26 -75 -26 -100 -1 -60 60 35 142 198 170 53 9 90 4 112 -15z m-6480 -45 c0
-25 -46 -74 -60 -65 -15 10 -12 46 7 67 22 25 53 24 53 -2z m6090 -90 c59 -59
-5 -108 -280 -215 -268 -104 -390 -137 -390 -103 0 7 28 40 63 73 48 47 89 74
177 117 111 55 240 104 345 133 65 18 62 18 85 -5z m-915 -63 c22 -17 16 -47
-18 -98 -32 -47 -67 -63 -114 -50 -48 13 -136 68 -128 80 9 16 189 78 231 80
5 1 18 -5 29 -12z m-2874 -74 c27 -14 49 -30 49 -35 0 -14 -69 -9 -100 7 -17
9 -30 17 -30 19 0 3 -3 11 -6 20 -10 25 31 20 87 -11z m3044 -35 c-16 -53 -85
-150 -85 -120 0 29 65 142 82 142 5 0 6 -10 3 -22z m-866 -18 c35 -5 65 -11
67 -13 13 -12 -17 -44 -91 -97 -90 -66 -139 -119 -208 -225 -113 -176 -187
-373 -212 -562 -18 -139 -22 -153 -40 -153 -24 0 -192 91 -234 126 -51 45 -58
79 -37 193 38 210 149 412 325 594 90 93 140 126 206 138 59 10 152 10 224 -1z
m-2205 -95 c142 -30 391 -176 436 -255 24 -43 25 -53 24 -190 -2 -218 -54
-793 -90 -1002 -33 -195 -50 -164 -40 75 8 213 39 526 67 673 19 103 20 114 5
142 -9 17 -25 34 -36 37 -48 15 -61 -25 -90 -293 -32 -284 -59 -420 -87 -429
-23 -8 -25 85 -4 286 28 267 27 331 -5 331 -54 0 -116 -303 -144 -700 -19
-273 -12 -415 21 -425 29 -10 24 -48 -10 -68 -35 -21 -94 -22 -111 -3 -16 20
-40 113 -40 157 0 25 8 45 25 63 21 23 23 32 18 75 -5 43 -1 56 27 105 l32 57
-27 52 c-24 45 -27 62 -26 134 0 45 7 140 16 210 18 154 19 265 3 281 -18 18
-48 -4 -69 -53 -11 -24 -25 -96 -33 -165 -15 -131 -33 -173 -55 -131 -7 12
-16 101 -21 199 -5 97 -15 204 -21 237 -29 147 -99 227 -278 319 -164 84 -182
120 -83 170 56 28 244 89 322 105 30 6 64 13 75 15 45 9 134 5 199 -9z m2691
-40 c158 -44 282 -251 316 -528 21 -166 -13 -369 -91 -542 -89 -198 -299 -425
-445 -481 -56 -21 -157 -14 -240 17 -69 26 -166 113 -214 193 -147 244 -162
687 -31 945 58 116 211 294 298 349 106 67 267 85 407 47z m-1180 -94 c-26
-75 -117 -252 -155 -302 -82 -110 -273 -214 -521 -285 -109 -31 -122 -37 -167
-75 -38 -33 -45 -35 -66 -13 -21 21 -20 67 2 93 23 27 445 205 616 259 70 22
91 45 61 68 -37 28 -108 12 -325 -74 -327 -129 -370 -132 -370 -23 0 37 6 54
25 75 40 43 123 76 222 87 115 13 204 41 458 143 116 47 215 86 222 86 9 0 9
-10 -2 -39z m2255 -26 c0 -20 -44 -47 -70 -43 -31 5 -27 21 11 40 42 21 59 22
59 3z m-352 -147 c-57 -45 -270 -119 -283 -98 -11 18 42 45 157 80 144 44 163
47 126 18z m-4176 -47 c86 -22 164 -59 192 -90 19 -21 19 -22 -4 -46 -12 -13
-71 -49 -131 -80 -147 -77 -222 -143 -344 -304 -119 -157 -151 -181 -213 -163
-87 26 -135 99 -113 171 6 21 34 60 66 93 46 46 55 62 55 91 0 58 106 186 235
282 94 71 132 78 257 46z m369 -245 c16 -35 5 -68 -30 -89 -17 -10 -99 -33
-183 -52 -84 -20 -161 -38 -170 -41 -30 -9 -20 13 23 49 50 43 161 103 249
134 82 29 98 29 111 -1z m1703 -58 c16 -25 2 -44 -80 -106 -114 -87 -559 -297
-644 -304 l-35 -3 2 49 c2 60 31 96 79 96 23 0 36 7 48 24 27 43 269 144 456
191 72 18 87 26 98 49 11 21 20 26 39 24 14 -2 31 -11 37 -20z m-1696 -278
c-4 -185 -4 -186 -94 -200 -33 -5 -128 -32 -211 -60 -180 -60 -342 -91 -367
-71 -27 23 -20 75 14 108 50 49 157 85 484 161 49 12 99 28 112 37 28 18 32
55 7 55 -10 0 -117 -18 -238 -39 -298 -53 -315 -55 -315 -42 0 16 189 104 301
141 75 24 211 55 302 69 5 0 7 -71 5 -159z m1674 33 c36 -32 14 -118 -37 -141
-14 -7 -36 -12 -49 -12 -34 0 -93 -23 -156 -60 -58 -34 -212 -102 -372 -165
-111 -43 -128 -40 -128 25 0 52 29 85 98 110 31 12 151 67 266 122 293 141
340 156 378 121z m326 -89 c61 -27 110 -43 120 -39 16 5 22 -6 40 -67 31 -105
37 -138 23 -138 -52 0 -290 172 -322 232 -13 25 -2 58 20 58 10 0 63 -21 119
-46z m-2950 -110 c57 -48 131 -140 139 -172 14 -58 -58 -60 -140 -3 -82 56
-106 112 -78 184 14 36 29 34 79 -9z m2606 -43 c12 -18 -62 -65 -229 -146
-302 -147 -479 -207 -523 -177 -37 25 43 75 233 142 66 23 181 71 257 106 161
75 247 100 262 75z m-1442 -41 c4 -19 3 -122 -3 -229 -15 -250 -9 -365 20
-422 25 -48 22 -65 -15 -79 -94 -36 -116 69 -95 450 12 206 23 283 43 308 19
22 42 9 50 -28z m-254 -71 c3 -32 -2 -41 -39 -73 -23 -20 -67 -45 -98 -57 -82
-30 -261 -66 -396 -79 -66 -6 -130 -13 -142 -16 -35 -7 -27 7 33 56 78 64 134
89 227 104 77 13 169 41 282 86 28 11 68 19 90 17 38 -2 40 -4 43 -38z m609
-186 c13 -45 9 -244 -6 -285 -15 -45 -27 -54 -46 -38 -18 15 -19 45 -4 175 19
165 38 214 56 148z m-619 -15 c29 -29 -7 -123 -60 -156 -19 -12 -88 -40 -153
-62 -124 -43 -153 -57 -197 -91 -21 -17 -34 -20 -62 -15 -74 14 -139 102 -117
158 13 35 80 61 239 93 73 14 170 39 215 55 91 32 117 36 135 18z m2 -297 c18
-34 12 -125 -10 -153 -26 -34 -51 -39 -97 -18 -35 16 -141 125 -131 136 3 2
36 15 74 28 88 31 149 33 164 7z"/>
<path d="M7679 1487 c-71 -48 -97 -123 -64 -186 34 -67 176 -165 344 -237 75
-33 82 -34 113 -21 67 28 127 127 128 208 0 36 -7 55 -30 88 -93 128 -388 217
-491 148z m171 -102 c34 -18 70 -61 70 -86 0 -10 -10 -30 -23 -45 -30 -35 -66
-28 -101 19 -34 45 -43 89 -21 110 20 21 38 21 75 2z m230 -138 c0 -20 -30
-57 -46 -57 -14 0 -20 50 -7 63 11 12 53 7 53 -6z"/>
</g>
</svg>
