<?xml version="1.0" standalone="no"?>
<!DOCTYPE svg PUBLIC "-//W3C//DTD SVG 20010904//EN"
 "http://www.w3.org/TR/2001/REC-SVG-20010904/DTD/svg10.dtd">
<svg version="1.0" xmlns="http://www.w3.org/2000/svg"
 width="1280.000000pt" height="1153.000000pt" viewBox="0 0 1280.000000 1153.000000"
 preserveAspectRatio="xMidYMid meet">
<metadata>
Created by potrace 1.15, written by Peter Selinger 2001-2017
</metadata>
<g transform="translate(0.000000,1153.000000) scale(0.100000,-0.100000)"
fill="#000000" stroke="none">
<path d="M6300 11099 c-3519 -1343 -3519 -1343 -3543 -1330 -12 7 -186 127
-386 267 l-365 255 -140 -30 c-78 -17 -202 -38 -276 -47 -167 -19 -247 -37
-374 -81 -54 -20 -173 -52 -265 -72 l-166 -36 -11 -100 c-6 -55 -21 -138 -33
-185 -22 -81 -30 -207 -16 -230 6 -9 -41 -529 -50 -556 -2 -7 -56 -28 -119
-48 l-116 -37 62 -57 c35 -31 83 -75 107 -98 l44 -41 -12 -84 c-7 -46 -23
-142 -36 -214 -40 -219 -46 -276 -44 -436 1 -129 -12 -286 -81 -954 -59 -572
-85 -865 -91 -1030 -10 -255 -23 -437 -40 -535 -7 -42 -9 -169 -6 -355 2 -159
2 -370 -2 -469 l-6 -178 -163 -65 c-90 -36 -162 -69 -160 -73 2 -4 71 -61 153
-125 83 -64 152 -118 154 -120 2 -2 -5 -251 -14 -554 l-18 -550 31 -38 c44
-55 370 -376 487 -480 168 -148 428 -358 670 -538 322 -241 888 -636 895 -625
3 5 55 26 115 48 147 53 263 103 489 211 104 50 192 91 196 91 4 0 10 -62 13
-137 8 -183 43 -386 108 -636 l10 -37 37 19 c60 31 158 107 247 192 l84 81 5
-34 c34 -221 77 -404 124 -529 24 -61 238 -84 387 -41 39 12 73 18 76 14 4 -4
17 -38 29 -75 29 -90 158 -347 177 -354 23 -9 156 32 251 77 107 51 212 124
286 198 l58 60 252 -191 c138 -104 256 -194 262 -199 7 -5 45 3 96 22 l85 31
6 427 c4 235 12 929 18 1542 7 613 13 1117 15 1118 1 2 24 -13 51 -33 l48 -37
5 -556 5 -557 715 -547 c393 -301 732 -560 752 -574 l38 -27 56 29 55 29 -5
215 c-20 754 -20 686 1 670 10 -8 94 -77 186 -154 l168 -139 42 19 c23 10 328
152 677 315 l635 296 3 -51 3 -51 287 -107 287 -108 115 6 115 5 137 67 137
66 25 -23 25 -23 3 37 3 37 165 86 166 86 46 -32 47 -32 7 58 6 59 224 108
225 108 44 -43 44 -43 3 74 3 74 170 87 c94 48 176 88 183 88 7 0 30 -11 50
-25 l37 -25 8 48 8 49 154 79 c102 52 153 83 150 92 -3 7 -43 69 -90 136 l-85
124 -135 58 c-74 33 -135 62 -135 65 0 6 210 109 224 109 5 0 76 -41 158 -91
l148 -90 70 48 69 48 0 1380 -1 1380 236 120 236 120 -6 75 c-6 73 -8 76 -53
121 -25 26 -773 741 -1661 1590 -888 849 -2073 1981 -2632 2516 -560 535
-1019 973 -1020 972 -2 0 -509 -193 -1128 -430z m2312 -774 c656 -627 1845
-1763 2641 -2524 l1449 -1385 -109 -51 c-59 -29 -999 -482 -2088 -1007 -1089
-526 -2443 -1179 -3008 -1452 -616 -297 -1034 -493 -1041 -489 -7 5 -415 380
-907 834 -492 454 -1425 1315 -2074 1914 -649 599 -1181 1091 -1183 1095 -2 6
86 34 876 271 381 114 412 126 407 144 -5 19 -105 1503 -105 1570 0 28 -21 44
-305 242 -168 116 -302 214 -298 216 5 3 78 32 163 65 140 54 1456 566 3500
1362 421 164 788 307 815 319 28 11 55 19 62 18 7 -1 549 -515 1205 -1142z
m-6470 -239 l174 -119 45 -101 c24 -55 46 -104 48 -109 2 -5 -81 47 -183 116
l-186 124 -328 -92 c-180 -50 -333 -94 -340 -96 -13 -4 837 -802 860 -807 7
-1 206 62 441 141 l429 143 -204 138 c-226 154 -224 143 -26 112 l86 -13 201
-139 c110 -76 197 -142 193 -145 -8 -7 -651 -248 -795 -298 l-89 -31 -41 35
c-45 39 -88 45 -136 21 -37 -20 -99 -89 -107 -121 -3 -14 -10 -25 -15 -23 -4
2 -93 83 -197 181 l-189 179 5 48 c7 74 -42 171 -127 253 -90 86 -133 117
-163 117 -14 0 -49 8 -79 19 -117 40 -166 74 -315 216 l-147 140 89 21 89 21
31 -29 c47 -44 109 -58 254 -58 121 0 128 1 171 28 55 36 121 107 148 161 13
24 31 43 44 46 135 34 173 42 178 41 4 0 85 -54 181 -120z m-434 78 c22 -4 22
-5 6 -37 -40 -78 -98 -125 -184 -150 -127 -36 -204 -31 -309 20 l-54 26 24 20
c37 30 149 83 213 102 95 28 222 36 304 19z m-582 -601 c0 -185 31 -294 122
-435 29 -45 43 -57 69 -61 18 -3 70 -23 115 -43 111 -50 176 -56 250 -21 58
28 83 46 89 64 2 7 92 -72 199 -176 l195 -188 3 -928 3 -927 -42 35 c-78 67
-205 90 -285 51 -46 -22 -52 -48 -33 -136 9 -46 19 -65 47 -90 45 -39 114 -71
218 -100 l82 -23 6 -1115 c4 -613 10 -1193 14 -1288 4 -97 3 -172 -2 -172 -5
0 -43 15 -85 34 -143 65 -204 66 -268 4 -34 -33 -73 -120 -73 -164 0 -43 18
-62 98 -109 42 -25 102 -65 132 -90 66 -54 126 -85 180 -92 l40 -6 0 -111 0
-111 -19 40 c-49 109 -161 153 -477 186 -128 14 -172 8 -214 -28 -38 -32 -54
-62 -74 -141 -60 -231 -33 -389 94 -541 49 -59 55 -63 86 -58 45 8 115 57 153
109 18 24 53 85 79 135 26 51 52 93 57 93 26 1 180 72 243 113 l71 46 5 -42
c3 -23 8 -138 11 -255 5 -200 4 -213 -13 -208 -82 25 -290 37 -319 18 -19 -12
-43 -89 -43 -138 0 -51 20 -116 62 -199 68 -134 134 -185 253 -193 l73 -4 6
-92 c3 -50 8 -201 11 -336 3 -135 8 -283 11 -329 5 -67 3 -82 -8 -79 -9 3 -15
31 -19 90 -8 111 -37 165 -112 208 -76 44 -121 41 -186 -10 -28 -22 -53 -40
-57 -40 -11 0 -248 146 -374 230 -159 107 -336 240 -464 349 -83 72 -105 96
-96 106 6 7 17 61 25 119 22 170 -1 314 -70 431 -30 53 -77 93 -153 131 -50
26 -68 29 -147 29 -77 0 -98 -4 -147 -27 l-58 -27 0 102 c2 329 29 1639 34
1644 4 4 38 -3 76 -16 115 -37 161 -30 226 31 l32 30 -19 42 c-53 120 -61 226
-27 371 l21 94 -27 36 c-58 76 -115 114 -223 149 l-53 18 0 106 c2 292 23 582
99 1344 45 444 81 812 81 817 0 7 24 11 59 11 120 0 148 60 156 330 3 88 10
136 30 205 50 165 55 190 55 256 0 48 -4 70 -15 79 -9 7 -53 23 -98 34 -70 18
-82 24 -80 41 1 11 16 164 33 340 17 176 33 325 35 331 2 6 29 13 59 16 40 3
63 11 80 27 47 44 59 179 22 236 -10 14 -41 45 -71 67 -58 45 -55 37 -39 146
l5 33 143 -135 142 -135 0 -138z m1386 298 c79 -38 179 -95 223 -128 75 -56
165 -145 165 -164 0 -13 -66 -10 -143 6 -156 33 -306 149 -364 283 -18 39 -30
72 -28 72 3 0 69 -31 147 -69z m-532 -97 l0 -126 -41 36 c-66 56 -122 70 -260
63 -112 -5 -118 -4 -139 18 l-21 22 158 41 c87 23 183 48 213 56 96 25 90 33
90 -110z m165 59 l89 -58 -41 -8 c-101 -20 -152 -158 -108 -293 l16 -49 117
-37 c65 -21 135 -38 157 -38 59 0 134 40 203 108 l61 59 133 -84 c73 -47 144
-91 157 -100 23 -15 21 -16 -85 -50 -84 -28 -111 -33 -124 -24 -47 35 -83 43
-139 32 -64 -13 -85 -29 -116 -91 -22 -44 -26 -47 -113 -74 l-90 -29 -111 103
-111 103 0 293 c0 162 4 294 9 294 4 0 48 -26 96 -57z m-1243 -93 c48 -67 60
-138 33 -190 -16 -31 -24 -35 -97 -48 -46 -9 -46 -9 -53 22 -19 90 -17 121 10
208 l28 87 27 -22 c15 -12 38 -38 52 -57z m1524 -86 c82 -53 155 -102 163
-109 28 -27 -66 -116 -153 -145 -98 -32 -264 1 -309 61 -25 34 -33 105 -18
166 14 54 37 87 78 108 56 29 82 20 239 -81z m-626 55 c57 -12 143 -65 148
-91 5 -25 -29 -38 -117 -45 l-79 -6 -75 71 c-55 52 -71 72 -58 75 32 9 131 7
181 -4z m-570 -76 c59 -39 220 -197 393 -385 88 -96 107 -122 107 -148 0 -27
-6 -34 -42 -50 -55 -25 -125 -25 -217 0 -90 25 -166 63 -197 98 -34 39 -90
157 -108 228 -23 88 -21 294 3 294 3 0 31 -16 61 -37z m148 -12 c42 -21 94
-44 115 -50 57 -19 94 -56 168 -168 61 -93 89 -156 76 -170 -9 -9 -119 68
-180 126 -48 45 -151 160 -255 284 -22 25 -11 22 76 -22z m610 -141 c2 -66 0
-120 -5 -120 -4 0 -53 43 -108 95 l-100 94 68 1 c66 0 127 19 127 40 0 6 3 10
8 10 4 0 8 -54 10 -120z m654 -231 l53 -12 -90 -31 c-49 -18 -92 -30 -95 -29
-9 7 33 72 49 76 27 8 28 7 83 -4z m738 -71 c0 -13 11 -167 25 -343 34 -437
39 -389 -43 -414 -122 -37 -183 -102 -198 -213 -8 -58 13 -103 71 -157 41 -37
102 -63 207 -85 30 -7 34 -18 44 -148 l6 -86 -55 -18 -55 -17 -84 56 c-45 31
-104 62 -129 68 -43 12 -50 10 -112 -19 -85 -39 -150 -101 -227 -212 -46 -68
-68 -91 -93 -99 -17 -5 -126 -37 -242 -71 -115 -34 -223 -65 -238 -70 l-28 -9
1 590 c1 550 2 590 18 584 55 -24 100 -27 153 -11 80 23 118 50 140 100 34 78
35 125 4 195 -15 34 -26 63 -24 65 5 4 842 334 852 335 4 1 7 -9 7 -21z m-988
-247 l32 -28 -79 -47 c-78 -45 -118 -56 -130 -36 -14 22 91 140 124 140 11 0
35 -13 53 -29z m-1726 -92 c-3 -17 -6 -38 -6 -45 0 -24 -14 -15 -43 25 -29 43
-27 47 32 50 21 1 23 -2 17 -30z m1832 -44 c18 -61 4 -185 -24 -216 -27 -30
-83 -43 -130 -30 -48 13 -118 57 -140 89 -14 20 -13 25 11 59 14 21 25 43 25
50 0 28 170 105 220 100 20 -2 27 -11 38 -52z m-1663 -88 c48 -12 50 -13 53
-50 3 -39 -9 -104 -53 -287 -16 -66 -29 -158 -35 -248 -11 -177 -31 -229 -94
-250 -22 -7 -52 -10 -67 -7 -25 6 -27 10 -31 73 -8 120 9 293 51 502 22 113
43 222 46 243 6 35 8 37 43 36 20 0 60 -6 87 -12z m2619 -344 c33 -105 44
-227 28 -333 -9 -60 -27 -61 -127 -10 -133 67 -171 112 -160 187 8 54 34 110
63 136 25 23 129 66 159 67 17 0 25 -10 37 -47z m-194 -623 c38 -29 70 -55 70
-60 0 -7 -26 -19 -200 -92 -137 -57 -320 -97 -320 -70 0 19 111 151 162 192
133 107 178 111 288 30z m-45 -1425 c489 -451 1241 -1144 1670 -1540 429 -396
941 -867 1136 -1048 337 -310 356 -330 372 -379 9 -29 15 -53 14 -54 -1 -2
-290 261 -642 583 -582 533 -1706 1563 -3032 2778 l-503 460 0 54 0 54 48 -44
c26 -24 447 -413 937 -864z m-808 573 l23 -24 -33 4 c-18 2 -60 -3 -94 -12
-33 -9 -64 -16 -67 -16 -3 0 -6 48 -6 106 l0 106 78 -70 c42 -38 87 -81 99
-94z m-357 17 c100 -50 137 -82 150 -131 11 -38 10 -50 -4 -87 -32 -81 -30
-81 -137 -46 -106 35 -176 68 -201 96 -22 24 -41 108 -33 145 4 15 16 35 28
44 33 24 129 13 197 -21z m418 -95 c18 -11 32 -28 32 -39 0 -10 -18 -46 -40
-78 -37 -56 -43 -61 -86 -67 -26 -3 -68 -6 -94 -6 l-47 0 1 94 1 94 40 10 c72
17 157 14 193 -8z m209 -167 l125 -118 -33 -8 c-141 -34 -183 -62 -209 -143
-12 -36 -9 -162 5 -184 14 -23 109 -10 195 26 174 72 155 70 256 26 49 -22
105 -43 124 -47 22 -5 61 -32 112 -79 l78 -71 -6 -210 c-4 -115 -8 -211 -9
-213 -1 -1 -44 14 -94 35 l-92 37 -87 -17 c-98 -21 -302 -86 -302 -98 0 -5 19
-1 43 7 55 20 328 74 372 74 49 0 173 -67 192 -103 22 -43 7 -141 -22 -142 -5
-1 -36 -7 -68 -14 -51 -11 -64 -11 -106 4 -47 17 -48 17 -174 -15 -153 -39
-213 -38 -255 4 -23 22 -27 35 -27 81 0 47 -2 53 -12 38 -7 -9 -13 -33 -13
-54 0 -30 7 -43 35 -68 41 -36 96 -61 133 -61 15 0 73 16 130 36 111 38 123
39 231 9 35 -9 77 -15 92 -13 l29 5 0 -532 0 -532 -112 -6 c-162 -8 -227 -37
-268 -118 l-20 -39 24 -48 c47 -93 134 -142 288 -165 l78 -11 -2 -460 -3 -460
-70 -12 c-92 -16 -186 -48 -260 -89 -80 -44 -97 -65 -102 -122 -4 -42 -1 -54
26 -90 52 -71 73 -78 255 -78 l159 0 -7 -114 c-5 -75 -16 -144 -32 -200 -14
-47 -35 -137 -47 -199 -24 -126 -16 -120 -109 -78 l-58 26 -81 -43 c-109 -56
-142 -100 -147 -197 -5 -89 9 -129 65 -180 52 -49 56 -42 -65 -101 -118 -57
-452 -162 -468 -147 -4 4 -44 846 -44 931 l0 27 104 0 c56 0 131 3 165 6 l61
7 26 81 c31 94 44 252 25 309 -10 28 -21 39 -63 57 -62 26 -175 36 -268 22
-36 -5 -66 -8 -68 -7 -2 2 -11 180 -20 397 l-17 393 50 3 c28 2 122 -4 210
-13 l160 -17 75 27 c269 98 299 237 69 323 -61 22 -268 67 -365 77 -36 4 -91
2 -133 -5 -40 -7 -75 -10 -77 -7 -3 3 -14 193 -24 424 -15 355 -17 551 -12
1304 l5 886 91 6 c50 2 98 8 107 12 9 3 39 37 65 75 27 39 53 70 57 70 5 0 65
-53 134 -117z m298 -274 c85 -78 155 -143 155 -145 0 -6 -58 14 -127 45 -39
17 -80 31 -91 31 -11 0 -63 -21 -116 -46 -117 -57 -174 -66 -206 -34 -32 32
-25 121 13 179 34 51 124 99 210 110 4 1 77 -63 162 -140z m9751 -54 c3 -20 5
-38 2 -40 -2 -2 -73 -38 -158 -78 -85 -41 -1021 -492 -2080 -1002 -1059 -510
-2348 -1131 -2865 -1380 -517 -249 -986 -475 -1042 -503 l-103 -51 0 43 0 42
2363 1139 c1299 627 2700 1302 3112 1502 413 199 753 362 757 363 4 0 10 -16
14 -35z m-436 -1635 l0 -1339 -30 -16 -30 -16 0 1340 0 1340 28 15 c15 8 28
15 30 16 1 0 2 -603 2 -1340z m-8741 1163 l94 -88 -2 -100 c-1 -55 -10 -419
-21 -810 -11 -390 -26 -984 -35 -1320 -8 -335 -18 -656 -21 -713 l-6 -103 -25
33 c-13 18 -28 40 -33 48 -13 22 -25 6 -75 -106 l-45 -99 5 720 c6 855 6 708
0 1804 l-6 883 38 -31 c21 -17 80 -70 132 -118z m8611 -1055 c0 -640 3 -1248
7 -1352 6 -173 5 -189 -10 -183 -9 3 -59 38 -112 78 l-95 71 0 1224 0 1224 98
49 c53 28 100 50 105 50 4 1 7 -522 7 -1161z m-231 -380 c1 -874 -1 -987 -14
-982 -13 5 -15 38 -15 213 0 114 -3 356 -7 538 l-6 331 -143 87 -142 86 4 77
c2 42 7 270 10 505 l6 428 147 73 146 74 6 -222 c4 -121 7 -665 8 -1208z
m-7945 952 c-2 -41 -9 -275 -14 -520 -6 -245 -15 -596 -20 -780 -5 -184 -14
-557 -21 -829 l-12 -494 -47 -176 c-26 -97 -51 -174 -56 -171 -13 6 -110 123
-172 207 l-53 72 10 373 c6 205 15 567 21 803 6 237 15 597 20 800 5 204 12
489 15 635 3 146 8 306 11 357 l6 92 158 -147 159 -146 -5 -76z m7616 238 c-1
-208 -19 -890 -23 -894 -3 -3 -64 31 -136 76 l-131 81 0 122 c0 67 -3 219 -7
338 l-6 216 144 71 c79 39 147 71 152 71 4 1 7 -36 7 -81z m-11074 -107 c43
-21 101 -59 128 -84 42 -39 48 -50 43 -74 -33 -151 -31 -244 10 -409 16 -64
16 -67 -2 -80 -46 -34 -118 -41 -225 -21 l-65 12 -12 65 c-25 141 -35 312 -24
420 11 113 37 210 56 210 6 0 47 -17 91 -39z m10756 -288 c2 -175 2 -319 2
-321 -1 -2 -60 32 -130 76 l-129 79 -40 -18 c-22 -10 -43 -18 -47 -18 -5 -1
-8 79 -8 177 l0 178 167 82 c92 45 171 82 175 82 4 0 9 -143 10 -317z m-7113
72 l133 -120 -6 -320 c-3 -176 -10 -655 -16 -1065 -6 -410 -13 -773 -16 -808
l-6 -62 -26 19 c-15 11 -65 62 -112 115 -47 53 -87 96 -90 96 -3 0 -20 -56
-39 -125 -19 -69 -36 -125 -38 -125 -3 0 -2 82 1 183 6 175 15 542 36 1562 14
662 19 787 34 777 7 -4 72 -61 145 -127z m6739 -112 l-3 -177 -130 -57 c-71
-32 -131 -56 -133 -54 -2 1 0 80 4 175 l7 171 116 59 c64 32 122 59 129 59 10
1 12 -38 10 -176z m-288 -135 l-5 -171 -142 -63 -143 -63 0 87 c0 48 3 125 7
171 l6 84 131 63 c72 35 136 64 141 64 6 0 8 -60 5 -172z m-6110 -68 l171
-155 -6 -240 c-34 -1474 -45 -1889 -51 -1894 -8 -9 -208 99 -273 147 l-63 47
6 385 c17 967 26 1539 26 1698 0 107 4 172 10 170 5 -1 86 -73 180 -158z
m5785 -84 l-7 -165 -29 -12 c-28 -11 -34 -8 -120 57 l-90 69 6 50 c3 28 9 53
13 57 11 11 226 116 231 112 2 -1 0 -77 -4 -168z m1118 -134 c209 -130 379
-241 378 -246 0 -13 -434 -201 -438 -190 -13 36 -19 36 -140 0 -66 -20 -124
-36 -129 -36 -5 0 -21 31 -35 69 l-26 69 24 58 c29 73 29 77 -4 70 -16 -3 -71
-10 -124 -17 l-96 -11 -34 -69 c-33 -69 -43 -80 -52 -56 -2 7 -50 -31 -116
-92 -61 -57 -113 -102 -115 -100 -2 2 -17 51 -33 109 -26 92 -29 114 -22 175
4 39 6 71 4 73 -1 2 -31 -30 -65 -70 -35 -40 -70 -76 -79 -80 -9 -4 -39 -7
-68 -7 -28 -1 -64 -6 -80 -12 -34 -13 -26 -18 70 -45 64 -18 72 -24 143 -101
41 -45 74 -83 74 -86 0 -2 -74 -10 -165 -17 -91 -7 -165 -17 -165 -22 0 -5 14
-35 30 -68 34 -68 29 -66 155 -46 44 8 81 13 81 12 14 -14 53 -111 47 -117
-11 -10 -328 -149 -342 -149 -19 0 -61 76 -63 112 -1 19 9 64 22 99 13 36 21
73 17 82 -17 45 -122 45 -218 1 -106 -49 -149 -118 -118 -187 9 -20 23 -26 82
-37 56 -10 77 -19 98 -42 25 -26 47 -83 37 -93 -2 -3 -462 -207 -1021 -455
-653 -290 -1022 -448 -1031 -443 -26 15 -705 528 -705 533 -1 4 441 198 513
226 14 5 16 -10 16 -129 l0 -135 70 -17 c39 -9 70 -20 70 -23 0 -3 -14 -30
-31 -60 l-30 -54 23 -25 c47 -51 142 -67 245 -41 42 10 48 16 67 60 12 28 26
48 35 48 9 0 76 -16 150 -34 l133 -34 286 99 c209 73 297 108 332 134 l47 35
-26 97 -26 98 -275 61 c-151 34 -296 68 -321 75 l-47 14 53 94 53 94 1249 543
c686 298 1250 542 1253 543 3 0 175 -106 383 -237z m-1383 127 l0 -40 -36 27
-35 28 23 12 c39 22 48 17 48 -27z m127 -205 c2 -8 -1577 -688 -1582 -682 -1
2 36 73 84 158 l86 155 584 282 584 281 121 -92 c66 -51 121 -97 123 -102z
m-5277 -44 c69 -63 127 -116 129 -117 6 -4 3 -324 -9 -1013 -5 -294 -12 -720
-16 -947 -5 -297 -10 -410 -18 -407 -6 2 -24 -20 -39 -49 -15 -30 -46 -71 -68
-93 l-41 -39 7 208 c4 115 10 259 15 320 4 62 6 113 6 114 -1 2 -42 14 -91 28
-49 15 -92 28 -94 31 -5 5 27 1381 45 1917 l6 198 22 -18 c11 -11 77 -70 146
-133z m6117 -171 c-17 -70 -126 -121 -170 -79 -5 4 3 30 17 58 27 54 32 56
127 60 l37 2 -11 -41z m-582 -11 c-5 -27 -16 -40 -53 -62 -41 -25 -51 -27 -87
-19 l-40 10 53 8 c49 7 58 13 90 55 21 26 38 46 40 45 2 -2 0 -18 -3 -37z
m-5109 -768 c-3 -305 -9 -813 -13 -1129 l-6 -573 -33 5 c-61 10 -150 48 -200
86 l-49 37 3 189 c1 105 7 548 12 985 6 437 13 886 16 997 l6 202 135 -122
135 -122 -6 -555z m6524 234 l0 -505 -105 -50 c-58 -27 -107 -49 -109 -49 -2
0 -10 17 -19 38 -12 29 -17 91 -22 282 l-6 245 -51 130 c-28 72 -54 134 -58
138 -5 5 -54 -8 -110 -29 -99 -36 -103 -37 -116 -19 -8 10 -14 23 -14 27 0 5
41 27 90 50 50 22 90 46 90 52 0 10 397 193 423 195 4 1 7 -227 7 -505z
m-1381 367 c17 -46 30 -86 27 -88 -2 -2 -34 30 -71 72 -37 41 -66 77 -64 79
16 14 65 33 70 28 4 -4 21 -45 38 -91z m569 47 l22 -53 -22 -17 c-12 -9 -26
-14 -30 -12 -11 7 -71 95 -66 98 6 6 63 35 69 36 3 0 15 -24 27 -52z m-268
-10 c38 -61 51 -47 -134 -152 -120 -68 -143 -76 -269 -106 -76 -18 -139 -31
-141 -29 -1 2 -12 18 -24 35 l-21 31 132 17 c73 10 149 20 170 23 33 5 53 22
145 119 59 63 108 114 109 114 1 0 16 -23 33 -52z m93 16 c28 -5 47 -18 78
-56 23 -27 40 -50 38 -52 -2 -2 -59 -34 -126 -71 -108 -59 -121 -69 -113 -85
15 -27 12 -38 -10 -50 -17 -9 -22 -5 -45 39 -14 28 -25 55 -25 60 0 5 38 39
85 76 47 36 85 69 85 73 0 4 -9 21 -20 37 -25 37 -25 48 -2 41 9 -3 34 -8 55
-12z m-10513 -84 c0 -44 -4 -80 -8 -80 -4 0 -32 25 -61 54 l-54 55 54 25 c30
13 57 25 62 25 4 1 7 -35 7 -79z m10988 20 c12 -16 22 -33 22 -38 0 -5 -117
-62 -260 -127 -250 -114 -261 -117 -275 -99 -17 23 -39 73 -34 78 2 2 72 38
154 81 99 50 184 87 250 105 55 15 105 29 111 29 5 1 20 -12 32 -29z m-2610
-2 c-8 -13 -88 -139 -177 -280 -98 -155 -169 -258 -178 -258 -43 0 -143 25
-140 34 3 6 68 103 146 216 l142 205 102 52 c56 29 106 52 111 52 4 1 2 -9 -6
-21z m-5391 0 c36 -5 46 -155 17 -260 l-17 -60 -67 4 c-137 10 -290 120 -290
208 0 29 58 88 105 106 35 12 164 14 252 2z m2210 -235 l62 -58 -9 -450 c-11
-544 -26 -1360 -41 -2255 -6 -366 -14 -758 -17 -871 l-7 -207 -113 82 -113 81
5 245 c4 217 7 252 25 305 69 195 120 526 137 881 l6 151 -77 18 -78 17 7 996
c3 549 9 1052 12 1119 l6 123 67 -60 c36 -32 94 -85 128 -117z m2821 -29
c-111 -156 -114 -160 -182 -193 l-68 -33 -90 17 -90 18 -96 -96 -97 -96 -307
-132 c-285 -121 -308 -133 -308 -156 0 -45 -31 -848 -33 -849 -1 0 -289 235
-639 524 l-638 525 0 124 0 125 38 -34 c22 -18 163 -148 316 -288 152 -140
282 -256 289 -257 7 -2 462 215 1012 481 550 266 1001 482 1003 481 2 -2 -48
-74 -110 -161z m2346 -67 c50 -106 208 -443 353 -749 144 -306 265 -574 267
-595 3 -21 8 -81 11 -133 l6 -95 -92 90 -91 90 -369 744 c-203 409 -369 747
-369 751 0 7 82 32 87 26 1 -1 143 -299 316 -662 271 -571 451 -924 464 -910
2 2 -40 91 -93 197 -214 430 -674 1374 -674 1385 0 6 74 53 85 53 6 0 50 -86
99 -192z m795 84 l39 -102 -79 -39 c-43 -22 -82 -40 -87 -40 -12 0 -107 198
-98 207 9 9 180 81 184 78 1 -1 20 -48 41 -104z m5 -519 l296 -603 -7 -130
c-3 -71 -9 -129 -12 -128 -3 0 -51 35 -106 77 l-100 77 -98 215 c-337 735
-468 1023 -465 1025 10 8 70 36 73 33 2 -2 92 -199 200 -438 108 -239 216
-475 238 -525 38 -83 215 -370 223 -362 7 7 -149 334 -395 826 -139 277 -249
506 -246 510 13 13 90 39 96 33 4 -4 140 -278 303 -610z m-9469 575 c28 -14
127 -91 146 -113 13 -15 18 -50 21 -171 l5 -153 -36 0 c-44 0 -135 41 -176 79
-16 16 -48 40 -70 54 -56 38 -145 127 -145 146 0 24 45 114 66 133 51 45 130
56 189 25z m8005 -45 l23 -19 -35 -59 c-23 -40 -49 -68 -80 -87 -44 -27 -48
-28 -104 -18 -92 17 -104 53 -40 119 36 37 135 81 182 82 18 0 42 -8 54 -18z
m949 -38 c6 -15 10 -28 9 -29 -6 -6 -220 -95 -227 -95 -4 0 -15 16 -24 35 -16
33 -16 35 4 45 15 8 24 8 33 1 10 -8 35 -1 97 28 46 22 87 40 90 40 3 1 11
-11 18 -25z m-8314 -63 c88 -16 174 -34 190 -41 48 -18 75 -49 75 -87 0 -46
-68 -119 -151 -161 -72 -37 -109 -39 -294 -17 -66 8 -144 15 -172 15 l-53 0 0
78 c0 42 -3 107 -6 143 l-7 65 49 17 c75 24 188 21 369 -12z m3012 -33 c32
-31 33 -34 33 -113 0 -45 -3 -109 -6 -141 -6 -53 -10 -61 -40 -81 l-34 -22 0
194 c0 107 3 195 7 195 4 0 22 -14 40 -32z m5348 -5 c10 -21 33 -70 51 -110
l33 -72 -106 -56 c-59 -30 -110 -55 -115 -55 -8 0 -121 231 -115 236 6 6 212
92 223 93 6 1 18 -16 29 -36z m-1015 -99 c0 -6 16 -29 35 -52 l36 -41 -37 -16
c-48 -20 -54 -19 -54 5 0 30 -25 85 -50 110 -12 12 -20 23 -18 25 2 1 17 9 33
18 29 15 30 15 42 -11 7 -15 12 -32 13 -38z m1510 -116 l-1 -173 -19 35 c-16
29 -19 56 -20 167 0 128 2 139 33 142 4 1 7 -77 7 -171z m-1025 122 l16 -31
-53 -24 c-29 -14 -58 -25 -64 -25 -11 0 -41 58 -33 63 20 12 97 46 106 46 7 1
20 -13 28 -29z m958 -149 c-4 -6 -3 -7 -40 70 l-31 66 31 15 32 15 5 -81 c3
-44 4 -83 3 -85z m-3220 68 c144 -22 268 -42 275 -44 9 -3 -3 -35 -37 -104
l-50 -99 -133 29 c-73 15 -213 45 -311 65 -97 21 -176 42 -174 47 1 5 30 40
62 77 40 46 68 69 83 69 13 1 141 -17 285 -40z m2130 -13 l26 -33 -76 -13
c-163 -26 -308 -91 -424 -191 l-56 -47 -12 35 c-7 19 -9 38 -5 43 128 113 251
180 409 221 99 25 109 24 138 -15z m228 -97 c33 -67 59 -122 57 -124 -8 -7
-269 -135 -275 -135 -8 0 -46 62 -111 179 -33 59 -34 65 -18 76 9 7 53 18 97
25 70 11 79 15 77 32 -2 15 9 25 52 43 30 13 56 24 57 25 2 0 30 -54 64 -121z
m-1791 -5 c124 -25 227 -48 229 -50 3 -3 -4 -13 -15 -24 -17 -17 -43 -19 -283
-26 -155 -4 -262 -3 -259 2 3 5 18 36 33 69 35 73 43 85 58 80 7 -2 113 -25
237 -51z m2378 -46 l42 -93 0 -162 c0 -124 3 -163 13 -163 6 -1 -14 -15 -47
-31 -32 -17 -60 -28 -63 -25 -3 3 -54 108 -113 233 l-107 228 106 52 c58 29
111 53 117 53 6 0 29 -42 52 -92z m-9383 16 c55 -8 135 -20 178 -26 69 -10 83
-16 123 -51 44 -38 84 -101 84 -131 0 -24 -166 -114 -267 -146 l-56 -17 -21
-65 c-12 -36 -34 -84 -49 -107 -25 -38 -108 -110 -178 -154 l-28 -18 -46 42
c-58 53 -89 106 -109 185 -20 78 -20 163 -1 237 8 32 15 68 15 80 0 40 47 123
89 159 41 35 45 36 104 31 34 -3 107 -11 162 -19z m8440 -52 c21 -37 95 -159
165 -272 217 -348 282 -478 346 -689 40 -131 49 -213 37 -349 l-8 -94 -107 81
c-220 165 -338 372 -524 916 -48 138 -99 283 -116 324 -16 40 -27 74 -26 75 2
1 20 9 40 19 l38 17 14 -33 c7 -17 91 -203 186 -412 95 -209 196 -433 225
-497 45 -100 187 -338 202 -338 2 0 2 3 0 8 -2 4 -36 62 -76 129 -74 126 -546
1141 -535 1152 10 10 89 39 96 35 3 -2 23 -34 43 -72z m-2128 -14 l323 -63 0
-152 c0 -91 -4 -153 -10 -153 -9 0 -242 61 -247 65 -2 1 13 39 33 85 l37 84
-36 32 c-50 46 -119 63 -196 48 -26 -6 -37 -19 -76 -89 l-45 -83 -60 15 c-42
11 -60 20 -61 32 0 9 -4 67 -7 129 -6 96 -5 112 8 112 8 1 160 -28 337 -62z
m961 -55 l12 -76 -32 -28 c-33 -27 -33 -27 -40 -6 -3 12 -6 49 -7 81 -1 48 3
64 21 83 12 13 24 23 28 23 4 0 12 -34 18 -77z m713 63 c-7 -8 -11 -27 -9 -42
3 -26 -3 -29 -247 -135 -137 -60 -254 -110 -259 -112 -24 -8 -35 -203 -36
-613 l0 -421 -467 -218 c-258 -121 -557 -261 -667 -312 l-198 -93 7 573 c4
314 9 573 10 575 5 6 1860 811 1869 812 5 0 3 -6 -3 -14z m-3159 -732 c741
-597 917 -743 935 -777 26 -49 28 -76 9 -102 -12 -17 -81 35 -949 723 -973
772 -957 758 -957 830 0 25 25 62 41 62 5 0 420 -331 921 -736z m2353 649 c3
-32 8 -70 10 -85 5 -30 38 -16 -322 -138 -112 -38 -204 -68 -204 -67 -1 1 -14
300 -14 318 0 2 412 26 467 28 l57 1 6 -57z m1056 -87 l56 -143 -93 -46 c-114
-57 -128 -44 -32 31 38 30 68 55 66 57 -2 2 -54 -3 -116 -9 -62 -7 -114 -10
-116 -7 -2 3 -11 29 -20 57 -14 44 -22 54 -54 66 l-37 15 36 15 c72 31 78 31
91 4 l11 -26 68 65 c37 36 71 65 76 65 4 0 33 -65 64 -144z m-1906 70 c18 -8
41 -26 50 -40 16 -24 15 -28 -37 -141 l-53 -116 -49 -14 c-63 -19 -109 -19
-146 0 -48 25 -48 54 0 142 109 199 95 183 151 183 27 0 65 -6 84 -14z m2664
-212 c61 -125 111 -228 111 -229 0 -2 -6 -5 -12 -8 -7 -3 -63 -28 -125 -55
l-111 -50 -63 111 c-34 62 -91 159 -127 217 -35 57 -60 106 -56 107 5 2 68 32
139 67 72 36 131 65 132 65 1 1 52 -101 112 -225z m-1043 72 c25 -47 25 -50 8
-63 -25 -18 -25 -17 -56 28 -19 27 -28 52 -28 80 l0 40 25 -18 c14 -10 37 -40
51 -67z m-92 37 c-3 -21 -7 -40 -8 -43 0 -3 11 -21 27 -41 15 -20 26 -40 26
-45 -1 -5 -38 -43 -84 -84 -46 -41 -83 -78 -84 -81 0 -3 35 3 80 14 68 17 82
18 90 6 5 -8 9 -16 9 -19 0 -6 -186 -100 -199 -100 -9 0 -194 280 -189 285 5
5 323 144 331 144 4 1 5 -16 1 -36z m1686 -108 c0 -7 -59 -23 -64 -18 -3 4 -6
43 -6 87 l1 81 34 -74 c19 -40 35 -75 35 -76z m-5630 -367 c0 -223 -3 -919 -7
-1548 l-6 -1142 -31 -13 c-17 -7 -42 -16 -55 -20 l-24 -7 6 518 c4 286 12 888
17 1339 5 451 13 942 16 1091 l6 271 39 -42 39 -42 0 -405z m1813 144 l325
-243 -5 -402 c-3 -221 -8 -473 -12 -560 l-6 -157 -100 81 c-55 44 -103 84
-108 88 -4 4 0 36 9 71 18 69 14 144 -8 179 -7 12 -116 103 -242 204 l-229
182 7 235 c13 482 18 580 31 572 6 -4 158 -116 338 -250z m2462 239 c-13 -11
-156 -115 -174 -126 -15 -9 -213 -46 -218 -41 -2 2 37 34 86 70 88 66 92 68
193 86 128 22 124 22 113 11z m1811 -96 l59 -27 -35 -18 c-74 -38 -76 -37
-110 29 -16 33 -30 63 -30 66 0 3 13 -1 28 -9 16 -8 55 -27 88 -41z m-2430
-83 c45 -70 80 -128 79 -130 -6 -7 -190 64 -188 73 1 6 5 49 9 98 3 48 9 87
13 87 3 -1 43 -58 87 -128z m2002 104 l11 -24 -40 16 c-28 11 -36 18 -27 24
23 14 45 8 56 -16z m-1197 -167 c34 -90 74 -192 90 -227 l28 -64 -75 -35 c-42
-19 -80 -31 -84 -26 -12 12 -204 433 -199 436 19 11 175 84 176 83 2 -1 30
-76 64 -167z m-65 -374 c201 -445 226 -507 235 -577 6 -42 9 -82 7 -87 -1 -6
-34 17 -73 51 l-70 61 -237 494 c-131 271 -238 497 -238 502 0 5 22 11 49 15
29 4 55 14 66 26 10 11 22 19 27 18 5 -2 110 -228 234 -503z m1258 475 c32
-12 44 -26 72 -82 19 -37 34 -72 34 -78 0 -5 -50 -35 -110 -65 l-110 -55 -50
106 c-28 59 -50 109 -50 111 0 5 163 82 170 80 3 -1 22 -9 44 -17z m-10673 -6
c30 -9 75 -27 100 -41 42 -22 51 -34 87 -111 53 -112 74 -198 75 -297 1 -81
-23 -162 -53 -180 -14 -9 -86 60 -245 235 -156 172 -267 310 -263 328 2 8 15
23 29 34 64 48 172 61 270 32z m3543 -202 l78 -73 -17 -127 c-9 -70 -31 -203
-51 -297 -49 -241 -57 -275 -64 -275 -12 0 -125 71 -175 110 -27 21 -70 59
-94 84 l-45 46 23 92 c30 119 160 609 166 627 4 8 23 -10 54 -50 26 -35 83
-97 125 -137z m7761 102 c37 -52 65 -97 63 -98 -13 -11 -240 -126 -246 -126
-5 0 -7 33 -4 73 4 61 1 80 -17 115 -11 23 -21 46 -21 52 0 10 132 79 152 80
3 0 37 -43 73 -96z m-5280 -524 c314 -238 572 -435 574 -436 2 -2 9 -187 17
-411 7 -224 14 -445 16 -491 2 -45 0 -82 -3 -82 -3 0 -299 226 -658 502 l-652
503 0 345 c1 190 4 402 7 472 l7 127 61 -48 c34 -26 318 -243 631 -481z
m-3388 470 c15 -58 15 -164 -1 -215 l-12 -40 -64 -7 c-228 -26 -233 -26 -271
-6 -45 25 -69 65 -69 116 0 61 7 70 82 108 66 33 277 96 308 91 9 -1 20 -21
27 -47z m6517 -172 l103 -213 -134 -68 c-75 -38 -136 -67 -138 -65 -2 3 -25
448 -25 495 0 16 11 29 38 42 20 11 41 20 45 21 5 0 55 -96 111 -212z m-479
152 l107 -50 -6 -122 c-3 -68 -7 -224 -8 -348 l-3 -224 95 -22 c52 -12 130
-30 173 -39 l77 -17 0 -110 c0 -84 -3 -109 -12 -106 -7 3 -126 44 -265 93
l-251 87 -6 142 c-5 129 -13 766 -10 766 1 0 50 -22 109 -50z m1621 -91 c30
-61 54 -112 52 -113 -17 -13 -262 -125 -265 -122 -2 2 -17 37 -32 77 -16 41
-36 91 -45 112 l-17 38 123 59 c68 32 124 59 125 59 2 1 28 -49 59 -110z
m-1360 -214 c8 -164 13 -299 12 -300 -2 -1 -34 -19 -72 -40 l-69 -39 6 214 c4
117 7 260 7 316 l0 104 48 24 c26 13 48 23 50 21 2 -1 10 -137 18 -300z m1899
213 c19 -44 34 -60 85 -92 l62 -40 -163 -82 c-183 -91 -175 -91 -178 1 -1 22
-15 67 -30 100 l-28 60 106 52 c58 28 110 52 114 52 4 1 19 -23 32 -51z
m-9361 14 l51 -17 6 -110 c4 -60 7 -161 8 -224 l1 -114 -46 7 c-75 10 -116 24
-166 55 -37 24 -53 44 -84 106 -32 65 -38 88 -42 158 -5 110 5 150 44 159 44
10 170 -1 228 -20z m452 -46 c46 -14 52 -20 58 -49 10 -53 -8 -168 -50 -314
-6 -21 -12 -23 -88 -23 -44 0 -110 -5 -145 -10 -35 -6 -66 -9 -68 -6 -7 7 -25
397 -19 404 25 25 228 23 312 -2z m1769 -27 c79 -53 242 -123 352 -148 l51
-13 -4 -51 c-2 -29 -6 -173 -8 -321 -4 -204 -8 -271 -18 -278 -24 -14 -132 -8
-188 12 -30 11 -60 19 -67 20 -11 0 -90 -190 -133 -322 -12 -38 -24 -68 -27
-68 -3 0 -26 17 -52 39 -25 21 -71 53 -101 71 -30 19 -57 35 -58 36 -9 6 25
89 84 207 53 103 62 128 50 132 -9 3 -22 7 -30 9 -13 4 -12 13 0 68 50 210 89
424 100 551 4 42 10 77 13 77 3 0 20 -9 36 -21z m-861 -65 c47 -74 205 -283
271 -358 79 -89 200 -186 298 -237 59 -31 77 -45 73 -57 -3 -9 -14 -53 -25
-97 -44 -174 -273 -530 -515 -799 -100 -111 -299 -288 -307 -273 -11 19 -57
234 -74 342 -22 148 -30 398 -16 555 14 163 57 383 106 545 40 131 147 425
155 425 3 0 18 -21 34 -46z m7571 -95 c16 -33 49 -78 73 -101 24 -22 42 -41
40 -43 -8 -7 -389 -195 -396 -195 -4 0 -5 28 -2 63 4 38 1 87 -7 127 -7 36
-13 68 -13 72 0 9 248 137 266 137 6 1 23 -26 39 -60z m-672 -190 c-5 -5 -42
-23 -83 -42 l-76 -35 -52 116 c-29 63 -51 116 -49 118 1 1 36 18 77 36 l75 35
58 -111 c31 -60 54 -113 50 -117z m-388 -41 c30 -62 55 -116 55 -121 0 -4 -24
-18 -54 -31 l-54 -24 -149 47 c-138 45 -148 50 -151 74 -3 25 5 31 140 96 79
38 147 70 151 70 4 1 33 -50 62 -111z m470 -59 c29 -43 57 -70 98 -96 l59 -36
-149 -76 -148 -77 -6 61 c-3 38 -17 84 -37 125 -18 36 -32 70 -32 75 1 10 145
83 165 84 6 0 28 -27 50 -60z m-714 -86 c117 -51 128 -59 112 -71 -36 -26 -66
-24 -207 13 -77 21 -145 40 -149 43 -7 3 97 70 111 72 2 0 62 -26 133 -57z
m360 -94 c21 -45 50 -86 77 -110 l43 -37 -88 -48 c-48 -26 -95 -48 -104 -48
-9 -1 -54 45 -103 104 l-87 105 108 52 c59 29 111 53 114 53 3 0 21 -32 40
-71z m-5036 -135 c56 -32 144 -63 224 -78 l64 -12 -2 -109 c-2 -152 -18 -368
-37 -505 -42 -315 -122 -542 -246 -701 l-28 -37 -106 43 c-58 24 -114 51 -125
61 -28 25 -23 8 12 -47 29 -46 87 -105 125 -128 17 -10 13 -17 -50 -76 -37
-36 -75 -65 -83 -65 -34 0 -155 75 -204 127 -28 30 -53 52 -55 50 -7 -6 63
-118 94 -150 15 -16 45 -38 67 -49 l39 -21 -29 -23 c-28 -23 -260 -144 -275
-144 -12 0 -107 210 -139 307 -56 166 -74 271 -74 443 -1 178 20 318 83 565
46 178 135 454 154 472 1 2 26 -6 54 -17 62 -24 167 -26 216 -6 47 19 108 77
151 141 l36 54 45 -34 c25 -20 65 -47 89 -61z m4834 -56 l62 -78 -80 0 -81 0
0 44 c0 24 3 64 6 90 8 54 1 59 93 -56z m-6804 54 c41 -22 50 -32 48 -52 -1
-14 -5 -76 -9 -138 l-7 -113 -46 -24 c-26 -13 -74 -31 -106 -40 l-59 -18 -37
42 c-50 56 -69 100 -69 158 0 61 27 121 71 157 74 63 137 71 214 28z m4275
-78 c13 -14 32 -298 55 -804 l7 -156 -36 -11 -36 -11 -1 61 c-8 371 -13 937
-8 937 4 0 12 -7 19 -16z m-5326 -167 c22 -26 83 -146 102 -200 13 -37 13 -38
-9 -32 -60 18 -210 119 -265 178 l-23 25 33 20 c77 48 128 50 162 9z m2095
-101 c33 -19 80 -48 104 -65 l45 -30 -24 -83 c-46 -155 -95 -418 -100 -538 -5
-105 11 -279 31 -331 9 -25 -151 -60 -281 -62 -56 -1 -105 1 -108 4 -8 8 17
174 50 339 28 141 64 289 130 530 69 251 75 270 84 270 4 0 35 -15 69 -34z
m-145 -66 c-80 -273 -179 -713 -205 -912 -7 -54 -16 -94 -20 -90 -24 29 -84
311 -98 469 l-10 113 97 129 c53 71 133 186 176 255 44 69 81 124 82 123 2 -1
-8 -41 -22 -87z m1228 -1000 c-2 -104 -5 -190 -8 -190 -5 0 -112 79 -137 100
-5 4 16 49 46 98 30 50 63 112 73 137 11 24 21 45 24 45 3 0 4 -85 2 -190z"/>
<path d="M7208 11058 c-14 -11 43 -78 428 -497 244 -266 444 -486 444 -490 0
-6 -876 -393 -902 -399 -8 -1 -157 151 -332 338 -271 290 -322 340 -340 334
-30 -9 -30 -10 -5 -37 287 -301 615 -650 617 -656 3 -9 -1293 -584 -1319 -585
-8 -1 -129 129 -269 287 -221 251 -255 286 -268 273 -13 -12 18 -50 236 -298
138 -155 248 -286 244 -290 -12 -11 -1286 -571 -1303 -572 -9 -1 -150 151
-334 359 -407 461 -385 437 -394 433 -5 -2 148 -182 340 -401 192 -219 349
-401 349 -406 0 -5 -34 -23 -75 -41 -65 -28 -73 -35 -65 -51 9 -16 15 -15 90
19 l81 36 34 -35 c18 -19 398 -452 844 -963 l811 -929 -132 -69 c-73 -38 -197
-103 -275 -144 l-142 -74 -397 425 c-348 373 -425 449 -424 418 0 -5 178 -199
394 -433 l394 -425 -34 -18 c-19 -9 -34 -24 -34 -32 0 -12 9 -11 45 7 l45 22
76 -82 c68 -73 94 -90 94 -61 0 5 -32 43 -71 84 -40 42 -70 77 -68 79 10 8
539 278 545 279 13 0 893 -1018 886 -1025 -4 -4 -272 -163 -596 -353 l-589
-347 -73 73 c-40 41 -512 529 -1048 1084 -757 784 -973 1012 -962 1020 7 6
262 145 565 310 303 165 551 302 551 305 0 3 -8 10 -18 16 -15 10 -107 -38
-572 -297 -305 -170 -560 -309 -566 -309 -7 0 -60 50 -118 111 -95 99 -109
110 -129 102 -20 -9 -14 -18 91 -126 l114 -115 -49 -28 c-109 -62 -108 -61
-85 -68 14 -5 43 5 91 31 l70 38 65 -65 c272 -276 2036 -2093 2036 -2098 0 -4
-32 -25 -70 -47 -38 -22 -70 -43 -70 -46 0 -19 20 -13 88 28 l77 45 170 -176
c94 -97 173 -176 178 -176 28 0 -13 53 -154 198 -93 95 -157 168 -151 174 8 8
1181 688 1187 688 2 0 67 -73 146 -162 78 -90 148 -170 156 -178 11 -12 15
-12 30 3 16 16 15 19 -13 49 -141 152 -275 311 -268 317 5 5 119 72 253 149
l243 140 375 -416 c440 -489 438 -486 452 -478 8 6 -232 280 -780 891 -17 20
-15 22 157 120 95 55 174 102 174 105 0 3 -8 10 -18 16 -15 10 -45 -4 -185
-87 -92 -54 -171 -99 -175 -98 -4 0 -56 56 -117 125 -216 244 -210 238 -227
228 -13 -7 15 -43 148 -189 90 -99 164 -182 163 -185 0 -9 -489 -292 -497
-288 -10 3 -903 1011 -899 1013 1 1 427 223 947 494 520 270 952 495 960 501
10 6 11 12 5 19 -6 6 -355 -172 -970 -493 l-960 -503 -41 46 c-233 260 -1654
1875 -1651 1877 2 2 297 134 657 294 l654 291 27 -28 c21 -23 864 -977 876
-992 2 -3 10 2 19 10 13 14 -34 71 -430 520 -245 277 -445 506 -445 509 0 7
1306 585 1323 585 15 0 1051 -1090 1051 -1107 0 -5 -119 -72 -265 -149 -205
-107 -268 -136 -276 -126 -124 133 -379 403 -384 405 -3 1 -15 -4 -25 -12 -22
-17 -28 -9 253 -297 l124 -126 -34 -20 c-18 -11 -97 -53 -176 -94 -93 -48
-136 -75 -122 -77 11 -2 94 35 184 82 l164 86 186 -192 c149 -156 188 -190
196 -178 5 8 9 18 7 21 -1 4 -77 86 -169 184 -93 98 -168 182 -168 185 0 7
502 272 526 278 6 2 214 -211 460 -472 247 -261 453 -475 457 -475 5 -1 7 5 5
13 -2 7 -200 224 -440 482 -241 257 -438 471 -438 474 0 3 123 71 274 150 151
80 271 148 267 153 -4 4 -133 -58 -286 -138 -217 -112 -282 -142 -291 -132 -6
6 -242 259 -523 560 -282 302 -511 550 -509 552 1 1 208 93 458 204 l455 202
65 -71 c36 -38 68 -70 73 -70 21 0 1 42 -48 96 l-54 61 134 59 c75 33 135 65
135 72 0 8 -4 12 -9 10 -4 -1 -70 -30 -146 -63 l-137 -59 -16 21 c-38 48 -866
963 -872 963 -3 0 -13 -6 -22 -12z"/>
<path d="M5955 10479 c-1195 -502 -1699 -712 -1717 -716 -10 -3 -43 23 -93 76
-76 80 -95 90 -125 71 -12 -8 1 -26 69 -94 l84 -84 -39 -17 c-21 -9 -49 -21
-62 -26 -19 -7 -21 -12 -12 -28 17 -32 26 -33 95 -5 l67 27 224 -224 c199
-199 225 -222 239 -209 13 14 -9 40 -200 236 l-214 221 562 243 c309 133 865
373 1235 533 370 159 671 295 669 300 -2 6 -7 12 -13 13 -5 1 -351 -142 -769
-317z"/>
<path d="M10025 8354 l-160 -95 -88 91 c-70 73 -92 90 -108 85 -18 -6 -10 -18
66 -100 47 -51 85 -95 85 -98 0 -3 -105 -67 -234 -142 -170 -99 -233 -141
-229 -152 3 -8 11 -12 18 -9 6 2 117 66 245 141 l233 136 42 -43 c24 -24 304
-319 625 -657 l582 -614 -49 -27 c-62 -35 -1227 -638 -1240 -642 -5 -2 -81 77
-168 175 -101 113 -162 174 -168 168 -6 -6 45 -72 142 -182 83 -94 151 -174
151 -178 0 -7 -855 -453 -873 -455 -7 0 -284 283 -615 629 -475 498 -608 631
-629 633 -26 3 -25 0 28 -55 31 -32 308 -320 617 -640 309 -320 562 -584 562
-587 0 -3 -33 -22 -72 -42 -86 -43 -86 -43 -70 -53 8 -5 43 8 89 32 l75 39 73
-72 c46 -45 77 -70 85 -65 8 5 -10 30 -56 76 -42 42 -65 72 -59 78 13 11 863
451 873 451 4 0 67 -69 141 -154 84 -97 139 -152 147 -149 8 3 14 8 14 12 0 3
-61 74 -134 156 -74 83 -131 153 -128 157 4 4 295 156 647 339 l640 332 152
-159 c123 -129 154 -157 164 -146 11 10 -3 29 -71 100 -47 48 -114 117 -149
153 l-63 66 176 92 c130 68 174 95 170 106 -4 8 -7 15 -8 15 0 0 -80 -41 -176
-90 -96 -50 -180 -88 -186 -86 -9 3 -1122 1176 -1221 1287 l-22 25 162 94 c89
51 164 95 167 97 5 4 -21 23 -30 22 -3 0 -77 -43 -165 -95z"/>
<path d="M836 9188 c-8 -13 -27 -50 -41 -83 -23 -51 -26 -71 -23 -137 3 -82
17 -112 72 -152 25 -19 43 -21 189 -23 89 0 194 -4 233 -8 55 -6 77 -4 100 8
64 33 66 61 11 124 -22 25 -70 54 -157 95 -102 48 -136 70 -185 119 -81 80
-168 104 -199 57z m134 -29 c19 -12 58 -41 85 -64 28 -24 84 -60 125 -80 127
-64 230 -143 230 -176 0 -5 -13 -15 -30 -24 -37 -19 -126 -19 -209 0 -55 13
-79 14 -161 4 -91 -12 -99 -11 -135 7 -77 40 -100 101 -77 204 32 143 84 182
172 129z"/>
<path d="M1861 8784 c-63 -92 -75 -207 -45 -432 15 -108 15 -130 3 -180 -8
-31 -14 -87 -14 -124 0 -83 18 -111 99 -152 l56 -29 26 24 c46 43 57 77 71
234 9 106 23 184 45 265 50 176 42 236 -41 319 -35 35 -151 111 -169 111 -4 0
-18 -16 -31 -36z m92 -18 c42 -17 114 -96 139 -153 24 -55 21 -106 -17 -233
-15 -49 -31 -146 -40 -230 -21 -200 -37 -260 -71 -260 -34 0 -87 35 -112 73
-23 35 -27 51 -27 116 0 52 6 86 17 107 16 29 16 39 3 106 -41 217 -25 393 43
471 18 21 23 21 65 3z"/>
<path d="M1040 8561 c-35 -9 -80 -102 -87 -178 -11 -129 72 -212 274 -274 63
-20 77 -20 213 -10 80 5 165 16 190 23 40 12 46 18 58 58 7 25 12 70 10 100
-5 72 -69 172 -126 196 -66 27 -175 63 -242 78 -65 16 -242 20 -290 7z m305
-33 c140 -32 252 -75 274 -106 28 -40 41 -98 41 -189 l0 -82 -57 -13 c-37 -8
-121 -13 -228 -12 -164 0 -172 1 -230 28 -117 53 -160 118 -160 241 0 96 22
146 71 157 46 10 190 -1 289 -24z"/>
<path d="M1302 8015 c-70 -20 -106 -39 -131 -71 -35 -45 -27 -94 32 -193 35
-58 69 -79 257 -159 248 -105 382 -132 457 -93 62 31 113 88 113 125 0 74 -68
127 -212 164 -67 17 -83 27 -173 102 -149 125 -233 156 -343 125z m197 -54
c25 -13 85 -54 134 -92 72 -56 105 -74 171 -94 137 -43 199 -90 199 -151 0
-21 -12 -39 -43 -66 -58 -52 -104 -65 -178 -49 -81 18 -250 77 -367 128 -55
24 -116 51 -135 59 -40 16 -85 77 -100 135 -14 52 6 107 50 137 32 22 43 23
130 20 74 -3 105 -9 139 -27z"/>
<path d="M866 7699 c-76 -70 -138 -154 -193 -266 -43 -86 -47 -101 -48 -166 0
-61 4 -79 27 -119 65 -109 156 -155 291 -146 81 5 133 37 189 118 48 68 49
104 7 260 -16 63 -34 137 -39 164 -10 51 -81 162 -122 191 -35 24 -53 18 -112
-36z m127 -6 c27 -29 66 -107 67 -133 0 -9 18 -75 40 -147 50 -168 57 -220 36
-261 -37 -72 -144 -122 -262 -122 -71 0 -79 2 -123 34 -69 51 -102 117 -102
203 0 114 32 180 148 307 40 43 73 82 73 87 0 10 71 59 85 59 6 0 23 -12 38
-27z"/>
<path d="M1320 7358 c-51 -14 -100 -55 -100 -82 0 -42 31 -113 63 -146 69 -71
197 -100 443 -100 166 0 356 48 370 93 13 41 7 98 -13 125 -51 69 -162 95
-474 112 -228 12 -242 12 -289 -2z m570 -57 c123 -31 126 -33 145 -93 10 -29
20 -58 22 -64 5 -15 -75 -48 -168 -71 -55 -13 -111 -18 -219 -17 -272 1 -395
62 -423 211 -6 28 -3 33 30 48 31 15 56 17 147 13 61 -3 140 -3 176 1 84 8
184 -2 290 -28z"/>
<path d="M694 6867 c-125 -47 -173 -114 -160 -222 11 -93 31 -129 126 -218
142 -133 254 -186 372 -175 53 6 155 53 207 97 l35 29 -23 118 c-24 129 -49
182 -105 232 -56 49 -114 79 -226 116 -146 48 -156 49 -226 23z m188 -43 c234
-73 348 -193 348 -365 0 -57 -2 -61 -42 -102 -59 -59 -109 -81 -185 -81 -111
0 -255 90 -357 222 -110 144 -115 244 -16 307 79 50 139 54 252 19z"/>
<path d="M1528 6571 c-90 -18 -118 -65 -118 -201 0 -205 101 -324 297 -351
120 -17 222 8 286 69 30 28 89 137 101 185 17 73 -42 158 -157 227 -134 81
-131 80 -257 79 -63 -1 -131 -5 -152 -8z m212 -31 c105 -26 198 -77 271 -149
71 -72 78 -97 43 -168 -47 -96 -149 -151 -299 -160 -106 -7 -164 17 -235 94
-57 62 -90 150 -90 240 0 66 20 107 63 130 72 37 131 40 247 13z"/>
<path d="M528 6128 c-55 -21 -58 -23 -64 -65 -13 -88 11 -190 62 -265 44 -63
204 -145 297 -154 l52 -4 -59 15 c-65 17 -147 58 -218 110 -76 56 -135 205
-114 289 9 35 61 66 111 66 46 0 100 -29 110 -59 3 -12 23 -30 44 -40 105 -54
299 -245 286 -281 -5 -12 -4 -12 6 -3 27 27 -36 114 -149 205 -43 34 -106 90
-142 124 -94 90 -123 98 -222 62z"/>
<path d="M1634 5910 c-68 -10 -108 -23 -246 -83 l-117 -50 -10 -47 c-28 -129
63 -212 279 -257 52 -11 135 -16 275 -17 230 -1 231 -1 288 84 32 47 34 54 26
97 -26 138 -89 193 -289 252 -106 32 -121 34 -206 21z m144 -40 c84 -14 161
-44 226 -88 73 -49 98 -84 103 -141 4 -39 0 -52 -25 -87 -49 -67 -82 -77 -272
-82 -194 -5 -300 10 -397 58 -84 42 -118 86 -118 156 0 63 13 79 95 123 116
62 251 83 388 61z"/>
<path d="M1050 5346 c-40 -31 -70 -80 -70 -116 0 -32 30 -97 71 -156 55 -81
302 -230 498 -301 90 -32 94 -33 113 -16 44 40 47 60 39 236 -8 171 -16 203
-58 226 -10 5 -66 23 -126 40 -59 17 -149 47 -200 67 -64 26 -113 38 -162 41
-64 4 -73 2 -105 -21z m157 -12 c15 -3 70 -24 123 -46 52 -22 130 -47 172 -54
86 -15 123 -30 153 -64 18 -20 20 -34 17 -163 -2 -96 -8 -152 -19 -178 -8 -22
-17 -39 -18 -39 -2 0 -57 19 -122 41 -161 56 -276 115 -372 189 -99 78 -127
125 -117 203 7 62 31 98 77 114 32 11 43 11 106 -3z"/>
<path d="M1842 5256 c-31 -40 -37 -106 -21 -241 8 -66 14 -174 14 -240 0 -119
0 -120 -42 -216 -67 -150 -58 -222 38 -316 36 -36 49 -43 83 -43 100 0 162 41
214 139 36 66 40 113 21 247 -6 42 -12 151 -13 243 -3 152 -5 174 -33 263 -16
53 -37 108 -47 122 -23 35 -65 55 -134 62 -55 6 -60 5 -80 -20z m184 -49 c55
-59 73 -142 77 -342 3 -110 8 -181 17 -200 20 -47 17 -259 -5 -313 -22 -54
-92 -116 -150 -132 -40 -11 -50 -11 -86 5 -66 30 -119 107 -119 175 0 35 33
139 70 222 47 103 49 132 20 298 -22 128 -26 240 -9 273 27 51 41 59 98 55 47
-4 59 -10 87 -41z"/>
<path d="M894 4861 c-42 -25 -84 -82 -84 -112 0 -71 127 -208 266 -290 44 -25
113 -65 154 -90 41 -24 86 -47 100 -51 34 -10 95 8 161 48 l56 34 12 72 c11
72 8 125 -11 162 -16 30 -336 177 -493 227 -76 24 -122 24 -161 0z m190 -35
c39 -14 156 -66 259 -117 l187 -93 0 -97 0 -97 -42 -21 c-24 -11 -70 -27 -103
-36 l-61 -15 -114 64 c-210 116 -247 144 -299 221 -54 80 -76 129 -68 149 8
19 106 65 140 66 16 0 61 -11 101 -24z"/>
<path d="M472 4480 c-26 -28 -46 -114 -46 -200 0 -121 53 -189 186 -238 77
-29 346 -66 417 -57 98 11 157 32 186 67 26 31 27 37 22 103 -3 38 -13 91 -22
116 -14 41 -24 50 -89 88 -139 79 -310 124 -518 137 -111 7 -115 6 -136 -16z
m331 -34 c106 -20 243 -67 316 -108 59 -34 86 -79 97 -160 10 -82 -50 -150
-144 -164 -62 -9 -398 21 -459 42 -88 29 -111 50 -130 112 -10 34 -17 92 -17
143 0 77 3 91 26 126 l25 39 99 -7 c55 -4 138 -14 187 -23z"/>
<path d="M1470 4128 c-45 -12 -106 -72 -121 -116 -7 -22 -10 -69 -6 -121 5
-80 7 -87 36 -113 34 -30 78 -36 140 -18 50 14 77 45 107 121 l27 68 -33 88
c-18 48 -38 91 -44 95 -15 10 -63 8 -106 -4z m111 -30 c5 -7 19 -42 30 -78
l22 -66 -26 -51 c-34 -67 -76 -108 -132 -126 -40 -14 -47 -14 -60 -1 -40 40
-46 196 -10 268 26 51 76 79 129 72 21 -2 43 -10 47 -18z"/>
<path d="M559 3764 c-49 -56 -95 -212 -86 -290 7 -68 55 -152 127 -224 108
-108 241 -165 450 -195 l111 -15 51 26 c136 69 133 103 -43 471 l-44 92 -103
46 c-141 62 -260 96 -362 102 -74 5 -87 3 -101 -13z m241 -25 c41 -11 126 -45
188 -77 132 -65 129 -62 216 -268 68 -161 72 -199 24 -270 -31 -46 -36 -49
-81 -52 -63 -4 -190 20 -266 51 -93 38 -210 108 -255 153 -43 43 -114 175
-123 228 -5 35 30 137 74 214 l25 42 62 0 c34 0 95 -9 136 -21z"/>
<path d="M1205 2618 c-40 -14 -71 -44 -102 -96 -22 -38 -25 -50 -19 -100 9
-75 48 -157 94 -199 61 -54 165 -121 269 -172 150 -74 289 -131 320 -131 35 0
120 48 172 98 36 34 41 44 41 83 -1 91 -72 187 -218 292 -89 64 -457 238 -501
236 -14 0 -39 -5 -56 -11z m330 -144 c124 -54 231 -128 305 -212 56 -63 103
-151 98 -185 -3 -25 -75 -77 -142 -102 l-44 -17 -118 52 c-192 85 -345 166
-409 217 -55 45 -62 55 -87 128 -30 89 -34 132 -15 159 7 10 44 33 82 51 l70
33 75 -38 c41 -20 125 -59 185 -86z"/>
<path d="M3160 8999 c-99 -26 -214 -84 -330 -167 -93 -68 -94 -69 -121 -143
-36 -96 -36 -123 -1 -159 32 -31 109 -52 201 -53 172 -1 365 104 433 236 39
76 21 182 -48 272 -30 40 -33 41 -134 14z m128 -56 c45 -106 54 -190 26 -233
-86 -128 -230 -190 -444 -189 -115 0 -154 14 -158 56 -4 38 11 68 72 149 102
136 303 249 467 263 11 1 24 -16 37 -46z"/>
<path d="M2560 8285 c-36 -8 -94 -29 -130 -47 -51 -26 -71 -43 -95 -82 -28
-46 -30 -57 -30 -140 0 -78 4 -97 25 -135 41 -74 74 -86 215 -84 67 0 141 6
165 13 64 17 123 62 180 137 45 59 50 71 50 117 0 156 -70 225 -235 232 -47 2
-107 -2 -145 -11z m236 -26 c37 -11 89 -63 104 -104 8 -19 9 -56 5 -102 -11
-120 -52 -160 -215 -212 -93 -29 -148 -35 -211 -22 -103 22 -149 82 -149 195
0 156 95 241 285 256 93 7 128 5 181 -11z"/>
<path d="M2763 6114 c-17 -8 -72 -53 -122 -100 -50 -46 -99 -84 -109 -84 -9 0
-44 7 -77 15 -66 16 -124 19 -141 7 -14 -9 -44 -98 -44 -131 0 -35 29 -77 73
-107 l36 -24 148 31 c168 35 402 110 446 142 41 31 81 101 73 131 -9 35 -66
81 -133 106 -80 30 -113 33 -150 14z m156 -34 c51 -25 91 -74 91 -110 0 -41
-38 -80 -115 -119 -135 -67 -297 -111 -466 -126 -71 -7 -77 -5 -104 17 -56 49
-37 196 25 191 14 -2 66 -5 115 -9 l90 -6 95 71 c154 115 195 129 269 91z"/>
<path d="M2690 5224 c-198 -23 -399 -76 -426 -112 -31 -41 -10 -95 64 -164 91
-85 183 -95 283 -32 33 20 51 24 123 24 78 0 89 3 165 41 109 54 124 71 116
128 -9 62 -11 65 -58 92 -35 19 -58 24 -137 25 -52 1 -111 0 -130 -2z m251
-37 c45 -30 58 -67 36 -101 -24 -35 -125 -80 -242 -107 -64 -14 -110 -30 -128
-45 -37 -31 -90 -40 -156 -26 -81 17 -122 43 -148 92 -23 43 -31 104 -14 114
19 12 219 58 328 75 65 11 157 19 204 20 74 1 91 -2 120 -22z"/>
<path d="M2847 4786 c-63 -23 -104 -64 -146 -146 -38 -73 -44 -108 -31 -163
11 -41 16 -47 63 -68 83 -37 186 -37 330 0 122 31 141 41 197 105 32 36 34 43
35 111 0 79 -14 107 -65 127 -92 38 -320 58 -383 34z m224 -29 c41 -7 91 -22
109 -33 42 -24 77 -74 86 -121 6 -31 2 -39 -31 -73 -84 -86 -288 -130 -480
-103 l-47 6 4 74 c7 99 59 208 115 240 45 26 123 29 244 10z"/>
<path d="M2340 4451 c-40 -10 -79 -100 -79 -181 -1 -81 22 -135 73 -174 33
-25 43 -28 84 -22 109 15 200 89 236 192 13 38 12 45 -5 73 -10 16 -35 41 -56
55 -56 37 -204 70 -253 57z m195 -40 c56 -25 105 -83 105 -125 0 -69 -89 -151
-197 -182 -66 -19 -88 -12 -129 41 -52 69 -40 202 24 262 21 19 36 23 91 23
42 0 81 -7 106 -19z"/>
<path d="M2730 3413 c-92 -9 -233 -34 -276 -49 -28 -9 -69 -35 -96 -60 -26
-24 -52 -44 -57 -44 -12 0 -5 -58 14 -118 30 -93 122 -164 250 -193 79 -17
418 14 454 43 72 56 97 136 80 253 -11 70 -15 78 -51 109 -64 55 -168 74 -318
59z m170 -34 c87 -14 123 -33 148 -78 29 -51 29 -140 1 -215 -38 -103 -29 -99
-249 -107 -255 -9 -312 7 -408 116 -80 91 -67 177 33 228 48 24 152 48 245 57
126 11 159 11 230 -1z"/>
<path d="M2988 2445 c-54 -7 -113 -18 -130 -25 -52 -21 -93 -66 -127 -140 -30
-64 -31 -71 -18 -102 8 -18 21 -39 30 -47 30 -24 116 -28 232 -8 61 10 124 20
142 23 37 6 88 45 107 83 7 14 18 48 25 75 11 45 10 50 -14 82 -53 69 -95 79
-247 59z m210 -57 c37 -72 33 -107 -17 -157 -31 -31 -48 -39 -92 -45 -30 -4
-105 -19 -168 -33 -124 -27 -146 -25 -176 21 -22 33 -7 87 43 154 34 47 42 52
102 66 104 25 161 34 225 35 l60 1 23 -42z"/>
<path d="M2426 2168 c-13 -13 -36 -45 -50 -73 -32 -62 -33 -112 -6 -255 11
-59 20 -147 20 -201 0 -180 39 -231 157 -209 69 12 95 29 130 82 27 40 28 46
31 209 4 152 2 174 -18 236 -24 75 -88 196 -99 189 -4 -3 -31 6 -60 20 -65 30
-74 30 -105 2z m149 -48 c12 -12 35 -47 49 -79 43 -97 58 -176 60 -311 1 -120
0 -127 -29 -185 -52 -103 -129 -122 -211 -51 l-38 33 12 97 c11 85 10 115 -9
258 -25 202 -24 216 21 246 43 29 109 26 145 -8z"/>
<path d="M7900 3170 l-25 -21 30 7 c17 4 31 8 33 9 8 7 79 -19 105 -37 l27
-19 0 23 c0 53 -119 79 -170 38z"/>
<path d="M6148 2446 l-3 -127 68 -67 67 -66 0 171 0 171 -52 18 c-29 9 -58 19
-65 21 -9 4 -13 -29 -15 -121z"/>
<path d="M6315 2417 c-3 -61 -5 -150 -3 -196 l3 -85 260 -182 260 -182 6 87
c4 47 7 140 8 206 l1 120 -251 165 c-139 91 -257 168 -264 172 -10 6 -15 -18
-20 -105z"/>
<path d="M6885 1974 c-6 -135 -4 -178 5 -184 7 -4 44 -11 82 -15 39 -3 76 -9
83 -11 9 -4 16 17 24 71 19 128 18 130 -46 188 -32 29 -76 69 -99 90 l-42 37
-7 -176z"/>
<path d="M6310 2065 c0 -8 -23 -26 -51 -41 -28 -14 -49 -27 -47 -28 131 -106
681 -536 684 -536 3 0 -15 37 -40 83 -30 55 -47 100 -51 137 l-7 55 -238 173
c-131 94 -241 172 -244 172 -3 0 -6 -7 -6 -15z"/>
<path d="M3440 2423 c-96 -216 -146 -393 -171 -608 -14 -122 -6 -381 16 -515
19 -119 66 -310 75 -310 4 0 36 19 71 41 134 86 309 290 470 544 97 152 211
364 206 380 -3 6 -23 17 -46 23 -117 36 -294 200 -461 430 -52 72 -98 131
-101 131 -4 1 -30 -52 -59 -116z m286 -244 c85 -95 157 -154 250 -201 l81 -42
-33 -70 c-132 -287 -329 -557 -552 -758 -69 -63 -99 -84 -104 -74 -17 30 -58
272 -69 404 -9 109 -9 172 0 270 24 252 65 412 192 751 9 21 16 14 93 -95 46
-66 110 -149 142 -185z"/>
</g>
</svg>
