<?xml version="1.0" standalone="no"?>
<!DOCTYPE svg PUBLIC "-//W3C//DTD SVG 20010904//EN"
 "http://www.w3.org/TR/2001/REC-SVG-20010904/DTD/svg10.dtd">
<svg version="1.0" xmlns="http://www.w3.org/2000/svg"
 width="1280.000000pt" height="840.000000pt" viewBox="0 0 1280.000000 840.000000"
 preserveAspectRatio="xMidYMid meet">
<metadata>
Created by potrace 1.15, written by Peter Selinger 2001-2017
</metadata>
<g transform="translate(0.000000,840.000000) scale(0.100000,-0.100000)"
fill="#000000" stroke="none">
<path d="M5089 8374 c-43 -30 -122 -44 -256 -44 l-92 0 -61 -90 c-109 -162
-198 -248 -311 -301 l-67 -32 -5 -201 c-4 -192 -5 -204 -31 -265 -37 -86 -30
-100 76 -150 99 -47 117 -65 166 -162 41 -83 61 -93 135 -68 56 19 77 50 77
118 0 79 15 122 60 180 50 64 84 81 156 81 106 0 197 -69 255 -193 45 -96 46
-135 11 -273 -17 -66 -40 -173 -52 -239 -30 -161 -25 -233 29 -398 22 -70 41
-144 41 -163 0 -43 -23 -54 -120 -54 -60 0 -78 -5 -148 -41 -165 -84 -343
-255 -553 -530 l-126 -165 -174 -28 c-243 -39 -593 -92 -663 -101 -49 -6 -66
-13 -93 -40 -43 -43 -46 -102 -7 -142 25 -25 29 -26 117 -20 51 3 191 23 312
46 274 50 373 64 390 57 17 -6 8 -40 -52 -191 -22 -55 -46 -118 -53 -140 -17
-55 -34 -72 -110 -110 -85 -43 -319 -135 -445 -175 -127 -40 -451 -120 -490
-120 -75 -1 -168 -76 -181 -147 -13 -78 -79 -165 -285 -380 -121 -126 -156
-176 -139 -202 4 -7 85 -28 180 -47 158 -32 210 -47 210 -59 0 -3 -34 -21 -75
-40 -91 -44 -187 -119 -350 -275 -93 -88 -141 -127 -192 -152 l-68 -33 -180 0
c-163 0 -184 2 -227 22 -50 23 -46 16 -79 146 -15 60 -55 116 -94 133 -51 21
-428 39 -530 24 -93 -13 -240 -79 -302 -136 -47 -44 -51 -43 -183 27 -64 33
-155 38 -212 10 -44 -21 -116 -86 -107 -96 3 -3 40 13 83 35 108 56 164 56
251 1 75 -48 114 -65 197 -86 84 -21 145 -65 267 -190 94 -96 128 -149 83
-130 -103 45 -189 57 -212 30 -19 -22 -92 -19 -123 5 -31 24 -55 25 -102 3
-43 -20 -59 -9 -25 19 21 17 33 19 90 13 116 -12 292 -6 287 10 -2 6 -50 13
-108 16 -57 4 -122 14 -144 22 -22 9 -64 16 -94 17 -46 0 -52 2 -41 15 7 8 25
15 41 15 35 0 46 17 26 38 -14 14 -21 13 -74 -7 -32 -13 -84 -33 -116 -45 -66
-24 -85 -52 -112 -170 -8 -38 -20 -75 -26 -82 -5 -6 -33 -15 -62 -18 -69 -9
-109 -34 -140 -88 -33 -57 -59 -148 -55 -195 3 -43 -5 -47 70 40 18 21 62 52
97 70 72 35 83 50 51 67 -30 16 -74 4 -125 -36 -56 -42 -61 -22 -10 35 43 47
90 71 142 71 31 0 43 6 65 32 37 45 46 28 14 -26 -30 -52 -31 -57 -11 -49 32
12 55 78 55 157 0 41 5 78 10 81 13 8 13 -149 0 -230 -8 -50 -15 -65 -45 -90
-19 -16 -35 -32 -35 -35 0 -3 18 -4 40 -2 55 6 51 -15 -4 -23 -59 -9 -78 -32
-84 -101 -3 -41 -8 -54 -18 -50 -28 11 -13 -12 15 -24 42 -17 51 -7 44 50 -4
34 -2 55 7 65 18 21 70 48 78 40 3 -3 -2 -26 -11 -51 -25 -69 -1 -86 54 -39
16 13 46 27 67 31 20 4 44 13 53 20 14 13 18 10 32 -26 13 -34 20 -40 45 -40
34 0 32 4 77 -162 38 -144 91 -292 139 -388 24 -47 46 -96 49 -110 4 -14 54
-85 112 -159 59 -74 113 -148 121 -164 15 -27 14 -31 -11 -70 -42 -64 -223
-236 -355 -336 -65 -50 -127 -106 -139 -124 -51 -83 -67 -263 -26 -293 28 -21
48 -17 90 16 64 51 88 33 66 -49 -15 -59 -57 -151 -68 -151 -5 0 -13 14 -18
32 -7 22 -18 34 -35 38 -14 3 -34 20 -45 38 -31 49 -48 42 -43 -19 7 -69 34
-103 83 -105 40 -1 59 -17 128 -108 34 -44 240 -149 330 -168 56 -12 60 -11
112 16 49 27 56 28 98 17 65 -16 152 -14 170 3 12 13 13 27 1 103 -20 130 -33
169 -76 231 -42 63 -46 87 -22 137 21 46 165 187 238 236 80 52 128 66 168 51
41 -15 178 -105 178 -116 0 -5 -25 -35 -55 -67 -85 -89 -71 -119 52 -118 37 0
122 8 188 18 66 10 122 17 124 15 2 -1 -14 -18 -35 -36 -51 -44 -73 -65 -113
-113 -18 -22 -30 -31 -27 -20 4 11 10 32 13 48 9 44 -23 34 -48 -16 -12 -23
-32 -56 -45 -74 -38 -50 -26 -113 21 -113 26 0 52 33 113 141 33 58 95 129
114 129 6 0 8 -14 4 -37 -4 -21 -9 -66 -12 -100 -5 -54 -4 -63 10 -63 9 0 16
8 16 17 0 13 3 14 12 5 20 -20 25 -15 59 48 18 33 49 76 71 95 42 38 65 46 53
18 -21 -50 -32 -164 -19 -197 3 -9 16 -16 28 -16 34 0 65 28 76 69 6 22 19 50
30 63 l19 23 1 -40 c0 -57 10 -85 28 -85 24 0 97 82 122 139 13 28 27 51 31
51 5 0 11 -17 14 -37 19 -118 45 -99 45 33 0 97 -7 154 -20 154 -5 0 -31 -30
-58 -67 -47 -63 -110 -131 -101 -108 3 6 15 31 29 57 13 26 21 51 17 54 -10
10 -94 -24 -126 -52 -36 -30 -39 -30 -51 1 -11 29 -27 31 -77 10 -47 -20 -56
-19 -48 5 4 14 2 20 -8 20 -18 0 -43 -28 -56 -63 -6 -15 -16 -27 -22 -27 -6 0
-9 6 -6 14 3 8 11 34 17 58 14 51 70 107 108 109 15 1 97 2 182 3 l155 1 70
42 c156 92 424 304 716 564 216 194 358 309 378 309 23 -1 372 -28 459 -36 40
-4 74 -10 77 -13 2 -4 -63 -53 -143 -111 -176 -125 -304 -249 -346 -334 -33
-70 -88 -278 -111 -427 -9 -57 -19 -184 -22 -281 l-6 -178 49 0 c36 0 70 10
123 35 l74 35 -7 -39 c-4 -25 -2 -42 5 -47 15 -9 29 15 29 52 0 18 9 42 19 55
l20 24 9 -25 c9 -24 10 -24 32 20 13 25 40 70 60 100 20 30 48 71 61 92 71
108 227 281 348 387 188 164 364 302 372 294 14 -15 31 -188 26 -263 -8 -112
-158 -578 -195 -608 -20 -15 -93 -16 -127 0 -22 10 -29 8 -55 -17 -36 -34 -62
-88 -54 -109 9 -24 34 -19 34 7 0 26 49 107 65 107 6 0 19 -25 30 -55 28 -85
77 -113 60 -35 -4 17 -2 30 3 30 9 0 35 -48 46 -82 3 -10 11 -18 17 -18 8 0
10 18 7 56 -6 69 -5 68 109 -101 51 -76 100 -136 116 -145 27 -14 29 -14 53
13 13 15 24 35 24 44 0 14 -4 13 -23 -5 -32 -30 -50 -28 -84 12 -43 48 -130
204 -144 257 -10 38 -10 57 5 115 21 87 113 374 126 394 15 23 26 -1 42 -85
13 -69 13 -69 16 -25 1 25 -9 162 -23 305 l-25 260 93 88 c116 111 237 217
249 217 20 0 3 -57 -68 -230 -103 -251 -134 -336 -134 -365 0 -13 14 -40 30
-58 23 -26 30 -44 30 -75 0 -53 -72 -340 -101 -398 -22 -47 -63 -74 -111 -74
-25 0 -94 -38 -85 -46 7 -7 80 12 145 38 68 26 87 52 118 157 33 114 44 141
56 141 6 0 26 -14 45 -30 19 -17 45 -30 60 -30 25 0 25 2 21 53 -6 75 -68 199
-130 259 l-49 47 66 181 c99 273 178 450 202 450 3 0 32 -25 64 -55 40 -38 66
-55 84 -55 64 0 40 -58 -77 -190 -119 -135 -175 -205 -198 -250 -24 -47 -25
-64 -5 -84 23 -23 45 -9 45 29 0 39 31 83 128 183 64 65 92 85 92 65 0 -15
-54 -74 -81 -88 -31 -16 -40 -45 -14 -45 9 0 38 11 65 25 69 35 84 33 77 -8
-3 -18 -44 -152 -91 -298 -47 -145 -90 -285 -94 -311 -11 -58 -42 -110 -131
-221 -39 -48 -67 -87 -62 -87 16 0 187 187 205 224 10 21 29 76 42 124 23 80
247 784 280 877 8 22 42 81 77 130 70 101 85 111 223 151 49 14 150 43 224 64
74 22 167 44 205 50 39 6 115 22 170 36 174 45 390 42 566 -7 136 -38 179 -76
179 -158 0 -69 59 -78 169 -26 40 19 80 35 89 35 10 0 33 -11 52 -24 19 -13
45 -26 58 -30 21 -7 22 -11 16 -71 -7 -64 -7 -64 30 -101 l37 -37 72 9 c40 5
147 9 239 9 114 0 171 4 179 12 22 22 -1 60 -97 167 -90 100 -104 110 -190
151 -57 27 -116 65 -150 96 -99 89 -171 129 -319 176 -44 14 -127 43 -184 65
-91 36 -102 42 -87 54 21 15 126 34 189 34 33 0 53 -6 74 -23 15 -13 57 -42
91 -65 102 -67 323 -128 437 -120 44 3 51 6 59 30 8 23 3 42 -36 120 -26 51
-54 114 -63 141 -21 58 -37 67 -197 113 -139 39 -137 39 -223 105 -89 68 -150
94 -275 120 -128 25 -339 93 -520 167 -118 48 -144 55 -205 56 -81 1 -124 -18
-240 -104 -78 -58 -124 -84 -132 -76 -3 3 0 19 7 36 15 35 8 49 -15 30 -29
-24 -44 -67 -54 -152 -5 -45 -17 -100 -25 -120 -9 -21 -16 -65 -16 -98 0 -88
-26 -130 -80 -130 -17 0 -17 2 1 37 19 38 24 69 13 97 -10 25 -27 19 -69 -25
-43 -45 -152 -129 -166 -129 -18 0 -6 21 105 186 62 93 138 212 168 263 35 61
64 101 83 111 20 11 35 32 47 64 45 128 241 427 353 541 91 94 197 175 228
175 11 0 65 -21 121 -46 56 -26 163 -71 239 -101 76 -29 149 -60 162 -69 30
-19 65 -75 94 -145 25 -64 50 -91 101 -112 40 -17 208 -32 239 -22 41 13 21
59 -73 169 -65 76 -73 98 -52 131 9 14 20 25 24 25 4 0 36 -17 72 -36 172 -96
192 -104 257 -104 75 0 162 17 184 37 11 9 18 37 21 88 3 50 10 81 22 93 34
39 17 89 -58 170 -65 71 -72 90 -55 150 12 42 11 46 -10 63 -13 10 -42 23 -64
29 -55 14 -114 40 -127 55 -6 7 -17 39 -26 71 -32 124 -161 275 -334 390 -130
86 -164 129 -173 214 -11 99 -91 220 -146 220 -28 0 -99 -86 -112 -134 -22
-81 -22 -81 -129 -39 -45 18 -85 26 -130 27 l-65 1 -5 -47 c-3 -26 -8 -50 -12
-53 -3 -3 -54 -14 -114 -24 -60 -11 -159 -31 -221 -45 -61 -14 -121 -26 -132
-26 -13 0 -42 30 -91 95 -39 52 -93 119 -121 149 -27 29 -49 56 -49 60 0 11
98 56 146 66 48 11 262 -1 364 -20 25 -5 48 -6 52 -2 8 8 40 274 65 529 16
167 19 182 38 187 11 3 99 17 195 31 96 15 272 42 390 61 118 18 355 54 525
79 171 25 380 57 465 71 85 14 288 45 450 70 162 25 520 80 795 124 275 43
610 95 745 115 417 61 1148 174 1295 200 94 16 215 28 370 35 235 11 393 25
404 36 3 3 -2 12 -13 19 -24 18 -14 45 17 45 27 0 77 41 77 63 0 18 -21 27
-63 27 -18 0 -39 5 -47 10 -12 9 -7 17 30 49 38 33 42 41 28 46 -10 4 -136
-22 -285 -59 -148 -36 -306 -72 -353 -81 -407 -72 -1639 -262 -2050 -315 -135
-17 -272 -38 -305 -46 -108 -26 -139 -32 -240 -44 -55 -6 -291 -41 -525 -76
-234 -36 -612 -91 -840 -124 -228 -32 -544 -80 -702 -105 -293 -46 -412 -55
-440 -32 -26 21 -205 357 -248 467 -23 58 -46 109 -51 114 -12 13 -62 -11
-174 -84 -103 -66 -162 -96 -171 -88 -3 4 4 79 15 168 30 229 26 310 -14 310
-8 0 -59 60 -114 133 -107 142 -199 238 -271 280 -25 14 -92 44 -149 67 -139
55 -174 74 -204 109 -28 34 -57 143 -57 216 0 40 5 52 34 81 51 51 89 46 261
-36 102 -48 165 -64 223 -55 52 8 54 22 7 85 -55 74 -60 100 -36 155 11 26 41
67 66 92 26 25 45 52 43 61 -2 10 -39 35 -86 58 -46 23 -103 61 -128 85 -52
51 -69 98 -80 218 l-7 81 -66 0 c-173 2 -262 16 -363 59 -53 22 -105 41 -115
41 -10 0 -34 -11 -54 -26z m142 -44 c94 -44 209 -70 305 -70 132 0 145 -14 57
-59 -96 -48 -417 -161 -458 -161 -14 0 -25 72 -25 175 0 91 -6 100 -53 80 -20
-8 -37 -11 -37 -7 0 23 84 71 126 72 12 0 50 -13 85 -30z m-285 -65 c-11 -8
-24 -15 -30 -15 -22 0 -46 -35 -46 -66 0 -27 5 -35 23 -39 18 -5 24 -14 25
-38 0 -18 3 -48 7 -67 4 -24 2 -41 -9 -55 -14 -19 -16 -19 -68 31 -64 63 -85
74 -135 74 -54 0 -67 -11 -59 -49 3 -17 9 -44 12 -61 9 -44 -3 -78 -34 -94
-15 -7 -76 -28 -136 -46 -87 -26 -113 -30 -132 -21 -27 12 -32 42 -10 60 8 7
58 35 111 62 73 38 102 48 123 43 22 -5 25 -4 15 7 -22 22 -15 48 25 92 57 62
92 112 92 129 0 40 70 66 180 67 59 0 63 -1 46 -14z m570 -186 c35 -70 195
-491 189 -498 -3 -2 -31 6 -63 19 -114 48 -250 22 -290 -56 l-19 -37 -6 49
c-6 53 -85 313 -117 388 -10 25 -24 46 -30 46 -6 0 -27 -8 -48 -19 -71 -36
-124 -37 -90 -3 16 16 -4 31 -42 32 -23 1 -23 2 -5 9 11 5 36 12 55 16 31 7
33 6 21 -9 -17 -20 -16 -20 92 0 97 18 110 14 120 -34 8 -41 49 -96 79 -106
34 -12 68 9 105 65 l27 40 -18 54 c-10 29 -15 58 -12 64 13 20 35 11 52 -20z
m-83 -87 c-1 -42 -19 -62 -54 -62 -38 0 -37 15 4 37 l32 17 -50 11 c-48 11
-49 12 -25 23 14 6 41 10 60 9 33 -2 35 -4 33 -35z m-623 -28 c0 -16 -51 -41
-103 -50 -27 -5 -23 0 28 30 68 40 75 42 75 20z m133 -44 c-18 -7 -23 -17 -23
-45 0 -40 40 -162 94 -284 20 -45 36 -87 36 -93 0 -18 -107 -4 -130 17 -23 21
-50 103 -50 152 0 19 -6 36 -13 39 -17 6 -156 -42 -179 -63 -27 -24 -22 -70
17 -152 41 -84 41 -90 16 -156 -10 -27 -22 -69 -26 -92 -4 -24 -10 -45 -15
-48 -21 -13 -212 578 -195 605 3 6 21 10 40 10 28 0 40 -8 71 -46 53 -65 68
-70 98 -37 20 22 28 25 38 15 21 -21 48 -13 68 21 22 36 26 87 8 105 -8 8 -8
15 -2 21 14 14 105 40 139 40 28 0 28 -1 8 -9z m-175 -102 c3 -35 1 -38 -22
-38 -30 0 -34 17 -9 36 25 18 8 30 -22 16 -14 -7 -34 -12 -45 -12 -10 0 -22
-9 -25 -20 -8 -26 -35 -26 -35 0 0 28 65 60 115 57 39 -2 40 -3 43 -39z m-371
-144 c-3 -3 -12 -4 -19 -1 -8 3 -5 6 6 6 11 1 17 -2 13 -5z m393 -31 c0 -13
-3 -13 -15 -3 -8 7 -12 16 -9 21 8 13 24 1 24 -18z m477 -55 c-3 -7 -5 -2 -5
12 0 14 2 19 5 13 2 -7 2 -19 0 -25z m-425 7 c3 -17 -50 -31 -64 -17 -10 10
-10 15 2 23 18 11 60 8 62 -6z m-472 -56 c0 -5 -4 -9 -10 -9 -5 0 -10 7 -10
16 0 8 5 12 10 9 6 -3 10 -10 10 -16z m394 -3 c22 -11 24 -15 12 -25 -22 -18
-51 -9 -54 17 -4 25 5 27 42 8z m111 -25 c7 -12 -26 -31 -54 -31 -30 0 -26 17
7 28 36 14 40 14 47 3z m462 -123 c-3 -7 -5 -2 -5 12 0 14 2 19 5 13 2 -7 2
-19 0 -25z m-104 -23 c21 -43 22 -65 3 -65 -8 0 -17 19 -23 50 -12 59 -4 64
20 15z m87 -25 c0 -5 -4 -10 -10 -10 -5 0 -10 5 -10 10 0 6 5 10 10 10 6 0 10
-4 10 -10z m68 -81 c3 -23 -3 -29 -38 -43 -72 -29 -111 -17 -88 27 12 23 65
47 98 44 19 -1 26 -9 28 -28z m-878 -10 c0 -6 -4 -7 -10 -4 -5 3 -10 11 -10
16 0 6 5 7 10 4 6 -3 10 -11 10 -16z m1012 -90 c20 -10 49 -35 64 -55 15 -19
63 -58 105 -85 96 -62 183 -154 220 -234 35 -72 36 -106 7 -140 -19 -21 -36
-27 -96 -34 -77 -10 -105 -24 -100 -50 3 -14 22 -16 127 -16 136 0 155 -9 97
-43 -60 -35 -134 -52 -232 -52 l-92 0 -11 44 c-17 68 -14 110 9 131 11 10 55
30 97 46 100 36 81 36 -97 -1 -212 -44 -353 -37 -422 20 l-23 19 35 -9 c53
-15 58 -13 79 30 l19 40 -26 6 c-15 3 -36 9 -47 14 -16 7 -14 9 15 9 19 1 42
6 50 11 13 9 12 12 -4 25 -19 15 -19 15 1 15 11 0 31 9 44 19 17 13 33 17 56
14 18 -3 40 -2 50 1 17 7 17 8 -2 22 -17 12 -18 16 -5 24 11 7 9 11 -11 18
-38 15 -54 39 -39 57 9 11 33 15 87 15 86 0 88 9 9 46 -64 30 -86 32 -62 5 23
-26 5 -35 -31 -16 -15 8 -47 20 -70 25 -55 14 -58 34 -4 25 21 -3 57 -1 80 5
36 9 39 13 29 29 -6 10 -8 26 -5 35 8 19 40 14 99 -15z m-848 -27 c9 -14 -8
-29 -41 -37 -39 -8 -44 6 -11 29 25 18 44 20 52 8z m1066 -54 c80 -41 217
-169 280 -263 27 -38 73 -99 104 -135 62 -72 75 -105 65 -165 -6 -36 -18 -113
-51 -327 -9 -64 -11 -68 -41 -76 -18 -5 -33 -8 -35 -6 -2 1 2 28 8 61 6 32 13
121 17 198 l5 140 -56 55 c-56 54 -56 55 -56 114 0 72 -20 118 -87 198 -59 70
-181 172 -239 201 -24 11 -41 24 -38 29 11 17 64 7 124 -24z m-387 -145 c-7
-2 -19 -2 -25 0 -7 3 -2 5 12 5 14 0 19 -2 13 -5z m-53 -33 c0 -6 -11 -16 -25
-22 -20 -9 -28 -9 -38 1 -9 9 -9 14 3 21 20 13 60 13 60 0z m-85 -149 c3 -5 1
-12 -5 -16 -5 -3 -10 1 -10 9 0 18 6 21 15 7z m58 -148 c-7 -2 -21 -2 -30 0
-10 3 -4 5 12 5 17 0 24 -2 18 -5z m275 -10 c6 -10 30 -97 56 -193 72 -277 71
-271 55 -281 -8 -5 -75 -9 -150 -9 -108 0 -139 3 -149 15 -18 22 -3 35 41 35
65 0 49 21 -25 32 -27 4 -32 28 -7 35 30 8 26 22 -11 35 l-32 11 39 13 c28 8
33 12 18 13 -32 1 -29 29 5 38 25 7 24 8 -23 19 -27 7 -40 13 -28 13 57 3 58
15 3 32 -53 16 -54 17 -25 24 56 13 61 19 20 25 l-40 5 32 7 c33 8 73 40 73
59 0 6 -9 13 -20 16 -17 5 -18 8 -8 21 37 45 159 68 176 35z m6862 -28 c-7
-14 -10 -28 -7 -32 4 -3 37 -9 75 -13 62 -5 65 -6 32 -14 -50 -12 -90 -34 -90
-51 0 -9 -18 -16 -56 -21 -66 -8 -330 0 -357 11 -29 12 -15 37 28 52 60 22
379 102 384 97 2 -2 -2 -15 -9 -29z m-6360 -73 c0 -5 -8 -16 -17 -24 -29 -24
-208 -116 -234 -120 -18 -2 -24 -9 -24 -28 0 -23 4 -25 43 -25 33 0 46 -5 55
-20 31 -51 28 -98 -4 -69 -18 16 -19 16 -19 -26 0 -34 3 -41 12 -32 19 19 33
14 45 -17 7 -19 26 -37 52 -51 43 -21 49 -42 17 -48 -10 -2 -40 8 -67 23 -27
14 -80 37 -117 49 -51 17 -71 30 -84 52 -20 35 -51 181 -46 221 3 27 5 28 73
34 86 8 134 21 222 59 71 31 93 36 93 22z m5908 -34 c7 -7 12 -17 12 -24 0
-32 -276 -89 -695 -144 -276 -36 -1570 -233 -2130 -324 -220 -36 -503 -79
-630 -96 -340 -46 -733 -104 -965 -144 -285 -48 -1376 -205 -1482 -213 -49 -3
-88 -3 -88 0 0 4 14 14 31 23 23 11 28 19 20 27 -6 6 -11 14 -11 18 0 10 71
24 255 49 83 12 375 55 650 96 275 41 701 104 946 139 461 67 662 97 1419 215
245 38 630 97 855 130 354 52 1360 206 1600 245 105 17 198 18 213 3z m-5914
-52 c-6 -16 -74 -46 -105 -46 -27 0 -16 16 29 40 45 23 84 26 76 6z m475 -98
c4 -13 6 -40 3 -60 -3 -32 0 -42 30 -70 19 -18 50 -64 69 -101 l34 -69 -25
-16 c-14 -10 -38 -29 -55 -44 -36 -33 -19 -36 44 -8 52 24 61 25 61 6 0 -8
-22 -34 -49 -56 -27 -23 -52 -49 -55 -57 -4 -8 1 -35 9 -60 8 -24 13 -49 9
-54 -10 -18 -31 10 -43 56 -6 25 -16 45 -22 45 -22 0 -67 -31 -106 -73 -40
-44 -61 -53 -135 -64 -24 -3 -38 -1 -38 6 0 6 61 51 135 101 l135 90 0 53 c-1
89 -15 134 -54 177 -20 22 -36 45 -36 50 0 19 -28 10 -33 -10 -3 -12 -24 -28
-54 -41 -75 -31 -77 -34 -87 -77 -7 -36 -4 -50 33 -129 22 -50 41 -95 41 -101
0 -6 -9 -16 -21 -22 -27 -15 -44 0 -60 48 -21 66 -58 119 -106 151 -64 43 -93
41 -148 -12 -53 -51 -57 -75 -15 -83 16 -4 35 -13 42 -21 10 -12 8 -18 -11
-33 -34 -25 -20 -37 55 -45 71 -7 93 -26 58 -52 -24 -18 -69 -10 -107 18 -68
49 -191 42 -321 -20 -80 -39 -89 -46 -106 -87 -22 -50 -36 -55 -51 -18 -14 40
-3 60 54 98 56 37 104 83 95 91 -6 7 -91 -48 -160 -103 l-56 -46 30 -60 c17
-34 41 -75 54 -93 13 -17 24 -36 24 -42 0 -6 -30 -27 -67 -46 -38 -20 -87 -50
-110 -67 -34 -25 -53 -31 -112 -36 -75 -5 -152 10 -172 34 -9 11 -6 19 15 35
27 21 61 77 53 86 -11 10 -67 -28 -100 -69 -34 -41 -37 -42 -113 -49 -133 -13
-543 -131 -682 -196 -56 -26 -85 -64 -65 -84 8 -8 26 0 63 25 87 60 110 48
110 -59 0 -59 25 -115 60 -132 14 -7 45 -13 70 -13 84 -1 83 -12 -1 -94 -140
-136 -456 -375 -623 -471 -41 -24 -47 -25 -38 -9 6 10 38 46 72 79 69 67 93
107 108 181 17 79 59 183 97 241 47 72 46 92 -4 57 -23 -17 -23 -17 -16 17 10
47 85 230 134 326 27 54 50 85 75 102 19 12 50 43 68 68 18 25 41 54 51 64 22
24 14 39 -19 39 -37 0 -29 18 14 30 43 11 154 106 177 150 9 16 25 30 42 33
16 3 35 17 45 34 9 16 43 52 75 81 32 29 68 62 81 75 13 12 35 24 50 27 47 9
19 25 -41 24 -58 -1 -58 -1 -39 19 15 14 41 21 100 27 108 11 170 43 137 70
-24 20 -17 33 14 27 16 -4 82 -27 145 -52 119 -46 440 -135 489 -135 69 0 -2
36 -118 60 -27 5 -93 23 -145 40 -52 16 -112 32 -132 35 -43 7 -48 19 -17 36
16 8 31 7 63 -5 34 -13 76 -16 221 -14 187 3 259 -8 321 -49 32 -20 62 -12
149 42 85 53 139 77 159 69 11 -4 13 0 9 14 -4 16 19 35 124 105 70 48 134 86
141 87 7 0 16 -10 21 -22z m-580 -115 c0 -28 -3 -54 -8 -57 -11 -7 -22 113
-13 145 6 23 6 23 13 -6 4 -16 7 -53 8 -82z m-649 -84 c0 -12 -37 -12 -44 0
-7 11 14 20 32 13 6 -2 12 -8 12 -13z m-297 -64 c1 -5 -14 -11 -33 -13 -33 -2
-34 -2 -15 13 21 17 45 17 48 0z m1385 -68 c-2 -11 -8 -22 -14 -24 -15 -5 -26
25 -18 49 5 15 8 17 20 7 8 -7 14 -21 12 -32z m61 -73 c37 -31 39 -44 8 -44
-36 0 -78 45 -60 64 11 10 21 7 52 -20z m-1684 -34 c-29 -30 -55 -39 -55 -20
0 11 58 50 74 50 6 0 -3 -13 -19 -30z m1101 -147 c30 -30 57 -103 51 -139 -11
-65 13 -111 78 -149 29 -17 5 -46 -87 -105 -62 -39 -130 -101 -270 -243 l-188
-190 0 49 c0 27 -7 94 -15 149 -18 126 -19 219 -2 232 6 5 35 15 62 21 69 18
145 65 229 143 l71 67 -3 75 c-2 69 0 77 20 91 28 20 33 20 54 -1z m139 -18
c43 -42 23 -107 -24 -78 -24 15 -54 71 -47 88 8 23 44 18 71 -10z m-1420 -15
c-19 -19 -31 -26 -34 -19 -2 7 6 21 19 31 36 29 46 21 15 -12z m1911 15 c-22
-17 -46 -20 -46 -6 0 10 22 18 50 20 11 0 10 -4 -4 -14z m-758 -27 c17 -17 15
-99 -2 -124 -8 -11 -34 -26 -57 -33 -36 -11 -44 -10 -57 3 -14 13 -13 20 2 61
32 84 82 125 114 93z m1037 -159 c44 -39 68 -83 60 -109 -10 -31 -23 -24 -57
30 -17 28 -34 50 -38 50 -4 0 -42 -22 -83 -49 l-76 -50 -51 55 c-27 31 -48 59
-45 64 3 4 30 2 60 -6 59 -16 72 -12 124 27 34 27 65 23 106 -12z m-335 -19
c0 -5 -7 -10 -16 -10 -8 0 -12 5 -9 10 3 6 10 10 16 10 5 0 9 -4 9 -10z m-60
-20 c0 -5 -4 -10 -10 -10 -5 0 -10 5 -10 10 0 6 5 10 10 10 6 0 10 -4 10 -10z
m-129 -128 c43 -64 120 -180 173 -256 58 -85 93 -143 87 -149 -10 -10 -191 7
-251 23 -47 13 -77 43 -152 152 -35 51 -81 112 -104 135 -46 49 -45 54 20 97
62 41 106 26 56 -19 -26 -23 -25 -40 2 -59 52 -37 122 -5 120 53 0 18 -14 53
-31 79 -29 45 -32 62 -8 62 7 -1 46 -54 88 -118z m-1856 89 c3 -5 1 -12 -5
-16 -5 -3 -10 1 -10 9 0 18 6 21 15 7z m2385 -85 c0 -3 -4 -8 -10 -11 -5 -3
-10 -1 -10 4 0 6 5 11 10 11 6 0 10 -2 10 -4z m-126 -41 c23 -35 62 -58 110
-65 40 -5 41 -6 44 -47 4 -49 -9 -105 -25 -110 -15 -5 -163 214 -163 242 0 14
19 3 34 -20z m62 -2 c-10 -10 -19 5 -10 18 6 11 8 11 12 0 2 -7 1 -15 -2 -18z
m-2466 2 c0 -2 -7 -20 -17 -39 -11 -24 -28 -40 -55 -50 -50 -21 -650 -131
-745 -138 -44 -3 -65 17 -61 61 2 27 9 39 28 48 14 6 142 30 285 52 143 23
294 47 335 55 72 13 230 21 230 11z m938 -19 c96 -8 176 -17 179 -20 21 -21
41 -251 26 -305 -6 -23 -7 -22 -17 10 -10 32 -14 34 -58 37 -27 2 -76 -6 -116
-17 -113 -34 -182 -26 -182 21 0 28 -44 44 -75 28 -19 -10 -28 -10 -39 -1 -10
9 -20 9 -40 0 -19 -9 -42 -9 -95 -1 -103 18 -126 16 -139 -10 -9 -19 -11 -20
-11 -5 -2 39 -94 46 -133 10 -23 -21 -27 -17 -34 38 -9 69 6 94 70 118 90 33
110 37 103 17 -9 -22 14 -21 46 4 14 11 38 20 54 20 19 0 37 9 51 25 41 46
132 53 410 31z m734 -38 c-6 -6 -14 -9 -17 -6 -3 3 -3 13 1 22 5 12 10 14 17
7 8 -8 8 -14 -1 -23z m-107 -139 c0 -23 -49 -22 -69 0 -18 20 -18 21 5 30 27
10 64 -7 64 -30z m-104 -41 c-9 -26 -56 -57 -67 -45 -9 9 45 67 63 67 9 0 10
-7 4 -22z m261 -43 c166 -63 318 -128 318 -136 0 -4 -13 -10 -30 -14 -39 -8
-77 -39 -96 -78 -43 -84 -74 -80 -74 10 0 39 -4 54 -12 51 -7 -3 -14 -15 -16
-29 -2 -13 -8 -41 -13 -62 -8 -31 -14 -38 -32 -35 -21 3 -22 8 -22 85 0 47 -4
84 -10 85 -5 2 -18 -22 -28 -52 -20 -63 -38 -85 -63 -76 -15 6 -16 17 -10 96
6 74 4 90 -7 90 -15 0 -25 -21 -47 -93 -7 -21 -19 -41 -27 -44 -26 -10 -45 27
-38 70 10 68 70 167 101 167 7 0 54 -16 106 -35z m815 -69 c-9 -26 -27 -15
-27 16 1 31 1 32 15 13 9 -10 14 -24 12 -29z m-1180 2 c-3 -7 -5 -2 -5 12 0
14 2 19 5 13 2 -7 2 -19 0 -25z m-607 2 c0 -5 -12 -10 -27 -10 -16 0 -79 -5
-142 -10 -105 -10 -133 -8 -119 5 21 21 288 35 288 15z m358 -30 c6 -53 13
-70 36 -85 22 -14 28 -15 58 -1 18 8 48 27 66 42 17 15 32 22 32 16 0 -20 -81
-107 -117 -125 -46 -23 -107 -80 -135 -125 -27 -44 -31 -36 -13 24 18 58 18
64 5 64 -18 0 -79 -93 -111 -169 -38 -91 -85 -227 -134 -383 -20 -65 -38 -118
-40 -118 -2 0 -10 -2 -18 -6 -30 -11 -42 53 -42 226 1 148 3 176 28 269 16 58
39 131 53 164 14 32 24 61 22 63 -2 2 -19 -22 -38 -52 -67 -110 -117 -363
-107 -531 4 -54 2 -95 -3 -98 -20 -12 -120 227 -120 286 0 44 27 37 40 -11 14
-54 24 -51 17 5 -5 46 -29 85 -53 85 -8 0 -21 -11 -30 -24 -13 -22 -14 -33 -4
-83 16 -78 65 -193 140 -333 36 -66 57 -116 51 -118 -6 -2 -37 -21 -69 -42
-93 -63 -219 -194 -398 -416 -30 -38 -79 13 -142 146 -28 59 -36 91 -40 150
-5 96 10 117 108 155 38 14 81 36 96 47 54 43 70 136 33 197 -45 74 -103 98
-274 112 -66 5 -124 14 -130 20 -13 13 23 79 85 156 27 33 118 121 202 194 84
73 186 162 227 198 l74 66 -7 -50 c-4 -27 -22 -107 -41 -176 -52 -189 -56
-219 -45 -322 15 -127 39 -215 67 -246 17 -17 23 -20 19 -9 -3 10 -13 68 -22
130 -9 62 -23 126 -31 142 -22 42 -13 106 36 257 22 70 43 150 47 179 7 50 9
53 50 71 37 17 158 40 399 78 33 5 85 8 115 8 51 -2 55 -4 58 -27z m360 18
c-6 -18 -28 -21 -28 -4 0 9 7 16 16 16 9 0 14 -5 12 -12z m1778 -185 c32 -42
64 -146 50 -160 -12 -12 -171 46 -195 71 -26 28 -20 48 33 104 41 44 70 40
112 -15z m-1741 -5 c42 -46 229 -327 265 -398 l22 -44 -23 -19 c-41 -33 -533
-337 -546 -337 -13 0 -20 39 -29 175 -4 55 -10 110 -15 122 -4 12 -31 47 -59
78 -28 31 -48 60 -44 66 3 6 47 41 97 78 115 85 151 123 221 234 31 48 60 87
65 87 5 0 26 -19 46 -42z m589 -101 c44 -48 76 -90 74 -93 -7 -6 -198 195
-198 208 0 16 43 -23 124 -115z m-244 38 c58 0 110 -4 117 -8 18 -11 173 -199
173 -208 0 -11 -77 -49 -157 -78 -78 -29 -91 -43 -72 -77 7 -14 66 -76 129
-137 157 -151 378 -305 756 -526 74 -43 287 -139 383 -172 82 -29 104 -25 167
26 63 52 113 60 157 25 29 -23 62 -110 52 -139 -9 -30 -82 -91 -108 -91 -12 0
-59 24 -103 53 -45 29 -106 63 -135 76 -30 13 -99 45 -154 71 -55 26 -118 50
-140 54 -55 10 -188 76 -255 126 -30 23 -93 63 -139 88 -46 26 -115 75 -152
109 -60 54 -226 173 -294 211 -33 18 -128 123 -209 232 -79 105 -140 200 -129
200 4 0 27 -19 52 -42 50 -49 50 -49 -41 91 -78 121 -83 138 -35 125 17 -5 79
-9 137 -9z m-520 -4 c0 -12 -20 -25 -27 -18 -7 7 6 27 18 27 5 0 9 -4 9 -9z
m330 -11 c0 -5 -4 -10 -10 -10 -5 0 -10 5 -10 10 0 6 5 10 10 10 6 0 10 -4 10
-10z m1248 -34 c47 -25 109 -84 127 -121 21 -46 30 -37 30 28 l0 52 38 3 c54
5 126 -32 232 -117 50 -40 123 -89 163 -109 41 -19 86 -49 102 -66 118 -131
142 -160 163 -203 54 -106 47 -132 -60 -234 -107 -103 -139 -123 -185 -122
l-41 2 23 -24 c22 -23 22 -24 4 -54 -19 -33 -74 -76 -139 -109 -22 -11 -50
-32 -62 -46 -30 -34 -46 -30 -248 51 -213 87 -268 117 -341 188 -72 71 -107
139 -129 250 -22 107 -39 124 -54 53 -9 -42 -34 -43 -42 -3 l-7 30 -1 -29 c-2
-50 21 -104 66 -157 56 -66 58 -92 3 -49 -72 57 -121 139 -135 227 -4 24 -11
45 -16 49 -12 7 -11 -89 1 -141 5 -22 7 -41 5 -43 -10 -11 -280 188 -322 237
l-23 26 33 5 c26 4 37 14 59 55 26 48 60 85 79 85 19 0 7 -35 -31 -92 -63 -95
-53 -105 27 -26 29 28 55 49 58 46 4 -3 -8 -28 -24 -55 -33 -54 -50 -113 -33
-113 6 0 35 39 66 88 89 140 164 205 301 257 18 7 16 9 -12 18 -18 5 -33 13
-33 16 0 10 57 29 107 37 66 10 86 0 118 -58 16 -29 33 -56 39 -60 12 -8 28 0
22 11 -13 20 -57 215 -52 228 5 12 16 14 51 9 25 -3 58 -12 73 -20z m-3416
-116 c-34 -22 -65 -47 -68 -55 -4 -8 -17 -15 -30 -15 -29 0 -31 -14 -4 -33 18
-13 19 -16 5 -27 -8 -7 -15 -21 -15 -31 0 -38 -130 -82 -240 -81 -41 0 -100 8
-130 17 -88 26 -158 29 -246 10 -43 -9 -85 -24 -91 -33 -8 -10 -13 -46 -13
-93 0 -87 2 -89 93 -89 58 0 66 -14 38 -68 -11 -21 -25 -61 -32 -88 -6 -27
-18 -59 -25 -71 -16 -26 -88 -65 -154 -84 -57 -16 -70 -26 -70 -55 0 -27 27
-37 150 -54 72 -10 75 -10 92 12 35 45 58 126 58 203 0 64 3 77 26 104 14 17
56 45 92 62 137 65 230 112 317 162 l89 52 146 -3 c173 -4 196 3 312 84 44 30
82 53 85 51 8 -9 -44 -101 -83 -148 l-37 -44 7 -165 c3 -91 2 -171 -2 -178 -6
-8 -24 -12 -48 -10 -51 4 -55 27 -15 83 37 51 38 64 10 94 -26 27 -66 23 -145
-15 -41 -19 -67 -24 -128 -24 -105 0 -136 -17 -136 -74 l0 -30 33 32 c50 48
77 40 77 -24 0 -49 50 -123 102 -150 40 -21 74 -17 118 12 48 32 120 43 138
21 7 -8 13 -39 15 -68 l2 -54 -115 2 c-167 2 -349 18 -361 30 -8 8 -7 16 2 30
10 16 8 37 -10 111 -15 57 -20 102 -16 121 10 46 69 90 243 180 156 80 211
115 202 125 -5 4 -194 -76 -354 -152 -44 -20 -94 -51 -113 -68 -28 -27 -33
-38 -31 -73 1 -36 -4 -47 -38 -82 -21 -22 -56 -49 -76 -60 -33 -17 -38 -24
-38 -54 0 -34 -12 -46 -26 -24 -10 16 -28 -6 -21 -25 5 -12 21 -16 62 -16 57
0 94 12 108 36 11 19 33 18 41 -2 12 -32 5 -43 -31 -53 -60 -15 -232 -35 -240
-28 -4 4 4 29 16 55 27 53 38 158 24 212 -13 48 -46 65 -107 56 -51 -8 -86
-34 -86 -66 0 -27 33 -26 71 1 43 31 62 22 72 -33 14 -76 -1 -117 -57 -159
-141 -107 -230 -120 -471 -70 -165 35 -215 49 -215 60 0 14 40 62 139 166 52
55 123 135 159 178 58 70 67 77 92 72 24 -5 29 -2 34 21 4 14 4 46 0 70 -8 57
1 90 30 109 13 9 88 29 167 45 203 43 467 113 579 154 127 47 150 46 72 -4z
m1476 -10 c-8 -25 -28 -51 -28 -37 0 15 24 67 30 67 5 0 4 -14 -2 -30z m-1428
-70 c0 -5 -4 -10 -10 -10 -5 0 -10 5 -10 10 0 6 5 10 10 10 6 0 10 -4 10 -10z
m1470 -29 c0 -15 -51 -51 -71 -51 -22 0 -24 10 -6 32 19 25 77 39 77 19z
m-1380 -26 c0 -8 -7 -15 -15 -15 -16 0 -20 12 -8 23 11 12 23 8 23 -8z m-70
-14 c0 -12 -20 -25 -27 -18 -7 7 6 27 18 27 5 0 9 -4 9 -9z m2570 -1 c0 -5 -2
-10 -4 -10 -3 0 -8 5 -11 10 -3 6 -1 10 4 10 6 0 11 -4 11 -10z m-50 -57 c0
-5 -9 -23 -20 -40 -21 -36 -44 -43 -54 -17 -8 22 -8 36 2 30 4 -2 19 4 32 15
27 20 40 24 40 12z m-2570 -13 c0 -5 -4 -10 -10 -10 -5 0 -10 5 -10 10 0 6 5
10 10 10 6 0 10 -4 10 -10z m-634 -88 c-15 -15 -16 -15 -16 0 0 10 6 30 13 45
l12 28 3 -29 c2 -17 -3 -35 -12 -44z m-119 -59 c-3 -10 -5 -4 -5 12 0 17 2 24
5 18 2 -7 2 -21 0 -30z m-32 18 c3 -5 1 -12 -5 -16 -5 -3 -10 1 -10 9 0 18 6
21 15 7z m95 -11 c0 -11 -4 -20 -10 -20 -5 0 -10 9 -10 20 0 11 5 20 10 20 6
0 10 -9 10 -20z m3180 -65 c86 -77 187 -150 448 -324 101 -67 182 -126 180
-130 -2 -4 -37 -36 -78 -71 -41 -35 -129 -118 -196 -184 -66 -67 -132 -131
-147 -143 -25 -21 -39 -56 -53 -138 l-6 -40 33 44 c55 71 69 94 80 134 7 27
21 44 49 62 21 13 80 64 132 112 167 158 229 213 238 213 28 0 -3 -40 -132
-171 l-143 -144 -265 -415 c-403 -632 -641 -980 -669 -980 -16 0 -30 26 -61
112 -17 48 -46 106 -65 130 -44 56 -72 146 -130 413 -63 290 -170 748 -188
805 -8 25 -33 89 -56 142 -22 54 -45 115 -51 137 -7 26 -17 41 -31 44 -29 8
-14 27 21 27 34 0 45 -23 35 -73 -5 -26 0 -21 28 27 39 70 62 85 55 37 -7 -46
13 -38 42 16 33 62 55 70 45 17 l-7 -39 22 20 c12 11 30 36 40 55 l18 35 11
-27 c6 -16 13 -28 16 -28 2 0 21 32 40 70 37 74 60 93 44 38 -11 -40 -11 -38
0 -38 5 0 32 36 61 80 70 107 90 108 50 3 -30 -79 -8 -64 39 26 22 43 48 84
57 92 16 13 17 11 10 -21 -19 -83 -18 -85 12 -35 16 28 40 59 52 70 l23 20 -6
-20 c-44 -146 -81 -324 -85 -407 -5 -119 17 -233 54 -278 26 -31 171 -126 180
-118 2 3 -30 31 -72 63 -42 33 -87 75 -100 94 -64 99 -52 324 27 500 16 35 29
81 29 102 0 49 15 50 35 2 9 -21 23 -45 32 -55 15 -17 15 -25 -5 -112 -23 -99
-28 -161 -13 -152 5 4 34 70 65 149 31 79 72 169 90 200 32 54 48 88 52 112 1
6 2 14 3 18 2 13 33 -9 111 -78z m-1252 -92 c-5 -25 -28 -28 -28 -4 0 12 6 21
16 21 9 0 14 -7 12 -17z m-528 -33 c0 -5 -5 -10 -11 -10 -5 0 -7 5 -4 10 3 6
8 10 11 10 2 0 4 -4 4 -10z m3582 -97 c-31 -43 -257 -263 -271 -263 -36 0 98
158 209 246 64 51 92 58 62 17z m-2705 1 c-3 -3 -12 -4 -19 -1 -8 3 -5 6 6 6
11 1 17 -2 13 -5z m-337 -52 c51 -45 48 -69 -5 -46 -40 16 -85 19 -85 4 0 -5
23 -21 51 -36 107 -54 199 -171 199 -253 0 -69 -97 -236 -215 -371 -31 -36
-59 -77 -62 -92 -3 -16 -11 -28 -18 -28 -7 0 -63 -36 -126 -81 -63 -44 -144
-99 -181 -120 -37 -22 -82 -58 -100 -80 -39 -48 -140 -127 -175 -135 -34 -9
-109 22 -155 64 -50 46 -77 99 -134 268 -68 202 -78 222 -118 239 -38 16 -66
11 -66 -11 0 -8 10 -14 24 -14 31 0 73 -49 82 -95 11 -62 -10 -69 -96 -29 -87
40 -110 68 -110 130 0 49 3 56 53 110 78 86 253 241 328 291 36 24 82 46 103
50 33 5 41 2 73 -28 46 -44 123 -147 123 -166 0 -15 -57 -43 -90 -43 -27 0
-26 25 2 44 12 9 19 19 14 23 -11 11 -59 -22 -76 -52 -14 -24 -13 -27 5 -41
39 -30 137 5 219 77 25 22 83 86 130 142 135 163 303 316 347 317 9 0 36 -17
59 -38z m3244 -12 c-1 -25 -5 -68 -9 -97 -8 -51 -7 -53 34 -102 54 -64 51 -82
-14 -97 -65 -15 -85 -24 -85 -36 0 -7 21 -9 59 -5 32 4 61 4 65 0 11 -11 -16
-33 -41 -33 -18 0 -24 -5 -21 -17 6 -32 36 -25 83 18 44 41 76 48 40 9 -14
-16 -16 -29 -11 -69 9 -65 -2 -71 -143 -78 l-107 -6 -50 35 c-27 19 -84 55
-128 79 -82 46 -126 94 -126 137 0 44 244 266 331 301 13 6 47 9 74 8 l50 -2
-1 -45z m-3044 20 c0 -5 -4 -10 -10 -10 -5 0 -10 5 -10 10 0 6 5 10 10 10 6 0
10 -4 10 -10z m-2063 -187 c-9 -9 -17 -11 -21 -5 -3 6 2 18 11 28 12 12 18 13
21 4 2 -6 -2 -19 -11 -27z m1080 11 c33 -9 17 -24 -25 -24 -46 0 -82 10 -82
21 0 10 73 12 107 3z m-297 -45 c90 -6 167 -13 170 -16 3 -3 -6 -13 -20 -22
-58 -38 -213 -172 -315 -272 -60 -60 -159 -145 -218 -189 -198 -148 -574 -459
-608 -502 -18 -24 -157 -169 -309 -323 -318 -323 -342 -351 -375 -434 -31 -79
-63 -131 -81 -131 -8 0 -14 -9 -14 -21 0 -12 -8 -23 -20 -26 -11 -3 -20 -12
-20 -19 0 -9 -12 -14 -33 -14 -46 0 -49 -6 -16 -40 32 -32 35 -47 15 -76 -13
-17 -18 -18 -48 -6 -53 22 -68 25 -68 15 0 -5 20 -19 45 -31 25 -12 45 -26 45
-32 0 -15 -16 -12 -70 11 -72 31 -84 17 -21 -22 82 -51 33 -50 -80 1 -50 23
-93 39 -96 36 -3 -3 3 -9 13 -12 10 -4 30 -17 44 -30 14 -12 50 -32 81 -43 56
-21 103 -50 82 -51 -6 0 -40 9 -75 20 -34 12 -82 27 -105 35 -24 7 -43 10 -43
6 0 -8 115 -63 164 -78 17 -5 32 -15 34 -22 6 -18 -42 -7 -136 30 -83 33 -100
36 -82 15 6 -8 52 -32 101 -52 83 -34 110 -54 74 -54 -46 0 -378 158 -427 203
-36 33 -82 127 -123 250 -67 202 -185 796 -185 932 0 67 14 91 35 62 7 -10 17
-17 24 -17 27 0 6 42 -59 114 -39 44 -68 81 -66 84 3 2 25 -12 49 -32 24 -20
52 -36 62 -36 16 0 13 6 -13 33 -18 18 -32 36 -32 40 0 3 14 13 30 22 26 13
30 21 30 56 0 22 -7 51 -16 64 -21 32 -4 33 36 3 16 -12 32 -19 35 -16 9 8
-45 68 -61 68 -21 0 -96 -57 -108 -83 -8 -16 -22 -23 -49 -25 -32 -3 -36 -6
-26 -18 6 -8 7 -14 2 -14 -12 0 -197 167 -225 204 -16 21 -19 31 -10 34 18 6
-5 32 -29 32 -10 0 -21 5 -24 10 -4 6 28 10 90 10 82 0 102 3 143 25 26 13 72
27 102 31 30 4 60 11 66 16 7 5 22 5 35 0 13 -5 56 -12 94 -16 39 -4 80 -13
92 -21 14 -9 24 -11 28 -5 10 17 55 11 85 -10 34 -25 80 -113 80 -155 0 -17
13 -84 29 -150 61 -251 112 -668 92 -755 -14 -61 -37 -79 -152 -119 -126 -45
-140 -60 -147 -164 -6 -95 16 -174 63 -225 49 -53 53 -33 9 39 -34 54 -39 71
-42 133 -3 61 -1 76 20 106 30 44 80 78 127 85 71 12 80 15 127 53 l48 38 158
-80 c131 -66 167 -80 215 -84 49 -3 64 0 93 20 45 30 51 68 16 92 -33 21 -33
32 0 40 21 6 24 9 14 21 -16 19 -74 19 -90 0 -10 -12 -5 -21 29 -51 72 -65 36
-70 -136 -18 -122 37 -254 93 -285 121 -13 12 -18 31 -18 75 l0 58 88 0 c106
0 190 20 257 62 28 17 120 73 205 124 172 104 197 121 187 130 -4 4 -33 -9
-64 -28 -32 -20 -101 -57 -153 -83 -52 -26 -116 -63 -141 -81 -61 -44 -102
-61 -184 -74 -127 -20 -221 15 -213 79 3 24 8 26 58 31 30 3 65 11 77 18 12 7
51 11 90 10 73 -2 117 8 108 23 -4 5 -36 9 -73 9 -41 0 -82 7 -105 18 -39 17
-39 17 115 17 151 0 228 12 228 37 0 8 -22 8 -72 2 -138 -16 -203 -9 -282 30
-67 33 -167 118 -154 131 3 4 17 -5 29 -19 13 -13 70 -45 127 -70 114 -51 174
-59 212 -28 28 23 19 42 -20 42 -56 0 -321 109 -350 144 -8 10 -24 22 -37 27
-30 11 -31 34 0 25 126 -37 187 -48 282 -53 112 -5 195 7 195 29 0 8 -36 9
-124 4 -83 -5 -126 -3 -131 4 -4 6 16 10 57 10 83 0 137 27 242 120 43 38 85
70 92 70 8 0 27 26 43 58 16 31 39 66 51 77 l22 20 -7 -42 c-11 -69 16 -53 70
40 23 40 31 48 50 43 17 -4 33 4 66 35 24 23 58 47 76 55 18 8 60 32 93 53 34
22 78 45 98 52 20 6 78 28 127 49 121 51 195 72 290 80 93 9 388 4 625 -11z
m-1111 -105 c-17 -21 -69 -47 -69 -35 0 13 50 51 68 51 12 0 12 -3 1 -16z
m2412 -126 c32 -77 7 -199 -53 -255 -46 -43 -132 -57 -162 -27 -19 19 -13 33
49 114 23 30 63 88 88 128 26 39 51 72 56 72 5 0 15 -15 22 -32z m-4141 -29
c0 -11 -4 -17 -10 -14 -5 3 -10 13 -10 21 0 8 5 14 10 14 6 0 10 -9 10 -21z
m1500 11 c0 -5 -4 -10 -10 -10 -5 0 -10 5 -10 10 0 6 5 10 10 10 6 0 10 -4 10
-10z m5278 -144 c106 -75 146 -145 63 -110 -20 8 -67 18 -106 21 -101 7 -135
19 -135 48 0 28 60 95 84 95 9 0 51 -24 94 -54z m-4200 -109 c10 -23 34 -57
53 -76 32 -32 140 -91 166 -91 26 0 83 -62 83 -89 0 -40 -27 -60 -200 -151
-85 -46 -267 -143 -404 -218 -137 -74 -359 -189 -495 -255 -135 -66 -284 -143
-331 -171 -104 -61 -181 -136 -198 -192 -22 -75 -10 -122 24 -94 8 7 28 39 46
72 17 33 54 79 81 104 101 90 387 249 387 215 0 -17 -162 -253 -251 -367 -44
-56 -125 -153 -179 -214 -54 -62 -109 -132 -122 -156 -21 -41 -22 -46 -8 -86
12 -35 23 -47 63 -67 28 -14 54 -20 65 -16 18 7 17 8 -68 73 -63 49 -37 105
125 272 105 109 176 199 304 388 140 206 162 229 311 312 68 39 131 70 139 70
37 0 -22 -149 -98 -243 -72 -90 -314 -325 -398 -386 -69 -50 -87 -71 -61 -71
20 0 138 69 217 127 42 31 111 93 154 136 42 44 80 77 84 73 4 -3 -3 -30 -15
-58 -12 -28 -20 -53 -18 -55 9 -10 236 437 236 465 0 8 -9 12 -22 10 -37 -5
-31 20 10 41 21 11 80 45 131 76 51 31 99 55 106 53 11 -2 6 -22 -18 -83 -41
-106 -336 -694 -408 -816 -31 -52 -68 -128 -83 -167 -65 -181 -111 -221 -253
-222 -71 0 -83 6 -83 44 0 42 52 146 96 193 30 32 38 35 71 30 49 -8 63 -29
63 -95 0 -58 17 -68 34 -20 14 39 -2 98 -35 130 -16 16 -29 35 -29 43 0 7 34
66 75 130 71 112 87 144 65 130 -5 -3 -48 -58 -96 -121 -47 -63 -100 -125
-117 -138 -44 -33 -98 -46 -194 -46 -124 0 -181 -15 -226 -61 -37 -36 -45 -68
-21 -76 6 -2 32 17 57 43 41 43 51 48 99 52 74 6 83 -7 83 -112 -1 -67 -6 -92
-29 -144 -60 -132 -147 -156 -342 -97 -73 22 -102 19 -224 -25 -61 -22 -118
-40 -126 -40 -25 0 -15 39 31 118 25 42 73 142 106 222 74 174 121 269 163
330 16 25 40 74 53 109 30 88 62 130 183 246 58 55 231 226 385 381 251 252
306 301 530 477 138 108 251 196 252 196 1 1 11 -18 21 -42z m1586 -31 c-7
-19 -49 -36 -87 -36 l-32 1 45 24 c51 27 82 32 74 11z m-166 -31 c10 -10 -21
-25 -50 -25 -50 0 -78 23 -40 34 20 5 82 0 90 -9z m-3085 -52 c-13 -2 -33 -2
-45 0 -13 2 -3 4 22 4 25 0 35 -2 23 -4z m3212 -20 c3 -10 10 -103 15 -208 12
-256 28 -332 130 -618 31 -88 39 -186 15 -194 -6 -2 -60 36 -120 85 -94 75
-117 100 -158 168 -26 43 -53 96 -59 118 -10 33 -10 39 5 48 35 19 7 81 -57
125 -42 28 -43 40 -2 22 14 -7 29 -9 33 -6 10 11 -27 46 -63 59 -34 12 -49 32
-38 50 3 5 14 2 24 -7 30 -27 44 -13 19 19 -17 22 -19 30 -9 36 10 6 8 14 -9
36 -15 19 -18 31 -11 38 5 5 10 32 10 58 0 26 4 48 9 48 5 0 38 20 75 45 36
25 79 48 95 51 17 4 38 15 47 25 21 24 40 24 49 2z m-3326 -22 c7 -5 10 -14 7
-20 -8 -13 -45 -14 -65 -2 -11 7 -10 11 5 20 23 13 35 13 53 2z m2971 -41 c0
-5 -4 -10 -10 -10 -5 0 -10 5 -10 10 0 6 5 10 10 10 6 0 10 -4 10 -10z m18
-140 c3 -55 1 -80 -7 -80 -6 0 -11 18 -11 43 0 23 -5 60 -10 81 -10 43 -4 64
13 47 6 -6 12 -46 15 -91z m-4153 50 c3 -5 -9 -16 -27 -23 -37 -16 -131 -93
-136 -112 -3 -13 66 -65 86 -65 7 0 12 16 12 40 0 60 39 91 187 146 77 29 127
30 184 4 24 -11 56 -20 70 -20 35 0 44 -24 68 -180 32 -200 36 -247 20 -232
-7 6 -23 12 -36 12 -13 0 -23 5 -23 10 0 6 6 10 14 10 19 0 29 30 15 46 -6 8
-21 14 -33 14 -36 0 -112 55 -152 109 -21 28 -41 51 -45 51 -10 0 -36 -32 -64
-80 l-26 -45 6 47 c3 27 2 49 -4 52 -17 11 -31 -30 -31 -91 l-1 -58 -19 23
c-30 36 -35 86 -13 124 26 46 65 62 151 62 70 1 75 0 100 -30 15 -17 32 -39
38 -50 22 -36 25 -6 5 35 -26 51 -77 109 -116 133 -16 10 -25 18 -18 18 6 0
24 5 40 11 26 10 27 12 8 19 -33 14 -79 11 -103 -6 -55 -38 -152 -212 -152
-272 0 -47 19 -73 94 -132 l56 -42 0 -59 c0 -69 14 -76 54 -28 29 34 33 49 12
49 -13 0 -26 41 -26 81 0 26 19 24 30 -3 8 -22 9 -22 9 -2 1 12 -10 36 -24 55
-47 66 -57 89 -44 105 20 24 38 16 100 -42 69 -66 113 -132 129 -193 14 -53 7
-63 -15 -21 -27 53 -28 27 -1 -71 28 -103 31 -123 16 -114 -31 19 12 -97 100
-275 73 -146 83 -184 28 -98 -24 37 -48 71 -52 75 -22 20 7 -107 44 -192 44
-105 50 -153 21 -179 -37 -34 -86 1 -187 130 -82 105 -169 291 -260 557 -39
113 -42 154 -14 189 l19 25 -62 66 -63 65 4 -34 c4 -35 -7 -44 -26 -21 -5 6
-18 43 -28 81 -11 38 -24 71 -30 73 -5 2 -21 -16 -34 -39 -31 -57 -50 -78 -70
-78 -16 0 -16 4 -4 52 8 29 14 75 14 103 0 100 91 225 164 225 19 0 38 -4 41
-10z m6163 -11 c26 -7 94 -32 150 -56 131 -55 365 -128 479 -149 116 -21 165
-39 216 -79 111 -89 141 -104 252 -133 162 -43 195 -64 195 -127 0 -28 32 -95
79 -165 17 -24 27 -48 23 -52 -8 -7 -234 25 -297 43 -83 23 -120 53 -139 112
-3 10 -19 25 -35 35 -19 10 -31 27 -33 42 -2 15 -16 33 -37 47 -46 31 -61 29
-61 -6 0 -41 -15 -46 -38 -14 -17 23 -22 25 -35 14 -9 -7 -17 -25 -19 -39 -4
-39 -29 -34 -53 10 -24 45 -35 48 -35 11 0 -33 -14 -58 -28 -50 -5 4 -12 24
-16 45 -9 60 -56 92 -56 39 0 -20 0 -20 -22 0 -29 26 -107 65 -178 88 -77 25
-128 52 -140 74 -16 31 -60 34 -151 10 -68 -17 -99 -20 -166 -15 -89 7 -104 0
-83 -39 11 -21 9 -28 -24 -69 -39 -46 -105 -104 -143 -124 -30 -16 -113 -16
-114 1 -3 29 5 55 31 107 34 68 57 90 66 66 13 -35 25 -13 22 42 l-3 57 -43
-3 c-39 -4 -43 -2 -38 15 3 10 8 31 12 46 3 16 18 34 33 42 15 7 63 43 106 79
44 37 98 75 120 86 46 23 130 26 203 9z m-2271 -66 c-8 -8 -21 -13 -28 -11 -9
3 -6 11 11 28 17 17 25 20 28 11 2 -7 -3 -20 -11 -28z m-613 -42 c-6 -6 -24
19 -24 34 1 6 7 1 15 -9 8 -11 12 -22 9 -25z m-77 13 c-3 -3 -12 -4 -19 -1 -8
3 -5 6 6 6 11 1 17 -2 13 -5z m613 -19 c0 -14 -4 -25 -10 -25 -11 0 -14 33 -3
43 11 11 13 8 13 -18z m-750 -54 c0 -5 -15 -21 -32 -35 -27 -21 -34 -23 -36
-10 -2 8 4 24 14 35 18 20 54 26 54 10z m680 -11 c0 -5 -4 -10 -10 -10 -5 0
-10 5 -10 10 0 6 5 10 10 10 6 0 10 -4 10 -10z m-775 -49 c3 -5 1 -12 -5 -16
-5 -3 -10 1 -10 9 0 18 6 21 15 7z m940 0 c3 -5 1 -12 -5 -16 -5 -3 -10 1 -10
9 0 18 6 21 15 7z m-263 -38 c-29 -25 -33 -35 -39 -96 -9 -99 -32 -130 -103
-138 -30 -4 -62 -8 -70 -10 -28 -8 -52 139 -31 195 8 19 21 26 63 35 29 5 85
16 123 24 39 8 74 15 80 16 5 0 -5 -11 -23 -26z m-523 -74 c14 -64 14 -194 0
-220 -14 -26 -29 -15 -29 22 0 36 -10 36 -48 4 -37 -31 -80 -32 -117 -4 l-27
22 26 24 c14 13 26 34 26 46 0 35 44 119 84 162 l38 40 18 -23 c10 -12 23 -45
29 -73z m771 30 c0 -5 -4 -9 -10 -9 -5 0 -10 7 -10 16 0 8 5 12 10 9 6 -3 10
-10 10 -16z m397 -45 c-3 -3 -12 -4 -19 -1 -8 3 -5 6 6 6 11 1 17 -2 13 -5z
m1968 -9 c99 -23 277 -85 323 -112 41 -23 84 -85 69 -99 -4 -4 -35 6 -69 21
-54 24 -79 29 -173 33 -79 3 -129 -1 -180 -13 -119 -27 -375 -40 -375 -18 0
12 106 124 138 147 39 27 127 54 177 55 17 0 57 -6 90 -14z m-6515 -39 c0 -3
-4 -8 -10 -11 -5 -3 -10 -1 -10 4 0 6 5 11 10 11 6 0 10 -2 10 -4z m4152 -46
c21 -6 40 -15 43 -19 7 -13 105 -510 105 -537 0 -22 -69 -86 -135 -125 -35
-21 -44 -22 -218 -16 -243 9 -260 14 -217 57 25 25 27 95 3 145 -16 34 -16 37
15 127 17 51 34 118 38 148 9 76 28 120 52 120 24 0 138 75 146 95 7 18 110
21 168 5z m-692 -50 c12 -22 -4 -65 -21 -55 -16 10 -10 75 7 75 2 0 8 -9 14
-20z m3292 -70 c35 -11 111 -42 169 -69 57 -27 167 -72 244 -100 299 -110 364
-143 417 -213 32 -42 88 -77 176 -108 48 -18 72 -34 100 -67 20 -25 58 -69 85
-99 26 -30 47 -60 47 -68 0 -19 -140 -29 -319 -25 -161 5 -164 7 -159 114 l3
70 -47 25 c-25 14 -73 51 -106 83 -34 32 -70 57 -81 57 -23 0 -28 -19 -10 -37
19 -19 6 -74 -22 -95 -30 -23 -109 -37 -109 -19 0 6 11 11 25 11 22 0 25 4 25
38 0 27 -3 33 -10 22 -7 -12 -18 -5 -57 37 -30 33 -71 63 -108 80 -33 15 -89
44 -125 64 -62 35 -71 37 -180 42 -102 4 -122 8 -180 36 -72 34 -101 38 -120
16 -10 -13 -10 -19 5 -35 10 -11 15 -26 12 -34 -11 -28 -441 -109 -664 -125
-68 -5 -127 -11 -130 -15 -12 -12 8 -19 62 -24 30 -2 53 -8 50 -12 -7 -11
-115 -30 -259 -45 l-130 -14 -48 52 c-26 29 -47 56 -48 60 0 14 196 272 229
300 19 16 45 27 61 27 16 0 51 9 78 19 44 17 75 19 313 19 261 -1 450 12 565
37 90 19 174 18 246 -5z m-5992 -59 c0 -20 -2 -21 -15 -11 -8 7 -15 26 -15 43
0 29 1 30 15 11 8 -10 15 -30 15 -43z m2861 26 c27 -21 39 -54 38 -104 -2
-109 -36 -156 -109 -151 -28 2 -37 9 -48 33 -26 60 -37 78 -61 94 -24 15 -24
15 -19 -7 3 -12 4 -22 0 -22 -13 0 -42 35 -42 51 0 22 36 35 55 19 27 -22 37
-6 15 23 -20 25 -20 27 -3 27 10 0 41 11 68 24 57 28 83 31 106 13z m119 -27
c0 -22 -4 -40 -10 -40 -11 0 -13 39 -4 64 10 26 14 19 14 -24z m-375 -3 c0
-26 -20 -25 -23 2 -3 16 1 22 10 19 7 -3 13 -12 13 -21z m1233 -5 c4 -25 -13
-30 -22 -6 -9 25 -7 36 7 32 6 -3 13 -14 15 -26z m-1578 -67 c0 -14 -4 -25
-10 -25 -11 0 -14 33 -3 43 11 11 13 8 13 -18z m1561 -5 c25 0 113 -28 132
-42 15 -11 10 -13 -31 -10 -38 3 -51 0 -66 -17 -30 -33 -109 -30 -141 5 -25
27 -25 44 -1 44 7 0 23 11 36 25 21 22 25 23 40 10 9 -8 23 -15 31 -15z m472
8 c25 -102 43 -455 25 -473 -13 -14 -134 -18 -157 -6 l-22 12 23 18 c21 18 23
30 31 177 11 221 16 262 33 279 24 23 61 19 67 -7z m-4326 -20 c-3 -8 -6 -5
-6 6 -1 11 2 17 5 13 3 -3 4 -12 1 -19z m4406 -17 c14 -35 47 -150 47 -165 0
-15 -21 -4 -36 19 -18 28 -55 171 -46 180 12 11 21 3 35 -34z m-4417 -47 c9
-24 14 -47 11 -50 -6 -6 -40 55 -52 96 -14 44 22 4 41 -46z m2476 5 c12 -6 42
-16 67 -23 43 -10 46 -13 49 -46 4 -55 -9 -66 -56 -52 -57 17 -102 62 -102
101 0 33 9 38 42 20z m-209 -90 c6 -21 -4 -31 -19 -21 -15 10 -34 48 -34 68 0
15 3 14 24 -5 13 -13 26 -31 29 -42z m1803 -9 c137 -107 127 -94 122 -162 -6
-78 -19 -88 -112 -88 -90 0 -152 26 -162 67 -8 30 10 171 27 222 6 17 17 31
24 31 7 0 52 -31 101 -70z m19 59 c11 -17 -1 -21 -15 -4 -8 9 -8 15 -2 15 6 0
14 -5 17 -11z m1703 -26 c2 -8 -5 -13 -17 -13 -21 0 -35 13 -24 24 10 10 36 3
41 -11z m-5698 -3 c0 -5 -4 -10 -10 -10 -5 0 -10 5 -10 10 0 6 5 10 10 10 6 0
10 -4 10 -10z m2325 -30 c18 -35 4 -41 -19 -8 -18 26 -20 38 -6 38 5 0 16 -13
25 -30z m1416 -71 c-2 -56 2 -112 8 -131 13 -40 54 -82 94 -97 15 -6 27 -14
26 -18 0 -5 -27 -29 -59 -55 -32 -26 -89 -87 -126 -135 -125 -162 -154 -191
-211 -219 -54 -27 -61 -28 -298 -34 -207 -6 -247 -9 -270 -24 -47 -31 -17 -86
39 -72 15 4 31 17 36 30 11 30 40 42 40 18 0 -10 -25 -48 -55 -85 l-55 -67 26
-102 c14 -57 27 -129 28 -160 1 -49 -3 -60 -26 -85 -31 -33 -35 -43 -14 -43
19 0 74 64 82 96 9 35 -1 95 -31 189 l-26 80 68 63 c37 34 82 74 100 88 l32
26 151 -12 c86 -7 155 -9 159 -4 152 171 301 331 384 411 119 114 152 130 192
93 13 -12 38 -25 56 -29 l32 -6 -34 -40 c-45 -51 -213 -195 -330 -283 -52 -38
-152 -120 -224 -181 -167 -143 -194 -162 -255 -173 -28 -5 -69 -17 -93 -27
l-42 -18 68 -8 c41 -4 67 -12 67 -19 0 -22 -230 -294 -313 -372 -45 -42 -115
-98 -156 -125 -83 -56 -117 -60 -139 -19 -39 74 56 659 133 810 35 70 119 152
275 270 69 52 166 131 215 175 181 163 315 268 315 248 0 -27 -52 -354 -61
-381 -6 -17 -30 -59 -55 -91 -24 -32 -44 -62 -44 -65 0 -17 53 31 80 71 58 89
88 199 114 431 19 164 28 184 81 179 19 -2 20 -8 16 -98z m-1013 -15 c15 -25
42 -66 61 -91 l33 -46 -73 6 c-89 7 -219 35 -219 48 0 5 11 9 24 9 18 0 40 17
77 60 29 33 56 60 61 60 5 0 21 -21 36 -46z m1692 -39 c44 -35 86 -81 119
-130 70 -105 80 -166 30 -194 -24 -13 -29 -13 -55 8 -16 12 -50 35 -75 51 -68
41 -93 98 -97 223 -2 53 -1 97 3 97 3 0 37 -25 75 -55z m-2021 39 c37 -8 41
-31 7 -40 -37 -9 -80 19 -59 39 8 9 13 9 52 1z m2791 -14 c0 -5 -7 -10 -16
-10 -8 0 -12 5 -9 10 3 6 10 10 16 10 5 0 9 -4 9 -10z m-3020 -22 c102 -5 190
-28 190 -50 0 -18 -70 -38 -130 -38 -34 0 -70 -5 -80 -10 -15 -8 -26 -4 -55
21 -49 44 -69 34 -60 -30 10 -71 -12 -116 -67 -140 -24 -10 -52 -28 -62 -40
-21 -23 -46 -28 -46 -8 0 19 54 128 95 194 62 98 86 125 98 115 7 -5 59 -12
117 -14z m320 -23 c0 -8 -6 -15 -14 -15 -17 0 -28 14 -19 24 12 12 33 6 33 -9z
m385 0 c0 -12 -40 -19 -61 -11 -9 3 -12 11 -9 16 8 14 70 9 70 -5z m-435 -53
c0 -23 -45 -68 -54 -54 -7 11 1 40 17 60 14 18 37 15 37 -6z m159 -56 c31 -14
39 -36 13 -36 -51 0 -302 -156 -331 -206 -11 -19 -33 -40 -48 -46 -15 -7 -34
-21 -41 -31 -8 -9 -44 -33 -82 -52 -37 -19 -77 -46 -88 -60 -11 -14 -27 -25
-35 -25 -21 0 -79 -32 -94 -52 -7 -9 -26 -19 -42 -23 -16 -3 -37 -15 -46 -25
-10 -11 -34 -25 -54 -31 -61 -20 -129 -58 -145 -81 l-16 -22 -27 22 c-16 13
-65 41 -110 62 -47 23 -83 46 -83 54 0 8 15 30 33 49 32 34 33 34 138 40 59 3
122 12 141 20 34 14 71 53 112 117 21 33 25 35 76 34 30 0 82 -4 115 -8 57 -8
62 -6 103 23 24 18 53 53 70 83 15 29 43 69 62 89 31 32 44 38 95 44 89 9 95
11 154 49 56 37 74 38 130 12z m-412 -11 l28 -24 -26 -1 c-31 0 -65 23 -55 38
11 18 22 15 53 -13z m2529 10 c8 -19 -43 -105 -62 -105 -16 0 -54 56 -54 81 0
26 22 39 67 39 29 0 45 -5 49 -15z m-2596 -96 c0 -52 -81 -162 -103 -140 -13
13 17 81 58 129 31 37 45 41 45 11z m-1954 -96 c31 -61 50 -75 193 -136 64
-28 64 -28 45 -49 -11 -11 -38 -29 -62 -40 -23 -10 -52 -32 -64 -48 -12 -17
-27 -30 -34 -30 -17 0 -195 -121 -263 -179 -74 -62 -137 -150 -150 -209 -5
-27 -26 -82 -45 -122 -20 -41 -36 -86 -36 -101 0 -53 31 -114 85 -169 30 -30
63 -75 74 -100 23 -54 45 -156 37 -176 -20 -51 -265 46 -358 143 -20 21 -44
55 -53 76 -15 36 -14 40 5 85 28 61 36 164 18 216 -7 22 -18 41 -23 43 -6 2
-37 -20 -68 -48 -73 -65 -92 -62 -84 14 6 60 38 151 70 199 12 18 45 47 72 63
87 52 354 315 443 435 124 168 142 190 155 190 8 0 27 -26 43 -57z m1709 -23
c11 -17 -5 -32 -21 -19 -7 6 -11 15 -8 20 7 12 21 11 29 -1z m2665 -76 c0 -31
-21 -73 -49 -98 -32 -29 -37 -11 -13 39 12 25 22 51 22 58 0 17 21 38 32 31 4
-3 8 -16 8 -30z m-3976 -140 c45 -9 84 -19 89 -23 4 -4 -8 -43 -27 -86 -28
-63 -32 -83 -24 -99 9 -17 5 -25 -28 -54 -21 -19 -70 -52 -109 -74 -38 -23
-94 -55 -124 -72 -62 -36 -204 -189 -232 -251 -26 -56 -24 -72 20 -156 29 -56
91 -242 91 -275 0 -2 -26 -4 -58 -4 -113 0 -202 69 -218 169 -4 27 -18 57 -36
76 l-28 33 20 51 c24 62 25 81 4 162 -17 67 -13 133 12 181 8 15 47 53 87 85
39 31 112 93 162 136 49 43 103 86 120 94 16 8 53 32 80 53 44 33 103 68 114
70 2 0 40 -7 85 -16z m489 -159 c9 -4 17 -10 17 -14 0 -4 -38 -24 -84 -44
-102 -47 -142 -79 -175 -143 -22 -41 -31 -50 -58 -52 -38 -4 -98 25 -137 67
l-30 31 22 23 c26 28 181 115 237 134 40 13 172 12 208 -2z m269 -37 c18 -15
31 -48 19 -48 -5 0 -20 9 -34 20 -60 48 -83 3 -42 -84 30 -63 46 -77 163 -135
45 -23 82 -45 82 -50 0 -17 -105 -24 -163 -11 -41 8 -74 25 -118 58 -107 82
-125 93 -160 98 -26 4 -41 1 -59 -14 -14 -11 -22 -23 -18 -27 4 -4 34 -10 68
-14 63 -8 112 -35 118 -65 5 -22 -32 -62 -78 -86 -67 -34 -172 -60 -288 -70
-64 -6 -127 -15 -139 -20 -38 -16 -27 7 35 75 32 35 82 105 112 155 63 107 87
128 190 165 165 59 279 79 312 53z m560 -50 c-7 -7 -12 -8 -12 -2 0 14 12 26
19 19 2 -3 -1 -11 -7 -17z m2246 -216 c2 -7 -3 -12 -12 -12 -9 0 -16 7 -16 16
0 17 22 14 28 -4z m-4268 -230 c0 -36 -15 -72 -30 -72 -14 0 -13 87 1 112 14
27 29 7 29 -40z m1540 -32 c0 -5 -2 -10 -4 -10 -3 0 -8 5 -11 10 -3 6 -1 10 4
10 6 0 11 -4 11 -10z m24 -78 c-4 -18 -10 -32 -15 -32 -11 0 -12 63 -2 73 13
14 23 -10 17 -41z m-579 -71 c3 -5 1 -12 -5 -16 -5 -3 -10 1 -10 9 0 18 6 21
15 7z m-35 -31 c0 -5 -5 -10 -11 -10 -5 0 -7 5 -4 10 3 6 8 10 11 10 2 0 4 -4
4 -10z"/>
<path d="M5224 8254 c-18 -15 -18 -15 9 -9 15 3 27 1 27 -4 0 -11 -58 -61 -71
-61 -16 0 -10 -47 9 -71 23 -28 47 -20 55 18 4 19 19 37 44 53 43 28 53 58 27
77 -24 18 -76 16 -100 -3z"/>
<path d="M5420 8190 c0 -5 5 -10 10 -10 6 0 10 5 10 10 0 6 -4 10 -10 10 -5 0
-10 -4 -10 -10z"/>
<path d="M5355 8170 c3 -5 10 -10 16 -10 5 0 9 5 9 10 0 6 -7 10 -16 10 -8 0
-12 -4 -9 -10z"/>
<path d="M4775 8171 c-3 -5 -1 -12 5 -16 5 -3 10 1 10 9 0 18 -6 21 -15 7z"/>
<path d="M5453 7810 c-34 -20 -58 -55 -45 -64 15 -9 82 17 82 31 0 7 8 13 19
13 21 0 45 23 34 33 -13 13 -58 7 -90 -13z"/>
<path d="M5437 7713 c-4 -3 -7 -11 -7 -17 0 -6 5 -5 12 2 6 6 9 14 7 17 -3 3
-9 2 -12 -2z"/>
<path d="M5475 7680 c-15 -6 -8 -9 28 -9 26 -1 47 4 47 9 0 12 -47 12 -75 0z"/>
<path d="M5560 6940 c-8 -5 -12 -12 -8 -15 10 -10 49 5 43 16 -8 11 -16 11
-35 -1z"/>
<path d="M5581 6876 c-17 -21 4 -30 23 -10 9 8 16 17 16 20 0 10 -29 3 -39
-10z"/>
<path d="M5630 6770 c0 -5 5 -10 10 -10 6 0 10 5 10 10 0 6 -4 10 -10 10 -5 0
-10 -4 -10 -10z"/>
<path d="M5690 6319 c0 -3 5 -20 11 -38 11 -32 29 -42 29 -17 0 13 -39 67 -40
55z"/>
<path d="M5790 6201 c0 -44 8 -71 21 -71 10 0 12 70 3 94 -11 29 -24 17 -24
-23z"/>
<path d="M5730 6190 c0 -5 5 -10 10 -10 6 0 10 5 10 10 0 6 -4 10 -10 10 -5 0
-10 -4 -10 -10z"/>
<path d="M6160 6049 c0 -5 5 -7 10 -4 6 3 10 8 10 11 0 2 -4 4 -10 4 -5 0 -10
-5 -10 -11z"/>
<path d="M5765 6024 c25 -18 64 -29 73 -19 12 11 -30 35 -62 35 -30 -1 -30 -1
-11 -16z"/>
<path d="M5860 5950 c-42 -22 -120 -88 -120 -101 0 -15 40 -10 47 7 3 8 25 24
50 36 40 19 73 51 73 70 0 12 -11 9 -50 -12z"/>
<path d="M5197 5610 c-40 -12 -55 -27 -62 -62 -12 -50 8 -53 60 -8 26 22 52
39 59 37 6 -2 10 -21 9 -43 l-3 -39 20 25 c25 31 35 69 23 81 -14 14 -74 19
-106 9z"/>
<path d="M5640 5544 c0 -8 5 -12 10 -9 6 3 10 10 10 16 0 5 -4 9 -10 9 -5 0
-10 -7 -10 -16z"/>
<path d="M6215 5229 c-83 -43 -111 -99 -50 -99 15 0 24 -4 21 -8 -9 -16 34
-89 60 -101 46 -21 114 11 114 54 0 11 -14 43 -31 71 -18 27 -35 60 -39 74 -9
33 -26 35 -75 9z"/>
<path d="M5262 5085 c0 -16 2 -22 5 -12 2 9 2 23 0 30 -3 6 -5 -1 -5 -18z"/>
<path d="M5143 5064 c-3 -8 -12 -13 -21 -9 -8 3 -20 0 -28 -6 -9 -7 -19 -7
-34 1 -29 15 -36 6 -21 -26 10 -22 16 -25 39 -19 45 11 97 41 100 58 4 22 -26
23 -35 1z"/>
<path d="M5201 5054 c0 -11 3 -14 6 -6 3 7 2 16 -1 19 -3 4 -6 -2 -5 -13z"/>
<path d="M7635 3487 c-19 -19 -35 -40 -35 -45 0 -18 52 -52 80 -52 50 0 79 60
44 94 -38 39 -53 39 -89 3z m53 -16 c8 -4 12 -19 10 -32 -2 -18 -9 -24 -28
-24 -28 0 -39 27 -20 50 14 17 20 18 38 6z"/>
<path d="M7435 4205 c-22 -8 -53 -29 -69 -46 -28 -31 -28 -34 -22 -107 8 -88
23 -127 62 -164 46 -43 93 -58 143 -47 60 13 138 55 152 81 6 12 14 61 17 108
l5 86 -34 39 c-19 21 -48 44 -66 51 -42 18 -137 17 -188 -1z m193 -45 c23 -10
42 -23 42 -29 0 -19 -20 -22 -42 -7 -60 42 -138 -12 -138 -95 0 -30 7 -43 35
-68 31 -27 43 -31 90 -31 64 0 71 -13 18 -30 -21 -7 -52 -19 -70 -27 -28 -13
-35 -13 -70 5 -87 45 -136 142 -110 220 26 78 144 108 245 62z m-18 -55 c0 -3
-5 -14 -12 -24 -9 -15 -8 -28 5 -63 9 -24 17 -47 17 -51 0 -13 -45 -7 -68 9
-19 13 -23 23 -20 62 2 38 8 49 28 59 26 13 50 17 50 8z"/>
<path d="M7433 3803 c9 -2 25 -2 35 0 9 3 1 5 -18 5 -19 0 -27 -2 -17 -5z"/>
<path d="M3710 3730 c0 -5 7 -10 16 -10 8 0 12 5 9 10 -3 6 -10 10 -16 10 -5
0 -9 -4 -9 -10z"/>
<path d="M6090 3683 c0 -12 5 -25 10 -28 13 -8 13 15 0 35 -8 12 -10 11 -10
-7z"/>
<path d="M4136 3528 c-48 -161 -57 -211 -46 -238 7 -18 24 -33 43 -40 l31 -11
-31 -19 c-40 -24 -93 -114 -93 -157 0 -17 7 -39 16 -48 16 -15 19 -14 49 15
39 38 85 120 89 158 5 40 33 39 125 -7 53 -27 94 -41 119 -41 93 0 279 143
408 313 48 65 58 95 24 77 -11 -6 -77 -66 -148 -133 -147 -141 -202 -187 -256
-214 l-39 -20 -101 48 c-56 27 -110 49 -121 49 -11 0 -35 9 -52 20 -40 24 -42
45 -13 145 11 38 20 80 20 92 0 24 -18 32 -24 11z"/>
<path d="M4920 3381 c-63 -65 -150 -142 -192 -171 -43 -29 -78 -57 -78 -62 0
-30 130 55 230 149 80 75 170 187 159 197 -2 3 -56 -49 -119 -113z"/>
<path d="M4540 3105 c-36 -13 -108 -28 -160 -34 -145 -16 -257 -56 -222 -79
17 -11 6 -37 -24 -57 -14 -9 -32 -31 -41 -50 -15 -31 -15 -36 1 -59 9 -14 38
-37 64 -50 26 -13 58 -36 72 -50 20 -23 22 -30 12 -46 -10 -16 -8 -22 10 -34
15 -11 26 -12 39 -6 24 13 59 59 59 78 0 26 -83 97 -148 127 -34 16 -62 34
-62 41 0 18 16 25 181 85 217 77 309 122 309 151 0 12 -18 9 -90 -17z"/>
<path d="M8175 3860 c-4 -7 -3 -16 3 -22 14 -14 45 -2 40 15 -6 16 -34 21 -43
7z"/>
<path d="M8063 3794 c-12 -33 89 -82 108 -53 25 40 -3 69 -66 69 -24 0 -38 -5
-42 -16z"/>
<path d="M8020 3655 c-18 -47 -12 -65 25 -81 39 -16 141 -19 150 -4 6 11 0 14
-48 25 -32 7 -31 28 1 33 53 8 12 35 -71 47 -44 7 -47 6 -57 -20z"/>
<path d="M3231 3279 c-44 -38 -81 -72 -81 -75 0 -7 85 51 138 94 40 33 52 52
33 52 -4 0 -45 -32 -90 -71z"/>
<path d="M1307 3152 c-21 -23 -22 -48 -3 -55 19 -7 26 1 26 30 0 13 5 23 10
23 6 0 10 5 10 10 0 16 -26 11 -43 -8z"/>
<path d="M2990 3093 c-178 -139 -448 -378 -439 -388 6 -5 374 299 499 413 69
63 35 49 -60 -25z"/>
<path d="M2731 2594 c0 -11 3 -14 6 -6 3 7 2 16 -1 19 -3 4 -6 -2 -5 -13z"/>
<path d="M2642 2530 c0 -14 2 -19 5 -12 2 6 2 18 0 25 -3 6 -5 1 -5 -13z"/>
<path d="M2530 2459 c-10 -18 -9 -20 7 -17 10 2 19 11 21 21 5 24 -15 21 -28
-4z"/>
<path d="M2430 2388 c-10 -18 -17 -34 -15 -36 7 -8 25 9 40 39 21 40 0 38 -25
-3z"/>
<path d="M1620 2367 l0 -37 -45 0 c-42 0 -58 -11 -35 -25 17 -11 11 -24 -17
-39 l-28 -15 27 -1 c35 0 42 -13 18 -35 -11 -10 -20 -22 -20 -27 0 -11 98 27
121 48 22 20 25 64 8 115 -18 51 -29 58 -29 16z"/>
<path d="M2347 2350 c-18 -26 -22 -50 -9 -50 13 0 35 46 30 61 -3 8 -10 5 -21
-11z"/>
<path d="M2274 2335 c-7 -17 4 -37 17 -30 12 8 12 45 -1 45 -6 0 -13 -7 -16
-15z"/>
<path d="M2210 2310 c0 -5 5 -10 10 -10 6 0 10 5 10 10 0 6 -4 10 -10 10 -5 0
-10 -4 -10 -10z"/>
<path d="M1990 1600 c0 -12 48 -25 58 -16 8 9 -18 26 -40 26 -10 0 -18 -4 -18
-10z"/>
<path d="M2546 1282 c-9 -28 2 -64 17 -59 18 5 20 40 4 61 -14 19 -15 19 -21
-2z"/>
<path d="M5060 2347 c0 -21 35 -62 43 -51 7 13 -14 56 -30 62 -7 2 -13 -3 -13
-11z"/>
<path d="M4452 2268 c-19 -19 -14 -42 16 -71 l28 -27 34 22 c46 31 47 44 8 68
-37 23 -68 26 -86 8z"/>
<path d="M4339 2219 c-23 -44 23 -150 52 -122 17 17 15 73 -5 112 -19 36 -31
39 -47 10z"/>
<path d="M4567 2104 c-14 -14 -7 -44 13 -54 16 -9 22 -8 27 6 10 27 -22 65
-40 48z"/>
<path d="M4450 2023 c-24 -41 -21 -54 22 -86 27 -20 78 -15 78 9 0 18 -59 114
-70 114 -4 0 -18 -17 -30 -37z"/>
<path d="M4306 2004 c-3 -9 -6 -31 -6 -50 0 -27 5 -37 25 -46 52 -23 77 48 32
90 -28 26 -43 28 -51 6z"/>
<path d="M4657 1973 c-12 -12 -7 -50 8 -63 31 -26 56 9 39 54 -6 16 -35 22
-47 9z"/>
<path d="M4566 1859 c-19 -15 -26 -30 -26 -56 0 -42 16 -40 48 7 22 33 29 70
13 70 -4 0 -20 -9 -35 -21z"/>
<path d="M4355 1850 c-10 -17 24 -69 50 -76 25 -6 55 9 55 28 0 34 -88 75
-105 48z"/>
<path d="M7690 1764 c0 -8 5 -12 10 -9 6 3 10 10 10 16 0 5 -4 9 -10 9 -5 0
-10 -7 -10 -16z"/>
<path d="M257 3193 c-33 -36 -60 -99 -52 -124 11 -34 37 -17 50 33 6 26 24 63
39 82 24 32 25 36 8 36 -10 0 -30 -12 -45 -27z"/>
<path d="M363 3195 c-60 -48 -76 -86 -80 -199 -2 -55 -6 -112 -9 -126 -3 -14
-31 -49 -62 -78 -34 -33 -49 -52 -37 -49 11 3 45 9 75 12 65 9 80 18 80 55 0
40 36 137 71 192 39 61 31 73 -16 24 -22 -23 -35 -32 -35 -22 0 17 56 77 110
118 l35 27 -28 1 c-38 0 -75 -21 -115 -65 -19 -20 -36 -34 -39 -31 -8 8 32 67
67 101 18 17 36 38 41 48 15 26 -20 22 -58 -8z"/>
<path d="M8609 1180 c-94 -50 -119 -106 -119 -267 1 -179 24 -273 68 -273 12
0 13 9 7 48 -4 26 -11 70 -15 97 -4 28 -5 71 -3 97 5 39 3 48 -16 60 -11 7
-21 17 -21 23 0 29 55 122 100 169 67 71 67 82 -1 46z"/>
<path d="M9052 1095 c-7 -14 -12 -58 -13 -98 0 -85 -10 -147 -24 -150 -5 -1
-19 25 -30 58 -26 73 -48 117 -70 135 -28 23 -27 3 5 -71 22 -51 35 -102 41
-164 6 -49 14 -110 20 -134 7 -31 6 -47 -2 -57 -33 -40 51 -14 88 27 27 30 69
114 76 156 7 37 -8 54 -17 20 -3 -12 -15 -33 -27 -47 l-21 -25 6 28 c12 52 26
282 20 315 -8 39 -36 43 -52 7z m15 -97 c-2 -13 -4 -3 -4 22 0 25 2 35 4 23 2
-13 2 -33 0 -45z m-67 -218 c0 -5 -4 -10 -10 -10 -5 0 -10 5 -10 10 0 6 5 10
10 10 6 0 10 -4 10 -10z m58 -78 c-4 -33 -32 -37 -36 -5 -2 12 2 32 9 44 10
20 12 21 21 5 5 -9 8 -29 6 -44z"/>
<path d="M8085 1085 c3 -11 16 -54 27 -95 22 -83 34 -103 44 -76 12 32 -16
126 -48 159 -22 24 -28 27 -23 12z"/>
<path d="M8345 1050 c-8 -16 -19 -46 -23 -66 -11 -53 -29 -53 -52 0 -10 25
-24 46 -29 46 -21 0 -43 -52 -52 -122 -5 -43 -20 -94 -36 -125 -28 -56 -26
-77 6 -49 27 24 63 111 70 171 l7 50 22 -64 c24 -71 28 -106 11 -116 -15 -10
-69 -86 -69 -98 0 -5 20 9 45 32 51 47 60 49 75 21 21 -39 28 -10 24 93 l-5
102 26 -48 c15 -27 29 -47 32 -44 3 3 0 43 -6 89 -6 46 -8 100 -5 121 5 30 4
37 -9 37 -9 0 -23 -13 -32 -30z"/>
<path d="M8756 1038 c11 -60 11 -152 -1 -158 -6 -3 -13 17 -16 45 -7 54 -24
91 -47 100 -26 10 -35 -7 -29 -60 5 -54 21 -89 58 -137 21 -26 21 -28 5 -98
-16 -74 -20 -120 -10 -120 18 0 47 26 68 63 24 42 49 117 41 125 -2 2 -9 -14
-14 -36 -12 -44 -41 -78 -41 -47 0 10 4 34 10 54 5 20 13 54 17 75 l8 40 39
-48 39 -47 -21 -52 c-12 -29 -22 -58 -22 -65 0 -21 45 14 76 59 26 38 27 41
15 94 -13 56 -48 119 -69 121 -7 1 -16 2 -22 3 -12 1 -40 55 -40 77 0 15 4 14
25 -6 24 -23 31 -18 19 15 -7 18 -55 45 -80 45 -14 0 -15 -6 -8 -42z m134
-154 c0 -8 -4 -14 -10 -14 -5 0 -10 9 -10 21 0 11 5 17 10 14 6 -3 10 -13 10
-21z"/>
<path d="M7330 1001 c0 -38 -5 -92 -12 -120 -9 -39 -9 -57 0 -77 10 -22 9 -29
-8 -51 -49 -63 0 -73 58 -12 22 22 52 63 67 91 27 50 27 50 11 106 -19 66 -7
92 24 54 37 -45 36 -85 -4 -168 -20 -42 -36 -82 -36 -90 0 -27 28 -14 64 28
19 24 38 40 41 36 4 -3 -3 -28 -14 -53 -24 -55 -26 -75 -7 -75 42 0 103 86
131 184 23 80 36 56 38 -71 1 -61 6 -98 13 -100 33 -11 103 87 124 175 6 23
15 42 20 42 5 0 14 -24 20 -54 9 -44 8 -65 -4 -112 -8 -32 -13 -60 -11 -62 2
-2 12 9 22 24 27 42 31 225 6 274 -27 52 -44 45 -59 -25 -14 -68 -47 -162 -67
-190 -12 -16 -15 -10 -20 50 -7 75 -43 160 -67 160 -24 0 -60 -83 -60 -137 0
-26 -4 -48 -10 -48 -5 0 -10 12 -10 28 0 60 -13 105 -31 109 -10 3 -23 20 -29
38 -14 41 -97 122 -112 107 -6 -6 -5 -24 2 -52 13 -50 16 -142 5 -160 -12 -19
-25 8 -25 51 0 45 -37 169 -50 169 -6 0 -10 -31 -10 -69z"/>
<path d="M9186 989 c-3 -19 -10 -83 -16 -144 -5 -60 -13 -120 -16 -132 -5 -19
-2 -23 15 -23 15 0 21 -6 22 -22 0 -22 1 -22 10 2 15 37 17 326 2 341 -9 9
-13 4 -17 -22z"/>
<path d="M9325 924 c7 -99 2 -144 -15 -144 -5 0 -12 20 -16 45 -3 25 -10 45
-15 45 -15 0 -41 -110 -35 -143 4 -18 9 -47 13 -64 3 -18 11 -33 17 -33 15 0
36 42 36 70 0 27 14 25 34 -5 16 -24 18 -24 40 -9 23 15 25 14 38 -12 17 -35
31 -39 54 -17 9 10 31 23 48 28 22 7 32 19 39 45 11 45 1 113 -23 142 l-18 23
-7 -60 c-7 -59 -26 -108 -45 -120 -5 -3 -23 1 -39 10 -29 15 -51 60 -51 110
-1 44 -31 160 -46 175 -14 14 -15 6 -9 -86z"/>
<path d="M7977 944 c22 -49 25 -66 21 -138 -3 -57 -11 -94 -26 -123 -25 -49
-28 -73 -8 -73 33 0 82 153 72 223 -8 50 -60 167 -75 167 -5 0 2 -25 16 -56z"/>
<path d="M9424 986 c-9 -23 4 -208 15 -219 13 -13 25 114 17 171 -7 53 -22 75
-32 48z"/>
<path d="M7196 959 c-3 -17 -6 -59 -7 -93 l-1 -61 -14 64 c-8 36 -16 66 -18
69 -11 10 -25 -12 -46 -70 -39 -111 -72 -188 -81 -188 -5 0 -10 53 -11 118 -3
110 -4 117 -24 120 -27 4 -74 -44 -74 -76 l0 -25 24 22 c14 13 29 20 35 16 7
-4 11 -50 11 -120 0 -62 3 -120 6 -129 9 -24 33 -19 40 9 3 13 13 30 21 37 12
10 17 9 24 -5 9 -15 13 -15 37 -3 15 7 42 17 59 21 57 12 131 116 105 148 -6
6 -15 39 -21 71 -11 58 -33 106 -50 106 -5 0 -11 -14 -15 -31z m-83 -214 c4
-8 2 -17 -3 -20 -6 -4 -10 3 -10 14 0 25 6 27 13 6z m77 -35 c0 -5 -5 -10 -11
-10 -5 0 -7 5 -4 10 3 6 8 10 11 10 2 0 4 -4 4 -10z m-90 -20 c0 -5 -4 -10
-10 -10 -5 0 -10 5 -10 10 0 6 5 10 10 10 6 0 10 -4 10 -10z"/>
<path d="M6505 950 c-16 -11 -42 -20 -57 -20 -55 0 -142 -118 -174 -237 -16
-58 -16 -65 -1 -76 8 -6 17 -23 19 -37 4 -32 37 -40 45 -11 5 20 23 30 23 13
0 -5 7 -17 16 -28 14 -18 15 -15 10 38 -4 32 -13 79 -22 105 -21 61 -8 105 47
164 35 38 40 40 34 19 -3 -14 -11 -55 -17 -93 -10 -58 -9 -72 5 -102 21 -43
64 -66 141 -73 l61 -5 -42 46 c-37 40 -43 53 -43 92 0 50 -18 60 -44 24 -15
-23 -12 -43 11 -71 32 -36 -20 -53 -52 -18 -40 44 -16 155 50 236 49 59 45 71
-10 34z"/>
<path d="M6841 935 c-17 -20 -42 -57 -55 -83 -14 -27 -32 -55 -42 -62 -15 -14
-16 -12 -11 20 3 19 11 54 18 77 13 42 7 65 -11 47 -27 -27 -58 -259 -38 -280
14 -13 41 21 74 95 38 81 74 144 80 138 3 -2 -3 -32 -11 -65 -9 -34 -15 -83
-13 -109 3 -43 4 -46 15 -27 12 21 63 240 63 270 0 26 -38 14 -69 -21z"/>
<path d="M9632 867 c-6 -7 -16 -35 -22 -62 -6 -28 -13 -58 -16 -67 -12 -39 16
-15 40 35 l25 52 1 -35 c0 -19 -11 -57 -24 -85 -24 -48 -21 -63 8 -52 8 3 27
32 42 64 l29 58 5 -80 5 -80 32 -3 c25 -2 40 5 71 32 l39 36 -14 -52 c-19 -74
-12 -88 42 -88 40 0 45 -3 51 -27 10 -44 14 -45 38 -16 43 53 49 72 42 149
-10 111 23 111 43 0 6 -33 13 -61 15 -64 5 -4 36 64 36 79 0 5 3 9 8 9 4 0 5
-35 1 -77 -4 -43 -3 -82 1 -86 4 -5 16 3 28 17 15 19 22 50 28 123 11 127 8
142 -26 177 -30 31 -50 28 -50 -8 0 -26 -17 -46 -40 -46 -20 0 -55 37 -64 67
-8 24 -33 49 -42 40 -3 -3 1 -50 10 -105 18 -112 21 -212 6 -212 -5 0 -12 12
-16 28 -3 15 -7 33 -10 40 -6 21 -30 13 -42 -13 -20 -43 -29 -28 -34 53 -7
117 -46 182 -108 182 -21 0 -43 7 -50 15 -15 18 -74 20 -88 2z m158 -152 c0
-50 -4 -85 -10 -85 -6 0 -10 35 -10 85 0 50 4 85 10 85 6 0 10 -35 10 -85z"/>
<path d="M5812 836 c-44 -96 -35 -256 12 -217 11 9 14 -2 19 -54 5 -67 11 -84
25 -71 11 12 6 229 -8 301 -13 68 -29 82 -48 41z"/>
<path d="M6032 840 c-65 -40 -119 -162 -102 -231 21 -90 42 -87 34 4 -4 40 -1
73 7 92 12 30 12 29 21 -35 16 -118 88 -219 80 -111 -4 55 13 52 46 -7 28 -50
46 -53 61 -12 12 37 16 37 45 3 13 -15 28 -23 34 -19 20 12 13 44 -15 64 -22
16 -27 29 -31 76 -4 53 -14 71 -25 44 -3 -8 -6 -6 -6 5 -1 10 11 45 25 78 14
34 22 64 19 68 -4 3 -11 -2 -16 -12 -6 -9 -19 -17 -31 -17 -35 0 -95 -72 -114
-137 -27 -95 -33 -104 -33 -53 -1 42 9 90 37 177 13 41 4 47 -36 23z"/>
<path d="M8582 830 c0 -14 2 -19 5 -12 2 6 2 18 0 25 -3 6 -5 1 -5 -13z"/>
<path d="M347 759 c-8 -13 -31 -54 -51 -91 -51 -94 -66 -91 -66 17 0 69 -3 85
-15 85 -15 0 -32 -24 -96 -132 -47 -82 -62 -77 -53 16 7 81 -5 126 -24 90 -36
-68 -52 -403 -23 -472 23 -54 45 -38 52 36 7 69 23 97 40 72 6 -9 8 -50 6 -98
-3 -46 -3 -81 -1 -79 2 2 15 42 29 88 18 58 24 95 19 121 -5 35 -2 41 52 99
32 33 60 56 62 51 1 -5 -15 -53 -37 -108 -53 -133 -72 -254 -40 -254 5 0 11
12 15 27 20 92 35 144 54 188 29 68 40 46 40 -82 0 -60 4 -103 10 -103 5 0 17
26 25 58 31 113 50 164 60 160 6 -1 9 -12 7 -23 -1 -11 -5 -65 -9 -119 l-6
-99 24 5 c13 3 31 9 40 12 12 5 20 -3 33 -34 9 -22 16 -47 16 -56 0 -8 5 -12
10 -9 14 9 12 105 -3 135 -11 22 -18 25 -54 22 l-40 -3 13 52 c15 56 19 199 7
199 -5 0 -19 -9 -33 -20 -14 -11 -28 -20 -32 -20 -14 0 -8 30 12 70 20 39 27
80 13 80 -4 0 -18 -10 -31 -22 l-25 -23 6 25 c3 14 11 51 18 82 10 43 10 61 2
69 -8 8 -15 5 -26 -12z m-206 -182 c-8 -8 -11 -5 -11 9 0 27 14 41 18 19 2 -9
-1 -22 -7 -28z m-41 -79 c0 -7 -14 -33 -31 -58 -29 -41 -31 -43 -25 -15 12 52
28 85 42 85 8 0 14 -6 14 -12z m-73 -170 c-3 -7 -5 -2 -5 12 0 14 2 19 5 13 2
-7 2 -19 0 -25z"/>
<path d="M10247 753 c-10 -10 -8 -103 2 -103 13 0 21 27 21 71 0 37 -8 48 -23
32z"/>
<path d="M6607 743 c-11 -10 -8 -43 3 -43 6 0 10 11 10 25 0 26 -2 29 -13 18z"/>
<path d="M10376 719 c-9 -48 -7 -217 3 -224 24 -14 48 150 32 213 -14 50 -26
54 -35 11z"/>
<path d="M3348 653 c-48 -72 -127 -167 -135 -160 -2 3 3 32 11 65 9 33 16 65
16 71 0 19 -21 12 -56 -19 -29 -25 -38 -28 -53 -18 -14 9 -25 6 -57 -16 -21
-14 -40 -22 -42 -17 -2 5 6 40 17 76 12 37 21 69 21 71 0 12 -33 1 -57 -20
-27 -24 -27 -25 -9 -44 17 -19 17 -22 2 -44 -9 -12 -16 -39 -16 -60 0 -33 3
-38 23 -38 12 0 36 9 52 20 49 33 61 20 26 -28 -22 -32 -36 -72 -24 -72 4 1
23 21 41 46 18 24 37 42 43 38 6 -3 7 -30 3 -67 l-6 -62 44 43 c24 23 47 42
50 42 4 0 2 -15 -3 -32 -23 -80 4 -92 51 -23 29 42 164 165 182 165 14 0 9
-16 -17 -51 -66 -91 -92 -182 -62 -224 17 -23 24 -12 37 56 14 73 67 127 84
84 10 -26 21 -17 38 33 10 26 40 73 68 105 85 99 52 98 -54 -2 l-59 -56 7 58
c9 77 -10 85 -68 28 -68 -67 -76 -58 -45 51 9 35 10 51 2 59 -8 8 -23 -8 -55
-58z m-3 -133 c-3 -5 -15 -10 -26 -10 -11 0 -17 5 -14 10 3 6 15 10 26 10 11
0 17 -4 14 -10z"/>
<path d="M10474 684 c-15 -35 -33 -133 -34 -177 0 -11 5 -17 13 -15 6 3 17 33
22 68 11 71 35 95 35 36 0 -41 16 -47 30 -13 7 15 6 40 -3 77 -16 70 -40 79
-63 24z"/>
<path d="M10618 623 c-9 -54 -20 -109 -24 -123 l-7 -25 22 20 c48 42 69 117
51 183 -6 23 -14 42 -18 42 -4 0 -15 -44 -24 -97z"/>
<path d="M10576 693 c-13 -13 -6 -63 9 -63 10 0 15 10 15 29 0 30 -12 46 -24
34z"/>
<path d="M10297 683 c-3 -5 -8 -60 -11 -123 -6 -107 -5 -113 9 -83 19 41 32
198 17 207 -6 3 -13 3 -15 -1z"/>
<path d="M11112 543 c-23 -70 -38 -131 -34 -135 10 -10 24 15 52 95 12 31 25
57 30 57 10 0 20 -37 20 -78 0 -58 25 -32 28 30 3 56 -23 148 -43 155 -6 2
-29 -54 -53 -124z"/>
<path d="M10980 634 c-6 -14 -10 -42 -10 -63 0 -21 -12 -64 -26 -95 -26 -58
-27 -73 0 -63 12 5 27 39 62 137 4 12 10 10 25 -10 l20 -25 -6 50 c-7 51 -28
95 -45 95 -6 0 -15 -12 -20 -26z"/>
<path d="M1667 613 c-13 -12 -8 -171 6 -185 7 -7 19 -34 26 -60 8 -26 19 -53
27 -59 17 -14 22 20 27 174 l3 118 -23 -38 c-12 -21 -23 -44 -23 -50 0 -7 -4
-13 -9 -13 -16 0 -22 32 -15 77 6 40 -2 54 -19 36z"/>
<path d="M10853 598 c-26 -29 -115 -206 -111 -220 2 -6 26 20 53 58 67 96 68
97 62 39 l-5 -49 39 41 c43 46 48 76 24 123 -19 36 -34 38 -62 8z"/>
<path d="M11836 589 c-14 -11 -33 -34 -42 -51 -24 -45 -44 -108 -36 -108 5 0
13 15 20 33 13 35 58 85 68 75 3 -4 1 -15 -5 -26 -25 -47 -3 -163 41 -209 44
-46 54 -16 32 91 -10 48 -14 104 -11 138 7 79 -15 98 -67 57z"/>
<path d="M504 575 c-4 -15 -4 -70 -1 -122 7 -100 39 -193 78 -229 18 -16 19
-16 19 2 0 11 -16 52 -35 92 -19 40 -30 72 -25 72 6 0 10 -4 10 -9 0 -15 81
-101 96 -101 20 0 18 10 -17 60 -48 72 -78 136 -90 192 -14 65 -26 80 -35 43z"/>
<path d="M1560 581 c-29 -56 -30 -69 -4 -100 14 -17 31 -49 37 -72 13 -44 31
-60 40 -36 3 8 -3 47 -14 88 -10 40 -19 88 -19 106 0 38 -23 45 -40 14z"/>
<path d="M11660 575 c-56 -29 -184 -57 -260 -58 -43 0 -67 6 -94 22 -47 29
-46 12 1 -29 l37 -33 90 6 c97 5 185 34 258 82 63 42 43 48 -32 10z"/>
<path d="M12626 584 c-3 -8 1 -37 10 -63 13 -39 14 -63 6 -127 -5 -44 -6 -83
-2 -88 12 -12 73 28 104 69 48 63 72 174 46 215 -7 11 -11 9 -19 -13 -6 -16
-11 -37 -11 -47 0 -11 -9 -24 -20 -30 -11 -6 -26 -25 -34 -43 l-13 -32 -7 35
c-15 72 -37 140 -45 140 -5 0 -12 -7 -15 -16z"/>
<path d="M12125 573 c-10 -28 -36 -156 -32 -160 9 -8 57 117 57 146 0 34 -14
41 -25 14z"/>
<path d="M10732 518 c-37 -66 -77 -98 -143 -112 -52 -12 -67 -29 -30 -34 80
-12 231 124 209 189 -2 7 -18 -13 -36 -43z"/>
<path d="M1984 493 l-65 -68 7 51 c8 62 -9 80 -39 43 -16 -20 -18 -34 -14 -80
6 -64 26 -114 45 -114 7 0 27 29 45 65 28 57 36 65 60 65 16 1 32 7 37 15 13
20 12 77 0 85 -6 4 -40 -24 -76 -62z"/>
<path d="M1786 528 c-22 -31 -20 -77 8 -153 29 -80 34 -85 52 -61 19 26 18 76
-2 105 -14 19 -14 29 -4 68 11 38 11 46 -1 54 -22 14 -37 11 -53 -13z"/>
<path d="M4507 539 c-13 -8 -15 -14 -7 -28 6 -12 6 -30 0 -52 -22 -74 -8 -145
43 -228 19 -31 21 -33 34 -15 7 10 13 27 13 39 0 43 32 126 61 160 21 23 43
37 72 42 33 7 43 14 45 31 4 30 -30 30 -80 -1 -47 -29 -72 -61 -110 -144 l-31
-68 -15 45 c-14 41 -14 53 2 128 20 99 15 115 -27 91z"/>
<path d="M11954 523 c-19 -76 36 -218 98 -252 34 -19 42 -12 27 25 -6 16 -11
71 -10 122 1 113 -12 117 -51 16 l-27 -69 -1 61 c0 108 -20 161 -36 97z"/>
<path d="M12412 528 c-5 -7 -20 -33 -32 -58 -13 -25 -36 -60 -52 -79 -27 -31
-30 -39 -24 -80 6 -44 29 -81 42 -69 3 4 12 40 19 80 7 40 20 88 28 107 l15
35 12 -60 c18 -87 45 -145 65 -138 9 4 14 12 11 19 -3 8 8 27 23 43 43 44 90
182 62 182 -5 0 -14 -6 -20 -14 -6 -7 -25 -16 -41 -20 -26 -5 -30 -10 -30 -40
0 -19 -4 -37 -9 -40 -11 -7 -31 47 -31 85 0 52 -17 73 -38 47z"/>
<path d="M3607 500 c-8 -19 -18 -50 -22 -68 -18 -86 27 -182 86 -182 25 0 29
4 29 28 0 69 -37 131 -53 90 -3 -7 -6 21 -6 62 -2 94 -14 119 -34 70z"/>
<path d="M1490 506 c0 -9 5 -16 10 -16 6 0 10 4 10 9 0 6 -4 13 -10 16 -5 3
-10 -1 -10 -9z"/>
<path d="M4347 481 c-26 -31 -48 -107 -46 -164 0 -26 4 -21 18 28 9 33 20 66
25 73 15 24 26 0 26 -56 0 -69 8 -62 54 44 34 81 34 82 13 87 -12 3 -31 8 -43
12 -16 5 -27 -1 -47 -24z"/>
<path d="M11660 468 c1 -67 44 -188 67 -188 27 0 25 30 -6 93 -17 35 -31 76
-31 90 0 17 -5 27 -15 27 -9 0 -15 -9 -15 -22z"/>
<path d="M3821 453 c-6 -15 -15 -48 -19 -73 -9 -48 -14 -41 -26 31 -6 37 -31
68 -43 55 -8 -7 44 -207 57 -220 13 -13 27 25 45 128 17 91 9 134 -14 79z"/>
<path d="M12215 443 c-22 -21 -45 -75 -45 -104 0 -12 -8 -23 -20 -26 -26 -7
-25 -23 0 -51 44 -46 55 -29 63 91 3 37 10 74 17 82 19 22 6 29 -15 8z"/>
<path d="M11422 428 c-14 -14 -16 -54 -3 -62 5 -4 12 -25 16 -49 10 -56 22
-77 46 -77 31 0 33 26 6 73 -14 23 -28 59 -32 80 -8 42 -17 51 -33 35z"/>
<path d="M11498 415 c-9 -21 -8 -29 9 -48 11 -12 25 -36 32 -54 7 -17 24 -41
37 -54 23 -21 26 -22 41 -6 19 19 23 101 5 119 -8 8 -12 1 -17 -26 -10 -51
-20 -52 -35 -3 -16 55 -38 97 -50 97 -6 0 -16 -11 -22 -25z"/>
<path d="M4706 414 c-9 -22 3 -32 14 -14 12 19 12 30 1 30 -5 0 -12 -7 -15
-16z"/>
<path d="M6884 398 c-12 -13 -31 -38 -43 -55 -27 -39 -41 -42 -41 -9 0 47 -22
38 -97 -38 -41 -42 -75 -76 -76 -76 -1 0 0 28 1 61 3 39 0 59 -6 55 -16 -10
-34 -135 -30 -216 l3 -75 56 115 c32 63 68 125 82 138 l25 24 7 -54 c4 -29 12
-64 16 -77 13 -33 33 -13 55 52 21 67 31 77 39 41 13 -56 27 -94 37 -100 5 -3
30 13 54 37 l44 43 0 -47 c0 -29 4 -47 12 -47 6 0 37 25 69 55 80 76 95 73 64
-15 -16 -47 -20 -120 -6 -120 16 0 117 89 131 115 20 37 8 39 -41 5 -43 -29
-69 -38 -69 -22 0 4 20 41 45 82 24 41 45 79 45 83 0 13 -36 -1 -111 -45 -39
-22 -73 -37 -76 -34 -4 4 3 27 16 52 12 26 19 49 16 52 -10 10 -111 -47 -150
-85 l-37 -35 4 77 c3 85 -5 100 -38 63z"/>
<path d="M11295 400 c-4 -7 -19 -10 -34 -7 -41 8 -81 -19 -81 -55 0 -14 8 -18
33 -18 18 0 39 -6 46 -12 10 -11 15 -10 25 5 19 25 25 22 46 -28 20 -47 28
-53 48 -33 18 18 14 53 -8 73 -11 10 -24 32 -28 49 -8 32 -35 46 -47 26z"/>
<path d="M1516 375 c-6 -18 13 -29 41 -23 28 5 22 33 -8 36 -17 2 -29 -3 -33
-13z"/>
<path d="M9366 372 c-3 -5 -20 -50 -37 -98 -17 -49 -40 -106 -50 -126 -37 -73
-17 -78 48 -13 37 36 44 49 39 70 -3 13 1 54 10 90 12 45 13 70 7 76 -7 7 -13
7 -17 1z"/>
<path d="M9445 330 c-4 -6 -4 -31 -1 -54 5 -32 1 -57 -14 -95 -20 -53 -26
-101 -12 -101 4 0 17 7 30 15 18 13 20 19 10 34 -9 15 -7 29 11 71 26 61 26
133 -1 138 -9 2 -19 -2 -23 -8z"/>
<path d="M9599 320 c-32 -50 -79 -150 -70 -150 12 0 58 54 77 92 8 16 14 41
12 56 l-3 26 -16 -24z"/>
<path d="M8899 303 c-1 -5 -2 -42 -3 -83 -1 -41 -5 -88 -9 -105 l-8 -30 20 24
c12 13 21 31 21 41 0 10 5 31 10 46 18 47 35 12 35 -73 0 -48 4 -78 11 -80 31
-10 33 137 3 187 -36 60 -76 96 -80 73z"/>
<path d="M6340 254 c-22 -20 -40 -41 -40 -47 0 -6 13 2 29 17 40 38 72 33 84
-14 18 -72 38 -118 62 -140 43 -40 41 0 -5 102 -62 137 -66 140 -130 82z"/>
<path d="M9121 260 c-6 -18 -14 -70 -17 -115 -9 -110 2 -115 77 -35 64 66 83
96 94 148 11 54 -12 37 -43 -30 -28 -60 -76 -118 -88 -106 -3 4 -1 23 5 45 15
51 14 85 -2 108 -13 17 -15 16 -26 -15z"/>
<path d="M8675 261 c4 -13 -1 -24 -17 -36 l-23 -16 24 -20 c13 -10 32 -19 43
-19 16 0 19 5 14 24 -14 56 34 35 59 -26 17 -44 42 -78 57 -78 12 0 10 91 -3
131 -16 47 -33 63 -24 22 3 -17 2 -34 -3 -37 -5 -3 -30 13 -56 34 -53 44 -81
52 -71 21z"/>
<path d="M9651 232 c-11 -21 -40 -61 -66 -90 -26 -29 -44 -52 -40 -52 23 0
155 143 155 167 0 27 -30 12 -49 -25z"/>
<path d="M4061 234 c0 -11 3 -14 6 -6 3 7 2 16 -1 19 -3 4 -6 -2 -5 -13z"/>
<path d="M8557 243 c-14 -13 -6 -43 14 -54 28 -14 44 1 35 35 -6 25 -33 35
-49 19z"/>
<path d="M6513 215 c-3 -9 -3 -18 0 -21 9 -9 27 6 27 22 0 19 -19 18 -27 -1z"/>
<path d="M9813 144 c-18 -14 -33 -30 -33 -35 0 -15 41 0 68 24 45 42 16 51
-35 11z"/>
<path d="M7392 150 c-12 -5 -25 -16 -28 -25 -8 -21 4 -65 17 -65 18 0 91 78
84 90 -7 12 -42 12 -73 0z"/>
<path d="M8501 151 c-18 -12 -7 -41 16 -41 10 0 27 7 38 16 17 13 18 16 5 24
-19 12 -41 12 -59 1z"/>
<path d="M9635 100 c-3 -5 1 -10 10 -10 9 0 13 5 10 10 -3 6 -8 10 -10 10 -2
0 -7 -4 -10 -10z"/>
</g>
</svg>
