<?xml version="1.0" standalone="no"?>
<!DOCTYPE svg PUBLIC "-//W3C//DTD SVG 20010904//EN"
 "http://www.w3.org/TR/2001/REC-SVG-20010904/DTD/svg10.dtd">
<svg version="1.0" xmlns="http://www.w3.org/2000/svg"
 width="1280.000000pt" height="1137.000000pt" viewBox="0 0 1280.000000 1137.000000"
 preserveAspectRatio="xMidYMid meet">
<metadata>
Created by potrace 1.15, written by Peter Selinger 2001-2017
</metadata>
<g transform="translate(0.000000,1137.000000) scale(0.100000,-0.100000)"
fill="#000000" stroke="none">
<path d="M5758 10859 c-27 -15 -39 -45 -29 -71 6 -16 1 -41 -17 -88 -36 -95
-52 -166 -52 -242 l0 -68 -82 -54 c-60 -39 -117 -91 -203 -184 -66 -72 -133
-136 -150 -143 -44 -18 -545 -25 -695 -9 -63 7 -128 19 -145 26 -37 18 -91
114 -140 251 -38 105 -115 262 -171 351 -53 82 -125 147 -189 171 -89 34 -154
24 -221 -32 -21 -18 -51 -38 -65 -44 -14 -6 -44 -39 -67 -72 -62 -93 -105
-220 -132 -391 -18 -114 -55 -139 -161 -110 -125 35 -272 29 -357 -14 -35 -18
-78 -27 -160 -35 -241 -24 -398 -60 -597 -137 -235 -91 -399 -178 -516 -275
-32 -27 -67 -49 -79 -49 -11 0 -60 -20 -109 -45 -78 -39 -98 -55 -165 -132
-116 -131 -182 -261 -301 -588 -18 -49 -53 -134 -78 -187 -45 -96 -88 -249
-122 -432 -24 -127 -28 -671 -5 -671 11 0 16 -14 18 -52 3 -55 13 -66 31 -35
8 13 11 14 11 2 1 -12 3 -12 14 2 7 10 16 15 19 11 4 -3 7 7 7 23 0 20 3 25 9
15 7 -11 11 -10 19 5 10 18 11 18 18 1 7 -19 -2 -642 -11 -717 -3 -25 -12
-133 -21 -240 -17 -214 -54 -529 -109 -915 -19 -137 -35 -254 -34 -260 0 -5 7
8 15 30 l14 40 -5 -47 c-2 -26 -2 -61 2 -78 6 -30 6 -31 24 -11 10 10 21 42
25 70 4 29 8 50 10 48 2 -2 9 -39 15 -82 6 -43 17 -88 26 -101 l15 -24 22 33
c12 17 31 51 41 74 23 50 41 55 50 14 3 -16 13 -35 21 -42 8 -6 14 -20 14 -31
0 -25 33 -89 58 -111 17 -16 24 -17 43 -7 20 11 21 10 14 -6 -40 -93 -40 -91
1 -281 25 -117 40 -211 42 -275 l3 -96 -51 -11 c-98 -21 -128 -64 -90 -128 17
-28 19 -41 11 -67 -29 -94 -33 -141 -17 -180 15 -36 15 -43 -1 -92 -9 -31 -23
-54 -33 -57 -10 -2 -34 -30 -55 -61 -33 -49 -37 -62 -31 -96 7 -44 -9 -90 -32
-90 -8 0 -27 -14 -43 -31 -37 -39 -38 -85 -5 -195 23 -79 23 -79 5 -129 -53
-145 -91 -302 -94 -395 -3 -64 -1 -84 4 -60 l8 35 2 -47 c1 -55 25 -183 40
-218 10 -23 11 -22 8 13 -4 45 10 49 25 6 6 -16 13 -28 15 -25 3 3 -2 19 -11
37 -9 18 -16 41 -16 51 0 30 36 4 51 -37 17 -46 41 -48 28 -3 -11 41 -11 48 2
26 5 -10 12 -31 14 -48 2 -17 19 -46 37 -65 18 -20 34 -47 35 -60 1 -14 9 -35
19 -47 11 -15 14 -17 10 -5 -17 48 -18 52 -5 32 7 -11 30 -70 51 -131 35 -103
37 -115 28 -170 -9 -57 -9 -61 22 -105 64 -94 181 -124 461 -117 151 3 165 5
207 28 27 15 53 40 65 62 19 36 19 37 1 90 -11 29 -41 105 -68 168 -30 71 -47
123 -44 136 4 16 -6 34 -35 68 -42 47 -47 76 -8 40 12 -10 24 -17 27 -14 3 3
11 -11 18 -30 7 -19 13 -27 13 -18 1 9 -22 63 -49 120 -28 57 -53 120 -57 140
-5 35 -4 38 17 38 44 0 89 23 100 51 13 31 7 61 -23 102 -13 20 -24 62 -33
135 -19 152 -18 182 7 208 19 20 20 27 10 55 -6 18 -11 40 -11 50 0 10 -5 30
-12 46 -13 34 -11 124 7 256 12 87 16 100 43 122 18 15 32 38 36 60 3 19 9 51
12 70 4 25 1 43 -14 67 l-19 33 27 105 c38 149 85 256 121 277 23 13 29 24 27
43 -3 23 -6 25 -56 24 -39 -1 -52 1 -48 11 31 83 76 277 76 333 0 44 39 182
51 182 5 0 9 -8 9 -19 0 -10 7 -24 15 -31 8 -7 15 -21 15 -30 0 -38 39 -110
65 -120 14 -5 28 -17 31 -25 8 -21 27 -19 49 5 10 11 24 20 32 20 7 0 13 9 13
19 0 11 9 21 24 25 13 3 26 15 29 27 8 30 38 20 50 -16 5 -16 17 -39 27 -50
10 -11 20 -37 23 -57 4 -24 18 -50 40 -73 36 -37 67 -44 86 -21 8 10 23 13 47
9 33 -5 47 8 24 22 -14 9 -2 25 14 19 7 -3 17 3 21 13 5 14 43 259 45 298 0 6
18 -35 39 -90 21 -55 61 -139 88 -186 62 -110 104 -236 82 -250 -7 -5 -23 -9
-34 -9 -57 0 -85 -64 -37 -85 30 -13 36 -36 33 -122 -3 -68 -2 -72 21 -75 21
-3 23 -8 26 -71 4 -94 -13 -209 -33 -223 -9 -7 -23 -38 -31 -70 -14 -50 -14
-58 -1 -66 12 -6 13 -16 6 -45 -5 -21 -9 -56 -9 -77 0 -26 -7 -47 -21 -62 -31
-33 -17 -64 58 -125 l65 -53 -6 -65 c-8 -77 -40 -231 -65 -316 -24 -78 -36
-191 -22 -200 6 -3 11 -1 11 5 0 7 8 9 20 5 15 -5 20 -2 20 13 0 11 7 35 15
53 l16 34 -7 -43 c-8 -57 10 -82 37 -51 19 22 19 21 19 -58 0 -44 3 -95 7
-113 5 -27 3 -32 -8 -25 -9 6 -8 2 3 -11 21 -24 48 -155 48 -230 0 -40 6 -67
21 -91 44 -71 300 -214 454 -254 44 -11 117 -21 162 -22 77 -2 83 -1 112 27
56 54 57 63 3 251 -45 157 -47 172 -33 191 13 18 18 19 29 7 7 -7 16 -13 19
-13 3 0 2 35 -1 78 -7 77 0 166 28 357 14 97 9 266 -9 295 -4 6 11 10 42 10
94 0 126 27 79 65 -18 15 -29 39 -41 95 -10 41 -37 114 -62 162 -25 48 -42 92
-38 98 4 6 -2 30 -13 53 -11 23 -22 50 -26 60 -3 11 -14 21 -25 24 -22 5 -50
102 -76 257 -15 89 -15 100 -1 115 11 12 16 37 16 79 0 57 -2 62 -27 74 -26
12 -29 19 -36 93 -5 44 -6 138 -2 209 5 114 8 136 32 182 22 45 25 57 15 78
-6 13 -21 26 -34 28 -19 2 -23 9 -21 33 19 333 36 407 97 419 24 5 28 9 16 16
-12 7 -10 13 13 34 15 14 27 32 27 40 0 26 20 28 30 4 35 -80 67 -120 104
-133 39 -14 40 -14 78 24 21 21 38 44 38 50 0 6 7 11 15 11 11 0 40 32 49 56
1 1 11 5 24 8 16 6 22 3 22 -8 0 -9 9 -21 21 -28 11 -7 27 -28 34 -46 8 -17
21 -32 29 -32 9 0 16 -3 16 -7 0 -5 11 -13 24 -19 20 -9 33 -8 65 7 24 10 41
25 41 34 0 10 7 15 18 14 9 -2 28 1 41 5 18 6 20 10 10 16 -10 7 -7 14 14 34
15 14 27 34 27 46 0 28 14 25 28 -5 11 -24 16 -27 52 -29 8 -1 17 -15 20 -32
8 -38 19 -56 30 -49 5 3 20 0 34 -6 22 -11 29 -8 73 30 26 24 50 52 53 62 3
11 8 19 11 17 4 -2 23 17 44 42 30 36 46 46 79 52 57 9 74 2 81 -35 10 -44 15
-50 31 -36 9 7 14 8 14 1 0 -11 53 -9 82 3 9 3 43 -3 76 -15 33 -12 117 -34
188 -49 l129 -27 16 -144 c19 -161 25 -190 75 -335 31 -89 34 -105 25 -142
-29 -113 -4 -169 90 -205 56 -21 64 -27 70 -57 4 -18 16 -42 28 -55 11 -12 21
-26 21 -31 0 -16 53 -65 70 -65 18 0 46 -28 114 -117 39 -51 46 -65 37 -81 -7
-14 -6 -34 6 -73 22 -76 26 -82 61 -98 38 -18 40 -33 7 -55 -31 -20 -32 -54
-4 -90 26 -33 89 -66 127 -66 25 0 30 -6 46 -54 11 -30 27 -67 36 -82 18 -26
18 -27 -17 -57 -42 -37 -44 -80 -3 -85 30 -4 59 -38 60 -70 0 -13 5 -32 11
-43 5 -11 12 -32 14 -47 1 -15 3 -30 4 -34 0 -5 12 -8 26 -8 26 0 25 3 59
-135 26 -108 30 -145 13 -145 -19 0 -23 -13 -26 -83 -2 -55 -1 -57 23 -57 26
0 26 0 26 -89 0 -79 -2 -90 -19 -96 -50 -16 -28 -67 39 -91 90 -33 130 -56
159 -92 26 -34 29 -47 41 -177 7 -79 24 -188 39 -250 30 -117 138 -388 152
-379 5 3 9 2 10 -3 3 -30 10 -48 24 -62 15 -15 16 -14 10 12 -9 33 1 34 33 5
14 -13 22 -17 17 -9 -4 7 -2 16 4 21 9 5 8 11 -4 24 -10 9 -15 19 -12 22 7 7
57 -7 57 -16 0 -4 7 -10 15 -13 11 -5 13 0 8 26 -5 31 -5 31 11 12 13 -16 17
-17 25 -6 7 11 10 9 16 -8 3 -11 11 -21 16 -21 5 0 9 -28 7 -62 -1 -35 2 -101
6 -148 11 -117 32 -147 128 -182 154 -57 322 -77 513 -59 149 14 179 24 195
60 10 26 4 42 -79 210 -50 99 -91 193 -91 208 0 14 -16 50 -36 79 -41 59 -43
92 -4 50 36 -37 40 -32 20 22 -10 26 -26 99 -35 162 -27 185 -56 276 -135 426
-40 75 -69 138 -66 142 4 3 28 13 54 21 44 15 47 18 47 51 0 27 -5 35 -22 40
-14 3 -56 49 -105 115 -46 61 -98 129 -117 152 -29 36 -32 45 -21 58 10 12 10
19 2 27 -23 23 -12 28 56 28 170 1 298 57 381 169 28 37 51 74 51 80 0 7 22
11 61 11 54 0 64 3 90 30 28 27 30 35 28 92 -1 35 3 94 10 133 6 38 9 89 5
112 -3 24 -2 49 4 56 15 19 21 133 9 172 -14 48 36 229 69 244 30 13 94 112
94 144 0 26 40 67 65 67 7 0 25 14 40 32 23 27 26 38 21 74 -3 23 -14 57 -24
75 -18 31 -19 45 -11 158 l8 124 -68 136 -69 136 20 40 c42 81 16 164 -47 150
-59 -14 -110 -8 -162 18 -28 15 -54 35 -57 45 -4 11 -18 24 -32 30 l-25 12 52
77 c29 43 81 112 117 153 35 41 72 91 82 110 10 19 27 40 38 47 10 6 36 36 56
67 20 31 45 56 54 57 51 2 114 59 135 122 1 4 27 -3 57 -16 30 -14 81 -30 113
-37 109 -25 205 -96 382 -282 88 -93 163 -175 168 -184 5 -8 13 -76 18 -150 9
-138 27 -211 74 -303 14 -29 21 -57 18 -73 -8 -41 55 -167 87 -174 14 -3 32
-8 41 -10 9 -3 23 -19 30 -36 7 -17 34 -66 60 -110 26 -43 50 -97 54 -121 4
-23 16 -73 26 -112 24 -88 24 -102 -2 -110 -34 -11 -87 -64 -98 -98 -10 -28
-21 -36 -88 -62 -53 -21 -79 -37 -81 -49 -8 -39 41 -41 126 -5 43 19 44 18 72
-2 27 -21 28 -22 14 -55 -8 -18 -14 -61 -14 -94 0 -89 67 -230 147 -307 32
-31 72 -62 90 -69 85 -36 311 -25 387 19 22 14 59 30 81 37 22 7 58 23 81 36
47 28 54 29 54 10 0 -26 48 -66 80 -66 69 0 124 54 185 181 27 57 35 86 35
129 0 84 16 166 60 307 22 70 52 171 66 223 23 86 130 373 190 508 25 57 115
200 126 201 4 1 8 -13 10 -30 3 -36 5 -37 109 -79 41 -17 135 -64 208 -106 73
-41 135 -74 136 -72 2 2 -54 53 -123 113 -69 61 -147 138 -174 172 -54 69 -63
74 -97 61 -13 -5 -25 -7 -27 -5 -2 2 9 28 26 58 16 31 41 86 55 124 36 95 44
108 58 96 7 -5 50 -15 97 -21 46 -6 155 -33 242 -59 87 -27 158 -47 158 -46 0
2 -65 40 -144 84 -80 45 -174 105 -210 133 l-64 51 41 60 c24 34 37 62 31 64
-6 2 -20 10 -30 17 -18 14 -18 16 10 73 25 51 35 61 85 85 31 15 72 30 91 33
71 13 166 47 190 70 16 14 77 39 162 66 76 23 136 44 134 46 -2 2 -75 -3 -162
-11 -231 -22 -267 -22 -364 7 -47 13 -105 28 -130 32 -47 7 -110 40 -110 56 0
6 -11 21 -25 35 -14 14 -32 39 -41 57 -28 55 -114 170 -171 228 -30 31 -53 62
-51 70 3 15 -2 15 -117 8 l-60 -4 3 52 c4 66 -9 90 -62 113 -40 17 -88 66
-114 116 -12 24 -7 34 18 34 9 0 25 6 35 14 18 13 19 16 4 33 -11 11 -19 47
-23 98 -4 44 -24 148 -46 230 -21 83 -43 196 -49 253 -14 130 -14 312 -1 312
16 0 12 40 -4 46 -12 4 -114 -32 -203 -72 -16 -8 -85 133 -119 241 -39 125
-82 357 -71 376 13 21 2 49 -18 49 -9 0 -30 -7 -48 -16 -32 -16 -190 -123
-256 -173 -31 -23 -34 -24 -27 -6 4 11 13 48 19 81 9 54 8 65 -6 88 -11 17
-27 26 -43 26 -36 0 -303 183 -389 267 -53 52 -101 117 -199 271 -70 111 -133
220 -138 242 -13 52 -49 90 -84 90 -41 0 -110 -77 -174 -197 -47 -87 -58 -101
-75 -96 -100 29 -437 344 -527 492 -26 42 -49 66 -73 78 -34 16 -37 16 -71 -2
-50 -27 -105 -145 -146 -310 -18 -71 -32 -131 -33 -132 -2 -3 -203 74 -355
137 -69 28 -177 64 -240 80 -106 27 -118 32 -154 71 -47 50 -89 69 -155 69
-27 0 -102 14 -166 30 -127 33 -199 37 -260 15 -59 -21 -81 -19 -103 13 -26
36 -40 128 -46 297 -3 77 -10 158 -17 179 -16 56 -56 112 -98 137 -47 29 -151
32 -198 6 -29 -15 -33 -15 -47 -1 -19 18 -42 97 -51 172 l-6 52 30 0 c36 0 83
17 93 33 29 45 -39 131 -128 161 -53 18 -140 21 -166 5z m2492 -4684 c-15 -39
-23 -25 -8 16 6 18 13 29 15 23 2 -6 -1 -24 -7 -39z m-5582 -770 c-33 -149
-45 -148 -27 2 12 102 13 106 24 73 8 -23 9 -48 3 -75z m4148 -424 c108 -42
129 -47 304 -66 76 -8 82 -13 69 -56 -7 -18 -16 -42 -20 -51 -15 -30 -10 -66
13 -88 17 -16 19 -23 10 -32 -7 -7 -12 -23 -11 -38 l1 -25 7 25 c8 29 34 34
39 7 2 -10 -3 -29 -12 -42 -9 -13 -16 -30 -16 -36 0 -19 -31 -49 -51 -49 -26
0 -58 -52 -72 -115 -10 -49 -9 -63 12 -132 13 -43 25 -85 28 -94 3 -11 -14
-29 -54 -56 -68 -47 -153 -93 -169 -93 -7 0 -15 16 -18 35 -7 33 -3 38 50 88
48 44 57 59 57 87 0 39 -31 70 -72 70 -18 0 -39 12 -63 38 -45 47 -61 78 -60
115 1 29 -49 132 -74 153 -12 10 -44 212 -44 278 0 31 30 116 41 116 3 0 50
-17 105 -39z m427 -88 c-7 -2 -19 -2 -25 0 -7 3 -2 5 12 5 14 0 19 -2 13 -5z
m-14 -36 c13 -16 5 -27 -21 -27 -18 0 -25 20 -11 33 10 10 19 8 32 -6z m65 -8
c-3 -5 -10 -7 -15 -3 -5 3 -7 10 -3 15 3 5 10 7 15 3 5 -3 7 -10 3 -15z m36
11 c0 -5 -4 -10 -10 -10 -5 0 -10 5 -10 10 0 6 5 10 10 10 6 0 10 -4 10 -10z
m-24 -57 c-10 -10 -19 5 -10 18 6 11 8 11 12 0 2 -7 1 -15 -2 -18z m74 23 c0
-8 -31 -36 -41 -36 -5 0 -9 7 -9 16 0 10 6 14 15 10 8 -3 15 -1 15 4 0 6 5 10
10 10 6 0 10 -2 10 -4z m-100 -31 c0 -8 -7 -15 -15 -15 -8 0 -15 7 -15 15 0 8
7 15 15 15 8 0 15 -7 15 -15z m110 -20 c-6 -7 -19 -11 -27 -8 -11 4 -14 3 -9
-6 5 -7 16 -9 29 -5 21 7 21 5 -4 -27 -17 -21 -39 -36 -60 -41 -42 -8 -51 -2
-15 11 25 10 36 31 16 31 -5 0 -10 9 -10 21 0 15 5 19 15 15 8 -3 15 -1 15 4
0 13 54 40 58 29 2 -5 -1 -16 -8 -24z m-181 12 c8 -10 7 -18 -3 -32 -15 -21
-36 -13 -36 14 0 31 20 40 39 18z m87 -43 c-3 -9 -6 -20 -6 -25 0 -5 -6 -8
-12 -6 -7 1 -12 -5 -10 -13 3 -12 1 -13 -9 -2 -7 6 -22 12 -32 12 -15 0 -17 3
-8 13 6 8 8 17 4 21 -4 4 5 2 20 -3 36 -14 37 -14 37 4 0 8 5 15 11 15 6 0 8
-7 5 -16z m-26 -73 c0 -5 -7 -12 -16 -15 -14 -5 -15 -4 -4 9 14 17 20 19 20 6z
m-186 -735 c-3 -9 -10 -16 -15 -16 -5 0 -4 9 3 20 14 22 21 20 12 -4z m-44
-17 c0 -15 -18 -19 -23 -6 -3 8 1 14 9 14 8 0 14 -4 14 -8z m5 -49 c-10 -11
-21 -17 -24 -14 -3 3 3 12 13 20 28 20 32 17 11 -6z m-6288 -812 c-3 -8 -6 -5
-6 6 -1 11 2 17 5 13 3 -3 4 -12 1 -19z m2060 -10 c-3 -8 -6 -5 -6 6 -1 11 2
17 5 13 3 -3 4 -12 1 -19z m170 -170 c-3 -8 -6 -5 -6 6 -1 11 2 17 5 13 3 -3
4 -12 1 -19z m-70 -40 c-3 -7 -5 -2 -5 12 0 14 2 19 5 13 2 -7 2 -19 0 -25z
m58 -11 c-4 -13 -7 -31 -9 -40 -1 -9 -6 -20 -10 -24 -8 -8 2 64 11 80 9 15 13
6 8 -16z m53 -44 c-14 -33 -29 -55 -35 -50 -6 7 27 77 37 77 6 0 5 -11 -2 -27z
m3982 -897 c0 -5 -7 -1 -15 10 -8 10 -14 24 -14 29 0 6 6 1 14 -9 8 -11 15
-24 15 -30z"/>
<path d="M7021 4903 c-2 -21 11 -43 25 -43 8 0 14 5 14 10 0 6 -6 10 -14 10
-8 0 -17 8 -19 18 -3 9 -5 12 -6 5z"/>
<path d="M840 2760 c6 -11 13 -20 16 -20 2 0 0 9 -6 20 -6 11 -13 20 -16 20
-2 0 0 -9 6 -20z"/>
<path d="M855 2670 c3 -5 8 -10 11 -10 2 0 4 5 4 10 0 6 -5 10 -11 10 -5 0 -7
-4 -4 -10z"/>
</g>
</svg>
