<?xml version="1.0" standalone="no"?>
<!DOCTYPE svg PUBLIC "-//W3C//DTD SVG 20010904//EN"
 "http://www.w3.org/TR/2001/REC-SVG-20010904/DTD/svg10.dtd">
<svg version="1.0" xmlns="http://www.w3.org/2000/svg"
 width="1280.000000pt" height="960.000000pt" viewBox="0 0 1280.000000 960.000000"
 preserveAspectRatio="xMidYMid meet">
<metadata>
Created by potrace 1.15, written by Peter Selinger 2001-2017
</metadata>
<g transform="translate(0.000000,960.000000) scale(0.100000,-0.100000)"
fill="#000000" stroke="none">
<path d="M4898 9181 c-5 -151 -8 -375 -8 -498 0 -160 -3 -229 -12 -243 -10
-15 -10 -24 -1 -39 25 -39 -98 -800 -186 -1151 -41 -167 -93 -332 -101 -323
-8 8 -50 224 -55 278 -2 17 -4 86 -5 155 -1 69 -3 121 -5 115 -3 -5 -9 -89
-14 -185 -15 -262 -78 -532 -157 -678 -39 -72 -42 -88 -14 -97 17 -6 20 -15
20 -76 0 -42 4 -69 11 -69 7 0 10 -108 8 -340 -1 -296 1 -343 14 -362 63 -90
80 -113 93 -125 14 -14 16 -21 18 -53 1 -21 51 -20 51 1 0 16 24 57 47 80 8 8
19 23 26 34 9 16 11 -3 12 -93 l0 -113 -72 0 c-133 0 -125 3 -133 -59 -4 -30
-6 -64 -6 -75 0 -11 1 -30 1 -42 0 -26 9 -32 75 -55 57 -20 98 -60 93 -92 -2
-14 -191 -203 -498 -500 l-495 -477 -3 146 c-2 142 -2 146 22 178 23 29 26 44
28 137 l3 104 32 8 c61 16 59 32 -21 189 -109 216 -185 468 -256 848 -43 232
-59 394 -62 646 -1 145 -2 135 -10 -110 -5 -148 -9 -284 -9 -301 1 -18 -15
-128 -34 -245 -62 -377 -132 -624 -237 -841 -78 -161 -78 -170 -14 -186 l31
-8 5 -105 c4 -90 8 -109 30 -139 l25 -35 -1 -1160 c-1 -743 -5 -1194 -12
-1255 -7 -60 -23 -128 -43 -185 l-33 -90 -1 -210 c0 -115 -7 -267 -14 -336
-12 -106 -12 -139 -1 -204 21 -121 62 -156 236 -201 101 -25 338 -50 380 -40
22 6 25 11 19 33 -9 37 30 91 70 95 21 2 29 7 25 18 -2 8 -6 56 -8 107 l-3 92
33 6 c18 3 58 5 88 3 l55 -3 -5 -55 c-2 -30 -4 -77 -5 -104 0 -49 1 -50 61
-97 l61 -48 351 -3 351 -3 -1 -39 c0 -22 5 -42 13 -47 8 -5 73 -9 145 -9 105
0 133 -3 137 -14 3 -8 34 -34 69 -58 l63 -43 122 -3 123 -4 -6 -41 c-4 -23
-10 -61 -14 -84 -4 -23 -5 -54 -2 -68 4 -24 8 -25 68 -25 l64 0 1 -52 c3 -119
2 -113 29 -110 50 6 67 5 170 -12 138 -24 499 -33 654 -17 63 7 157 21 208 31
60 13 96 16 102 10 6 -6 20 -10 32 -10 21 0 22 3 16 85 l-5 85 71 0 c66 0 71
2 74 23 3 20 -3 82 -17 164 l-6 31 119 4 119 3 71 48 c40 26 72 52 72 57 0 6
47 10 120 10 148 0 173 9 168 61 l-3 37 329 7 c181 4 342 11 357 15 16 5 53
28 83 52 61 48 62 51 48 180 l-8 66 43 7 c24 3 63 3 88 -1 l45 -6 0 -78 c0
-44 -4 -90 -9 -103 -10 -26 0 -37 37 -37 9 0 27 -14 39 -31 16 -24 19 -37 13
-55 -15 -38 11 -44 140 -33 227 19 385 66 448 132 24 26 32 47 42 113 11 69
11 103 -4 235 -11 98 -16 217 -15 329 2 175 2 175 -31 270 -32 92 -33 103 -42
320 -5 124 -10 682 -11 1240 l-2 1015 28 36 c25 34 27 42 27 137 0 68 4 102
11 102 22 0 79 33 79 45 0 7 -26 64 -59 127 -102 200 -179 469 -241 840 -33
201 -39 258 -41 418 -6 399 -11 430 -20 130 -10 -283 -7 -262 -54 -519 -67
-368 -139 -608 -251 -840 -70 -144 -73 -155 -58 -172 9 -10 29 -21 45 -24 l29
-7 0 -101 c0 -92 2 -104 25 -137 25 -36 25 -41 23 -180 l-3 -143 -330 318
c-181 175 -406 393 -499 483 l-169 164 17 34 c16 34 60 61 127 77 31 8 40 48
32 150 -5 57 -8 65 -27 65 -11 0 -25 1 -31 2 -31 7 -115 -1 -110 -11 4 -6 -2
-5 -14 3 -19 12 -21 22 -21 123 l0 110 21 -34 c11 -19 27 -40 35 -48 8 -8 15
-20 15 -26 1 -7 2 -19 3 -27 2 -21 51 -20 51 1 0 17 21 50 54 88 11 13 21 30
21 37 0 7 9 19 20 27 27 19 55 86 41 100 -15 15 -15 613 -1 622 6 3 10 35 10
70 0 54 3 66 20 75 27 15 25 29 -14 102 -46 83 -101 269 -131 438 -13 75 -23
142 -23 150 1 8 0 74 -2 145 -3 150 -16 113 -21 -60 -1 -55 -13 -158 -26 -230
-12 -71 -23 -134 -23 -140 -4 -51 -88 233 -145 485 -58 260 -93 474 -157 960
-1 8 3 24 9 36 10 16 9 25 -2 41 -12 17 -15 88 -16 379 -3 622 -13 678 -23
129 -6 -377 -11 -494 -21 -509 -10 -13 -11 -24 -3 -41 8 -17 2 -81 -21 -251
-88 -639 -181 -1046 -317 -1385 -41 -102 -74 -192 -74 -200 0 -22 30 -46 76
-62 l39 -14 6 -164 c7 -173 14 -231 30 -265 7 -13 8 -73 5 -160 -7 -175 -7
-184 0 -327 8 -169 9 -167 -76 -167 -87 0 -85 -3 -89 170 -15 576 -18 655 -19
494 -3 -268 -15 -555 -22 -547 -7 7 -54 214 -79 343 -48 253 -82 645 -69 795
3 35 0 40 -19 43 l-23 3 -1 382 c-1 210 -4 393 -8 407 -16 57 -23 -22 -22
-260 1 -147 -3 -251 -9 -260 -7 -10 -10 35 -11 145 -1 174 -11 245 -23 165 -3
-25 -7 -106 -9 -180 l-2 -135 -37 -3 c-36 -3 -38 -2 -38 27 0 17 -4 31 -10 31
-5 0 -10 -14 -10 -31 0 -29 -2 -30 -37 -27 -31 2 -38 7 -38 25 0 12 -4 25 -8
29 -4 4 -7 -7 -7 -25 0 -31 -1 -32 -37 -29 -33 3 -39 7 -44 33 l-7 30 -1 -33
c-1 -32 -2 -33 -38 -30 -33 3 -39 7 -44 33 l-7 30 -1 -33 c-1 -32 -2 -33 -38
-30 -33 3 -39 7 -44 33 l-7 30 -1 -32 c-1 -31 -3 -33 -40 -33 -37 0 -40 2 -44
33 l-4 32 -1 -33 c-2 -32 -3 -33 -39 -30 -33 3 -39 7 -44 33 l-6 30 -4 -30
c-4 -27 -8 -30 -41 -33 -37 -3 -38 -2 -39 30 l-1 33 -7 -30 c-5 -26 -11 -30
-44 -33 -36 -3 -37 -2 -38 30 l-1 33 -7 -30 c-5 -26 -11 -30 -44 -33 l-37 -3
-1 158 c-1 87 -4 169 -8 183 l-7 25 -7 -25 c-4 -14 -7 -94 -7 -177 1 -100 -3
-153 -10 -153 -7 0 -10 81 -10 244 0 158 -4 255 -11 273 l-12 28 -9 -30 c-5
-18 -7 -179 -3 -402 l7 -371 -23 -4 c-34 -5 -46 -31 -31 -71 35 -98 -26 -637
-119 -1045 -12 -52 -26 -89 -30 -85 -5 5 -12 165 -16 356 -3 191 -7 346 -8
345 -2 -2 -6 -154 -10 -338 -10 -440 -11 -459 -16 -464 -2 -3 -33 -6 -68 -7
-45 -2 -65 2 -72 12 -6 8 -7 70 -4 144 6 161 6 169 -1 339 -3 87 -2 147 5 160
16 33 23 100 27 273 l5 162 35 7 c42 8 84 39 84 63 0 10 -25 79 -56 152 -80
194 -110 283 -159 474 -66 257 -120 536 -170 885 -37 255 -43 319 -34 337 9
17 9 26 0 37 -12 14 -15 98 -34 906 -1 58 -5 -18 -9 -169z m862 -2239 c0 -4
-18 -8 -40 -7 -22 0 -40 3 -40 8 0 4 18 7 40 7 22 0 40 -4 40 -8z m90 0 c0 -4
-18 -7 -40 -7 -22 0 -40 3 -40 7 0 5 18 8 40 8 22 0 40 -3 40 -8z m90 0 c0 -4
-18 -7 -40 -7 -22 0 -40 3 -40 7 0 5 18 8 40 8 22 0 40 -3 40 -8z m90 0 c0 -4
-18 -7 -40 -7 -22 0 -40 3 -40 7 0 5 18 8 40 8 22 0 40 -3 40 -8z m90 0 c0 -4
-18 -7 -40 -7 -22 0 -40 3 -40 7 0 5 18 8 40 8 22 0 40 -3 40 -8z m90 0 c0 -4
-18 -7 -40 -7 -22 0 -40 3 -40 7 0 5 18 8 40 8 22 0 40 -3 40 -8z m90 1 c0 -5
-18 -8 -40 -8 -22 -1 -40 3 -40 7 0 4 18 8 40 8 22 0 40 -3 40 -7z m90 0 c0
-5 -18 -8 -40 -8 -22 -1 -40 3 -40 7 0 4 18 8 40 8 22 0 40 -3 40 -7z m90 0
c0 -5 -18 -8 -40 -8 -22 -1 -40 3 -40 7 0 4 18 8 40 8 22 0 40 -3 40 -7z m100
-1 c0 -4 -18 -8 -40 -7 -22 0 -40 3 -40 8 0 4 18 7 40 7 22 0 40 -4 40 -8z
m-830 -27 c18 -22 8 -50 -18 -48 -12 2 -22 -2 -22 -8 0 -8 -5 -7 -15 1 -8 7
-15 20 -15 29 0 37 46 55 70 26z m88 3 c18 -18 14 -46 -8 -58 -11 -6 -20 -7
-20 -1 0 5 -8 8 -17 7 -21 -1 -29 30 -13 49 15 18 42 19 58 3z m96 -10 c8 -13
8 -23 0 -35 -16 -25 -44 -29 -44 -6 0 14 -2 15 -9 4 -5 -8 -7 -20 -4 -28 3 -7
1 -13 -5 -13 -13 0 -13 72 1 88 14 17 47 11 61 -10z m84 10 c17 -17 15 -43 -3
-58 -13 -11 -20 -11 -40 0 -38 20 -27 70 15 70 9 0 21 -5 28 -12z m90 0 c28
-28 1 -75 -37 -63 -11 3 -23 15 -26 26 -12 38 35 65 63 37z m90 0 c32 -32 -2
-79 -43 -60 -39 18 -27 72 15 72 9 0 21 -5 28 -12z m90 0 c28 -28 1 -75 -37
-63 -11 3 -23 15 -26 26 -12 38 35 65 63 37z m86 6 c37 -14 4 -81 -33 -69 -25
8 -34 31 -21 56 11 20 27 23 54 13z m90 0 c10 -4 16 -18 16 -36 0 -23 -4 -29
-15 -24 -8 3 -15 1 -15 -4 0 -6 -4 -10 -9 -10 -12 0 -41 29 -41 40 0 11 29 40
40 40 5 0 15 -3 24 -6z m95 -3 c7 -5 15 -27 17 -50 3 -37 1 -41 -19 -41 -21 1
-21 2 -4 14 17 13 16 14 -3 19 -11 3 -20 1 -20 -4 0 -4 -7 -6 -15 -3 -18 7
-20 60 -2 67 19 8 31 8 46 -2z m-824 -73 c21 10 25 9 25 -3 0 -11 -11 -15 -40
-15 -30 0 -40 4 -40 16 0 14 3 14 15 4 12 -10 21 -10 40 -2z m55 -3 c10 -12
10 -15 -4 -15 -9 0 -16 7 -16 15 0 8 2 15 4 15 2 0 9 -7 16 -15z m60 0 c0 -9
-9 -15 -22 -15 -22 1 -23 1 -4 15 25 19 26 19 26 0z m90 0 c0 -10 -10 -15 -27
-15 l-28 0 25 14 c14 8 26 14 28 15 1 1 2 -6 2 -14z m17 -7 c-3 -8 -6 -5 -6 6
-1 11 2 17 5 13 3 -3 4 -12 1 -19z m73 7 c0 -10 -10 -15 -32 -14 -22 1 -26 3
-13 6 11 3 24 9 30 14 13 12 15 11 15 -6z m90 0 c0 -10 -11 -15 -35 -15 -19 0
-35 5 -35 10 0 6 10 8 24 4 13 -3 27 -1 30 5 10 15 16 14 16 -4z m156 -1 c8 3
14 1 14 -4 0 -6 -16 -10 -35 -10 -25 0 -35 4 -35 15 0 13 4 14 21 5 11 -7 27
-9 35 -6z m84 -7 c8 -3 0 -6 -17 -6 -23 -1 -33 4 -33 14 0 12 5 13 18 7 9 -5
24 -12 32 -15z m89 -3 c2 -2 -8 -4 -22 -4 -18 0 -27 5 -27 15 0 13 4 14 23 4
12 -6 24 -13 26 -15z m81 1 c0 -3 -9 -5 -20 -5 -11 0 -20 7 -20 15 0 13 4 14
20 5 11 -6 20 -13 20 -15z m-320 3 c0 -5 -18 -8 -40 -8 -22 0 -40 3 -40 8 0 4
18 7 40 7 22 0 40 -3 40 -7z m270 2 c0 -5 -5 -10 -11 -10 -5 0 -7 5 -4 10 3 6
8 10 11 10 2 0 4 -4 4 -10z m-720 -30 c0 -11 -46 -21 -64 -14 -29 11 -17 21
24 21 22 0 40 -3 40 -7z m36 -48 c0 -41 -3 -52 -15 -52 -14 0 -14 2 -1 10 10
6 11 10 3 10 -8 0 -13 13 -13 30 0 17 5 30 13 31 10 0 10 2 0 6 -17 6 -17 26
-1 21 8 -3 13 -25 14 -56z m54 3 c0 -48 -2 -55 -20 -55 -11 0 -20 5 -20 11 0
5 6 7 13 3 10 -6 10 -4 0 7 -18 19 -16 46 5 59 16 11 16 11 0 6 -12 -3 -18 0
-18 9 0 8 9 15 20 15 18 0 20 -7 20 -55z m28 0 c-1 -30 -4 -55 -8 -55 -4 0 -7
25 -8 55 0 30 4 55 8 55 4 0 8 -25 8 -55z m60 0 c-1 -51 -3 -55 -24 -55 -13 0
-24 4 -24 10 0 5 8 7 18 4 16 -5 16 -5 0 6 -10 6 -18 20 -18 30 0 10 8 24 18
30 16 11 16 11 0 6 -12 -3 -18 0 -18 9 0 9 10 15 24 15 22 0 24 -4 24 -55z
m19 33 c-3 -8 -6 -5 -6 6 -1 11 2 17 5 13 3 -3 4 -12 1 -19z m73 12 c0 -5 -6
-10 -12 -10 -10 0 -10 -2 0 -9 14 -8 14 -79 0 -87 -11 -7 -48 5 -48 16 0 5 8
7 18 4 16 -5 16 -5 0 6 -10 6 -18 20 -18 30 0 10 8 24 18 30 16 11 16 11 0 6
-12 -3 -18 0 -18 9 0 10 10 15 30 15 17 0 30 -4 30 -10z m90 -3 c0 -9 -11 -13
-32 -11 l-33 3 30 -7 c33 -8 48 -48 23 -63 -10 -7 -10 -9 2 -9 12 -1 11 -3 -3
-11 -19 -11 -57 -3 -57 11 0 5 8 7 18 3 16 -5 16 -5 0 8 -13 11 -19 64 -9 87
1 1 15 2 31 2 18 0 30 -5 30 -13z m87 -2 c1 -5 -15 -10 -37 -10 -39 -1 -48 4
-33 19 10 10 66 3 70 -9z m80 -1 c2 -6 -10 -8 -32 -6 -19 2 -32 8 -29 14 8 12
56 6 61 -8z m80 0 c2 -7 -8 -9 -27 -6 -16 2 -27 8 -24 14 8 12 46 6 51 -8z
m80 -1 c3 -7 -3 -9 -16 -6 -12 3 -21 10 -21 15 0 13 32 6 37 -9z m31 -19 c2
-43 12 -60 12 -20 0 21 4 27 18 24 21 -4 30 -58 10 -58 -11 0 -11 -2 0 -9 11
-7 11 -9 -2 -14 -10 -4 -16 -1 -16 8 0 8 -7 15 -16 15 -8 0 -12 -4 -9 -10 3
-5 2 -10 -3 -10 -7 0 -10 93 -3 108 4 9 8 -3 9 -34z m52 15 c0 -4 -7 -6 -15
-3 -8 4 -15 10 -15 15 0 4 7 6 15 3 8 -4 15 -10 15 -15z m32 -1 c-6 -6 -15 -8
-19 -4 -4 4 -1 11 7 16 19 12 27 3 12 -12z m-162 8 c0 -3 -4 -8 -10 -11 -5 -3
-10 -1 -10 4 0 6 5 11 10 11 6 0 10 -2 10 -4z m-693 -32 c3 -9 1 -25 -5 -35
-10 -16 -8 -18 18 -17 17 1 33 -2 37 -5 3 -4 -12 -7 -35 -7 l-42 0 0 40 c0 40
15 54 27 24z m53 -14 c0 -19 -5 -30 -14 -30 -19 0 -29 30 -15 46 18 22 29 16
29 -16z m440 26 c0 -2 3 -11 6 -19 3 -8 -3 -23 -13 -33 -17 -17 -17 -17 0 -11
9 3 17 2 17 -3 0 -13 -37 -22 -59 -15 -19 6 -24 47 -8 73 7 11 57 18 57 8z
m86 -18 c4 -15 1 -26 -12 -36 -17 -13 -17 -14 -1 -9 9 4 17 2 17 -3 0 -15 -50
-24 -63 -11 -8 8 -8 11 1 11 9 0 9 4 1 19 -17 26 -4 51 25 51 17 0 27 -7 32
-22z m81 6 c3 -9 1 -26 -6 -36 -7 -12 -8 -17 -2 -13 6 3 11 2 11 -4 0 -11 -36
-25 -48 -17 -4 2 -9 23 -10 45 -3 38 -1 41 23 41 14 0 28 -7 32 -16z m80 0 c3
-9 1 -26 -6 -36 -7 -12 -8 -17 -2 -13 6 3 11 1 11 -4 0 -6 -2 -11 -4 -11 -2 0
-11 -3 -20 -6 -11 -4 -16 -1 -16 10 0 9 -7 19 -15 22 -18 7 -20 40 -2 47 25
11 48 7 54 -9z m133 -14 c0 -19 -5 -30 -14 -30 -19 0 -29 30 -15 46 18 22 29
16 29 -16z m-623 -12 c-3 -7 -5 -2 -5 12 0 14 2 19 5 13 2 -7 2 -19 0 -25z
m438 -28 c3 -5 1 -10 -4 -10 -6 0 -11 5 -11 10 0 6 2 10 4 10 3 0 8 -4 11 -10z
m175 -10 c0 -5 -7 -7 -15 -4 -8 4 -15 8 -15 10 0 2 7 4 15 4 8 0 15 -4 15 -10z
m405 -1350 c-1 -16 -2 -51 -3 -77 -1 -33 -5 -44 -12 -37 -12 12 -2 144 10 144
4 0 6 -13 5 -30z m728 -109 c-8 -11 -14 12 -18 75 l-4 69 13 -70 c7 -38 11
-72 9 -74z m25 49 c0 -55 0 -55 -9 -15 -4 22 -8 56 -8 75 0 28 2 31 9 15 5
-11 8 -45 8 -75z m-3184 25 c-4 -30 -2 -50 6 -60 10 -12 10 -15 -3 -15 -9 0
-18 4 -21 9 -8 13 6 111 16 111 5 0 6 -19 2 -45z m35 3 c-1 -24 2 -54 6 -68 6
-19 5 -22 -4 -14 -15 14 -26 86 -18 109 11 27 17 16 16 -27z m695 -15 c4 -34
3 -60 -4 -67 -7 -7 -10 4 -10 35 0 24 -3 54 -6 67 -4 12 -2 22 3 22 6 0 13
-26 17 -57z m32 1 c4 -37 3 -59 -5 -67 -8 -8 -11 1 -11 34 0 24 -3 54 -6 67
-4 12 -2 22 4 22 6 0 14 -25 18 -56z m26 -32 l-7 -47 -6 60 c-6 65 -1 91 12
56 5 -12 5 -43 1 -69z m1614 57 c-3 -17 -6 -48 -6 -68 0 -27 -3 -32 -10 -21
-18 28 -8 120 12 120 6 0 8 -13 4 -31z m60 0 c-3 -17 -6 -48 -6 -67 0 -25 -3
-33 -10 -26 -13 13 -1 124 13 124 5 0 7 -13 3 -31z m43 -24 l0 -20 -9 20 c-6
15 -9 8 -10 -30 -1 -36 -4 -44 -9 -30 -8 19 -5 74 6 105 4 12 7 11 13 -5 5
-11 9 -29 9 -40z m595 -40 c3 -16 3 -21 0 -10 -3 11 -10 24 -15 30 -5 5 -8 25
-8 45 l1 35 9 -35 c4 -19 10 -48 13 -65z m31 -5 c4 -22 3 -21 -10 5 -8 17 -14
46 -14 65 l1 35 9 -40 c5 -22 11 -51 14 -65z m-3061 59 c10 -50 8 -95 -4 -83
-15 15 -25 114 -13 114 6 0 13 -14 17 -31z m23 9 c-3 -8 -6 -5 -6 6 -1 11 2
17 5 13 3 -3 4 -12 1 -19z m599 -17 c-4 -24 -2 -41 5 -43 5 -2 7 -11 3 -22 -6
-15 -9 -13 -20 14 -20 45 -18 90 2 90 14 0 15 -7 10 -39z m-739 -48 c-3 -10
-5 -2 -5 17 0 19 2 27 5 18 2 -10 2 -26 0 -35z m3270 0 c-3 -10 -5 -4 -5 12 0
17 2 24 5 18 2 -7 2 -21 0 -30z m-710 -15 c-3 -8 -6 -5 -6 6 -1 11 2 17 5 13
3 -3 4 -12 1 -19z m-1798 -185 c-35 -82 -52 -79 -24 4 16 46 43 88 52 79 3 -2
-10 -39 -28 -83z m1741 65 c11 -12 20 -30 20 -41 0 -10 4 -26 9 -35 13 -27 23
-88 12 -77 -16 16 -80 175 -70 175 4 0 17 -10 29 -22z m-2360 -752 l0 -84 -37
9 c-21 5 -50 9 -65 9 -24 0 -28 -4 -28 -29 0 -29 -1 -30 -29 -20 -19 7 -31 19
-33 32 -3 20 -10 22 -75 25 l-72 3 -3 -33 c-3 -29 -7 -33 -33 -36 -17 -2 -41
1 -55 6 -22 8 -21 11 39 51 85 58 200 111 285 132 113 28 106 32 106 -65z
m3094 68 c109 -28 326 -144 326 -174 0 -6 -25 -10 -55 -10 -54 0 -55 0 -55 30
l0 30 -75 0 c-72 0 -75 -1 -75 -24 0 -19 -6 -25 -30 -28 -26 -4 -30 -2 -30 20
0 23 -2 24 -60 20 l-60 -3 0 78 c0 76 0 77 26 77 14 0 54 -7 88 -16z m-3121
-1081 l-18 -27 -7 84 c-3 47 -6 196 -7 331 -1 208 1 249 14 259 8 7 15 25 15
40 0 14 3 30 8 34 4 4 8 -150 10 -343 2 -321 1 -354 -15 -378z m3027 698 c0
-16 7 -34 15 -41 13 -11 15 -61 15 -341 0 -319 -5 -370 -29 -305 -11 28 -19
716 -8 716 4 0 7 -13 7 -29z m713 -99 c38 -58 91 -168 121 -251 29 -80 156
-545 156 -570 0 -9 -16 9 -36 39 -51 79 -128 154 -211 207 l-73 46 0 284 c0
156 4 283 9 283 4 0 20 -17 34 -38z m-4413 -272 l-1 -275 -60 -34 c-72 -42
-165 -131 -215 -206 -21 -30 -39 -53 -41 -51 -6 5 97 396 138 523 53 167 153
359 171 330 4 -7 8 -136 8 -287z m4439 -448 c76 -58 153 -156 182 -231 18 -49
18 -56 5 -63 -21 -12 -20 -67 2 -98 27 -39 23 -206 -7 -282 -12 -31 -30 -67
-40 -80 l-19 -22 -48 24 c-27 14 -72 49 -101 78 l-53 53 0 334 c0 184 3 335 8
335 4 0 36 -22 71 -48z m-4439 -308 l0 -336 -30 -38 c-16 -21 -57 -54 -91 -74
-69 -41 -77 -40 -111 27 -50 98 -57 241 -18 331 20 44 17 86 -5 86 -31 0 24
123 93 209 34 41 139 131 155 131 4 0 7 -151 7 -336z"/>
<path d="M4601 5304 c0 -11 3 -14 6 -6 3 7 2 16 -1 19 -3 4 -6 -2 -5 -13z"/>
<path d="M5221 5324 c0 -11 3 -14 6 -6 3 7 2 16 -1 19 -3 4 -6 -2 -5 -13z"/>
</g>
</svg>
