<?xml version="1.0" standalone="no"?>
<!DOCTYPE svg PUBLIC "-//W3C//DTD SVG 20010904//EN"
 "http://www.w3.org/TR/2001/REC-SVG-20010904/DTD/svg10.dtd">
<svg version="1.0" xmlns="http://www.w3.org/2000/svg"
 width="752.000000pt" height="1280.000000pt" viewBox="0 0 752.000000 1280.000000"
 preserveAspectRatio="xMidYMid meet">
<metadata>
Created by potrace 1.15, written by Peter Selinger 2001-2017
</metadata>
<g transform="translate(0.000000,1280.000000) scale(0.100000,-0.100000)"
fill="#000000" stroke="none">
<path d="M2050 12790 c0 -46 130 -213 229 -294 92 -76 98 -84 61 -78 -37 5
-38 -4 -3 -40 14 -15 24 -31 20 -34 -3 -3 -50 12 -105 35 -109 44 -234 79
-387 107 -79 15 -150 19 -340 19 -223 -1 -249 -2 -365 -27 -147 -32 -262 -68
-267 -84 -3 -8 32 -14 114 -19 155 -8 291 -29 435 -66 120 -30 262 -78 255
-86 -3 -2 -42 -13 -88 -24 -86 -20 -134 -43 -124 -59 3 -4 40 -11 83 -15 42
-3 118 -13 167 -21 90 -15 348 -79 374 -94 8 -4 -38 -11 -101 -15 -108 -6
-150 -16 -136 -30 3 -3 55 -13 114 -21 60 -9 115 -20 124 -25 10 -7 2 -9 -28
-4 -259 35 -811 52 -1144 36 -202 -10 -612 -46 -627 -55 -3 -2 -60 -14 -126
-25 -134 -24 -187 -39 -180 -50 2 -5 91 -11 196 -15 105 -4 203 -12 216 -17
14 -5 75 -11 137 -12 61 -1 118 -7 126 -12 8 -5 30 -8 48 -6 19 1 57 -1 85 -4
l51 -7 -34 -17 c-48 -22 -45 -45 5 -51 l40 -5 -53 -33 c-29 -18 -50 -37 -47
-42 4 -6 63 -10 138 -10 175 0 495 -37 521 -60 4 -5 -18 -11 -50 -14 -234 -23
-304 -36 -304 -57 0 -5 26 -9 58 -9 31 0 67 -3 80 -6 21 -6 21 -7 5 -19 -16
-12 -14 -14 17 -27 l35 -15 -55 -15 c-30 -8 -116 -32 -190 -53 -174 -48 -323
-108 -477 -192 -134 -73 -182 -107 -170 -119 4 -4 27 -2 50 5 81 24 197 49
197 42 0 -4 -46 -34 -102 -65 -57 -32 -119 -70 -138 -85 -19 -14 -51 -37 -72
-51 -73 -50 -308 -291 -308 -316 0 -27 32 -14 74 29 23 24 70 63 105 86 35 24
72 52 83 63 11 11 34 26 52 33 18 8 88 51 157 97 226 151 589 298 919 372 427
94 793 96 1181 5 l91 -21 -259 -88 c-341 -115 -492 -174 -654 -255 -141 -71
-189 -100 -189 -116 0 -15 18 -11 123 35 56 24 143 56 192 71 50 14 107 32
127 40 80 31 296 68 493 84 119 11 156 1 79 -21 -51 -14 -71 -38 -32 -38 13 0
33 -3 46 -6 19 -6 11 -14 -63 -64 -139 -95 -219 -169 -202 -187 3 -2 27 5 54
17 145 64 613 187 613 160 0 -3 -21 -21 -47 -39 -61 -43 -44 -54 64 -42 43 4
79 7 81 6 2 -2 -52 -31 -120 -64 -132 -65 -177 -95 -165 -108 5 -4 43 5 86 20
42 15 81 27 85 27 5 0 -31 -30 -80 -67 -94 -71 -224 -193 -224 -212 0 -20 24
-11 108 40 107 66 301 141 438 169 60 13 78 6 136 -48 l28 -26 -67 -36 c-84
-45 -91 -60 -27 -60 l48 0 -74 -45 c-94 -58 -167 -120 -186 -156 -20 -40 -5
-38 75 10 85 50 175 88 254 106 73 16 205 26 212 14 3 -4 -5 -9 -17 -11 -36
-5 -32 -26 11 -48 23 -11 41 -25 41 -30 0 -15 -40 -37 -96 -53 -68 -20 -100
-37 -156 -84 -98 -82 -138 -155 -112 -205 45 -87 159 -18 268 162 37 60 62 91
88 104 34 19 37 19 63 2 37 -24 101 -164 117 -254 23 -133 -24 -259 -120 -325
-78 -55 -318 -142 -363 -132 -17 4 -66 38 -111 77 -272 234 -372 268 -715 242
-208 -16 -346 -7 -475 30 -185 53 -253 65 -438 76 -102 5 -266 15 -365 20 -99
6 -252 11 -340 12 -252 2 -249 5 -254 -272 -3 -214 12 -611 35 -875 8 -93 17
-267 20 -385 l6 -215 29 -46 c24 -38 29 -57 29 -109 0 -66 -28 -170 -45 -170
-16 0 -75 -81 -75 -101 0 -10 -5 -29 -11 -43 -13 -28 2 -80 26 -90 21 -8 75
-123 75 -159 0 -64 -30 -156 -85 -265 -80 -157 -102 -296 -74 -475 12 -79 26
-112 59 -142 18 -16 23 -17 30 -5 6 8 10 24 10 35 2 102 24 265 44 331 28 87
78 174 100 174 22 0 27 -25 40 -205 l12 -170 90 -160 c97 -170 154 -266 175
-291 7 -8 24 -14 38 -12 46 5 41 67 -24 256 -86 254 -115 389 -118 546 -2 103
11 126 43 75 29 -48 58 -146 76 -259 10 -61 26 -115 44 -150 16 -30 37 -93 48
-140 11 -47 36 -127 56 -177 20 -51 36 -99 36 -108 0 -8 6 -15 14 -15 8 0 21
-3 29 -6 22 -8 37 47 37 140 0 142 -46 450 -81 546 -36 100 -62 226 -51 246 6
11 19 -3 51 -50 59 -90 107 -209 147 -365 35 -140 65 -205 111 -241 l27 -21
20 21 c33 33 34 141 2 265 -14 54 -26 108 -26 120 0 11 -16 56 -36 100 -20 44
-51 118 -69 165 -18 47 -45 113 -60 148 -47 111 -71 282 -45 322 16 26 116 18
188 -15 57 -25 68 -27 140 -21 120 11 147 21 173 64 12 20 32 47 43 60 21 24
21 24 1 38 -20 15 -78 15 -167 -1 -27 -5 -50 -1 -95 19 -32 14 -97 34 -146 45
-82 19 -142 44 -177 73 -19 16 -54 83 -64 120 -9 40 -40 53 -87 39 -34 -10
-45 -9 -99 14 -33 14 -77 29 -97 33 -54 11 -70 46 -83 177 -5 61 -10 252 -10
425 0 173 -6 401 -12 505 -16 241 -14 314 7 360 26 53 65 70 160 69 75 -1 129
-12 450 -86 148 -34 190 -39 427 -48 337 -12 499 -39 626 -104 102 -52 124
-89 147 -246 22 -152 79 -475 105 -591 25 -116 25 -161 1 -232 -11 -31 -25
-100 -31 -154 -6 -54 -17 -141 -25 -193 -7 -52 -16 -138 -20 -190 -4 -52 -13
-134 -21 -182 -12 -69 -12 -116 -5 -230 11 -151 20 -190 85 -336 48 -109 66
-185 66 -273 0 -97 -15 -146 -55 -186 -28 -28 -40 -33 -78 -33 -24 0 -61 7
-80 15 -57 24 -75 19 -126 -32 -25 -27 -68 -60 -94 -75 -66 -38 -64 -77 6
-157 30 -35 30 -35 24 -133 -6 -117 -19 -144 -74 -153 -58 -9 -66 -17 -86 -86
-15 -50 -17 -70 -9 -92 10 -25 8 -29 -14 -39 -13 -6 -28 -24 -32 -39 -5 -22
-22 -36 -71 -61 -46 -24 -67 -40 -72 -58 -3 -14 -23 -42 -43 -64 -34 -35 -40
-38 -62 -27 -35 16 -90 14 -130 -5 -37 -18 -67 -63 -58 -88 3 -8 -4 -24 -16
-36 -17 -17 -30 -21 -58 -17 -31 3 -43 -1 -74 -29 -44 -40 -77 -50 -116 -36
-67 23 -172 -54 -172 -128 0 -26 -7 -43 -25 -60 -14 -13 -25 -29 -25 -36 0 -7
-24 -31 -53 -54 -28 -24 -189 -181 -357 -350 -243 -244 -322 -318 -391 -362
-132 -86 -153 -119 -165 -263 -8 -89 -6 -93 137 -265 183 -220 197 -245 324
-595 134 -369 168 -446 298 -680 131 -233 248 -476 286 -593 32 -97 72 -290
91 -445 7 -62 8 -123 0 -206 -10 -116 -40 -228 -119 -444 -12 -32 -28 -116
-36 -190 -20 -173 -40 -278 -60 -317 -19 -38 -62 -65 -126 -80 -38 -9 -62 -26
-133 -95 -76 -73 -86 -87 -86 -118 0 -24 9 -46 27 -67 26 -31 29 -32 85 -27
32 3 77 14 100 26 85 40 94 42 159 25 36 -9 73 -13 92 -8 137 29 204 138 263
423 14 69 32 141 40 161 9 22 56 75 123 138 135 126 190 168 259 199 63 28
155 111 185 168 32 61 30 147 -5 207 -36 60 -80 87 -172 103 -90 15 -148 53
-213 140 -60 79 -85 132 -118 240 -14 50 -57 182 -95 295 -102 303 -177 573
-201 723 -35 224 -58 332 -90 429 -33 98 -81 202 -99 213 -6 4 -22 24 -35 45
-13 21 -87 116 -165 211 -170 209 -195 256 -186 337 10 85 48 155 109 202 58
43 160 92 245 116 63 18 140 56 281 139 121 70 149 76 199 41 43 -30 59 -32
86 -11 11 8 27 15 36 15 9 0 25 9 35 20 42 46 62 3 26 -56 -11 -18 -51 -67
-90 -109 -135 -148 -153 -234 -79 -372 121 -227 127 -253 131 -513 2 -184 2
-185 34 -251 39 -84 90 -141 156 -173 64 -32 142 -34 206 -6 62 28 104 26 140
-8 32 -30 61 -97 61 -143 0 -60 -73 -159 -118 -159 -51 -1 -202 -182 -236
-282 -17 -51 -56 -307 -56 -368 0 -46 14 -51 60 -23 28 16 31 16 97 -12 64
-28 119 -36 171 -25 22 5 26 -1 46 -65 13 -38 32 -89 44 -112 40 -77 64 -187
59 -271 -2 -42 -7 -87 -12 -100 -5 -16 -4 -22 8 -22 18 0 69 60 123 145 20 33
81 121 135 196 103 144 139 208 185 329 26 69 28 86 28 210 0 115 -3 144 -22
200 -55 155 -163 289 -302 374 -91 55 -140 109 -187 204 -24 50 -25 57 -15
104 7 27 12 64 12 82 0 52 -27 130 -60 171 -36 45 -37 38 37 199 101 219 116
350 55 479 -52 110 -138 188 -314 287 -71 40 -100 71 -83 88 3 4 42 9 86 13
64 4 84 10 104 29 31 29 31 49 3 85 -24 31 -52 135 -39 148 5 5 28 11 52 14
23 4 54 12 67 19 20 10 33 9 80 -8 47 -17 72 -19 137 -14 44 3 103 13 130 21
33 11 67 14 97 10 l47 -6 33 50 c39 60 57 69 78 42 8 -11 29 -23 45 -27 17 -4
42 -13 56 -20 21 -11 29 -11 45 0 10 7 58 16 107 19 82 6 88 5 101 -16 8 -12
18 -34 21 -49 4 -14 23 -45 42 -68 91 -106 273 -134 457 -70 77 26 136 60 217
127 37 29 82 58 100 64 19 7 41 17 49 24 8 7 61 15 120 18 99 6 216 31 330 72
51 18 131 69 209 134 88 74 223 95 565 89 238 -3 242 -4 296 -80 53 -73 75
-165 75 -308 -1 -109 -4 -136 -29 -215 -41 -127 -48 -304 -17 -426 24 -95 99
-258 162 -350 85 -126 145 -294 169 -479 15 -111 45 -243 69 -300 46 -107 106
-408 118 -581 5 -91 4 -99 -13 -105 -10 -4 -29 -15 -42 -25 -13 -10 -47 -23
-75 -29 -99 -20 -157 -77 -157 -154 0 -94 146 -239 261 -260 100 -18 229 -183
289 -370 39 -119 28 -202 -46 -361 -21 -46 -28 -74 -27 -120 1 -78 19 -113 99
-191 61 -59 63 -62 54 -94 -5 -18 -16 -43 -25 -56 -29 -45 -14 -226 23 -268
31 -35 105 -76 138 -76 24 0 39 8 58 31 14 17 26 36 26 42 0 7 23 47 51 91 27
43 53 91 56 107 3 16 -4 59 -17 101 -29 96 -29 172 3 288 37 138 49 227 49
364 1 162 -11 212 -97 406 -40 91 -78 183 -85 205 -7 22 -25 65 -40 95 -89
178 -235 774 -269 1095 -6 55 -22 249 -36 430 -37 479 -56 589 -163 945 -75
249 -86 326 -78 555 l7 191 -45 90 c-76 152 -95 161 -284 145 -144 -13 -284 0
-438 39 -64 17 -120 33 -125 36 -20 12 -5 36 64 99 170 158 354 244 434 203
167 -87 197 -97 323 -105 128 -7 212 7 410 72 327 107 554 165 644 165 58 0
93 -14 134 -53 32 -31 34 -31 48 -13 8 11 14 34 14 52 0 18 5 45 11 61 20 53
13 119 -21 178 -19 34 -27 56 -20 60 6 4 8 20 5 39 -5 25 1 46 28 97 77 141
84 242 26 371 -18 40 -35 75 -37 78 -6 8 -56 -54 -84 -107 -32 -60 -87 -100
-202 -144 -141 -55 -259 -80 -406 -88 l-135 -7 -100 48 c-183 87 -364 123
-535 107 -332 -32 -581 -148 -798 -373 -128 -132 -202 -271 -202 -379 0 -33
-6 -51 -25 -71 -13 -14 -28 -26 -34 -26 -5 0 -19 -17 -31 -38 -12 -22 -35 -47
-52 -57 -27 -15 -40 -16 -121 -6 -51 6 -136 13 -189 17 -70 4 -104 11 -120 23
-13 10 -38 23 -56 30 -21 9 -34 23 -39 40 -3 14 -12 35 -19 46 -10 16 -11 30
-3 59 13 48 6 66 -25 66 -14 0 -27 4 -30 8 -6 10 -123 68 -156 77 -63 18 -108
114 -96 203 10 77 66 234 106 302 44 75 56 100 105 230 20 52 45 118 57 145
12 28 34 91 50 140 17 50 40 110 53 135 13 25 32 75 43 112 12 36 36 87 56
112 61 80 104 230 126 436 6 58 15 147 20 197 15 138 70 269 122 287 38 13
108 -25 260 -144 129 -100 189 -158 518 -495 258 -265 383 -366 546 -445 105
-51 198 -80 255 -80 37 0 60 34 75 110 7 41 44 162 80 268 62 179 70 196 107
228 76 64 97 123 58 158 -48 43 -23 88 82 146 53 29 77 29 42 0 -19 -16 -19
-106 0 -140 8 -14 14 -35 15 -46 0 -12 10 -43 21 -70 18 -40 20 -53 10 -79
-18 -51 -14 -81 15 -104 34 -27 64 -27 92 -1 36 34 29 75 -23 128 -28 28 -45
54 -45 69 0 13 -11 49 -24 81 -13 31 -27 79 -31 105 -7 47 -7 48 16 43 13 -3
66 -7 117 -11 71 -4 103 -2 139 10 57 19 91 13 103 -20 13 -33 40 -33 40 0 0
31 6 31 83 -1 86 -36 164 -43 197 -16 21 17 23 24 15 48 -21 58 -113 97 -227
96 -61 0 -68 2 -68 20 0 30 -43 20 -50 -12 -5 -22 -14 -26 -80 -38 -41 -7
-106 -15 -145 -17 -38 -3 -81 -7 -95 -10 -20 -5 -29 0 -47 28 -13 18 -23 48
-23 67 0 26 -9 42 -40 71 -22 21 -40 43 -40 48 0 6 18 20 40 31 81 41 95 107
40 183 l-33 46 33 83 c30 76 32 90 27 165 -5 93 -1 102 77 173 57 53 122 141
164 225 67 135 164 399 178 488 11 66 28 119 68 206 75 162 99 222 135 334 49
155 54 267 11 267 -27 0 -49 -37 -115 -190 -60 -139 -157 -317 -197 -360 -45
-48 -31 8 41 164 45 97 80 190 95 252 13 55 41 146 61 203 52 146 60 259 19
275 -39 15 -90 -70 -159 -264 -20 -58 -59 -145 -85 -195 -27 -49 -67 -139 -89
-199 -39 -104 -63 -146 -83 -146 -21 0 -4 73 46 199 64 160 86 232 86 278 0
19 21 96 47 171 37 109 47 155 51 222 3 69 1 88 -11 99 -47 38 -137 -98 -181
-275 -13 -55 -47 -151 -74 -215 -28 -64 -71 -181 -96 -260 -47 -148 -67 -189
-92 -189 -27 0 -16 105 31 298 30 120 61 218 89 281 73 161 81 211 36 211 -24
0 -88 -56 -141 -122 -39 -50 -144 -301 -173 -413 -44 -176 -97 -435 -111 -548
-22 -182 -53 -245 -105 -217 -22 12 -40 44 -70 124 -24 64 -84 130 -155 171
-76 45 -195 33 -195 -20 1 -27 22 -51 110 -123 97 -78 138 -134 192 -258 55
-124 130 -241 232 -359 43 -49 90 -112 104 -140 25 -47 26 -58 26 -185 -1
-139 -12 -190 -39 -190 -9 0 -27 -11 -40 -25 -20 -19 -25 -34 -25 -72 1 -26 7
-59 15 -73 17 -29 20 -80 5 -80 -5 0 -19 -9 -30 -20 -16 -16 -18 -25 -10 -45
26 -68 3 -200 -56 -322 -25 -53 -49 -85 -89 -119 -60 -52 -70 -83 -34 -108 29
-20 20 -66 -29 -142 -50 -77 -94 -114 -136 -114 -39 0 -60 21 -221 225 -180
227 -429 469 -676 656 l-116 87 -32 88 c-56 153 -116 225 -224 266 -78 30
-231 34 -387 10 -123 -19 -126 -19 -157 0 -48 28 -91 83 -104 130 -20 76 17
179 100 273 14 17 76 102 136 190 171 248 257 324 407 360 35 8 150 20 257 26
107 6 204 15 217 20 13 4 32 24 41 43 20 44 7 82 -49 135 l-38 37 35 34 c41
40 44 68 10 100 -18 17 -25 34 -25 62 0 68 36 116 101 137 71 23 116 101 58
101 -28 0 -95 70 -104 108 -4 20 0 42 15 70 26 50 20 79 -30 131 -106 109
-342 196 -595 220 -113 11 -122 13 -148 41 -15 16 -48 38 -73 49 -24 11 -79
45 -121 76 -41 30 -79 55 -84 55 -4 0 -32 39 -61 87 -69 113 -129 177 -247
266 -178 135 -362 240 -621 355 -248 111 -509 236 -740 354 -246 127 -296 155
-436 250 -104 70 -114 75 -114 58z m2200 -1405 c23 -8 79 -38 124 -65 45 -28
86 -50 92 -50 6 0 29 -20 52 -45 l41 -45 69 0 c210 0 525 -107 638 -216 50
-49 55 -77 23 -118 -26 -33 -20 -82 17 -125 l24 -29 -52 -5 c-29 -3 -91 -17
-138 -32 -71 -22 -109 -28 -230 -32 l-145 -5 40 41 c27 28 34 41 23 41 -52 0
-111 -151 -112 -290 -1 -72 2 -85 16 -88 15 -3 16 1 7 30 -13 46 -2 101 20 93
9 -3 111 -44 227 -91 116 -46 217 -84 224 -84 8 0 10 -8 7 -21 -4 -14 7 -34
39 -71 52 -58 55 -89 11 -122 -26 -19 -47 -22 -215 -27 -206 -7 -249 -16 -367
-77 -53 -27 -94 -60 -170 -138 -56 -57 -113 -108 -129 -113 -45 -18 -72 -13
-90 14 -11 17 -26 25 -46 25 -50 0 -76 -19 -115 -87 -33 -56 -38 -74 -39 -129
-1 -38 4 -68 10 -72 17 -11 54 -93 54 -120 0 -23 -35 -92 -47 -92 -3 0 -16 11
-29 25 -58 63 -126 -3 -150 -145 -5 -31 -2 -37 20 -50 21 -11 26 -21 26 -54
l1 -41 18 22 18 22 41 -20 c44 -22 82 -18 82 8 0 30 -31 53 -72 53 -21 0 -38
3 -38 8 0 15 67 126 78 130 6 2 17 -16 24 -39 8 -28 34 -66 72 -106 32 -35 56
-66 53 -69 -11 -12 -115 -34 -159 -34 -35 0 -54 -6 -76 -25 -20 -16 -42 -25
-66 -25 -42 0 -63 -26 -73 -86 -8 -53 -29 -81 -74 -105 -37 -18 -109 -26 -122
-13 -3 4 1 20 9 36 18 34 12 46 -33 64 -41 18 -66 12 -87 -21 -13 -20 -25 -25
-56 -25 -36 0 -44 5 -80 51 -49 62 -52 103 -14 169 l26 45 -27 22 c-14 13 -35
23 -46 23 -11 0 -29 5 -40 10 -40 22 -66 114 -34 126 8 3 24 21 35 39 37 59
56 56 235 -36 191 -98 225 -121 225 -155 0 -25 26 -84 37 -84 11 0 -6 102 -21
125 -8 12 -69 50 -136 85 -116 60 -250 152 -250 172 0 22 129 126 199 160 49
25 96 59 138 100 34 34 64 60 66 57 6 -6 38 -494 37 -566 0 -34 5 -65 10 -68
13 -8 13 44 -4 320 -11 168 -13 316 -8 548 l7 319 24 19 c13 11 39 19 60 19
21 0 59 7 84 16 50 17 77 9 77 -23 0 -27 31 -73 60 -88 38 -19 71 -19 115 2
44 21 54 11 30 -32 -24 -46 -13 -56 14 -12 36 59 41 61 128 42 114 -25 108
-22 88 -45 -28 -31 -11 -34 30 -5 39 26 65 32 65 15 0 -5 -4 -10 -8 -10 -5 0
-43 -29 -84 -65 -78 -66 -153 -156 -146 -175 2 -6 22 16 45 48 46 65 139 141
218 178 51 24 129 32 140 14 3 -5 28 -10 55 -10 27 0 72 -5 100 -11 51 -11 77
-6 51 10 -20 13 -141 30 -286 41 -71 5 -187 21 -257 35 l-128 26 -64 -21 c-75
-26 -92 -24 -118 11 -16 20 -22 52 -28 135 -9 113 -21 164 -41 164 -7 0 -8 -7
-4 -17 16 -42 17 -118 1 -138 -15 -19 -15 -19 -16 11 0 20 -9 39 -26 55 -21
20 -33 23 -72 20 -190 -17 -444 19 -561 78 -85 44 -168 162 -178 255 -11 90
78 221 186 273 50 25 67 28 156 28 90 0 110 -4 210 -39 95 -33 114 -37 139
-27 25 10 28 15 21 44 -19 88 14 217 56 217 14 0 25 12 36 38 18 45 41 72 60
72 8 0 26 9 40 20 31 24 47 25 103 5z m2847 -290 c-3 -27 -24 -107 -46 -176
-23 -69 -41 -137 -41 -152 0 -14 -4 -28 -9 -32 -17 -10 -101 16 -101 32 0 27
50 112 81 136 31 24 32 25 10 36 -26 14 -26 22 -1 104 25 80 72 136 96 116 13
-10 15 -25 11 -64z m-291 -90 c16 -40 -50 -145 -91 -145 -36 0 -42 -20 -13
-44 l25 -21 -29 -114 c-37 -149 -46 -164 -104 -159 -24 2 -44 1 -44 -2 1 -16
42 -50 60 -50 21 0 22 -3 15 -65 -7 -68 4 -124 30 -145 35 -29 86 41 130 177
17 53 32 84 43 87 9 2 29 7 45 10 37 9 34 23 -9 41 -30 12 -34 18 -29 37 17
55 41 83 73 86 18 2 30 8 27 13 -9 13 28 11 48 -3 15 -12 15 -17 1 -73 -21
-81 -40 -114 -71 -126 -24 -9 -25 -11 -10 -26 15 -15 14 -19 -8 -57 -46 -81
-55 -165 -21 -212 14 -18 15 -18 40 9 29 31 76 120 95 179 7 21 20 42 29 48
16 9 15 11 -2 25 -19 14 -19 15 -1 35 37 41 135 34 135 -10 0 -12 -29 -83 -64
-158 -80 -172 -80 -170 -56 -210 l20 -33 36 42 c20 24 45 60 57 81 12 21 26
38 30 38 19 0 67 -42 67 -59 0 -10 -18 -54 -41 -98 -26 -53 -44 -105 -50 -150
-25 -166 -73 -243 -152 -243 -41 0 -56 -15 -64 -67 -10 -64 -60 -161 -103
-201 -47 -45 -50 -64 -15 -96 24 -22 25 -25 11 -52 -9 -16 -18 -42 -21 -57 -6
-32 -43 -50 -80 -41 -13 3 -47 21 -76 40 -53 34 -89 43 -89 24 0 -5 12 -10 26
-10 15 0 36 -12 52 -29 15 -16 42 -36 60 -45 l32 -17 0 -94 0 -95 -39 -19
c-37 -20 -51 -42 -51 -87 0 -11 -9 -29 -21 -40 -21 -19 -21 -19 -45 11 -22 28
-24 38 -24 156 0 187 -16 227 -162 387 -88 96 -155 205 -213 346 -44 105 -45
107 -162 221 -96 93 -115 116 -103 125 23 15 87 12 122 -6 48 -25 138 -114
138 -137 0 -21 80 -145 112 -174 16 -15 21 -15 62 1 54 21 74 41 50 50 -13 5
-11 12 16 42 33 38 50 74 50 102 -1 25 -40 -24 -40 -49 0 -10 -5 -19 -11 -19
-7 0 -9 12 -6 33 3 17 9 53 13 79 6 46 8 48 33 41 25 -6 25 -5 10 13 -27 32
-28 60 -8 157 11 51 31 150 45 221 35 175 56 229 101 257 32 20 33 23 17 32
-11 5 -20 11 -21 12 -2 1 11 37 29 81 59 146 145 251 164 199z m502 -43 c2
-18 -13 -81 -36 -150 -22 -64 -48 -150 -57 -190 -10 -40 -21 -75 -26 -77 -13
-9 -79 22 -85 40 -7 18 55 165 73 172 8 3 13 24 13 57 0 33 9 70 26 106 32 70
43 82 68 78 16 -2 22 -11 24 -36z m-1983 -308 c21 -9 49 -13 62 -9 36 9 25
-15 -18 -40 -31 -18 -54 -20 -234 -22 l-200 -2 105 23 c58 13 128 33 155 44
61 26 82 26 130 6z m2079 0 c9 -23 -10 -120 -41 -212 -30 -90 -69 -182 -78
-182 -21 0 -75 32 -75 44 0 17 56 66 76 66 16 0 19 16 4 25 -22 13 -10 56 25
88 24 22 32 36 26 46 -10 15 3 70 25 114 16 31 29 34 38 11z m-2537 -107 c20
-21 -59 -37 -101 -21 -21 8 -20 21 2 28 20 5 91 0 99 -7z m108 -1 c16 -12 17
-16 6 -30 -17 -20 -41 -20 -67 -1 -19 15 -19 15 0 30 24 19 37 19 61 1z m155
-4 c0 -34 -86 -60 -112 -34 -24 24 0 42 57 42 30 0 55 -4 55 -8z m115 -1 c3
-5 -5 -22 -19 -37 -23 -27 -24 -28 -50 -11 -14 10 -26 22 -26 27 0 23 82 42
95 21z m-327 -73 c4 -21 -16 -23 -53 -6 -37 17 -31 30 12 26 27 -2 39 -8 41
-20z m137 -23 c0 -17 -6 -20 -43 -19 -49 1 -76 19 -52 35 8 5 33 8 55 7 32 -3
40 -7 40 -23z m65 2 c0 -23 -17 -47 -32 -47 -11 0 -10 28 2 51 14 26 30 24 30
-4z m88 1 c16 -16 15 -53 -2 -67 -20 -17 -66 3 -66 28 0 22 25 51 44 51 6 0
17 -5 24 -12z m-252 -38 c76 -27 248 -62 266 -55 8 3 26 -3 39 -14 20 -16 22
-22 11 -33 -7 -7 -29 -12 -50 -11 -48 1 -376 131 -336 133 6 0 37 -9 70 -20z
m-1048 -142 c-7 -19 -38 -22 -38 -4 0 10 9 16 21 16 12 0 19 -5 17 -12z m-88
-33 c-7 -8 -22 -15 -34 -15 -21 1 -21 1 -2 15 27 21 53 20 36 0z m-80 -13 c0
-14 -48 -33 -55 -22 -4 6 0 12 7 14 7 3 20 7 28 9 8 3 16 6 18 6 1 1 2 -3 2
-7z m-201 -123 c-17 -10 -24 4 -14 29 6 16 7 16 17 -2 8 -14 7 -21 -3 -27z
m-1693 -285 c55 -16 70 -27 59 -44 -4 -6 -15 -6 -32 1 -21 8 -30 6 -48 -11
-12 -11 -29 -20 -39 -20 -21 0 -107 70 -100 82 9 13 102 9 160 -8z m1104 -244
c10 -5 21 -21 24 -35 4 -16 13 -25 26 -25 32 0 35 -22 6 -47 -39 -33 -56 -29
-115 24 -50 45 -64 76 -38 86 21 9 78 7 97 -3z m-2225 -100 c17 -19 17 -43 0
-97 -6 -18 -2 -25 19 -33 51 -19 19 -72 -33 -55 -24 7 -31 33 -31 121 0 89 10
103 45 64z m4114 -494 c53 -28 147 -153 129 -172 -12 -11 -69 8 -75 24 -15 42
-33 51 -90 45 -46 -5 -58 -3 -69 11 -23 33 21 106 64 106 7 0 25 -6 41 -14z
m-3968 -202 c10 -12 14 -46 14 -123 0 -111 -9 -148 -52 -208 -24 -33 -30 -68
-13 -78 6 -3 10 -19 10 -35 0 -22 7 -32 27 -42 18 -9 38 -35 59 -78 36 -73 59
-95 115 -110 39 -11 79 -41 79 -59 0 -6 -18 -30 -39 -55 -29 -34 -42 -60 -51
-103 -11 -56 -36 -110 -47 -100 -2 3 2 18 11 34 13 26 13 33 0 58 -8 15 -14
33 -14 40 0 7 -6 18 -14 24 -20 17 -71 -10 -95 -51 -18 -28 -18 -33 -4 -67 28
-67 96 -117 127 -92 10 9 16 9 21 1 7 -11 -10 -39 -33 -53 -7 -5 -28 -22 -46
-38 -35 -31 -76 -37 -98 -16 -7 7 -25 20 -40 30 -26 16 -28 23 -28 80 1 65 40
200 73 250 33 51 13 126 -47 172 l-36 27 0 217 c0 236 8 286 46 303 22 10 24
16 24 88 0 91 10 108 25 46 7 -25 18 -53 26 -62z m3949 14 c0 -7 17 -27 37
-44 25 -21 34 -36 30 -47 -12 -31 -80 -14 -121 31 -18 20 -17 21 8 46 27 28
46 33 46 14z m1680 -62 c0 -19 41 -52 82 -65 45 -15 101 -6 124 20 24 26 42
24 50 -6 13 -53 -63 -120 -126 -109 -103 17 -152 57 -156 126 -1 24 0 46 3 51
6 10 23 -1 23 -17z m-15 -242 c30 -32 35 -64 8 -43 -23 17 -52 52 -53 62 0 15
22 6 45 -19z m150 -4 c-3 -5 -15 -10 -26 -10 -11 0 -17 5 -14 10 3 6 15 10 26
10 11 0 17 -4 14 -10z m70 -11 c4 -6 5 -12 2 -15 -7 -7 -37 7 -37 17 0 13 27
11 35 -2z m318 -166 c11 -10 -13 -33 -34 -33 -21 0 -26 26 -6 33 18 8 33 8 40
0z m-148 -23 c-3 -5 -10 -10 -16 -10 -5 0 -9 5 -9 10 0 6 7 10 16 10 8 0 12
-4 9 -10z m-3591 -26 c21 -21 20 -40 -5 -65 -21 -21 -50 -22 -57 -1 -2 7 6 12
22 12 30 0 45 25 27 43 -9 9 -16 9 -31 -1 -16 -10 -20 -10 -20 2 0 27 41 33
64 10z m3476 -60 c0 -8 -5 -12 -10 -9 -6 4 -8 11 -5 16 9 14 15 11 15 -7z
m-1227 -98 c12 -13 30 -35 40 -50 10 -14 26 -26 35 -26 43 0 54 -46 22 -87
-11 -14 -20 -38 -20 -54 0 -75 -49 -19 -61 70 -7 49 -13 60 -48 91 -41 36 -52
64 -28 73 25 10 38 7 60 -17z m1046 -12 c-18 -21 -93 -58 -158 -78 -61 -18
-161 -22 -161 -6 0 6 20 10 44 10 66 0 141 20 210 56 70 37 84 40 65 18z m221
-10 c0 -16 -16 -19 -25 -4 -8 13 4 32 16 25 5 -4 9 -13 9 -21z m-5555 -24 c10
-11 16 -22 14 -25 -7 -6 -49 24 -49 36 0 15 16 10 35 -11z m5335 -19 c0 -11
-112 -58 -170 -71 -59 -13 -150 -13 -150 0 0 6 27 10 61 10 69 0 165 22 219
50 42 23 40 22 40 11z m-5290 -69 c0 -13 -12 -22 -22 -16 -10 6 -1 24 13 24 5
0 9 -4 9 -8z m2702 -4 c22 -17 68 -155 68 -202 0 -76 -58 -134 -124 -122 -39
7 -55 -3 -65 -40 -6 -23 -13 -28 -30 -26 -35 5 -52 -16 -45 -53 4 -26 2 -35
-12 -43 -15 -9 -16 -13 -5 -26 7 -9 20 -16 29 -16 8 0 12 -3 9 -7 -4 -3 -26
-1 -49 6 -82 25 -88 29 -88 59 0 15 -11 43 -25 62 -14 19 -25 39 -25 45 0 7
-9 20 -20 30 -39 35 -25 71 61 162 33 34 59 68 59 77 0 28 36 54 87 61 27 3
63 15 79 26 33 22 73 25 96 7z m2872 -4 c32 -12 7 -76 -34 -87 -28 -7 -38 34
-16 68 17 26 24 29 50 19z m-5604 -59 c10 -12 10 -15 -4 -15 -9 0 -16 7 -16
15 0 8 2 15 4 15 2 0 9 -7 16 -15z m4495 -31 c0 -12 -7 -19 -19 -19 -24 0 -41
27 -32 50 6 16 8 16 29 2 12 -8 22 -23 22 -33z m-1377 -31 c4 -38 -32 -71 -55
-51 -24 19 -31 42 -22 66 7 19 15 23 41 20 29 -3 33 -7 36 -35z m-3099 -19
c23 -30 27 -64 9 -82 -15 -15 -32 -16 -23 -1 4 6 -2 17 -14 25 -21 15 -26 39
-15 68 9 23 19 20 43 -10z m-83 -21 c-10 -10 -19 5 -10 18 6 11 8 11 12 0 2
-7 1 -15 -2 -18z m446 5 c15 -5 29 -16 32 -24 3 -8 18 -14 33 -14 15 0 46 -12
68 -25 22 -14 50 -25 62 -25 12 0 25 -5 28 -10 12 -19 -51 -32 -143 -28 -75 2
-96 6 -106 21 -9 11 -26 17 -49 17 -45 0 -67 29 -60 77 l5 32 52 -5 c28 -3 63
-10 78 -16z m282 -29 c-6 -10 -65 -39 -79 -39 -7 0 -6 35 2 43 12 12 85 8 77
-4z m-740 -66 c3 -10 8 -23 11 -29 3 -6 -1 -14 -9 -17 -19 -7 -39 25 -30 47 8
21 20 20 28 -1z m-473 -44 c7 -14 8 -24 1 -31 -17 -17 -42 -1 -42 27 0 31 25
34 41 4z m509 -14 c-7 -9 -15 -13 -17 -11 -7 7 7 26 19 26 6 0 6 -6 -2 -15z
m-161 -20 c29 -38 36 -81 17 -110 -15 -23 -45 -37 -31 -15 4 6 -7 15 -23 21
-28 10 -52 44 -52 75 0 54 55 72 89 29z m-249 -30 c14 -17 7 -45 -13 -45 -7 0
-22 6 -32 14 -16 12 -17 16 -6 30 17 20 35 20 51 1z m60 -40 c0 -8 -4 -15 -10
-15 -5 0 -10 7 -10 15 0 8 5 15 10 15 6 0 10 -7 10 -15z m-24 -50 c10 -8 40
-15 66 -15 26 0 49 -4 52 -9 3 -5 29 -14 56 -21 42 -10 50 -15 45 -31 -3 -10
4 -37 16 -61 12 -24 24 -70 27 -105 7 -86 22 -90 22 -6 l0 68 20 -25 c31 -40
24 -4 -17 82 -20 43 -33 81 -30 84 3 3 19 -3 35 -15 17 -12 35 -21 41 -21 6 0
36 -12 68 -26 45 -20 67 -24 100 -19 23 3 44 2 47 -4 4 -5 -6 -11 -21 -13 -33
-4 -40 -30 -23 -83 13 -39 25 -43 51 -19 27 25 43 12 69 -53 13 -32 40 -97 61
-144 32 -70 99 -295 99 -329 0 -11 -82 -49 -92 -43 -17 9 -8 70 13 89 l21 19
-23 5 c-36 9 -45 33 -30 76 13 36 13 38 -16 63 -17 14 -50 64 -74 110 -114
218 -221 229 -158 15 l22 -75 -22 -15 c-21 -15 -46 -62 -38 -71 3 -2 18 4 35
14 29 17 32 17 48 1 11 -10 19 -44 24 -95 5 -43 18 -127 29 -186 18 -91 28
-209 14 -155 -6 23 -37 32 -63 18 -20 -11 -21 -9 -18 16 2 20 10 30 27 34 17
4 25 13 27 32 2 21 -1 26 -14 21 -9 -3 -25 -13 -35 -21 -24 -21 -36 -6 -43 54
-5 39 -3 53 10 63 23 19 20 31 -7 31 -13 0 -32 7 -43 15 -18 14 -16 15 19 9
46 -8 50 9 7 31 -66 34 -88 120 -50 195 41 80 16 160 -49 160 -15 0 -40 9 -55
21 -36 28 -57 21 -80 -26 -22 -43 -28 -157 -13 -232 l9 -42 -34 -3 c-34 -3
-42 -21 -11 -26 56 -9 61 -12 68 -48 12 -69 56 -208 86 -277 17 -38 29 -70 27
-72 -2 -1 -13 -6 -25 -9 -17 -5 -29 -1 -48 18 -30 30 -31 42 -5 56 24 13 26
38 4 47 -10 4 -22 -1 -30 -12 -18 -24 -32 -10 -16 15 11 17 10 20 -8 20 -30 0
-37 30 -12 50 25 21 19 30 -19 30 -18 0 -35 9 -48 26 -23 30 -26 55 -11 85 9
15 7 21 -7 27 -16 6 -18 23 -19 167 -1 161 -10 225 -40 271 -30 45 -104 19
-104 -36 0 -16 -5 -32 -11 -36 -6 -3 -8 -17 -5 -30 4 -16 -7 -62 -29 -127 -38
-109 -65 -219 -65 -270 l-1 -32 -19 24 c-16 18 -20 38 -20 95 1 39 7 88 14
109 8 21 12 47 9 57 -4 15 0 20 16 20 24 0 25 3 9 30 -10 16 -4 35 40 127 28
59 58 126 66 148 14 38 15 39 15 11 1 -45 19 -20 33 45 6 31 8 64 4 75 -7 16
-10 12 -20 -21 l-12 -40 -8 31 c-10 43 16 103 45 104 3 0 14 -7 25 -15z m3019
-33 c-15 -16 -16 -15 -4 12 7 15 15 23 17 16 3 -7 -3 -19 -13 -28z m-297 -442
c17 0 34 5 37 10 10 16 19 12 61 -21 22 -18 62 -42 91 -56 28 -13 58 -35 67
-48 13 -20 25 -25 56 -25 40 0 80 26 80 53 0 6 22 31 49 54 46 39 50 41 56 23
3 -11 22 -32 41 -46 54 -41 46 -88 -40 -229 -43 -70 -116 -287 -116 -344 0
-27 12 -63 39 -113 38 -73 87 -168 103 -200 4 -9 10 -35 14 -57 6 -36 3 -43
-36 -84 -43 -48 -94 -71 -176 -80 -70 -8 -71 -5 -40 140 28 125 28 133 17 240
-13 122 -35 203 -57 203 -18 0 -18 0 7 -62 41 -100 37 -348 -8 -460 -16 -39
-17 -40 -57 -35 -22 3 -99 36 -170 72 -80 41 -156 72 -196 81 -131 28 -243 11
-315 -46 -34 -27 -40 -29 -48 -14 -5 9 -6 49 -2 91 6 67 11 79 42 114 29 32
34 44 30 71 -3 22 3 52 18 88 13 30 26 63 29 73 3 9 18 22 33 28 108 42 136
63 220 168 97 123 104 145 74 237 -26 78 -27 152 -4 197 l18 34 26 -29 c18
-19 37 -28 57 -28z m2346 -285 c38 -37 72 -95 58 -95 -10 0 -122 115 -122 124
0 17 34 2 64 -29z m266 -6 c0 -6 -4 -7 -10 -4 -5 3 -10 11 -10 16 0 6 5 7 10
4 6 -3 10 -11 10 -16z m165 1 c7 -12 -2 -12 -30 0 -19 8 -19 9 2 9 12 1 25 -3
28 -9z m-564 -27 c14 -16 42 -53 62 -84 21 -32 48 -60 60 -63 40 -11 117 -6
154 9 38 16 52 15 31 -2 -48 -37 -163 -44 -215 -12 -28 17 -133 154 -133 174
0 13 18 3 41 -22z m349 13 c0 -2 -9 -6 -20 -9 -11 -3 -18 -1 -14 4 5 9 34 13
34 5z m162 -38 c-9 -9 -12 -7 -12 12 0 19 3 21 12 12 9 -9 9 -15 0 -24z m-639
6 c11 -11 -3 -24 -18 -18 -8 4 -12 10 -9 15 6 11 18 12 27 3z m1432 -4 c3 -5
2 -10 -4 -10 -5 0 -13 5 -16 10 -3 6 -2 10 4 10 5 0 13 -4 16 -10z m-1525 -25
c0 -8 -4 -15 -10 -15 -5 0 -10 7 -10 15 0 8 5 15 10 15 6 0 10 -7 10 -15z
m-4910 -37 c0 -10 -4 -18 -9 -18 -11 0 -22 40 -14 53 7 12 23 -12 23 -35z
m5436 21 c47 -28 43 -34 -6 -9 -22 11 -40 23 -40 25 0 9 13 5 46 -16z m-4466
7 c0 -3 -4 -8 -10 -11 -5 -3 -10 -1 -10 4 0 6 5 11 10 11 6 0 10 -2 10 -4z
m4854 -20 c-10 -8 -21 -12 -24 -9 -3 2 4 11 14 19 11 7 22 12 25 9 2 -3 -4
-12 -15 -19z m451 14 c-3 -5 -13 -10 -21 -10 -8 0 -14 5 -14 10 0 6 9 10 21
10 11 0 17 -4 14 -10z m-1445 -10 c0 -5 -4 -10 -10 -10 -5 0 -10 5 -10 10 0 6
5 10 10 10 6 0 10 -4 10 -10z m175 -19 c-3 -6 -11 -11 -17 -11 -6 0 -6 6 2 15
14 17 26 13 15 -4z m916 -14 c-8 -8 -11 -7 -11 4 0 9 3 19 7 23 4 4 9 2 11 -4
3 -7 -1 -17 -7 -23z m454 23 c-3 -5 -11 -10 -16 -10 -6 0 -7 5 -4 10 3 6 11
10 16 10 6 0 7 -4 4 -10z m-5392 -32 c6 -8 7 -24 3 -34 -7 -19 -8 -19 -22 0
-17 24 -19 59 -2 54 6 -2 16 -11 21 -20z m3937 7 c0 -8 -4 -15 -9 -15 -13 0
-22 16 -14 24 11 11 23 6 23 -9z m1255 -14 c-3 -6 -11 -11 -17 -11 -6 0 -6 6
2 15 14 17 26 13 15 -4z m135 7 c0 -14 -40 -58 -52 -58 -15 0 -8 23 14 47 24
25 38 29 38 11z m-1470 -8 c0 -5 -5 -10 -11 -10 -5 0 -7 5 -4 10 3 6 8 10 11
10 2 0 4 -4 4 -10z m667 -113 c9 -9 34 -20 55 -23 43 -7 42 -24 -2 -24 -64 0
-119 87 -88 141 12 23 13 21 16 -26 2 -28 10 -58 19 -68z m553 104 c0 -5 -7
-14 -15 -21 -12 -10 -15 -10 -15 2 0 8 3 18 7 21 9 10 23 9 23 -2z m-1280 -10
c0 -14 -18 -23 -30 -16 -6 4 -8 11 -5 16 8 12 35 12 35 0z m257 -8 c-9 -9 -19
-14 -23 -11 -10 10 6 28 24 28 15 0 15 -1 -1 -17z m638 -13 c-8 -13 -55 -13
-75 0 -11 7 -2 10 33 10 30 0 46 -4 42 -10z m-3690 -9 c3 -5 1 -12 -5 -16 -5
-3 -10 1 -10 9 0 18 6 21 15 7z m73 -2 c-2 -6 -8 -10 -13 -10 -5 0 -11 4 -13
10 -2 6 4 11 13 11 9 0 15 -5 13 -11z m2892 1 c8 -5 11 -12 8 -16 -10 -9 -38
3 -38 16 0 12 10 13 30 0z m1150 1 c0 -5 -6 -14 -14 -20 -11 -9 -16 -9 -21 0
-4 6 -1 15 6 20 18 11 29 11 29 0z m-1235 -11 c3 -5 -1 -10 -9 -10 -9 0 -16 5
-16 10 0 6 4 10 9 10 6 0 13 -4 16 -10z m1441 -28 c-23 -23 -33 -6 -10 19 12
13 20 16 22 9 3 -7 -3 -19 -12 -28z m-1506 8 c0 -5 -7 -10 -16 -10 -8 0 -12 5
-9 10 3 6 10 10 16 10 5 0 9 -4 9 -10z m-2862 -19 c3 -8 -1 -12 -9 -9 -7 2
-15 10 -17 17 -3 8 1 12 9 9 7 -2 15 -10 17 -17z m4101 -67 c-9 -26 -64 -55
-86 -47 -20 8 -15 33 6 33 22 0 71 53 72 78 0 9 5 4 9 -11 5 -17 5 -39 -1 -53z
m-1049 57 c0 -15 -28 -33 -40 -26 -8 5 -8 11 1 21 13 15 39 19 39 5z m960 -9
c0 -13 -12 -22 -22 -16 -10 6 -1 24 13 24 5 0 9 -4 9 -8z m160 -2 c0 -5 -4
-10 -10 -10 -5 0 -10 5 -10 10 0 6 5 10 10 10 6 0 10 -4 10 -10z m-1220 -15
c0 -8 -4 -15 -10 -15 -5 0 -10 7 -10 15 0 8 5 15 10 15 6 0 10 -7 10 -15z
m940 -5 c0 -85 -109 -120 -150 -47 -20 36 -5 46 21 14 36 -46 109 -31 109 23
0 17 5 30 10 30 6 0 10 -9 10 -20z m394 14 c9 -3 16 -12 16 -20 0 -17 -12 -18
-28 -2 -22 22 -16 33 12 22z m-4329 -14 c-3 -5 -10 -10 -16 -10 -5 0 -9 5 -9
10 0 6 7 10 16 10 8 0 12 -4 9 -10z m2695 -101 c0 -22 -4 -39 -10 -39 -5 0
-10 16 -10 36 0 19 -5 44 -11 55 -6 12 -8 28 -4 37 10 25 35 -40 35 -89z m68
60 c-3 -20 -5 -19 -9 9 -3 20 -2 29 4 23 5 -5 7 -19 5 -32z m167 31 c-3 -5
-10 -10 -16 -10 -5 0 -9 5 -9 10 0 6 7 10 16 10 8 0 12 -4 9 -10z m600 0 c3
-6 -1 -7 -9 -4 -18 7 -21 14 -7 14 6 0 13 -4 16 -10z m925 6 c0 -3 -4 -8 -10
-11 -5 -3 -10 -1 -10 4 0 6 5 11 10 11 6 0 10 -2 10 -4z m-5606 -28 c12 -46 4
-108 -14 -108 -12 0 -52 100 -46 116 9 23 53 17 60 -8z m4014 -9 c-3 -8 -7 -3
-11 10 -4 17 -3 21 5 13 5 -5 8 -16 6 -23z m1402 6 c0 -8 -7 -15 -15 -15 -8 0
-15 7 -15 15 0 8 7 15 15 15 8 0 15 -7 15 -15z m-4350 -5 c0 -5 -4 -10 -10
-10 -5 0 -10 5 -10 10 0 6 5 10 10 10 6 0 10 -4 10 -10z m3190 0 c0 -5 -7 -10
-16 -10 -8 0 -12 5 -9 10 3 6 10 10 16 10 5 0 9 -4 9 -10z m164 -9 c10 -11 16
-24 15 -29 -2 -6 -16 3 -30 19 -15 16 -21 29 -14 29 6 0 20 -9 29 -19z m-349
-2 c10 -15 -1 -23 -20 -15 -9 3 -13 10 -10 16 8 13 22 13 30 -1z m565 -14 c0
-14 -4 -25 -10 -25 -11 0 -14 33 -3 43 11 11 13 8 13 -18z m-4856 -17 c8 -33
7 -78 -2 -78 -12 0 -42 56 -42 79 0 29 36 28 44 -1z m1346 3 c0 -12 -28 -22
-34 -12 -3 5 -3 11 1 15 9 9 33 7 33 -3z m3268 -7 c12 -22 -1 -80 -25 -106
-26 -29 -60 -40 -84 -28 -30 17 -22 30 17 30 65 0 89 27 62 69 -12 19 -5 51
11 51 6 0 14 -7 19 -16z m940 4 c-3 -7 -12 -14 -21 -16 -12 -2 -15 1 -11 12 7
19 38 22 32 4z m-1048 -7 c0 -12 -29 -35 -36 -28 -11 10 5 37 21 37 8 0 15 -4
15 -9z m410 -31 c8 -14 8 -26 0 -41 -14 -25 -16 -24 -23 24 -6 40 6 49 23 17z
m170 -20 c0 -5 -5 -10 -11 -10 -5 0 -7 5 -4 10 3 6 8 10 11 10 2 0 4 -4 4 -10z
m-296 -15 c-6 -16 -24 -21 -24 -7 0 11 11 22 21 22 5 0 6 -7 3 -15z m-740 -26
c-3 -5 -10 -7 -15 -3 -5 3 -7 10 -3 15 3 5 10 7 15 3 5 -3 7 -10 3 -15z m311
0 c11 -17 -1 -21 -15 -4 -8 9 -8 15 -2 15 6 0 14 -5 17 -11z m-2955 -25 c0 -8
-4 -14 -9 -14 -11 0 -22 26 -14 34 9 9 23 -3 23 -20z m3418 14 c-6 -16 -36
-34 -44 -26 -3 4 -4 14 -1 23 7 17 51 21 45 3z m397 -28 c-16 -17 -33 -30 -39
-30 -5 0 5 16 24 35 18 19 36 32 39 30 2 -3 -8 -19 -24 -35z m-3725 11 c0 -9
-24 -21 -41 -21 -5 0 -9 7 -9 15 0 9 9 15 25 15 14 0 25 -4 25 -9z m-130 -11
c0 -5 -4 -10 -10 -10 -5 0 -10 5 -10 10 0 6 5 10 10 10 6 0 10 -4 10 -10z
m3541 -19 c38 -38 39 -111 2 -111 -9 0 -13 6 -9 15 9 24 -5 76 -23 83 -18 6
-41 27 -41 36 0 17 45 2 71 -23z m-941 -28 c-11 -17 -11 -17 -6 0 3 10 6 24 7
30 0 9 2 9 5 0 3 -7 0 -20 -6 -30z m1370 11 c0 -16 -16 -19 -25 -4 -8 13 4 32
16 25 5 -4 9 -13 9 -21z m-765 6 c-27 -12 -77 -12 -95 0 -10 7 5 10 50 9 45 0
59 -3 45 -9z m-530 -30 c19 -37 19 -74 0 -90 -18 -15 -18 -15 -5 30 7 26 6 39
-5 57 -15 23 -18 33 -10 33 2 0 11 -13 20 -30z m369 14 c9 -8 16 -27 15 -42
-1 -27 -1 -27 -10 3 -5 20 -19 35 -36 42 -25 10 -26 11 -6 12 12 1 29 -6 37
-15z m-2939 -4 c8 -13 -13 -40 -31 -40 -17 0 -18 22 -2 38 15 15 25 15 33 2z
m339 -31 c3 -17 6 -63 6 -101 0 -60 -2 -69 -17 -66 -11 2 -21 20 -29 51 -17
66 -39 97 -70 97 -25 0 -28 -3 -39 -53 -3 -16 -11 -27 -18 -24 -41 13 10 87
76 110 67 24 84 22 91 -14z m2430 15 c16 -40 -13 -118 -53 -142 -29 -17 -26
-5 10 36 26 30 30 41 27 78 -3 44 5 58 16 28z m106 -40 c0 -28 -10 -54 -20
-54 -5 0 -4 14 1 32 7 24 5 38 -8 57 l-16 26 21 -19 c12 -11 22 -29 22 -42z
m454 25 c-7 -11 -44 -12 -44 -1 0 4 5 13 12 20 13 13 42 -4 32 -19z m-3274 -9
c0 -5 -4 -10 -10 -10 -5 0 -10 5 -10 10 0 6 5 10 10 10 6 0 10 -4 10 -10z
m3085 -4 c18 -13 18 -14 -8 -9 -15 3 -30 9 -33 14 -8 14 20 10 41 -5z m821
-17 c26 -7 53 -22 64 -37 25 -31 26 -50 3 -30 -21 17 -79 44 -108 50 -21 5
-89 -24 -100 -42 -7 -12 -35 -14 -35 -2 0 19 28 44 65 57 49 17 55 18 111 4z
m-730 -26 c-10 -10 -19 5 -10 18 6 11 8 11 12 0 2 -7 1 -15 -2 -18z m-307 -36
c-1 -21 -3 -25 -6 -12 -3 11 -9 25 -14 31 -5 6 -6 14 -3 17 13 13 24 -5 23
-36z m-2982 18 c9 -25 -4 -29 -17 -6 -7 15 -7 21 0 21 6 0 13 -7 17 -15z m98
5 c3 -5 1 -10 -4 -10 -6 0 -11 5 -11 10 0 6 2 10 4 10 3 0 8 -4 11 -10z m3005
0 c0 -5 -11 -10 -24 -10 -14 0 -28 5 -31 10 -4 6 7 10 24 10 17 0 31 -4 31
-10z m-410 -20 c13 -25 -9 -78 -40 -98 -26 -16 -25 -4 2 25 15 17 21 34 20 58
-3 40 2 44 18 15z m495 10 c-3 -5 -11 -10 -16 -10 -6 0 -7 5 -4 10 3 6 11 10
16 10 6 0 7 -4 4 -10z m302 -4 c-27 -21 -92 -28 -124 -14 -26 12 -23 13 47 18
41 4 80 7 85 8 6 1 2 -5 -8 -12z m-3429 -25 c3 -8 -1 -12 -9 -9 -7 2 -15 10
-17 17 -3 8 1 12 9 9 7 -2 15 -10 17 -17z m3779 -54 c-11 -29 -12 -30 -15 -9
-4 30 5 55 17 47 6 -3 5 -18 -2 -38z m-3600 17 c-3 -3 -12 -4 -19 -1 -8 3 -5
6 6 6 11 1 17 -2 13 -5z m2588 -46 c8 -28 15 -72 14 -97 -1 -41 -3 -37 -19 41
-10 48 -21 92 -25 97 -3 6 -2 11 4 11 6 0 17 -23 26 -52z m69 -13 l6 -40 -15
30 c-16 33 -21 91 -6 65 5 -8 12 -33 15 -55z m-2894 9 c0 -24 -4 -34 -12 -32
-15 5 -22 42 -14 64 10 25 26 5 26 -32z m885 36 c3 -5 1 -10 -4 -10 -6 0 -11
5 -11 10 0 6 2 10 4 10 3 0 8 -4 11 -10z m-729 -21 c3 -6 -1 -18 -10 -27 -15
-15 -18 -15 -26 -2 -5 9 -5 19 2 27 13 16 25 17 34 2z m104 2 c0 -6 -4 -13
-10 -16 -5 -3 -10 1 -10 9 0 9 5 16 10 16 6 0 10 -4 10 -9z m246 -28 c-10 -10
-19 5 -10 18 6 11 8 11 12 0 2 -7 1 -15 -2 -18z m46 5 c-7 -7 -12 -8 -12 -2 0
14 12 26 19 19 2 -3 -1 -11 -7 -17z m-610 -20 c-9 -9 -12 -7 -12 12 0 19 3 21
12 12 9 -9 9 -15 0 -24z m782 17 c-4 -8 -18 -18 -33 -21 -14 -4 -32 -11 -39
-17 -7 -5 -15 -7 -18 -4 -10 10 6 27 25 27 10 0 24 7 31 15 16 20 41 20 34 0z
m-490 -46 c-7 -12 -54 -12 -54 1 0 16 34 29 47 18 7 -6 10 -14 7 -19z m-154
11 c0 -5 -4 -10 -10 -10 -5 0 -10 5 -10 10 0 6 5 10 10 10 6 0 10 -4 10 -10z
m911 -26 c38 -19 70 -67 76 -113 7 -50 -13 -62 -21 -13 -9 54 -41 101 -82 118
-45 19 -53 13 -47 -34 3 -22 -1 -51 -10 -72 l-15 -35 -1 65 c-1 36 -5 72 -11
80 -21 33 51 36 111 4z m-426 -24 c19 0 20 -19 0 -26 -12 -5 -13 -9 -4 -20 9
-12 8 -18 -7 -29 -24 -18 -41 -19 -47 -2 -4 7 -8 3 -12 -10 -4 -13 -10 -23
-12 -23 -11 0 -53 46 -53 59 0 10 10 12 45 7 29 -5 45 -3 45 3 0 6 -20 16 -45
22 -25 6 -45 14 -45 18 0 11 50 29 69 24 10 -3 22 1 27 8 5 9 10 6 15 -9 5
-12 15 -22 24 -22z m915 -1 c0 -5 -4 -9 -10 -9 -5 0 -10 7 -10 16 0 8 5 12 10
9 6 -3 10 -10 10 -16z m-1329 -14 c-1 -15 -24 -12 -29 3 -3 9 2 13 12 10 10
-1 17 -7 17 -13z m-141 -5 c0 -5 -4 -10 -9 -10 -6 0 -13 5 -16 10 -3 6 1 10 9
10 9 0 16 -4 16 -10z m1663 -51 c-29 -54 -81 -114 -91 -105 -2 3 11 23 31 45
20 22 46 59 57 82 12 22 24 39 27 36 3 -3 -8 -29 -24 -58z m-279 24 c-8 -39
-54 -133 -64 -133 -5 0 8 36 27 80 20 44 38 80 40 80 2 0 1 -12 -3 -27z m1281
18 c3 -5 1 -12 -5 -16 -5 -3 -10 1 -10 9 0 18 6 21 15 7z m-1806 -5 c-11 -9
-69 -15 -64 -6 3 6 20 10 37 10 17 0 29 -2 27 -4z m-759 -39 c0 -20 -1 -20
-16 -5 -9 9 -13 21 -9 27 10 16 25 3 25 -22z m1370 13 c20 -20 27 -71 14 -104
-12 -30 -22 -16 -17 22 4 32 1 44 -21 67 -14 15 -26 30 -26 31 0 12 33 1 50
-16z m-1550 -19 c-13 -24 -48 -37 -63 -22 -8 8 -5 11 10 11 11 0 26 7 33 15
18 22 33 19 20 -4z m-104 -2 c8 -14 -18 -31 -30 -19 -9 9 0 30 14 30 5 0 12
-5 16 -11z m239 -9 c3 -5 1 -10 -4 -10 -6 0 -11 5 -11 10 0 6 2 10 4 10 3 0 8
-4 11 -10z m165 -9 c0 -23 -16 -36 -25 -21 -9 14 1 40 15 40 5 0 10 -9 10 -19z
m596 -4 c-11 -7 -28 -20 -38 -30 -30 -28 -34 -12 -5 17 15 14 34 26 44 25 17
0 17 -1 -1 -12z m610 -13 c10 -15 10 -25 -1 -49 l-13 -30 -1 37 c-1 20 -5 40
-11 43 -14 9 -13 28 2 23 6 -2 17 -13 24 -24z m-846 -4 c12 -8 11 -10 -7 -10
-13 0 -23 5 -23 10 0 13 11 13 30 0z m110 -7 c0 -9 -8 -25 -17 -36 -14 -14
-18 -35 -17 -86 1 -52 0 -61 -8 -41 -12 30 -5 129 11 159 14 25 31 28 31 4z
m-520 -45 c0 -27 -34 -19 -38 9 -3 17 1 20 17 16 12 -3 21 -14 21 -25z m255
22 c-3 -5 -15 -10 -26 -10 -11 0 -17 5 -14 10 3 6 15 10 26 10 11 0 17 -4 14
-10z m338 -39 c34 -13 27 -31 -12 -31 -33 0 -66 32 -57 56 6 15 8 15 24 1 9
-9 30 -20 45 -26z m517 8 c0 -42 -27 -95 -60 -119 -16 -11 -31 -20 -34 -20
-15 0 -3 27 23 55 16 16 33 42 36 58 7 26 6 27 -33 27 -22 0 -54 3 -72 6 -51
11 -14 24 68 24 l72 0 0 -31z m-442 -14 c-28 -42 -44 -46 -23 -6 12 24 22 34
43 40 1 1 -8 -15 -20 -34z m-583 7 c0 -18 -20 -15 -23 4 -3 10 1 15 10 12 7
-3 13 -10 13 -16z m743 -11 c4 -24 4 -24 -23 -7 -26 17 -27 17 -41 -1 -11 -15
-13 -15 -14 -2 -1 44 72 53 78 10z m382 -37 c0 -21 -25 -62 -33 -54 -3 3 0 27
6 53 10 47 27 48 27 1z m90 -8 c0 -6 -7 -2 -15 8 -8 11 -15 25 -15 30 0 6 7 2
15 -8 8 -11 15 -25 15 -30z m1057 27 c3 -10 17 -30 30 -44 20 -22 22 -31 16
-74 -4 -31 -15 -58 -29 -72 -21 -21 -29 -23 -96 -17 -98 8 -133 20 -163 55
-36 44 -35 101 4 140 29 28 32 29 131 29 87 0 101 -2 107 -17z m-1627 -50
c-12 -8 -24 -12 -28 -8 -9 9 28 36 40 29 5 -4 0 -13 -12 -21z m130 -16 c0 -11
7 -28 15 -37 9 -10 13 -25 9 -34 -9 -23 -23 -20 -17 4 3 12 -1 22 -11 26 -10
4 -16 18 -16 35 0 16 -5 29 -11 29 -5 0 -7 5 -4 10 10 16 35 -8 35 -33z m-190
14 c0 -5 -9 -13 -21 -16 -19 -6 -19 -8 -4 -32 20 -29 14 -41 -9 -18 -21 21
-20 51 2 64 22 13 32 14 32 2z m-1264 -58 c-10 -10 -19 5 -10 18 6 11 8 11 12
0 2 -7 1 -15 -2 -18z m884 18 c0 -6 -4 -13 -10 -16 -20 -12 -9 -44 23 -69 34
-27 25 -34 -18 -14 -31 14 -42 51 -25 84 13 24 30 32 30 15z m153 -2 c-17 -17
-89 -23 -98 -9 -6 10 0 12 27 7 19 -3 41 -1 49 4 20 12 35 11 22 -2z m542 -19
c7 -31 1 -50 -16 -50 -5 0 -9 18 -9 40 0 47 16 53 25 10z m243 -12 c-2 -34 -8
-45 -30 -57 -37 -21 -47 -6 -15 23 16 15 27 36 27 51 0 14 5 25 11 25 6 0 9
-17 7 -42z m-1014 -14 c3 -8 1 -14 -4 -14 -13 0 -50 37 -50 50 0 14 47 -17 54
-36z m581 36 c29 -11 31 -36 3 -54 -13 -8 -22 -5 -42 13 -27 25 -72 22 -62 -5
3 -8 1 -14 -4 -14 -19 0 -10 29 16 49 30 23 50 26 89 11z m599 -54 c14 -18 17
-29 9 -37 -7 -7 -12 -1 -16 21 -5 24 -13 32 -37 36 -16 4 -27 10 -25 15 9 13
48 -6 69 -35z m-847 18 c-3 -3 -12 -4 -19 -1 -8 3 -5 6 6 6 11 1 17 -2 13 -5z
m516 -24 c29 -34 50 -90 45 -122 -3 -25 2 -24 -108 -10 l-55 8 41 13 c31 10
46 11 62 2 32 -17 42 -13 42 15 0 36 -16 61 -50 79 -17 9 -30 22 -30 30 0 24
27 17 53 -15z m227 15 c0 -8 -4 -15 -10 -15 -5 0 -10 7 -10 15 0 8 5 15 10 15
6 0 10 -7 10 -15z m-833 -57 c-2 -13 -4 -3 -4 22 0 25 2 35 4 23 2 -13 2 -33
0 -45z m137 47 c-4 -8 1 -26 10 -40 17 -26 9 -34 -12 -13 -14 14 -16 68 -2 68
5 0 7 -7 4 -15z m856 5 c0 -5 -4 -10 -10 -10 -5 0 -10 5 -10 10 0 6 5 10 10
10 6 0 10 -4 10 -10z m-1044 -24 c10 -8 16 -17 12 -21 -8 -8 -48 13 -48 25 0
14 13 12 36 -4z m971 -50 c37 -54 46 -87 11 -38 -13 17 -34 45 -47 63 -14 18
-18 30 -11 27 8 -2 29 -26 47 -52z m-532 25 c3 -5 1 -12 -4 -15 -12 -8 -41 3
-41 15 0 12 37 12 45 0z m-1453 -18 c10 -9 18 -21 18 -27 0 -8 -3 -8 -8 0 -4
5 -18 18 -32 27 -13 9 -18 17 -11 17 8 0 23 -7 33 -17z m1543 7 c-3 -5 -18
-10 -33 -10 -21 0 -24 2 -12 10 20 13 53 13 45 0z m340 -10 c0 -17 -61 -54
-75 -45 -15 9 -12 25 5 25 8 0 23 9 32 20 19 22 38 22 38 0z m1278 2 c21 -23
40 -74 30 -82 -4 -4 -30 -11 -57 -15 l-49 -7 7 48 c9 71 36 93 69 56z m-3065
-23 c8 -12 11 -23 8 -26 -6 -6 -45 37 -46 49 0 13 25 -2 38 -23z m1672 1 c8
-5 11 -12 8 -16 -10 -9 -38 3 -38 16 0 12 10 13 30 0z m295 0 c3 -5 -3 -10
-14 -10 -12 0 -21 5 -21 10 0 6 6 10 14 10 8 0 18 -4 21 -10z m-865 -5 c0 -23
-35 -65 -62 -74 -32 -12 -32 -13 -14 -27 26 -18 89 -18 126 1 36 19 48 3 19
-24 -44 -41 -146 -36 -195 10 -33 31 -30 44 15 59 21 7 52 23 67 36 28 23 44
29 44 19z m241 -38 c-8 -8 -11 -7 -11 4 0 20 13 34 18 19 3 -7 -1 -17 -7 -23z
m89 24 c0 -15 -30 -41 -46 -41 -10 0 -5 9 13 25 32 28 33 28 33 16z m420 -37
l0 -47 -47 7 c-26 3 -52 11 -58 17 -9 11 7 10 65 -3 9 -2 18 11 24 35 5 20 11
37 13 37 2 0 3 -21 3 -46z m-1919 14 c72 -21 125 -132 85 -177 -9 -9 -13 -20
-10 -23 3 -3 1 -9 -5 -13 -7 -4 -11 5 -11 24 0 16 6 32 13 34 9 4 9 8 -2 15
-9 7 -10 12 -2 16 17 11 13 44 -6 55 -10 6 -13 11 -8 11 20 0 -50 40 -72 40
-28 0 -53 10 -53 21 0 12 25 11 71 -3z m1327 -21 c10 4 13 2 8 -5 -11 -18 -41
-14 -61 8 -19 21 -19 21 9 6 16 -8 35 -12 44 -9z m733 -24 c-9 -16 -10 -16
-11 -1 0 9 3 25 7 35 7 16 8 17 11 1 2 -10 -1 -25 -7 -35z m-1901 20 c0 -5 -7
-17 -15 -27 -15 -20 -20 -10 -9 18 6 16 24 22 24 9z m1630 -40 c17 -26 30 -56
30 -67 0 -13 -14 4 -35 44 -19 35 -35 65 -35 67 0 12 15 -4 40 -44z m-272 25
c17 -17 14 -77 -7 -123 -20 -45 -35 -59 -69 -68 -25 -6 -35 9 -48 78 -8 47 11
40 24 -7 4 -18 13 -33 19 -35 15 -5 53 89 53 131 0 38 8 44 28 24z m472 -12
c0 -8 -7 -17 -16 -20 -8 -3 -12 -10 -9 -16 3 -5 -1 -10 -9 -10 -21 0 -20 19 1
42 19 21 33 23 33 4z m-383 -53 c-53 -48 -64 -41 -14 10 23 23 44 38 46 33 2
-5 -12 -24 -32 -43z m83 -8 c0 -14 -4 -25 -10 -25 -5 0 -10 4 -10 9 0 5 -3 16
-6 25 -4 11 -1 16 10 16 10 0 16 -9 16 -25z m214 -1 c9 -24 4 -26 -34 -12 -30
10 -32 12 -14 19 30 12 41 10 48 -7z m512 -45 c-8 -40 -45 -124 -51 -117 -3 3
4 32 16 64 12 32 23 65 25 72 7 26 16 10 10 -19z m190 -5 c-4 -14 -9 -24 -12
-21 -3 2 -2 17 2 31 3 15 9 25 11 22 3 -3 2 -17 -1 -32z m-1303 1 c58 1 66 -1
51 -12 -24 -18 -89 -16 -124 2 -32 16 -43 33 -12 19 9 -5 48 -9 85 -9z m328
-15 c5 0 9 -11 9 -25 0 -14 10 -35 21 -46 l22 -22 -23 -17 c-19 -14 -21 -20
-11 -38 18 -34 -4 -26 -40 16 l-33 37 39 3 38 3 -32 20 c-26 16 -30 23 -21 34
9 10 7 15 -9 20 -17 5 -19 10 -11 26 10 17 13 18 26 4 9 -8 20 -15 25 -15z
m49 -7 c-1 -24 -2 -26 -11 -10 -5 9 -7 22 -4 27 10 17 15 11 15 -17z m71 9
c28 -23 11 -37 -19 -16 -22 15 -29 34 -13 34 5 0 19 -8 32 -18z m266 -17 c-9
-7 -14 -15 -10 -18 3 -4 0 -8 -8 -11 -8 -2 -33 -9 -57 -17 -33 -10 -45 -10
-55 0 -9 9 -6 13 13 18 13 4 47 18 75 33 47 25 77 21 42 -5z m509 -11 c-8 -21
-15 -34 -15 -28 -1 15 20 76 25 71 2 -2 -2 -21 -10 -43z m-377 3 c0 -21 -1
-21 -9 -2 -12 28 -12 37 0 30 6 -3 10 -16 9 -28z m1667 6 c5 -15 19 -48 32
-76 6 -12 -68 -38 -101 -35 -27 2 -33 -1 -35 -19 -6 -40 -20 -25 -32 32 -11
54 -11 56 17 85 23 24 36 30 71 30 32 0 44 -4 48 -17z m-1979 -35 c-3 -8 -6
-5 -6 6 -1 11 2 17 5 13 3 -3 4 -12 1 -19z m-717 -18 c22 -19 23 -39 1 -25
-11 6 -35 45 -28 45 2 0 14 -9 27 -20z m218 -13 c31 -28 30 -50 -2 -36 -20 9
-46 46 -46 65 0 7 21 -6 48 -29z m982 23 c-8 -5 -23 -10 -33 -10 -32 0 -77
-30 -83 -55 -7 -29 -24 -34 -24 -7 0 19 29 51 65 70 26 15 97 16 75 2z m-613
-37 c-4 -16 -11 -46 -16 -68 l-10 -40 4 49 c3 27 5 57 5 67 0 11 5 19 11 19 7
0 9 -11 6 -27z m-266 -84 c22 -17 23 -19 4 -19 -13 0 -28 14 -43 41 -20 34
-21 43 -10 56 11 14 14 11 19 -22 4 -23 16 -45 30 -56z m16 78 c11 4 14 2 9
-5 -8 -14 -46 -16 -46 -4 0 14 14 24 18 13 2 -5 10 -7 19 -4z m-421 -12 c10
-8 14 -15 8 -15 -5 0 -19 7 -30 15 -10 8 -14 15 -8 15 5 0 19 -7 30 -15z m722
-32 c-2 -20 -8 -38 -13 -40 -7 -2 -9 12 -7 37 2 22 8 40 14 40 5 0 8 -17 6
-37z m-465 -40 c14 -16 16 -23 7 -23 -20 0 -50 30 -50 50 0 24 14 35 18 13 2
-10 13 -28 25 -40z m299 40 c8 -10 19 -25 23 -33 6 -12 5 -13 -5 -3 -11 10
-17 9 -32 -4 -17 -15 -19 -15 -37 1 -12 11 -21 14 -26 7 -3 -6 -11 -11 -16
-11 -5 0 -2 12 8 26 l17 26 18 -22 18 -22 0 26 c0 30 11 33 32 9z m-107 -3
c-3 -5 -13 -10 -21 -10 -8 0 -12 5 -9 10 3 6 13 10 21 10 8 0 12 -4 9 -10z
m525 -6 c0 -9 -68 -34 -93 -34 -14 0 -30 7 -37 15 -10 12 -2 15 52 18 35 2 66
4 71 5 4 1 7 0 7 -4z m-623 -70 c-7 -7 -37 7 -37 17 0 6 9 5 21 -1 11 -7 19
-14 16 -16z m133 12 c0 -11 -19 -15 -25 -6 -3 5 1 10 9 10 9 0 16 -2 16 -4z
m112 -13 c32 -10 58 -23 58 -30 0 -8 -13 -6 -42 7 -24 11 -58 20 -76 20 -20 0
-31 4 -27 10 8 14 20 13 87 -7z m-372 -23 c-6 -11 -15 -20 -20 -20 -14 0 -12
27 3 33 23 10 28 7 17 -13z m200 -5 c14 5 20 2 20 -9 0 -19 -40 -22 -58 -4
-17 17 -15 33 3 18 8 -6 23 -9 35 -5z m-1370 -5 c0 -12 -28 -25 -36 -17 -9 9
6 27 22 27 8 0 14 -5 14 -10z m1477 -27 c-8 -8 -23 -13 -33 -10 -17 4 -17 6 4
12 12 4 22 12 22 17 0 5 5 6 11 2 7 -4 6 -11 -4 -21z m138 -79 c-8 -20 -17
-35 -20 -33 -4 5 12 85 22 109 15 34 13 -40 -2 -76z m-1715 23 c0 -5 -7 -4
-15 3 -8 7 -15 20 -15 29 1 13 3 13 15 -3 8 -11 15 -24 15 -29z m1605 22 c10
-15 -1 -23 -20 -15 -9 3 -13 10 -10 16 8 13 22 13 30 -1z m-2565 -17 c0 -10 7
-27 15 -39 13 -19 20 -21 42 -12 34 13 53 5 53 -22 0 -11 9 -32 20 -46 11 -14
20 -37 20 -51 0 -27 -25 -62 -45 -62 -6 0 -44 -20 -85 -45 -41 -24 -85 -45
-96 -45 -27 0 -70 34 -89 70 -13 25 -12 31 12 77 17 32 40 57 62 69 30 16 35
24 33 48 -4 32 21 76 43 76 8 0 15 -8 15 -18z m1041 -15 c-16 -16 -26 0 -10
19 9 11 15 12 17 4 2 -6 -1 -17 -7 -23z m1447 10 c2 -11 -3 -17 -17 -17 -23 0
-35 15 -26 31 10 15 39 6 43 -14z m-88 -7 c0 -11 -2 -20 -5 -20 -2 0 -9 9 -15
20 -9 16 -8 20 5 20 8 0 15 -9 15 -20z m112 -72 c-9 -9 -15 -9 -24 0 -9 9 -7
12 12 12 19 0 21 -3 12 -12z m-2260 -240 c-7 -7 -12 -8 -12 -2 0 14 12 26 19
19 2 -3 -1 -11 -7 -17z m-146 3 c5 -5 23 -11 39 -13 l30 -3 -33 -18 c-40 -22
-75 -19 -80 7 -5 27 25 45 44 27z m5030 -32 c14 -40 60 -245 70 -306 7 -47
-11 -62 -22 -18 -10 39 -27 48 -61 29 l-29 -17 -51 49 c-51 49 -52 51 -43 89
6 22 7 59 4 83 l-6 42 36 0 c47 0 80 31 71 67 -9 39 18 23 31 -18z m-4376 -4
c19 -23 -2 -62 -45 -82 -45 -22 -56 -10 -22 25 15 16 27 35 27 43 0 31 21 37
40 14z m176 -43 c-11 -10 -14 3 -8 33 l7 30 3 -28 c2 -16 1 -31 -2 -35z m105
-88 c40 -20 31 -28 -18 -15 -65 18 -91 14 -124 -21 -24 -27 -29 -29 -29 -13 0
10 10 29 22 42 26 28 102 32 149 7z m-407 -59 c-4 -8 -10 -12 -15 -9 -11 6 -2
24 11 24 5 0 7 -7 4 -15z m376 -10 c30 -16 43 -49 15 -39 -8 4 -15 10 -15 15
0 5 -16 9 -35 9 -33 0 -43 8 -28 23 10 11 32 8 63 -8z m-169 -26 c44 -15 99
-56 99 -75 0 -18 -14 -18 -30 1 -9 11 -26 15 -54 13 -33 -2 -41 -7 -46 -27
-13 -58 -40 -25 -40 50 0 53 10 58 71 38z m304 -19 c8 -13 -5 -13 -25 0 -13 8
-13 10 2 10 9 0 20 -4 23 -10z m55 -29 c0 -12 -29 -35 -36 -28 -11 10 5 37 21
37 8 0 15 -4 15 -9z m-103 -88 c-10 -10 -16 0 -22 38 l-6 34 17 -32 c10 -18
14 -36 11 -40z m-1554 -28 c-4 -116 -39 -145 -61 -50 -12 49 -11 59 5 88 40
72 59 60 56 -38z m1417 51 c0 -9 -61 -48 -67 -43 -3 3 10 15 28 26 36 22 39
23 39 17z m350 -11 c-7 -8 -17 -15 -22 -15 -6 0 -5 7 2 15 7 8 17 15 22 15 6
0 5 -7 -2 -15z m-135 -20 c0 -12 -8 -21 -20 -22 -11 -2 -14 0 -7 3 18 8 15 32
-5 38 -11 3 -7 4 7 3 18 -1 25 -8 25 -22z m-315 -13 c0 -4 -21 -13 -46 -20
-25 -7 -71 -29 -102 -50 -84 -57 -93 -58 -37 -8 27 26 68 55 90 66 40 20 95
27 95 12z m4229 -18 c19 -14 22 -22 16 -50 -5 -28 -1 -41 21 -70 21 -27 25
-40 18 -52 -23 -36 -41 -38 -99 -7 -48 26 -55 34 -55 60 0 66 32 135 63 135 7
0 23 -7 36 -16z m-4168 -62 c-18 -36 -19 -41 -4 -85 8 -26 19 -47 24 -47 5 0
6 7 3 15 -8 20 10 19 27 -1 11 -14 10 -18 -6 -30 -32 -23 -58 -14 -66 24 -4
18 -14 41 -23 51 -15 16 -15 19 3 35 11 10 25 31 31 47 7 16 16 29 21 29 5 0
1 -17 -10 -38z m268 -20 c-4 -2 -17 2 -29 8 -11 6 -31 8 -43 4 -21 -6 -22 -6
-4 14 l18 20 33 -21 c18 -12 30 -23 25 -25z m-119 8 c-8 -5 -19 -10 -25 -10
-5 0 -3 5 5 10 8 5 20 10 25 10 6 0 3 -5 -5 -10z m-250 -40 c-6 -12 -14 -19
-17 -17 -2 3 1 15 7 27 6 12 14 19 17 17 2 -3 -1 -15 -7 -27z m370 -20 c0 -34
-79 -66 -95 -40 -4 7 2 9 19 4 19 -4 30 0 48 19 27 29 28 30 28 17z m-420 -20
c0 -5 -9 -14 -20 -20 -22 -12 -27 -1 -8 18 14 14 28 16 28 2z m90 -62 c0 -13
0 -14 -29 32 l-23 35 26 -28 c14 -15 26 -33 26 -39z m200 33 c0 -12 -20 -25
-27 -18 -7 7 6 27 18 27 5 0 9 -4 9 -9z m224 -7 c3 -8 2 -12 -4 -9 -6 3 -10
10 -10 16 0 14 7 11 14 -7z m-174 -39 c0 -2 -14 -12 -31 -20 -40 -21 -63 -13
-24 8 29 16 55 22 55 12z m-318 -78 c-23 -23 -56 -51 -74 -61 -23 -13 -14 0
32 43 74 69 105 82 42 18z m188 14 c23 -10 37 -21 32 -25 -6 -3 -30 5 -54 19
-51 29 -38 33 22 6z m275 8 c11 -17 -1 -21 -15 -4 -8 9 -8 15 -2 15 6 0 14 -5
17 -11z m-235 -89 c0 -11 -4 -20 -10 -20 -5 0 -10 9 -10 20 0 11 5 20 10 20 6
0 10 -9 10 -20z m161 -69 c-13 -23 -60 -51 -86 -51 -9 0 -13 5 -10 10 3 6 17
10 30 10 14 0 33 12 47 29 26 32 35 33 19 2z m-66 -1 c-3 -5 -10 -10 -16 -10
-5 0 -9 5 -9 10 0 6 7 10 16 10 8 0 12 -4 9 -10z m-320 -41 c-22 -22 -49 -45
-60 -50 -11 -6 4 13 33 40 64 61 82 68 27 10z m185 26 c0 -4 -19 -15 -42 -25
-47 -21 -103 -26 -113 -10 -4 6 13 10 42 10 28 0 58 6 69 15 19 14 44 20 44
10z m40 -90 c0 -19 -5 -19 -24 1 -23 22 -20 37 4 24 11 -6 20 -17 20 -25z
m-160 -27 c-12 -10 -33 -18 -47 -18 -29 0 -63 17 -63 31 0 6 7 6 19 -1 29 -15
56 -12 82 9 15 12 25 15 28 8 2 -6 -6 -19 -19 -29z m280 22 c-37 -20 -80 -26
-80 -11 0 5 21 13 48 19 68 14 71 13 32 -8z m-396 -75 c-4 -8 1 -27 11 -41 22
-33 9 -46 -16 -15 -19 23 -25 52 -12 64 12 13 22 7 17 -8z m103 -52 c-17 -32
-45 -59 -53 -51 -2 3 8 26 23 51 30 49 55 49 30 0z m307 23 c-6 -16 -24 -23
-24 -8 0 10 22 33 27 28 2 -2 1 -11 -3 -20z m-1274 -39 c14 -21 36 -43 49 -50
37 -18 62 -59 66 -107 2 -24 9 -56 15 -71 21 -49 10 -72 -39 -86 -60 -17 -68
-26 -47 -57 23 -36 21 -43 -21 -53 -53 -12 -54 -38 -3 -88 44 -43 49 -55 22
-55 -29 0 -32 -10 -17 -47 13 -30 13 -35 -2 -40 -25 -10 -60 39 -73 103 -11
54 -10 96 5 157 5 19 0 43 -15 79 -18 43 -22 65 -18 125 4 64 2 77 -19 107
-30 45 -29 50 7 76 17 12 30 28 30 36 0 27 33 11 60 -29z m1160 22 c0 -10 -21
-12 -44 -3 -27 10 -18 21 14 16 17 -2 30 -8 30 -13z m180 -14 c-7 -8 -22 -15
-34 -15 -21 1 -21 1 -2 15 27 21 53 20 36 0z m-389 -68 c-10 -9 -11 -8 -5 6 3
10 9 15 12 12 3 -3 0 -11 -7 -18z m139 6 c0 -4 -10 -17 -22 -30 -22 -24 -53
-29 -77 -14 -22 14 -3 31 34 31 19 0 37 5 40 10 7 11 25 14 25 3z m250 -53 c0
-13 -1 -13 -10 0 -5 8 -10 22 -10 30 0 13 1 13 10 0 5 -8 10 -22 10 -30z
m-225 1 c3 -5 1 -12 -5 -16 -5 -3 -10 1 -10 9 0 18 6 21 15 7z m-169 -67 c-10
-13 -21 -22 -27 -19 -5 4 0 20 13 37 25 37 38 20 14 -18z m225 29 c-5 -10 -13
-27 -17 -38 -7 -19 -8 -19 -12 3 -4 23 13 52 29 52 5 0 5 -8 0 -17z m4239 11
c0 -3 11 -75 25 -161 14 -86 24 -157 22 -159 -1 -1 -23 17 -49 41 -60 56 -70
103 -39 190 12 33 21 67 21 77 0 10 5 18 10 18 6 0 10 -2 10 -6z m-4307 -31
c3 -5 -6 -16 -19 -26 -22 -17 -25 -17 -31 -2 -9 24 37 49 50 28z m139 -10 c-8
-3 -22 -19 -33 -37 -14 -24 -19 -27 -19 -12 0 25 28 56 49 55 12 0 12 -2 3 -6z
m-232 -33 c-6 -12 -14 -19 -17 -17 -2 3 1 15 7 27 6 12 14 19 17 17 2 -3 -1
-15 -7 -27z m-795 -196 c9 -14 19 -41 22 -59 4 -27 0 -39 -20 -59 -31 -31 -38
-32 -67 -8 -22 17 -22 19 -6 50 9 17 16 44 16 60 0 49 27 58 55 16z m1425 -50
c0 -3 -12 -15 -26 -26 -14 -12 -30 -31 -34 -44 -12 -31 -30 -31 -30 0 0 33 37
76 66 76 13 0 24 -3 24 -6z m45 -71 c3 -13 2 -23 -3 -23 -11 0 -22 24 -22 48
0 21 15 5 25 -25z m3715 -13 c15 -15 20 -33 20 -78 0 -32 -3 -61 -6 -65 -4 -3
-21 8 -39 26 -18 18 -40 38 -49 45 -23 18 -20 58 6 76 30 21 44 20 68 -4z
m-3727 -92 c12 -9 18 -20 14 -24 -4 -4 -18 3 -32 16 -18 17 -25 33 -24 59 l1
36 10 -35 c5 -19 19 -43 31 -52z m-243 52 c-6 -11 -15 -20 -21 -20 -6 0 -6 7
1 20 6 11 15 20 21 20 6 0 6 -7 -1 -20z m329 6 c8 -10 9 -16 1 -21 -20 -12
-10 -45 18 -57 56 -24 80 -58 41 -58 -61 0 -119 74 -99 125 11 28 22 31 39 11z
m-397 -21 c13 -29 6 -40 -19 -31 -14 6 -15 9 -3 16 11 7 11 11 1 24 -9 11 -10
16 -2 16 6 0 17 -11 23 -25z m238 14 c0 -7 -10 -27 -22 -47 -17 -28 -19 -38
-10 -53 17 -27 14 -38 -3 -15 -19 25 -19 59 0 96 15 30 35 40 35 19z m-310
-58 c0 -36 -35 -81 -64 -81 -12 0 -31 7 -42 15 -18 13 -16 14 23 15 45 0 63
17 63 59 0 12 5 21 10 21 6 0 10 -13 10 -29z m70 -45 c0 -35 -58 -93 -105
-105 -61 -16 -66 -15 -53 14 10 23 12 23 24 7 7 -9 14 -12 14 -6 0 7 16 15 36
18 29 6 34 10 29 27 -5 14 -2 19 10 19 11 0 15 5 12 14 -3 8 1 17 9 20 9 3 12
11 8 17 -4 8 -3 9 4 5 7 -4 12 -18 12 -30z m352 -34 c13 2 25 -1 28 -7 10 -20
-56 -16 -83 5 -37 29 -34 47 3 20 16 -11 40 -20 52 -18z m-549 -26 c19 -15 23
-36 5 -36 -14 0 -48 30 -48 42 0 12 23 9 43 -6z m461 -26 c3 -19 15 -34 31
-42 25 -11 29 -28 9 -35 -6 -2 -23 6 -37 17 -20 16 -27 30 -27 56 0 42 15 45
24 4z m206 22 c0 -4 -7 -18 -16 -30 -11 -16 -25 -22 -55 -22 -21 0 -39 5 -39
10 0 6 13 10 28 10 16 0 37 9 47 20 18 20 35 26 35 12z m48 -54 c-5 -16 -48
-24 -48 -10 0 11 17 20 38 21 8 1 12 -5 10 -11z m-458 -37 c0 -4 -3 -11 -7
-14 -8 -9 -34 13 -28 24 6 9 35 1 35 -10z m315 -11 c3 -5 1 -10 -4 -10 -6 0
-11 5 -11 10 0 6 2 10 4 10 3 0 8 -4 11 -10z m85 -25 c-7 -8 -22 -15 -34 -15
-17 1 -16 3 9 15 39 18 40 18 25 0z m-505 -4 c8 -14 -13 -24 -33 -16 -14 5
-14 7 -2 15 19 12 27 12 35 1z m70 -22 c10 -15 -1 -23 -20 -15 -9 3 -13 10
-10 16 8 13 22 13 30 -1z m120 -44 c0 -10 -5 -20 -11 -22 -13 -4 -27 24 -18
38 9 15 29 4 29 -16z m-55 5 c0 -5 -2 -10 -4 -10 -3 0 -8 5 -11 10 -3 6 -1 10
4 10 6 0 11 -4 11 -10z m405 -20 c0 -7 -6 -15 -12 -17 -8 -3 -13 4 -13 17 0
13 5 20 13 18 6 -3 12 -11 12 -18z m-575 -10 c0 -5 -4 -10 -10 -10 -5 0 -10 5
-10 10 0 6 5 10 10 10 6 0 10 -4 10 -10z m80 -16 c0 -9 -5 -14 -12 -12 -18 6
-21 28 -4 28 9 0 16 -7 16 -16z m554 -5 c-3 -5 -10 -7 -15 -3 -5 3 -7 10 -3
15 3 5 10 7 15 3 5 -3 7 -10 3 -15z m-296 -6 c-2 -10 -13 -19 -26 -21 -24 -4
-29 7 -10 26 18 18 40 15 36 -5z m119 1 c7 -20 -11 -38 -32 -30 -13 4 -14 10
-5 26 13 24 28 26 37 4z m-317 -4 c0 -5 -7 -10 -15 -10 -8 0 -15 5 -15 10 0 6
7 10 15 10 8 0 15 -4 15 -10z m115 -29 c3 -5 -2 -17 -11 -26 -22 -21 -44 -4
-24 20 14 17 26 19 35 6z m3961 -12 c45 -19 66 -19 108 -3 11 4 19 -2 26 -20
23 -62 23 -74 -5 -98 -15 -13 -33 -36 -42 -51 -12 -25 -12 -33 1 -70 8 -23 20
-61 26 -84 6 -23 22 -56 36 -72 l25 -30 -35 -36 c-77 -77 -54 -158 54 -195 30
-10 58 -25 61 -32 3 -7 14 -30 24 -50 10 -21 18 -59 19 -85 1 -38 5 -49 23
-58 34 -17 93 -87 93 -109 0 -12 -16 -86 -36 -166 -19 -80 -38 -185 -41 -234
-5 -78 -8 -87 -19 -71 -8 11 -14 33 -14 49 0 48 -16 64 -24 26 -5 -28 -8 -31
-21 -20 -13 11 -15 5 -15 -47 0 -33 -5 -64 -12 -71 -9 -9 -8 -12 5 -12 19 0
24 -44 7 -55 -6 -4 -8 -11 -5 -16 4 -5 -4 -9 -16 -9 -18 0 -20 -3 -11 -12 20
-20 14 -53 -17 -91 -15 -20 -31 -55 -35 -77 -3 -22 -12 -40 -18 -40 -22 0 -78
63 -79 89 0 15 -4 35 -8 45 -11 28 7 126 30 165 32 54 9 125 -53 166 -50 33
-77 91 -78 166 0 65 13 107 52 168 24 39 28 55 28 115 -1 144 -45 312 -105
407 -19 30 -42 70 -50 89 -19 42 -61 69 -134 87 -149 36 -271 146 -271 244 0
18 7 41 17 51 20 23 85 24 107 2 14 -14 14 -18 1 -44 -8 -16 -15 -35 -15 -41
0 -7 -10 -23 -22 -36 l-22 -23 20 -27 c28 -38 99 -73 146 -73 74 0 125 82 78
125 -25 23 -26 55 -2 55 9 0 29 -20 46 -45 50 -80 95 -96 124 -44 9 17 32 49
50 72 18 22 32 47 30 56 -2 9 -25 30 -51 47 -26 17 -44 34 -40 37 8 9 4 10 59
-14z m-3686 -18 c0 -24 -18 -37 -31 -24 -13 13 -1 43 17 43 8 0 14 -9 14 -19z
m-357 -7 c8 -8 -3 -34 -14 -34 -5 0 -9 9 -9 20 0 19 11 26 23 14z m215 -10
c-5 -25 -35 -41 -49 -27 -18 18 -3 43 26 43 19 0 26 -5 23 -16z m217 -3 c3 -5
-5 -17 -17 -25 -26 -18 -38 -5 -18 19 14 17 26 19 35 6z m-305 -44 c0 -8 -8
-21 -19 -31 -15 -14 -20 -14 -30 -2 -9 11 -8 17 4 30 20 19 45 21 45 3z m154
-12 c7 -20 -2 -42 -21 -49 -33 -13 -45 21 -17 48 19 20 30 20 38 1z m-246 -40
c3 -26 -13 -50 -27 -41 -6 4 -11 21 -11 37 0 24 4 30 18 27 9 -2 18 -12 20
-23z m-1039 -86 c6 -18 11 -51 11 -74 0 -30 6 -47 20 -60 20 -18 23 -18 65 -3
25 9 47 13 50 8 3 -5 -5 -31 -19 -57 -34 -68 -49 -113 -50 -152 -1 -31 3 -35
32 -43 23 -6 32 -14 32 -30 0 -12 17 -38 38 -58 47 -44 92 -137 99 -206 9 -87
-33 -174 -84 -174 -13 0 -23 -4 -23 -10 0 -16 53 -12 79 6 54 38 77 156 46
230 -17 40 -13 54 14 54 22 0 91 -73 91 -95 0 -8 5 -15 12 -15 6 0 4 -7 -5
-18 -21 -23 -21 -32 -2 -32 14 0 13 -3 -1 -25 -23 -35 -8 -31 37 10 26 24 49
35 69 35 17 0 30 -2 30 -6 0 -3 -11 -22 -25 -42 -30 -44 -31 -66 -5 -127 23
-55 71 -81 129 -71 20 4 51 9 69 12 36 7 39 -1 16 -36 -48 -71 -139 -147 -204
-169 -19 -6 -69 -43 -110 -82 -41 -38 -107 -96 -146 -129 -95 -81 -116 -121
-154 -308 -49 -242 -89 -325 -178 -364 -39 -18 -59 -20 -138 -15 -87 5 -95 4
-151 -24 -66 -33 -136 -38 -183 -14 -39 20 -39 45 0 45 47 0 76 19 96 63 22
48 64 75 116 76 61 1 99 43 109 120 11 79 29 110 85 145 47 30 64 52 64 85 0
12 9 22 23 26 56 18 95 85 112 193 6 36 10 42 23 35 52 -25 205 13 218 54 3
10 14 36 25 58 10 22 19 59 19 83 0 47 -23 102 -43 102 -7 0 -23 13 -35 30
-12 16 -42 41 -66 55 -58 34 -90 27 -117 -27 -11 -21 -35 -59 -54 -84 -19 -25
-35 -56 -35 -68 0 -13 -18 -48 -40 -79 -23 -31 -47 -72 -55 -91 -14 -33 -13
-36 10 -64 28 -34 32 -52 10 -52 -21 0 -53 34 -61 64 -12 50 65 240 126 309
16 19 39 54 50 78 37 79 49 95 104 147 59 55 72 82 62 136 -7 36 -55 86 -82
86 -21 0 -17 16 8 32 20 14 21 17 8 47 -15 38 -52 65 -77 57 -23 -7 -90 52
-99 88 -3 14 -1 41 6 61 7 20 9 52 5 74 -4 24 -2 42 4 46 20 12 12 71 -14 106
-26 36 -55 92 -55 108 0 5 18 1 39 -10 26 -12 42 -29 50 -50z m1349 54 c-2
-10 -14 -20 -28 -22 -25 -3 -25 -3 -6 18 23 26 39 27 34 4z m-392 -8 c4 -8 3
-23 0 -32 -6 -15 -8 -15 -23 -1 -16 17 -12 48 7 48 6 0 13 -7 16 -15z m226 -2
c35 -32 16 -56 -36 -46 -30 6 -42 24 -32 48 7 20 45 19 68 -2z m211 -33 c-3
-11 -9 -23 -14 -26 -10 -6 -12 29 -2 39 13 13 21 7 16 -13z m-320 -27 c7 -12
-11 -53 -22 -53 -12 0 -24 37 -16 50 7 12 32 13 38 3z m190 -15 c7 -21 -12
-48 -33 -48 -13 0 -20 7 -20 18 0 34 43 57 53 30z m-282 -61 c-8 -8 -11 -7
-11 4 0 9 3 19 7 23 4 4 9 2 11 -4 3 -7 -1 -17 -7 -23z m325 -13 c-25 -18 -36
-18 -36 1 0 19 32 37 45 24 7 -7 4 -15 -9 -25z m-148 -36 c-4 -30 -43 -36 -57
-10 -13 24 -5 32 31 32 25 0 29 -4 26 -22z m-88 -62 c0 -3 -4 -8 -10 -11 -5
-3 -10 -1 -10 4 0 6 5 11 10 11 6 0 10 -2 10 -4z m90 -5 c0 -6 -4 -13 -10 -16
-5 -3 -10 1 -10 9 0 9 5 16 10 16 6 0 10 -4 10 -9z m40 -1 c0 -5 -4 -10 -10
-10 -5 0 -10 5 -10 10 0 6 5 10 10 10 6 0 10 -4 10 -10z m-85 -10 c-3 -5 -11
-10 -16 -10 -6 0 -7 5 -4 10 3 6 11 10 16 10 6 0 7 -4 4 -10z m4241 -1066 c17
-41 18 -86 2 -102 -7 -7 -20 -43 -29 -80 -11 -46 -21 -68 -32 -70 -24 -5 -22
44 3 99 14 32 20 66 20 122 0 84 10 93 36 31z m59 -124 c-8 -39 -65 -113 -65
-83 0 10 12 51 27 92 24 65 28 71 35 50 5 -13 6 -40 3 -59z m-157 -189 c5 -45
-14 -63 -28 -27 -16 42 -13 68 8 64 11 -2 18 -14 20 -37z m-5488 -195 c0 -31
-67 -76 -113 -76 -13 0 -43 -13 -68 -28 -68 -43 -69 -44 -69 -35 0 5 18 28 40
51 31 32 49 42 73 42 39 1 110 25 115 40 3 9 22 15 22 6z m-240 -190 c0 -17
-22 -26 -66 -26 -42 0 -37 16 9 29 46 13 57 13 57 -3z"/>
<path d="M4473 11213 c3 -16 8 -38 12 -50 6 -18 2 -25 -20 -33 -14 -5 -37 -10
-49 -10 -13 0 -64 -18 -114 -40 -66 -30 -103 -40 -140 -40 -70 0 -74 -16 -6
-25 68 -8 67 -23 -7 -50 -40 -15 -48 -21 -31 -23 12 -2 47 8 78 22 44 20 60
23 76 15 27 -15 35 -3 13 21 -22 25 -25 25 60 -5 39 -14 84 -25 101 -25 78 0
163 -53 190 -117 9 -22 21 -33 34 -33 23 0 26 13 7 29 -8 6 -20 29 -27 51 -7
21 -17 37 -22 34 -4 -3 -20 4 -34 15 -15 12 -32 21 -39 21 -7 0 -19 7 -26 16
-12 15 -11 18 3 27 15 10 15 12 1 22 -22 16 -10 31 45 56 37 17 43 23 27 27
-11 2 -25 12 -32 21 -9 13 -14 14 -24 4 -17 -17 -29 -16 -29 2 0 18 -38 95
-46 95 -4 0 -4 -12 -1 -27z m-23 -162 c0 -14 -27 -21 -76 -21 -48 0 -60 16
-16 23 52 8 92 7 92 -2z"/>
<path d="M4140 11091 c0 -14 41 -41 62 -41 29 0 21 15 -17 33 -41 20 -45 20
-45 8z"/>
<path d="M3515 10977 c-151 -59 -204 -202 -121 -327 14 -21 40 -50 58 -63 32
-25 129 -77 143 -77 17 0 -11 23 -55 45 -106 54 -177 145 -167 216 7 50 51
127 82 141 68 31 109 -31 117 -174 4 -74 9 -94 34 -134 50 -80 98 -95 230 -68
27 5 38 1 70 -30 39 -37 50 -41 78 -30 23 9 20 24 -14 68 -34 45 -36 57 -15
90 14 21 14 25 -1 37 -23 19 -79 14 -113 -10 -16 -12 -43 -21 -59 -21 -33 0
-55 -19 -25 -21 39 -2 69 3 91 17 66 43 104 36 78 -14 -23 -44 -20 -60 15 -93
41 -38 16 -38 -28 1 -37 33 -49 35 -120 19 -43 -10 -55 -9 -95 9 -54 24 -96
79 -100 132 -3 31 0 35 22 39 14 2 55 -2 91 -9 79 -15 115 -3 104 33 -8 27 -8
37 0 62 5 15 -11 38 -68 98 l-74 77 -64 -1 c-35 0 -78 -6 -94 -12z m201 -69
l74 -63 -6 -50 c-3 -27 -9 -54 -14 -58 -4 -5 -43 0 -86 11 -77 19 -78 19 -90
60 -6 23 -28 64 -48 92 -20 27 -36 52 -36 54 0 8 34 14 84 15 46 1 53 -3 122
-61z"/>
<path d="M5153 10888 c-46 -12 -51 -28 -9 -29 20 -1 42 -2 48 -3 17 -1 22 30
6 36 -7 3 -27 1 -45 -4z"/>
<path d="M4230 10858 c0 -7 4 -20 10 -28 5 -9 5 -19 -2 -27 -14 -17 -33 -16
-52 3 -9 8 -16 11 -16 5 0 -14 29 -41 45 -41 20 0 47 45 43 71 -3 24 -28 39
-28 17z"/>
<path d="M4517 10823 c-4 -3 -4 -17 -1 -29 4 -15 2 -24 -6 -24 -6 0 -14 9 -17
20 -6 23 -19 26 -26 8 -7 -20 12 -48 31 -48 24 0 42 20 42 46 0 24 -13 38 -23
27z"/>
<path d="M4633 10584 c-4 -10 -8 -76 -8 -146 0 -112 2 -129 19 -145 18 -17 18
-17 12 7 -16 55 -18 110 -7 195 7 57 7 93 1 99 -6 6 -12 2 -17 -10z"/>
<path d="M4334 10425 c-7 -28 -25 -32 -44 -10 -7 8 -16 15 -21 15 -16 0 -9
-26 11 -45 18 -16 21 -16 43 -2 26 17 41 53 26 62 -4 3 -11 -6 -15 -20z"/>
<path d="M4530 10323 c0 -25 -19 -30 -39 -10 -10 10 -12 8 -9 -8 4 -27 44 -32
57 -8 6 12 6 25 0 34 -7 11 -9 9 -9 -8z"/>
<path d="M3942 10126 c4 -35 20 -43 42 -21 21 21 21 42 1 25 -13 -11 -18 -10
-31 6 -14 18 -14 17 -12 -10z"/>
<path d="M4225 9870 l-39 -40 29 -30 c45 -45 73 -43 101 5 13 22 23 46 24 53
0 11 -55 52 -70 52 -3 0 -24 -18 -45 -40z"/>
<path d="M3514 8924 c-8 -32 1 -103 15 -117 7 -7 18 -6 37 3 14 8 35 15 47 15
40 0 32 35 -19 81 -55 51 -71 54 -80 18z"/>
<path d="M6602 10258 c2 -15 11 -24 26 -26 27 -4 28 9 4 31 -25 23 -34 21 -30
-5z"/>
<path d="M6523 10215 c-45 -19 -41 -25 7 -13 22 6 40 14 40 19 0 12 -9 11 -47
-6z"/>
<path d="M6761 10155 c-22 -29 -36 -79 -26 -95 9 -15 22 -4 30 27 3 14 15 38
26 51 10 14 19 29 19 33 0 18 -29 8 -49 -16z"/>
<path d="M6596 9931 c22 -20 217 -102 231 -97 24 9 0 31 -49 46 -24 7 -64 23
-90 36 -45 23 -113 34 -92 15z"/>
<path d="M6837 9677 c-46 -47 -65 -126 -43 -179 9 -21 20 -38 24 -38 4 0 26
18 50 40 38 35 43 44 37 70 -5 23 -2 31 14 40 29 15 27 54 -5 79 -35 27 -37
27 -77 -12z"/>
<path d="M6312 9673 c-6 -10 -13 -36 -17 -57 -11 -54 9 -39 25 19 13 48 9 70
-8 38z"/>
<path d="M6641 9356 c-17 -13 -52 -29 -76 -35 -44 -11 -70 -31 -41 -31 29 0
123 40 141 60 27 30 13 33 -24 6z"/>
<path d="M6624 9218 c-4 -7 -9 -64 -10 -128 -3 -102 -2 -108 6 -51 12 87 20
88 20 3 0 -108 18 -87 22 26 2 53 2 99 1 101 -2 2 -10 -2 -18 -9 -14 -12 -15
-8 -9 28 7 42 2 53 -12 30z"/>
<path d="M6490 8660 c0 -5 7 -10 15 -10 8 0 15 5 15 10 0 6 -7 10 -15 10 -8 0
-15 -4 -15 -10z"/>
<path d="M6710 8650 c0 -5 7 -10 15 -10 8 0 15 5 15 10 0 6 -7 10 -15 10 -8 0
-15 -4 -15 -10z"/>
<path d="M6600 8615 c0 -8 9 -15 20 -15 24 0 27 15 4 24 -22 9 -24 8 -24 -9z"/>
<path d="M4320 7845 c-16 -19 -6 -45 19 -45 23 0 35 28 20 46 -15 18 -24 18
-39 -1z"/>
<path d="M868 7424 c-3 -3 0 -31 8 -62 7 -31 13 -78 14 -104 0 -47 12 -63 24
-32 3 9 6 29 6 46 0 26 2 29 15 18 36 -30 29 22 -9 68 -13 15 -26 37 -30 50
-7 22 -17 28 -28 16z"/>
<path d="M1255 7350 c50 -51 74 -64 56 -32 -16 30 -73 82 -89 82 -10 0 2 -18
33 -50z"/>
<path d="M960 6730 c0 -5 13 -10 29 -10 17 0 33 5 36 10 4 6 -8 10 -29 10 -20
0 -36 -4 -36 -10z"/>
<path d="M3474 6994 c4 -11 12 -41 17 -68 25 -131 122 -192 210 -133 52 35 50
110 -3 134 -12 5 -26 25 -32 43 -10 31 -15 35 -41 32 -44 -4 -65 -3 -114 4
-40 6 -43 5 -37 -12z"/>
<path d="M3849 6751 c18 -16 37 -21 80 -21 83 0 98 17 20 23 -35 3 -77 8 -94
12 l-30 6 24 -20z"/>
<path d="M3402 6462 c-11 -20 -11 -27 3 -48 17 -26 35 -30 66 -14 20 11 26 54
9 65 -6 3 -10 -5 -10 -19 0 -51 -46 -40 -52 12 l-3 27 -13 -23z"/>
<path d="M3179 6422 c-45 -37 -17 -122 40 -122 45 0 54 13 47 64 -5 30 -14 51
-29 61 -27 19 -30 19 -58 -3z"/>
<path d="M3540 5520 c0 -5 7 -10 15 -10 8 0 15 5 15 10 0 6 -7 10 -15 10 -8 0
-15 -4 -15 -10z"/>
<path d="M6798 1593 c-49 -59 -78 -121 -78 -169 0 -28 5 -55 12 -62 9 -9 7
-17 -9 -34 -49 -54 -54 -88 -18 -123 26 -27 50 -30 108 -14 58 16 76 39 70 88
-4 28 -1 48 11 65 24 37 20 64 -15 99 -29 29 -31 34 -26 85 3 29 3 60 0 68 -7
19 -37 18 -55 -3z"/>
<path d="M1953 1302 c-15 -9 -33 -56 -33 -86 0 -34 31 -56 77 -56 50 0 56 6
38 41 -8 15 -15 39 -15 53 0 41 -37 67 -67 48z"/>
<path d="M1500 528 c-11 -12 -20 -26 -20 -30 0 -5 -14 -14 -30 -20 -19 -6 -32
-19 -36 -34 -15 -59 32 -195 69 -202 10 -2 26 7 38 22 11 13 27 27 37 30 10 4
23 25 30 53 18 64 17 91 -2 112 -9 10 -16 29 -16 42 0 49 -36 63 -70 27z"/>
</g>
</svg>
