<?xml version="1.0" standalone="no"?>
<!DOCTYPE svg PUBLIC "-//W3C//DTD SVG 20010904//EN"
 "http://www.w3.org/TR/2001/REC-SVG-20010904/DTD/svg10.dtd">
<svg version="1.0" xmlns="http://www.w3.org/2000/svg"
 width="856.000000pt" height="1280.000000pt" viewBox="0 0 856.000000 1280.000000"
 preserveAspectRatio="xMidYMid meet">
<metadata>
Created by potrace 1.15, written by Peter Selinger 2001-2017
</metadata>
<g transform="translate(0.000000,1280.000000) scale(0.100000,-0.100000)"
fill="#000000" stroke="none">
<path d="M4160 12295 c-207 -46 -358 -140 -414 -259 -29 -62 -42 -255 -27
-407 13 -129 12 -131 -8 -146 -35 -24 -27 -61 24 -107 25 -23 45 -50 45 -59 0
-10 11 -28 25 -41 20 -18 31 -48 50 -136 14 -62 33 -127 43 -143 11 -20 47
-47 102 -77 l85 -46 -4 -44 c-1 -25 -7 -50 -12 -56 -5 -6 -12 -32 -15 -58 l-7
-47 50 7 c29 3 53 2 56 -3 4 -6 -14 -10 -41 -11 -56 -2 -95 -37 -90 -81 3 -24
7 -26 43 -24 56 3 85 -5 85 -23 0 -11 -4 -12 -19 -4 -30 15 -84 12 -111 -7
-34 -23 -40 -33 -38 -65 2 -21 8 -28 23 -28 15 0 17 -2 6 -9 -7 -5 -11 -15 -9
-22 3 -10 -15 -19 -61 -32 -36 -10 -93 -31 -127 -48 l-62 -29 -84 19 c-121 28
-212 39 -398 47 -142 6 -167 5 -178 -9 -10 -11 -26 -14 -70 -10 -52 5 -61 3
-89 -21 -91 -77 -46 -141 126 -180 100 -23 124 -39 49 -32 -35 3 -62 0 -73 -8
-12 -8 -44 -9 -121 -3 -132 11 -151 7 -171 -41 -14 -33 -14 -60 -3 -244 15
-249 4 -477 -41 -903 -29 -281 -54 -413 -106 -566 l-46 -136 31 -65 c18 -35
32 -69 32 -74 0 -6 -15 -14 -32 -19 -30 -9 -37 -19 -74 -111 -23 -56 -91 -209
-152 -340 -61 -132 -165 -360 -232 -509 -66 -148 -150 -323 -186 -387 -40 -72
-63 -125 -60 -135 4 -13 -3 -23 -24 -35 -17 -9 -30 -25 -30 -36 0 -15 -6 -18
-29 -14 -21 3 -33 -2 -45 -19 -9 -13 -16 -31 -16 -41 0 -11 -7 -18 -19 -18
-11 0 -34 -18 -52 -41 -17 -22 -63 -65 -100 -95 -38 -30 -69 -61 -69 -69 0
-18 35 -55 51 -55 7 0 37 26 68 59 128 133 172 157 258 137 18 -4 40 -3 50 3
12 6 25 6 34 0 7 -5 10 -9 4 -9 -26 -1 -37 -24 -50 -116 -8 -54 -29 -143 -46
-196 -26 -80 -29 -101 -19 -113 7 -8 20 -16 29 -16 9 -1 3 -4 -14 -8 -29 -6
-30 -8 -37 -81 -3 -41 -11 -96 -16 -122 -11 -57 -4 -69 39 -71 33 -2 33 -2 41
53 5 30 13 86 18 124 8 50 8 72 -1 82 -9 11 -7 14 9 14 28 0 39 18 46 80 4 30
19 118 33 194 20 109 23 143 14 158 -9 14 -8 18 3 18 8 0 19 7 24 16 7 12 11
13 16 5 4 -7 3 -17 -2 -24 -5 -7 -12 -73 -16 -147 -3 -74 -9 -165 -12 -202
l-7 -67 28 -7 c52 -13 59 2 66 132 4 65 7 137 8 159 5 84 20 0 20 -113 1 -122
5 -131 55 -118 l25 6 -6 168 c-2 92 -7 174 -10 182 -10 24 -3 44 19 61 21 17
21 22 -7 92 -5 13 -2 17 14 17 22 0 47 41 71 115 40 124 322 758 524 1179 47
99 91 196 98 218 7 26 22 44 45 58 45 26 46 49 8 200 -33 128 -43 200 -50 365
-12 248 32 1102 61 1198 6 21 40 22 80 3 16 -8 45 -21 64 -30 53 -25 75 -67
103 -204 15 -69 40 -153 58 -192 28 -61 30 -73 20 -101 -13 -38 -14 -118 -2
-138 6 -9 -1 -30 -21 -62 -41 -65 -51 -124 -33 -187 8 -27 21 -55 29 -61 12
-10 11 -19 -6 -57 -15 -36 -19 -59 -14 -107 3 -34 5 -91 5 -127 0 -39 7 -76
16 -94 8 -15 15 -54 15 -85 1 -101 47 -184 120 -218 29 -13 40 -24 40 -41 0
-41 28 -82 55 -82 29 0 30 5 11 52 -17 39 -11 52 24 61 47 12 120 69 213 168
80 84 105 104 168 133 41 18 100 37 131 40 50 6 59 5 79 -15 13 -13 17 -24 11
-28 -6 -3 -12 -19 -14 -34 -3 -27 -6 -29 -55 -31 -88 -5 -172 -54 -284 -165
-103 -103 -149 -175 -149 -236 0 -19 4 -35 9 -35 5 0 26 24 47 53 87 122 263
279 317 284 83 8 92 7 92 -4 0 -6 3 -14 6 -18 4 -3 2 -21 -3 -38 -9 -30 -12
-32 -50 -29 -44 5 -73 -12 -48 -28 8 -5 32 -12 52 -15 34 -6 38 -10 38 -35 0
-16 7 -35 15 -44 14 -13 13 -16 -5 -26 -11 -6 -20 -17 -20 -25 0 -11 -5 -12
-26 -5 -30 12 -76 3 -71 -14 2 -6 24 -22 50 -36 45 -24 47 -27 47 -67 0 -34 5
-45 23 -55 21 -12 21 -12 -13 -20 -19 -4 -56 -5 -81 -2 -80 10 -71 -25 12 -49
l44 -13 3 -56 c2 -48 6 -57 25 -63 43 -13 -3 -17 -54 -5 -39 10 -53 10 -62 1
-13 -14 4 -27 58 -47 28 -10 30 -14 33 -72 2 -34 2 -62 0 -62 -2 0 -26 6 -54
14 -29 8 -58 10 -65 5 -18 -11 -8 -19 53 -43 l53 -21 -2 -64 c-1 -34 -3 -65
-5 -67 -2 -2 -21 -1 -41 3 -36 5 -37 7 -37 46 0 34 -6 46 -40 78 -88 84 -236
149 -338 149 -119 0 -243 -94 -317 -242 -64 -129 -69 -240 -15 -334 24 -43 40
-56 95 -84 52 -26 74 -45 105 -88 42 -58 49 -75 27 -66 -25 9 -167 -80 -167
-106 0 -6 -9 -19 -20 -30 -20 -20 -20 -20 -56 5 -41 28 -61 30 -117 14 -42
-11 -105 -62 -117 -93 -8 -23 12 -122 65 -311 99 -359 221 -1089 266 -1595 26
-292 25 -314 -41 -490 -35 -93 -43 -128 -44 -187 -1 -63 2 -74 23 -97 15 -16
41 -29 63 -33 34 -5 38 -8 32 -27 -4 -11 -11 -23 -17 -25 -6 -2 -21 -16 -34
-30 -13 -14 -40 -43 -58 -63 -30 -31 -35 -44 -35 -85 0 -26 9 -80 20 -118 33
-115 63 -368 156 -1300 8 -88 19 -307 23 -486 7 -317 8 -326 31 -368 l24 -42
-26 -22 c-32 -26 -64 -88 -74 -142 -4 -22 -13 -49 -19 -60 -7 -11 -18 -45 -25
-75 -7 -30 -26 -93 -42 -139 -15 -47 -28 -91 -28 -98 0 -8 -9 -33 -19 -56 -21
-46 -24 -60 -22 -95 2 -34 17 -19 37 36 9 26 28 58 40 72 13 14 29 40 35 58
14 40 23 37 10 -4 -40 -128 -57 -229 -42 -239 10 -5 19 20 41 110 7 28 21 59
30 70 9 11 32 57 50 103 18 45 35 81 37 78 3 -3 0 -29 -7 -58 -28 -132 -48
-284 -43 -330 8 -69 22 -47 33 55 6 48 19 106 29 129 11 24 36 96 56 161 37
117 58 156 50 95 -3 -18 -9 -73 -15 -123 -6 -49 -18 -124 -27 -165 -14 -71
-19 -197 -8 -208 14 -14 26 21 31 94 3 46 13 96 24 119 10 22 30 87 44 145 58
241 69 242 65 7 -5 -272 6 -387 37 -387 28 0 58 72 61 144 2 39 5 91 7 116 3
25 6 128 9 231 2 102 7 191 11 198 10 16 10 177 0 193 -13 21 -4 181 12 205
19 30 18 79 -5 146 -54 155 -71 388 -78 1067 -6 576 -2 640 43 832 17 75 25
127 20 149 -9 48 -49 88 -96 95 -62 10 -47 22 26 21 60 -2 68 0 90 26 46 53
25 150 -76 352 -38 77 -78 174 -89 215 -76 282 -221 963 -296 1385 -66 372
-73 503 -32 581 23 44 38 54 106 65 33 5 72 14 87 19 14 6 47 10 74 10 60 0
60 -1 96 -141 47 -187 83 -224 215 -224 67 0 81 4 124 30 27 17 64 51 82 75
80 109 93 120 128 120 37 0 47 -9 123 -110 65 -86 119 -115 217 -115 125 1
167 43 208 210 38 154 39 155 89 155 38 0 101 -12 220 -41 30 -8 40 -18 60
-57 42 -86 29 -240 -68 -757 -76 -410 -206 -1002 -265 -1210 -11 -38 -51 -133
-89 -210 -72 -145 -99 -235 -90 -295 10 -65 20 -74 101 -78 l72 -4 -48 -17
c-92 -31 -107 -86 -67 -246 42 -165 47 -230 45 -690 -2 -681 -25 -1036 -78
-1203 -28 -89 -31 -119 -11 -148 15 -21 19 -122 11 -294 -3 -52 -2 -102 1
-110 8 -19 13 -98 19 -290 10 -320 10 -323 36 -363 13 -20 30 -36 38 -35 26 5
33 60 35 298 2 129 4 244 5 255 4 29 27 -40 57 -165 14 -58 34 -123 44 -146
11 -23 24 -80 29 -128 8 -84 15 -106 27 -94 11 12 5 155 -9 218 -19 79 -41
268 -35 295 2 11 23 -39 47 -115 23 -74 49 -146 56 -160 7 -14 18 -68 25 -120
12 -105 25 -132 35 -77 8 41 -7 165 -36 311 -11 54 -18 100 -16 102 2 2 21
-38 41 -89 21 -50 43 -99 50 -107 12 -15 26 -55 46 -137 6 -24 16 -43 22 -43
13 0 4 136 -11 153 -10 13 -42 127 -35 127 2 0 11 -17 19 -37 9 -21 25 -47 36
-59 11 -12 28 -43 37 -69 21 -59 47 -74 40 -24 -3 19 -12 54 -21 79 -29 82
-95 294 -102 330 -4 19 -11 40 -15 45 -4 6 -13 33 -20 60 -18 69 -45 119 -76
144 l-26 20 21 35 c28 45 35 117 32 326 -3 206 4 301 70 965 64 638 73 714
110 865 35 140 31 181 -18 220 -15 11 -35 34 -44 49 -10 16 -27 32 -38 36 -36
11 -25 41 18 54 99 29 106 105 30 321 -50 140 -52 149 -51 250 0 365 160 1401
282 1835 21 77 46 173 55 213 16 70 16 73 -5 106 -24 40 -108 86 -155 86 -17
0 -46 -11 -66 -24 -40 -28 -44 -26 -80 29 -14 22 -44 49 -65 60 -21 11 -47 26
-56 34 -10 7 -26 11 -38 8 -25 -6 -25 -3 2 36 40 60 82 98 135 121 173 80 159
359 -27 547 -87 88 -123 104 -230 104 -75 0 -93 -4 -152 -32 -78 -37 -143 -80
-187 -124 -24 -23 -31 -39 -31 -68 0 -36 -2 -39 -37 -44 -20 -4 -38 -5 -39 -4
-1 1 -4 31 -5 66 -2 58 -1 65 22 77 13 7 31 13 39 14 9 0 26 8 39 17 23 15 23
17 6 23 -11 4 -39 1 -64 -7 -24 -7 -48 -13 -53 -13 -5 0 -8 26 -6 57 3 58 3
58 48 79 25 12 45 28 45 35 0 15 -21 16 -95 5 -38 -5 -42 -5 -22 5 18 10 22
20 22 64 0 49 2 53 30 64 17 6 44 16 60 22 46 17 30 34 -31 35 -30 0 -67 1
-84 3 l-30 2 23 16 c16 11 22 25 22 54 0 35 3 40 50 65 27 15 50 33 50 40 0
19 -44 28 -68 15 -27 -14 -32 -14 -32 3 0 8 -9 21 -20 29 -18 12 -18 15 -5 20
9 4 15 19 15 41 0 33 2 34 48 43 31 5 47 13 47 23 0 11 -12 15 -46 14 -42 0
-46 2 -55 30 -6 20 -5 39 1 54 8 20 15 22 40 16 17 -4 41 -7 55 -8 14 -1 38
-9 52 -18 51 -34 211 -193 255 -255 25 -35 49 -63 54 -63 17 0 9 73 -13 119
-12 27 -63 87 -122 147 -117 117 -201 166 -286 168 -38 1 -51 5 -56 18 -3 10
-3 22 1 27 3 6 -3 14 -12 20 -17 9 -17 10 0 16 9 4 17 14 17 22 0 12 12 13 68
7 111 -11 186 -56 316 -189 102 -104 171 -155 211 -155 24 0 27 -22 11 -62
-13 -31 -14 -38 -1 -48 21 -17 65 29 65 69 0 25 7 34 39 51 73 37 121 121 121
210 0 34 6 74 15 89 23 45 30 271 10 331 -15 45 -15 49 4 81 42 73 35 163 -19
237 -19 27 -25 44 -19 53 12 18 11 96 0 137 -8 27 -5 43 19 95 32 70 52 145
70 255 15 90 40 122 126 163 77 37 105 35 116 -6 25 -93 61 -704 62 -1045 1
-284 -4 -330 -55 -528 -32 -126 -29 -150 23 -175 23 -11 35 -29 53 -78 12 -35
76 -179 142 -319 194 -411 357 -787 437 -1005 49 -134 65 -165 88 -165 15 0
17 -5 12 -27 -4 -16 -11 -34 -17 -41 -7 -9 -4 -19 10 -35 24 -25 39 -67 25
-67 -13 0 -22 -331 -9 -347 5 -7 20 -13 33 -13 35 0 44 33 45 168 1 95 3 108
9 67 5 -27 9 -93 9 -145 1 -113 7 -137 32 -145 24 -8 56 2 62 18 2 7 1 39 -4
72 -5 33 -11 120 -15 193 -4 73 -10 135 -15 137 -4 3 -5 14 -2 25 l6 21 14
-21 c8 -11 21 -20 30 -20 14 0 14 -2 -1 -18 -15 -18 -15 -25 3 -118 11 -54 25
-137 31 -184 14 -106 23 -130 51 -130 16 0 19 -3 11 -12 -11 -14 16 -232 31
-255 11 -17 38 -16 61 0 17 13 17 18 2 93 -8 43 -17 99 -18 124 -3 41 -6 45
-33 51 -16 4 -23 7 -14 8 9 0 22 8 29 16 11 13 8 34 -18 118 -18 56 -38 144
-46 196 -9 67 -18 96 -30 103 -26 14 -9 29 19 16 18 -8 36 -8 62 -1 71 20 87
13 197 -90 111 -104 138 -115 158 -71 12 25 9 29 -47 78 -33 28 -79 72 -104
99 -24 26 -52 47 -62 47 -12 0 -19 7 -19 18 0 10 -7 28 -16 41 -12 17 -24 22
-45 19 -23 -4 -29 -1 -29 14 0 11 -13 27 -30 36 -19 11 -28 23 -25 33 3 9 -33
90 -79 180 -46 90 -130 268 -186 394 -56 127 -153 340 -215 475 -62 135 -127
282 -144 326 -33 86 -52 110 -89 116 -22 3 -22 3 13 78 41 83 41 79 -10 216
-58 154 -102 444 -141 924 -13 159 -15 267 -10 485 6 268 5 281 -14 313 -18
30 -35 37 -80 33 -8 -1 -53 -5 -100 -10 -64 -6 -90 -5 -104 5 -12 8 -38 11
-75 8 -73 -7 -50 8 48 30 172 39 220 104 131 179 -33 28 -99 37 -130 18 -10
-7 -18 -4 -29 11 -14 20 -19 21 -180 14 -187 -8 -278 -19 -399 -47 l-83 -19
-49 25 c-27 14 -84 35 -127 48 -67 19 -78 26 -79 45 0 12 5 22 13 22 8 0 13
13 13 35 0 29 -6 39 -32 55 -36 22 -88 26 -119 10 -22 -13 -26 2 -4 20 10 8
31 10 65 5 49 -7 50 -6 50 20 0 28 -16 65 -34 77 -6 4 -33 8 -59 8 -33 0 -46
4 -41 11 4 7 24 9 54 5 35 -5 49 -3 52 6 5 15 -12 91 -23 98 -4 3 -8 25 -10
49 l-4 44 85 46 c102 56 118 80 150 230 17 83 27 108 46 123 13 11 24 28 24
39 0 11 20 39 45 63 50 50 58 86 24 110 -21 14 -21 17 -9 121 15 126 8 326
-15 402 -55 184 -400 341 -635 288z m-135 -1061 c20 -15 20 -15 1 -30 -11 -8
-25 -14 -32 -14 -10 0 -44 41 -44 55 0 11 56 3 75 -11z m555 11 c0 -2 -5 -16
-12 -30 -13 -28 -35 -32 -64 -11 -19 15 -19 15 1 30 18 14 75 23 75 11z m-543
-90 c3 -9 3 -19 -1 -22 -7 -7 -36 16 -36 28 0 15 30 10 37 -6z m493 1 c0 -7
-6 -19 -14 -25 -11 -9 -15 -8 -20 5 -3 9 -4 20 0 25 8 14 34 11 34 -5z m-160
-370 c0 -3 -4 -8 -10 -11 -5 -3 -10 -1 -10 4 0 6 5 11 10 11 6 0 10 -2 10 -4z
m-243 -370 c4 -3 4 -8 1 -11 -8 -9 -99 16 -93 25 5 8 82 -3 92 -14z m330 -4
c-45 -13 -69 -11 -54 5 10 9 80 20 92 14 6 -3 -12 -11 -38 -19z m-356 -110
c-11 -2 -31 4 -43 12 l-22 15 25 10 c19 8 28 5 43 -12 18 -22 18 -22 -3 -25z
m387 30 c9 -6 5 -12 -13 -20 -14 -7 -32 -12 -40 -12 -15 0 -20 21 -8 33 9 9
45 8 61 -1z m-472 -36 c10 -22 9 -25 -19 -30 -46 -9 -132 -7 -121 3 8 7 111
49 124 50 3 1 10 -10 16 -23z m638 -26 c11 -11 -72 -14 -122 -4 -30 6 -31 7
-14 29 l17 22 55 -19 c30 -10 59 -23 64 -28z m-1274 6 c123 -4 261 -32 285
-58 7 -7 2 -9 -18 -4 -15 4 -91 -1 -169 -11 -134 -16 -141 -16 -153 1 -8 10
-32 20 -57 23 -35 5 -118 44 -118 56 0 2 24 2 53 1 28 -2 108 -6 177 -8z
m2010 10 c0 -12 -91 -54 -128 -59 -24 -3 -49 -13 -56 -22 -11 -16 -21 -16
-127 -4 -63 8 -138 14 -167 13 -67 -1 -57 8 43 37 62 18 117 24 245 29 91 4
171 7 178 8 6 1 12 0 12 -2z m-1457 -136 c9 0 17 -4 17 -8 0 -15 -133 -34
-160 -24 l-25 10 25 10 c14 5 32 12 40 15 8 4 31 4 50 2 19 -3 43 -5 53 -5z
m795 -6 c33 -14 35 -16 18 -26 -13 -7 -39 -6 -92 3 -73 13 -83 23 -34 32 49 9
71 7 108 -9z m-638 -54 c0 -5 -12 -10 -27 -10 -22 0 -25 2 -13 10 20 13 40 13
40 0z m390 0 c12 -8 9 -10 -12 -10 -16 0 -28 5 -28 10 0 13 20 13 40 0z m-492
-85 c22 -20 -186 -42 -229 -24 l-32 13 39 17 c31 14 56 17 124 12 47 -3 91
-11 98 -18z m777 6 l40 -19 -28 -11 c-35 -13 -68 -13 -172 2 -90 14 -88 28 5
38 94 10 114 9 155 -10z m-843 -137 c61 -6 67 -9 64 -28 -3 -18 -14 -22 -88
-33 -46 -7 -104 -16 -128 -22 -24 -5 -48 -8 -52 -5 -4 3 -8 23 -8 44 0 33 4
40 28 49 15 6 47 8 72 6 25 -3 75 -8 112 -11z m867 5 c29 -10 31 -14 31 -56 0
-36 -3 -44 -15 -39 -8 3 -68 13 -132 22 -65 10 -119 18 -119 18 -1 1 -5 11 -8
24 -7 20 -4 22 36 23 24 0 61 4 83 8 58 12 88 12 124 0z m-679 -12 c0 -10 -10
-12 -32 -8 l-33 5 30 7 c17 4 31 7 33 8 1 0 2 -5 2 -12z m368 -2 c-2 -1 -15
-5 -30 -9 -20 -4 -28 -3 -28 7 0 9 9 12 30 9 17 -2 30 -5 28 -7z m-374 -104
c6 -10 -148 -26 -180 -19 -10 3 10 9 46 15 86 14 128 15 134 4z m486 -11 l35
-8 -41 -1 c-72 -2 -167 11 -152 21 13 9 97 3 158 -12z m-700 -86 c73 -4 136
-2 168 5 38 8 59 8 73 0 38 -20 15 -34 -58 -34 -38 0 -81 -5 -94 -12 -13 -6
-71 -18 -129 -27 -58 -9 -116 -19 -129 -23 -23 -6 -24 -4 -18 27 4 18 7 44 7
57 0 23 3 25 33 19 17 -3 84 -9 147 -12z m667 -1 c63 -4 132 -1 179 6 41 7 77
11 79 9 2 -2 7 -28 11 -57 7 -54 7 -54 -17 -48 -13 4 -71 14 -129 23 -58 9
-116 22 -130 29 -17 9 -46 11 -91 8 -71 -6 -91 4 -63 32 11 10 25 14 38 10 12
-3 67 -9 123 -12z m-457 -128 l23 -25 -89 0 c-49 0 -114 3 -144 7 l-55 7 95
17 c132 23 143 23 170 -6z m489 8 c101 -17 104 -18 61 -25 -68 -10 -230 -9
-230 1 0 11 40 41 53 41 5 0 57 -8 116 -17z m-753 -132 c98 -11 209 -2 270 24
33 13 36 13 30 -1 -3 -9 -6 -20 -6 -25 0 -5 -25 -9 -56 -9 -60 0 -283 -32
-379 -54 -33 -8 -61 -13 -63 -12 -2 2 11 42 33 103 3 10 13 9 43 -1 22 -8 79
-19 128 -25z m696 0 c84 -12 220 0 291 25 22 8 41 13 42 12 7 -9 36 -110 33
-113 -2 -3 -20 0 -39 6 -59 17 -341 59 -401 59 -32 0 -58 4 -58 9 0 5 -3 16
-6 25 -5 14 -3 14 28 2 18 -8 68 -19 110 -25z m-451 -92 c10 -6 3 -9 -21 -10
-19 0 -76 -4 -127 -7 -105 -8 -111 -2 -15 14 81 13 145 15 163 3z m516 0 c78
-12 142 -32 73 -24 -19 3 -80 7 -134 11 -63 4 -94 9 -85 15 19 12 53 11 146
-2z m-1219 -116 c-6 -7 -14 -13 -19 -13 -12 0 -21 38 -14 61 7 21 8 20 26 -7
13 -21 15 -32 7 -41z m1812 35 c0 -33 -13 -49 -30 -38 -11 7 -12 14 -2 34 14
32 32 34 32 4z m-1060 -26 l0 -29 -117 -12 c-153 -16 -309 -46 -388 -75 l-63
-23 -63 24 c-72 27 -117 61 -64 48 56 -13 79 -8 108 25 l28 32 47 -17 c117
-39 310 -26 442 30 70 31 70 31 70 -3z m328 9 c112 -56 338 -75 451 -37 l54
18 23 -30 c29 -37 66 -48 97 -27 22 14 37 12 37 -5 0 -11 -118 -60 -143 -60
-12 0 -58 12 -101 25 -74 24 -241 54 -401 72 -67 8 -70 9 -73 36 -4 32 6 34
56 8z m-478 -129 c0 -16 -115 -45 -195 -50 -44 -2 -77 -1 -73 3 6 7 219 53
251 54 9 1 17 -3 17 -7z m695 -12 c147 -29 171 -41 70 -37 -79 4 -195 33 -195
49 0 11 5 11 125 -12z m-1238 -70 c-1 -3 -26 -28 -56 -55 l-53 -50 -19 24
c-26 32 -24 66 6 117 l26 44 49 -38 c27 -20 48 -39 47 -42z m1799 -9 c7 -36
-12 -86 -33 -86 -6 0 -34 22 -63 49 -45 43 -50 50 -35 59 9 5 31 22 49 38 l31
28 22 -27 c13 -15 26 -42 29 -61z m-1641 -60 l78 -28 -54 -18 c-30 -10 -71
-26 -92 -37 -37 -18 -41 -18 -88 -3 -43 15 -48 19 -37 32 9 11 107 83 113 83
1 0 36 -13 80 -29z m1466 1 c24 -16 52 -38 62 -49 18 -20 17 -21 -28 -37 -40
-13 -51 -13 -74 -2 -14 7 -57 24 -94 36 l-69 23 74 28 c40 15 75 28 79 28 3 1
25 -12 50 -27z m-211 -106 l45 -16 -60 5 c-62 4 -190 39 -199 54 -7 10 150
-22 214 -43z m-985 29 c-45 -21 -169 -47 -201 -43 -21 2 2 11 76 30 58 15 116
27 130 27 24 -1 24 -1 -5 -14z m275 -59 c0 -32 -1 -34 -24 -23 -20 10 -22 15
-13 34 16 35 37 29 37 -11z m288 13 c15 -24 15 -24 -15 -33 -20 -7 -23 -4 -23
23 0 36 19 41 38 10z m-1071 -40 c9 -9 5 -20 -15 -45 -42 -53 -48 -46 -20 29
11 30 18 33 35 16z m1862 -38 c15 -47 8 -49 -28 -9 -27 30 -29 34 -14 46 20
14 26 9 42 -37z m-1711 -36 l54 -17 -63 -35 c-54 -30 -68 -34 -106 -28 -24 3
-43 9 -43 13 0 13 85 92 95 89 5 -2 34 -12 63 -22z m1631 -15 c22 -22 41 -44
41 -49 0 -6 -20 -13 -45 -16 -39 -6 -50 -3 -101 29 -37 22 -52 37 -43 41 57
21 95 34 100 34 4 1 25 -17 48 -39z m-1002 -20 c14 -11 21 -20 14 -20 -6 0
-11 -16 -11 -35 0 -34 -1 -35 -39 -35 -21 0 -69 -11 -105 -25 -37 -14 -69 -25
-71 -25 -3 0 18 33 46 74 31 46 59 76 72 79 48 9 70 6 94 -13z m342 14 c26 -5
42 -21 82 -80 27 -41 47 -74 45 -74 -3 0 -29 10 -58 21 -29 12 -75 24 -103 28
-46 6 -50 8 -53 36 -2 16 -9 33 -15 37 -8 5 -6 8 6 8 10 0 20 7 23 15 7 16 24
18 73 9z m-784 -34 c-27 -12 -43 -12 -25 0 8 5 22 9 30 9 10 0 8 -3 -5 -9z
m1165 0 c18 -12 2 -12 -25 0 -13 6 -15 9 -5 9 8 0 22 -4 30 -9z m-1520 -126
c0 -8 -4 -14 -10 -14 -5 0 -10 2 -10 4 0 2 -3 12 -6 20 -5 12 -2 15 10 10 9
-3 16 -12 16 -20z m456 -3 c-15 -16 -56 -42 -89 -57 -52 -23 -75 -27 -140 -27
-77 1 -177 19 -177 31 0 4 4 13 9 20 7 11 19 11 70 1 82 -16 164 -6 253 30 95
38 109 38 74 2z m1009 -3 c72 -29 89 -32 175 -31 52 1 108 3 125 5 21 2 30 -2
33 -13 4 -22 -70 -40 -169 -41 -89 -1 -174 28 -228 78 -20 18 -31 34 -26 34 6
0 46 -14 90 -32z m412 7 c-4 -8 -11 -15 -17 -15 -14 0 -13 27 3 33 16 6 21 1
14 -18z m-1784 -179 c78 -35 93 -51 72 -79 -24 -33 -106 -12 -139 35 -14 20
-23 78 -12 78 3 0 38 -15 79 -34z m1757 24 c0 -6 -6 -26 -14 -45 -33 -78 -156
-103 -156 -32 0 13 21 28 73 52 77 36 97 41 97 25z m-2651 -806 c-65 -202
-164 -477 -241 -669 -61 -151 -136 -310 -143 -303 -2 2 4 51 14 108 42 243
182 605 368 948 25 46 47 81 49 79 2 -2 -19 -75 -47 -163z m3550 -94 c157
-318 259 -616 286 -835 l6 -50 -21 33 c-25 40 -102 222 -166 392 -53 143 -234
679 -234 695 0 16 47 -68 129 -235z m-2093 -572 c32 -11 40 -18 42 -42 2 -16
9 -39 17 -50 7 -12 15 -36 19 -55 3 -19 23 -53 44 -77 93 -108 119 -152 107
-182 -8 -21 22 -62 45 -62 22 0 44 34 36 56 -11 29 25 90 117 200 20 25 37 54
37 64 0 11 6 34 14 52 8 18 17 45 20 60 5 22 15 30 47 38 22 6 43 18 46 26 4
10 13 4 33 -21 29 -37 34 -52 45 -143 7 -51 6 -53 -33 -91 -23 -22 -46 -58
-56 -86 -16 -47 -15 -49 5 -71 l21 -22 -36 -12 c-19 -6 -93 -22 -165 -35
l-130 -24 -139 24 c-76 13 -151 29 -166 34 -26 10 -26 11 -10 36 15 24 15 28
-1 73 -10 26 -35 63 -55 83 l-38 36 8 71 c8 73 9 76 44 129 17 28 23 30 32 18
6 -8 28 -20 50 -27z m2416 -365 c-8 -24 -27 -13 -28 17 -1 29 0 30 16 13 9
-10 15 -24 12 -30z m-4266 12 c2 -26 -10 -33 -21 -15 -4 6 -1 17 5 25 16 19
15 19 16 -10z m4404 -40 c0 -8 -2 -15 -4 -15 -2 0 -6 7 -10 15 -3 8 -1 15 4
15 6 0 10 -7 10 -15z m-4460 -49 c0 -2 -9 -6 -20 -9 -11 -3 -20 -1 -20 4 0 5
9 9 20 9 11 0 20 -2 20 -4z m4394 -12 c5 -14 4 -15 -8 -5 -8 7 -20 10 -26 6
-5 -3 -10 -1 -10 4 0 17 37 13 44 -5z m-2526 -44 c60 -22 63 -25 57 -49 -14
-55 -65 -78 -115 -51 -34 18 -49 139 -16 127 6 -2 39 -15 74 -27z m707 9 c11
-33 -4 -87 -28 -104 -12 -8 -36 -15 -54 -15 -27 0 -37 6 -53 33 -11 17 -20 37
-20 43 0 9 115 60 142 63 4 1 10 -8 13 -20z m1930 11 c3 -5 1 -10 -4 -10 -6 0
-11 5 -11 10 0 6 2 10 4 10 3 0 8 -4 11 -10z m-3136 -3372 c77 -722 109 -1144
93 -1217 -11 -50 -126 1154 -146 1534 -12 212 12 70 53 -317z m1667 305 c-15
-278 -130 -1533 -141 -1558 -12 -25 6 433 25 630 32 332 99 979 106 1014 13
63 17 28 10 -86z"/>
<path d="M1790 6311 c-5 -11 -22 -57 -36 -103 -15 -45 -44 -121 -65 -167 -43
-93 -47 -115 -21 -130 16 -9 16 -11 0 -23 -16 -13 -40 -144 -42 -228 -1 -33 1
-35 36 -38 42 -4 39 -10 59 150 10 78 10 100 -1 112 -10 14 -9 16 8 16 21 0
35 29 72 145 7 22 30 80 51 128 22 48 39 99 39 112 0 43 -79 64 -100 26z"/>
<path d="M6663 6320 c-32 -13 -29 -37 18 -148 23 -53 54 -133 69 -177 18 -54
34 -83 48 -91 16 -8 19 -13 10 -22 -8 -8 -7 -42 6 -129 9 -65 16 -121 16 -125
0 -5 16 -8 35 -8 46 0 51 14 37 98 -6 37 -14 91 -18 120 -4 35 -10 52 -20 52
-19 0 -18 16 1 24 23 9 18 46 -18 121 -19 39 -49 115 -67 170 -18 55 -37 106
-43 113 -11 14 -42 15 -74 2z"/>
<path d="M1425 6100 c-27 -35 -44 -67 -41 -75 4 -10 -1 -15 -15 -15 -14 0 -25
-13 -40 -47 -11 -25 -17 -53 -14 -61 8 -21 95 57 90 81 -2 9 3 17 9 17 14 0
106 112 106 129 0 9 -31 31 -44 31 -3 0 -26 -27 -51 -60z"/>
<path d="M7025 6146 c-17 -12 -17 -16 -4 -33 7 -11 29 -41 48 -66 19 -26 41
-47 49 -47 7 0 10 -5 7 -11 -8 -12 72 -89 92 -89 18 0 17 3 -12 60 -17 33 -32
50 -44 50 -14 0 -18 5 -14 18 4 18 -78 132 -96 132 -4 0 -16 -6 -26 -14z"/>
<path d="M2138 5938 c-12 -10 -17 -35 -20 -98 l-3 -85 35 0 35 0 7 85 c6 73 5
87 -9 98 -9 6 -20 12 -23 12 -3 0 -13 -6 -22 -12z"/>
<path d="M6348 5938 c-14 -11 -15 -26 -10 -98 l7 -85 35 0 35 0 -4 85 c-3 84
-12 110 -35 110 -7 0 -19 -6 -28 -12z"/>
<path d="M2002 5873 c-5 -10 -12 -61 -16 -115 -7 -91 -6 -97 13 -103 47 -15
58 0 65 88 14 150 15 142 -21 145 -23 2 -34 -2 -41 -15z"/>
<path d="M6461 5876 c-8 -10 -9 -26 -2 -57 6 -24 11 -67 11 -94 0 -56 12 -75
47 -75 33 0 39 21 30 112 -13 128 -13 128 -46 128 -16 0 -34 -6 -40 -14z"/>
<path d="M2123 5733 c-7 -3 -13 -20 -13 -38 0 -19 -4 -45 -10 -59 -7 -21 -6
-27 8 -35 10 -5 23 -6 29 -3 11 7 32 80 33 113 0 17 -26 29 -47 22z"/>
<path d="M6377 5727 c-13 -10 -14 -21 -5 -69 10 -59 25 -75 51 -55 12 10 13
21 4 69 -12 60 -25 75 -50 55z"/>
<path d="M1983 5628 c-4 -7 -13 -44 -19 -83 -13 -77 -7 -95 31 -95 26 0 29 9
40 114 5 44 3 61 -7 67 -19 12 -36 11 -45 -3z"/>
<path d="M6502 5627 c-9 -10 -9 -34 0 -95 12 -80 13 -82 40 -82 16 0 31 6 33
13 3 6 -1 48 -8 92 -10 69 -15 80 -33 83 -11 2 -26 -3 -32 -11z"/>
<path d="M1626 5598 c-11 -36 -15 -147 -6 -153 6 -3 8 -11 4 -16 -11 -18 6
-119 21 -119 20 0 26 26 31 130 2 52 6 107 9 122 3 20 -1 30 -15 38 -25 13
-40 13 -44 -2z"/>
<path d="M6862 5602 c-10 -7 -12 -29 -10 -80 2 -39 7 -74 11 -78 4 -4 2 -13
-4 -20 -14 -18 8 -114 26 -114 16 0 37 101 24 117 -7 7 -6 12 2 15 10 3 10 23
3 84 -9 80 -20 96 -52 76z"/>
<path d="M1796 5568 c-3 -13 -7 -49 -10 -80 -6 -56 -5 -58 20 -64 14 -4 29 -3
34 2 4 5 10 43 12 84 l3 75 -27 3 c-22 3 -28 -1 -32 -20z"/>
<path d="M6677 5583 c-2 -4 -1 -42 2 -83 6 -73 7 -75 34 -78 35 -4 38 7 29 93
-7 66 -8 70 -34 73 -14 2 -28 0 -31 -5z"/>
<path d="M2092 5533 c4 -59 21 -65 37 -13 14 46 9 60 -20 60 -18 0 -20 -6 -17
-47z"/>
<path d="M6394 5567 c-6 -17 23 -87 36 -87 6 0 10 23 10 50 0 44 -3 50 -20 50
-11 0 -23 -6 -26 -13z"/>
<path d="M1959 5428 c-4 -33 4 -104 12 -112 8 -9 49 72 49 99 0 23 -59 35 -61
13z"/>
<path d="M6521 5426 c-9 -10 -7 -25 7 -61 10 -25 22 -46 28 -46 10 0 26 89 19
109 -6 16 -40 15 -54 -2z"/>
<path d="M1784 5348 c13 -111 46 -115 49 -7 2 64 2 64 -27 67 l-29 4 7 -64z"/>
<path d="M6695 5399 c-7 -10 0 -84 11 -122 10 -34 27 -11 40 53 8 34 11 67 8
71 -7 13 -52 11 -59 -2z"/>
</g>
</svg>
