<?xml version="1.0" standalone="no"?>
<!DOCTYPE svg PUBLIC "-//W3C//DTD SVG 20010904//EN"
 "http://www.w3.org/TR/2001/REC-SVG-20010904/DTD/svg10.dtd">
<svg version="1.0" xmlns="http://www.w3.org/2000/svg"
 width="1280.000000pt" height="1172.000000pt" viewBox="0 0 1280.000000 1172.000000"
 preserveAspectRatio="xMidYMid meet">
<metadata>
Created by potrace 1.15, written by Peter Selinger 2001-2017
</metadata>
<g transform="translate(0.000000,1172.000000) scale(0.100000,-0.100000)"
fill="#000000" stroke="none">
<path d="M9685 11700 c-49 -10 -120 -30 -158 -45 -345 -139 -579 -521 -502
-819 8 -31 33 -92 55 -135 40 -77 40 -79 40 -187 -1 -289 -133 -581 -376 -826
-193 -196 -393 -311 -623 -358 -429 -88 -799 -365 -1158 -866 -151 -211 -240
-367 -278 -489 -69 -218 -95 -478 -76 -735 19 -237 37 -346 170 -990 66 -321
81 -420 70 -468 -5 -23 -23 -153 -39 -289 -54 -438 -85 -598 -150 -760 -39
-97 -109 -203 -164 -248 -49 -40 -151 -89 -170 -82 -35 14 -56 217 -56 552 0
246 -13 368 -51 490 -53 174 -137 283 -295 385 -187 122 -275 146 -792 225
-340 51 -511 122 -662 275 -80 80 -232 304 -304 449 -202 401 -235 811 -92
1134 21 48 35 62 122 125 193 138 353 224 874 470 157 74 315 145 351 157 141
48 225 101 320 202 75 80 138 193 170 309 32 111 32 286 1 397 -57 201 -189
365 -366 456 -37 19 -65 39 -62 45 64 151 91 247 106 386 25 223 -31 449 -149
596 -53 67 -158 138 -246 168 -155 52 -503 61 -668 17 -292 -77 -451 -292
-434 -585 24 -415 388 -663 1106 -750 121 -15 126 -17 195 -62 193 -129 288
-270 287 -429 -1 -185 -129 -366 -381 -538 -161 -110 -384 -201 -625 -256 -64
-15 -130 -41 -230 -91 -403 -202 -672 -514 -730 -848 -19 -106 -19 -155 -1
-317 8 -71 20 -177 26 -234 45 -412 254 -814 543 -1046 181 -145 303 -198 647
-283 135 -34 299 -80 365 -102 382 -132 604 -324 670 -580 9 -35 21 -122 26
-194 5 -72 12 -162 15 -201 15 -175 -56 -316 -209 -413 -34 -22 -139 -78 -233
-124 -95 -47 -192 -99 -216 -116 l-44 -30 -124 10 c-145 11 -383 4 -520 -17
-370 -56 -640 -213 -813 -471 -160 -241 -610 -514 -953 -580 -96 -18 -289 -18
-376 1 -151 31 -255 90 -406 226 -301 271 -479 605 -623 1167 -21 84 -39 175
-39 203 0 103 56 332 142 579 142 409 209 616 232 720 30 137 56 381 56 529 0
496 -213 1013 -579 1402 l-80 86 43 100 c87 197 128 365 129 528 1 283 -112
437 -409 558 -427 173 -949 -180 -981 -664 -11 -170 41 -312 153 -420 120
-114 231 -180 554 -325 308 -139 430 -213 538 -327 92 -98 143 -191 206 -377
14 -41 39 -113 55 -160 49 -140 64 -251 58 -430 -8 -217 -34 -339 -169 -785
-77 -255 -122 -436 -138 -550 -7 -49 -23 -148 -37 -220 -68 -366 -49 -700 57
-1000 67 -188 158 -332 305 -485 56 -58 119 -132 141 -165 262 -401 774 -538
1402 -375 148 39 213 66 338 141 246 149 420 301 621 544 217 262 267 289 593
316 169 13 214 9 254 -22 57 -45 29 -113 -143 -352 -166 -231 -170 -239 -250
-562 -131 -527 -155 -672 -155 -950 0 -260 29 -403 120 -592 43 -88 47 -93
112 -131 284 -169 136 -243 -343 -171 -87 13 -173 37 -203 57 -30 20 -137 27
-201 13 -219 -47 -601 -329 -601 -443 l0 -31 55 6 c30 3 80 17 111 31 31 14
58 26 60 26 2 0 -17 -26 -43 -57 -56 -69 -97 -155 -88 -183 13 -42 89 -38 213
10 42 16 77 28 79 26 2 -2 -24 -59 -57 -127 -71 -148 -101 -249 -81 -273 7 -9
20 -16 28 -16 22 0 94 40 153 85 82 63 142 71 505 65 781 -13 877 -7 1083 61
82 27 103 39 165 95 105 95 198 153 296 187 161 56 311 47 606 -34 274 -75
339 -83 805 -104 184 -9 382 -22 440 -31 200 -29 357 -79 485 -155 l70 -41
115 13 c148 18 599 18 740 1 265 -33 555 -90 824 -163 81 -22 150 -38 153 -35
8 7 -16 45 -82 132 -95 124 -97 150 -10 141 29 -3 99 -21 156 -41 l104 -36
-46 47 c-109 113 -168 204 -155 239 10 25 66 11 181 -46 103 -51 115 -51 115
-3 1 132 -272 300 -606 373 -120 26 -273 31 -366 11 -56 -12 -85 -13 -172 -2
-128 14 -202 35 -216 61 -16 30 -12 120 11 200 11 41 54 162 95 268 93 240
108 303 129 517 47 492 176 810 432 1062 61 61 93 82 186 128 253 123 456 164
1007 205 662 49 865 103 1245 328 342 203 626 547 739 894 53 163 61 222 61
443 0 194 -1 202 -28 269 -42 105 -78 164 -230 365 -77 102 -155 217 -173 256
-73 154 -65 257 31 405 52 79 69 146 69 265 1 154 -56 286 -171 401 -224 224
-626 299 -917 170 -84 -37 -226 -134 -282 -192 -172 -179 -202 -453 -79 -709
144 -299 452 -459 745 -389 176 42 258 38 375 -20 172 -85 308 -288 382 -573
26 -99 28 -123 28 -293 0 -120 -4 -199 -13 -226 -6 -23 -46 -94 -87 -159 -222
-347 -497 -610 -790 -757 -241 -121 -414 -155 -1015 -198 -536 -38 -740 -81
-984 -208 -92 -48 -125 -72 -204 -149 -121 -118 -188 -152 -242 -123 -34 18
-67 91 -114 250 -60 199 -111 306 -185 380 -31 32 -64 62 -74 67 -22 12 -40
117 -31 182 20 150 69 263 239 561 196 343 264 503 281 659 4 31 15 88 26 126
29 103 35 367 13 590 -26 267 -31 511 -11 624 30 172 104 303 223 395 29 23
99 78 155 122 57 45 200 153 318 241 357 264 493 390 606 559 46 69 116 205
137 267 6 16 9 16 35 3 98 -51 304 -66 437 -32 165 42 353 160 450 284 101
128 145 249 145 397 0 278 -160 494 -416 559 -39 10 -105 16 -176 16 -206 0
-379 -62 -549 -195 -142 -112 -262 -348 -224 -442 32 -78 48 -185 43 -292 -12
-238 -136 -474 -380 -719 -135 -136 -264 -235 -360 -277 -293 -127 -530 -344
-643 -589 -53 -114 -69 -192 -69 -336 1 -129 10 -180 59 -325 31 -90 49 -271
41 -397 -32 -477 -221 -895 -686 -1518 -63 -85 -118 -159 -121 -164 -4 -4 -42
8 -85 27 -251 113 -513 199 -1052 346 -139 38 -255 71 -257 73 -3 2 11 42 31
89 53 125 91 246 118 377 45 218 51 289 51 637 0 375 -21 647 -60 805 -73 291
-105 536 -112 842 -7 329 15 537 87 793 105 372 361 668 761 879 176 92 345
154 597 216 213 52 308 108 463 266 87 91 102 111 167 240 87 172 130 280 217
542 49 150 72 205 87 213 38 20 162 60 317 100 271 71 375 117 474 208 66 62
96 108 139 218 25 64 31 97 35 183 9 183 -44 317 -177 451 -144 146 -275 183
-495 139z m230 -191 c182 -68 274 -328 194 -545 -60 -163 -176 -263 -364 -315
-111 -30 -247 -24 -321 14 -28 14 -65 37 -81 51 -41 35 -89 129 -104 204 -31
162 58 371 205 479 166 123 335 163 471 112z m-4780 -447 c126 -60 232 -191
270 -338 33 -126 13 -282 -48 -387 -33 -57 -123 -138 -184 -168 -45 -23 -58
-24 -234 -23 -158 1 -195 4 -255 22 -249 76 -393 329 -328 577 40 155 169 273
332 305 31 6 82 18 112 25 30 8 64 17 75 19 11 3 59 4 107 2 72 -3 98 -9 153
-34z m6230 -1976 c188 -93 304 -293 275 -472 -25 -153 -136 -266 -341 -349
-69 -27 -114 -39 -170 -42 -231 -16 -446 165 -457 384 -5 97 16 160 84 253
103 140 172 200 283 247 48 20 69 23 152 21 88 -3 103 -7 174 -42z m-10642
-23 c-7 -2 -21 -2 -30 0 -10 3 -4 5 12 5 17 0 24 -2 18 -5z m210 -191 c120
-60 218 -198 252 -357 49 -233 -44 -449 -235 -544 -175 -86 -348 -81 -486 15
-67 45 -181 174 -207 233 -25 58 -33 151 -17 224 27 134 140 297 265 382 134
93 298 111 428 47z m-836 -509 c-2 -16 -4 -3 -4 27 0 30 2 43 4 28 2 -16 2
-40 0 -55z m3680 -965 c-2 -13 -4 -5 -4 17 -1 22 1 32 4 23 2 -10 2 -28 0 -40z
m8014 -568 c223 -69 390 -278 376 -472 -9 -131 -85 -230 -244 -319 -77 -43
-79 -44 -173 -44 -118 0 -200 26 -306 97 -229 153 -261 393 -85 629 85 113
269 160 432 109z m-5396 -4094 c268 -89 345 -139 345 -220 0 -54 -39 -109
-123 -172 -34 -25 -72 -64 -85 -85 -13 -22 -34 -42 -48 -45 -52 -13 -90 52
-154 256 -73 238 -92 295 -102 308 -15 18 -10 17 167 -42z m751 -112 c35 -12
50 -12 110 1 81 17 158 19 185 5 23 -13 25 -50 3 -95 -8 -18 -73 -105 -142
-192 -70 -87 -137 -172 -149 -188 -21 -30 -21 -30 -43 -10 -34 31 -110 159
-140 238 -85 219 -20 308 176 241z m-1377 -218 c19 -42 62 -234 75 -338 l5
-46 -37 -6 c-20 -3 -95 -8 -167 -11 -244 -10 -272 36 -119 195 46 48 76 89 84
115 32 100 85 164 120 145 10 -5 27 -30 39 -54z m1914 -363 c14 -16 37 -53 51
-83 25 -56 76 -236 76 -271 0 -10 12 -41 27 -68 24 -41 26 -51 14 -65 -19 -23
-70 -20 -143 8 -35 14 -85 32 -113 42 -31 11 -68 35 -97 64 -59 58 -64 97 -19
145 16 16 36 55 46 85 34 106 76 170 113 170 10 0 30 -12 45 -27z m-4123
-1243 c11 -11 20 -22 20 -24 0 -7 -93 -35 -140 -42 -25 -4 -51 -11 -57 -17
-27 -21 -11 11 20 40 65 62 122 78 157 43z m80 -169 c0 -4 -18 -29 -41 -54
-30 -35 -53 -50 -92 -62 -62 -18 -67 -19 -67 -1 0 16 58 65 121 101 44 25 79
32 79 16z m6400 -31 c26 -17 56 -40 66 -51 l19 -22 -50 5 c-59 5 -122 33 -136
60 -25 47 33 51 101 8z m-139 -198 c24 -16 50 -36 58 -45 12 -15 10 -17 -21
-17 -48 0 -149 28 -170 47 -26 23 -5 43 46 43 29 0 56 -9 87 -28z m-6158 -119
c13 -12 -24 -41 -80 -64 -45 -18 -56 -20 -63 -9 -12 19 5 47 38 64 28 16 93
21 105 9z m5960 -39 c80 -41 107 -63 107 -88 0 -39 -23 -50 -64 -31 -36 17
-136 116 -136 134 0 19 39 12 93 -15z"/>
<path d="M9641 11369 c-61 -12 -166 -63 -218 -105 -63 -52 -103 -126 -103
-192 0 -87 35 -146 133 -223 42 -34 55 -39 100 -39 107 0 249 50 310 108 52
50 91 233 68 320 -30 111 -140 161 -290 131z m-3 -178 c2 -13 -2 -36 -8 -52
-11 -25 -18 -29 -50 -29 -56 0 -67 20 -34 60 44 52 86 62 92 21z m-25 -229
c-33 -24 -56 4 -27 33 17 16 18 16 31 -1 12 -16 11 -21 -4 -32z"/>
<path d="M4733 10925 c-145 -45 -283 -206 -283 -332 0 -68 22 -116 80 -174 71
-71 178 -119 267 -119 154 0 295 95 321 215 10 45 -7 144 -39 230 -59 157
-194 228 -346 180z m1 -201 c23 -9 20 -44 -9 -86 -23 -34 -27 -36 -54 -27 -34
12 -71 45 -71 63 0 14 27 40 50 49 21 8 65 8 84 1z m104 -186 c-16 -23 -78
-39 -78 -19 0 16 42 41 68 41 23 0 24 -1 10 -22z"/>
<path d="M11223 8978 c-108 -16 -233 -94 -304 -188 -111 -148 -62 -293 130
-383 197 -93 440 5 492 197 14 50 -2 167 -32 237 -47 107 -152 158 -286 137z
m51 -134 c22 -21 20 -30 -13 -101 l-29 -61 -74 -7 c-131 -12 -167 28 -89 98
80 72 173 104 205 71z"/>
<path d="M623 8745 c-150 -46 -293 -211 -322 -370 -31 -169 70 -311 267 -374
332 -107 641 223 492 526 -45 91 -139 184 -214 212 -65 24 -158 27 -223 6z
m-58 -286 c4 -6 4 -30 0 -55 -5 -39 -11 -47 -45 -64 -51 -26 -70 -25 -70 2 0
27 44 104 68 117 22 14 39 14 47 0z m176 -139 c-6 -46 -29 -78 -61 -85 -62
-14 -67 21 -10 77 45 45 77 48 71 8z"/>
<path d="M11511 6709 c-94 -18 -111 -52 -118 -239 l-5 -125 37 -48 c46 -60
154 -150 219 -182 70 -35 128 -33 202 6 89 46 164 107 180 145 17 39 18 153 3
207 -13 49 -135 178 -204 218 -47 27 -56 29 -160 28 -60 -1 -130 -5 -154 -10z"/>
<path d="M11612 9488 c3 -7 13 -15 24 -17 16 -3 17 -1 5 13 -16 19 -34 21 -29
4z"/>
</g>
</svg>
