<?xml version="1.0" standalone="no"?>
<!DOCTYPE svg PUBLIC "-//W3C//DTD SVG 20010904//EN"
 "http://www.w3.org/TR/2001/REC-SVG-20010904/DTD/svg10.dtd">
<svg version="1.0" xmlns="http://www.w3.org/2000/svg"
 width="1280.000000pt" height="988.000000pt" viewBox="0 0 1280.000000 988.000000"
 preserveAspectRatio="xMidYMid meet">
<metadata>
Created by potrace 1.15, written by Peter Selinger 2001-2017
</metadata>
<g transform="translate(0.000000,988.000000) scale(0.100000,-0.100000)"
fill="#000000" stroke="none">
<path d="M11925 9870 c-22 -5 -96 -24 -165 -44 -96 -28 -140 -47 -190 -81
-133 -90 -295 -236 -485 -436 -130 -137 -467 -536 -482 -570 -6 -15 -30 -37
-53 -50 -25 -14 -43 -33 -47 -49 -11 -44 -163 -241 -568 -735 -298 -364 -439
-548 -574 -748 -66 -98 -105 -144 -149 -178 -79 -62 -96 -100 -95 -209 0 -64
6 -103 24 -155 l25 -70 -100 -105 c-55 -58 -172 -179 -261 -271 -91 -94 -175
-190 -195 -224 -51 -86 -79 -178 -80 -257 0 -77 44 -225 109 -364 79 -168 168
-534 212 -874 42 -324 34 -855 -16 -1100 -31 -151 -36 -169 -132 -480 -58
-190 -88 -270 -134 -357 -109 -210 -282 -456 -475 -674 -62 -70 -118 -120
-198 -177 -311 -222 -528 -335 -751 -391 -44 -11 -134 -39 -200 -61 -184 -63
-220 -71 -360 -81 -71 -5 -164 -13 -205 -18 -41 -6 -212 -10 -380 -10 l-305
-1 -342 85 c-562 139 -666 171 -1018 315 -463 189 -754 334 -1100 545 -601
367 -1216 910 -1568 1385 -39 52 -152 196 -252 320 -259 323 -284 360 -488
730 -322 587 -529 1111 -675 1710 -21 86 -36 96 -92 58 -61 -42 -82 -107 -126
-378 -40 -251 -41 -336 -10 -520 68 -396 182 -775 357 -1186 85 -199 340 -710
428 -857 223 -373 616 -872 961 -1217 231 -233 731 -631 1130 -902 615 -417
1375 -787 1825 -889 77 -17 176 -45 220 -61 333 -123 892 -222 1330 -234 389
-12 1019 69 1336 172 295 95 692 275 938 423 329 200 565 404 767 662 435 557
673 1073 739 1604 21 169 30 636 16 780 -22 210 -60 387 -128 600 -54 168
-110 299 -243 566 -132 264 -236 445 -331 579 -75 104 -80 117 -80 206 0 85
20 145 80 233 57 83 238 270 278 287 21 9 75 14 150 14 163 1 178 8 289 127
181 195 471 458 1054 959 212 182 458 398 547 480 654 601 753 700 888 889
115 161 208 378 221 520 17 167 -87 456 -206 576 -69 70 -224 149 -350 179
-89 21 -237 25 -315 10z m280 -100 c114 -29 214 -82 293 -155 89 -83 124 -145
161 -286 36 -135 39 -212 12 -301 -10 -35 -29 -97 -41 -138 -49 -163 -118
-269 -295 -450 -72 -74 -187 -193 -256 -264 -170 -176 -374 -359 -774 -695
-191 -161 -401 -347 -480 -426 -122 -123 -488 -458 -522 -479 -15 -9 -53 10
-53 27 0 7 25 32 56 56 30 24 169 152 307 285 139 132 293 276 343 318 51 43
103 90 116 105 62 72 259 250 528 477 334 282 624 564 740 721 41 55 89 117
107 137 47 54 94 155 142 301 38 115 40 129 26 143 -8 9 -15 27 -15 41 0 23
-2 24 -17 12 -15 -12 -16 -12 -9 6 17 46 18 76 3 93 -9 9 -21 39 -27 66 -15
68 -36 105 -65 112 -24 6 -24 6 -8 45 8 22 14 42 12 44 -2 2 -23 -2 -47 -8
-56 -15 -77 -3 -78 48 -1 44 -15 55 -71 55 -52 0 -71 -7 -84 -33 -11 -19 -9
-20 27 -14 22 3 47 8 57 12 14 6 17 2 17 -28 0 -26 12 -50 52 -102 44 -57 52
-74 52 -109 0 -23 -4 -51 -8 -63 -8 -21 -5 -23 22 -23 17 0 33 -4 36 -8 9 -15
-91 -158 -170 -242 -110 -116 -116 -90 -8 32 67 75 100 139 79 150 -7 5 -16
22 -20 38 -7 32 -23 37 -57 19 l-21 -11 21 35 c30 47 29 71 -2 65 -24 -5 -24
-5 -8 29 12 25 13 36 5 44 -9 9 -22 3 -52 -20 -58 -46 -84 -92 -76 -134 4 -21
3 -37 -4 -41 -6 -4 -11 -12 -11 -18 0 -10 18 -8 80 8 25 7 25 6 -6 -27 -82
-91 -93 -123 -44 -134 17 -4 30 -9 30 -12 0 -13 -72 -132 -112 -184 -24 -31
-86 -104 -138 -161 -52 -57 -135 -151 -184 -207 -97 -110 -202 -210 -560 -531
-127 -113 -289 -258 -360 -324 -240 -218 -418 -342 -483 -338 -42 3 -94 -27
-122 -70 -26 -41 -18 -51 25 -33 43 18 43 8 -1 -35 -42 -41 -44 -50 -7 -50 37
0 87 32 113 73 13 20 40 40 66 51 59 24 105 62 378 306 432 384 1095 943 1095
922 0 -21 -466 -466 -1040 -992 -379 -348 -524 -485 -747 -704 -127 -125 -133
-129 -158 -118 -15 7 -25 18 -22 25 2 6 46 45 98 84 110 85 191 168 220 225
30 58 10 73 -33 24 -18 -21 -50 -47 -71 -57 -20 -11 -69 -57 -108 -103 -68
-81 -128 -126 -165 -126 -21 0 -155 83 -195 122 -37 35 -61 73 -68 111 -6 29
1 42 74 138 82 109 167 246 249 404 68 129 20 70 -107 -133 -112 -179 -212
-312 -234 -312 -8 0 -21 17 -30 38 -13 31 -14 47 -4 105 l11 68 352 452 c194
249 431 551 527 672 448 562 892 1066 1041 1179 208 160 492 230 705 176z m90
-589 c-3 -6 -11 -11 -17 -11 -6 0 -6 6 2 15 14 17 26 13 15 -4z m197 -48 c-6
-10 -22 -29 -37 -43 l-28 -25 13 25 c15 30 52 72 58 66 2 -2 -1 -13 -6 -23z
m-151 -191 c-5 -10 -17 -24 -25 -32 -13 -10 -16 -10 -16 3 0 17 26 47 41 47 6
0 6 -7 0 -18z m-201 -351 c0 -24 -96 -130 -197 -216 -72 -62 -126 -117 -153
-158 -24 -37 -75 -90 -123 -130 -163 -136 -369 -329 -777 -727 -393 -384 -457
-445 -663 -632 -76 -70 -119 -98 -148 -98 -23 0 49 74 147 150 63 49 128 112
162 154 87 110 163 186 342 344 91 80 298 277 460 437 162 160 412 399 555
531 143 131 287 265 320 296 59 57 75 67 75 49z m-2650 -1525 c0 -36 -36 -82
-117 -149 -43 -36 -88 -79 -101 -96 -27 -36 -42 -33 -42 10 0 29 24 63 179
248 l45 54 18 -23 c10 -12 18 -32 18 -44z m45 -152 c17 -13 64 -63 104 -113
41 -50 92 -103 113 -117 21 -15 38 -30 38 -35 0 -4 -20 -24 -45 -44 -39 -32
-191 -198 -229 -251 -13 -18 -15 -18 -55 1 -58 26 -126 102 -166 187 -50 105
-53 130 -20 181 40 61 206 228 219 220 6 -4 25 -17 41 -29z m624 -420 c12 -14
21 -27 19 -28 -32 -19 -99 -75 -160 -134 -83 -78 -126 -102 -184 -102 l-36 0
53 48 c30 26 67 62 84 81 46 52 174 161 189 161 7 0 23 -12 35 -26z m-1026
-224 c50 -19 127 -77 127 -96 0 -5 -41 -61 -91 -124 -104 -133 -158 -219 -195
-310 -28 -68 -37 -150 -18 -157 6 -2 34 43 62 100 59 120 143 238 230 320 62
58 90 69 112 42 24 -29 0 -69 -104 -170 -137 -133 -158 -176 -157 -332 0 -142
13 -181 118 -351 232 -376 368 -655 462 -945 51 -156 66 -221 91 -385 95 -625
-5 -1276 -282 -1838 -76 -153 -148 -267 -318 -496 -140 -190 -241 -305 -347
-392 -34 -28 -106 -89 -160 -135 -272 -230 -657 -431 -1053 -546 -238 -69
-511 -123 -795 -157 -170 -20 -712 -17 -895 6 -173 21 -343 49 -462 77 l-87
20 157 187 c86 103 203 235 260 293 l103 106 182 7 c321 12 659 52 857 100 30
8 68 17 83 20 24 6 9 -16 -99 -141 -154 -180 -328 -396 -419 -521 -51 -70 -65
-96 -56 -105 8 -8 15 -5 28 13 10 14 32 41 49 60 17 19 116 141 221 270 162
200 396 470 407 470 2 0 33 11 70 25 36 14 66 21 66 17 0 -14 -141 -194 -315
-402 -206 -246 -332 -413 -315 -418 18 -6 52 30 228 248 142 176 310 377 491
588 42 48 125 102 159 102 8 0 -8 -24 -35 -54 -121 -132 -313 -387 -487 -646
l-98 -145 82 84 c45 47 155 182 243 300 290 389 361 468 534 590 154 108 246
184 377 311 145 142 186 192 344 428 333 500 453 924 493 1750 l13 253 -27
172 c-15 95 -32 217 -37 272 -14 129 -35 217 -109 449 -33 104 -72 241 -87
305 -14 63 -30 124 -36 135 -20 38 -38 121 -38 181 0 118 57 262 129 328 20
18 49 51 64 73 15 23 57 65 93 94 35 29 69 61 75 71 13 24 45 24 112 -1z
m-8933 -322 c151 -522 351 -985 671 -1551 l112 -199 -58 -58 c-40 -41 -56 -64
-53 -79 3 -21 4 -21 26 -5 13 9 39 41 58 70 19 30 39 54 44 54 6 0 23 -28 38
-62 l29 -63 -44 -47 c-38 -42 -55 -78 -36 -78 3 0 31 19 61 42 52 40 55 41 68
23 24 -32 16 -52 -38 -97 -82 -68 -108 -95 -108 -112 0 -30 32 -16 93 43 34
32 73 64 86 71 22 11 27 10 43 -10 24 -29 16 -42 -82 -131 -77 -69 -129 -134
-117 -146 17 -17 63 15 123 85 75 88 104 108 134 92 19 -10 19 -13 5 -41 -9
-16 -43 -60 -77 -97 -58 -64 -107 -147 -93 -160 3 -3 40 30 82 73 42 44 88 88
102 97 47 32 63 24 134 -69 86 -116 248 -304 465 -541 98 -106 179 -197 181
-203 1 -6 -44 -58 -102 -118 -129 -132 -173 -206 -100 -168 30 17 91 78 166
168 25 30 58 61 71 69 23 12 28 11 46 -5 38 -35 27 -70 -49 -149 -95 -99 -117
-144 -61 -124 17 5 58 41 91 78 33 37 74 74 91 81 27 11 32 10 44 -6 25 -34
15 -57 -51 -126 -36 -37 -65 -74 -65 -83 0 -33 38 -14 105 54 76 77 98 84 135
45 21 -22 22 -26 8 -47 -9 -13 -34 -42 -57 -66 -42 -44 -54 -82 -25 -82 9 0
31 16 48 37 17 20 43 49 58 65 l27 29 163 -122 c632 -473 1397 -877 2118
-1120 85 -29 157 -53 159 -55 2 -2 -6 -19 -18 -39 -11 -20 -21 -38 -21 -41 0
-2 18 7 39 22 39 25 81 29 88 8 2 -5 -19 -38 -47 -73 -27 -34 -50 -67 -50 -72
0 -23 29 -4 85 56 33 35 71 68 85 73 27 10 70 -1 70 -18 0 -12 -61 -82 -109
-125 -40 -35 -111 -123 -111 -136 0 -23 67 32 147 119 90 98 129 125 169 120
22 -3 17 -12 -72 -113 -99 -113 -164 -201 -164 -221 0 -23 40 -2 67 36 16 20
80 92 144 158 79 83 123 122 138 122 49 0 31 -30 -99 -172 -138 -150 -218
-249 -269 -336 -61 -104 21 -26 254 242 161 184 223 239 268 234 17 -2 32 -8
34 -13 2 -6 -49 -69 -113 -140 -111 -123 -173 -203 -225 -290 l-24 -40 30 19
c51 32 85 67 166 175 97 128 209 248 245 261 15 6 35 8 45 5 18 -6 16 -10 -13
-53 -45 -67 -87 -118 -227 -277 -68 -77 -140 -161 -160 -188 -19 -26 -43 -47
-52 -47 -66 0 -375 76 -579 142 -503 162 -1211 516 -1539 767 -42 32 -96 69
-121 81 -153 77 -370 240 -685 516 -138 121 -284 247 -326 281 -89 72 -284
273 -376 388 -36 44 -95 126 -131 183 -37 57 -113 165 -168 241 -283 384 -464
682 -598 980 -34 75 -72 147 -84 159 -12 12 -22 29 -22 37 0 8 -7 15 -15 15
-8 0 -15 -4 -15 -9 0 -18 103 -240 179 -386 183 -350 536 -912 657 -1045 37
-41 144 -167 238 -280 214 -258 563 -610 607 -610 11 0 48 -25 82 -56 34 -30
124 -103 200 -162 76 -58 166 -131 200 -161 76 -69 206 -160 397 -278 344
-213 891 -498 1120 -583 543 -203 1019 -331 1500 -404 296 -45 388 -51 760
-51 441 0 568 14 998 110 181 40 249 63 457 155 77 33 184 77 238 95 201 71
545 331 847 642 336 345 555 694 705 1123 213 612 230 1240 51 1891 -93 337
-291 750 -475 989 -64 83 -79 108 -92 152 -8 30 -2 88 10 88 3 0 24 -31 45
-68 22 -37 97 -155 166 -262 143 -219 210 -337 210 -367 0 -30 23 -80 80 -174
28 -45 55 -101 61 -123 6 -23 29 -90 51 -151 22 -60 55 -168 73 -240 29 -113
46 -217 108 -670 7 -50 9 -108 5 -130 -4 -22 -14 -146 -22 -275 -9 -129 -21
-266 -27 -305 -15 -91 -113 -388 -178 -540 -306 -709 -881 -1317 -1556 -1645
-389 -189 -793 -309 -1250 -371 -192 -26 -674 -37 -880 -20 -804 67 -1689 328
-2430 715 -247 129 -383 214 -680 424 -664 470 -1007 750 -1264 1033 -169 186
-358 402 -413 474 -252 326 -615 938 -743 1255 -26 63 -55 124 -65 135 -38 42
-81 136 -135 295 -31 91 -68 197 -81 235 -33 94 -56 187 -98 393 -39 190 -40
195 -25 169 22 -38 72 -199 119 -388 52 -206 96 -342 138 -424 44 -88 103
-175 119 -175 19 0 11 26 -38 116 -26 46 -46 104 -60 165 -11 52 -54 183 -94
291 -46 121 -81 232 -90 285 -9 49 -34 162 -57 253 -94 378 -100 465 -41 603
9 20 22 37 29 37 8 0 22 -30 34 -72z m5579 -4944 c17 -4 31 -11 31 -16 0 -5
-49 -62 -109 -126 -129 -137 -220 -245 -303 -359 -57 -78 -63 -83 -97 -83 -21
0 -46 6 -56 14 -19 13 -18 15 15 54 19 22 103 121 186 219 184 217 264 303
286 303 8 0 30 -3 47 -6z"/>
<path d="M12020 9678 c-25 -4 -108 -39 -185 -78 -230 -116 -557 -379 -691
-557 -33 -43 -104 -130 -159 -193 -205 -235 -649 -779 -642 -786 5 -6 102 98
186 201 36 44 160 186 275 315 212 238 330 380 402 481 41 58 254 250 387 350
98 74 243 146 322 160 39 8 68 20 83 35 19 20 33 24 83 24 45 0 61 4 66 16 3
8 2 19 -3 23 -15 14 -76 18 -124 9z"/>
<path d="M12114 9478 c-62 -48 -82 -90 -59 -124 26 -41 54 -30 127 48 38 40
68 78 68 85 0 24 -103 17 -136 -9z"/>
<path d="M11779 9412 c-227 -148 -412 -326 -745 -712 -117 -135 -219 -252
-228 -259 -9 -7 -16 -18 -16 -23 0 -36 233 192 443 432 223 256 359 388 445
433 37 20 100 61 141 91 41 31 80 56 88 56 24 0 14 -30 -23 -66 -23 -24 -32
-40 -26 -46 7 -7 36 10 85 47 70 52 115 100 104 111 -2 3 -25 0 -50 -6 -31 -6
-55 -7 -72 0 -15 6 -30 10 -34 10 -4 0 -54 -31 -112 -68z"/>
<path d="M11742 9045 c-66 -72 -178 -232 -169 -242 18 -17 156 109 158 144 1
40 9 52 58 98 55 52 62 65 32 65 -11 0 -45 -29 -79 -65z"/>
<path d="M11847 9013 c-102 -88 -234 -244 -222 -263 19 -30 61 2 156 118 39
48 92 106 117 128 31 29 43 46 39 58 -4 9 -10 16 -15 16 -4 0 -38 -26 -75 -57z"/>
<path d="M12033 9042 c-29 -15 -73 -44 -98 -66 -49 -40 -285 -319 -285 -335 0
-5 9 -13 20 -16 11 -3 20 -9 20 -13 -1 -14 -87 -101 -207 -211 -66 -61 -136
-130 -155 -153 l-33 -43 50 29 c159 91 303 219 567 500 124 133 155 172 147
183 -20 23 -42 14 -91 -34 -32 -32 -48 -42 -48 -31 0 18 38 59 123 131 33 28
57 56 57 68 0 25 -5 24 -67 -9z"/>
<path d="M11494 8893 c-194 -159 -319 -291 -611 -644 -98 -119 -198 -240 -223
-270 l-45 -54 66 58 c71 62 148 145 401 427 181 203 381 402 470 469 36 27 55
48 51 57 -10 26 -38 15 -109 -43z"/>
<path d="M10663 8267 c-37 -41 -106 -127 -153 -193 -46 -65 -118 -155 -160
-199 -63 -67 -88 -104 -154 -232 -49 -95 -100 -178 -136 -220 -140 -168 -240
-296 -240 -309 0 -36 37 -4 146 128 194 232 307 390 327 456 25 80 82 171 179
285 157 186 217 262 243 310 15 26 24 47 22 47 -3 0 -36 -33 -74 -73z"/>
<path d="M11120 8205 c-80 -93 -136 -172 -127 -181 11 -11 67 37 114 99 26 34
64 81 85 105 37 40 42 62 14 62 -7 0 -45 -38 -86 -85z"/>
<path d="M10288 8029 c-15 -11 -51 -52 -79 -92 -29 -40 -85 -107 -126 -149
-51 -54 -73 -85 -73 -103 0 -37 13 -31 48 23 17 26 67 88 112 137 82 91 167
205 153 205 -4 0 -20 -10 -35 -21z"/>
<path d="M10502 7744 c-60 -42 -413 -457 -399 -470 9 -10 131 112 225 226 53
63 119 141 149 172 29 31 53 64 53 72 0 20 0 20 -28 0z"/>
<path d="M10274 7398 c-114 -116 -213 -230 -234 -268 l-12 -22 32 18 c63 37
350 339 350 368 0 33 -29 13 -136 -96z"/>
<path d="M10093 7097 c-50 -24 -57 -47 -14 -47 32 0 81 34 81 56 0 18 -15 16
-67 -9z"/>
<path d="M8304 1427 c-34 -34 -77 -83 -97 -108 -58 -72 -197 -282 -197 -296 0
-20 19 -15 41 10 38 45 321 448 317 452 -2 3 -31 -24 -64 -58z"/>
<path d="M7780 1373 c-159 -167 -396 -472 -479 -618 -50 -88 147 133 298 333
83 112 186 241 227 287 70 78 86 105 65 105 -5 0 -55 -48 -111 -107z"/>
<path d="M8014 1358 c-94 -98 -213 -256 -231 -305 -11 -33 87 70 165 172 41
55 88 115 104 133 28 32 35 52 20 52 -4 0 -30 -24 -58 -52z"/>
<path d="M8463 1323 c-45 -49 -99 -130 -91 -138 8 -8 116 94 137 129 44 71 16
76 -46 9z"/>
<path d="M2415 2329 c-25 -34 -45 -67 -45 -75 0 -18 23 -30 28 -15 2 7 29 40
58 73 30 33 54 64 54 69 0 5 -11 9 -25 9 -19 0 -36 -15 -70 -61z"/>
</g>
</svg>
