<?xml version="1.0" standalone="no"?>
<!DOCTYPE svg PUBLIC "-//W3C//DTD SVG 20010904//EN"
 "http://www.w3.org/TR/2001/REC-SVG-20010904/DTD/svg10.dtd">
<svg version="1.0" xmlns="http://www.w3.org/2000/svg"
 width="640.000000pt" height="1280.000000pt" viewBox="0 0 640.000000 1280.000000"
 preserveAspectRatio="xMidYMid meet">
<metadata>
Created by potrace 1.15, written by Peter Selinger 2001-2017
</metadata>
<g transform="translate(0.000000,1280.000000) scale(0.100000,-0.100000)"
fill="#000000" stroke="none">
<path d="M2738 12785 c-109 -18 -157 -30 -223 -59 -63 -29 -285 -212 -314
-261 -11 -19 -25 -35 -30 -35 -16 0 -83 -110 -118 -195 -64 -158 -77 -354 -38
-580 18 -106 66 -265 105 -352 25 -54 36 -67 99 -108 78 -52 108 -88 168 -210
105 -210 157 -403 237 -890 80 -478 89 -548 92 -710 2 -88 8 -187 13 -220 20
-127 32 -1039 21 -1623 -13 -715 -13 -1584 1 -1857 17 -359 29 -826 39 -1455
9 -612 19 -929 40 -1275 7 -107 10 -321 8 -490 -4 -288 -6 -304 -32 -400 -49
-184 -126 -399 -185 -520 -115 -236 -214 -331 -446 -429 -162 -69 -255 -138
-271 -202 -8 -31 12 -157 38 -244 40 -133 92 -188 198 -209 62 -13 211 -60
223 -71 4 -3 -2 -64 -13 -133 -11 -70 -20 -131 -20 -137 0 -15 117 -66 220
-97 75 -22 97 -24 185 -19 138 8 248 29 282 54 15 11 59 52 98 91 38 39 75 71
82 71 7 0 26 -15 44 -34 51 -57 116 -78 223 -74 86 3 98 6 181 48 120 60 156
60 285 0 114 -53 174 -60 285 -35 60 13 85 24 115 51 54 49 96 119 115 189 26
100 45 291 45 451 l0 152 -34 48 c-171 241 -242 368 -356 634 -34 80 -81 183
-105 230 -45 90 -78 184 -119 340 -122 455 -141 785 -151 2615 -4 589 -11
1135 -15 1215 -5 80 -15 368 -21 640 -11 429 -10 577 5 1110 24 872 35 1491
38 2208 3 535 1 624 -11 632 -9 5 -22 5 -32 -1 -25 -13 -27 -60 -39 -1204 -6
-566 -16 -1156 -22 -1310 -15 -370 -14 -1805 1 -1990 7 -86 15 -619 20 -1380
10 -1391 18 -1648 67 -2085 23 -207 50 -350 100 -525 52 -180 66 -220 128
-355 24 -52 53 -117 64 -145 89 -220 193 -416 304 -572 68 -95 108 -176 108
-216 0 -27 -3 -25 -62 36 -53 54 -75 69 -138 92 -90 34 -110 46 -176 105 -49
44 -106 71 -132 62 -28 -9 -12 -51 31 -80 23 -16 50 -39 60 -50 19 -20 19 -21
-20 -28 -94 -18 -130 3 -159 90 -12 35 -32 66 -66 98 -83 82 -102 62 -67 -73
28 -109 49 -146 86 -155 56 -12 57 -13 20 -54 -20 -21 -43 -52 -51 -68 -27
-52 -35 -54 -122 -26 -49 16 -114 28 -171 31 -99 6 -116 1 -272 -87 -78 -43
-120 -41 -243 16 -110 50 -240 75 -288 56 -18 -7 -48 -52 -108 -159 -46 -82
-93 -161 -105 -177 l-22 -28 -125 37 c-168 49 -229 80 -256 129 -21 37 -49
145 -40 154 3 2 14 -14 25 -37 32 -62 146 -133 165 -102 11 18 -17 72 -45 86
-46 24 -62 67 -57 151 5 81 24 119 66 136 233 94 359 191 467 357 127 197 243
535 280 814 19 152 20 565 0 972 -8 165 -19 534 -25 820 -5 286 -17 763 -25
1060 -36 1241 -36 1290 -26 1985 6 377 11 802 12 945 2 381 -8 1142 -14 1152
-4 5 -13 120 -22 254 -9 134 -24 300 -35 369 -11 69 -27 179 -36 245 -40 306
-105 627 -160 795 -19 58 -81 199 -141 317 -136 272 -139 287 -65 401 56 85
76 127 116 249 34 102 50 123 135 173 117 68 231 157 231 181 0 12 23 68 50
125 72 149 68 147 292 139 203 -8 272 4 303 51 21 32 42 28 133 -27 37 -23 87
-48 111 -58 24 -9 52 -27 62 -41 46 -61 95 -387 86 -562 -4 -81 -18 -154 -66
-344 -101 -400 -147 -658 -121 -689 17 -20 37 -19 49 3 17 32 35 193 24 211
-8 13 -2 42 23 116 40 121 126 442 155 580 25 117 22 236 -12 470 -33 232 -50
265 -163 322 -39 19 -84 46 -99 59 -16 13 -35 24 -43 24 -8 0 -48 33 -88 73
-152 148 -165 158 -245 178 -41 11 -104 29 -140 40 -86 28 -288 34 -413 14z
m457 -385 c18 -8 18 -9 -5 -8 -14 0 -38 4 -55 8 l-30 8 35 0 c19 0 44 -3 55
-8z m-965 -1090 c0 -5 -2 -10 -4 -10 -3 0 -8 5 -11 10 -3 6 -1 10 4 10 6 0 11
-4 11 -10z m1471 -1603 c-8 -8 -11 -7 -11 4 0 20 13 34 18 19 3 -7 -1 -17 -7
-23z m-15 -975 c-11 -10 -15 4 -8 28 l7 25 3 -23 c2 -13 1 -26 -2 -30z m-890
-479 c-11 -11 -17 4 -9 23 7 18 8 18 11 1 2 -10 1 -21 -2 -24z m851 -885 c-3
-7 -5 -2 -5 12 0 14 2 19 5 13 2 -7 2 -19 0 -25z m49 -2725 c-10 -10 -19 5
-10 18 6 11 8 11 12 0 2 -7 1 -15 -2 -18z m-825 -2480 c-10 -17 -10 -16 -11 3
0 23 13 41 18 25 2 -6 -1 -18 -7 -28z m924 -1143 c-10 -11 -23 -20 -28 -20 -6
0 -2 9 8 20 10 11 23 20 28 20 6 0 2 -9 -8 -20z m-1791 -122 c-3 -13 -13 -34
-20 -48 l-13 -25 -1 28 c0 32 16 67 31 67 6 0 8 -9 3 -22z m1726 -285 c-11
-17 -11 -17 -6 0 3 10 7 33 8 50 l1 32 4 -32 c2 -18 -1 -41 -7 -50z m727 -50
c-3 -10 -5 -4 -5 12 0 17 2 24 5 18 2 -7 2 -21 0 -30z m-20 -130 c-3 -10 -5
-4 -5 12 0 17 2 24 5 18 2 -7 2 -21 0 -30z m-1769 -410 c-10 -2 -26 -2 -35 0
-10 3 -2 5 17 5 19 0 27 -2 18 -5z"/>
<path d="M3587 12313 c-10 -11 -41 -19 -82 -24 -54 -5 -72 -12 -96 -35 -47
-45 -48 -81 -2 -182 22 -48 50 -114 62 -147 25 -70 47 -100 79 -110 15 -4 24
-2 28 10 8 19 -34 139 -87 254 -21 46 -39 92 -39 101 0 12 14 21 46 30 25 7
55 22 65 33 18 20 18 20 73 -7 59 -29 72 -49 57 -88 -26 -69 -77 -436 -87
-633 -6 -103 -5 -122 9 -133 9 -8 20 -11 26 -8 12 8 26 100 51 335 22 200 29
251 37 251 3 0 14 -11 25 -25 23 -30 44 -32 58 -5 11 20 8 36 -24 155 -9 32
-16 78 -16 100 0 51 -21 75 -100 115 -33 17 -61 30 -63 30 -1 0 -10 -8 -20
-17z m88 -478 c-4 -31 -9 -54 -12 -51 -3 2 -1 30 2 61 4 31 9 54 12 51 3 -2 1
-30 -2 -61z m-18 -237 c-3 -7 -5 -2 -5 12 0 14 2 19 5 13 2 -7 2 -19 0 -25z"/>
<path d="M3175 12200 c-21 -16 -48 -30 -62 -30 -16 0 -27 -8 -34 -27 -6 -16
-27 -48 -48 -73 -77 -92 -79 -120 -16 -210 25 -35 45 -70 45 -76 0 -16 39 -44
62 -44 12 0 18 8 18 23 0 25 -53 141 -69 151 -6 4 -15 15 -21 26 -19 35 129
200 180 200 13 0 17 -13 18 -69 0 -38 12 -119 26 -180 27 -121 26 -162 -9
-367 -9 -49 -31 -177 -50 -284 -56 -318 -65 -399 -47 -416 8 -8 26 -14 41 -12
l26 3 6 135 c7 138 26 239 52 268 9 11 17 52 21 112 3 52 13 151 22 220 21
165 15 376 -15 474 -11 37 -20 88 -19 113 0 33 -5 50 -22 68 -31 33 -59 31
-105 -5z m102 -97 c-3 -10 -5 -4 -5 12 0 17 2 24 5 18 2 -7 2 -21 0 -30z m54
-445 c-4 -35 -6 -38 -9 -15 -3 26 3 57 10 57 2 0 1 -19 -1 -42z m-120 -595
c-9 -16 -10 -16 -11 -1 0 9 3 25 7 35 7 16 8 17 11 1 2 -10 -1 -25 -7 -35z"/>
<path d="M3153 11824 c-3 -8 -1 -26 6 -40 16 -36 14 -61 -9 -84 -26 -26 -36
-25 -62 5 -27 31 -55 32 -98 3 -33 -23 -39 -31 -58 -80 -14 -35 -55 -62 -82
-53 -25 8 -26 52 -5 140 19 82 19 95 -5 95 -28 0 -46 -35 -59 -111 -19 -111
-15 -146 18 -180 53 -53 135 -29 176 51 34 66 49 77 88 61 55 -22 73 -23 106
-7 62 32 96 151 57 195 -22 25 -64 28 -73 5z m-343 -168 c0 -8 -4 -18 -10 -21
-5 -3 -10 3 -10 14 0 12 5 21 10 21 6 0 10 -6 10 -14z"/>
<path d="M3495 10588 c-2 -7 -9 -78 -15 -158 -6 -80 -19 -230 -31 -334 -30
-279 -35 -410 -26 -605 5 -97 10 -221 10 -276 l2 -100 -30 -3 c-16 -2 -33 -9
-37 -15 -4 -7 -8 -160 -8 -342 0 -310 2 -336 23 -422 13 -50 31 -101 41 -112
25 -28 31 -98 17 -217 -8 -74 -8 -164 0 -349 6 -137 14 -385 17 -549 6 -268 9
-300 24 -310 35 -21 41 6 50 201 6 131 4 235 -4 343 -7 86 -13 322 -13 530 -1
389 -17 800 -34 858 -6 19 -15 40 -22 48 -18 22 -29 86 -18 106 5 10 18 18 28
18 25 0 51 32 57 72 3 18 0 85 -6 148 -7 63 -14 261 -16 440 -3 294 0 345 22
533 30 262 33 466 6 490 -22 20 -31 21 -37 5z m11 -405 c-11 -11 -17 4 -9 23
7 18 8 18 11 1 2 -10 1 -21 -2 -24z m-16 -147 c0 -8 -4 -18 -10 -21 -5 -3 -10
3 -10 14 0 12 5 21 10 21 6 0 10 -6 10 -14z m-29 -429 c-8 -8 -11 -7 -11 4 0
20 13 34 18 19 3 -7 -1 -17 -7 -23z m21 -602 c9 -20 9 -28 -1 -38 -15 -15 -31
6 -31 41 0 30 18 28 32 -3z m-81 -282 c-10 -17 -10 -16 -11 3 0 23 13 41 18
25 2 -6 -1 -18 -7 -28z m-1 -190 c0 -5 -5 -15 -10 -23 -8 -12 -10 -11 -10 8 0
12 5 22 10 22 6 0 10 -3 10 -7z m60 -228 c-13 -14 -26 -22 -29 -19 -3 3 5 14
18 25 33 27 39 24 11 -6z"/>
<path d="M3473 6268 c-4 -7 -9 -274 -10 -593 -4 -789 -15 -955 -129 -1867 -49
-400 -47 -378 -34 -358 8 12 10 11 10 -6 0 -12 -6 -24 -13 -27 -18 -7 -50
-299 -51 -455 -1 -102 1 -115 19 -128 42 -31 49 15 64 408 5 119 12 221 15
227 9 14 29 132 61 352 14 101 29 193 32 204 l6 20 8 -20 c4 -11 8 -65 8 -120
1 -55 8 -192 15 -305 8 -113 17 -270 21 -350 4 -83 19 -222 36 -325 57 -346
66 -375 112 -375 18 0 19 5 13 73 -4 39 -23 155 -42 257 -19 102 -39 241 -44
310 -14 181 -40 776 -41 910 0 63 -4 147 -9 185 -5 39 -13 99 -18 135 -10 70
1 334 18 461 16 115 15 1366 0 1385 -15 17 -36 18 -47 2z m27 -168 c0 -16 -4
-30 -8 -30 -5 0 -7 14 -4 30 2 17 6 30 8 30 2 0 4 -13 4 -30z m3 -670 c-7 -28
-13 -25 -13 6 0 14 4 23 9 20 5 -3 7 -15 4 -26z m-17 -537 c-11 -11 -19 6 -11
24 8 17 8 17 12 0 3 -10 2 -21 -1 -24z m-29 -475 c-3 -7 -5 -2 -5 12 0 14 2
19 5 13 2 -7 2 -19 0 -25z m-87 -668 c0 -11 -4 -20 -9 -20 -5 0 -7 9 -4 20 3
11 7 20 9 20 2 0 4 -9 4 -20z"/>
<path d="M2956 6053 c-5 -34 -26 -288 -26 -320 0 -14 136 -19 156 -5 16 10 47
110 40 127 -4 10 -20 15 -49 15 -62 0 -69 12 -61 107 6 67 4 82 -10 96 -28 27
-44 20 -50 -20z m21 -185 c-3 -7 -5 -2 -5 12 0 14 2 19 5 13 2 -7 2 -19 0 -25z
m4 -101 c-8 -8 -11 -7 -11 4 0 20 13 34 18 19 3 -7 -1 -17 -7 -23z"/>
<path d="M3664 2285 c-4 -15 -1 -52 5 -83 6 -31 15 -111 21 -176 14 -161 30
-223 95 -373 91 -208 124 -271 165 -314 30 -32 44 -40 67 -37 27 3 28 5 27 53
-2 55 -50 208 -95 297 -16 32 -29 66 -29 75 0 10 -16 52 -36 93 -43 91 -144
387 -149 438 -1 20 -3 40 -4 45 -1 4 -14 7 -31 7 -23 0 -31 -5 -36 -25z m91
-265 c-17 -27 -37 4 -28 40 6 22 6 22 20 -4 8 -15 11 -31 8 -36z"/>
<path d="M3305 1357 c-67 -23 -123 -55 -142 -83 -10 -15 -51 -58 -90 -96 -81
-78 -133 -168 -133 -227 0 -83 45 -195 85 -213 49 -22 72 29 35 80 -28 38 -49
130 -39 166 12 40 57 95 105 127 21 15 57 51 79 80 68 89 92 100 205 97 88 -3
95 -2 95 16 0 49 -118 80 -200 53z"/>
</g>
</svg>
