<?xml version="1.0" standalone="no"?>
<!DOCTYPE svg PUBLIC "-//W3C//DTD SVG 20010904//EN"
 "http://www.w3.org/TR/2001/REC-SVG-20010904/DTD/svg10.dtd">
<svg version="1.0" xmlns="http://www.w3.org/2000/svg"
 width="1240.000000pt" height="1280.000000pt" viewBox="0 0 1240.000000 1280.000000"
 preserveAspectRatio="xMidYMid meet">
<metadata>
Created by potrace 1.15, written by Peter Selinger 2001-2017
</metadata>
<g transform="translate(0.000000,1280.000000) scale(0.100000,-0.100000)"
fill="#000000" stroke="none">
<path d="M6140 12790 c-515 -25 -1155 -93 -1485 -156 -362 -70 -642 -158
-1095 -346 -113 -47 -288 -118 -390 -157 -447 -175 -625 -290 -969 -626 -396
-386 -754 -817 -1209 -1454 -240 -336 -287 -436 -378 -810 -119 -493 -182
-700 -286 -939 -141 -329 -148 -351 -155 -526 -6 -126 -7 -131 -44 -200 -67
-126 -72 -162 -74 -506 -1 -292 -3 -311 -29 -440 -33 -158 -31 -230 6 -311 33
-72 68 -112 158 -178 41 -30 98 -78 126 -107 104 -106 200 -282 245 -450 31
-118 25 -139 -67 -227 -60 -57 -84 -89 -114 -152 -55 -115 -71 -182 -77 -330
-7 -185 13 -255 160 -567 157 -334 201 -443 409 -1023 55 -154 133 -367 174
-474 105 -271 100 -301 -48 -301 -95 0 -97 -4 -92 -147 10 -253 15 -276 98
-377 53 -66 106 -166 133 -252 25 -83 25 -347 -1 -494 -10 -58 -18 -150 -18
-205 0 -178 41 -294 155 -435 102 -127 108 -151 97 -395 -3 -86 14 -125 67
-150 32 -16 56 -17 178 -12 87 3 157 11 185 21 61 21 84 20 117 -8 31 -26 138
-56 199 -56 137 1 332 117 383 230 32 70 28 163 -9 258 -52 128 -33 171 84
193 46 8 85 7 185 -6 69 -9 159 -15 201 -14 l74 2 11 -59 c29 -155 109 -199
322 -176 202 22 323 67 448 168 135 109 168 114 312 53 125 -53 215 -72 324
-67 152 7 219 71 219 209 0 92 -22 163 -75 239 -28 41 -43 72 -40 82 9 23 53
38 255 93 319 85 424 117 565 172 455 179 629 310 706 530 15 40 25 111 34
229 11 132 19 189 40 250 50 152 145 282 311 426 126 109 198 158 234 158 36
0 75 -38 114 -111 120 -222 283 -386 477 -478 133 -64 238 -76 350 -41 84 26
153 80 212 165 93 135 111 142 230 76 168 -92 307 -131 471 -131 211 0 359 62
611 256 207 159 351 243 416 244 14 0 58 -11 97 -25 83 -29 128 -31 180 -10
48 20 69 41 157 150 125 155 250 265 302 265 36 0 80 -26 168 -100 175 -147
275 -198 406 -207 230 -16 452 165 661 539 56 99 440 952 571 1268 144 347
206 555 254 855 16 100 18 199 18 1115 0 1042 -5 1221 -46 1675 -38 429 -82
690 -169 1008 -99 362 -231 656 -443 987 -479 748 -1185 1319 -2162 1748 -715
313 -1431 487 -2295 558 -221 18 -892 26 -1140 14z m1180 -54 c527 -47 894
-111 1335 -231 610 -166 1230 -438 1743 -765 816 -520 1435 -1287 1700 -2110
129 -399 199 -837 244 -1525 18 -283 19 -2283 0 -2405 -42 -279 -125 -556
-267 -890 -128 -302 -438 -996 -507 -1139 -88 -181 -183 -318 -302 -436 -129
-128 -200 -167 -322 -173 -144 -8 -250 40 -424 187 -98 83 -160 121 -199 121
-41 0 -103 -41 -193 -128 -50 -48 -120 -124 -155 -169 -35 -46 -78 -92 -95
-105 -46 -32 -120 -35 -188 -8 -125 50 -209 22 -445 -151 -262 -192 -290 -211
-345 -239 -248 -124 -482 -115 -774 31 -173 85 -196 81 -287 -52 -62 -91 -93
-119 -169 -160 -39 -21 -58 -24 -150 -24 -91 0 -113 4 -168 26 -201 85 -352
226 -488 457 -37 62 -78 122 -91 132 -61 48 -120 31 -246 -69 -186 -148 -298
-275 -367 -416 -53 -110 -71 -186 -80 -355 -20 -365 -150 -500 -690 -718 -137
-55 -291 -103 -590 -183 -107 -28 -211 -60 -231 -70 -62 -31 -65 -73 -10 -150
51 -71 73 -138 74 -226 2 -78 -11 -106 -67 -147 -24 -18 -42 -21 -144 -21
-128 0 -176 10 -287 60 -141 64 -202 55 -330 -50 -138 -113 -270 -161 -475
-172 -104 -5 -121 -4 -163 15 -38 17 -52 30 -67 64 -11 24 -20 57 -20 75 0 17
-5 44 -10 59 -10 26 -12 27 -78 21 -39 -4 -112 0 -177 8 -201 27 -299 18 -356
-33 -44 -39 -48 -90 -15 -165 66 -150 56 -247 -36 -337 -72 -71 -177 -121
-266 -128 -79 -5 -182 19 -182 43 0 8 -8 15 -17 15 -9 0 -32 5 -50 12 -27 10
-41 9 -82 -6 -53 -19 -277 -40 -328 -30 -52 10 -78 47 -76 107 8 251 8 249
-19 307 -14 30 -53 91 -88 135 -34 44 -72 100 -85 125 -64 125 -77 267 -46
469 41 264 37 417 -15 573 -23 71 -107 216 -133 232 -6 4 -23 28 -38 53 -26
45 -28 56 -34 217 -5 122 -3 173 5 178 6 4 42 8 79 8 63 0 71 3 99 30 27 28
30 36 26 78 -3 26 -37 133 -77 237 -40 103 -125 333 -188 509 -191 535 -290
781 -420 1039 -83 166 -121 281 -135 409 -10 92 -9 113 9 203 11 55 35 136 53
180 28 67 45 92 104 150 92 91 97 98 106 146 20 107 -89 381 -212 536 -32 40
-93 100 -136 133 -136 106 -157 126 -186 181 -41 74 -45 162 -17 302 32 154
41 297 35 517 -7 236 3 301 71 435 l45 90 0 110 c0 144 19 217 113 430 136
309 204 521 303 941 119 507 150 569 607 1184 358 481 685 862 1006 1171 361
349 500 434 1061 652 107 42 260 104 340 137 445 189 812 292 1274 360 274 40
804 90 1156 110 234 13 1054 4 1250 -14z"/>
<path d="M7348 12393 c-16 -2 -28 -7 -28 -11 1 -13 74 -62 94 -63 12 -1 41 -2
65 -3 25 -1 72 6 105 15 l61 18 -68 0 c-51 1 -80 7 -117 26 -49 25 -58 26
-112 18z"/>
<path d="M8065 12144 c11 -8 107 -85 212 -171 152 -123 190 -159 182 -170 -9
-10 -8 -13 5 -13 33 0 8 -99 -29 -114 -9 -3 -27 -6 -40 -6 -39 0 -119 -20
-138 -35 -17 -12 -18 -18 -7 -49 6 -19 36 -74 67 -123 99 -157 110 -199 73
-281 -29 -64 -129 -160 -171 -164 -40 -4 -66 -40 -56 -80 7 -28 162 -158 231
-194 l40 -21 -34 -18 c-29 -15 -49 -17 -130 -11 -106 7 -146 -1 -196 -39 l-34
-26 17 -31 c10 -18 35 -49 56 -70 37 -38 78 -49 121 -32 26 10 19 53 -14 82
-54 47 -44 52 110 52 84 0 149 5 165 12 30 14 34 51 6 75 -15 12 -18 25 -14
52 3 27 2 32 -6 21 -9 -13 -15 -9 -39 20 -16 19 -55 53 -85 75 -35 25 -66 58
-82 86 l-25 47 61 11 c107 18 154 62 185 170 21 70 8 134 -43 217 -58 96 -86
145 -82 148 2 2 35 18 74 35 38 17 77 39 87 48 23 21 23 65 -1 133 -11 30 -17
58 -15 62 3 5 1 8 -4 8 -4 0 -16 16 -25 35 -22 46 -83 112 -131 143 -36 22
-290 132 -305 132 -3 0 3 -7 14 -16z"/>
<path d="M7560 9821 c-30 -10 -80 -31 -110 -48 -30 -17 -87 -43 -126 -57 -120
-45 -139 -84 -109 -235 13 -68 14 -93 6 -110 -7 -11 -15 -21 -19 -21 -12 0
-74 68 -116 127 -21 29 -51 62 -67 74 -16 11 -29 27 -29 36 0 12 -3 13 -13 5
-10 -8 -27 -7 -63 4 -129 39 -200 -27 -219 -201 -9 -85 -22 -108 -90 -163 -93
-75 -118 -129 -136 -297 -13 -123 -23 -142 -86 -150 -115 -15 -195 -56 -234
-119 -29 -48 -40 -99 -40 -194 0 -93 -8 -112 -46 -112 -14 0 -21 -4 -18 -10
19 -31 -84 2 -170 54 -75 45 -125 48 -160 10 -39 -42 -34 -102 20 -238 65
-164 59 -228 -21 -262 -46 -19 -122 -3 -198 43 -55 34 -67 37 -165 43 -120 7
-152 19 -203 79 -47 55 -58 96 -65 233 -7 148 3 210 78 491 33 121 57 222 55
224 -7 8 -166 -275 -234 -417 -114 -237 -162 -405 -162 -562 0 -155 43 -260
161 -394 77 -87 120 -165 122 -217 2 -89 -77 -126 -290 -134 -78 -3 -147 -10
-155 -15 -20 -13 30 -51 265 -200 356 -227 387 -255 574 -516 180 -251 299
-538 306 -734 1 -37 5 -68 10 -68 4 0 7 8 7 19 0 30 48 211 71 268 11 28 27
54 35 57 25 10 55 94 61 172 3 40 9 71 14 69 12 -8 47 -120 98 -322 38 -149
56 -201 80 -237 79 -115 116 -245 101 -360 -12 -91 -23 -123 -104 -284 -91
-182 -113 -276 -86 -373 12 -44 21 -50 207 -150 204 -111 275 -161 391 -276
56 -56 102 -98 102 -93 0 31 -56 161 -150 350 -111 221 -134 280 -128 318 3
21 9 18 83 -39 227 -175 431 -277 655 -325 118 -25 362 -25 480 0 263 56 449
151 760 387 69 52 154 115 190 138 85 57 127 97 152 144 59 116 12 394 -85
495 -49 52 -121 84 -200 90 -63 4 -117 -8 -117 -28 0 -3 38 -18 84 -33 l83
-27 -38 -38 c-56 -57 -59 -92 -14 -181 64 -128 55 -211 -32 -297 -51 -52 -314
-241 -383 -275 -126 -64 -296 -62 -435 5 -121 58 -121 56 -19 102 89 39 203
113 239 154 l20 23 -38 -7 c-20 -4 -101 -34 -179 -68 -175 -75 -239 -85 -278
-43 -21 23 -25 38 -28 104 -6 128 27 174 158 221 94 33 176 76 194 102 31 44
9 108 -38 108 -9 0 -55 -23 -100 -51 -147 -90 -313 -125 -541 -116 -160 6
-211 22 -276 87 -52 52 -79 120 -104 260 -20 111 -19 310 0 408 20 96 66 194
108 226 18 13 61 32 96 41 161 41 270 138 331 295 12 30 33 115 46 190 81 437
209 774 470 1235 84 149 116 228 140 345 24 120 15 318 -25 520 -28 140 -53
290 -80 470 -7 47 -9 -16 -5 -225 4 -228 2 -315 -10 -405 -35 -257 -111 -454
-256 -664 -59 -85 -170 -206 -516 -558 -194 -198 -259 -258 -277 -258 -16 0
-38 14 -62 41 -73 81 -79 132 -41 318 27 126 55 215 104 324 17 37 27 67 22
67 -18 0 -99 -112 -139 -192 -22 -46 -51 -121 -63 -168 -40 -157 -89 -173
-295 -96 -65 25 -147 51 -184 60 -147 34 -222 79 -248 149 -6 16 -11 69 -11
119 0 82 -3 98 -36 169 -41 92 -44 152 -8 157 11 2 67 -20 124 -48 104 -51
148 -60 172 -37 7 6 33 13 57 14 70 3 76 15 73 146 -2 98 0 116 17 144 26 41
86 72 165 84 33 6 77 18 96 27 40 19 48 40 75 187 21 119 78 235 159 329 59
67 63 75 69 135 9 82 33 130 77 153 46 24 109 24 116 1 22 -76 147 -238 205
-269 66 -33 130 -12 147 50 7 24 6 57 -4 108 -19 99 -18 151 4 178 15 18 32
23 107 29 105 9 129 20 222 99 37 32 85 70 106 84 l38 25 -32 7 c-56 11 -143
5 -199 -13z"/>
<path d="M2672 7519 c-139 -72 -161 -73 -233 -11 l-44 37 26 -44 c37 -63 152
-130 224 -131 28 0 68 -5 89 -11 38 -10 41 -10 65 19 15 18 44 36 68 43 l42
12 -16 31 c-29 56 -74 116 -87 116 -8 0 -68 -28 -134 -61z"/>
<path d="M2187 7528 c3 -28 0 -50 -10 -62 -14 -20 -16 -20 -106 2 -220 53
-371 8 -523 -158 -157 -170 -247 -400 -270 -689 -14 -175 1 -290 50 -395 41
-88 126 -176 170 -176 31 0 72 29 72 50 0 6 -11 37 -25 70 -27 64 -31 112 -14
157 6 15 18 57 27 93 20 75 50 102 98 85 59 -21 78 -80 93 -284 8 -102 1 -282
-14 -351 l-6 -25 20 25 c41 51 72 162 101 360 16 107 33 206 38 220 9 24 10
24 22 -15 6 -22 14 -96 17 -165 7 -166 -13 -263 -122 -585 -79 -233 -121 -382
-112 -391 9 -10 127 78 175 131 78 86 131 202 177 393 10 40 21 69 25 65 4 -4
13 -45 19 -90 10 -69 9 -100 -6 -200 -11 -74 -17 -174 -16 -268 0 -132 4 -161
26 -237 37 -121 92 -233 186 -375 117 -177 201 -236 331 -235 36 0 76 5 89 10
23 8 20 11 -47 47 -40 21 -103 66 -141 101 -103 96 -143 185 -171 380 -10 71
-10 85 5 113 9 18 28 37 42 44 24 11 29 8 82 -50 31 -33 81 -105 111 -158 70
-125 144 -201 241 -249 71 -35 151 -57 376 -105 119 -26 233 -61 233 -72 0
-18 -146 -30 -338 -27 -111 2 -202 0 -202 -3 0 -3 30 -16 68 -29 54 -18 103
-24 262 -31 109 -4 243 -17 305 -28 268 -48 507 -52 671 -12 173 43 347 139
559 307 l100 80 93 12 c240 29 372 166 486 502 45 136 58 240 45 361 -32 286
-206 583 -492 841 -160 144 -499 410 -652 513 -376 250 -686 346 -1215 374
-144 8 -145 7 -178 -17 -52 -39 -37 -47 74 -44 59 2 139 -3 196 -12 143 -23
527 -120 573 -144 l40 -21 -30 -1 c-17 0 -96 14 -175 31 -347 73 -400 80 -720
99 -401 25 -392 23 -465 59 -49 25 -90 57 -160 127 l-93 95 5 -43z"/>
<path d="M195 7398 c-4 -23 -8 -173 -10 -333 -1 -256 -4 -302 -23 -389 -53
-241 -16 -339 182 -475 172 -119 229 -201 316 -450 37 -107 45 -121 51 -98 9
35 -5 194 -25 282 -22 95 -65 223 -78 231 -5 4 -44 15 -86 25 -124 31 -176 87
-175 186 0 38 9 71 32 117 36 73 74 110 143 139 67 28 68 44 12 140 -118 201
-198 362 -286 567 -22 52 -42 96 -43 98 -2 2 -6 -16 -10 -40z"/>
<path d="M11666 6369 c-35 -41 -33 -78 8 -185 65 -168 82 -327 51 -473 -40
-191 -152 -298 -395 -377 -103 -33 -120 -42 -160 -84 -25 -26 -63 -73 -85
-104 -48 -69 -112 -118 -208 -158 -40 -17 -80 -38 -91 -47 -79 -70 -51 -233
53 -306 40 -28 49 -30 130 -30 73 0 94 4 136 26 67 34 107 91 113 163 5 62 -2
69 -81 79 -51 7 -87 22 -87 36 0 22 76 34 250 40 206 7 239 17 295 83 34 40
85 149 85 181 0 22 -5 25 -57 30 -31 3 -63 12 -70 20 -12 12 -6 15 42 21 123
14 155 60 123 179 -10 40 -9 50 20 118 59 142 76 229 77 384 0 116 -4 153 -22
217 -25 87 -82 218 -93 218 -5 0 -20 -14 -34 -31z"/>
<path d="M1069 6154 c-11 -14 -10 -22 9 -55 12 -21 22 -53 22 -71 1 -47 31
-108 72 -143 91 -78 90 -78 99 -64 5 8 9 19 9 25 0 6 9 23 21 38 15 19 30 26
54 26 48 0 82 15 90 40 9 29 -9 47 -58 55 -63 11 -134 51 -197 111 -60 57 -96
68 -121 38z"/>
<path d="M1050 5839 c0 -4 7 -12 15 -19 18 -15 29 -71 21 -98 -4 -11 -29 -50
-56 -87 -45 -61 -70 -119 -56 -132 10 -10 113 74 135 111 12 19 26 63 32 98
11 70 17 79 60 93 28 10 23 12 -60 26 -50 8 -91 12 -91 8z"/>
<path d="M5785 5640 c-4 -23 -5 -44 -2 -46 3 -3 8 13 12 36 4 23 5 44 2 46 -3
3 -8 -13 -12 -36z"/>
<path d="M1910 5064 c0 -27 78 -201 135 -304 34 -61 76 -117 114 -155 34 -33
61 -65 61 -73 0 -7 -11 -35 -25 -62 -29 -57 -32 -106 -9 -138 8 -12 42 -36 74
-52 37 -19 61 -38 65 -52 4 -13 60 -167 125 -343 126 -344 138 -385 115 -385
-44 0 -157 150 -266 353 -60 110 -122 198 -158 224 -18 12 -19 11 -6 -40 7
-28 16 -97 20 -152 9 -142 18 -171 90 -319 109 -223 146 -402 125 -595 -23
-212 -87 -359 -210 -481 -87 -88 -188 -143 -334 -184 -131 -36 -130 -34 -186
-285 -26 -116 -47 -224 -46 -238 1 -24 5 -28 39 -30 34 -3 39 0 54 32 9 19 20
35 24 35 3 0 10 -48 13 -107 12 -183 35 -331 78 -498 18 -73 19 -88 9 -171
-10 -78 -10 -97 3 -128 8 -20 21 -36 28 -36 7 0 23 29 35 64 22 63 23 66 7
168 -19 125 -13 222 22 364 27 113 39 144 159 419 45 105 97 234 115 289 18
54 41 107 51 117 38 38 100 13 115 -47 4 -15 2 -95 -5 -178 -24 -315 -10 -620
34 -771 l15 -50 -5 80 c-15 232 -17 509 -6 635 24 260 53 430 171 975 66 303
78 388 73 495 -1 19 0 82 3 138 5 91 2 115 -21 195 -30 107 -90 232 -175 368
-62 99 -68 128 -26 130 55 4 133 -4 271 -27 83 -14 188 -27 235 -29 l85 -5
-60 14 c-427 100 -769 371 -984 780 -23 42 -41 69 -41 60z"/>
<path d="M738 4903 c35 -50 192 -226 286 -323 51 -52 140 -151 197 -220 133
-160 236 -276 375 -421 207 -216 290 -371 369 -687 18 -73 36 -136 39 -139 8
-8 71 13 105 34 l24 15 -36 32 c-29 25 -39 45 -56 108 -33 123 -86 248 -197
463 -126 246 -136 269 -189 475 l-42 165 -9 -50 c-10 -64 -10 -131 0 -172 7
-26 5 -33 -6 -33 -20 0 -59 44 -186 212 -63 82 -127 156 -147 168 -19 12 -81
64 -137 116 -57 52 -134 119 -173 149 -64 49 -209 135 -228 135 -5 0 0 -12 11
-27z"/>
<path d="M517 4793 c-31 -30 27 -250 123 -468 32 -71 106 -251 164 -398 59
-148 131 -317 160 -375 159 -319 261 -613 286 -834 15 -122 17 -128 46 -128
13 0 84 27 158 59 166 74 271 107 377 121 46 5 85 10 87 10 2 0 -15 15 -39 33
-23 17 -53 54 -67 81 -23 44 -27 65 -33 203 -6 145 -8 157 -38 218 -23 45 -67
101 -156 195 -68 73 -158 182 -201 243 -43 62 -137 189 -209 282 -72 94 -156
205 -185 249 -110 161 -424 516 -456 516 -6 0 -14 -3 -17 -7z"/>
<path d="M10601 4782 c-58 -29 -60 -44 -14 -96 68 -78 63 -121 -26 -220 -28
-31 -51 -58 -51 -61 0 -3 25 -17 55 -31 57 -27 95 -64 95 -93 0 -9 -12 -40
-27 -69 -18 -36 -24 -58 -17 -66 5 -8 35 -44 67 -82 57 -68 67 -96 47 -134
-17 -32 -50 -43 -145 -49 -82 -6 -90 -8 -93 -28 -4 -30 25 -126 51 -165 27
-40 98 -78 147 -78 85 1 178 80 206 177 22 77 1 150 -65 225 -83 95 -99 153
-62 215 25 41 135 94 260 127 108 29 141 47 141 79 0 40 -16 46 -114 40 -193
-12 -300 56 -342 217 -29 112 -47 126 -113 92z"/>
<path d="M10119 4700 c-17 -33 -74 -106 -126 -162 -52 -57 -126 -139 -163
-184 -38 -44 -83 -93 -102 -109 -50 -43 -124 -73 -195 -81 -105 -11 -154 -74
-157 -201 -1 -54 1 -58 28 -72 17 -7 63 -19 103 -24 92 -14 179 0 267 41 78
37 133 85 202 179 30 40 62 73 71 73 9 0 37 -22 62 -49 37 -39 65 -57 141 -89
180 -75 261 -90 362 -69 l38 8 -34 68 c-59 117 -73 185 -50 244 4 11 -8 19
-45 32 -57 19 -101 50 -101 71 0 28 31 76 90 139 68 73 69 86 9 140 -46 41
-72 49 -144 43 -43 -4 -64 -12 -102 -42 -63 -49 -87 -46 -91 14 -3 60 -10 90
-22 90 -5 0 -23 -27 -41 -60z"/>
<path d="M4540 4183 c-14 -9 -65 -53 -115 -96 -49 -43 -111 -90 -138 -104
l-48 -24 37 -30 c51 -40 66 -37 98 20 15 28 56 75 91 107 65 56 110 115 103
134 -2 6 -14 3 -28 -7z"/>
<path d="M4035 4151 c-50 -31 -168 -158 -155 -166 21 -13 59 5 133 65 101 81
121 88 156 52 16 -16 34 -49 41 -80 8 -28 17 -52 21 -52 11 0 21 76 14 109 -7
35 -28 55 -78 76 -49 20 -96 19 -132 -4z"/>
<path d="M5740 3757 c-19 -7 -44 -18 -54 -24 -19 -10 -19 -11 0 -20 10 -6 38
-13 62 -16 62 -8 76 -22 67 -72 -14 -85 -19 -80 68 -83 49 -2 77 1 77 8 0 17
-89 176 -108 193 -26 24 -71 29 -112 14z"/>
<path d="M6440 3397 c-79 -19 -111 -39 -209 -130 -163 -152 -322 -239 -607
-333 -192 -63 -227 -81 -254 -135 -25 -48 -25 -81 -1 -103 36 -32 151 -67 242
-73 135 -9 150 -4 205 74 197 276 539 467 949 529 116 17 387 23 510 11 l70
-7 -85 31 c-321 114 -667 172 -820 136z"/>
<path d="M4971 3104 c-82 -41 -271 -229 -271 -269 0 -10 53 12 163 66 207 102
224 105 318 49 87 -52 136 -61 163 -31 17 19 18 24 5 48 -15 29 -131 115 -194
144 -57 27 -121 24 -184 -7z"/>
<path d="M2981 3092 c-45 -22 -66 -66 -96 -198 -34 -152 -45 -233 -45 -349 0
-127 11 -212 60 -472 62 -333 73 -438 67 -663 -5 -205 -20 -299 -70 -444 -29
-86 -38 -89 -190 -82 -133 7 -186 -10 -273 -86 l-58 -51 34 5 c19 3 78 17 131
31 l97 26 118 -19 c203 -33 323 -24 364 27 l20 26 -1 -99 c0 -55 4 -110 9
-124 22 -58 96 -93 197 -93 118 0 207 60 260 176 22 47 29 56 41 46 8 -6 14
-27 14 -46 0 -40 22 -53 58 -32 33 19 50 69 51 152 1 110 26 138 136 153 28 3
65 12 82 20 44 17 59 1 68 -71 10 -73 36 -109 115 -157 104 -62 212 -85 275
-56 30 14 31 27 5 78 -21 42 -26 75 -11 84 5 3 31 -28 59 -70 30 -47 52 -71
57 -64 12 20 8 125 -8 161 -8 20 -44 80 -81 134 -48 72 -69 113 -78 155 l-11
56 -106 -27 c-58 -15 -144 -46 -190 -68 -99 -48 -137 -51 -179 -16 -56 47
-113 230 -133 428 -17 170 -2 305 54 497 25 85 31 124 31 205 1 90 -2 105 -26
152 -29 53 -105 127 -179 171 l-42 25 7 -24 c20 -75 28 -235 18 -376 -6 -81
-17 -222 -23 -312 -14 -186 -3 -344 31 -453 11 -35 20 -65 19 -68 0 -16 -42
77 -65 145 -25 76 -27 95 -35 365 -5 180 -14 314 -23 365 -9 44 -16 117 -16
163 0 46 -4 91 -10 101 -13 25 -37 33 -59 21 -16 -8 -19 -27 -22 -137 -1 -70
-2 -196 0 -280 2 -89 -1 -159 -7 -169 -14 -25 -18 15 -36 342 -17 294 -18 301
-96 499 -23 61 -47 122 -53 137 -44 124 -171 204 -256 160z"/>
<path d="M4570 3079 c-59 -13 -287 -16 -423 -6 -98 8 -108 7 -105 -8 4 -23
194 -84 283 -91 46 -4 96 0 145 10 76 16 205 73 205 91 0 14 -51 15 -105 4z"/>
<path d="M6444 2991 c-108 -42 -181 -88 -259 -163 -118 -111 -176 -255 -174
-428 l1 -75 13 72 c28 149 92 238 320 446 101 92 186 178 173 177 -2 -1 -35
-13 -74 -29z"/>
<path d="M2596 2721 c-53 -236 -49 -481 15 -776 35 -167 132 -495 145 -495 7
0 24 4 37 9 l24 9 -14 84 c-8 46 -34 190 -58 320 -72 386 -86 547 -72 862 2
37 0 40 -30 47 l-32 6 -15 -66z"/>
<path d="M1765 2614 c-154 -52 -232 -82 -262 -102 -24 -15 -31 -46 -13 -57 26
-16 -9 -25 -98 -25 -119 0 -232 -16 -251 -35 -12 -12 -9 -14 20 -20 19 -3 136
-7 261 -8 220 -2 228 -1 249 19 l21 22 -45 17 -45 17 65 51 c37 27 104 72 150
99 45 27 83 53 83 59 0 5 -1 9 -2 8 -2 0 -61 -20 -133 -45z"/>
<path d="M5945 2563 c-56 -100 -78 -188 -83 -328 -5 -153 17 -419 34 -402 3 2
14 35 25 73 18 58 22 113 30 344 4 151 13 293 18 315 6 22 8 41 7 43 -2 2 -16
-19 -31 -45z"/>
<path d="M4452 2378 c-15 -15 -15 -60 1 -123 6 -27 12 -88 12 -135 l0 -85 -55
-3 c-72 -4 -84 -15 -77 -72 7 -55 137 -397 167 -440 24 -34 34 -36 70 -15 14
8 42 14 64 15 34 0 46 -8 110 -70 64 -61 98 -87 82 -62 -3 5 -41 123 -85 263
-44 140 -102 322 -130 404 -30 93 -52 178 -56 224 -5 52 -13 79 -26 92 -22 22
-59 25 -77 7z"/>
<path d="M1467 2259 c-107 -12 -177 -82 -179 -180 -2 -59 15 -79 65 -79 57 0
79 -29 106 -146 10 -42 10 -61 -3 -110 -8 -32 -13 -60 -11 -62 2 -2 18 24 35
58 38 74 53 73 19 -2 -31 -71 -31 -172 0 -243 24 -53 112 -195 122 -195 3 0
12 12 20 28 13 24 15 -1 20 -233 4 -190 10 -276 22 -318 19 -73 27 -82 27 -32
0 21 9 119 21 218 22 196 18 275 -20 360 -29 64 -30 71 -15 98 27 48 9 104
-66 204 -60 81 -70 108 -72 192 -2 57 4 100 20 158 13 44 26 115 29 158 5 71
4 80 -16 101 -27 29 -49 33 -124 25z"/>
<path d="M4091 2186 c-24 -28 -23 -80 4 -166 39 -130 59 -233 51 -274 -4 -20
-10 -36 -14 -36 -4 0 -19 19 -34 43 -32 51 -54 139 -63 258 -10 118 -17 125
-53 53 -67 -135 -112 -336 -114 -513 -3 -219 52 -341 154 -341 47 0 125 38
181 88 52 47 118 89 150 97 36 10 64 -9 103 -71 39 -61 73 -77 104 -49 11 10
20 23 20 30 0 6 -37 58 -81 116 -204 261 -266 391 -294 613 -15 119 -33 159
-77 164 -14 2 -30 -4 -37 -12z"/>
<path d="M4875 2096 c-49 -87 -65 -152 -65 -261 0 -130 64 -369 111 -416 26
-26 78 -24 174 7 44 15 82 28 84 30 2 1 -19 36 -47 77 -65 99 -113 223 -168
441 -24 99 -46 182 -48 184 -2 2 -21 -26 -41 -62z"/>
<path d="M5196 2038 c-37 -66 -56 -133 -56 -202 0 -57 6 -75 50 -163 27 -54
56 -105 62 -113 24 -29 62 -50 92 -50 39 0 188 40 184 50 -2 4 -26 27 -55 52
-110 94 -161 183 -223 396 -11 39 -23 72 -25 72 -2 0 -15 -19 -29 -42z"/>
<path d="M5502 2043 c-43 -56 -54 -80 -54 -127 -1 -61 47 -180 92 -227 50 -52
92 -53 187 -3 37 20 71 39 76 43 4 4 -42 60 -102 125 -67 72 -121 139 -137
172 -14 30 -28 54 -29 54 -2 0 -17 -17 -33 -37z"/>
<path d="M2075 1668 c-2 -7 -21 -76 -41 -153 -44 -171 -49 -279 -19 -365 17
-46 20 -80 20 -215 -1 -193 -16 -284 -62 -376 -37 -74 -98 -134 -112 -110 -6
10 -24 8 -79 -9 -39 -12 -81 -20 -94 -18 -20 3 -23 8 -22 43 1 22 5 66 9 98 9
69 -2 86 -73 112 -26 10 -95 40 -154 66 -98 45 -148 59 -148 43 0 -3 34 -47
76 -97 79 -94 113 -154 114 -197 0 -14 -7 -50 -16 -80 -19 -67 -34 -239 -23
-262 7 -12 30 -18 105 -23 112 -9 123 -3 131 69 l6 46 64 20 c74 23 96 24 125
9 15 -8 32 -8 65 0 60 16 73 4 73 -64 0 -51 1 -54 30 -60 68 -15 169 14 210
61 38 43 38 72 5 219 -27 118 -31 165 -15 165 26 0 64 -109 81 -234 5 -37 17
-84 25 -105 l16 -36 15 35 c70 164 21 350 -139 527 -46 52 -47 70 -8 169 38
95 37 120 -5 118 -16 -1 -40 -5 -51 -9 l-21 -7 18 54 c24 68 23 115 -1 208
-12 41 -25 134 -31 205 -6 72 -15 138 -20 148 -11 20 -48 23 -54 5z"/>
<path d="M2602 1575 c18 -53 21 -85 22 -265 1 -193 2 -208 24 -247 12 -24 24
-43 26 -43 5 0 11 178 11 315 0 113 -2 124 -31 185 -17 36 -40 76 -52 90 l-20
25 20 -60z"/>
</g>
</svg>
