<?xml version="1.0" standalone="no"?>
<!DOCTYPE svg PUBLIC "-//W3C//DTD SVG 20010904//EN"
 "http://www.w3.org/TR/2001/REC-SVG-20010904/DTD/svg10.dtd">
<svg version="1.0" xmlns="http://www.w3.org/2000/svg"
 width="1280.000000pt" height="1075.000000pt" viewBox="0 0 1280.000000 1075.000000"
 preserveAspectRatio="xMidYMid meet">
<metadata>
Created by potrace 1.15, written by Peter Selinger 2001-2017
</metadata>
<g transform="translate(0.000000,1075.000000) scale(0.100000,-0.100000)"
fill="#000000" stroke="none">
<path d="M5920 10739 c-223 -24 -372 -64 -620 -164 -85 -34 -172 -68 -192 -74
-51 -17 -138 -75 -238 -160 -107 -92 -220 -167 -268 -181 -61 -17 -123 -12
-180 15 -39 18 -94 65 -200 169 -180 175 -224 206 -301 206 -64 0 -192 -41
-268 -85 -63 -37 -150 -121 -173 -165 -9 -19 -20 -63 -24 -97 -9 -78 -57 -279
-87 -358 -29 -80 -64 -128 -146 -205 -87 -83 -141 -119 -206 -141 -54 -18 -58
-23 -74 -74 -10 -36 -40 -44 -69 -17 -33 31 -60 42 -106 42 -61 0 -110 -27
-120 -67 -12 -48 -44 -53 -81 -13 l-31 33 -79 -6 c-68 -6 -90 -3 -151 18 -39
13 -110 35 -157 48 -127 37 -129 38 -129 100 0 41 -8 69 -35 123 -19 38 -35
82 -35 97 0 42 -15 63 -73 100 -29 19 -79 57 -112 85 -68 59 -84 62 -165 31
-46 -18 -96 -24 -211 -28 -8 -1 -23 -18 -32 -38 -9 -22 -54 -73 -104 -119
-103 -95 -134 -149 -164 -287 -25 -118 -28 -127 -41 -127 -16 0 0 119 33 249
29 110 47 155 120 287 28 53 31 64 20 78 -24 28 -53 18 -103 -36 -95 -100
-198 -358 -198 -494 0 -35 14 -148 31 -251 41 -247 44 -387 10 -457 -17 -33
-38 -57 -70 -77 -58 -37 -94 -48 -211 -60 -157 -16 -231 -37 -351 -96 -142
-70 -202 -128 -272 -260 -60 -115 -65 -156 -38 -288 42 -202 129 -322 297
-405 68 -34 103 -45 150 -48 57 -4 63 -2 98 28 44 39 113 152 122 200 10 50
21 60 69 60 64 0 155 -51 242 -135 64 -61 74 -75 65 -91 -6 -11 -72 -86 -147
-169 -152 -167 -235 -272 -235 -296 0 -17 19 -29 47 -29 8 0 47 32 87 71 170
170 441 342 621 394 108 31 259 42 361 26 183 -28 372 -101 729 -281 418 -210
496 -269 638 -482 83 -126 116 -186 129 -238 5 -19 13 -181 18 -360 5 -205 13
-339 21 -362 12 -36 10 -42 -29 -120 -51 -102 -163 -242 -251 -314 -72 -60
-124 -82 -286 -124 -272 -70 -482 -84 -629 -42 -215 61 -468 224 -816 525
-167 144 -227 203 -216 214 4 5 80 8 169 8 128 0 174 4 219 18 32 10 62 16 68
12 32 -20 -15 -105 -59 -105 -38 0 -72 -22 -69 -44 7 -49 130 -17 212 55 67
59 86 135 40 166 -87 60 -85 57 -95 195 -5 69 -13 138 -19 153 -5 14 -10 28
-10 31 0 11 55 2 90 -16 47 -24 90 -25 132 -4 17 9 64 18 104 21 l74 6 0 56
c0 61 11 81 46 81 30 0 39 -16 39 -65 0 -58 27 -59 56 -3 12 23 30 54 41 69
18 25 19 33 9 119 -9 69 -9 96 0 106 17 20 76 17 125 -7 l43 -20 44 25 c54 32
61 32 131 0 31 -14 68 -24 83 -22 25 3 28 7 31 46 4 56 23 54 54 -5 25 -51
127 -137 174 -149 14 -4 43 -1 65 6 34 12 44 11 80 -5 41 -19 68 -14 77 13 7
23 -71 90 -113 96 -60 10 -108 37 -115 66 -3 14 -3 43 1 64 9 51 4 63 -29 69
-15 3 -76 36 -137 73 -160 98 -284 161 -333 168 -23 3 -69 20 -102 38 l-59 31
-245 8 c-135 4 -250 10 -255 13 -5 3 -45 7 -89 7 -70 2 -86 -1 -125 -25 -62
-36 -144 -118 -149 -147 -4 -33 -57 -37 -129 -10 -65 25 -102 27 -120 5 -11
-14 -7 -22 36 -58 42 -37 49 -48 49 -80 0 -30 -8 -45 -47 -84 -28 -28 -52 -64
-58 -85 -10 -38 -12 -39 -90 -52 -43 -6 -86 -49 -95 -92 -5 -26 0 -37 32 -72
30 -34 37 -49 36 -79 -2 -37 -24 -77 -54 -96 -12 -7 -24 -3 -52 22 -40 35 -66
33 -66 -5 0 -16 18 -41 53 -76 78 -77 121 -202 82 -240 -22 -23 -51 -10 -100
45 -33 37 -51 69 -69 126 -32 104 -56 225 -70 357 -11 108 -12 110 -37 113
-19 2 -33 -5 -52 -28 -80 -95 -58 -266 74 -565 66 -149 68 -187 21 -292 -40
-90 -41 -147 -7 -366 46 -297 87 -433 191 -638 115 -227 262 -427 392 -535 37
-30 105 -74 151 -97 81 -40 89 -42 193 -46 l109 -3 13 -32 c29 -67 125 -124
247 -146 86 -16 158 -7 319 40 74 21 164 44 200 50 36 6 118 34 182 61 64 27
145 56 180 65 35 8 79 20 98 25 19 4 82 36 140 69 140 80 177 90 350 97 231 9
330 -18 620 -169 289 -152 339 -176 390 -188 59 -14 75 -6 86 43 9 44 14 50
30 36 8 -7 14 -30 14 -56 0 -77 50 -144 182 -245 88 -66 130 -123 206 -275 79
-156 116 -281 181 -608 68 -341 86 -504 77 -683 -16 -284 -70 -452 -186 -577
-94 -101 -180 -290 -180 -395 0 -25 -14 -85 -31 -134 -36 -103 -58 -252 -43
-293 6 -19 20 -30 43 -37 43 -12 58 5 66 83 19 176 29 243 47 301 28 91 106
244 198 385 86 133 148 252 175 335 25 79 52 127 79 145 12 8 35 38 51 66 15
28 34 53 42 56 21 8 43 -24 43 -63 0 -65 55 -67 79 -2 32 84 42 99 76 114 39
16 48 31 63 117 7 36 23 74 43 102 l33 45 -28 172 c-31 192 -39 218 -61 218
-26 0 -29 -31 -12 -117 24 -117 16 -126 -55 -63 -56 49 -79 101 -128 293 -27
103 -47 162 -67 189 -57 81 -71 112 -78 167 -9 75 -34 129 -104 226 -32 44
-66 95 -76 114 -16 32 -16 35 4 62 41 55 28 78 -110 193 -106 90 -159 119
-214 118 -69 -1 -111 16 -197 80 -222 165 -489 313 -678 375 -52 18 -163 43
-247 57 -91 15 -176 36 -214 52 -52 21 -73 25 -116 20 -28 -3 -54 -2 -57 2 -3
5 6 30 19 55 32 60 31 89 -5 154 -17 29 -30 58 -30 65 0 7 25 26 55 42 56 29
86 61 105 110 9 23 7 30 -12 47 -54 45 -165 122 -190 131 -44 16 -35 41 50
133 65 71 82 107 82 178 0 112 44 220 131 324 27 32 49 67 49 80 0 12 -14 52
-32 87 -18 36 -28 69 -24 73 19 19 136 -152 136 -199 0 -28 30 -77 95 -153 23
-27 75 -99 116 -160 57 -86 111 -148 248 -285 97 -97 240 -227 318 -291 164
-133 664 -471 775 -524 49 -23 86 -48 102 -70 29 -38 158 -126 253 -174 74
-37 128 -41 138 -11 11 34 -20 67 -125 135 -114 74 -157 97 -235 126 -34 13
-64 32 -78 50 -28 38 -112 101 -372 279 -291 199 -392 277 -525 410 -136 134
-223 248 -310 403 -129 231 -158 273 -284 421 -162 188 -268 332 -309 416 -27
56 -31 76 -31 145 0 71 4 89 36 156 47 101 108 190 184 267 61 64 62 64 91 49
16 -9 34 -26 39 -39 6 -12 21 -45 33 -72 47 -104 213 -282 310 -330 30 -16 98
-36 155 -47 97 -18 677 -89 728 -89 14 0 65 19 114 42 l89 41 130 2 c150 2
279 31 403 90 65 31 81 34 145 32 66 -2 79 1 160 41 100 47 118 50 156 23 50
-36 106 -45 411 -66 247 -18 363 -35 466 -71 118 -40 216 -55 375 -55 287 0
500 52 784 191 235 115 286 167 330 333 10 37 21 67 25 67 16 0 209 -201 244
-255 72 -108 81 -147 81 -350 0 -127 -4 -192 -14 -220 -37 -109 -314 -478
-701 -935 -209 -247 -326 -395 -346 -439 -25 -55 -70 -98 -314 -297 -124 -101
-286 -233 -360 -294 -74 -61 -152 -125 -174 -142 l-38 -31 6 -64 c4 -34 4 -63
1 -63 -4 0 -28 7 -54 16 -42 13 -55 14 -119 0 -81 -17 -224 -81 -321 -144 -97
-64 -117 -67 -269 -49 -148 18 -166 15 -239 -37 -30 -21 -70 -40 -98 -45 -55
-10 -65 -21 -65 -75 0 -41 23 -68 149 -174 28 -24 63 -65 78 -90 14 -26 43
-74 64 -108 22 -33 39 -73 39 -88 0 -43 -22 -166 -30 -166 -4 0 -11 10 -17 22
-6 13 -34 50 -63 83 -29 32 -82 104 -118 160 -146 224 -174 264 -237 335 -36
41 -64 79 -62 85 2 5 33 10 69 10 74 0 98 14 98 56 0 38 -20 55 -76 63 -41 5
-57 15 -114 70 -72 70 -154 126 -183 126 -10 0 -38 -21 -61 -47 l-43 -47 -41
18 c-22 10 -55 34 -74 53 -42 44 -83 66 -108 58 -26 -8 -25 -39 0 -75 28 -40
173 -159 314 -260 96 -68 130 -100 174 -160 31 -41 83 -109 115 -150 96 -120
116 -181 75 -220 -21 -20 -23 -29 -20 -115 2 -68 -2 -104 -14 -134 -18 -45
-16 -54 40 -186 14 -33 35 -102 46 -152 21 -92 35 -121 184 -406 31 -59 56
-120 56 -136 0 -47 -65 -160 -149 -261 -44 -52 -94 -121 -111 -153 -27 -50
-39 -61 -84 -81 -42 -19 -61 -35 -92 -82 -26 -39 -66 -79 -119 -118 -104 -77
-259 -231 -277 -276 -8 -19 -45 -61 -81 -93 -91 -80 -128 -154 -125 -252 2
-62 -2 -77 -31 -131 -36 -68 -125 -174 -146 -174 -13 0 -25 30 -25 66 0 44
-72 73 -100 39 -36 -44 -13 -201 50 -333 86 -180 223 -258 495 -282 203 -18
191 -21 260 65 66 83 117 129 168 150 19 8 49 31 68 52 69 76 225 416 294 640
57 181 59 187 86 200 13 7 76 15 139 18 l115 7 39 -87 c46 -104 90 -232 111
-320 21 -94 63 -176 147 -293 40 -56 82 -119 93 -140 30 -59 105 -173 143
-219 19 -24 51 -75 71 -115 46 -91 124 -157 194 -165 45 -5 158 14 257 43 79
23 166 115 253 265 96 166 101 184 94 348 -8 173 -43 512 -68 661 -11 62 -32
155 -48 205 -16 49 -32 115 -36 145 -4 30 -18 75 -30 100 -25 48 -91 120 -110
120 -23 0 -66 42 -115 112 -69 98 -75 136 -61 371 24 390 126 818 255 1061
105 200 441 587 686 791 113 94 288 199 545 326 138 68 219 103 260 110 33 6
119 32 190 59 230 85 304 100 401 80 77 -16 120 -38 226 -117 48 -35 104 -69
125 -75 21 -5 83 -30 138 -55 153 -70 211 -84 365 -90 170 -7 229 7 355 81 49
29 127 73 173 96 132 68 252 198 252 274 0 15 -10 32 -26 43 -30 22 -26 57 12
98 31 33 49 28 50 -14 3 -88 85 -58 165 61 112 164 178 390 148 506 -11 46
-10 59 11 134 21 75 23 104 24 298 l1 215 62 125 c103 210 146 366 168 612 8
92 22 199 30 238 20 97 19 172 -6 260 -42 155 -106 249 -241 357 -39 31 -68
62 -68 72 0 42 74 70 186 71 141 0 230 -34 358 -137 117 -94 164 -117 241
-117 111 0 196 58 246 169 89 199 126 394 96 512 -18 70 -78 196 -110 231 -29
31 -72 29 -107 -6 -25 -25 -28 -38 -35 -118 -9 -115 -13 -123 -57 -105 -58 23
-77 24 -162 6 -79 -17 -85 -17 -120 0 -37 18 -38 17 -64 -4 -81 -65 -107 -81
-134 -81 -20 0 -43 -13 -76 -44 l-47 -44 -96 -3 c-86 -4 -100 -7 -137 -32 -22
-16 -68 -62 -102 -104 -37 -44 -75 -80 -95 -89 -66 -27 -457 -31 -440 -4 3 5
27 16 54 25 64 21 122 83 167 178 47 99 61 173 44 240 -6 29 -10 63 -9 77 6
38 51 37 149 -1 l82 -32 73 36 c40 20 81 37 91 37 10 0 72 26 138 57 109 52
126 57 215 64 53 5 159 8 236 9 150 0 261 12 278 29 16 16 -25 54 -103 95 -77
41 -114 44 -198 20 -116 -34 -365 -2 -507 65 -145 68 -174 138 -220 531 -25
210 -50 313 -99 415 -51 103 -105 171 -153 191 -18 8 -57 36 -87 63 -72 65
-106 75 -233 68 -108 -5 -184 -31 -207 -69 -21 -34 7 -42 167 -49 141 -6 197
-16 197 -38 0 -13 -44 -29 -112 -41 -86 -16 -116 -30 -168 -81 -25 -24 -73
-65 -107 -91 -39 -30 -83 -77 -118 -127 -62 -88 -105 -131 -167 -162 -89 -45
-125 -52 -318 -54 -119 -1 -200 -6 -227 -15 -36 -11 -47 -11 -85 5 -82 34
-133 47 -210 54 -124 13 -225 73 -309 187 -22 30 -46 54 -54 54 -17 0 -18 5
-15 81 2 58 -8 85 -55 155 -14 20 -29 53 -35 73 -5 20 -40 76 -77 124 -36 49
-89 132 -117 185 l-51 97 -60 0 c-36 1 -76 8 -98 18 -39 19 -78 15 -98 -9 -17
-20 -3 -47 80 -158 75 -99 121 -178 121 -208 0 -35 19 -58 48 -58 16 0 35 -6
44 -12 17 -15 43 -101 34 -116 -3 -5 -25 -7 -49 -5 -59 7 -72 -11 -71 -97 0
-72 14 -117 52 -168 29 -38 29 -36 -34 -187 -36 -84 -38 -97 -39 -192 0 -94 2
-103 25 -128 36 -39 81 -32 96 15 15 44 46 52 69 16 15 -23 15 -30 1 -78 -18
-64 -107 -247 -130 -271 -10 -10 -33 -17 -55 -17 -21 0 -43 -6 -49 -13 -25
-30 -36 -157 -37 -417 l0 -265 -27 -39 c-16 -21 -37 -71 -49 -109 -15 -49 -31
-81 -54 -104 -29 -29 -39 -33 -88 -33 -46 0 -73 -9 -160 -51 l-105 -51 -77 17
c-87 20 -222 15 -321 -11 -76 -19 -94 -18 -94 6 0 45 -122 89 -400 144 -234
47 -269 58 -333 112 -53 44 -93 49 -377 45 -332 -6 -486 -4 -619 4 -105 7
-212 -5 -238 -27 -7 -6 -13 -23 -13 -39 0 -35 -21 -56 -85 -85 -65 -31 -76
-30 -108 6 l-27 30 -38 -16 c-71 -32 -107 -43 -135 -44 -43 0 -96 26 -106 54
-12 30 -48 56 -78 56 -12 0 -45 -20 -73 -45 -36 -32 -69 -50 -119 -65 -71 -22
-142 -24 -148 -3 -7 20 59 84 119 114 48 24 58 34 58 55 0 15 -12 38 -28 54
-28 28 -43 32 -144 45 -29 4 -48 11 -48 19 0 7 17 37 39 67 50 70 88 145 96
192 4 21 15 47 24 59 l17 21 61 -28 c72 -32 100 -59 105 -100 4 -41 43 -48 58
-10 26 68 4 146 -51 181 -48 30 -50 57 -9 109 18 22 30 50 30 67 0 26 6 32 58
54 95 41 107 49 107 69 0 22 -31 32 -107 34 -39 1 -50 5 -65 27 -9 14 -40 39
-70 56 -93 52 -83 68 49 79 51 4 113 15 138 24 79 28 106 24 147 -24 54 -64
96 -71 123 -21 31 57 -74 136 -227 170 -98 22 -92 61 13 86 33 8 152 19 265
24 114 5 218 14 233 20 35 13 33 36 -6 61 -30 19 -43 20 -145 14 l-112 -6 -7
27 c-13 49 -54 57 -299 58 -221 1 -265 7 -265 39 1 43 27 50 318 77 272 25
352 39 352 60 0 13 -25 18 -139 30 -129 13 -175 32 -179 76 -4 43 14 54 126
75 64 13 103 25 116 38 19 20 19 20 -8 31 -15 5 -35 10 -45 10 -10 0 -32 5
-50 11 -24 9 -31 17 -31 38 0 38 40 55 225 97 106 24 173 46 231 74 92 46 207
78 309 86 107 8 113 11 135 54 25 49 50 64 75 46 26 -19 13 -56 -30 -84 -40
-26 -42 -32 -15 -57 27 -25 97 -31 143 -12 36 16 37 17 37 70 0 69 14 84 64
67 19 -6 64 -10 100 -9 72 2 96 -9 96 -47 0 -31 30 -60 85 -84 80 -34 501
-168 580 -185 71 -14 82 -14 139 1 33 9 74 17 91 18 27 1 30 -2 40 -49 13 -65
20 -75 54 -75 44 0 54 21 49 96 -4 57 -8 70 -31 90 -16 13 -46 25 -74 29 -70
9 -117 28 -121 48 -3 17 8 18 155 15 l159 -3 40 28 c73 50 81 41 115 -123 11
-52 24 -135 28 -185 4 -49 13 -101 20 -115 7 -14 43 -53 79 -87 64 -61 65 -62
49 -85 -49 -68 -49 -155 1 -217 54 -67 52 -107 -7 -172 -31 -34 -41 -78 -18
-81 6 -1 34 -2 61 -2 48 -1 50 -2 59 -36 12 -46 3 -146 -23 -245 -11 -44 -20
-91 -19 -105 2 -48 -1 -56 -47 -110 -57 -67 -57 -95 1 -95 36 0 40 -3 43 -26
2 -17 -9 -42 -33 -75 -53 -73 -77 -130 -82 -198 -7 -78 -22 -101 -86 -130 -59
-26 -109 -72 -105 -95 3 -12 17 -16 58 -17 80 -1 76 1 128 -55 l49 -52 52 18
c28 9 65 28 80 41 55 46 49 146 -11 196 l-33 26 22 39 c12 21 29 64 38 96 18
62 56 114 109 146 18 11 38 33 45 48 16 34 45 575 37 678 -3 39 -13 85 -21
103 -9 18 -23 74 -31 126 -7 52 -19 107 -25 122 -6 18 -8 54 -4 92 l7 62 -71
73 c-39 41 -71 78 -71 84 0 6 9 30 20 54 22 49 26 119 8 152 -6 12 -24 38 -39
57 -33 41 -51 90 -69 183 -22 119 -49 130 -148 62 -83 -57 -87 -48 -32 72 19
41 39 69 60 81 18 11 87 29 163 42 73 12 149 26 170 31 44 12 80 43 75 67 -3
15 -18 17 -108 17 -58 0 -135 7 -172 14 -133 28 -198 -20 -310 -229 l-67 -125
-130 7 c-168 9 -232 26 -361 97 -312 174 -613 279 -935 327 -123 18 -470 26
-585 13z m640 -153 c295 -42 535 -112 683 -199 68 -40 126 -103 132 -145 10
-63 24 -83 65 -99 45 -18 56 -36 34 -58 -22 -22 -51 -19 -88 10 -17 13 -67 40
-110 60 -43 19 -74 39 -71 45 4 6 21 17 40 24 54 23 69 74 27 91 -9 4 -43 11
-76 15 -32 5 -66 16 -77 26 -13 12 -35 16 -77 15 -47 -1 -62 3 -77 19 -24 27
-68 38 -200 49 -61 6 -131 18 -157 27 -45 17 -48 17 -68 -1 -11 -10 -20 -31
-20 -46 0 -45 -19 -44 -66 2 l-44 43 -53 -52 c-54 -53 -105 -77 -142 -66 -11
3 -39 25 -62 47 l-43 41 -64 -23 c-44 -15 -74 -20 -98 -16 -31 6 -38 3 -61
-25 -20 -23 -25 -38 -21 -59 4 -20 1 -30 -10 -34 -31 -12 -45 3 -48 51 -3 40
-7 49 -32 61 -37 17 -193 -1 -248 -29 -21 -11 -53 -19 -72 -18 -21 1 -44 -7
-61 -20 -17 -13 -42 -22 -64 -22 -38 0 -98 -30 -107 -54 -11 -27 -54 -47 -126
-56 -61 -7 -76 -13 -100 -39 -28 -30 -36 -33 -107 -45 -19 -4 -42 -13 -52 -22
-9 -8 -46 -21 -81 -29 -34 -7 -109 -29 -164 -48 -56 -20 -139 -44 -184 -53
l-83 -18 -23 28 c-13 15 -24 38 -24 51 0 20 7 25 34 31 19 3 39 3 44 0 6 -3
50 -7 99 -7 97 -2 104 1 228 76 39 24 86 48 106 54 19 6 86 50 148 97 110 84
115 86 299 151 328 115 476 156 668 182 98 14 528 5 654 -13z m362 -298 l-22
-22 0 26 c0 28 18 42 35 27 6 -6 1 -18 -13 -31z m206 -30 c16 -16 -3 -38 -34
-38 -26 0 -38 14 -30 35 6 18 47 20 64 3z m-3329 -141 c1 -55 -4 -76 -24 -110
-77 -133 -73 -430 12 -706 66 -217 67 -221 67 -426 -1 -183 -15 -312 -34 -300
-5 3 -16 27 -25 55 -20 60 -50 100 -76 100 -31 0 -69 44 -69 81 l0 32 23 -21
c18 -17 36 -22 73 -22 28 0 55 5 62 12 19 19 14 58 -13 104 -53 91 -125 369
-156 607 -20 157 23 410 103 599 47 111 56 110 57 -5z m1346 -187 l50 -22 -30
-13 c-55 -24 -116 -26 -169 -7 -27 9 -51 22 -53 28 -2 5 11 18 29 27 43 22
108 17 173 -13z m3835 -122 c12 -71 8 -176 -8 -205 -8 -13 -11 -13 -25 1 -18
19 -37 78 -37 118 0 34 20 128 32 151 15 29 25 11 38 -65z m2186 -21 c11 -12
40 -66 63 -120 33 -78 41 -107 39 -145 -2 -35 -7 -48 -20 -50 -17 -3 -35 20
-101 135 -15 26 -47 76 -72 111 -24 34 -42 69 -39 77 12 32 98 27 130 -8z
m-9725 -206 c46 -47 35 -101 -21 -101 -53 0 -92 57 -75 110 10 31 60 26 96 -9z
m7489 -160 c11 -21 0 -64 -19 -76 -18 -11 -34 37 -22 68 12 32 26 35 41 8z
m-7548 -17 c11 -22 10 -28 -7 -40 -22 -16 -71 -19 -80 -4 -7 11 47 70 64 70 6
0 17 -12 23 -26z m3342 -41 c-1 -52 -27 -85 -63 -81 -24 3 -26 7 -25 45 1 52
27 85 63 81 24 -3 26 -7 25 -45z m-1421 -42 c5 -5 13 -39 19 -77 19 -126 47
-225 89 -315 51 -111 79 -242 79 -372 0 -92 -2 -102 -32 -156 -28 -51 -31 -62
-21 -84 8 -18 25 -29 53 -37 47 -13 62 -33 85 -115 22 -77 69 -165 112 -210
29 -29 41 -35 77 -35 59 0 85 23 97 85 14 75 62 115 139 115 43 0 46 -2 119
-84 62 -69 206 -114 404 -126 81 -5 156 -14 167 -20 25 -14 25 -46 0 -87 -22
-36 -40 -48 -91 -57 -21 -4 -42 -13 -49 -21 -14 -17 -46 -20 -55 -5 -10 16
-80 49 -149 70 -34 11 -82 34 -105 51 -24 17 -65 37 -93 45 -27 8 -70 28 -95
45 -83 52 -110 43 -196 -65 -22 -28 -36 -36 -60 -36 -71 0 -174 71 -192 132
-20 65 -77 76 -142 29 -50 -36 -88 -112 -102 -198 -13 -82 -29 -111 -117 -205
-77 -82 -92 -120 -59 -148 22 -18 18 -55 -9 -87 -24 -27 -26 -27 -42 -11 -12
11 -20 41 -25 84 -4 36 -11 70 -17 76 -7 7 -27 -6 -66 -42 -74 -70 -99 -110
-90 -146 7 -27 6 -27 -33 -21 -58 10 -200 71 -504 217 -305 147 -353 168 -466
204 -183 57 -329 56 -519 -5 -102 -33 -133 -35 -172 -15 -30 16 -90 77 -115
117 -34 57 -298 249 -341 249 -21 0 -146 -78 -265 -165 -25 -19 -45 -24 -82
-23 -38 0 -58 -6 -97 -31 -27 -17 -58 -31 -69 -31 -28 0 -68 43 -97 104 -50
107 -43 198 20 254 33 30 35 35 29 72 -19 111 130 197 455 265 96 19 206 47
243 60 92 34 113 33 121 -5 4 -23 11 -30 29 -30 24 0 90 42 116 74 8 9 45 35
82 57 71 41 70 40 114 167 6 17 19 15 46 -7 21 -17 24 -28 24 -93 1 -60 6 -85
28 -130 34 -70 48 -81 100 -82 l42 -1 3 -59 c2 -32 -2 -64 -7 -69 -6 -6 -31
-10 -55 -8 -49 3 -100 -18 -116 -48 -13 -26 4 -43 92 -87 71 -36 82 -49 93
-116 19 -119 371 -258 653 -258 103 0 390 39 427 58 17 8 79 48 139 88 l108
74 18 -23 c41 -49 71 -117 72 -162 0 -25 -3 -49 -7 -53 -3 -4 -25 -7 -48 -7
-36 0 -42 -3 -45 -22 -8 -56 42 -81 93 -47 22 14 26 14 54 -2 27 -16 31 -16
54 -1 14 9 31 33 37 53 36 109 -44 324 -121 324 -28 0 -24 25 21 125 22 50 43
106 46 125 12 63 69 101 102 68 19 -19 40 10 53 74 13 66 -1 109 -41 118 -25
6 -25 7 -25 120 l0 115 -36 16 c-42 21 -82 77 -115 165 -36 95 -30 178 10 145
8 -7 23 -38 35 -69 28 -75 65 -122 82 -105 10 10 10 40 -1 152 -7 76 -10 143
-6 149 6 11 93 -11 109 -27z m7867 -21 c19 -10 60 -70 60 -87 0 -8 -97 -33
-128 -33 -16 0 -16 102 0 118 15 15 43 15 68 2z m-6184 -191 c-7 -35 -120
-199 -130 -188 -12 14 -35 109 -30 124 9 22 122 95 148 95 15 0 17 -5 12 -31z
m-3502 -75 c10 -25 7 -42 -10 -58 -24 -24 -54 -20 -54 7 0 47 50 88 64 51z
m9831 -123 c-5 -30 -1 -44 25 -83 17 -26 30 -55 28 -65 -2 -9 -24 -30 -50 -46
l-47 -29 -34 21 c-19 12 -54 42 -77 67 -38 41 -42 50 -36 82 3 20 12 43 21 51
16 16 153 51 168 43 5 -2 6 -21 2 -41z m-7675 -2 c0 -17 -4 -28 -10 -24 -5 3
-10 17 -10 31 0 13 5 24 10 24 6 0 10 -14 10 -31z m1083 -19 c-7 -99 -7 -157
0 -171 6 -12 3 -19 -10 -24 -23 -9 -329 -55 -365 -55 -56 0 -27 43 52 77 25
11 65 37 90 58 24 20 55 41 68 46 16 6 23 16 22 32 -1 12 -2 28 -1 35 2 20 61
42 106 39 39 -2 40 -3 38 -37z m5652 -14 c184 -37 265 -69 381 -152 290 -205
190 -464 -235 -609 -88 -30 -171 -32 -308 -10 -267 43 -418 140 -521 333 -72
136 -84 250 -36 334 35 59 136 113 249 132 76 12 352 -4 470 -28z m-7557 -90
c66 -24 118 -70 148 -132 24 -49 26 -63 22 -132 -8 -124 -65 -227 -215 -389
l-58 -62 -272 -12 c-395 -17 -435 -11 -534 78 -66 60 -83 103 -84 213 0 114
13 145 93 225 95 96 305 184 522 220 110 18 318 13 378 -9z m1936 -262 c22 -9
20 -41 -4 -49 -21 -7 -60 10 -60 25 0 9 28 29 42 30 3 0 13 -3 22 -6z m-396
-156 c17 -17 15 -48 -4 -55 -21 -8 -59 30 -51 51 7 19 38 21 55 4z m4809 -183
c41 -24 63 -69 60 -123 0 -22 2 -45 7 -49 4 -4 43 -10 87 -14 43 -3 82 -8 85
-12 4 -3 -1 -18 -10 -31 -26 -41 -21 -83 17 -121 39 -39 52 -38 135 8 35 20
66 29 94 29 33 -1 46 5 68 30 31 33 51 32 102 -4 56 -39 43 -83 -46 -154 -114
-90 -264 -302 -445 -629 -112 -201 -161 -269 -181 -249 -5 5 -20 55 -31 109
-12 55 -39 140 -62 190 -36 81 -40 97 -41 174 l-1 86 -62 16 c-34 10 -67 20
-74 24 -22 15 2 157 45 257 9 21 16 64 16 97 0 70 5 75 95 86 71 8 99 21 91
41 -9 24 -28 245 -22 260 6 15 22 11 73 -21z m-2663 -284 c8 -12 -20 -22 -41
-14 -15 6 -15 7 3 14 26 10 32 10 38 0z m4855 -37 c20 -19 -154 -93 -269 -114
-67 -12 -148 -40 -240 -84 -30 -14 -56 -23 -58 -21 -2 2 8 19 23 39 37 49 31
80 -17 84 -61 5 -140 -45 -207 -132 -23 -29 -41 -60 -41 -69 0 -38 60 -38 102
0 37 33 88 -12 88 -78 0 -31 17 -31 110 1 102 34 140 52 189 88 36 28 92 35
113 14 9 -9 -7 -29 -66 -86 l-78 -75 6 -44 c5 -30 2 -59 -9 -91 -9 -27 -14
-50 -11 -53 3 -4 35 -1 72 5 36 6 72 8 81 5 24 -9 11 -80 -42 -223 -61 -166
-72 -232 -57 -348 6 -50 18 -105 27 -122 20 -39 78 -66 165 -77 l65 -8 0 -140
c-1 -162 -11 -191 -88 -262 -49 -45 -89 -67 -272 -150 l-120 -55 -425 -9
c-379 -7 -564 -18 -590 -34 -17 -10 -41 8 -56 43 -25 60 -124 202 -191 273
-76 80 -109 94 -200 86 -54 -5 -65 -4 -70 10 -7 18 51 200 74 233 12 18 21 20
62 14 43 -6 50 -4 65 17 20 29 20 66 1 99 -17 30 -19 86 -3 96 16 10 38 -25
38 -61 0 -34 15 -55 41 -55 40 0 208 170 251 254 l20 40 -22 18 c-12 10 -30
18 -39 18 -27 0 -61 30 -61 54 0 12 14 35 30 51 17 16 30 34 30 41 0 18 -77
84 -118 101 -22 9 -48 12 -69 8 -39 -7 -41 1 -18 65 40 114 220 330 367 440
90 68 123 86 242 134 168 68 286 79 546 51 175 -19 362 -19 448 0 37 8 78 16
92 19 28 4 80 -1 89 -10z m171 -40 c34 -29 35 -43 2 -55 -28 -11 -62 20 -62
56 0 32 20 32 60 -1z m-5010 -175 c0 -13 -93 -56 -142 -64 -30 -6 -39 -4 -44
10 -10 24 10 38 69 51 68 15 117 17 117 3z m-2436 -18 c19 -30 -189 -120 -215
-94 -7 7 0 19 23 36 63 48 177 83 192 58z m7641 -11 c0 -17 -136 -90 -169 -90
-13 0 -31 9 -42 21 -16 17 -16 22 -4 29 8 6 38 10 66 10 38 0 58 6 84 25 37
27 65 29 65 5z m-4545 -29 c27 -5 39 -14 52 -41 33 -68 33 -220 -1 -220 -5 0
-17 21 -27 47 -10 26 -38 72 -62 101 -52 64 -67 99 -51 118 8 9 20 12 33 7 12
-3 37 -9 56 -12z m1160 -145 c42 -13 45 -36 7 -49 -21 -7 -39 -5 -65 6 -21 9
-55 18 -77 22 -56 9 -75 15 -75 25 0 19 147 17 210 -4z m3494 -114 c-18 -77
-82 -211 -69 -144 27 130 48 188 65 177 6 -4 7 -18 4 -33z m-5056 -214 c6 -29
-42 -68 -83 -68 -19 0 -35 3 -35 7 0 4 17 24 37 45 40 41 75 47 81 16z m-2204
-80 c-1 -21 -9 -50 -19 -64 l-18 -28 -24 28 c-30 36 -27 76 7 93 40 21 55 12
54 -29z m5008 -18 c53 -15 55 -28 14 -62 -20 -16 -36 -36 -36 -43 0 -8 -11
-26 -24 -41 -23 -28 -24 -28 -93 -18 l-70 9 -6 -140 c-6 -167 -9 -178 -45
-164 -14 5 -39 7 -55 3 -42 -9 -116 -86 -167 -174 -23 -41 -86 -149 -140 -240
-103 -177 -130 -233 -130 -279 0 -28 -22 -61 -40 -61 -5 0 -25 -27 -45 -60
-20 -33 -46 -65 -58 -72 -35 -18 -166 -148 -360 -358 -235 -254 -358 -381
-430 -441 -53 -45 -87 -61 -87 -41 0 4 50 64 110 132 61 69 143 169 183 224
207 283 437 585 534 701 60 72 146 175 192 230 177 211 281 359 471 672 66
109 130 206 141 216 24 19 84 22 141 7z m-8242 -25 c40 -14 84 -25 97 -25 45
0 170 -80 157 -101 -3 -5 -19 -9 -36 -9 -16 0 -45 -7 -63 -16 -31 -14 -39 -14
-92 1 -80 24 -146 59 -189 102 l-37 37 23 18 c30 24 52 23 140 -7z m3694 -87
c41 -12 41 -12 11 -16 -37 -5 -132 16 -141 30 -8 13 65 5 130 -14z m-3496
-228 c39 -24 42 -53 7 -76 -50 -33 -116 15 -96 70 13 32 43 34 89 6z m10023
-630 c11 -38 10 -126 -1 -154 -6 -18 -17 -26 -33 -26 -49 0 -102 -93 -112
-196 -10 -92 -14 -104 -48 -135 l-32 -30 0 -119 c0 -116 -1 -119 -28 -148 -15
-16 -32 -46 -38 -66 -15 -53 -86 -122 -141 -135 -23 -6 -71 -25 -106 -42 -51
-25 -66 -29 -77 -19 -21 18 -19 34 11 69 21 25 33 31 65 31 43 0 84 21 100 52
8 15 4 26 -20 54 -36 40 -36 42 -16 109 23 75 21 165 -5 165 -4 0 -27 -16 -50
-35 -45 -37 -84 -45 -94 -19 -3 9 -9 41 -12 72 -8 64 -19 91 -46 110 -23 16
-23 60 0 88 9 12 43 34 75 49 32 15 108 63 170 107 198 143 383 252 415 246 9
-2 19 -14 23 -28z m-10673 -154 c3 -50 -29 -180 -48 -191 -19 -12 -9 -35 33
-78 40 -41 67 -98 67 -143 0 -10 -12 -43 -27 -72 -30 -60 -25 -72 33 -72 41 0
57 20 58 73 1 37 5 44 35 59 41 20 51 34 51 71 0 35 -20 75 -53 105 -41 39
-52 74 -33 111 9 17 20 31 25 31 17 0 97 -61 271 -210 312 -265 415 -335 626
-425 192 -82 225 -88 479 -83 163 4 255 11 357 28 87 14 153 20 180 16 61 -9
142 -56 146 -83 4 -26 -14 -37 -90 -53 -99 -20 -126 -66 -53 -90 80 -26 64
-53 -46 -76 -101 -21 -135 -13 -156 34 -8 20 -19 44 -22 52 -4 8 -23 23 -42
33 -29 15 -52 18 -154 14 -133 -5 -207 -25 -311 -88 -72 -44 -92 -77 -105
-180 -16 -131 -14 -129 -107 -129 -43 0 -104 -7 -135 -15 -82 -21 -87 -20 -87
18 0 41 -20 70 -45 66 -10 -2 -31 -24 -45 -49 -14 -25 -34 -46 -43 -48 -29 -6
-154 39 -189 68 -32 27 -33 30 -33 101 l0 74 -97 50 c-53 28 -113 65 -134 83
-21 19 -59 44 -85 58 -56 28 -75 55 -59 83 5 11 20 23 32 26 53 16 83 66 56
93 -18 18 -32 15 -86 -23 -54 -37 -69 -37 -91 -3 -12 19 -11 23 5 35 25 18
138 51 254 74 52 11 105 22 117 24 33 8 57 48 44 73 -44 82 -349 29 -437 -75
-22 -26 -36 -35 -48 -30 -24 9 -81 136 -112 249 -31 114 -44 303 -24 373 15
55 61 97 99 93 24 -3 26 -8 29 -52z m10686 -241 c-2 -64 -87 -345 -105 -345
-12 0 -29 44 -29 73 0 12 12 47 26 77 15 31 30 86 35 127 9 84 32 136 57 131
14 -3 17 -15 16 -63z m-144 -445 c0 -33 -24 -50 -42 -32 -8 8 -8 18 0 37 16
36 42 33 42 -5z m-1092 -77 c25 -15 25 -36 1 -41 -17 -3 -69 41 -69 58 0 13
34 5 68 -17z m-1557 -221 c-18 -33 -180 -181 -229 -208 -26 -15 -82 -49 -124
-76 -79 -51 -149 -78 -201 -78 -67 0 -157 70 -157 123 0 33 107 95 210 122 34
9 90 34 124 56 94 61 136 65 103 10 -24 -41 -21 -111 5 -111 5 0 30 18 56 39
26 22 65 47 87 57 22 9 57 32 78 50 41 38 64 45 48 16z m-1071 -213 c0 -50
-190 -199 -253 -199 -26 0 -28 2 -16 17 19 22 248 193 260 193 5 0 9 -5 9 -11z
m-3591 -209 c107 -57 150 -109 65 -78 -35 12 -149 107 -130 108 4 0 34 -14 65
-30z m3421 -263 c0 -33 -47 -96 -72 -97 -12 0 -10 38 3 63 12 23 48 56 62 57
4 0 7 -10 7 -23z m-2659 -126 c62 -40 139 -110 139 -127 0 -39 -97 12 -167 89
-66 72 -53 90 28 38z m2107 -54 c12 -11 22 -27 22 -34 0 -8 -22 -41 -49 -73
-122 -146 -295 -555 -366 -865 -17 -75 -41 -145 -63 -188 l-36 -68 -7 -212
c-4 -117 -12 -228 -17 -247 -11 -45 -30 -80 -42 -80 -15 0 -37 40 -50 90 -34
128 -50 97 -50 -95 0 -82 -5 -166 -10 -185 -5 -20 -26 -51 -46 -70 -48 -47
-74 -100 -74 -152 -1 -75 -19 -129 -66 -192 -26 -33 -56 -81 -69 -106 -29 -56
-82 -128 -163 -222 -35 -40 -76 -88 -92 -106 -25 -29 -31 -32 -50 -22 -29 15
-52 73 -44 108 19 78 81 174 249 387 30 39 83 123 116 187 33 64 83 142 110
173 53 61 55 68 39 175 -5 36 -14 187 -20 335 -5 149 -15 343 -21 433 -6 90
-9 166 -6 169 3 3 13 -12 22 -33 9 -22 31 -55 50 -74 34 -35 54 -92 55 -153 0
-38 27 -129 45 -153 9 -13 17 -16 24 -9 21 21 68 447 75 675 l3 115 36 17 c20
10 44 29 53 44 10 14 34 34 55 45 47 24 100 93 169 224 112 211 141 232 218
162z m817 -17 c4 -6 -23 -39 -58 -73 -47 -46 -67 -74 -73 -103 -7 -30 -17 -43
-42 -54 -17 -9 -39 -25 -48 -38 -11 -16 -25 -22 -52 -22 -21 0 -47 -7 -59 -15
-38 -27 -143 -224 -143 -270 0 -18 7 -24 35 -29 45 -9 46 -30 1 -127 -18 -41
-36 -91 -39 -112 -4 -26 -19 -53 -46 -82 -53 -57 -86 -160 -86 -265 0 -41 4
-83 8 -92 8 -16 6 -16 -32 -1 -82 32 -83 35 -79 213 3 153 2 159 -20 183 -15
16 -25 42 -29 78 -7 63 -17 79 -49 79 -17 0 -24 6 -24 20 0 24 74 214 97 249
l16 24 34 -41 c28 -33 41 -42 67 -42 39 0 56 15 56 50 0 35 -17 50 -56 50 -17
0 -42 8 -55 18 l-22 19 30 64 c31 67 103 164 156 212 36 32 119 77 142 77 24
0 18 -16 -30 -87 -48 -70 -61 -103 -51 -129 16 -41 195 12 264 79 19 18 45 56
58 84 14 29 37 62 51 73 27 21 68 27 78 10z m-1573 -221 c10 -20 21 -61 23
-90 l5 -54 -40 84 c-22 46 -40 88 -40 93 0 22 35 0 52 -33z m-1020 -364 c15
-28 43 -98 62 -156 38 -116 120 -540 111 -570 -17 -53 -76 3 -89 84 -4 23 -32
159 -62 302 -87 407 -85 397 -65 393 9 -2 28 -26 43 -53z m737 -292 c-1 -44
-3 -51 -8 -28 -6 29 -3 85 5 85 2 0 3 -26 3 -57z m-381 -465 c7 -7 12 -24 12
-40 0 -40 -38 -62 -96 -55 -84 9 -85 44 -2 82 60 28 69 30 86 13z m-183 -128
c8 -16 15 -34 15 -40 0 -29 34 -79 61 -90 36 -15 37 -28 2 -36 -54 -14 -112
44 -120 119 -9 77 13 102 42 47z m1424 -367 c1 -124 -3 -204 -9 -208 -5 -3
-10 3 -10 15 0 28 -26 77 -61 118 -40 45 -37 85 11 199 23 52 44 109 47 126
l7 32 7 -40 c5 -22 8 -131 8 -242z m309 -437 c34 -38 50 -92 33 -109 -7 -7
-21 0 -46 27 -36 39 -51 75 -41 101 8 23 21 18 54 -19z m-1566 -487 c54 -14
72 -54 65 -135 -7 -71 7 -105 81 -194 23 -29 42 -55 42 -60 0 -4 -35 -47 -77
-95 -109 -122 -157 -188 -181 -243 -34 -78 -43 -83 -233 -117 -88 -16 -98 -16
-127 -1 -90 46 -80 186 16 235 52 27 61 40 60 88 0 25 9 60 21 83 24 46 26 72
10 102 -17 32 -13 87 8 110 10 11 35 29 55 39 28 14 40 28 47 57 13 46 61 94
121 121 53 24 46 23 92 10z m1972 -326 c-1 -36 -11 -68 -34 -112 -18 -33 -36
-61 -39 -61 -11 0 -78 74 -85 93 -10 29 11 55 54 67 24 7 47 22 61 41 29 42
44 32 43 -28z m-370 -19 c39 -15 2 -128 -70 -212 -48 -57 -58 -54 -50 13 7 66
30 128 63 173 25 33 31 36 57 26z"/>
<path d="M4564 8756 c-8 -21 3 -36 27 -36 15 0 20 6 17 22 -4 27 -35 37 -44
14z"/>
<path d="M2443 8564 c-10 -26 30 -69 63 -69 24 0 30 5 32 28 2 16 -2 35 -9 43
-16 19 -78 18 -86 -2z"/>
<path d="M2264 8439 c-40 -20 -59 -68 -59 -149 0 -84 14 -122 58 -154 26 -19
28 -19 45 -3 14 15 17 40 20 140 3 153 -11 191 -64 166z"/>
<path d="M10443 7819 c-68 -11 -163 -48 -271 -103 -87 -45 -126 -76 -171 -136
-13 -17 -46 -46 -75 -64 -107 -68 -242 -241 -234 -298 3 -22 7 -23 79 -22 110
2 149 23 171 93 22 66 34 81 67 81 33 0 71 26 71 47 0 9 -5 31 -12 49 -9 27
-9 37 5 58 24 36 144 91 292 132 176 50 205 65 205 110 0 50 -42 68 -127 53z"/>
<path d="M10892 6565 c-111 -65 -250 -161 -351 -241 -53 -43 -71 -63 -69 -78
6 -40 44 -30 161 40 294 177 402 261 395 309 -5 35 -40 27 -136 -30z"/>
<path d="M9694 6537 c-56 -38 -116 -112 -112 -136 2 -9 15 -17 31 -19 40 -5
95 35 141 101 61 88 30 116 -60 54z"/>
<path d="M9758 6388 c-33 -12 -35 -26 -8 -77 25 -50 74 -91 110 -91 31 0 90
48 90 73 0 19 -74 82 -113 96 -33 13 -43 13 -79 -1z"/>
<path d="M10730 6225 c-74 -36 -141 -65 -148 -65 -33 0 -162 -112 -162 -140 0
-16 42 -11 89 10 60 28 76 25 101 -15 12 -19 29 -35 39 -35 9 0 49 23 88 50
80 56 103 62 103 26 0 -14 7 -31 15 -40 20 -20 53 -8 107 39 45 38 114 65 167
65 45 0 31 13 -32 30 -49 13 -87 44 -135 109 -36 48 -73 43 -232 -34z"/>
<path d="M10012 6064 c-25 -17 -28 -42 -8 -69 12 -17 18 -18 53 -7 46 14 88
54 80 76 -8 21 -95 21 -125 0z"/>
<path d="M1507 5243 c-10 -9 -9 -43 1 -43 12 0 32 23 32 37 0 14 -22 18 -33 6z"/>
<path d="M1540 4890 c-31 -8 -70 -41 -70 -60 0 -16 30 -31 86 -41 34 -6 122
-40 204 -79 80 -37 171 -76 204 -86 56 -18 59 -18 72 0 17 24 48 161 40 181
-3 10 -19 15 -45 15 -22 0 -101 16 -176 35 -144 37 -257 50 -315 35z"/>
<path d="M1617 4683 c-11 -10 -8 -41 4 -49 6 -3 18 1 27 9 13 13 13 19 2 31
-14 17 -23 20 -33 9z"/>
<path d="M5382 758 c-17 -17 -15 -103 3 -118 12 -10 18 -6 35 22 24 40 27 93
4 102 -22 8 -28 8 -42 -6z"/>
<path d="M8484 10415 c-3 -8 -3 -19 1 -25 9 -14 35 6 35 26 0 19 -29 18 -36
-1z"/>
<path d="M8525 10220 c-47 -52 40 -280 106 -280 40 0 49 143 15 224 -29 69
-85 95 -121 56z"/>
<path d="M6403 9965 c-41 -17 -43 -46 -7 -74 32 -25 37 -25 80 -5 88 42 16
120 -73 79z"/>
<path d="M8627 9863 c-12 -12 -7 -33 14 -62 14 -19 24 -53 29 -101 9 -79 25
-106 58 -96 37 12 38 59 3 126 -17 32 -31 67 -31 77 0 41 -50 80 -73 56z"/>
<path d="M3067 9801 c-99 -91 -98 -179 1 -127 53 28 85 72 86 118 1 61 -28 63
-87 9z"/>
<path d="M9290 9766 c0 -20 53 -62 96 -76 30 -10 39 -10 52 3 13 14 13 19 2
32 -36 43 -150 74 -150 41z"/>
<path d="M10379 9763 c-40 -24 -54 -52 -36 -70 20 -20 62 -7 92 29 20 24 23
33 14 44 -15 18 -38 17 -70 -3z"/>
<path d="M2141 9725 c-40 -46 -63 -91 -59 -118 6 -40 127 -46 148 -7 14 26 12
134 -2 148 -22 22 -55 13 -87 -23z"/>
<path d="M9595 9677 c-24 -37 -12 -65 31 -73 47 -9 84 9 84 40 0 30 -19 45
-63 53 -30 4 -38 1 -52 -20z"/>
<path d="M2403 9683 c-54 -11 -55 -71 0 -100 43 -22 158 -28 300 -14 119 12
166 23 179 44 14 22 8 56 -11 67 -19 10 -419 12 -468 3z"/>
<path d="M10146 9664 c-49 -18 -76 -41 -76 -66 0 -15 8 -18 45 -18 51 0 113
26 165 70 l35 29 -65 0 c-36 0 -83 -7 -104 -15z"/>
<path d="M5643 9188 c-28 -14 -37 -41 -23 -68 16 -29 53 -35 97 -13 41 19 54
51 29 72 -21 17 -77 22 -103 9z"/>
<path d="M703 9160 c-43 -17 -17 -79 27 -65 24 8 44 41 36 61 -6 16 -30 17
-63 4z"/>
<path d="M7242 9035 c-6 -14 -29 -44 -50 -67 -79 -87 -89 -125 -52 -186 20
-33 25 -36 71 -46 15 -3 46 -22 69 -41 48 -40 60 -40 152 6 32 16 63 29 70 29
7 0 21 -13 30 -30 32 -56 111 -48 133 14 9 25 6 31 -20 52 -36 28 -32 34 63
84 55 29 67 39 67 60 0 22 -5 25 -41 28 -32 2 -61 -7 -134 -43 -51 -25 -105
-45 -119 -45 -14 0 -37 12 -52 26 l-27 26 -63 -27 c-72 -30 -119 -42 -119 -29
0 5 20 34 45 64 66 81 74 150 17 150 -21 0 -32 -7 -40 -25z"/>
<path d="M7843 9044 c-8 -22 8 -65 30 -78 15 -9 22 -7 38 13 10 13 19 29 19
36 0 38 -74 62 -87 29z"/>
<path d="M8762 8998 c-18 -18 -14 -56 9 -79 25 -25 41 -21 53 14 19 52 -27
100 -62 65z"/>
<path d="M5710 8508 c-57 -52 -105 -80 -154 -92 -16 -4 -59 -36 -95 -70 -36
-35 -91 -79 -121 -99 -66 -41 -84 -61 -76 -82 14 -37 188 1 302 66 29 16 84
56 123 89 39 33 85 67 101 75 36 19 37 34 2 107 l-27 57 -55 -51z"/>
<path d="M8003 8525 c-45 -65 -69 -88 -132 -124 -82 -48 -114 -81 -109 -113 2
-18 9 -22 27 -20 52 5 133 35 160 58 43 36 121 156 124 189 2 26 -2 30 -25 33
-19 2 -31 -4 -45 -23z"/>
<path d="M5341 8454 c-41 -29 -14 -77 30 -54 22 12 26 55 5 63 -7 3 -23 -1
-35 -9z"/>
<path d="M6460 8445 c-6 -15 -10 -37 -10 -51 0 -37 52 -33 92 6 42 43 35 64
-25 68 -43 3 -48 1 -57 -23z"/>
<path d="M6838 8398 c-16 -12 -22 -29 -19 -55 2 -21 65 -35 187 -40 184 -9
304 22 304 77 0 26 -33 31 -96 14 -70 -18 -134 -18 -204 1 -67 18 -151 19
-172 3z"/>
<path d="M4980 8371 c-13 -26 -13 -31 3 -31 19 0 36 20 30 36 -7 20 -21 17
-33 -5z"/>
<path d="M6210 8372 c-46 -25 -71 -61 -64 -89 9 -35 33 -28 81 23 62 64 52
102 -17 66z"/>
<path d="M7591 8321 c-24 -24 -26 -40 -8 -65 19 -25 58 -17 77 16 28 52 -27
91 -69 49z"/>
<path d="M7865 8248 c-36 -19 -75 -61 -75 -80 0 -37 85 -51 140 -23 24 13 30
22 30 49 0 55 -46 81 -95 54z"/>
<path d="M7278 8197 c-114 -44 -104 -63 43 -83 89 -13 105 -13 117 0 18 18 9
59 -18 86 -26 26 -70 25 -142 -3z"/>
<path d="M7026 8155 c-20 -20 -10 -44 20 -51 52 -13 99 20 73 52 -15 19 -74
18 -93 -1z"/>
<path d="M7512 8040 c-64 -46 -69 -100 -11 -100 44 0 89 48 89 94 0 46 -21 47
-78 6z"/>
<path d="M7730 8023 c-54 -37 -64 -72 -28 -97 30 -21 64 -20 115 4 88 39 77
110 -16 110 -28 0 -57 -7 -71 -17z"/>
<path d="M2383 6511 c-67 -48 -104 -101 -101 -141 4 -48 37 -51 98 -11 95 63
123 112 89 154 -26 34 -37 34 -86 -2z"/>
<path d="M12457 6522 c-44 -48 -5 -112 67 -112 57 0 72 17 56 65 -19 57 -90
84 -123 47z"/>
<path d="M1677 6293 c-14 -13 -7 -60 11 -76 23 -21 36 -21 56 -1 27 26 20 54
-19 70 -40 16 -39 16 -48 7z"/>
<path d="M2341 6163 c-55 -56 -65 -164 -19 -210 60 -60 138 -26 138 59 -1 54
-38 146 -67 165 -21 14 -25 13 -52 -14z"/>
<path d="M3030 5947 c0 -8 8 -21 18 -30 37 -34 78 -12 46 24 -20 22 -64 26
-64 6z"/>
<path d="M1563 5824 c-8 -21 48 -74 78 -74 20 0 20 1 2 31 -10 17 -30 37 -46
45 -25 13 -28 13 -34 -2z"/>
<path d="M2870 5824 c0 -14 24 -51 44 -66 11 -10 36 -18 54 -18 46 0 43 32 -5
65 -33 22 -93 35 -93 19z"/>
<path d="M3664 5725 c-8 -33 23 -132 102 -322 134 -322 175 -364 481 -499 180
-79 277 -135 391 -225 86 -68 99 -76 242 -143 41 -19 117 -62 168 -95 111 -72
231 -123 275 -119 28 3 32 7 35 37 3 31 -3 41 -62 97 -109 104 -318 234 -449
278 -76 26 -121 52 -184 107 -70 62 -159 121 -271 179 -45 23 -91 55 -102 70
-11 15 -33 30 -50 33 -21 5 -43 24 -76 66 -51 66 -72 78 -104 61 -52 -28 -123
66 -191 255 -63 175 -184 304 -205 220z"/>
<path d="M2492 5610 c-52 -11 -100 -37 -118 -65 -20 -30 1 -56 84 -104 37 -21
84 -53 105 -69 70 -56 147 -49 242 24 52 39 69 77 53 111 -36 76 -233 131
-366 103z"/>
<path d="M2014 5499 c-14 -23 63 -98 86 -84 19 12 10 43 -17 63 -38 26 -61 33
-69 21z"/>
<path d="M2156 5383 c-9 -22 27 -58 48 -50 19 7 21 38 4 55 -17 17 -45 15 -52
-5z"/>
<path d="M2334 5346 c-8 -21 3 -36 27 -36 15 0 20 6 17 22 -4 27 -35 37 -44
14z"/>
<path d="M3621 5313 c-26 -18 -25 -56 2 -61 25 -5 47 16 47 43 0 30 -22 38
-49 18z"/>
<path d="M676 5051 c-3 -4 3 -16 13 -25 21 -19 37 -7 27 19 -6 16 -32 20 -40
6z"/>
<path d="M7360 4845 c-48 -36 -200 -204 -200 -222 0 -19 17 -13 88 30 113 67
219 170 209 201 -7 22 -61 17 -97 -9z"/>
<path d="M6922 4495 c-40 -19 -91 -39 -114 -46 -79 -21 -153 -87 -133 -119 3
-5 26 -10 49 -10 59 0 189 66 261 131 92 85 63 105 -63 44z"/>
<path d="M5773 4368 c-29 -14 -30 -56 -4 -90 47 -59 206 -119 370 -139 l101
-13 28 31 c29 32 55 44 138 63 59 13 108 41 123 69 9 16 8 22 -9 31 -11 6
-138 15 -287 20 -161 6 -294 16 -333 25 -77 17 -97 17 -127 3z"/>
<path d="M4885 2540 c-36 -40 -36 -150 1 -177 40 -29 107 2 118 55 13 58 -34
142 -79 142 -12 0 -30 -9 -40 -20z"/>
</g>
</svg>
