<?xml version="1.0" standalone="no"?>
<!DOCTYPE svg PUBLIC "-//W3C//DTD SVG 20010904//EN"
 "http://www.w3.org/TR/2001/REC-SVG-20010904/DTD/svg10.dtd">
<svg version="1.0" xmlns="http://www.w3.org/2000/svg"
 width="1280.000000pt" height="1004.000000pt" viewBox="0 0 1280.000000 1004.000000"
 preserveAspectRatio="xMidYMid meet">
<metadata>
Created by potrace 1.15, written by Peter Selinger 2001-2017
</metadata>
<g transform="translate(0.000000,1004.000000) scale(0.100000,-0.100000)"
fill="#000000" stroke="none">
<path d="M4920 10030 c-58 -4 -256 -18 -440 -29 -600 -38 -894 -60 -932 -71
-44 -13 -52 -31 -50 -124 2 -99 20 -175 48 -201 42 -39 47 -104 41 -520 -8
-496 -23 -1789 -37 -3195 -15 -1418 -24 -1918 -36 -1930 -5 -5 -77 -12 -159
-16 -83 -3 -226 -16 -320 -30 -93 -13 -231 -29 -305 -34 -130 -11 -255 -33
-458 -84 -53 -13 -157 -36 -231 -51 -167 -33 -164 -32 -194 -76 l-25 -37 -7
-408 c-3 -225 -6 -438 -5 -474 0 -36 -5 -95 -11 -132 l-12 -67 -41 -6 c-23 -3
-149 -16 -281 -30 -416 -42 -635 -64 -795 -80 -85 -8 -165 -18 -176 -21 -19
-5 -22 -1 -26 47 -8 75 -46 108 -174 149 -111 35 -159 35 -216 -3 -71 -48
-100 -171 -58 -250 19 -34 20 -57 21 -314 2 -501 13 -861 26 -874 7 -7 16 -9
20 -5 5 4 11 260 15 568 4 308 8 561 10 563 2 1 37 -3 78 -9 l75 -12 5 -486
c3 -267 8 -490 12 -493 13 -13 38 4 38 25 0 11 4 20 9 20 8 0 21 -80 21 -138
0 -26 4 -33 17 -30 17 3 18 38 23 520 4 371 8 520 17 529 24 24 238 -19 1243
-251 217 -50 490 -111 605 -136 222 -47 373 -81 755 -170 313 -73 371 -86 970
-215 283 -60 559 -120 613 -131 l98 -22 -2 -430 c-2 -237 1 -441 5 -453 9 -27
31 -30 41 -5 4 9 10 207 15 440 5 264 11 427 18 434 14 14 136 -6 169 -27 l25
-17 -6 -491 c-3 -271 -3 -548 1 -617 7 -116 9 -125 28 -125 18 0 21 9 26 90 4
50 7 217 8 373 1 155 4 282 7 282 3 0 37 -16 75 -36 105 -56 164 -131 126
-162 -17 -15 -81 17 -120 59 -30 33 -57 33 -57 0 0 -27 71 -85 133 -108 l52
-20 6 -120 c6 -112 18 -163 38 -163 13 0 19 52 27 207 4 73 8 133 9 133 2 0
27 -11 57 -25 29 -14 65 -25 79 -25 14 0 95 -20 180 -44 157 -45 270 -70 369
-81 91 -11 47 13 -73 40 -163 37 -386 104 -436 131 -137 74 -191 117 -191 155
0 25 25 24 77 -3 64 -34 65 -12 2 46 -71 64 -85 89 -63 110 22 23 51 20 121
-13 78 -37 121 -69 138 -102 12 -22 23 -27 72 -32 32 -3 78 -13 102 -22 45
-15 70 -12 38 6 -17 10 -24 39 -9 39 4 0 47 7 96 14 l89 15 94 -44 c52 -25 92
-48 89 -53 -3 -5 -24 -12 -46 -16 -45 -7 -110 -35 -110 -48 0 -12 61 -10 168
8 104 17 97 18 227 -30 12 -5 7 3 -14 22 -23 19 -30 31 -22 36 6 4 51 12 100
19 88 11 89 11 170 -21 80 -32 141 -49 141 -40 0 3 -23 19 -50 36 -28 17 -50
36 -50 42 0 17 65 40 114 40 24 0 73 -9 107 -20 70 -21 86 -18 51 11 l-24 19
24 9 c12 5 67 13 121 19 97 11 98 11 168 -19 39 -17 73 -28 76 -25 5 4 -48 41
-72 50 -38 14 87 44 215 52 l95 6 153 -62 c84 -33 163 -59 175 -57 24 4 27 2
-139 73 -45 19 -89 34 -98 34 -11 0 -16 6 -14 17 2 13 25 22 88 35 160 33 177
30 475 -78 146 -53 265 -100 265 -104 0 -12 -70 -26 -509 -96 -481 -76 -523
-86 -505 -116 10 -17 -9 -19 1084 162 201 33 392 60 425 60 34 0 65 4 70 9 26
23 277 57 356 48 40 -5 49 -3 61 14 11 17 47 25 243 54 272 41 332 53 341 67
17 26 -18 28 -159 9 -168 -24 -225 -26 -262 -9 -30 13 -33 28 -5 28 11 0 20 5
20 11 0 6 -8 8 -17 5 -10 -3 -45 -6 -78 -7 -61 -2 -82 5 -393 117 -41 15 -70
30 -65 35 5 5 46 14 92 20 78 11 138 9 221 -7 l35 -7 -19 21 c-23 27 -26 26
134 52 149 24 197 25 264 5 96 -28 351 -85 451 -101 143 -22 143 -24 -10 -52
-125 -23 -169 -37 -160 -52 7 -11 22 -9 205 21 63 10 156 23 205 29 89 11 381
64 440 80 61 16 -76 10 -215 -10 -74 -11 -167 -20 -207 -20 -119 0 -502 79
-612 127 -39 16 -41 14 37 43 17 7 32 16 32 21 0 11 -82 10 -165 -1 -135 -17
-385 37 -385 84 0 9 -20 15 -62 19 -65 6 -222 53 -280 83 l-33 17 30 9 c17 4
69 15 117 23 81 13 92 13 158 -6 38 -10 80 -19 92 -19 20 0 19 3 -11 21 -19
11 -30 24 -25 29 16 14 202 41 241 34 100 -17 307 -90 298 -105 -3 -4 -24 -13
-45 -19 -22 -6 -40 -16 -40 -22 0 -8 34 -9 116 -4 113 7 119 6 211 -25 111
-37 135 -33 34 6 -39 15 -73 30 -76 35 -6 10 65 23 122 22 46 0 127 -22 199
-52 36 -16 45 -23 36 -32 -23 -23 -11 -28 66 -28 52 0 106 -8 162 -24 47 -13
95 -26 108 -29 39 -9 24 12 -29 39 -29 14 -48 29 -43 34 5 5 41 14 79 20 39 6
91 18 117 26 47 15 48 15 255 -40 115 -31 213 -56 218 -56 33 0 -48 30 -320
120 -170 56 -314 106 -318 110 -5 4 -5 10 0 13 14 9 213 47 245 47 16 0 137
-36 268 -80 131 -44 246 -80 254 -80 38 0 10 21 -54 40 -109 33 -102 47 39 75
90 19 113 17 217 -14 108 -32 106 -28 120 -180 6 -73 15 -135 18 -138 14 -14
20 15 28 135 11 161 11 157 2 219 -8 62 4 83 48 83 37 0 33 18 -8 40 -27 15
-29 22 -32 79 l-3 63 31 -7 c16 -4 58 -15 93 -24 l62 -18 6 -294 c4 -175 11
-311 18 -336 12 -42 32 -55 47 -31 5 7 10 136 13 287 4 185 10 276 17 278 6 2
23 -16 39 -39 15 -24 56 -82 91 -129 l64 -86 0 -216 c0 -210 5 -246 31 -220 6
6 15 55 20 109 16 156 23 197 35 201 6 2 36 -29 65 -69 70 -96 198 -228 220
-228 21 0 39 29 39 62 0 34 -30 75 -370 518 -102 132 -200 261 -218 287 l-33
47 3 198 c2 145 -1 201 -10 210 -7 7 -12 38 -12 73 0 121 -70 206 -183 221
-87 12 -179 -44 -194 -117 -3 -16 -9 -29 -14 -29 -17 0 -154 175 -751 960
-111 146 -223 292 -250 324 -81 98 -91 124 -96 258 -4 103 -7 119 -26 136 -31
29 -109 52 -177 52 -54 0 -64 -3 -90 -29 -16 -16 -29 -38 -29 -48 1 -10 -2
-128 -4 -263 -3 -135 -8 -483 -11 -775 -4 -291 -8 -536 -11 -543 -3 -9 -9 -10
-23 -3 -10 6 -61 15 -112 21 -140 16 -149 20 -215 108 -76 101 -536 691 -634
812 -42 52 -155 199 -250 325 -96 127 -194 255 -219 285 -55 69 -80 123 -81
177 0 58 -15 93 -40 93 -12 0 -37 8 -58 19 -60 30 -113 35 -181 15 l-61 -17 0
-291 c0 -425 -20 -1320 -30 -1330 -8 -8 -630 57 -674 71 -19 5 -19 22 -13 632
4 344 10 786 13 981 5 265 4 365 -5 392 -11 33 -18 39 -84 62 -100 36 -238 66
-301 66 -29 0 -113 11 -186 25 -161 30 -156 30 -184 2 -23 -23 -23 -25 -30
-388 -7 -362 -17 -508 -37 -553 -6 -13 -22 -29 -35 -35 -30 -13 -353 -58 -517
-71 -66 -6 -149 -15 -186 -21 -36 -6 -118 -15 -181 -20 -63 -5 -148 -12 -188
-16 l-73 -6 -48 52 -47 51 -107 0 -106 0 -12 42 c-6 24 -11 113 -10 208 0 91
-2 251 -5 357 -6 202 10 664 26 746 5 26 14 139 20 250 5 111 14 249 20 307 6
58 27 285 46 505 56 651 93 1055 119 1315 14 135 41 421 60 635 19 215 42 452
50 527 20 180 19 267 -1 296 -14 20 -22 22 -129 21 -62 -1 -118 2 -124 6 -14
8 -15 406 -1 457 8 29 17 38 39 43 19 4 32 15 39 33 8 21 10 174 3 238 -2 25
-54 62 -108 79 -68 20 -370 29 -543 15z m350 -159 c0 -63 -4 -94 -14 -103 -14
-15 -49 -17 -781 -53 -165 -8 -429 -22 -587 -31 -158 -8 -297 -12 -309 -9 -18
6 -20 12 -15 44 3 20 6 57 6 82 0 42 3 48 28 57 15 6 72 15 127 21 99 11 180
16 755 47 162 9 354 19 425 24 72 4 183 8 248 8 l117 2 0 -89z m-6 -363 c-2
-95 -7 -210 -10 -255 l-6 -83 -28 0 c-16 0 -32 5 -36 11 -4 6 -40 27 -82 46
l-75 34 6 65 c4 39 2 74 -5 89 -14 30 6 199 27 232 13 19 26 23 92 26 43 1 88
4 100 5 l23 2 -6 -172z m-318 151 c14 -23 23 -85 17 -125 l-5 -41 -84 -7 c-46
-3 -121 -9 -167 -12 l-84 -6 -11 78 c-6 43 -9 80 -7 82 2 2 67 7 146 12 88 5
145 12 147 19 5 14 39 14 48 0z m-511 -104 c-5 -40 -15 -79 -21 -85 -15 -15
-279 -19 -294 -4 -8 8 -9 32 -3 80 10 83 6 82 193 83 l136 1 -11 -75z m-538
-457 c-4 -277 -12 -1110 -17 -1853 -6 -742 -15 -1633 -21 -1980 -13 -724 -12
-1194 3 -1212 15 -18 -1 -36 -26 -28 -11 4 -68 10 -126 14 l-105 6 -7 80 c-7
77 1 1054 22 2450 5 369 15 1071 21 1560 6 490 14 1013 18 1163 6 254 8 275
26 288 13 10 49 14 118 14 l100 0 -6 -502z m1057 306 c12 -30 7 -134 -6 -134
-615 -16 -810 -29 -866 -59 -26 -14 -28 -28 -6 -53 16 -17 15 -19 -17 -32 -19
-7 -49 -17 -68 -21 l-33 -7 3 125 c2 69 7 128 10 131 8 8 217 22 614 41 176 8
327 17 335 19 8 2 18 4 21 5 4 0 10 -6 13 -15z m266 -321 l33 -6 -7 -543 c-4
-298 -11 -971 -16 -1496 -19 -1988 -33 -3123 -39 -3130 -4 -4 -65 -3 -136 3
-107 9 -133 14 -145 29 -19 24 -50 36 -120 45 -74 10 -88 19 -110 69 -23 54
-87 110 -148 127 -73 21 -178 17 -235 -11 -55 -26 -82 -57 -98 -111 l-12 -38
-51 5 c-106 10 -116 14 -127 41 -11 30 2 106 26 152 21 42 72 81 104 81 18 0
54 19 102 55 97 72 150 90 264 90 80 0 97 -3 150 -30 42 -21 68 -43 88 -72 18
-27 38 -45 55 -49 15 -3 47 -12 71 -21 l44 -16 -5 -111 c-5 -121 0 -167 19
-173 7 -3 17 8 23 22 7 18 14 410 20 1084 5 581 14 1461 20 1956 5 495 13
1152 16 1460 3 318 10 567 15 577 8 15 24 18 88 18 43 0 93 -3 111 -7z m-338
-375 c0 -344 -9 -489 -31 -511 -19 -19 -81 50 -81 90 0 29 -3 33 -25 33 -34 0
-42 25 -21 62 23 38 15 45 -23 22 -62 -36 -54 11 19 110 76 105 64 109 -45 17
-59 -51 -78 -60 -90 -42 -6 10 33 57 178 217 48 53 85 99 83 102 -3 2 -36 -22
-73 -55 -122 -106 -232 -193 -245 -193 -7 0 -39 28 -71 63 l-58 62 15 32 c8
17 59 79 113 138 54 58 96 109 93 113 -10 14 -34 -1 -113 -70 -76 -65 -142
-108 -167 -108 -34 0 13 78 123 202 l69 78 166 2 c92 2 171 0 176 -4 5 -4 8
-166 8 -360z m-392 352 c0 -5 -39 -43 -87 -85 -134 -117 -168 -126 -114 -30
35 62 27 69 -32 29 -63 -42 -98 -20 -52 34 23 27 23 31 7 38 -13 6 -10 9 18
14 54 11 260 11 260 0z m1160 -10 c15 -11 30 -33 33 -49 8 -39 -9 -338 -27
-485 -9 -67 -22 -204 -31 -306 -8 -102 -22 -252 -30 -335 -8 -82 -23 -253 -34
-380 -18 -198 -65 -709 -87 -945 -16 -169 -23 -6 -23 590 -1 565 5 950 25
1683 l6 247 70 0 c54 0 76 -5 98 -20z m-1328 -460 c58 -69 171 -203 250 -299
78 -96 155 -183 170 -194 20 -15 46 -21 99 -23 40 -2 77 -8 82 -13 16 -16 19
-474 8 -1222 -6 -393 -14 -1113 -17 -1601 -4 -488 -10 -892 -14 -898 -12 -19
-76 15 -138 72 -32 28 -86 65 -122 82 -59 28 -74 31 -165 31 -90 0 -106 -3
-157 -29 -32 -16 -82 -51 -112 -77 -55 -50 -81 -59 -107 -36 -14 11 -15 240
-8 2147 4 1174 10 2171 14 2214 l8 79 51 -54 c28 -30 99 -111 158 -179z m1012
-3467 c4 -9 10 -69 13 -132 6 -101 4 -115 -11 -127 -37 -27 -46 -8 -46 100 0
133 23 215 44 159z m1898 -244 c84 -17 203 -47 263 -68 l110 -37 8 -139 c4
-77 6 -270 4 -430 -3 -305 -10 -354 -45 -340 -9 4 -128 31 -263 60 -135 30
-258 57 -272 60 l-27 7 0 277 c1 322 13 569 31 603 10 19 27 37 36 38 1 0 71
-14 155 -31z m1418 -936 c-1 -614 -17 -1295 -32 -1305 -12 -7 -46 -4 -92 9
-19 5 -19 22 -13 697 4 380 10 746 14 814 l6 122 59 0 58 0 0 -337z m-4305
127 c-19 -36 -74 -100 -86 -100 -31 0 10 84 54 110 44 27 50 25 32 -10z m6193
1 c11 -7 11 -111 3 -592 -6 -321 -11 -686 -11 -812 l0 -230 -59 6 c-33 3 -64
8 -70 12 -14 8 -15 478 -1 990 14 484 22 614 41 626 18 11 80 11 97 0z m-5929
-35 c27 -24 27 -75 1 -126 -27 -53 -55 -70 -115 -70 -43 0 -56 4 -79 28 -90
94 -29 198 111 190 43 -3 68 -10 82 -22z m-811 -71 c18 -16 7 -37 -103 -205
-83 -128 -168 -230 -180 -218 -3 3 3 25 15 48 12 23 18 49 15 60 -9 27 -53 60
-81 60 -13 0 -24 3 -24 7 0 3 26 47 59 97 32 50 70 110 84 133 l27 42 87 -6
c49 -3 94 -11 101 -18z m374 -7 c4 -7 8 -21 8 -32 0 -50 74 -122 165 -161 121
-52 325 14 325 106 0 16 9 38 20 49 22 22 51 24 125 7 43 -10 50 -16 53 -38 4
-30 -48 -132 -119 -235 -67 -97 -92 -119 -132 -116 -18 2 -51 -4 -74 -12 -24
-8 -99 -18 -170 -21 -126 -6 -296 -37 -321 -58 -10 -7 -17 -6 -30 7 -22 22
-28 160 -14 346 11 148 16 166 40 174 29 8 115 -3 124 -16z m4704 -100 c64
-88 283 -375 369 -484 22 -28 71 -90 109 -138 l69 -88 -7 -177 c-3 -97 -9
-216 -13 -264 l-6 -89 -81 7 c-45 4 -173 18 -285 31 -112 13 -217 24 -234 24
l-29 0 6 348 c13 724 19 922 26 922 5 0 39 -42 76 -92z m-1705 26 c79 -19 152
-38 163 -41 39 -11 -5 -22 -154 -38 -85 -9 -243 -27 -350 -40 -331 -41 -1274
-145 -1317 -145 -28 0 -45 6 -60 23 -44 47 -40 90 10 106 18 6 140 22 272 35
463 47 742 77 975 106 129 15 254 29 276 29 23 1 107 -15 185 -35z m-3715 12
c20 -15 13 -20 -119 -74 -34 -15 -27 -32 13 -32 34 0 47 -15 29 -36 -9 -12
-28 -15 -68 -12 -52 3 -56 1 -59 -20 -5 -31 -37 -45 -89 -38 -39 5 -46 3 -50
-14 -6 -24 -20 -25 -44 -4 -21 19 -39 11 -39 -16 0 -37 -86 -55 -125 -26 -18
13 -18 15 -2 39 18 27 35 34 237 99 113 36 135 47 135 63 0 15 6 20 27 18 19
-1 29 4 33 19 7 19 55 47 86 48 8 0 24 -6 35 -14z m2180 -11 c21 -21 23 -29
14 -40 -29 -35 -90 7 -69 47 13 24 25 23 55 -7z m-2392 -12 c3 -4 -7 -19 -24
-35 -31 -28 -76 -36 -114 -22 -29 11 -17 24 23 24 30 0 40 4 44 20 4 14 14 20
34 20 16 0 33 -3 37 -7z m2291 -23 c10 -11 16 -22 14 -24 -2 -2 -30 -6 -61 -9
-66 -6 -83 6 -48 35 29 24 72 23 95 -2z m-1675 -5 c0 -29 -38 -113 -109 -244
-70 -127 -74 -132 -100 -126 -14 3 -32 12 -40 20 -16 16 -16 15 98 182 121
176 151 209 151 168z m1223 -11 c45 -4 70 -11 74 -20 3 -8 -13 -42 -35 -77
-22 -34 -68 -109 -102 -167 -62 -106 -245 -375 -742 -1093 -148 -214 -285
-418 -305 -453 -19 -35 -40 -64 -46 -64 -32 1 -182 58 -191 73 -11 18 -35 -18
369 572 294 431 508 743 701 1027 143 211 148 216 178 212 17 -2 62 -6 99 -10z
m-2042 -20 c38 -19 26 -39 -31 -49 -65 -11 -111 33 -57 55 33 13 55 12 88 -6z
m-291 -2 c0 -11 -271 -132 -297 -132 -57 0 -19 46 67 80 60 24 184 59 213 59
9 1 17 -2 17 -7z m-300 -17 c0 -2 -21 -18 -47 -36 -27 -17 -58 -43 -69 -56
-20 -23 -26 -25 -73 -18 -28 4 -51 10 -51 15 0 12 149 80 195 90 22 4 41 8 43
9 1 1 2 -1 2 -4z m448 -11 c30 -21 28 -52 -4 -66 -21 -10 -30 -9 -52 4 -42 25
-51 46 -28 64 26 18 56 18 84 -2z m4637 -13 c-30 -12 -189 -38 -380 -60 -339
-41 -603 -71 -755 -86 -85 -9 -222 -25 -305 -35 -187 -24 -520 -60 -551 -60
-14 0 -24 6 -24 14 0 10 16 16 53 20 28 3 138 15 242 26 105 12 321 36 480 55
271 33 593 70 815 96 52 6 140 17 195 24 113 14 261 18 230 6z m-4759 -45 l28
-23 -26 -17 c-31 -20 -113 -31 -163 -22 -45 9 -39 18 17 25 27 4 45 13 52 26
23 42 52 46 92 11z m4154 -460 c0 -274 -3 -346 -14 -361 -12 -17 -19 -18 -97
-7 -125 18 -525 62 -564 62 -25 0 -46 10 -79 39 -27 23 -67 46 -98 55 -67 19
-262 100 -295 122 -24 15 -25 20 -19 77 3 33 6 95 6 138 0 104 1 105 206 124
218 21 670 74 719 85 22 5 65 10 95 11 30 1 69 5 85 8 17 4 36 3 43 -2 9 -7
12 -90 12 -351z m-3750 346 c0 -5 -13 -21 -30 -37 l-30 -29 -26 25 -26 24 39
12 c46 14 73 16 73 5z m7541 -30 c65 -72 209 -259 374 -482 l165 -225 0 -215
c0 -158 -3 -221 -12 -232 -12 -15 -33 -14 -253 12 -132 16 -256 30 -275 32
l-35 3 -6 65 c-14 137 -14 1080 0 1080 5 0 24 -17 42 -38z m-8422 22 c33 -7
43 -24 14 -24 -10 0 -25 -5 -33 -10 -12 -9 -9 -15 20 -40 l35 -30 -27 -23
c-33 -27 -35 -38 -8 -55 29 -18 26 -60 -5 -72 -31 -12 -31 -21 0 -50 28 -26
30 -58 5 -70 -44 -20 -55 -28 -55 -41 0 -9 13 -15 35 -17 19 -2 39 -7 43 -12
16 -14 -12 -47 -53 -64 -56 -22 -87 -21 -95 5 -4 11 -3 126 1 255 6 218 6 234
-10 234 -10 0 -22 -13 -29 -30 -8 -22 -18 -30 -41 -32 -41 -4 -44 -24 -6 -43
37 -19 55 -58 40 -86 -8 -14 -21 -19 -51 -19 -33 0 -40 -3 -37 -17 2 -10 12
-19 23 -21 31 -6 55 -32 55 -60 0 -23 -3 -24 -35 -19 -31 5 -35 3 -35 -15 0
-11 -10 -41 -22 -66 l-23 -44 -7 33 c-7 34 8 373 18 416 6 23 9 23 129 23 67
0 137 -3 154 -6z m5251 -66 c0 -219 -23 -895 -31 -910 -21 -39 -59 -17 -94 52
-17 32 -17 58 -11 310 7 302 20 493 36 534 11 31 68 86 87 86 9 0 13 -20 13
-72z m-5042 46 c35 -10 25 -46 -14 -56 -42 -11 -63 -35 -38 -44 73 -23 83 -44
34 -69 -35 -18 -38 -30 -10 -45 49 -26 45 -86 -7 -92 -40 -5 -39 -25 1 -49 50
-29 50 -65 1 -75 -50 -9 -51 -20 -4 -50 38 -23 40 -27 26 -42 -17 -16 -100
-22 -114 -8 -10 10 -10 453 0 488 10 36 70 56 125 42z m218 -29 c8 -20 -13
-45 -37 -45 -25 0 -24 -8 4 -38 l22 -25 -60 8 c-33 4 -63 9 -67 12 -5 2 -8 26
-8 54 l0 49 70 0 c54 0 72 -4 76 -15z m274 -31 c100 -23 100 -25 -12 -75 -11
-5 -23 -3 -32 6 -25 25 -62 28 -82 7 -11 -11 -38 -22 -61 -25 l-43 -5 0 54 0
54 81 0 c44 0 111 -7 149 -16z m2482 -66 c30 -46 85 -137 123 -203 38 -66 76
-131 86 -145 9 -14 116 -200 236 -415 121 -214 230 -407 243 -427 20 -34 20
-39 5 -44 -28 -11 -99 4 -113 23 -46 63 -536 928 -588 1038 -44 94 -66 181
-57 228 3 15 7 27 9 27 1 0 27 -37 56 -82z m-3538 46 c16 -16 14 -26 -12 -56
-13 -15 -13 -21 1 -51 18 -36 13 -77 -9 -77 -19 0 -18 -40 3 -62 15 -17 15
-19 -3 -39 -15 -16 -16 -24 -6 -39 17 -27 15 -75 -3 -90 -12 -10 -12 -16 -1
-39 19 -38 20 -220 1 -241 -13 -14 -12 -21 5 -55 31 -60 23 -101 -22 -118 -22
-8 7 -29 33 -25 40 5 49 41 49 193 0 77 4 146 9 153 7 11 19 12 65 2 l56 -11
0 -39 c0 -36 -20 -70 -41 -70 -17 0 -9 -28 17 -59 27 -33 25 -51 -7 -51 -29 0
-23 -27 10 -44 16 -9 31 -23 35 -31 7 -20 -8 -50 -29 -59 -22 -8 -19 -43 5
-56 29 -15 25 -38 -10 -58 -16 -9 -30 -23 -30 -31 0 -21 40 -61 62 -61 36 0
42 44 43 296 1 132 5 246 9 252 8 13 54 16 80 6 9 -4 16 -18 16 -34 0 -22 5
-29 23 -32 33 -5 31 -50 -3 -58 -36 -8 -31 -32 8 -42 41 -11 37 -27 -14 -54
-49 -26 -51 -48 -4 -52 53 -5 58 -19 11 -32 -45 -12 -51 -24 -21 -40 23 -13
28 -73 8 -116 -11 -24 -10 -29 17 -50 52 -42 95 -14 65 41 -8 15 -10 37 -5 62
4 21 10 115 14 208 l6 170 28 3 c25 3 28 0 25 -19 -2 -17 4 -24 27 -32 60 -19
72 -50 33 -87 l-22 -20 22 -30 c31 -41 28 -59 -13 -76 -19 -8 -35 -19 -35 -24
0 -5 21 -21 46 -36 l47 -28 21 27 c34 42 52 34 25 -10 -36 -62 -54 -73 -121
-73 -66 0 -76 -17 -20 -35 17 -6 34 -13 37 -17 8 -8 -20 -64 -57 -110 -28 -35
-33 -38 -83 -38 -30 0 -82 6 -117 14 -35 8 -95 18 -135 22 -88 8 -139 34 -123
63 13 25 13 141 0 161 -19 28 -40 -17 -40 -85 0 -34 -3 -64 -6 -68 -4 -3 -17
1 -30 10 -13 8 -31 13 -39 9 -23 -9 -18 12 10 36 28 25 31 46 10 74 -9 11 -12
31 -9 49 3 17 8 226 12 465 4 239 11 441 15 448 11 17 42 15 61 -4z m1636 -49
c165 -30 268 -40 363 -37 9 0 32 0 50 -1 17 0 95 11 172 25 93 17 191 28 293
31 164 6 172 3 134 -43 -16 -19 -33 -24 -108 -31 -190 -16 -338 -39 -374 -58
-36 -19 -36 -19 -46 3 -6 14 -20 22 -41 24 -26 3 -36 -3 -59 -33 l-27 -36 5
-190 6 -190 -25 -10 -24 -9 20 -26 c23 -30 27 -64 9 -82 -8 -8 -8 -15 2 -26 8
-11 10 -27 4 -53 -4 -21 -6 -42 -4 -48 2 -5 4 -48 5 -95 1 -102 -4 -115 -113
-266 -44 -61 -92 -133 -107 -160 -49 -85 -74 -114 -100 -114 -29 0 -40 18 -50
80 -10 63 -20 79 -33 54 -5 -10 -13 -38 -17 -62 -5 -33 -12 -43 -31 -48 -47
-12 -55 0 -48 68 3 36 2 80 -5 103 -6 22 -13 115 -17 207 -6 131 -4 171 6 183
10 12 10 19 2 27 -13 13 -16 68 -4 68 4 0 14 5 22 10 13 9 11 13 -9 29 -21 16
-26 30 -29 87 -4 52 0 75 13 101 17 31 17 34 2 51 -23 25 -21 47 6 72 22 21
22 21 2 36 -17 12 -21 29 -24 101 -2 48 2 103 8 125 11 36 15 39 44 36 56 -5
58 -19 63 -416 2 -196 9 -411 15 -477 7 -66 12 -145 13 -175 1 -65 9 -80 41
-80 29 0 39 13 26 37 -23 43 -30 84 -18 104 10 16 9 25 -4 47 -12 21 -13 34
-6 50 7 15 7 30 -1 48 -18 37 -15 113 3 120 20 8 19 21 -5 51 -27 35 -26 87 2
107 l22 16 -23 21 c-20 19 -22 28 -17 73 3 28 5 58 5 66 -12 330 -16 415 -17
416 -1 1 -14 6 -29 12 -50 20 -99 24 -142 12 -37 -10 -42 -14 -37 -33 4 -12
12 -285 18 -607 12 -646 11 -674 -39 -668 -14 2 -29 10 -33 18 -4 8 -12 25
-19 38 -15 29 -7 42 25 42 37 0 24 24 -14 28 -27 3 -35 -2 -50 -28 -15 -27
-21 -30 -47 -25 -16 3 -34 10 -39 15 -17 17 -30 540 -16 643 9 68 9 91 0 102
-17 20 -10 236 8 258 8 9 11 24 8 35 -3 10 1 62 9 117 11 72 21 109 41 138
l26 40 82 -6 c45 -4 169 -23 276 -42z m3810 13 c0 -13 -5 -86 -11 -163 -6 -77
-14 -251 -17 -387 -4 -135 -10 -250 -14 -253 -4 -4 -23 -4 -44 -1 -33 7 -36 9
-29 34 4 15 6 38 4 52 -1 14 -2 156 -2 315 -1 314 5 359 50 401 34 31 63 32
63 2z m-1686 -73 c0 -79 0 -80 -27 -83 -33 -4 -47 25 -47 97 0 54 14 73 50 69
24 -3 25 -5 24 -83z m-3031 24 c45 -12 48 -25 7 -34 -37 -8 -38 -17 -2 -46
l27 -22 -52 5 c-29 3 -59 11 -68 18 -15 12 -21 71 -8 83 9 10 53 8 96 -4z
m213 -29 c16 -14 2 -40 -22 -40 -7 0 -18 -9 -24 -20 -16 -31 -68 -27 -80 6
-11 27 0 58 22 68 20 8 87 -1 104 -14z m2219 -153 c-91 -179 -142 -267 -157
-267 -23 0 -2 104 32 160 62 102 194 282 198 270 2 -6 -31 -80 -73 -163z
m-2107 120 c4 -20 -25 -34 -40 -19 -15 15 -1 44 19 40 10 -2 19 -11 21 -21z
m4227 -327 c0 -321 -1 -340 -18 -340 -33 0 -74 29 -82 57 -4 15 -9 145 -12
288 l-5 261 48 37 c26 20 52 37 58 37 8 0 11 -102 11 -340z m-2927 261 c2 -13
-1 -28 -6 -33 -7 -7 -7 -20 0 -40 8 -24 7 -33 -8 -49 -15 -16 -16 -23 -6 -37
31 -44 36 -62 20 -79 -15 -14 -17 -13 -29 8 -18 35 -25 224 -9 244 17 21 34
14 38 -14z m117 13 c11 -11 14 -24 9 -38 -4 -12 -8 -37 -9 -56 -3 -57 -4 -60
-20 -60 -12 0 -15 16 -15 85 0 87 6 98 35 69z m-362 -16 c3 -13 7 -111 8 -219
2 -169 0 -200 -15 -220 -15 -22 -15 -25 4 -39 19 -15 19 -15 0 -40 -10 -14
-22 -21 -27 -17 -10 10 -9 443 1 510 8 50 20 61 29 25z m-1401 -8 c21 -6 40
-15 44 -21 3 -6 -11 -26 -32 -45 -29 -27 -45 -34 -68 -32 -27 3 -31 7 -34 35
-4 39 13 73 36 73 9 0 34 -5 54 -10z m1515 -206 c2 -172 4 -197 19 -208 16
-12 15 -15 -6 -44 -13 -17 -26 -29 -30 -27 -9 5 -26 358 -21 430 4 59 9 71 25
55 7 -7 12 -76 13 -206z m-1313 180 c22 -8 20 -21 -4 -27 -14 -3 -20 -14 -20
-31 0 -23 -4 -26 -35 -26 -34 0 -35 1 -35 38 0 21 3 42 7 45 8 9 66 9 87 1z
m156 -24 c0 -20 -40 -82 -57 -87 -16 -6 -26 32 -18 68 10 45 75 62 75 19z
m2183 -29 c-2 -52 -33 -121 -120 -264 -132 -220 -128 -214 -131 -188 -4 29
227 503 243 498 5 -2 9 -23 8 -46z m1862 -125 c8 -150 -1 -307 -19 -332 -12
-15 -14 -15 -29 1 -15 14 -17 42 -17 210 0 184 1 195 20 205 12 6 20 21 20 36
0 14 4 23 9 20 5 -3 12 -66 16 -140z m-2271 -118 c-291 -429 -507 -742 -563
-817 -31 -41 -64 -90 -75 -110 -10 -20 -25 -44 -34 -53 -19 -22 -65 -23 -82
-3 -18 22 -5 46 74 134 41 45 70 88 76 111 7 26 37 68 89 125 93 102 271 355
280 398 5 23 14 32 41 41 30 9 49 33 131 156 56 83 108 150 122 158 14 7 40
30 57 52 69 87 34 30 -116 -192z m-2666 175 c-2 -31 -7 -39 -25 -41 -27 -4
-29 8 -8 48 21 41 37 38 33 -7z m952 -138 l0 -144 -42 -60 c-24 -33 -75 -104
-114 -158 -39 -54 -105 -147 -148 -208 -103 -147 -101 -145 -138 -145 -38 0
-148 30 -148 40 0 4 69 108 153 231 411 601 412 603 428 593 5 -3 9 -70 9
-149z m-203 100 c2 -6 -5 -15 -15 -20 -10 -6 -30 -16 -45 -24 -36 -19 -57 -8
-57 29 l0 31 57 -3 c31 -2 58 -8 60 -13z m2993 -91 c20 -60 -3 -59 -39 1 l-20
35 24 0 c18 0 26 -8 35 -36z m-3171 -18 c24 -28 -13 -66 -64 -66 -25 0 -27 3
-20 27 4 16 11 34 17 40 14 17 53 16 67 -1z m139 -18 c6 -54 -76 -77 -86 -24
-6 26 28 57 57 54 20 -2 27 -10 29 -30z m3152 13 c13 -25 13 -201 0 -221 -9
-13 -11 -13 -20 0 -5 8 -7 28 -4 43 3 15 0 59 -7 96 -12 69 -9 101 10 101 6 0
15 -9 21 -19z m-799 -33 c3 -79 -2 -113 -26 -166 -25 -55 -174 -309 -207 -351
-16 -21 -18 -22 -24 -6 -15 37 16 141 76 260 94 187 160 305 170 305 6 0 11
-19 11 -42z m918 -136 c-1 -168 -8 -227 -23 -203 -5 8 -11 90 -14 184 -4 135
-2 171 9 177 7 5 17 6 21 4 4 -3 7 -76 7 -162z m3497 106 c83 -89 254 -312
254 -332 0 -9 -184 -2 -267 10 -39 6 -42 9 -48 47 -7 39 1 225 11 280 7 35 13
34 50 -5z m-3096 -53 c412 -44 420 -46 420 -85 0 -38 -51 -61 -189 -85 -69
-12 -522 -75 -539 -75 -10 0 4 248 15 262 10 12 26 13 75 7 35 -4 133 -15 218
-24z m-3850 6 c14 -6 33 -17 44 -23 15 -10 19 -10 23 0 5 14 43 17 43 3 0 -6
-10 -22 -23 -36 -22 -26 -25 -27 -100 -20 l-77 7 0 38 c0 20 3 40 7 44 9 9 46
3 83 -13z m2904 -154 c-9 -45 -33 -89 -44 -82 -15 9 -12 35 10 83 22 49 45 48
34 -1z m-2904 8 c25 -30 -31 -66 -70 -45 -19 10 -27 40 -13 53 12 13 71 7 83
-8z m2783 0 c17 -16 11 -58 -7 -52 -11 3 -22 67 -12 67 2 0 11 -7 19 -15z
m2642 -35 c149 -16 278 -30 287 -30 9 0 29 -11 43 -24 32 -30 92 -44 249 -56
84 -7 138 -7 176 1 105 21 148 21 321 0 96 -11 284 -32 419 -45 135 -14 281
-32 325 -41 44 -8 156 -20 249 -27 155 -11 171 -14 198 -36 38 -32 106 -52
206 -59 76 -5 86 -4 113 16 26 20 39 22 87 17 391 -42 882 -97 901 -101 13 -3
21 -8 19 -11 -7 -6 -138 -29 -283 -48 -66 -9 -329 -48 -585 -86 -256 -38 -492
-72 -525 -75 -33 -4 -78 -11 -100 -15 -22 -5 -128 -20 -235 -35 -107 -14 -256
-37 -330 -50 -74 -13 -209 -34 -300 -45 -91 -11 -250 -34 -355 -50 -104 -17
-264 -42 -355 -55 -91 -14 -208 -32 -260 -40 -370 -59 -1262 -185 -1305 -185
-30 0 -66 -5 -81 -10 -42 -16 -395 -76 -654 -110 -129 -17 -359 -49 -510 -71
-238 -35 -291 -40 -390 -35 -143 6 -157 10 -164 47 -3 16 -8 42 -12 58 -8 44
-68 107 -130 137 -42 20 -76 29 -134 32 l-78 4 -38 -42 c-57 -62 -72 -89 -90
-150 -20 -68 -48 -100 -87 -100 -16 0 -63 9 -105 19 -43 11 -230 52 -417 91
-187 39 -439 94 -560 122 -121 27 -301 67 -400 88 -99 21 -247 55 -330 74
-288 67 -631 145 -732 165 -57 11 -138 29 -180 40 -43 11 -170 40 -283 65
-113 25 -374 85 -580 135 -206 49 -433 102 -505 116 -72 15 -134 31 -138 35
-16 14 21 30 94 40 41 5 268 28 504 50 237 22 495 47 575 56 173 19 202 13
198 -38 -1 -17 3 -33 9 -35 7 -3 33 -20 59 -40 59 -45 131 -73 189 -73 24 0
65 -7 91 -16 33 -11 49 -13 57 -5 12 12 78 15 113 5 18 -5 22 -16 28 -67 3
-34 12 -68 20 -75 40 -40 297 -86 354 -63 15 6 56 15 92 20 36 6 108 19 160
31 53 11 108 17 125 14 16 -4 48 -26 72 -50 31 -32 50 -44 71 -44 16 0 41 -9
55 -21 15 -11 54 -25 89 -30 35 -6 86 -17 113 -24 28 -8 61 -16 75 -17 23 -3
25 -7 28 -65 3 -72 13 -83 86 -99 28 -7 105 -24 171 -38 l120 -27 100 20 c55
12 393 61 750 111 1177 164 1360 190 1395 201 19 6 47 23 63 37 22 21 27 34
27 74 0 55 7 60 95 72 28 4 134 20 236 37 102 16 327 47 500 69 439 56 512 72
563 129 21 23 23 64 10 199 l-6 62 43 0 c24 0 166 -14 314 -30z m-4015 -30 c0
-10 -10 -30 -22 -45 -19 -24 -22 -25 -31 -10 -6 11 -5 21 2 28 6 6 11 27 11
46 0 33 0 34 20 16 11 -10 20 -26 20 -35z m1120 -43 l0 -83 -84 -134 c-100
-160 -134 -197 -165 -181 -12 7 -21 21 -21 32 0 30 244 449 262 449 4 0 8 -37
8 -83z m6380 -125 c44 -57 77 -109 74 -114 -11 -17 -144 -3 -196 20 l-48 21 0
124 c0 68 3 127 8 131 9 10 60 -48 162 -182z m-4371 122 c119 -30 218 -58 220
-60 14 -14 -37 -26 -234 -54 -549 -78 -949 -138 -971 -147 -19 -7 -20 165 -1
191 11 15 54 24 233 47 315 41 485 66 491 73 13 12 52 5 262 -50z m-1551 10
c3 -34 -11 -60 -27 -50 -12 8 -15 68 -4 80 13 13 28 -1 31 -30z m-2558 5 c0
-30 -74 -129 -97 -129 -24 0 -13 27 33 84 45 55 64 68 64 45z m-2742 -111 c86
-32 91 -80 12 -112 -68 -27 -205 -15 -252 23 -21 18 -21 19 -5 54 20 42 29 49
77 57 48 9 105 1 168 -22z m5182 -110 c-6 -21 -16 -38 -22 -38 -15 0 -5 105
13 126 13 16 14 14 17 -17 2 -19 -1 -51 -8 -71z m6483 82 c81 -18 118 -52 97
-91 -39 -72 -260 -62 -260 12 0 30 74 102 97 95 10 -3 40 -10 66 -16z m-9053
-42 c-1 -31 -33 -99 -56 -120 -11 -9 -38 -20 -62 -24 -50 -8 -62 8 -38 54 23
45 40 52 31 12 -4 -18 -3 -30 1 -28 5 3 24 11 41 18 22 10 31 20 28 30 -5 17
30 80 45 80 5 0 10 -10 10 -22z m4580 12 c-27 -18 -111 -39 -199 -50 -141 -18
-557 -79 -681 -100 -153 -26 -333 -50 -374 -50 -34 0 -56 24 -39 41 4 4 76 17
158 29 83 11 188 27 235 35 47 8 121 19 165 24 182 22 394 52 460 65 82 17
298 21 275 6z m-1915 -128 c-10 -10 -25 21 -25 51 0 16 6 38 13 50 11 20 12
16 15 -37 2 -32 0 -61 -3 -64z m-440 19 c-9 -56 -24 -88 -63 -124 -25 -24 -33
-27 -51 -18 -12 7 -21 15 -21 19 0 26 118 184 131 176 7 -4 8 -24 4 -53z
m-2210 -115 c-21 -43 -54 -71 -69 -56 -11 11 7 49 42 87 33 36 50 17 27 -31z
m1485 -21 c0 -25 -4 -45 -10 -45 -11 0 -14 73 -3 83 11 12 13 8 13 -38z
m-1904 12 c65 -22 70 -26 92 -72 13 -26 22 -49 20 -50 -9 -8 -150 19 -185 36
-48 23 -59 45 -42 83 15 32 27 32 115 3z m294 10 c0 -21 -58 -97 -74 -97 -18
0 -27 26 -20 56 10 38 94 75 94 41z m1945 -6 c0 -8 -8 -19 -17 -25 -22 -13
-41 3 -32 28 8 20 49 18 49 -3z m1045 -1 c7 -13 21 -20 41 -20 17 0 28 -4 25
-9 -7 -10 -174 -36 -182 -28 -3 3 9 21 26 41 36 41 73 47 90 16z m6018 -27 c3
-29 0 -33 -21 -33 -31 0 -88 19 -106 36 -12 11 -10 14 10 18 96 21 113 18 117
-21z m262 -8 c0 -75 -84 -110 -157 -65 -53 32 -42 42 42 34 65 -6 75 -5 75 9
0 15 -53 37 -92 37 -9 0 -20 5 -23 10 -4 6 23 10 74 10 l81 0 0 -35z m-6450
15 c13 -9 11 -14 -13 -35 -34 -30 -67 -33 -67 -6 0 19 34 51 55 51 5 0 17 -5
25 -10z m-145 -10 c10 -16 -55 -71 -79 -68 -16 2 -21 10 -21 32 0 24 4 29 29
32 15 1 31 5 34 8 9 9 30 7 37 -4z m6198 -44 c128 -47 137 -52 137 -81 0 -22
-4 -25 -32 -25 -52 1 -353 103 -353 120 0 41 118 34 248 -14z m-5495 -7 c22
-8 23 -12 11 -24 -30 -29 -300 -81 -759 -144 -118 -17 -244 -35 -280 -40 -36
-6 -112 -16 -170 -22 -58 -6 -202 -23 -320 -39 -312 -42 -680 -83 -686 -77 -3
3 -3 15 1 26 13 42 62 58 295 95 288 45 644 94 785 107 61 5 306 38 545 74
436 64 510 70 578 44z m5157 -15 c28 -9 144 -44 258 -79 114 -34 211 -66 215
-69 22 -23 -126 -51 -229 -44 -51 3 -125 21 -239 57 -201 64 -324 111 -315
119 30 31 230 41 310 16z m-6605 -36 c0 -7 -9 -24 -19 -37 -15 -19 -30 -25
-76 -29 -56 -5 -57 -4 -46 17 23 41 141 83 141 49z m145 -8 c0 -20 -69 -53
-95 -45 -24 8 -25 22 -3 47 21 24 98 22 98 -2z m6135 -19 c62 -31 291 -111
418 -147 27 -8 9 -23 -38 -33 -104 -22 -160 -15 -328 43 -87 30 -173 60 -192
67 -146 51 -183 73 -138 84 40 9 132 23 165 24 18 1 65 -15 113 -38z m-6472
17 c-7 -20 -71 -66 -102 -74 -40 -10 -27 8 37 51 54 37 71 43 65 23z m7432
-13 c72 -9 102 -28 98 -63 -3 -26 -5 -27 -58 -26 -61 1 -114 23 -130 55 -15
27 -5 52 17 45 10 -2 43 -8 73 -11z m-1296 -30 c3 -13 14 -29 24 -34 24 -13
787 -268 912 -305 124 -37 192 -66 187 -80 -5 -15 -121 -44 -178 -45 -44 -1
-134 21 -173 41 -19 10 -19 11 3 27 21 16 19 17 -51 17 -76 0 -156 23 -293 84
-33 15 -79 30 -101 33 -22 4 -73 20 -113 37 -40 16 -161 62 -269 101 -219 80
-258 97 -246 109 12 11 175 37 240 39 47 1 52 -1 58 -24z m-6417 -35 c-54 -34
-90 -40 -85 -12 4 19 57 41 102 41 29 1 28 0 -17 -29z m6245 -99 c275 -103
338 -130 338 -142 0 -9 -29 -15 -123 -28 -113 -16 -136 -10 -497 129 -209 80
-268 109 -225 111 11 0 52 7 90 14 127 24 134 23 417 -84z m-6716 22 l112 -27
6 -35 c12 -73 9 -84 -21 -78 -226 42 -216 37 -226 120 -5 34 -3 47 6 47 6 0
62 -12 123 -27z m8193 13 c40 -8 78 -20 83 -28 11 -16 4 -96 -10 -110 -11 -11
-90 3 -147 26 -33 14 -35 17 -35 64 0 70 -3 69 109 48z m-2039 -23 c25 -11 65
-37 90 -58 51 -43 134 -83 250 -120 95 -29 100 -30 100 -10 0 20 33 19 72 -1
43 -22 27 -29 -108 -48 -142 -20 -201 -11 -359 55 -66 28 -124 55 -129 60 -6
5 -20 9 -32 9 -13 0 -26 5 -29 10 -3 6 -1 10 4 10 24 0 8 17 -49 53 -33 20
-60 41 -60 46 0 28 185 23 250 -6z m1873 -27 c3 -8 3 -17 0 -20 -16 -16 -99 7
-88 24 10 16 82 12 88 -4z m-2240 -40 c56 -24 180 -73 276 -110 196 -75 214
-84 206 -95 -2 -5 -41 -14 -85 -21 l-79 -12 -93 45 c-51 25 -156 69 -233 97
-77 29 -157 61 -177 71 -51 26 -98 25 -105 -1 -7 -26 -24 -25 -57 1 -34 27
-25 39 27 39 23 1 67 7 97 15 87 21 114 18 223 -29z m2121 -7 c105 -31 123
-43 121 -76 -1 -15 -3 -40 -3 -55 -1 -16 -8 -28 -14 -28 -32 0 -418 134 -415
144 5 16 92 34 171 35 44 1 95 -7 140 -20z m-2503 -52 c102 -47 147 -65 314
-125 167 -61 191 -72 174 -83 -44 -27 -192 1 -382 75 -62 23 -173 62 -247 87
-74 24 -134 49 -133 54 2 12 91 33 144 34 23 1 70 -15 130 -42z m-134 -98
c164 -55 316 -106 337 -112 57 -18 56 -34 -1 -42 -26 -4 -61 -11 -77 -16 -49
-15 -119 -10 -192 15 -111 38 -457 177 -479 192 -11 8 -30 14 -42 14 -50 0
-19 19 50 30 76 12 101 17 104 19 1 0 136 -44 300 -100z m-502 10 c121 -36
545 -193 545 -200 0 -11 -23 -17 -138 -34 -119 -18 -116 -18 -327 56 -131 47
-425 159 -434 166 -10 7 10 15 75 28 86 18 188 12 279 -16z m2570 -28 c55 -20
99 -41 98 -46 -3 -14 -80 -23 -201 -24 -98 -1 -108 1 -188 35 -46 20 -84 40
-84 45 0 4 16 11 35 15 155 29 202 25 340 -25z m-2918 -40 c57 -22 167 -63
245 -90 267 -91 294 -104 241 -115 -66 -13 -161 -26 -197 -26 -44 0 -284 78
-356 115 -25 13 -61 26 -80 29 -41 8 -221 74 -234 86 -12 12 7 19 101 35 109
20 163 13 280 -34z m2454 19 c70 -13 201 -62 206 -76 4 -13 -44 -26 -175 -48
l-82 -14 -113 38 c-61 21 -124 43 -139 50 -49 23 -43 26 97 54 41 8 153 6 206
-4z m-2874 -43 c7 -15 32 -32 67 -47 31 -12 56 -26 56 -31 0 -4 -18 -14 -40
-20 -22 -7 -40 -18 -40 -25 0 -23 -47 -27 -120 -10 -80 18 -209 69 -243 96
l-22 18 26 7 c54 13 196 33 250 34 49 1 57 -2 66 -22z m2042 7 c3 -3 -1 -10
-7 -16 -9 -9 -22 -7 -54 10 l-43 22 50 -6 c28 -4 52 -8 54 -10z m515 -59 c71
-24 131 -47 134 -50 11 -11 -11 -17 -142 -37 l-136 -21 -118 38 c-127 41 -172
60 -172 75 0 6 15 10 33 10 17 1 61 7 97 14 118 24 163 20 304 -29z m1065 18
c81 -26 75 -31 -77 -59 -80 -15 -100 -16 -145 -4 -159 40 -126 77 69 79 69 1
118 -4 153 -16z m-3999 -34 c64 -30 100 -55 100 -69 0 -13 -86 -30 -145 -30
-42 0 -83 10 -161 41 -57 22 -104 44 -104 49 0 5 24 13 53 19 145 28 179 27
257 -10z m4398 -11 c3 -24 0 -28 -22 -28 -36 0 -78 18 -71 31 10 15 46 29 70
26 14 -1 21 -11 23 -29z m-6828 7 c16 -20 6 -43 -25 -55 -30 -11 -33 -39 -7
-70 32 -40 97 -4 111 61 7 35 18 44 40 30 23 -15 16 -63 -12 -87 -46 -40 -198
-45 -252 -10 -64 42 -1 146 89 146 26 0 48 -6 56 -15z m4935 -25 c33 -12 81
-29 107 -38 172 -62 -45 -64 -243 -2 -120 37 -117 75 6 67 39 -3 97 -15 130
-27z m-2882 -14 c81 -30 167 -74 167 -85 0 -4 -46 -11 -102 -14 -102 -5 -104
-5 -205 34 -94 37 -122 53 -111 64 6 7 108 22 150 24 21 0 66 -10 101 -23z
m1158 -52 c93 -30 169 -59 169 -64 0 -14 -141 -35 -240 -34 -85 0 -105 4 -195
38 -136 52 -137 53 -98 66 17 6 39 23 48 37 16 24 20 25 82 19 35 -4 140 -31
234 -62z m-1449 0 c105 -47 134 -65 116 -74 -7 -4 -49 -12 -94 -19 -79 -11
-83 -11 -160 18 -135 49 -158 61 -148 71 8 8 92 25 196 39 4 1 44 -15 90 -35z
m3991 -15 c53 -16 97 -34 97 -39 0 -6 -1 -10 -3 -10 -2 0 -53 -9 -113 -20 -60
-11 -124 -20 -143 -20 -54 0 -251 63 -238 77 14 13 225 51 262 46 22 -2 84
-18 138 -34z m-4270 -54 c48 -21 87 -42 87 -46 0 -11 -26 -18 -85 -25 -58 -7
-115 8 -222 58 -95 45 -82 58 52 54 68 -2 93 -8 168 -41z m1242 34 c69 -18
235 -81 235 -89 0 -7 -137 -40 -169 -40 -18 0 -278 94 -289 104 -25 25 150 45
223 25z m1304 -54 c143 -48 170 -60 159 -70 -3 -4 -64 -16 -134 -27 l-129 -20
-69 22 c-88 28 -238 91 -232 97 7 7 197 41 235 42 19 1 96 -19 170 -44z
m-2834 -18 c61 -24 109 -47 108 -52 -3 -16 -93 -37 -168 -38 -64 -2 -78 2
-167 45 -54 26 -98 51 -98 56 0 13 83 29 155 30 48 1 82 -7 170 -41z m1269 1
c122 -41 178 -66 172 -77 -3 -5 -50 -14 -103 -21 l-98 -12 -109 41 c-112 42
-162 68 -152 79 13 13 123 30 161 26 22 -3 80 -19 129 -36z m1201 -47 c108
-41 134 -55 123 -67 -4 -3 -55 -14 -114 -24 -77 -13 -117 -15 -143 -8 -76 20
-281 90 -286 98 -7 11 20 19 114 36 115 20 180 13 306 -35z m-2877 24 c78 -18
165 -63 170 -87 4 -21 -54 -39 -129 -40 -42 -1 -67 7 -157 53 -58 30 -108 59
-110 66 -7 25 130 30 226 8z m1386 -39 c60 -25 113 -49 119 -55 13 -13 -58
-32 -127 -32 -60 -1 -90 7 -216 58 -99 41 -112 50 -79 58 132 32 163 29 303
-29z m-1608 -40 c63 -30 114 -60 114 -65 0 -21 -116 -12 -185 14 -68 25 -175
84 -175 97 0 12 33 17 84 13 32 -3 87 -23 162 -59z m1195 25 c136 -47 219 -83
219 -96 0 -18 -75 -29 -149 -22 -59 5 -195 56 -233 87 l-22 18 49 15 c67 20
73 20 136 -2z m1667 -94 c166 -55 302 -104 302 -108 0 -13 -35 -21 -125 -26
l-90 -6 -195 65 c-262 87 -400 138 -400 149 0 16 121 39 170 32 19 -3 171 -50
338 -106z m-3227 93 c20 -11 25 -45 10 -69 -7 -11 -20 -7 -67 22 -56 36 -57
40 -9 50 35 8 46 7 66 -3z m4238 -40 c76 -23 98 -35 83 -44 -6 -3 -72 -16
-148 -28 -130 -21 -141 -21 -198 -6 -85 23 -176 58 -176 68 0 17 87 28 229 29
117 1 156 -3 210 -19z m-2877 -35 c126 -55 136 -61 123 -74 -17 -16 -176 -43
-216 -37 -42 7 -223 88 -233 104 -9 15 6 22 87 37 113 20 129 18 239 -30z
m1517 -64 c173 -59 316 -112 318 -118 6 -17 -130 -36 -198 -29 -81 10 -173 37
-398 117 -223 81 -237 87 -224 100 10 10 132 37 168 37 11 1 161 -48 334 -107z
m-2957 49 c88 -56 112 -86 102 -124 -8 -34 -25 -33 -98 8 -99 56 -140 106
-122 151 9 25 38 17 118 -35z m257 19 c31 -17 70 -44 86 -59 19 -17 47 -30 75
-34 86 -13 223 -97 205 -125 -3 -6 -37 -11 -76 -11 -65 0 -76 3 -197 66 -177
90 -200 114 -177 182 7 19 23 15 84 -19z m853 -66 c65 -31 118 -60 118 -64 0
-11 -94 -29 -153 -29 -38 0 -81 12 -161 45 -61 24 -116 51 -124 59 -13 13 -11
15 19 20 68 12 144 24 163 25 11 0 73 -24 138 -56z m1323 7 c61 -24 193 -71
294 -105 101 -35 188 -68 193 -73 13 -13 -89 -35 -162 -34 -41 0 -88 12 -180
47 -69 26 -177 65 -240 87 -178 63 -222 90 -167 103 61 15 114 23 132 20 11
-1 70 -22 130 -45z m1475 25 c106 -42 105 -44 -44 -70 -67 -11 -98 -12 -128
-4 -64 17 -200 71 -194 77 12 12 86 20 192 21 96 1 119 -2 174 -24z m-3094
-83 c58 -26 107 -52 108 -57 0 -6 -32 -14 -72 -19 l-73 -9 -107 54 c-58 30
-108 59 -110 66 -4 16 32 22 96 17 34 -3 89 -21 158 -52z m1435 -36 c329 -118
351 -126 346 -139 -2 -7 -55 -20 -117 -31 l-114 -18 -80 32 c-77 31 -274 117
-415 181 -89 41 -69 53 85 57 53 2 90 -8 295 -82z m-533 29 c34 -7 444 -170
500 -199 60 -31 49 -36 -129 -61 -133 -18 -150 -15 -291 56 -43 22 -82 39 -87
39 -6 0 -26 10 -44 23 -19 13 -70 36 -113 51 -120 42 -131 58 -56 75 69 16
155 29 172 25 8 -1 30 -6 48 -9z m-1753 -45 c33 -22 64 -40 69 -40 22 0 66
-55 66 -82 0 -41 -23 -36 -114 25 -87 57 -120 94 -110 120 9 25 22 21 89 -23z
m320 -14 c28 -16 58 -36 68 -45 18 -15 18 -16 0 -22 -50 -20 -167 -4 -185 24
-11 17 -10 55 2 77 12 22 28 18 115 -34z m1158 -23 c98 -44 119 -59 97 -73
-34 -21 -120 -32 -172 -21 -68 15 -224 89 -212 100 10 11 109 28 167 30 24 1
68 -12 120 -36z m2527 -22 c174 -55 249 -82 255 -91 3 -4 -11 -11 -30 -14 -19
-4 -35 -12 -35 -17 0 -6 12 -8 28 -5 75 15 122 17 160 6 23 -6 42 -15 42 -19
0 -11 -156 -35 -226 -36 -28 0 -66 7 -85 17 -19 9 -122 44 -229 77 -209 64
-290 95 -290 110 0 16 31 20 155 17 110 -2 131 -6 255 -45z m-2845 -21 c69
-23 137 -60 142 -77 6 -18 -64 -36 -123 -31 -38 3 -82 19 -149 52 -52 26 -95
51 -95 56 0 5 12 12 28 16 15 3 32 7 37 10 19 7 100 -6 160 -26z m2553 -52
c116 -38 212 -73 212 -78 0 -4 -16 -11 -35 -14 -69 -13 -33 -24 58 -19 59 4
101 2 113 -5 24 -14 18 -16 -107 -36 -113 -19 -195 -21 -205 -5 -9 15 14 29
49 29 15 0 27 4 27 9 0 5 -53 9 -117 8 l-118 -1 -147 56 c-80 31 -163 65 -185
76 -37 20 -37 20 -13 26 14 3 52 12 85 20 88 23 144 13 383 -66z m-2882 28
c76 -26 189 -80 199 -95 6 -11 -8 -15 -87 -30 -39 -7 -60 -4 -110 14 -72 25
-204 90 -212 104 -7 10 59 28 110 30 17 1 62 -10 100 -23z m-820 -44 c99 -65
152 -142 108 -159 -43 -16 -190 69 -207 120 -11 33 4 77 26 77 8 0 40 -17 73
-38z m619 -26 c50 -25 99 -51 110 -59 18 -14 17 -16 -25 -27 -25 -7 -74 -10
-110 -8 -58 3 -73 9 -138 51 l-74 48 44 24 c54 31 77 27 193 -29z m1172 -1
c72 -35 113 -59 107 -65 -11 -11 -131 -30 -194 -30 -32 0 -69 12 -137 45 -51
25 -93 52 -93 59 0 8 14 16 33 19 17 3 50 10 72 15 72 17 95 13 212 -43z
m1408 29 c133 -27 337 -106 319 -123 -5 -5 -60 -19 -122 -31 l-113 -22 -87 31
c-130 46 -314 126 -313 137 0 17 104 33 176 27 39 -3 102 -11 140 -19z m-1716
-82 c52 -26 94 -51 94 -57 -2 -14 -89 -36 -148 -38 -58 -1 -121 27 -154 69
-27 34 -23 46 20 61 57 20 90 14 188 -35z m-318 -33 c35 -12 86 -32 114 -46
44 -23 47 -27 29 -33 -40 -15 -172 -31 -200 -24 -47 11 -164 75 -164 90 0 35
130 43 221 13z m2498 -48 c11 -7 4 -12 -25 -20 -56 -14 -187 -31 -245 -31
-102 0 -28 23 171 53 48 8 85 7 99 -2z"/>
<path d="M2272 2378 c-21 -21 -14 -48 12 -48 30 0 72 33 62 48 -9 16 -59 15
-74 0z"/>
<path d="M3227 3423 c-3 -5 -5 -44 -6 -88 -1 -44 -5 -138 -11 -210 -17 -236
-22 -546 -11 -685 9 -123 24 -200 38 -200 3 0 17 12 30 26 24 26 24 27 5 48
-15 16 -19 36 -19 91 -1 39 4 75 9 82 7 8 5 20 -6 35 -21 29 -20 65 1 76 15 9
14 12 -5 36 -20 26 -20 47 1 74 6 8 6 16 -1 25 -14 17 -17 47 -9 80 4 15 3 36
-2 46 -8 13 -5 28 8 54 16 31 16 38 5 48 -20 17 -17 37 8 50 19 10 20 13 7 23
-29 22 -30 46 -2 72 24 23 25 25 10 42 -23 25 -24 154 -2 172 17 14 20 62 5
91 -11 19 -44 26 -53 12z"/>
<path d="M3606 3371 c-4 -5 4 -26 16 -46 21 -36 22 -55 36 -544 15 -535 15
-541 61 -541 14 0 17 12 16 73 0 39 -6 81 -12 91 -8 14 -8 26 0 43 8 19 7 30
-6 53 -21 35 -21 55 0 91 16 27 16 29 -2 49 -17 19 -17 21 -2 38 22 24 21 34
-3 50 -29 18 -27 72 5 102 28 27 32 40 10 40 -23 0 -38 68 -30 141 3 35 6 93
6 128 -1 35 4 70 10 77 9 10 7 23 -5 48 -9 19 -16 43 -16 53 0 33 -70 78 -84
54z"/>
<path d="M3795 3300 c-3 -5 -3 -20 1 -33 5 -12 9 -44 9 -72 6 -231 39 -762 48
-772 27 -26 32 100 12 252 -21 151 -16 301 9 341 15 22 15 27 1 54 -17 33 -20
76 -5 85 7 4 6 14 -2 28 -6 12 -16 44 -22 72 -11 48 -35 70 -51 45z"/>
<path d="M3667 2193 c-4 -3 -7 -15 -7 -25 0 -22 23 -24 41 -2 10 13 10 17 -2
25 -17 11 -24 11 -32 2z"/>
<path d="M620 2066 c14 -12 615 -147 720 -161 87 -12 16 12 -170 58 -102 25
-216 53 -255 63 -139 34 -241 54 -275 54 -30 0 -32 -2 -20 -14z"/>
<path d="M602 1908 c3 -19 13 -24 73 -36 77 -15 771 -176 955 -222 63 -16 288
-68 500 -115 212 -48 549 -125 748 -171 200 -47 441 -98 535 -115 95 -16 187
-33 204 -36 l33 -6 -16 32 c-12 23 -22 31 -42 31 -21 0 -24 -2 -12 -10 13 -8
12 -10 -3 -10 -20 0 -289 66 -446 111 -58 16 -117 29 -133 29 -16 0 -113 20
-216 45 -103 24 -406 94 -674 155 -268 60 -655 151 -860 201 -429 104 -587
139 -624 139 -21 0 -25 -4 -22 -22z"/>
<path d="M665 1524 c17 -13 219 -81 298 -99 29 -8 36 5 13 24 -26 22 -248 91
-290 91 -39 -1 -40 -2 -21 -16z"/>
<path d="M1206 1500 c21 -21 454 -122 454 -106 0 13 -49 28 -240 71 -222 49
-229 50 -214 35z"/>
<path d="M9470 1411 c0 -8 59 -32 168 -66 23 -8 42 -10 42 -5 0 5 -12 13 -27
16 -16 4 -50 17 -78 29 -63 28 -105 38 -105 26z"/>
<path d="M1360 1372 c0 -29 96 -57 595 -177 528 -127 1021 -244 1180 -280 83
-18 236 -54 340 -80 436 -106 699 -165 712 -161 23 9 14 33 -19 49 -18 8 -134
38 -258 67 -409 94 -693 159 -820 190 -69 16 -291 68 -495 115 -203 48 -543
129 -755 181 -409 100 -480 114 -480 96z"/>
<path d="M9950 1294 c0 -32 672 -235 697 -210 13 13 -14 24 -119 50 -58 15
-173 49 -255 77 -242 82 -323 103 -323 83z"/>
<path d="M3687 1226 c-3 -8 0 -19 6 -24 16 -13 375 -87 492 -101 50 -6 108
-16 130 -21 22 -5 54 -9 70 -9 22 0 13 5 -35 20 -103 30 -607 149 -634 149
-13 0 -26 -6 -29 -14z"/>
<path d="M10865 1231 c-3 -5 -2 -12 2 -14 19 -12 215 -68 220 -63 9 9 -60 46
-126 66 -71 22 -87 24 -96 11z"/>
<path d="M11484 1233 c4 -4 30 -15 59 -24 29 -9 60 -20 70 -24 10 -4 17 -3 17
4 0 5 -30 19 -66 31 -69 21 -92 25 -80 13z"/>
<path d="M2605 1160 c90 -30 304 -83 550 -135 121 -26 257 -58 303 -71 45 -13
90 -24 100 -24 9 -1 35 -8 57 -16 22 -9 54 -18 70 -20 50 -5 89 -16 109 -30
12 -8 25 -10 35 -5 9 5 42 5 74 0 218 -35 239 -25 45 20 -529 123 -683 160
-908 218 -203 53 -271 67 -335 68 -44 1 -98 4 -120 8 -31 5 -26 2 20 -13z"/>
<path d="M11170 1125 c29 -15 100 -30 100 -21 0 12 -68 36 -97 36 l-28 -1 25
-14z"/>
<path d="M3590 1111 c0 -16 99 -47 270 -85 91 -20 254 -58 363 -83 108 -25
200 -43 203 -40 10 9 -6 27 -23 27 -9 0 -189 43 -400 95 -212 52 -391 95 -399
95 -8 0 -14 -4 -14 -9z"/>
<path d="M11017 1100 c-50 -9 -59 -20 -16 -20 43 0 79 10 79 21 0 10 -8 10
-63 -1z"/>
<path d="M1237 1070 c17 -18 115 -42 126 -31 9 9 -23 21 -103 36 -28 6 -33 4
-23 -5z"/>
<path d="M9410 1062 c0 -9 29 -26 73 -42 26 -9 40 3 15 13 -7 3 -30 12 -50 21
-21 9 -38 12 -38 8z"/>
<path d="M9544 1012 c8 -13 105 -46 113 -38 7 6 -46 30 -92 42 -19 5 -26 3
-21 -4z"/>
<path d="M1766 920 c5 -5 42 -21 80 -34 72 -25 492 -141 574 -158 152 -32 325
-73 385 -93 86 -28 164 -42 150 -27 -9 10 -188 63 -309 91 -27 7 -77 24 -110
38 -121 51 -660 193 -732 193 -32 0 -45 -3 -38 -10z"/>
<path d="M5515 679 c-14 -22 221 -122 344 -145 42 -8 166 -32 276 -54 452 -88
769 -131 750 -100 -3 6 -22 10 -41 10 -69 0 -367 51 -557 94 -106 25 -228 51
-272 60 -44 8 -117 22 -162 31 -45 8 -126 34 -180 56 -121 51 -151 60 -158 48z"/>
<path d="M2980 599 c0 -5 2 -9 4 -9 1 0 54 -13 117 -29 159 -41 169 -42 169
-33 0 11 -77 33 -204 61 -47 11 -86 15 -86 10z"/>
<path d="M3512 599 c6 -20 58 -35 248 -75 169 -36 344 -55 325 -36 -5 5 -41
15 -80 21 -38 7 -146 30 -240 51 -224 52 -259 57 -253 39z"/>
<path d="M6773 539 c41 -24 281 -58 314 -44 16 6 15 8 -7 17 -31 11 -230 38
-284 38 -34 -1 -38 -2 -23 -11z"/>
<path d="M3380 507 c0 -10 125 -47 158 -47 51 0 30 16 -40 29 -35 6 -75 14
-90 17 -16 3 -28 3 -28 1z"/>
<path d="M5070 441 c0 -13 77 -61 97 -61 13 1 8 10 -21 35 -37 33 -76 46 -76
26z"/>
</g>
</svg>
