<?xml version="1.0" standalone="no"?>
<!DOCTYPE svg PUBLIC "-//W3C//DTD SVG 20010904//EN"
 "http://www.w3.org/TR/2001/REC-SVG-20010904/DTD/svg10.dtd">
<svg version="1.0" xmlns="http://www.w3.org/2000/svg"
 width="640.000000pt" height="1280.000000pt" viewBox="0 0 640.000000 1280.000000"
 preserveAspectRatio="xMidYMid meet">
<metadata>
Created by potrace 1.15, written by Peter Selinger 2001-2017
</metadata>
<g transform="translate(0.000000,1280.000000) scale(0.100000,-0.100000)"
fill="#000000" stroke="none">
<path d="M3673 12780 c-17 -10 -37 -28 -42 -39 -17 -31 -13 -140 8 -213 l18
-68 -25 -50 c-23 -48 -24 -54 -14 -123 11 -73 10 -416 -2 -435 -4 -6 3 -35 14
-64 23 -62 25 -113 5 -148 -17 -30 -19 -84 -4 -112 9 -17 8 -28 -6 -55 -16
-30 -17 -39 -5 -88 10 -43 11 -77 2 -166 -7 -61 -16 -117 -22 -124 -16 -20 -4
-252 15 -281 14 -22 14 -26 0 -47 -21 -33 -21 -56 0 -187 13 -86 24 -123 42
-147 22 -30 23 -36 12 -78 -9 -35 -9 -71 1 -156 8 -64 9 -114 4 -119 -5 -4
-106 0 -224 11 -236 20 -429 24 -560 10 -47 -5 -128 -12 -179 -16 l-95 -7 37
41 c20 23 37 43 37 46 0 2 -7 23 -16 45 -16 39 -18 40 -53 34 -20 -4 -50 -15
-67 -25 -18 -11 -50 -19 -76 -19 -90 0 -106 -8 -196 -101 -117 -122 -175 -147
-272 -118 -35 11 -41 9 -72 -14 -19 -15 -55 -35 -80 -47 -44 -19 -49 -19 -147
-5 -71 11 -107 12 -120 5 -11 -5 -66 -53 -123 -106 -127 -117 -181 -154 -281
-189 -62 -22 -84 -35 -105 -64 -14 -20 -49 -60 -76 -90 -41 -43 -44 -50 -19
-32 18 12 49 43 69 69 68 85 102 103 124 62 22 -41 -100 -140 -308 -248 -108
-56 -122 -48 -25 14 51 33 74 56 33 34 -25 -13 -25 -9 -1 38 32 63 106 137
227 227 102 76 117 92 145 148 17 34 45 77 61 96 55 62 56 113 3 141 -22 12
-33 4 -164 -109 -78 -67 -153 -139 -169 -159 -53 -72 -128 -138 -199 -175 -94
-49 -143 -106 -223 -258 -58 -112 -74 -133 -162 -219 -53 -52 -102 -108 -108
-123 -5 -16 -10 -53 -10 -83 0 -52 2 -56 35 -75 43 -25 44 -33 6 -49 -29 -12
-30 -13 -34 -108 -2 -54 -11 -162 -20 -242 -17 -165 -32 -207 -123 -350 -30
-48 -62 -109 -70 -136 -26 -85 -13 -181 22 -167 13 5 16 2 11 -9 -27 -71 -30
-102 -19 -171 7 -42 8 -87 4 -107 -5 -19 -8 -105 -7 -192 1 -127 5 -161 18
-182 18 -27 70 -46 126 -46 28 0 32 -3 26 -17 -4 -10 -11 -67 -16 -128 -10
-118 -20 -154 -50 -181 -27 -25 -24 -73 12 -164 31 -78 32 -80 80 -95 99 -33
177 -159 320 -515 127 -317 128 -322 129 -426 0 -262 51 -519 166 -843 129
-360 295 -764 519 -1256 148 -325 163 -369 285 -823 93 -348 143 -504 207
-645 25 -56 70 -169 99 -251 29 -81 68 -173 86 -205 71 -122 284 -303 459
-392 86 -43 122 -48 234 -33 54 8 100 12 103 10 2 -3 -1 -28 -7 -58 -18 -85
-28 -250 -19 -286 5 -18 16 -36 24 -39 11 -4 14 -30 14 -124 0 -134 6 -154 70
-249 l42 -62 -29 -31 c-75 -80 -82 -122 -29 -171 45 -43 121 -66 236 -73 119
-7 231 8 351 46 152 49 194 83 224 181 8 24 7 24 -21 -6 -16 -17 -52 -38 -81
-48 -28 -9 -57 -24 -63 -32 -13 -15 -60 -20 -60 -6 0 5 22 40 49 79 27 39 56
86 64 104 18 43 83 113 97 104 19 -12 10 -40 -35 -115 -24 -41 -45 -79 -45
-84 0 -16 31 17 57 61 16 27 31 42 39 39 9 -3 15 6 19 28 l7 33 101 7 c92 7
103 6 112 -10 6 -10 33 -43 61 -74 51 -55 51 -56 57 -135 5 -70 9 -83 32 -103
92 -79 171 56 134 229 -9 39 -8 62 1 91 l11 40 57 -5 c31 -2 83 -10 114 -17
80 -18 121 4 163 85 27 53 30 67 29 149 -2 176 -76 300 -193 322 -24 5 -60 -1
-121 -21 -94 -30 -141 -30 -187 0 -52 34 -68 127 -34 201 24 52 28 55 97 55
55 1 57 0 104 -49 83 -87 160 -93 234 -18 137 137 147 395 21 544 l-28 33
-139 -3 -139 -3 -35 37 c-28 31 -34 45 -34 83 0 58 22 100 61 121 43 22 91 11
159 -34 42 -28 68 -37 111 -40 l56 -4 47 93 c105 209 102 360 -8 424 -35 21
-56 25 -117 25 -99 0 -143 21 -147 71 -2 19 2 47 7 62 l10 27 98 -3 c96 -2 99
-1 142 30 95 70 128 150 117 287 l-6 82 87 59 c107 73 185 145 265 244 98 121
110 156 118 339 l7 154 67 129 c85 164 106 243 106 401 l0 118 44 60 c25 33
52 83 61 111 22 65 22 195 0 281 l-16 66 27 54 c14 29 60 110 101 181 144 245
240 493 307 792 90 400 90 399 209 735 59 165 74 239 92 458 11 126 25 221 46
305 19 78 29 143 28 180 -2 44 1 60 15 70 14 10 18 43 28 196 23 377 -32 650
-173 866 -27 41 -94 123 -150 182 -75 80 -111 128 -140 184 -100 200 -291 443
-359 458 -71 15 -139 -21 -177 -92 -23 -44 -11 -41 31 8 36 44 39 45 95 45 70
0 100 -20 136 -90 13 -26 51 -81 84 -123 59 -74 105 -151 99 -167 -6 -15 -265
117 -386 198 -67 44 -127 82 -132 84 -7 2 -4 23 5 56 13 41 22 55 43 63 83 31
105 104 54 175 -37 51 -79 82 -177 132 -44 22 -107 56 -139 76 -32 19 -77 42
-100 50 -23 9 -97 36 -166 61 -69 25 -138 57 -155 71 l-30 25 85 -4 c96 -5
145 -22 264 -91 119 -68 193 -71 267 -9 27 23 30 30 24 67 -11 63 -48 119
-119 175 -36 28 -80 68 -98 88 -44 50 -85 90 -142 136 -46 38 -83 93 -71 105
3 4 28 -1 54 -11 56 -19 94 -22 122 -7 15 9 19 22 19 64 0 84 -38 146 -140
230 -47 38 -91 78 -99 89 -14 20 -13 20 57 14 l70 -7 21 34 c12 18 21 36 21
40 0 13 -23 5 -55 -20 l-33 -25 -40 20 c-38 19 -43 20 -78 5 -26 -11 -51 -14
-81 -9 -35 5 -49 2 -74 -16 -29 -20 -33 -21 -58 -7 -41 24 -143 32 -184 14
-64 -26 -60 -89 4 -67 22 7 64 9 121 5 61 -5 101 -3 127 6 33 11 46 10 92 -5
91 -30 142 -60 197 -119 60 -64 91 -124 92 -179 l0 -38 -37 7 c-21 4 -74 20
-118 37 -138 51 -230 42 -267 -27 -9 -17 -6 -18 89 -12 l98 7 30 -52 c36 -62
149 -179 264 -274 77 -63 82 -70 62 -79 -30 -13 -26 -21 17 -34 50 -15 82 -51
89 -100 5 -38 4 -39 -27 -46 -84 -16 -126 -8 -192 39 -88 62 -168 103 -239
121 -65 17 -104 12 -224 -25 l-60 -19 -48 44 c-54 48 -99 62 -148 45 -18 -6
-49 -11 -70 -11 -32 0 -39 4 -39 20 0 12 12 26 32 36 27 14 42 15 102 6 168
-25 301 -34 409 -28 96 6 123 4 187 -14 131 -36 153 -41 164 -37 19 7 -72 47
-151 68 -53 13 -110 19 -186 19 -87 0 -124 5 -174 21 -61 21 -65 21 -131 5
-69 -17 -122 -21 -122 -9 0 3 27 31 60 62 56 53 60 59 60 101 0 48 -14 111
-32 147 -13 27 -56 43 -113 43 l-42 0 -7 46 c-10 76 -6 167 8 193 13 24 11 26
-53 72 -36 26 -82 63 -100 83 -31 32 -41 36 -83 36 -48 0 -49 1 -68 43 -29 63
-26 93 10 112 17 9 38 31 47 50 17 35 36 45 48 25 4 -6 31 -24 61 -41 l53 -31
33 -101 c33 -102 58 -136 58 -78 0 38 -24 153 -44 210 -17 46 -21 162 -10 269
6 58 8 61 38 68 17 3 70 21 118 40 137 53 195 43 266 -46 27 -32 39 -40 67
-40 18 0 62 -9 96 -20 35 -10 64 -18 66 -16 2 1 -2 17 -8 34 -11 32 -11 32
-82 32 -80 0 -77 -1 -131 57 l-38 41 106 -5 105 -6 18 63 c14 50 23 67 50 84
48 31 62 69 69 195 6 87 3 129 -9 189 -9 42 -22 103 -28 135 -7 39 -20 69 -38
89 -27 30 -30 31 -147 38 -75 5 -135 14 -162 25 l-43 17 26 34 c39 51 43 87
12 118 -33 33 -102 35 -202 5 -53 -16 -98 -21 -190 -21 -126 -1 -176 11 -220
52 -54 50 -164 66 -222 30z m171 -58 c26 -15 62 -43 80 -63 50 -58 68 -64 197
-64 101 0 120 -3 138 -19 34 -31 27 -46 -21 -46 -25 0 -64 -10 -93 -24 -46
-23 -52 -23 -84 -10 -19 8 -54 28 -79 44 -84 56 -132 48 -171 -28 -19 -37 -21
-38 -62 -33 -41 6 -44 8 -57 51 -7 25 -14 76 -15 114 -1 64 1 70 27 93 34 29
64 25 140 -15z m623 -38 c10 -28 -15 -61 -71 -94 -31 -17 -60 -29 -65 -26 -4
3 -14 19 -21 36 l-12 30 -129 0 c-123 0 -129 1 -156 26 -26 23 -26 25 -6 19
44 -12 258 -7 318 8 83 21 134 21 142 1z m58 -180 c50 -13 126 -27 170 -31 69
-5 84 -10 107 -34 16 -15 28 -38 28 -52 0 -19 -8 -27 -42 -40 -129 -48 -144
-46 -319 37 -63 30 -133 60 -156 67 -42 12 -58 29 -28 29 8 0 27 14 42 31 32
35 44 34 198 -7z m-565 -4 c21 -11 41 -23 44 -28 3 -5 -17 -16 -44 -24 -50
-16 -50 -16 -70 9 -23 29 -26 49 -7 56 23 10 38 7 77 -13z m461 -142 c63 -17
85 -27 97 -47 9 -14 24 -36 34 -47 21 -24 39 -22 127 10 24 9 67 16 96 16 53
0 54 0 66 -37 15 -46 16 -256 0 -295 -7 -19 -22 -30 -50 -39 -40 -12 -42 -11
-113 38 -117 80 -139 86 -313 84 -82 -1 -159 -4 -170 -8 -11 -3 -42 -21 -68
-39 -27 -19 -57 -34 -66 -34 -26 0 -57 38 -78 95 -15 40 -26 53 -59 69 -41 19
-42 21 -47 80 -5 55 -9 64 -43 92 l-37 32 36 13 c21 7 37 16 37 20 0 9 -27 19
-50 19 -26 0 -45 36 -24 44 31 12 54 6 129 -34 42 -22 85 -40 96 -40 11 0 61
-18 112 -39 155 -66 256 -87 296 -62 15 10 14 10 -128 45 -35 9 -88 31 -117
50 l-53 33 26 36 25 35 79 -34 c44 -18 116 -43 160 -56z m-721 42 c12 -8 11
-10 -7 -10 -13 0 -23 5 -23 10 0 13 11 13 30 0z m4 -111 c11 -56 7 -99 -9 -99
-18 0 -35 31 -35 65 0 29 16 65 29 65 5 0 11 -14 15 -31z m116 -40 c6 -10 10
-27 10 -38 0 -18 -6 -21 -39 -21 -34 0 -40 3 -46 27 -12 51 51 78 75 32z m-93
-194 c-2 -83 -4 -96 -21 -101 -28 -9 -38 8 -43 78 -6 79 7 118 41 118 25 0 25
0 23 -95z m114 64 c17 -9 19 -17 14 -53 -7 -42 -5 -45 32 -72 21 -15 39 -29
41 -30 1 -1 -2 -13 -7 -27 -15 -39 -45 -43 -96 -12 -71 41 -79 68 -43 152 25
56 28 59 59 42z m699 -151 c109 -52 202 -123 198 -151 -4 -29 -34 -33 -120
-16 -108 20 -241 0 -343 -51 -108 -54 -135 -53 -263 10 -56 27 -102 51 -102
54 0 18 17 39 42 52 16 8 33 26 38 40 8 21 13 23 29 14 34 -18 80 -11 137 21
141 80 258 89 384 27z m-727 -104 c53 -41 63 -61 38 -69 -43 -13 -81 18 -95
78 -8 36 1 34 57 -9z m-93 -163 c5 -125 15 -152 62 -167 10 -3 31 -24 45 -47
14 -23 34 -48 45 -55 11 -8 18 -26 18 -48 0 -34 0 -34 -45 -34 -25 0 -45 -4
-45 -9 0 -5 7 -28 15 -51 8 -23 15 -44 15 -46 0 -2 -25 -4 -55 -4 -53 0 -55 1
-55 27 0 14 7 35 17 45 22 25 9 35 -29 20 -18 -6 -33 -11 -34 -9 -1 1 -5 32
-9 69 -6 60 -5 67 10 62 9 -4 26 -25 38 -48 l22 -41 3 79 c2 44 1 85 -2 91 -2
7 -21 15 -40 19 -41 8 -44 20 -20 87 11 32 14 63 10 115 -4 38 -3 73 1 77 18
18 28 -24 33 -132z m158 32 c39 -9 72 -22 72 -28 0 -20 -33 -42 -74 -49 -24
-5 -49 -19 -67 -38 l-28 -32 -11 29 c-13 33 -14 44 -12 104 2 40 4 43 25 37
12 -3 55 -13 95 -23z m196 -59 c41 -14 46 -19 39 -38 -4 -11 -6 -72 -5 -135
l2 -114 -42 6 c-54 7 -79 34 -119 131 l-32 79 29 21 c16 12 40 31 54 43 14 12
25 23 26 23 0 0 22 -7 48 -16z m-189 -104 c15 -16 16 -22 5 -35 -17 -20 -40
-2 -40 31 0 29 11 30 35 4z m-213 -335 c3 -14 -1 -33 -8 -42 -12 -16 -13 -13
-14 25 0 46 15 57 22 17z m181 -106 c11 -18 4 -56 -15 -81 -12 -16 -16 -16
-63 0 -44 15 -50 20 -53 48 -3 27 1 34 25 42 39 15 94 10 106 -9z m-176 -93
c42 -66 39 -116 -8 -116 -23 0 -24 -13 -4 -30 22 -19 18 -28 -10 -22 -19 3
-25 11 -26 31 0 14 -4 59 -8 99 -6 68 -6 72 14 72 12 0 29 -14 42 -34z m351
-6 c34 -22 71 -54 81 -71 38 -63 38 -242 0 -254 -63 -20 -112 2 -124 55 -6 26
-9 28 -40 23 -31 -5 -35 -2 -59 40 -22 36 -37 49 -82 67 -49 20 -55 26 -52 49
3 23 8 27 53 31 59 7 72 13 114 63 18 20 36 37 40 37 5 0 36 -18 69 -40z
m-287 -238 l26 -37 -42 -26 c-24 -15 -49 -42 -60 -65 l-19 -39 -7 40 c-13 67
-11 75 15 75 13 0 32 3 41 6 14 6 14 8 0 31 -18 26 -14 53 7 53 7 -1 25 -18
39 -38z m256 -132 c59 -33 96 -37 150 -15 19 8 57 15 84 15 46 0 49 -2 74 -44
54 -93 40 -158 -43 -199 -94 -47 -138 -60 -187 -52 -39 5 -50 13 -73 45 -23
33 -33 39 -63 40 -22 0 -42 -7 -50 -16 -12 -15 -14 -13 -21 12 -6 24 -1 34 34
72 l41 44 -6 64 c-4 35 -3 64 0 64 4 0 30 -13 60 -30z m-127 -39 c0 -33 -5
-53 -16 -62 -17 -14 -73 -16 -118 -5 -24 6 -26 11 -26 61 l0 55 80 0 80 0 0
-49z m-114 -121 c36 -11 72 -20 80 -20 23 0 15 -14 -25 -42 l-38 -27 -18 40
c-12 25 -27 42 -42 45 -13 4 -30 19 -38 35 -19 37 -19 52 1 17 11 -21 30 -32
80 -48z m-28 -144 c-10 -7 -18 -20 -18 -29 0 -12 10 -15 43 -14 39 2 42 0 39
-23 -1 -14 -5 -67 -9 -117 -5 -88 -7 -93 -28 -93 -27 0 -38 10 -25 25 13 16
-4 124 -28 171 -18 35 -19 42 -6 67 8 15 22 27 32 27 16 -1 16 -1 0 -14z m355
-113 c43 -19 88 -29 149 -34 102 -7 143 -27 175 -85 27 -46 29 -84 7 -126 -9
-17 -14 -39 -11 -49 7 -27 -19 -25 -135 10 -113 34 -132 44 -173 81 -16 15
-47 34 -67 41 -35 12 -39 11 -58 -9 -12 -12 -24 -22 -28 -22 -16 0 -65 40 -83
66 -25 38 -35 110 -19 129 34 41 145 40 243 -2z m-1483 -53 c0 -5 -8 -14 -19
-19 -10 -6 -24 -23 -30 -40 -17 -40 -47 -47 -54 -12 -6 31 7 49 48 67 36 16
55 17 55 4z m-164 -75 c22 -53 18 -63 -37 -86 -28 -13 -111 -69 -183 -126 -72
-56 -137 -103 -144 -103 -22 0 -96 76 -89 92 3 9 61 37 129 64 116 46 127 52
195 121 83 84 107 91 129 38z m2190 -21 c48 -25 139 -64 202 -86 123 -42 174
-65 237 -108 22 -15 78 -47 124 -71 127 -67 163 -120 129 -194 -16 -35 -53
-33 -124 10 -94 57 -211 98 -262 92 -55 -6 -95 6 -283 88 -85 36 -165 71 -178
76 -21 9 -23 14 -17 47 3 20 6 72 6 115 l0 77 40 0 c27 0 65 -14 126 -46z
m-786 -16 c0 -5 -4 -8 -10 -8 -5 0 -10 10 -10 23 0 18 2 19 10 7 5 -8 10 -18
10 -22z m-419 -3 c514 -42 966 -153 1296 -318 37 -19 96 -44 129 -57 36 -12
76 -36 95 -56 38 -38 61 -41 134 -19 62 19 97 12 129 -26 23 -27 24 -32 11
-62 -12 -29 -18 -32 -59 -35 -26 -2 -97 4 -158 12 -138 20 -219 20 -261 2 -43
-18 -86 -65 -102 -112 -7 -22 -19 -39 -26 -39 -7 0 -26 19 -42 42 l-30 41 24
43 c30 53 103 104 163 113 53 8 67 21 32 30 -40 10 -86 -4 -188 -57 l-98 -50
-142 71 c-198 99 -334 142 -594 187 -178 31 -420 48 -549 40 -239 -16 -382
-57 -515 -149 -38 -26 -54 -31 -106 -31 -51 0 -66 4 -96 27 -103 78 -87 298
25 351 116 56 574 81 928 52z m-1031 -107 c0 -2 -7 -28 -15 -58 -24 -91 -20
-149 16 -203 104 -157 351 -219 934 -234 363 -9 508 19 668 129 52 35 65 39
98 34 49 -8 189 -71 189 -86 0 -26 -43 -91 -82 -125 -168 -146 -631 -226
-1229 -212 -238 5 -326 17 -336 44 -3 9 -1 50 6 93 9 59 9 84 0 106 -11 27
-13 21 -30 -80 -10 -61 -23 -113 -31 -118 -15 -10 -85 -3 -138 14 -19 6 -78
33 -130 61 -89 46 -98 49 -148 43 -105 -12 -213 -71 -267 -147 -24 -34 -42
-48 -62 -51 -25 -3 -31 -11 -53 -73 -31 -84 -51 -125 -61 -125 -16 0 15 93 73
213 49 103 60 134 55 161 -5 29 -2 35 19 45 41 18 46 56 20 139 -7 21 -5 22
57 22 53 0 67 4 84 23 31 34 40 57 48 119 7 52 10 57 36 63 18 4 45 26 71 58
51 62 63 72 137 114 50 29 71 38 71 31z m-434 -51 c-21 -27 -45 -39 -148 -74
-68 -23 -131 -45 -141 -48 -13 -6 -16 -3 -11 9 9 22 51 43 121 60 32 7 82 30
112 50 29 20 62 36 73 36 18 0 17 -2 -6 -33z m-757 -77 c-18 -39 -37 -69 -43
-67 -5 2 -19 15 -29 30 -17 21 -18 29 -8 41 17 20 103 77 109 72 2 -3 -11 -37
-29 -76z m446 40 l30 -7 -37 -16 c-137 -60 -151 -61 -108 -7 33 42 50 46 115
30z m342 -52 c18 -15 35 -75 28 -100 -12 -45 -30 -70 -58 -85 -16 -8 -31 -12
-34 -10 -2 3 9 30 26 61 16 31 26 56 21 56 -8 0 -22 -16 -69 -79 -13 -18 -23
-23 -43 -18 -20 5 -31 21 -53 79 -16 40 -29 75 -29 78 -1 3 28 13 64 22 64 17
124 16 147 -4z m-915 -65 c39 -35 13 -68 -108 -132 -39 -21 -70 -46 -85 -69
-27 -41 -37 -45 -52 -21 -8 13 7 33 74 102 46 47 94 97 106 111 26 30 40 32
65 9z m523 -23 l29 -30 -25 -26 c-35 -38 -194 -141 -355 -230 -76 -42 -146
-83 -155 -91 -9 -8 -22 -40 -28 -73 -12 -59 -22 -70 -66 -70 -13 0 -27 -4 -30
-10 -3 -5 -38 -19 -78 -31 -48 -14 -91 -36 -129 -65 -31 -24 -61 -44 -67 -44
-17 0 -13 83 5 109 9 12 48 37 88 55 87 40 428 264 513 337 34 30 98 87 142
127 91 81 113 87 156 42z m1967 22 c37 -5 70 -11 73 -14 7 -6 65 -159 65 -169
0 -13 -76 -37 -155 -50 -118 -19 -498 -17 -655 5 -163 22 -260 47 -260 66 0 5
35 23 77 40 219 91 618 148 855 122z m-1812 -78 c4 -50 12 -71 44 -117 22 -31
39 -68 39 -83 0 -50 -63 -72 -98 -34 -14 15 -33 20 -92 22 l-74 3 51 72 c45
64 50 76 50 125 0 60 13 80 50 76 23 -3 25 -8 30 -64z m2068 19 c17 -24 23
-26 44 -16 16 7 30 8 42 1 17 -9 17 -11 -1 -30 -22 -25 -110 -68 -139 -68 -27
0 -34 17 -34 86 l0 54 34 0 c26 0 39 -7 54 -27z m-2437 -12 c-37 -51 -90 -91
-121 -91 -39 0 -38 16 1 38 16 9 51 31 77 49 59 40 69 41 43 4z m208 -108
c-10 -31 -30 -76 -44 -100 -28 -47 -199 -263 -212 -266 -4 -1 -15 18 -24 43
-19 52 -26 53 -127 26 -35 -10 -67 -15 -70 -11 -19 18 36 69 173 160 214 142
309 203 317 204 4 1 -2 -25 -13 -56z m-805 -107 c18 -30 26 -59 26 -90 0 -39
-4 -48 -27 -62 -181 -109 -305 -222 -349 -319 -21 -45 -25 -67 -22 -107 7 -64
-12 -74 -51 -27 -23 27 -27 39 -21 64 14 60 54 121 124 188 63 61 79 85 141
210 62 126 75 144 110 164 22 13 41 23 42 23 0 0 13 -20 27 -44z m3590 11 c16
-12 17 -16 5 -35 -15 -23 -16 -17 35 -137 13 -33 23 -61 21 -63 -2 -2 -59 -7
-127 -12 -107 -8 -140 -15 -238 -49 -62 -23 -119 -41 -126 -41 -13 0 -44 49
-44 68 0 11 67 41 150 67 124 40 211 97 257 170 30 48 39 52 67 32z m661 -2
c33 -9 84 -27 114 -41 75 -34 217 -131 249 -170 37 -45 86 -70 159 -82 40 -7
87 -26 137 -54 71 -40 75 -45 76 -78 1 -56 82 -168 148 -205 104 -58 176 -118
204 -170 53 -95 112 -315 124 -460 7 -85 3 -81 -70 70 -29 61 -67 126 -84 146
-18 21 -40 64 -52 101 -11 36 -30 80 -42 99 -29 43 -99 79 -154 79 -37 0 -44
-4 -69 -41 -42 -60 -68 -70 -137 -54 -31 7 -85 16 -119 20 -59 7 -66 11 -129
70 -49 46 -99 79 -187 124 -126 64 -230 136 -348 241 -38 34 -89 76 -113 92
-38 26 -62 60 -62 89 0 15 102 10 160 -7 55 -16 81 -38 148 -122 48 -61 69
-56 37 9 -33 65 -98 135 -149 161 -35 18 -52 20 -123 14 -50 -4 -83 -2 -83 3
0 47 68 126 135 157 60 28 142 31 230 9z m-534 -91 c67 -47 84 -65 109 -115
40 -78 39 -93 -2 -84 -18 4 -57 17 -85 30 -43 19 -53 29 -53 48 0 14 7 30 15
37 25 21 18 40 -14 40 -35 0 -61 31 -61 72 0 16 3 28 6 28 3 0 42 -25 85 -56z
m-2784 -24 c53 -23 54 -38 13 -121 -35 -68 -55 -186 -66 -392 -4 -70 -11 -130
-15 -133 -4 -2 -31 16 -60 42 -52 46 -52 46 -116 42 -34 -2 -63 -3 -63 -1 0 2
20 43 45 91 53 106 61 139 75 312 13 165 16 178 43 183 35 8 98 -2 144 -23z
m-216 -77 c-16 -52 -40 -104 -97 -201 -102 -174 -283 -434 -328 -471 -16 -13
-17 -12 -10 15 23 97 90 223 170 321 31 37 72 100 91 138 53 104 101 173 142
201 19 13 37 24 38 24 1 0 -2 -12 -6 -27z m783 -27 c98 -65 187 -77 676 -97
l285 -11 300 30 300 31 16 -20 c8 -12 24 -36 34 -55 18 -34 18 -35 -3 -62 -46
-57 -75 -115 -80 -158 -4 -41 -2 -47 32 -79 21 -19 44 -35 51 -35 29 0 26 -25
-11 -121 -44 -111 -36 -105 -174 -133 -175 -35 -379 -49 -700 -50 -276 0 -332
3 -457 22 -379 59 -577 158 -658 327 -38 80 -41 188 -7 252 60 114 183 200
288 202 32 1 55 -8 108 -43z m-1104 -51 c0 -8 9 -15 20 -15 11 0 27 -11 36
-25 9 -14 23 -25 30 -25 8 0 14 -8 14 -17 0 -50 -24 -92 -89 -159 -80 -83
-111 -139 -151 -273 -16 -53 -49 -151 -73 -216 -36 -96 -49 -151 -67 -275 -12
-85 -24 -157 -26 -159 -3 -3 -23 0 -45 6 -25 6 -54 7 -77 2 -74 -17 -89 -13
-117 34 -42 72 -36 92 78 285 112 189 181 377 217 592 12 69 26 142 32 163 12
40 37 61 61 51 8 -3 41 6 73 20 69 29 84 31 84 11z m3325 -52 c74 -26 91 -29
98 -17 13 23 25 16 29 -20 l4 -33 -92 -6 c-119 -8 -180 -32 -317 -124 -62 -41
-127 -81 -146 -89 -70 -29 -127 -14 -184 51 -25 28 -16 88 20 133 34 42 123
94 208 122 93 31 260 24 380 -17z m-3010 -40 c-13 -91 -97 -287 -172 -406 -17
-26 -54 -100 -83 -165 -81 -180 -118 -252 -166 -319 -37 -52 -95 -103 -118
-103 -10 0 -7 111 5 176 18 99 77 206 199 358 126 157 162 211 224 334 43 84
100 172 112 172 4 0 3 -21 -1 -47z m-875 18 c0 -10 -18 -41 -41 -67 -48 -58
-74 -104 -59 -104 6 0 30 18 55 41 l44 40 21 -40 21 -41 -43 -19 c-24 -10 -56
-33 -72 -50 -17 -17 -36 -31 -43 -31 -21 0 -35 50 -28 97 5 33 14 49 41 70 19
14 42 42 50 62 12 30 38 61 51 61 2 0 3 -9 3 -19z m4209 -89 c36 -35 61 -62
55 -60 -6 2 -55 23 -108 48 -98 46 -117 66 -102 106 5 13 11 12 47 -8 23 -13
72 -51 108 -86z m-3935 46 c23 -33 20 -92 -14 -223 -49 -194 -107 -331 -221
-515 -44 -73 -66 -122 -90 -207 -35 -124 -25 -114 -131 -129 -37 -5 -48 -3
-48 7 0 8 -3 23 -6 35 -4 15 7 36 41 75 57 67 98 139 165 294 103 238 129 337
130 499 l0 89 37 35 c36 33 85 61 110 62 6 0 19 -10 27 -22z m901 -91 c-9 -45
-31 -113 -50 -152 l-33 -70 -1 41 c-1 56 87 305 97 275 2 -6 -4 -48 -13 -94z
m4168 -91 c53 -52 97 -99 97 -105 0 -12 -94 37 -147 76 -37 28 -81 123 -55
123 4 0 51 -43 105 -94z m-1309 69 c97 -21 182 -55 223 -90 54 -46 62 -121 32
-282 -6 -29 -15 -53 -21 -53 -6 0 -8 14 -4 38 16 92 18 117 11 178 -3 35 -11
64 -16 64 -5 0 -9 -40 -9 -90 0 -81 -2 -90 -21 -101 -24 -13 -22 -41 9 -111
13 -29 17 -57 14 -85 -3 -33 -1 -43 10 -43 18 0 53 155 63 274 9 101 25 82 25
-30 0 -59 -8 -108 -30 -187 -16 -59 -30 -109 -30 -112 0 -6 81 -47 84 -43 2 2
15 23 29 48 l27 45 0 -35 c-1 -52 -17 -73 -105 -138 -160 -117 -200 -181 -316
-507 -80 -226 -147 -451 -254 -865 -138 -529 -187 -754 -219 -1005 -20 -154
-57 -304 -204 -820 -66 -231 -152 -557 -192 -725 -50 -216 -78 -315 -95 -340
-19 -28 -79 -211 -201 -610 -2 -8 5 -4 16 10 l20 25 0 -26 c0 -16 -29 -77 -69
-143 -38 -63 -88 -159 -111 -213 -121 -277 -217 -427 -324 -505 -21 -15 -43
-28 -47 -28 -4 0 3 24 16 53 94 214 155 438 214 787 22 129 63 357 92 505 159
838 180 968 219 1401 36 401 46 482 67 559 12 40 18 102 19 185 1 144 14 204
81 378 82 213 103 271 147 415 142 456 192 755 183 1087 -5 205 -10 232 -77
490 -37 143 -38 240 -3 321 46 103 172 176 227 130 14 -12 14 -16 1 -34 -20
-29 -19 -37 6 -37 11 0 17 -4 14 -10 -4 -6 5 -10 19 -10 31 0 31 2 10 57 -16
40 -16 46 0 88 48 124 254 186 470 140z m-2836 -88 c3 -26 -35 -104 -45 -94
-2 3 1 32 8 66 13 63 31 76 37 28z m-1148 -2 c34 -41 -24 -263 -123 -475 -24
-52 -79 -147 -121 -210 -85 -127 -91 -141 -83 -206 4 -40 1 -51 -27 -86 -17
-23 -41 -48 -54 -56 -22 -14 -22 -14 -22 30 0 64 28 138 119 311 96 183 130
281 172 492 17 88 35 168 41 178 18 34 77 47 98 22z m4566 -130 l39 -35 -35
-30 c-38 -32 -38 -33 22 -65 15 -9 32 -24 38 -34 14 -27 13 -61 -2 -62 -7 0 2
-7 20 -15 27 -12 33 -19 29 -37 -12 -51 -29 -238 -23 -244 13 -13 22 17 40
132 10 63 23 115 29 115 9 0 5 -123 -9 -280 l-5 -55 17 35 c26 52 33 330 10
384 -20 49 -20 53 2 34 53 -48 166 -68 288 -54 55 7 62 11 115 66 53 55 59 59
87 51 76 -22 88 -43 96 -171 6 -107 11 -122 41 -114 42 11 61 -12 124 -151 56
-125 61 -141 59 -201 -1 -51 3 -70 19 -92 30 -40 36 -84 23 -149 -12 -59 -47
-133 -62 -133 -4 0 -5 59 -1 130 4 94 3 130 -5 130 -19 0 -39 -41 -58 -117
-10 -40 -22 -73 -26 -73 -4 0 -8 -19 -8 -42 0 -24 -3 -53 -6 -65 -12 -44 -24
-22 -24 42 0 57 -7 83 -56 200 -32 76 -61 132 -67 128 -6 -3 -8 -46 -5 -109 3
-57 1 -101 -3 -98 -17 10 -29 82 -29 166 0 48 -4 90 -10 93 -11 7 -14 -11 -11
-65 2 -35 -21 -81 -34 -68 -4 3 -9 44 -12 90 -7 98 -17 128 -28 77 -13 -61
-20 -55 -30 30 -6 51 -15 86 -22 89 -15 4 -16 -37 -4 -132 6 -48 5 -55 -5 -41
-7 9 -18 57 -25 107 -10 67 -18 92 -31 99 -16 8 -17 6 -12 -23 l5 -33 -20 23
c-12 13 -22 45 -26 77 -23 180 -28 -72 -9 -392 9 -142 31 -134 41 15 3 45 9
82 14 82 4 0 13 -16 19 -36 12 -35 10 -86 -6 -209 -5 -38 -4 -39 10 -21 9 11
16 37 16 57 0 21 4 40 9 43 14 9 20 -56 10 -135 -11 -103 -11 -185 1 -173 10
10 34 116 46 209 l8 60 7 -55 c4 -30 4 -84 -1 -120 -13 -86 -12 -170 0 -170 6
0 10 4 10 10 0 5 4 53 10 107 5 54 12 130 16 168 6 59 8 66 15 41 28 -99 19
-261 -26 -479 -14 -66 -23 -122 -21 -124 2 -3 11 6 19 19 19 29 43 137 67 293
l18 120 16 -39 c14 -31 16 -58 12 -145 l-6 -106 16 43 c11 30 20 40 26 34 13
-13 -15 -158 -40 -210 -19 -37 -49 -229 -38 -239 3 -3 17 18 31 48 25 54 25
54 25 19 0 -19 -7 -60 -15 -90 -8 -30 -14 -68 -14 -85 1 -30 1 -30 19 10 19
41 44 154 59 263 l8 63 -23 -28 -22 -28 11 55 c9 45 12 51 17 30 l6 -25 18 33
c47 90 46 -36 -2 -238 -17 -69 -30 -142 -30 -162 0 -20 -3 -41 -7 -47 -3 -6
-2 -11 4 -11 16 0 24 21 27 69 2 44 71 382 80 390 26 27 -51 -390 -95 -513
-44 -122 -71 -229 -82 -325 -24 -206 -43 -313 -84 -474 -75 -295 -127 -429
-223 -579 -32 -51 -92 -152 -132 -225 l-73 -132 -43 -7 c-24 -3 -59 -3 -77 0
-55 10 -127 101 -127 160 0 41 -10 55 -46 62 -50 9 -77 49 -103 150 -13 49
-39 126 -57 172 -40 98 -41 117 -10 247 14 59 29 166 36 260 6 88 13 161 15
163 2 2 8 -29 15 -67 9 -55 9 -95 0 -174 -6 -56 -14 -127 -17 -157 l-5 -55 26
35 c36 47 56 120 56 201 0 96 -16 161 -62 258 -40 82 -41 86 -50 240 -11 191
-28 301 -69 451 -25 95 -32 144 -40 280 -4 91 -11 188 -14 215 l-6 50 29 -45
c27 -43 28 -48 24 -142 -5 -116 6 -288 19 -288 5 0 9 8 10 18 0 9 8 0 19 -21
l17 -39 7 28 c15 60 -18 330 -55 449 -42 137 -13 245 155 578 130 258 158 338
163 477 3 87 1 112 -15 145 l-18 40 -1 -125 c0 -133 -11 -197 -59 -322 -27
-72 -57 -118 -70 -106 -4 4 -9 30 -12 58 -4 43 1 63 32 130 91 199 89 350 -8
542 l-43 88 87 -46 c48 -24 105 -60 126 -79z m-3417 13 c-25 -65 -34 -74 -25
-29 6 33 31 81 41 81 3 0 -5 -24 -16 -52z m3177 30 c10 -16 13 -48 4 -48 -6 0
-30 44 -30 55 0 10 19 4 26 -7z m-4499 -103 c-14 -163 -71 -322 -202 -566 -97
-181 -125 -246 -125 -294 0 -25 -6 -37 -21 -45 -11 -7 -22 -10 -23 -8 -9 12
-26 147 -20 163 4 11 27 51 51 88 98 153 131 247 158 447 17 121 36 216 54
263 10 25 14 27 72 27 l62 0 -6 -75z m1258 8 c-5 -49 -3 -64 4 -53 6 8 11 11
11 7 0 -17 -21 -47 -42 -58 -20 -11 -21 -10 -14 37 6 48 34 134 43 134 3 0 2
-30 -2 -67z m143 27 c-4 -42 0 -48 20 -28 21 21 25 -19 8 -93 -18 -81 -20
-119 -7 -119 10 0 41 122 41 159 0 20 17 38 26 28 3 -3 -3 -50 -14 -106 -10
-56 -16 -101 -11 -101 10 0 29 57 29 89 1 14 9 42 20 61 16 31 19 33 26 16 4
-11 1 -40 -6 -65 -7 -25 -15 -66 -18 -91 -3 -41 -2 -44 12 -30 9 9 25 46 35
83 10 38 21 70 24 73 3 3 40 -9 84 -26 86 -35 283 -79 468 -106 147 -21 499
-24 660 -5 61 7 200 23 309 37 110 13 210 24 223 24 23 0 23 -2 23 -100 0 -55
-2 -100 -3 -100 -2 0 -66 -13 -143 -29 -257 -55 -403 -72 -651 -78 -322 -8
-565 22 -839 101 -165 48 -190 60 -362 161 -2 2 23 127 34 170 5 19 4 19 -14
-1 -10 -12 -24 -47 -31 -78 -7 -30 -17 -58 -22 -61 -16 -11 -10 83 12 162 26
94 25 93 51 93 17 0 20 -5 16 -40z m-384 -41 c49 -33 66 -55 66 -86 0 -37 -50
-123 -112 -194 -114 -133 -144 -172 -248 -327 -57 -85 -113 -159 -126 -164
-24 -11 -60 6 -117 57 -27 24 -28 27 -16 62 7 23 43 70 88 118 42 44 86 94 98
111 37 53 89 166 122 264 38 117 62 157 104 175 51 22 89 18 141 -16z m3806
-39 c0 -5 -2 -10 -4 -10 -3 0 -8 5 -11 10 -3 6 -1 10 4 10 6 0 11 -4 11 -10z
m47 -57 c-10 -23 -12 -24 -24 -7 -7 10 -13 26 -13 36 0 15 4 16 24 7 22 -10
23 -14 13 -36z m-3672 -63 c42 -44 158 -121 253 -169 294 -147 763 -221 1230
-193 219 14 419 40 586 77 85 19 112 22 118 12 14 -23 60 -230 69 -316 16
-160 23 -146 -83 -180 -192 -61 -491 -110 -796 -131 -557 -37 -1085 36 -1385
192 -105 55 -168 106 -222 180 -42 56 -85 163 -85 210 0 11 37 56 88 106 48
48 110 122 137 164 28 43 53 78 56 78 3 0 18 -14 34 -30z m4005 -441 c0 -35
-12 -49 -41 -49 -5 0 -9 24 -9 53 1 48 2 50 15 33 15 -19 15 -19 15 5 0 19 2
21 10 9 5 -8 10 -31 10 -51z m-4380 -13 c-6 -19 -17 -40 -25 -46 -12 -10 -13
-5 -8 27 3 21 13 49 21 63 14 21 17 22 20 7 2 -9 -2 -33 -8 -51z m55 -29 c4
-22 -1 -53 -15 -93 -40 -107 -55 -173 -44 -184 8 -8 17 12 33 72 30 114 44
151 60 156 11 4 13 -6 9 -44 -3 -27 -9 -58 -12 -69 -7 -19 -6 -19 6 -1 43 62
41 62 71 23 21 -28 25 -41 18 -59 -10 -28 -25 -145 -17 -137 3 3 12 38 21 79
9 41 17 75 18 77 2 1 60 -26 128 -62 289 -149 603 -205 1154 -205 437 0 769
37 1024 115 135 40 129 46 116 -89 -6 -63 -13 -117 -17 -121 -19 -19 -306 -78
-510 -105 -308 -39 -605 -49 -933 -30 -396 23 -588 70 -963 236 l-133 58 7 96
c7 107 0 117 -15 21 -6 -36 -14 -68 -18 -72 -13 -13 -104 51 -99 70 3 9 7 41
10 71 l6 55 -21 -52 c-19 -51 -39 -69 -39 -38 0 7 -7 18 -16 23 -15 8 -14 18
7 106 12 53 27 96 31 96 12 0 10 -19 -13 -90 -11 -37 -17 -76 -14 -89 9 -34
21 -12 36 61 6 32 18 66 25 75 12 16 13 13 14 -27 l2 -45 13 30 c8 17 14 38
15 48 0 30 29 89 39 82 6 -3 13 -20 16 -38z m3535 -21 c0 -2 -7 -9 -15 -16
-12 -10 -15 -10 -15 4 0 9 7 16 15 16 8 0 15 -2 15 -4z m-4225 -25 c22 -6 59
-11 83 -11 39 0 42 -2 41 -27 -1 -44 -12 -62 -49 -81 -23 -11 -46 -36 -67 -72
-18 -30 -36 -61 -40 -68 -6 -10 -20 -9 -68 5 -33 9 -61 17 -63 18 -1 1 9 31
22 67 14 36 28 93 32 127 l7 63 31 -5 c17 -3 49 -10 71 -16z m257 -54 c29 -23
69 -53 88 -67 19 -13 37 -25 38 -26 8 -6 -33 -64 -45 -64 -6 0 -33 11 -59 25
-31 17 -63 25 -95 25 l-48 0 26 75 c13 41 29 75 34 75 4 0 32 -19 61 -43z
m-414 -45 c-8 -114 -83 -222 -153 -222 -25 0 -32 12 -46 84 -22 117 50 204
170 206 l34 0 -5 -68z m4433 -30 c-11 -21 -41 -62 -67 -91 -50 -56 -204 -185
-211 -177 -8 8 9 74 28 105 10 17 49 51 86 75 38 23 90 62 118 85 27 22 53 41
58 41 4 0 -1 -17 -12 -38z m-3998 -107 c24 -30 26 -39 19 -67 -10 -36 -6 -35
-107 -18 -33 5 -84 10 -113 10 -56 0 -92 13 -92 32 0 6 11 26 26 45 l25 33
107 0 107 0 28 -35z m144 -36 c-4 -27 -1 -39 7 -39 8 0 20 -33 31 -80 17 -76
18 -84 2 -132 -20 -63 -15 -73 11 -22 l20 39 12 -41 c11 -38 9 -52 -20 -155
-30 -107 -51 -151 -66 -137 -6 6 9 142 22 213 5 23 3 27 -6 19 -6 -6 -17 -44
-24 -85 -16 -85 -24 -109 -38 -109 -21 0 -2 180 30 280 16 52 33 103 37 113 4
10 3 17 -4 17 -18 0 -50 -75 -61 -146 -6 -38 -15 -73 -19 -77 -5 -5 -18 5 -30
22 -21 29 -21 32 -7 98 8 37 31 114 52 170 37 102 61 125 51 52z m-822 -33
c-7 -58 -5 -65 13 -70 26 -9 18 -44 -12 -51 -42 -9 -140 -25 -154 -25 -11 0
-13 15 -10 74 5 103 34 134 126 135 l44 1 -7 -64z m1025 -37 c206 -139 539
-262 850 -313 239 -39 375 -50 640 -50 284 0 331 4 794 65 164 21 305 39 312
39 8 0 14 -10 14 -22 0 -39 -36 -197 -81 -358 -54 -196 -56 -198 -200 -229
-341 -71 -682 -76 -1186 -16 -350 42 -557 93 -748 185 -128 61 -208 122 -296
224 -126 145 -215 342 -235 520 l-7 61 34 -27 c19 -16 68 -51 109 -79z m3600
38 c0 -1 -13 -41 -29 -87 -17 -47 -33 -104 -37 -128 -4 -23 -10 -41 -13 -40
-4 2 -25 23 -48 48 -39 43 -41 47 -28 75 20 46 155 161 155 132z m-4347 -26
c21 -5 41 -12 44 -15 3 -3 -13 -26 -36 -52 -22 -26 -41 -56 -41 -67 0 -11 -9
-40 -20 -63 -24 -50 -108 -112 -162 -120 -31 -5 -36 -3 -41 17 -14 50 -7 114
18 164 36 75 70 109 132 131 45 16 56 16 106 5z m335 -17 c37 -26 25 -36 -18
-14 -22 11 -40 23 -40 25 0 11 37 4 58 -11z m-81 -60 c47 -23 64 -39 91 -84
30 -50 33 -60 27 -105 -14 -97 -9 -127 29 -204 21 -40 53 -124 71 -185 18 -61
56 -190 85 -286 160 -541 367 -1073 730 -1880 266 -589 418 -1092 596 -1965
47 -230 69 -293 128 -371 20 -26 36 -50 36 -55 0 -22 -191 -152 -249 -169 -29
-8 -33 -7 -42 18 -5 14 -21 79 -34 143 -24 121 -41 164 -81 212 -24 28 -60
135 -89 258 -8 37 -22 149 -30 249 -30 355 -114 646 -388 1340 -162 412 -609
1469 -741 1754 -66 140 -141 249 -238 340 -45 43 -112 107 -148 141 -82 79
-93 84 -192 95 -113 13 -135 38 -107 119 12 35 18 36 109 16 88 -19 99 -19 93
3 -2 10 -20 24 -39 31 -73 27 -124 90 -124 156 0 75 46 133 153 195 61 36 62
37 88 114 43 126 78 160 161 153 26 -2 73 -17 105 -33z m-556 -136 c-7 -40
-11 -84 -9 -97 3 -21 -3 -25 -62 -42 -36 -10 -66 -18 -67 -19 -2 0 -3 32 -3
70 0 91 16 123 72 143 58 21 72 25 77 21 2 -2 -2 -36 -8 -76z m4409 20 c0 -13
-14 -41 -30 -62 l-30 -40 0 30 c0 31 33 94 50 94 5 0 10 -10 10 -22z m89 -73
c26 -42 34 -70 39 -121 l5 -66 -30 6 c-25 6 -31 4 -36 -14 -5 -18 -66 -54 -76
-45 -4 5 21 45 73 120 22 30 36 58 32 63 -9 8 -19 -5 -106 -125 -57 -78 -89
-108 -111 -101 -6 2 24 50 65 107 42 57 76 107 76 112 0 21 -18 5 -70 -60 -30
-39 -58 -70 -63 -70 -15 -2 23 70 84 158 35 50 68 91 74 91 6 0 26 -25 44 -55z
m-3519 -75 c16 -23 19 -34 11 -44 -16 -19 -27 -114 -12 -100 6 6 15 30 19 55
l8 44 28 -45 c163 -260 620 -449 1271 -525 338 -40 680 -29 988 31 98 19 182
34 188 34 14 0 11 -66 -7 -128 -9 -32 -17 -58 -19 -59 -1 -2 -73 -21 -161 -43
-206 -52 -383 -71 -654 -71 -305 -1 -514 24 -780 91 -163 41 -275 82 -430 156
-180 87 -313 178 -437 299 l-103 100 10 45 c14 58 52 190 56 190 1 0 12 -14
24 -30z m-216 -22 c9 -34 8 -38 -9 -38 -10 0 -15 10 -15 30 0 35 15 40 24 8z
m-781 -18 c54 0 59 -9 41 -66 -40 -125 -44 -134 -70 -134 -38 0 -83 28 -90 55
-11 46 44 162 72 151 9 -3 30 -6 47 -6z m4545 -226 l-3 -107 -168 -59 -169
-58 7 42 c11 74 34 144 55 171 12 15 51 37 98 55 92 36 164 61 175 62 4 0 6
-48 5 -106z m-3576 -75 c130 -119 365 -282 515 -358 169 -84 329 -126 702
-181 357 -52 540 -49 981 20 140 22 260 40 266 40 6 0 -18 -80 -56 -182 l-68
-183 -58 -12 c-753 -155 -1364 -147 -1762 22 -196 84 -362 179 -434 249 -54
53 -169 350 -233 606 -15 58 -29 114 -32 124 -7 24 13 7 179 -145z m3462 -303
c-116 -175 -154 -220 -171 -202 -3 3 27 53 66 112 39 59 71 113 71 120 0 32
-24 9 -77 -73 -84 -130 -128 -186 -162 -206 -52 -31 -53 -31 158 269 41 58 87
112 102 120 l28 14 -19 -46 c-11 -25 -20 -48 -20 -52 0 -16 55 49 74 88 14 29
29 46 46 50 14 4 27 5 29 4 2 -2 -54 -91 -125 -198z m136 97 c-24 -75 -83
-173 -131 -218 -42 -40 -69 -55 -69 -40 0 14 150 246 183 282 27 30 32 23 17
-24z m-4398 -52 c64 -28 136 -62 159 -77 135 -85 216 -234 319 -586 39 -130
72 -216 135 -348 137 -289 382 -880 509 -1227 81 -224 137 -400 221 -703 104
-375 153 -517 241 -703 66 -137 79 -175 100 -280 28 -139 44 -183 74 -192 48
-15 75 -116 89 -337 8 -114 15 -158 32 -198 24 -57 88 -118 132 -127 35 -7 57
-38 137 -186 35 -65 76 -129 92 -142 16 -14 55 -32 86 -40 31 -9 92 -29 134
-46 87 -33 143 -36 211 -13 76 26 134 2 65 -27 -18 -7 -59 -37 -90 -66 -104
-96 -146 -106 -291 -72 -54 13 -58 12 -79 -8 -11 -12 -18 -28 -15 -37 8 -20
72 -31 103 -17 21 9 24 8 24 -10 0 -17 4 -20 23 -15 12 3 47 6 77 6 73 0 148
44 205 118 22 30 49 58 59 64 18 10 19 8 12 -33 -27 -166 -288 -335 -485 -314
-110 12 -160 41 -207 121 -24 40 -26 41 -61 34 -64 -15 -99 5 -186 105 -134
154 -230 397 -516 1315 -103 332 -133 443 -215 790 -41 173 -93 383 -116 465
-23 83 -70 256 -105 385 -132 493 -186 628 -570 1440 -57 119 -118 267 -146
353 -31 95 -65 176 -95 226 -75 127 -81 132 -149 140 l-60 6 -36 70 -36 70 32
36 c21 23 36 53 40 79 4 25 11 39 18 36 7 -2 65 -27 129 -55z m4150 13 c-5 -9
-24 -23 -42 -30 l-32 -14 7 27 c9 37 22 51 48 55 25 3 33 -13 19 -38z m-92 12
c0 -2 -7 -23 -15 -46 -8 -23 -15 -45 -15 -47 0 -3 7 0 15 7 21 17 19 4 -4 -28
-10 -15 -33 -57 -50 -94 -18 -38 -36 -68 -42 -68 -14 0 1 50 24 81 13 18 20
46 22 85 3 70 21 114 47 114 10 0 18 -2 18 -4z m393 -30 c3 -7 8 -33 12 -57
l6 -44 -53 -18 c-29 -10 -64 -21 -78 -24 l-25 -6 29 31 c22 24 33 29 46 22 25
-13 30 -3 30 57 0 39 4 53 14 53 8 0 16 -6 19 -14z m41 -167 c3 -17 6 -61 6
-97 0 -62 -2 -67 -38 -101 -44 -42 -169 -105 -327 -166 -131 -51 -275 -96
-275 -87 0 4 12 62 26 129 l27 122 71 21 c39 12 130 49 201 82 206 96 279 128
291 128 6 0 14 -14 18 -31z m-3929 -444 c35 -71 66 -141 70 -155 5 -22 2 -20
-30 15 -20 22 -49 63 -65 91 -28 48 -100 224 -100 241 2 25 70 -80 125 -192z
m3922 143 c-3 -8 -6 -5 -6 6 -1 11 2 17 5 13 3 -3 4 -12 1 -19z m-3483 -118
c15 -52 29 -103 32 -112 9 -30 -22 -21 -34 10 -16 38 -42 158 -42 190 0 44 16
12 44 -88z m3406 5 c-12 -26 -19 -49 -16 -53 3 -3 24 0 47 7 22 7 42 11 44 9
1 -2 -15 -15 -36 -30 -32 -23 -41 -25 -51 -14 -10 11 -21 5 -58 -35 -52 -56
-75 -64 -59 -22 10 27 51 98 113 198 l31 50 3 -32 c2 -17 -6 -53 -18 -78z
m-66 8 c-64 -118 -122 -199 -150 -212 -15 -6 -28 -10 -29 -9 -1 2 -7 12 -13
23 -10 19 -11 19 -21 -7 -11 -29 -45 -68 -60 -68 -15 0 7 68 46 142 33 64 100
138 124 138 12 0 14 4 -29 -77 -18 -35 -28 -63 -22 -63 5 0 27 35 49 78 47 94
73 119 124 121 15 1 12 -9 -19 -66z m-3282 16 c17 -36 50 -180 43 -188 -9 -8
-48 34 -61 65 -7 17 -16 62 -20 99 -6 56 -5 67 7 63 8 -2 22 -20 31 -39z
m3452 19 c8 -14 6 -21 -9 -32 -28 -21 -34 -20 -41 8 -11 45 25 63 50 24z
m-3357 -97 c15 -87 37 -133 28 -56 -3 28 -9 66 -12 85 l-6 35 27 -24 c20 -19
26 -34 26 -65 0 -23 5 -48 11 -56 8 -11 9 3 5 53 -4 37 -3 67 1 67 3 0 34 -9
68 -21 l62 -21 6 -56 c2 -32 12 -73 21 -92 15 -34 15 -33 9 54 -5 79 -4 88 10
83 20 -7 304 -51 447 -69 136 -17 574 -17 700 0 135 19 305 48 448 79 67 14
124 24 127 21 7 -6 -13 -128 -27 -161 -24 -62 -158 -97 -528 -139 -73 -8 -237
-13 -450 -12 -364 0 -490 11 -673 59 -94 24 -305 99 -319 113 -10 11 -48 204
-42 214 3 5 16 3 27 -5 17 -11 25 -32 34 -86z m2938 -79 c-44 -86 -107 -172
-126 -172 -19 0 -7 37 36 119 52 96 54 121 4 36 -35 -60 -89 -128 -95 -122 -2
2 3 26 11 53 25 85 78 140 170 176 22 9 41 12 43 7 2 -4 -17 -48 -43 -97z
m435 -12 c0 -39 -6 -85 -14 -103 -18 -44 -100 -116 -203 -178 -161 -98 -467
-238 -556 -256 -35 -7 -36 -24 15 158 l32 115 79 28 c80 28 262 117 495 241
68 36 130 65 138 65 11 0 14 -16 14 -70z m-577 21 c-3 -11 -14 -27 -24 -37
-18 -17 -19 -16 -19 19 0 32 3 37 24 37 19 0 23 -4 19 -19z m-70 -109 c-1 -86
-4 -99 -23 -114 -52 -42 -63 -5 -35 124 30 146 61 140 58 -10z m-2583 -59
c291 -101 374 -113 752 -113 289 0 492 17 805 67 128 20 236 33 240 29 4 -3
-1 -82 -11 -174 -13 -119 -22 -170 -33 -179 -18 -14 -230 -65 -408 -98 -228
-42 -328 -50 -595 -50 -271 1 -458 20 -637 65 -137 35 -161 52 -209 150 -47
92 -144 340 -144 365 0 20 11 17 240 -62z m3176 -119 c-3 -9 -6 -18 -6 -20 0
-2 -10 -4 -22 -4 -20 0 -21 1 -3 20 22 24 40 26 31 4z m-101 -76 c-4 -13 -15
-32 -25 -43 -21 -25 -32 -55 -20 -55 5 0 17 11 27 24 l18 24 37 -29 c34 -28
75 -109 60 -123 -3 -3 -21 -6 -41 -6 -20 0 -51 -4 -69 -9 -17 -5 -32 -6 -32
-2 0 3 16 31 35 61 19 30 35 59 35 65 -1 18 -76 -73 -163 -198 -87 -125 -132
-176 -144 -164 -11 11 10 47 87 147 71 94 116 168 107 176 -3 3 -57 -66 -121
-153 -166 -227 -182 -244 -212 -237 -20 5 -33 -1 -62 -29 -20 -20 -50 -39 -66
-43 l-30 -7 24 39 c13 21 45 68 71 104 51 70 102 161 95 168 -10 10 -32 -17
-130 -168 -58 -87 -109 -161 -114 -164 -6 -3 -15 8 -21 25 -10 29 -6 36 102
180 l112 151 52 -5 52 -5 14 41 c11 34 19 43 40 45 39 5 35 -12 -25 -107 -83
-130 -85 -134 -92 -165 -6 -26 -5 -28 8 -17 9 8 16 18 16 24 0 5 17 33 38 61
72 95 169 241 195 291 29 58 58 87 107 108 19 9 36 16 38 16 2 1 0 -9 -3 -21z
m75 -7 c0 -28 -26 -47 -45 -31 -21 17 -19 29 8 40 33 13 37 12 37 -9z m-237
-73 c-82 -108 -93 -116 -93 -70 0 31 21 55 60 71 35 14 44 13 33 -1z m-3371
-118 c41 -49 148 -290 129 -290 -4 0 -29 21 -56 48 -35 34 -62 76 -98 152 -27
58 -53 117 -57 133 l-9 27 31 -17 c17 -10 44 -34 60 -53z m-445 14 c12 -21 25
-62 29 -91 6 -51 -11 -189 -25 -198 -9 -5 -37 159 -47 269 -7 79 6 86 43 20z
m3636 0 c3 -4 2 -15 -4 -25 -12 -23 -59 -26 -59 -4 0 23 47 45 63 29z m-110
-31 c-7 -2 -19 -2 -25 0 -7 3 -2 5 12 5 14 0 19 -2 13 -5z m-856 -30 c-3 -10
-8 -36 -12 -58 -16 -99 -23 -113 -68 -129 -66 -25 -238 -63 -397 -87 -191 -30
-576 -33 -740 -7 -58 10 -131 20 -163 24 -86 10 -108 33 -131 137 l-6 27 70 0
c39 0 162 -7 273 -16 338 -27 454 -15 992 101 139 30 188 32 182 8z m1357 -18
c-26 -39 -74 -60 -74 -32 0 28 31 57 61 57 29 0 29 0 13 -25z m-609 -27 l-7
-32 32 27 c47 40 53 33 19 -25 -35 -60 -58 -88 -72 -88 -5 0 -6 8 -2 18 14 36
18 75 8 69 -12 -8 -23 14 -23 44 0 14 7 19 26 19 24 0 25 -2 19 -32z m718 -70
l45 -97 -91 -59 c-167 -109 -303 -181 -508 -270 -134 -58 -450 -175 -456 -168
-5 5 25 159 37 191 6 14 113 69 383 193 342 158 383 180 459 242 46 37 84 67
85 66 1 0 22 -45 46 -98z m-3195 70 c7 -7 12 -20 12 -30 0 -17 1 -18 25 -2 14
9 28 15 30 12 2 -2 7 -31 11 -64 7 -53 6 -58 -9 -46 -9 8 -17 26 -19 40 l-3
27 -19 -34 -18 -34 -19 24 c-22 29 -33 72 -24 99 7 23 16 25 33 8z m2405 -33
c24 -50 21 -77 -14 -148 -25 -48 -32 -75 -32 -123 l-1 -61 -59 -22 c-33 -12
-62 -19 -64 -17 -7 7 35 157 77 276 50 141 64 155 93 95z m-3253 -26 c10 -24
9 -57 -5 -181 -19 -169 -26 -200 -43 -206 -11 -3 -9 152 4 356 6 88 17 96 44
31z m994 -23 c21 -70 36 -80 37 -24 0 50 12 31 24 -39 l7 -42 -46 15 c-25 9
-48 19 -51 24 -2 4 -7 33 -11 64 -6 47 -4 56 9 56 10 0 21 -18 31 -54z m2833
32 c-3 -8 -6 -5 -6 6 -1 11 2 17 5 13 3 -3 4 -12 1 -19z m-51 -14 c-3 -9 -6
-19 -6 -24 0 -9 -59 -35 -65 -28 -2 2 5 18 15 36 21 34 68 48 56 16z m-3690
-183 c7 -36 -23 -380 -36 -416 -12 -31 -30 43 -37 150 -5 82 11 307 24 342 8
20 41 -31 49 -76z m1064 9 c146 -28 325 -58 399 -67 162 -20 261 -13 633 46
136 22 274 43 307 47 73 8 69 28 38 -205 l-23 -165 -89 -23 c-218 -55 -326
-68 -565 -67 l-225 0 -199 42 c-208 44 -314 59 -340 49 -14 -6 -13 -12 5 -53
11 -26 18 -55 16 -63 -1 -9 -9 2 -16 24 -7 22 -53 123 -101 225 -102 215 -122
260 -112 260 4 0 126 -23 272 -50z m3028 -34 c30 -44 25 -59 -38 -121 l-50
-49 -68 17 c-110 28 -147 23 -204 -31 -30 -28 -34 -22 -18 24 9 23 28 38 98
71 48 24 120 61 160 83 40 22 78 40 85 40 7 0 23 -16 35 -34z m-4027 -231 c2
-77 3 -193 1 -257 -2 -98 -5 -118 -17 -118 -28 0 -37 51 -36 199 3 320 45 463
52 176z m4151 52 l41 -49 -40 -41 c-22 -23 -49 -55 -61 -70 -55 -73 -280 -238
-502 -367 -344 -200 -825 -418 -855 -388 -6 6 9 131 22 184 5 22 80 62 263
139 119 51 406 200 557 291 160 95 371 253 443 331 63 68 45 72 132 -30z
m-547 -7 c-9 -17 -38 -65 -66 -107 -27 -42 -52 -88 -56 -102 -3 -14 -20 -43
-37 -63 -17 -20 -42 -51 -55 -68 -22 -30 -101 -78 -101 -62 0 4 6 16 13 27 8
11 22 34 33 50 18 29 18 30 0 15 -11 -8 -35 -39 -53 -68 -38 -59 -96 -103
-101 -77 -2 10 -15 2 -41 -25 -30 -31 -45 -40 -72 -40 -19 0 -45 -9 -59 -20
-31 -24 -50 -25 -50 -4 0 15 -3 15 -26 -1 l-27 -17 7 43 c10 60 54 137 96 165
19 13 38 24 43 24 14 0 -4 -41 -44 -106 -22 -34 -39 -65 -39 -70 1 -11 27 21
91 113 28 40 55 70 60 67 14 -8 11 -42 -7 -75 -28 -55 -6 -43 25 13 18 31 43
60 57 67 25 11 26 10 22 -14 -3 -14 -4 -25 -2 -25 5 0 83 117 90 133 3 9 -9
18 -36 27 -43 14 -48 25 -26 55 12 17 16 18 32 5 14 -12 18 -12 22 -2 5 16 43
52 54 52 7 0 11 -12 21 -65 3 -16 5 -14 11 10 12 50 29 76 58 91 15 8 31 14
37 14 14 0 -19 -87 -57 -148 -18 -30 -32 -58 -30 -64 5 -13 88 103 88 122 0
35 62 132 94 146 45 19 48 17 31 -16z m124 -27 c-51 -56 -50 -55 -69 -43 -29
18 45 89 94 90 15 0 9 -10 -25 -47z m106 27 c3 -5 21 -10 38 -10 l32 -1 -37
-34 c-21 -19 -43 -33 -50 -31 -7 3 -26 7 -42 11 l-29 6 34 35 c35 36 44 40 54
24z m-3775 -97 c7 -30 12 -96 13 -146 2 -119 -13 -347 -23 -347 -12 0 -34 60
-33 94 0 17 1 135 2 261 1 202 3 228 16 211 8 -10 19 -43 25 -73z m4330 53
c18 -23 29 -125 19 -191 -24 -160 -140 -299 -492 -593 -78 -64 -373 -259 -532
-350 -210 -120 -579 -272 -702 -289 l-46 -6 6 48 c4 26 7 65 7 86 0 21 6 44
14 52 8 7 56 28 107 46 52 18 243 106 424 196 271 133 361 183 503 278 464
312 561 415 584 625 10 89 11 90 42 100 44 14 52 14 66 -2z m-3928 -58 c32
-19 47 -37 78 -103 39 -82 90 -217 90 -238 0 -6 -29 17 -65 53 -57 57 -68 73
-94 149 -16 48 -36 103 -45 124 -9 20 -13 37 -10 37 3 0 24 -10 46 -22z m3308
-7 c0 -22 -113 -101 -146 -101 -14 0 7 65 28 87 17 18 32 23 70 23 26 0 48 -4
48 -9z m465 -48 c-7 -50 -64 -187 -79 -192 -5 -1 -23 23 -40 54 l-31 57 70 64
c39 35 74 64 79 64 4 0 5 -21 1 -47z m-665 -7 c-6 -20 -10 -52 -8 -72 3 -35 1
-37 -59 -64 l-62 -28 21 41 c12 23 33 56 47 73 14 17 34 46 44 64 22 41 33 33
17 -14z m-2551 -23 c15 -56 41 -182 41 -199 0 -11 -4 -12 -19 -5 -12 7 -21 26
-25 54 -4 25 -16 62 -26 83 -27 52 -27 104 0 104 14 0 22 -10 29 -37z m63 0
c15 -18 73 -232 64 -240 -12 -12 -46 11 -59 40 -28 59 -49 217 -29 217 5 0 16
-8 24 -17z m1247 -80 c-11 -63 -23 -101 -34 -109 -26 -19 -165 -54 -288 -71
-216 -31 -794 -19 -830 16 -5 5 -21 60 -36 122 -23 94 -25 115 -14 117 29 7
53 -29 53 -77 0 -46 28 -122 49 -135 15 -9 14 3 -8 107 l-18 87 31 0 c17 0 83
-9 146 -21 148 -26 394 -35 525 -20 55 7 165 27 245 45 80 19 157 34 171 35
l25 1 -17 -97z m881 82 c-7 -9 -15 -13 -19 -10 -3 3 1 10 9 15 21 14 24 12 10
-5z m2 -55 c13 -20 13 -20 28 0 10 13 20 17 29 11 20 -13 -25 -71 -55 -71 -33
0 -54 10 -54 26 0 18 -10 17 -34 -1 -21 -16 -76 -21 -76 -7 0 19 43 46 83 53
65 10 66 10 79 -11z m-172 -25 c-7 -8 -19 -15 -27 -15 -13 0 -13 3 -3 15 7 8
19 15 27 15 13 0 13 -3 3 -15z m-2905 -35 c15 -34 17 -52 9 -117 -4 -43 -7
-116 -5 -163 3 -96 -6 -170 -19 -170 -5 0 -16 13 -24 28 -21 42 -10 462 13
462 4 0 16 -18 26 -40z m2801 -41 c-34 -73 -56 -162 -56 -225 0 -41 -26 -72
-67 -80 -31 -6 -33 -5 -33 20 0 29 33 182 56 264 17 56 41 79 97 92 17 4 33 6
35 5 1 -1 -13 -35 -32 -76z m1166 6 c8 -18 6 -32 -8 -62 -11 -21 -27 -39 -36
-41 -9 -2 -35 14 -58 34 l-41 37 28 30 c50 52 92 53 115 2z m-118 -106 c14
-17 26 -35 26 -40 0 -5 -19 -23 -42 -40 l-43 -31 -42 48 c-24 27 -43 51 -43
55 0 10 71 38 97 38 12 1 32 -12 47 -30z m-1674 -33 c0 -44 -30 -201 -51 -263
-14 -42 -30 -69 -47 -82 -35 -25 -137 -56 -237 -72 -115 -19 -384 -17 -545 4
-74 10 -155 20 -180 23 l-45 6 22 -24 c20 -22 53 -127 53 -169 0 -12 -7 -19
-19 -19 -26 0 -36 17 -32 57 1 20 -8 56 -25 90 -14 32 -55 147 -89 257 l-63
199 56 -7 c472 -58 701 -58 997 -1 66 12 139 23 163 24 38 1 42 -1 42 -23z
m-2124 -21 c7 -19 14 -61 14 -93 0 -55 -26 -272 -34 -279 -2 -2 -6 16 -10 39
-7 42 3 368 11 368 2 0 11 -16 19 -35z m3661 -5 c30 -18 53 -63 39 -77 -3 -3
-15 5 -26 19 l-20 26 -37 -19 c-39 -20 -61 -23 -87 -13 -26 10 -19 22 32 54
56 35 58 35 99 10z m433 -257 c-13 -56 -42 -133 -82 -213 -57 -118 -67 -131
-167 -230 -85 -85 -144 -131 -301 -236 -307 -205 -503 -312 -726 -395 -104
-38 -243 -86 -309 -105 -66 -19 -126 -37 -134 -40 -17 -6 -11 66 14 154 24 85
39 99 120 115 153 32 597 207 849 334 286 146 511 373 532 540 9 68 18 80 124
179 l95 89 3 -52 c2 -29 -6 -92 -18 -140z m-593 147 c28 -16 59 -40 67 -52 15
-20 14 -23 -2 -31 -9 -5 -47 -27 -84 -49 -37 -22 -72 -37 -78 -33 -11 7 -73
125 -68 130 9 8 104 65 108 65 3 0 28 -14 57 -30z m118 22 c6 -4 17 -16 25
-26 14 -18 13 -19 -15 -12 -28 7 -44 21 -45 39 0 9 22 9 35 -1z m-3556 -131
c12 -37 14 -229 2 -301 l-7 -45 -23 35 c-21 34 -22 41 -16 175 9 194 16 217
44 136z m3276 -1 l16 -31 -56 -25 c-31 -14 -59 -24 -61 -21 -3 3 0 23 6 46 17
65 69 82 95 31z m-105 3 c0 -5 -11 -28 -25 -52 -29 -51 -30 -52 -10 -45 12 5
15 -4 15 -44 0 -47 -2 -51 -31 -61 -47 -16 -70 -14 -62 6 4 9 -13 -5 -37 -31
-44 -47 -77 -72 -87 -63 -7 8 45 104 60 110 8 3 31 36 52 73 45 80 76 114 105
114 11 0 20 -3 20 -7z m-126 -65 c-11 -36 -76 -128 -90 -128 -24 0 -24 18 -2
60 36 66 109 120 92 68z m-94 -27 c0 -23 -24 -73 -40 -81 -25 -13 -60 -13 -60
1 0 21 22 51 53 69 35 22 47 25 47 11z m344 -6 c-3 -15 -45 -43 -76 -51 -33
-7 -37 9 -12 44 12 18 24 22 52 20 21 -2 36 -7 36 -13z m-2826 -12 c48 -30 73
-57 97 -103 55 -111 188 -720 157 -720 -6 0 -19 19 -30 43 -24 51 -111 291
-146 402 -95 302 -122 395 -114 395 5 0 21 -8 36 -17z m3317 -5 c-36 -118 -89
-167 -95 -88 -4 43 -1 47 42 79 50 37 62 39 53 9z m-1810 -45 c-2 -10 -9 -49
-16 -88 -7 -38 -17 -73 -23 -78 -19 -13 -108 -38 -191 -53 -153 -29 -605 -31
-605 -2 0 5 -10 41 -21 80 -16 51 -24 67 -32 59 -9 -9 -7 -25 7 -62 13 -37 15
-54 7 -62 -8 -8 -15 -5 -25 9 -16 21 -46 119 -46 149 0 20 1 20 317 -6 178
-15 278 -6 468 40 145 36 164 37 160 14z m835 -3 c-8 -15 -20 -20 -53 -19
l-42 1 40 19 c54 25 69 25 55 -1z m850 -101 c25 -48 18 -66 -42 -109 -46 -34
-63 -37 -72 -14 -6 17 9 54 23 54 10 0 24 31 17 37 -3 3 -22 -5 -44 -17 -53
-30 -68 -23 -36 18 26 33 112 84 127 75 4 -2 16 -22 27 -44z m-3586 0 c22 -54
29 -146 19 -229 l-9 -65 -28 43 c-24 35 -29 54 -29 100 0 81 13 192 23 192 4
0 15 -19 24 -41z m2513 14 c-9 -9 -20 -13 -24 -9 -4 4 1 14 11 22 25 18 35 8
13 -13z m183 8 c-1 -14 -48 -58 -68 -63 -27 -8 -28 7 -3 48 16 26 24 31 45 27
14 -3 26 -8 26 -12z m60 -8 l13 -28 11 28 c7 21 16 27 38 27 28 0 28 0 15 -32
-13 -32 -16 -33 -76 -36 l-63 -3 7 28 c6 25 20 42 36 43 3 0 12 -12 19 -27z
m-312 1 c12 -4 22 -11 22 -16 0 -23 -83 -215 -101 -233 -19 -19 -19 -19 -19 5
0 14 5 43 10 65 5 22 15 69 20 105 13 76 22 86 68 74z m152 -8 c0 -21 -26 -67
-42 -72 -25 -8 -27 -5 -21 29 3 16 15 32 27 37 23 10 36 12 36 6z m160 -81
c-7 -8 -21 -15 -32 -15 -17 0 -18 3 -8 15 7 8 21 15 32 15 17 0 18 -3 8 -15z
m-102 -23 c-21 -26 -23 -27 -26 -9 -4 20 13 37 36 37 9 0 5 -10 -10 -28z m742
-73 l0 -80 -62 -29 -63 -30 -33 40 c-53 63 -74 45 -27 -23 l24 -37 -32 -24
c-35 -26 -80 -50 -113 -60 -21 -6 -22 -2 -29 65 -8 83 -10 82 90 134 38 20 90
52 116 71 51 37 109 65 121 58 5 -3 8 -41 8 -85z m-827 39 c-9 -24 -17 -44
-18 -46 -7 -9 -135 -39 -135 -32 0 32 22 60 45 60 30 0 59 14 89 41 31 30 37
22 19 -23z m-708 -15 c-39 -247 -45 -258 -173 -283 -110 -22 -501 -1 -674 36
-23 4 -27 12 -33 55 -7 50 -26 129 -40 162 -6 14 -2 17 29 17 29 0 36 -4 40
-22 2 -13 9 -43 15 -68 l10 -45 -3 58 c-2 46 0 57 13 59 9 0 115 2 236 3 202
2 535 32 553 49 16 16 31 4 27 -21z m1597 -35 c-16 -16 -37 4 -28 28 6 16 8
16 23 1 13 -13 15 -19 5 -29z m-1176 -75 c-29 -422 -52 -553 -137 -789 -98
-272 -116 -353 -87 -382 10 -10 8 -12 -11 -10 -29 4 -39 -20 -40 -101 -1 -39
5 -63 21 -90 28 -45 30 -123 5 -233 -25 -106 -47 -136 -134 -178 -66 -31 -75
-40 -109 -98 -21 -34 -50 -74 -66 -87 -41 -34 -118 -56 -223 -62 -79 -5 -96
-3 -132 15 -94 48 -173 199 -173 329 1 105 55 200 141 244 52 26 77 25 89 -7
20 -51 12 -97 -21 -128 -29 -27 -31 -34 -27 -80 6 -65 32 -120 64 -135 14 -6
53 -11 88 -11 l64 0 4 38 c3 20 4 38 4 39 -1 1 -19 -3 -39 -9 -49 -15 -83 1
-103 47 -15 37 -19 145 -5 145 5 0 25 -7 46 -16 55 -23 78 -14 32 13 -34 20
-37 26 -37 65 0 27 11 67 30 105 29 63 112 163 135 163 27 0 64 43 110 130 49
93 101 150 135 150 13 0 22 9 26 28 4 15 13 36 20 47 8 12 25 66 38 120 15 61
24 88 25 69 1 -18 -10 -71 -24 -119 -14 -48 -24 -90 -21 -92 3 -3 18 4 34 16
38 27 86 167 108 317 15 105 33 164 26 85 -2 -21 -2 -47 0 -57 3 -16 7 -14 21
11 l16 30 1 -30 0 -29 16 23 c21 30 41 163 54 369 10 157 23 242 37 242 3 0 3
-44 -1 -97z m1512 -80 c-9 -141 -64 -251 -187 -371 -126 -125 -381 -285 -605
-382 -61 -26 -181 -80 -266 -120 -266 -124 -551 -230 -618 -230 -12 0 -13 12
-7 68 8 76 23 119 52 145 11 9 82 37 159 61 343 109 406 135 686 278 305 157
453 264 502 364 16 32 56 88 90 123 61 64 169 151 188 151 7 0 9 -31 6 -87z
m-3723 47 c16 -32 20 -97 6 -119 -18 -28 -36 37 -33 117 2 40 7 40 27 2z
m2965 -26 c0 -16 -2 -16 -24 -8 -8 3 -12 12 -10 19 7 17 34 8 34 -11z m-90
-22 c0 -4 -20 -38 -45 -76 -24 -37 -47 -76 -50 -85 -5 -17 -44 -41 -65 -41 -5
0 -2 16 6 36 23 55 10 51 -36 -9 -50 -67 -66 -74 -96 -46 l-23 22 -10 -24
c-11 -29 -27 -44 -59 -54 -19 -5 -25 -2 -29 14 -7 29 -19 26 -27 -5 -5 -17
-19 -30 -42 -40 -20 -8 -38 -13 -40 -11 -2 2 12 28 30 58 19 29 33 56 30 58
-8 8 -46 -34 -65 -71 -19 -38 -53 -68 -77 -68 -9 0 -3 18 18 56 40 68 35 79
-8 19 -17 -25 -36 -45 -42 -45 -13 0 -13 0 10 54 23 50 57 77 70 55 6 -9 17
-6 46 16 35 27 38 27 50 10 12 -16 15 -15 47 19 51 54 68 47 42 -17 -15 -35
20 -7 53 43 35 54 61 63 93 34 16 -15 19 -14 33 15 9 17 27 33 42 37 32 8 37
3 25 -30 -17 -42 6 -30 35 19 26 45 47 64 72 65 6 0 12 -4 12 -8z m55 -10 c6
-4 18 -24 28 -45 l17 -38 -37 -16 c-21 -8 -53 -21 -72 -29 -19 -8 -36 -12 -39
-9 -11 11 32 57 75 79 42 21 45 24 25 30 -12 4 -22 14 -22 22 0 15 9 18 25 6z
m-798 -149 c-10 -180 -25 -206 -26 -46 -1 134 3 163 22 163 7 0 8 -38 4 -117z
m-1075 53 c189 -29 367 -38 473 -26 55 6 124 14 153 17 l52 6 0 -34 c0 -45
-17 -105 -35 -122 -29 -30 -227 -51 -477 -52 -130 0 -239 3 -243 6 -3 4 -14
54 -24 113 -13 78 -15 106 -6 106 6 0 55 -6 107 -14z m2358 -57 c0 -19 -109
-125 -187 -181 -75 -54 -288 -178 -306 -178 -4 0 6 20 24 44 30 43 79 76 112
76 11 0 15 8 14 25 -2 21 18 36 163 125 90 55 168 100 172 100 5 0 8 -5 8 -11z
m-3350 -42 c0 -5 -4 -5 -10 -2 -5 3 -10 14 -10 23 0 15 2 15 10 2 5 -8 10 -19
10 -23z m1640 -119 c0 -11 -29 -150 -31 -153 -2 -2 -19 -7 -37 -12 -29 -7 -46
-27 -24 -28 4 -1 19 -4 34 -8 l26 -7 -20 -72 c-32 -114 -52 -146 -106 -171
-42 -19 -69 -22 -252 -25 l-206 -4 -21 64 c-12 34 -25 79 -29 100 l-6 36 64 6
c299 25 444 48 473 77 11 11 3 10 -170 -17 -164 -25 -278 -35 -322 -28 -41 6
-43 8 -63 62 -12 31 -24 77 -27 103 l-5 46 258 0 c183 0 287 5 354 15 52 9 98
16 103 17 4 0 7 0 7 -1z m1260 -106 c0 -20 -40 -43 -67 -40 l-28 3 23 23 c21
21 72 31 72 14z m-105 -76 c22 -8 39 -18 38 -23 -4 -21 -267 -143 -280 -130
-2 3 -1 16 2 30 11 43 58 87 120 112 71 29 69 29 120 11z m-874 -78 c-9 -31
-9 -31 -10 -6 -1 30 11 67 16 51 2 -6 0 -26 -6 -45z m549 -25 c0 -21 -58 -98
-93 -124 -43 -31 -57 -27 -37 11 21 38 3 32 -21 -7 -13 -21 -28 -41 -33 -45
-13 -9 -56 -11 -56 -3 0 15 35 70 67 106 38 41 63 49 83 24 11 -14 15 -12 31
15 11 17 27 30 39 30 11 0 20 -3 20 -7z m60 -23 c0 -32 -30 -70 -55 -70 -8 0
-15 6 -15 13 0 12 57 87 66 87 2 0 4 -13 4 -30z m-260 -35 c0 -15 -45 -93 -68
-117 -30 -32 -39 -34 -62 -13 -16 14 -19 13 -33 -8 -15 -24 -67 -43 -67 -25 0
5 9 26 20 48 26 51 82 94 115 88 16 -3 30 1 41 13 16 17 54 27 54 14z m850
-31 c0 -3 -16 -29 -35 -58 -43 -65 -184 -202 -285 -278 -189 -141 -612 -347
-767 -373 -47 -7 -52 -2 -66 71 l-6 32 88 20 c171 40 440 160 599 266 67 45
113 90 170 165 15 20 67 52 155 96 131 64 147 71 147 59z m29 -105 c-46 -86
-129 -184 -137 -160 -2 7 25 56 61 110 36 53 69 104 72 113 6 15 34 29 44 22
1 -2 -17 -40 -40 -85z m-1370 -3 c-9 -8 -10 -5 -5 14 3 14 6 32 7 40 1 8 4 2
6 -14 3 -16 -1 -34 -8 -40z m1411 -40 c-12 -43 -63 -106 -76 -93 -4 3 -1 20 6
37 17 40 70 113 77 106 3 -3 0 -25 -7 -50z m-1670 34 c0 -27 -45 -123 -70
-150 -24 -26 -35 -30 -81 -30 -62 0 -56 -19 7 -23 23 -2 39 -8 38 -15 -1 -7
-2 -19 -2 -27 -3 -22 -62 -85 -80 -85 -9 0 -30 13 -47 30 -16 16 -62 45 -100
63 -39 19 -78 43 -87 54 -24 26 -48 87 -48 121 l0 29 128 7 c70 4 159 13 197
20 86 17 145 19 145 6z m1220 -79 c0 -26 -156 -137 -217 -155 -18 -6 -24 -2
-29 19 -9 35 1 42 70 53 48 8 63 15 84 42 31 39 92 67 92 41z m-328 -182 c-2
-20 -12 -42 -25 -53 -22 -18 -22 -18 -27 10 -6 29 -6 29 -18 7 -7 -12 -26 -32
-43 -44 l-31 -22 7 22 c9 29 -10 27 -32 -5 -30 -44 -52 -64 -69 -64 -11 0 -15
6 -11 20 7 28 -5 25 -38 -10 -21 -22 -32 -27 -44 -20 -11 6 -29 1 -59 -16
l-43 -26 15 31 c21 39 20 44 -4 31 -18 -10 -20 -8 -20 24 0 38 -1 37 102 60
32 7 45 -9 26 -32 -31 -36 -28 -45 4 -11 18 20 46 44 62 54 l29 17 -7 -28 c-7
-28 -6 -27 32 14 43 46 62 53 62 22 0 -18 6 -15 38 18 28 30 44 38 67 37 28
-2 30 -5 27 -36z m428 -60 c0 -30 -111 -254 -152 -308 l-18 -24 0 49 c0 27 8
65 18 85 25 54 136 228 145 229 4 0 7 -14 7 -31z m-1592 -48 c48 -60 42 -77
-33 -99 -58 -17 -153 -97 -208 -177 -73 -106 -71 -105 -113 -65 -50 49 -64 80
-64 145 0 59 1 60 31 45 15 -9 26 -5 57 19 20 17 58 38 84 47 26 8 67 33 92
55 45 40 92 69 112 69 6 0 25 -18 42 -39z m1456 -75 c-40 -71 -65 -106 -76
-106 -29 0 -22 36 23 117 30 55 49 77 72 87 18 7 34 12 36 10 2 -2 -23 -50
-55 -108z m201 50 c20 -9 35 -22 35 -32 0 -42 -100 -188 -117 -171 -2 2 13 39
32 82 20 43 34 79 32 81 -8 8 -92 -134 -161 -273 -45 -89 -84 -154 -94 -157
-9 -3 -35 -8 -57 -12 -28 -5 -54 -21 -92 -56 -28 -28 -57 -47 -62 -43 -15 9
-14 49 3 89 14 32 15 33 87 38 71 5 75 7 110 47 20 22 80 126 134 231 53 104
101 190 106 190 5 0 25 -7 44 -14z m108 -67 c-34 -60 -41 -74 -47 -99 -7 -25
-7 -25 18 4 13 16 30 49 37 73 11 40 32 63 57 63 6 0 -12 -53 -39 -117 -27
-64 -48 -121 -46 -126 4 -12 56 69 93 146 27 55 54 75 54 40 0 -9 -23 -66 -51
-126 -28 -60 -49 -111 -46 -113 5 -6 60 73 86 124 22 43 41 48 41 12 0 -37
-40 -125 -92 -202 -68 -101 -101 -105 -62 -8 21 53 12 62 -18 16 -13 -19 -29
-38 -35 -40 -18 -7 -16 42 2 74 25 44 16 45 -28 2 -66 -65 -73 -52 -23 42 26
45 46 87 46 91 0 21 -55 -46 -75 -92 -22 -49 -68 -93 -82 -79 -12 12 71 160
102 181 26 18 30 25 27 61 -2 33 2 48 24 74 28 33 67 54 72 39 2 -4 -5 -22
-15 -40z m-393 36 c0 -37 -69 -119 -86 -102 -15 15 10 70 39 88 32 19 47 24
47 14z m-154 -165 c-19 -45 -54 -114 -77 -153 -42 -70 -134 -175 -145 -165 -6
7 29 79 92 185 26 43 57 102 70 131 26 59 87 125 92 100 1 -8 -13 -52 -32 -98z
m-66 48 c0 -22 -49 -119 -120 -238 -38 -63 -72 -127 -75 -142 -6 -23 -13 -28
-36 -28 -17 0 -29 5 -29 13 0 7 21 46 46 87 25 41 69 117 96 168 66 122 118
184 118 140z m188 -57 c2 -13 -5 -32 -17 -45 -21 -23 -55 -95 -48 -103 4 -3
35 40 73 103 22 37 25 5 4 -44 -22 -52 -80 -115 -87 -96 -2 6 -15 9 -28 6 -22
-4 -25 -1 -25 24 1 40 35 113 73 152 35 36 50 37 55 3z m-288 6 c0 -7 -16 -40
-36 -73 -20 -32 -68 -113 -105 -179 -64 -111 -83 -132 -116 -134 -22 -2 -15
16 42 100 31 44 76 120 100 169 39 78 82 130 106 130 5 0 9 -6 9 -13z m-100
-41 c-5 -13 -23 -50 -41 -81 -18 -32 -42 -76 -53 -98 -24 -47 -52 -64 -41 -26
4 13 22 57 41 96 19 40 34 77 34 82 0 10 50 50 62 51 4 0 3 -11 -2 -24z m-70
-25 c0 -5 -19 -29 -42 -55 -45 -53 -51 -51 -63 22 -7 46 2 53 30 22 24 -26 29
-25 43 6 11 22 32 26 32 5z m671 -65 c-12 -24 -30 -51 -41 -61 -19 -17 -20
-17 -20 -1 0 37 70 141 78 117 2 -6 -6 -31 -17 -55z m-150 23 c-9 -22 -10 -22
-10 -3 -1 11 2 24 6 27 12 12 14 0 4 -24z m-645 -55 c10 -68 -2 -75 -16 -9 -7
33 -14 66 -17 75 -3 10 0 9 11 -4 8 -10 18 -38 22 -62z m420 -57 c-9 -29 -25
-62 -37 -73 l-22 -19 6 54 c5 40 14 62 34 83 34 36 39 24 19 -45z m-474 -139
c7 -210 -24 -286 -129 -322 l-43 -15 0 27 c0 21 -2 24 -10 12 -7 -11 -14 -4
-31 34 -17 40 -20 61 -16 110 5 55 4 59 -9 42 -8 -11 -14 -28 -14 -38 0 -22
-38 -58 -63 -58 -25 0 -15 31 31 93 38 49 47 55 55 35 3 -9 11 -4 25 12 27 33
36 22 23 -27 -13 -46 -14 -83 -2 -83 5 0 11 21 15 48 4 26 13 61 21 77 l13 30
1 -40 c1 -22 -8 -78 -19 -124 -11 -46 -19 -85 -17 -87 2 -2 11 22 21 54 10 31
24 68 32 82 l13 25 1 -35 c0 -19 -5 -52 -11 -73 -12 -45 -9 -51 21 -42 31 10
60 79 60 144 0 66 -10 61 -21 -10 -11 -71 -29 -87 -29 -27 0 104 43 278 69
278 5 0 11 -55 13 -122z m734 39 c-27 -94 -202 -363 -214 -328 -5 14 49 117
142 273 82 139 101 153 72 55z m-87 -19 c-31 -59 -132 -234 -141 -245 -6 -7
-14 -13 -19 -13 -20 0 -6 51 42 152 50 103 70 126 112 127 15 1 16 -2 6 -21z
m-263 -56 c-15 -45 -69 -122 -85 -122 -14 0 9 114 28 140 21 29 64 54 69 40 2
-6 -4 -31 -12 -58z m51 -34 c-3 -18 -9 -42 -13 -52 -6 -16 -4 -18 10 -13 16 6
17 3 11 -30 -10 -56 -23 -77 -40 -63 -7 6 -11 20 -7 33 4 19 1 17 -25 -10 -41
-44 -51 -42 -43 10 8 51 29 93 65 130 37 36 49 34 42 -5z m-250 1 c-5 -17 -3
-18 16 -4 12 8 30 15 39 15 15 0 17 -5 12 -27 -10 -41 -22 -61 -44 -73 -23
-13 -40 -6 -40 16 0 12 -8 9 -31 -10 -17 -14 -37 -26 -45 -26 -20 0 -18 40 4
56 16 12 16 13 0 19 -16 6 -25 35 -14 46 3 2 28 5 56 6 47 2 51 0 47 -18z
m555 -26 c0 -10 0 -29 -1 -41 -2 -20 2 -23 18 -17 29 9 27 -2 -20 -99 -30 -64
-46 -86 -60 -86 -23 0 -24 16 -3 65 22 54 10 54 -27 1 -31 -43 -69 -62 -69
-33 1 24 41 100 86 163 45 63 73 80 76 47z m278 -63 c0 -19 -27 -64 -50 -85
-22 -20 -50 -73 -50 -96 0 -22 38 22 84 95 25 39 55 77 67 84 21 14 22 13 15
-19 -9 -44 -41 -97 -136 -224 -45 -60 -88 -121 -96 -136 -10 -21 -22 -29 -40
-29 -28 0 -27 -4 -7 65 6 18 5 19 -11 6 -9 -8 -24 -28 -32 -44 -14 -26 -19
-28 -54 -22 -47 8 -56 -5 -80 -115 l-16 -75 -43 -3 c-41 -3 -42 -2 -36 20 12
41 85 163 127 212 35 41 44 46 69 41 25 -6 31 -1 63 50 20 30 47 61 61 67 19
9 25 19 25 44 0 40 58 162 79 167 31 9 61 7 61 -3z m-200 -120 c-45 -60 -84
-110 -86 -110 -8 0 18 55 45 94 15 23 40 59 55 81 25 36 54 58 65 49 2 -2 -33
-53 -79 -114z m-625 38 c-4 -13 -34 -70 -68 -128 -82 -141 -128 -232 -122
-238 9 -9 44 43 115 173 71 129 132 215 151 215 6 0 8 -8 6 -17 -3 -10 -8 -31
-12 -47 l-6 -28 28 22 28 22 3 -21 c4 -26 -29 -100 -100 -222 -31 -52 -59
-105 -62 -119 l-7 -25 20 25 c11 14 43 68 72 120 57 104 122 205 140 216 7 4
18 -1 25 -11 11 -15 18 -16 38 -7 29 13 36 7 36 -32 0 -42 -127 -230 -158
-234 -12 -2 -22 2 -22 8 0 6 26 60 57 120 31 60 54 112 51 115 -6 7 -62 -77
-113 -170 -21 -38 -57 -88 -80 -110 -27 -26 -49 -59 -61 -92 -10 -29 -22 -53
-25 -53 -4 0 -11 17 -17 38 -8 31 -10 34 -16 17 -20 -55 -27 -65 -51 -71 -14
-3 -29 -3 -32 0 -4 4 8 36 25 72 18 37 31 68 29 70 -8 8 -36 -33 -73 -105 -32
-62 -44 -77 -78 -92 -45 -20 -96 -25 -96 -9 0 13 65 142 112 225 227 394 225
391 261 394 5 1 5 -9 2 -21z m930 -15 c-20 -48 -46 -87 -151 -229 -132 -177
-152 -142 -25 44 68 98 169 222 183 222 4 0 1 -17 -7 -37z m-1008 0 c-13 -30
-71 -134 -190 -341 -42 -73 -91 -160 -108 -195 -32 -63 -44 -77 -67 -77 -27 0
9 85 103 240 70 115 97 169 93 182 -5 13 -222 -345 -235 -387 -8 -24 -16 -31
-42 -33 l-32 -3 16 38 c9 21 44 83 79 139 66 104 120 203 114 209 -5 5 -177
-275 -208 -338 -22 -44 -29 -51 -50 -49 -14 2 -27 5 -29 7 -7 7 202 387 248
452 21 29 45 29 64 1 l15 -23 15 37 c10 25 28 43 54 56 21 11 57 41 79 66 29
32 49 46 67 46 25 0 26 -1 14 -27z m1043 -70 c0 -33 -27 -79 -85 -148 -23 -27
-59 -76 -79 -108 -36 -55 -60 -77 -73 -64 -3 4 0 21 8 38 29 71 199 309 220
309 5 0 9 -12 9 -27z m-612 -55 c2 -18 -6 -37 -26 -60 -16 -18 -43 -61 -60
-94 -29 -57 -52 -81 -66 -67 -14 15 -3 53 30 109 20 32 48 78 62 102 27 48 55
53 60 10z m82 7 c0 -30 -40 -94 -96 -154 -79 -85 -96 -78 -34 14 15 22 30 49
34 60 7 25 71 95 85 95 6 0 11 -7 11 -15z m550 -55 c0 -29 -25 -74 -82 -149
-28 -36 -54 -74 -58 -87 -11 -27 -60 -39 -60 -14 0 32 169 270 192 270 4 0 8
-9 8 -20z m-538 -69 c-21 -29 -82 -74 -90 -66 -10 10 20 52 49 69 17 10 35 30
41 44 l12 27 4 -24 c2 -14 -5 -35 -16 -50z m479 -114 c-10 -9 -11 -8 -5 6 3
10 9 15 12 12 3 -3 0 -11 -7 -18z m-1462 -14 c-20 -53 -118 -229 -137 -247
-31 -27 -32 -8 -6 74 13 41 22 79 21 84 -1 4 -16 -18 -32 -50 -25 -51 -30 -55
-33 -35 -2 14 2 42 9 64 10 29 21 42 48 53 19 8 50 30 67 49 17 19 41 35 53
35 18 0 19 -3 10 -27z m884 -38 c-15 -45 -62 -105 -82 -105 -33 0 7 91 56 130
38 30 43 25 26 -25z m-271 -38 c-11 -17 -23 -43 -27 -57 -7 -23 -6 -24 9 -11
10 8 28 35 41 60 12 25 32 54 44 65 19 17 21 17 27 2 3 -9 4 -26 0 -39 -7 -31
-127 -218 -148 -231 -31 -19 -32 3 -5 60 31 63 32 68 12 60 -37 -14 -4 114 38
146 21 16 22 16 25 -3 2 -10 -5 -34 -16 -52z m140 -22 c-2 -16 -16 -57 -32
-92 -23 -50 -26 -63 -14 -63 23 0 14 -64 -9 -68 -17 -3 -18 1 -12 30 l7 33
-29 -27 c-84 -80 -64 21 35 170 37 56 59 63 54 17z m162 -97 c-4 -7 -23 -37
-41 -65 -19 -29 -30 -53 -25 -53 5 0 31 25 57 55 25 30 51 53 56 49 16 -10 10
-53 -10 -63 -17 -10 -81 -99 -81 -114 0 -23 26 2 61 57 41 66 61 82 85 68 11
-6 9 -17 -10 -58 -22 -47 -49 -75 -205 -211 l-35 -30 27 -32 c34 -41 34 -76 2
-124 -22 -32 -31 -37 -65 -37 -22 0 -40 2 -40 5 0 3 11 28 25 55 14 28 21 50
16 50 -12 0 -58 -55 -66 -79 -3 -12 -22 -23 -49 -30 -40 -10 -45 -15 -66 -66
-25 -60 -73 -118 -108 -127 -12 -3 -22 -4 -22 -2 0 5 92 157 109 180 9 11 21
19 27 17 5 -2 22 9 36 24 33 36 138 182 138 194 0 21 -35 -9 -71 -62 -38 -57
-84 -98 -95 -86 -6 6 183 264 209 285 9 8 21 11 26 8 10 -6 31 23 31 43 0 22
-73 -16 -99 -52 -132 -183 -162 -217 -192 -217 -17 0 -20 5 -17 25 6 31 -2 32
-31 1 -19 -20 -22 -31 -16 -68 6 -42 8 -44 36 -40 l30 4 -61 -92 c-33 -51 -63
-104 -67 -119 -9 -40 -22 -51 -59 -51 l-35 0 17 33 c9 17 39 65 66 105 27 39
52 80 55 89 14 36 -18 -2 -87 -103 -51 -74 -82 -110 -106 -121 -63 -31 -56 -7
36 122 62 87 84 124 77 131 -5 5 -146 -174 -180 -228 -13 -20 -26 -28 -47 -28
-37 0 -33 12 29 99 64 88 86 123 95 146 13 36 -19 -3 -101 -125 -61 -90 -84
-116 -105 -120 -18 -3 -41 -23 -68 -60 -86 -116 -126 -99 -49 21 16 25 29 56
29 68 0 30 23 73 80 151 47 64 75 110 67 110 -3 0 -37 -43 -76 -95 -39 -52
-78 -95 -85 -95 -8 0 -30 18 -50 41 l-37 40 31 56 c17 30 29 58 26 61 -4 3
-20 -7 -36 -23 -16 -16 -31 -27 -34 -24 -2 2 -6 39 -10 83 l-7 78 28 -7 c37
-9 38 -11 24 -41 -17 -38 -8 -39 33 -4 27 24 36 28 36 16 0 -9 4 -16 9 -16 5
0 12 25 16 55 5 40 12 59 28 70 36 25 42 19 39 -39 -4 -53 -3 -53 22 -49 14 3
26 1 26 -4 0 -16 -40 -63 -54 -63 -18 0 -71 -59 -95 -107 -26 -53 -26 -55 2
-42 12 6 34 35 49 68 19 41 35 61 51 65 13 3 47 33 76 66 49 56 135 119 147
107 10 -9 -35 -84 -60 -100 -22 -15 -24 -20 -15 -47 12 -32 19 -36 35 -20 16
16 56 0 51 -21 -10 -38 29 -1 41 39 7 22 25 56 42 77 58 73 30 76 -33 3 -31
-36 -49 -49 -61 -45 -28 11 -18 32 49 113 79 95 173 164 190 140 7 -10 20 -13
34 -9 21 5 22 3 16 -18 -11 -35 -40 -74 -132 -176 -46 -51 -83 -97 -83 -102 0
-5 7 -11 15 -15 8 -3 15 -13 15 -22 0 -8 6 -14 13 -11 7 2 11 18 9 41 -3 34 2
43 60 104 36 37 77 86 93 110 25 38 67 63 81 49 9 -9 -22 -60 -56 -92 -17 -16
-39 -43 -47 -60 -19 -37 -26 -44 142 140 162 179 190 205 215 205 14 0 19 -4
14 -12z m-93 -20 c-9 -26 -51 -45 -51 -23 0 18 27 45 45 45 11 0 12 -6 6 -22z
m-485 -63 c-27 -46 -69 -85 -92 -85 -16 0 -11 13 30 87 18 33 38 55 55 61 36
12 39 -8 7 -63z m183 48 c-6 -16 -18 -36 -27 -47 -24 -26 -70 -48 -77 -37 -3
6 -16 -1 -30 -15 -13 -13 -31 -24 -39 -24 -12 0 -7 17 21 75 l37 75 63 0 63 0
-11 -27z m-380 -88 c-22 -44 -70 -95 -89 -95 -4 0 -10 9 -13 21 l-6 21 -30
-23 c-24 -18 -33 -20 -45 -10 -12 10 -20 9 -41 -5 -14 -9 -28 -14 -31 -12 -18
19 52 128 82 128 18 0 18 -14 -1 -50 -22 -43 -9 -37 20 10 23 36 67 61 81 47
3 -3 -2 -19 -11 -37 -25 -49 -11 -47 24 4 26 37 63 60 80 50 1 -2 -7 -24 -20
-49z m107 41 c13 -34 -39 -94 -94 -111 -23 -7 -23 -6 -8 30 34 80 86 122 102
81z m1039 -25 c-8 -17 -47 -69 -86 -118 -39 -48 -74 -94 -76 -100 -3 -7 -16
-13 -30 -13 l-24 0 28 52 c15 29 62 87 103 130 79 82 113 101 85 49z m70 -40
c-14 -28 -22 -51 -18 -51 4 0 24 18 44 40 61 67 80 47 31 -31 -16 -24 -79
-107 -141 -184 -119 -148 -167 -223 -177 -273 -8 -37 -22 -44 -68 -31 -35 10
-79 54 -73 73 2 5 16 13 31 17 23 6 29 4 33 -12 3 -10 8 -19 12 -19 8 1 124
156 152 205 13 22 29 46 36 53 7 7 13 19 13 25 -1 7 -15 -5 -32 -26 -17 -21
-39 -42 -49 -48 -17 -9 -18 -7 -9 16 16 42 39 71 67 84 18 8 28 9 33 1 9 -15
80 67 80 94 0 2 -14 0 -32 -5 -17 -5 -33 -7 -36 -5 -7 7 36 81 60 102 31 29
62 45 66 34 2 -5 -8 -31 -23 -59z m-1453 37 c5 -13 -27 -68 -59 -103 -17 -19
-18 -19 -21 -2 -11 57 64 154 80 105z m1181 -30 l-6 -33 32 28 c32 26 71 36
71 18 0 -18 -95 -133 -122 -149 -40 -23 -44 -9 -13 43 15 26 25 49 22 51 -11
11 -40 -12 -57 -46 -12 -24 -29 -40 -46 -44 -14 -4 -28 -5 -30 -3 -5 4 96 149
111 159 5 4 18 8 27 8 14 0 16 -6 11 -32z m383 -71 c-9 -18 -48 -71 -87 -116
-103 -122 -129 -184 -54 -127 19 15 57 60 84 99 51 75 87 114 97 104 11 -11
-8 -48 -55 -110 -93 -121 -95 -153 -3 -51 55 61 60 65 67 44 5 -17 -4 -39 -41
-93 -27 -38 -52 -74 -55 -79 -4 -6 -36 -1 -76 11 -39 12 -87 21 -107 21 l-37
0 23 41 c53 94 240 310 255 295 3 -2 -3 -20 -11 -39z m-1135 -8 c-26 -21 -37
-19 -28 6 4 8 17 15 29 15 l23 -1 -24 -20z m-71 -16 c-1 -21 -20 -34 -45 -31
-27 3 -28 4 -11 21 17 17 56 24 56 10z m-90 -23 c0 -17 -47 -60 -65 -60 -18 0
-21 40 -3 58 15 15 68 16 68 2z m-285 -30 c3 -5 1 -10 -4 -10 -6 0 -11 5 -11
10 0 6 2 10 4 10 3 0 8 -4 11 -10z m86 -12 c-4 -13 -18 -24 -30 -26 -17 -3
-21 2 -21 22 0 22 4 26 30 26 26 0 28 -2 21 -22z m943 -40 c-9 -31 -34 -68
-45 -68 -5 0 -12 12 -15 27 -6 20 -2 31 16 45 32 26 53 24 44 -4z m78 -13 c-5
-25 -52 -93 -93 -134 -34 -32 -69 -57 -69 -47 0 11 93 162 113 184 25 27 54
25 49 -3z m58 -43 c0 -28 -50 -87 -99 -116 -24 -15 -45 -25 -47 -23 -7 7 74
124 97 141 31 21 49 20 49 -2z m9 -118 c-6 -8 -20 -14 -31 -14 -18 0 -17 4 9
50 l28 50 3 -36 c2 -19 -2 -42 -9 -50z m104 -237 c5 -21 5 -43 -1 -53 -8 -14
-11 -9 -17 25 l-7 43 -34 -33 c-37 -36 -42 -33 -19 11 16 30 43 51 60 46 5 -1
13 -19 18 -39z m-743 -42 c0 -55 -54 -124 -107 -138 -30 -7 -29 5 4 66 34 62
103 110 103 72z m-310 -8 c0 -43 -96 -145 -116 -124 -10 10 17 68 49 104 29
33 67 44 67 20z m200 -18 c-11 -38 -53 -95 -81 -110 -49 -26 -34 32 24 94 52
56 70 61 57 16z m-91 7 c10 -11 3 -25 -35 -68 -27 -29 -51 -53 -56 -52 -4 1
-17 2 -28 3 -19 1 -20 3 -5 31 24 46 75 100 95 100 10 0 23 -6 29 -14z m925
-38 c-11 -37 -48 -50 -50 -17 -1 21 16 39 38 39 15 0 18 -4 12 -22z"/>
<path d="M4467 8919 c-60 -14 -91 -34 -144 -93 -79 -86 -84 -109 -93 -416 -5
-157 -5 -292 0 -330 5 -36 10 -119 10 -185 0 -81 3 -116 10 -109 19 19 29 214
30 553 0 226 4 346 12 373 16 55 79 123 133 143 31 12 64 16 114 13 59 -3 83
-11 158 -49 69 -36 92 -54 108 -83 11 -20 23 -36 26 -36 3 0 12 11 19 25 18
34 -1 60 -83 113 -106 70 -221 101 -300 81z"/>
<path d="M4434 8821 c-65 -40 -124 -142 -124 -217 0 -29 19 -79 26 -71 3 3 12
40 19 81 15 85 44 140 83 160 15 8 53 20 86 27 52 11 56 14 40 26 -26 19 -94
16 -130 -6z"/>
<path d="M4165 8630 c-7 -12 2 -30 16 -30 12 0 12 27 0 35 -5 3 -12 1 -16 -5z"/>
<path d="M3908 6575 c3 -26 0 -35 -11 -35 -25 0 -25 -22 0 -78 34 -79 61 -48
28 32 -16 39 -14 42 16 26 17 -10 19 -7 19 19 0 18 -9 38 -22 51 -30 28 -35
25 -30 -15z"/>
<path d="M3835 6437 c-7 -18 30 -123 47 -133 28 -18 17 56 -17 112 -20 32 -25
36 -30 21z"/>
<path d="M3800 6317 c0 -18 11 -49 25 -70 49 -72 58 -32 14 61 -25 50 -39 54
-39 9z"/>
<path d="M5477 8450 c-4 -19 -9 -93 -11 -165 -3 -71 -8 -155 -11 -185 -9 -91
12 -25 30 93 16 111 19 239 5 272 -6 17 -8 15 -13 -15z"/>
<path d="M5521 8342 c0 -82 -6 -173 -15 -225 -10 -54 -12 -95 -7 -105 10 -19
26 71 41 233 15 160 13 222 -5 229 -13 5 -15 -14 -14 -132z"/>
<path d="M5564 8289 c3 -17 6 -38 6 -45 0 -8 5 -14 10 -14 11 0 14 49 4 74
-11 29 -27 17 -20 -15z"/>
<path d="M5578 8130 c-3 -8 -9 -51 -12 -95 -3 -44 -8 -95 -12 -114 -5 -24 -4
-32 4 -27 18 11 34 106 30 181 -2 39 -6 63 -10 55z"/>
<path d="M5098 7833 c-46 -53 -87 -182 -90 -285 -2 -68 4 -88 27 -88 16 0 21
28 29 135 3 47 14 93 35 142 41 96 40 143 -1 96z"/>
<path d="M4980 7420 c-7 -14 -9 -40 -5 -73 11 -78 51 -231 70 -264 16 -27 16
-26 10 45 -5 67 -50 300 -59 310 -3 2 -10 -6 -16 -18z"/>
<path d="M5050 6946 c-13 -35 -13 -71 1 -121 l11 -39 15 28 c10 20 14 47 11
83 -6 66 -23 88 -38 49z"/>
<path d="M5073 6621 c3 -37 13 -86 22 -107 15 -35 17 -37 27 -20 13 23 5 99
-17 154 -26 64 -39 53 -32 -27z"/>
<path d="M1562 7782 c-7 -12 -12 -42 -10 -65 l3 -42 13 43 c7 24 12 53 10 65
l-3 22 -13 -23z"/>
<path d="M460 7205 c0 -32 32 -76 83 -114 54 -41 156 -95 163 -88 11 11 -12
40 -59 74 -29 21 -78 62 -111 91 -62 55 -76 62 -76 37z"/>
<path d="M4590 6984 c0 -8 5 -12 10 -9 6 3 10 10 10 16 0 5 -4 9 -10 9 -5 0
-10 -7 -10 -16z"/>
<path d="M2274 1904 c9 -34 83 -140 132 -190 35 -34 102 -74 126 -74 7 0 -21
33 -62 73 -41 39 -98 103 -125 141 -56 78 -82 97 -71 50z"/>
<path d="M2501 1610 c-22 -13 4 -64 64 -125 48 -50 111 -92 122 -81 13 13 -12
48 -47 66 -26 13 -48 37 -69 74 -37 64 -52 78 -70 66z"/>
<path d="M1736 6092 c-9 -15 13 -122 26 -122 11 0 9 47 -6 95 -8 26 -14 36
-20 27z"/>
<path d="M4240 4519 c0 -5 5 -7 10 -4 6 3 10 8 10 11 0 2 -4 4 -10 4 -5 0 -10
-5 -10 -11z"/>
<path d="M4610 3745 c0 -21 44 -65 65 -65 17 0 13 12 -14 43 -25 30 -51 41
-51 22z"/>
<path d="M3517 3123 c-11 -18 -47 -152 -47 -174 1 -24 1 -24 16 -4 31 39 75
137 72 158 -3 22 -32 35 -41 20z"/>
<path d="M3114 2255 c-29 -32 -48 -45 -67 -45 -33 0 -35 -14 -5 -34 34 -24 66
-19 99 13 23 23 29 39 29 70 0 23 -3 41 -8 41 -4 0 -25 -20 -48 -45z"/>
<path d="M3244 2003 c-35 -51 -40 -53 -133 -60 l-74 -6 27 -24 c57 -49 148
-18 194 65 32 58 22 76 -14 25z"/>
<path d="M4070 3465 c-7 -9 -11 -18 -8 -20 3 -3 11 1 18 10 7 9 11 18 8 20 -3
3 -11 -1 -18 -10z"/>
<path d="M4170 1651 c-7 -15 -7 -21 0 -21 12 0 25 28 17 36 -3 3 -10 -4 -17
-15z"/>
<path d="M4343 1458 c-32 -36 -55 -76 -51 -90 5 -14 78 78 78 98 0 19 -3 18
-27 -8z"/>
<path d="M3699 1493 c-19 -23 -80 -125 -108 -181 -36 -70 -16 -60 27 15 100
171 119 212 81 166z"/>
<path d="M3442 1487 c-15 -18 -26 -67 -15 -67 8 0 43 62 43 75 0 10 -18 5 -28
-8z"/>
<path d="M3608 839 c-34 -25 -40 -66 -8 -49 20 11 57 70 43 70 -5 0 -20 -10
-35 -21z"/>
<path d="M3875 720 c-3 -5 -1 -10 4 -10 6 0 11 5 11 10 0 6 -2 10 -4 10 -3 0
-8 -4 -11 -10z"/>
<path d="M3180 320 c-6 -11 -8 -20 -6 -20 3 0 10 9 16 20 6 11 8 20 6 20 -3 0
-10 -9 -16 -20z"/>
<path d="M4822 11538 c-7 -7 -12 -19 -12 -28 0 -8 -7 -26 -16 -38 -18 -26 -72
-29 -165 -10 -52 11 -62 9 -128 -14 l-72 -26 -9 24 c-12 31 -20 30 -56 -7 -16
-17 -52 -41 -80 -54 -88 -39 -75 -62 16 -30 23 8 70 15 103 15 34 0 81 7 104
16 47 18 56 15 184 -59 25 -15 77 -38 115 -52 76 -27 98 -47 115 -106 13 -42
20 -47 39 -24 18 21 3 94 -25 120 -13 11 -60 34 -104 49 -45 16 -100 42 -124
60 l-42 31 67 6 c87 7 118 27 118 77 0 47 -11 67 -28 50z"/>
<path d="M4463 10700 c6 -26 3 -33 -13 -37 -11 -3 -20 -14 -20 -24 0 -15 5
-18 33 -13 17 4 42 16 55 28 22 22 22 23 5 43 -10 12 -29 24 -42 28 -23 7 -24
5 -18 -25z"/>
</g>
</svg>
