<?xml version="1.0" standalone="no"?>
<!DOCTYPE svg PUBLIC "-//W3C//DTD SVG 20010904//EN"
 "http://www.w3.org/TR/2001/REC-SVG-20010904/DTD/svg10.dtd">
<svg version="1.0" xmlns="http://www.w3.org/2000/svg"
 width="640.000000pt" height="1280.000000pt" viewBox="0 0 640.000000 1280.000000"
 preserveAspectRatio="xMidYMid meet">
<metadata>
Created by potrace 1.15, written by Peter Selinger 2001-2017
</metadata>
<g transform="translate(0.000000,1280.000000) scale(0.100000,-0.100000)"
fill="#000000" stroke="none">
<path d="M2960 12785 c-190 -53 -263 -87 -321 -153 -75 -85 -118 -222 -120
-379 0 -43 -4 -104 -8 -136 -4 -31 -4 -54 0 -50 19 20 39 111 39 173 0 148 59
320 133 386 54 49 145 90 230 105 104 17 392 7 416 -15 10 -9 35 -16 57 -16
70 0 73 -17 5 -31 -94 -18 -88 -32 12 -24 89 7 141 0 116 -16 -8 -5 -40 -9
-72 -9 -36 0 -56 -4 -52 -10 3 -5 17 -10 30 -10 13 0 27 -4 30 -10 3 -6 -4
-10 -18 -10 -14 0 -31 -7 -38 -16 -12 -15 -11 -16 8 -10 27 8 39 -9 22 -31
-11 -13 -11 -15 6 -12 11 2 24 14 30 27 11 26 52 30 62 7 8 -23 -25 -54 -66
-60 -53 -9 -79 -22 -85 -43 -4 -10 -22 -26 -41 -35 -20 -9 -39 -25 -42 -34 -4
-10 -21 -35 -39 -56 -43 -51 -58 -110 -52 -204 6 -104 29 -151 98 -202 51 -38
59 -41 120 -41 36 0 94 5 129 11 46 7 67 7 75 -1 15 -15 -10 -30 -54 -30 -20
0 -45 -7 -57 -15 -13 -9 -62 -19 -115 -24 -120 -12 -172 -32 -218 -81 -20 -22
-45 -40 -55 -40 -9 0 -46 27 -82 60 -35 33 -70 60 -78 60 -17 0 -20 -16 -5
-25 6 -3 37 -38 70 -76 69 -79 77 -112 33 -131 -43 -18 -63 -39 -63 -65 0 -28
-4 -29 -30 -3 -17 17 -33 20 -120 20 -89 0 -101 2 -120 22 -11 12 -20 25 -20
30 0 14 -62 78 -76 78 -21 0 -28 46 -14 96 9 32 10 48 2 56 -16 16 -44 -48
-46 -106 l-1 -51 48 -24 c26 -13 47 -29 47 -34 0 -26 43 -95 65 -105 24 -11
24 -13 18 -90 -7 -95 1 -146 28 -173 15 -15 33 -19 92 -19 40 0 99 7 130 15
32 8 68 15 80 15 12 0 31 7 41 15 20 15 76 21 76 8 0 -5 -5 -25 -11 -47 -10
-35 -8 -41 15 -65 14 -15 26 -30 26 -33 0 -3 -16 -15 -35 -27 -42 -24 -47 -63
-14 -105 16 -20 19 -34 14 -57 l-7 -31 143 3 144 4 -2 -22 c-2 -17 2 -23 17
-23 28 0 26 -36 -2 -52 -16 -9 -67 -13 -158 -13 -113 0 -140 3 -163 18 -34 22
-35 4 -2 -29 14 -14 23 -30 20 -35 -4 -5 -37 -9 -76 -9 -39 0 -69 -4 -69 -10
0 -5 26 -10 58 -10 31 0 64 -5 72 -10 13 -9 12 -12 -4 -25 -11 -8 -34 -15 -50
-15 -17 0 -74 -20 -126 -45 -52 -25 -101 -45 -107 -45 -7 0 -13 11 -13 24 0
31 60 96 88 96 21 0 39 17 29 26 -10 11 -84 -36 -151 -95 -39 -34 -75 -60 -82
-57 -79 30 -87 31 -509 25 -33 0 -71 0 -84 0 -32 1 -116 -46 -131 -74 -13 -25
-37 -37 -105 -54 -91 -24 -158 -101 -174 -202 -6 -34 -4 -88 5 -153 9 -73 10
-126 4 -191 -12 -119 -65 -409 -85 -464 -8 -24 -15 -54 -15 -68 0 -13 -18 -95
-39 -181 -22 -86 -49 -211 -60 -277 -25 -152 -72 -296 -123 -380 -48 -80 -58
-142 -34 -211 20 -59 20 -65 1 -58 -10 4 -15 0 -15 -11 0 -14 6 -16 27 -12 53
10 152 -58 125 -85 -7 -7 -12 -41 -12 -78 0 -111 -19 -300 -35 -354 -9 -28
-49 -203 -90 -388 -95 -431 -135 -733 -117 -888 8 -65 6 -80 -10 -110 -10 -19
-18 -40 -18 -47 0 -30 -81 -44 -115 -20 -15 12 -17 22 -11 63 4 27 8 58 9 69
2 11 7 29 14 40 20 37 81 337 118 585 14 88 75 395 86 425 25 75 71 397 73
520 1 73 -15 145 -33 145 -3 0 -6 -57 -7 -128 -1 -144 -17 -261 -79 -582 -52
-264 -94 -496 -130 -706 -14 -83 -39 -196 -56 -250 -36 -116 -48 -241 -29
-308 11 -40 10 -52 -10 -113 -29 -86 -69 -167 -109 -217 -31 -39 -38 -56 -23
-56 19 0 73 70 101 132 35 76 91 128 91 83 0 -22 -94 -185 -132 -228 -18 -21
-39 -49 -46 -62 -18 -35 -21 -31 -15 18 l4 42 -20 -23 c-40 -45 -76 -237 -53
-278 11 -18 11 -17 12 6 0 14 16 44 35 68 18 24 39 60 46 80 17 53 57 131 88
172 15 19 40 56 55 83 15 26 33 47 41 47 23 0 19 -86 -7 -166 -20 -60 -23 -87
-21 -209 2 -175 18 -342 34 -361 16 -19 35 -18 44 4 10 25 19 362 11 405 -6
31 -10 35 -34 34 -32 -2 -32 -13 2 182 24 136 36 174 53 158 4 -4 -1 -67 -10
-140 -21 -160 -21 -157 -1 -157 14 0 16 8 10 49 -7 53 8 79 23 39 4 -13 12
-90 15 -173 9 -177 19 -231 50 -265 46 -49 55 -83 33 -115 -13 -16 -14 -15
-15 15 0 18 -6 38 -11 43 -15 15 -15 -67 -1 -94 16 -28 48 -24 56 7 7 29 -5
529 -13 551 -10 25 -19 12 -29 -39 -5 -29 -13 -53 -19 -53 -5 0 -17 56 -27
125 -9 69 -19 146 -23 171 -6 38 -4 47 10 53 32 12 37 -1 50 -116 5 -42 11
-58 21 -58 29 0 47 -70 52 -198 4 -122 12 -140 29 -72 l10 35 15 -30 c13 -26
38 -138 38 -173 0 -7 -7 -12 -15 -12 -9 0 -16 14 -20 38 -19 111 -32 46 -15
-72 12 -83 27 -123 55 -146 14 -12 18 -12 26 1 13 17 4 176 -16 302 -7 51 -13
119 -13 152 1 33 -7 93 -17 132 -19 72 -19 73 0 87 16 12 18 18 9 33 -6 10
-21 19 -33 21 -18 3 -21 -1 -21 -32 0 -19 9 -74 20 -121 25 -107 25 -128 3
-123 -20 4 -25 18 -48 143 -9 50 -25 105 -36 122 -24 39 -22 86 4 91 10 2 33
-8 51 -22 l34 -25 6 24 c4 14 13 25 22 25 17 0 44 -57 45 -97 0 -15 5 -37 10
-48 6 -13 8 13 6 80 -3 77 -9 112 -27 154 -21 49 -24 70 -25 215 0 89 -5 229
-9 311 -10 183 4 298 69 555 24 96 55 227 69 290 13 63 47 195 75 294 28 98
51 189 51 201 0 13 18 46 41 75 47 59 79 124 78 160 0 14 -8 41 -18 60 -17 32
-18 36 -2 59 11 18 16 46 15 96 -1 62 -6 80 -36 136 -45 82 -53 144 -39 321
12 145 61 452 86 534 8 27 15 66 15 86 0 61 89 318 155 448 28 54 104 125 154
141 45 15 76 -8 119 -92 32 -61 33 -67 27 -139 -5 -65 -11 -82 -44 -130 -21
-30 -43 -72 -50 -92 -13 -39 -7 -78 10 -78 6 0 7 9 4 20 -7 23 2 60 16 60 5 0
9 -24 9 -53 0 -44 6 -62 40 -114 50 -75 86 -107 166 -145 117 -55 268 -54 374
3 61 32 108 74 97 86 -4 3 -17 -4 -29 -17 -27 -29 -133 -77 -190 -86 l-43 -7
44 37 c25 21 61 46 81 56 37 19 190 173 190 192 0 5 10 18 23 29 15 12 17 18
8 19 -8 0 -35 -17 -60 -39 -93 -78 -119 -86 -276 -86 -126 0 -145 2 -187 23
-88 43 -148 148 -156 269 -5 79 3 120 18 92 5 -8 16 -47 25 -86 9 -40 31 -94
51 -126 30 -48 42 -58 97 -80 34 -14 81 -33 104 -42 41 -17 46 -17 107 -1 66
18 141 60 150 83 8 20 -7 16 -45 -12 -75 -54 -115 -55 -103 -1 15 69 18 72
126 111 114 42 193 79 203 96 4 6 2 16 -4 22 -7 7 -27 0 -69 -26 -106 -66
-149 -80 -237 -81 -72 -1 -88 3 -156 35 -139 67 -192 135 -193 249 -1 74 10
124 24 115 6 -3 10 -39 10 -78 1 -129 50 -192 188 -238 69 -23 191 -31 245
-16 45 12 31 27 -25 24 l-53 -2 3 30 c4 45 34 78 75 87 45 9 148 60 166 82 18
22 8 20 -68 -11 -90 -36 -193 -38 -269 -4 -68 31 -144 113 -171 186 -26 68
-26 88 -4 83 10 -2 20 -16 24 -34 15 -76 88 -146 191 -186 71 -27 102 -24 128
12 14 19 41 37 80 51 55 20 89 43 79 54 -3 2 -23 -2 -44 -10 -72 -26 -206 -14
-231 20 -7 9 -27 24 -46 33 -37 19 -86 85 -90 122 -4 33 26 34 30 1 5 -34 93
-116 145 -136 34 -13 55 -15 88 -8 42 8 44 10 47 46 3 30 9 40 28 47 38 15 74
12 81 -6 6 -15 8 -15 20 2 11 15 19 74 11 74 -2 0 -32 -9 -66 -20 -105 -33
-180 -21 -239 37 -58 59 -34 70 61 28 109 -48 165 -31 276 85 l55 57 114 12
c130 14 127 15 155 -61 22 -59 38 -72 93 -73 24 0 47 -6 52 -13 10 -17 35 -6
51 22 13 25 56 53 65 44 12 -12 -9 -36 -62 -71 -60 -40 -97 -49 -86 -21 5 15
0 16 -42 10 -89 -14 -96 -27 -39 -74 69 -57 176 -67 247 -23 23 14 46 43 69
86 18 36 36 65 41 65 14 0 7 -62 -13 -101 -12 -22 -39 -58 -60 -79 l-40 -40
-132 0 -133 0 56 -54 c62 -61 102 -76 194 -76 80 1 128 13 163 41 44 36 83 95
89 134 6 40 23 41 37 3 23 -66 -32 -160 -124 -212 -51 -29 -62 -31 -155 -31
-102 0 -104 1 -242 62 -21 9 -16 -65 8 -114 43 -89 155 -138 302 -131 78 3
100 8 146 33 60 33 115 94 134 150 16 46 43 67 57 45 18 -28 -21 -123 -68
-168 -120 -112 -295 -143 -472 -83 -47 16 -87 27 -89 26 -2 -2 0 -20 3 -39 14
-74 98 -135 225 -162 87 -18 190 -18 215 1 11 8 30 15 42 15 13 0 26 5 29 10
4 6 24 22 46 36 21 13 39 31 39 39 0 7 9 20 19 27 10 7 26 30 34 51 9 20 21
37 26 37 15 0 13 -50 -2 -76 -6 -12 -24 -44 -39 -71 -15 -29 -43 -60 -66 -76
-47 -31 -149 -67 -189 -67 -40 0 -103 -19 -103 -31 0 -5 6 -9 13 -7 7 2 15 -1
17 -7 3 -5 -5 -11 -17 -13 -14 -2 -26 4 -34 20 -16 30 -22 34 -101 58 -37 11
-80 32 -97 46 -38 31 -65 28 -69 -8 -7 -62 86 -182 178 -228 163 -82 349 -48
483 87 75 76 83 89 91 147 11 73 29 43 24 -41 -3 -54 -10 -77 -32 -111 -33
-49 -121 -111 -204 -143 -67 -26 -242 -38 -301 -20 -34 10 -150 72 -215 116
l-28 19 7 -35 c12 -62 61 -153 106 -198 58 -58 158 -105 223 -106 68 0 71 21
3 29 -73 9 -147 46 -207 102 -80 75 -67 85 32 25 92 -56 265 -141 285 -141 25
0 95 26 153 55 96 49 206 171 224 248 4 15 11 25 16 22 16 -10 12 -57 -10
-121 l-21 -59 21 -17 c24 -19 25 -31 6 -47 -10 -8 -16 -9 -21 -1 -11 17 -36
11 -74 -19 -55 -44 -159 -98 -225 -116 -45 -13 -85 -16 -165 -13 -101 5 -104
4 -71 -10 34 -15 155 -19 287 -10 40 2 56 -1 70 -15 17 -18 17 -19 -5 -37 -13
-11 -39 -22 -57 -26 -19 -3 -40 -13 -47 -22 -11 -14 -9 -15 20 -9 119 24 269
134 323 237 l28 55 1 -46 c0 -59 -38 -135 -97 -194 -90 -91 -166 -116 -356
-118 -121 -1 -180 12 -197 44 -6 10 -16 19 -23 19 -7 0 -28 13 -47 30 -19 16
-38 29 -42 30 -29 1 23 -108 77 -163 132 -136 346 -171 522 -86 76 37 155 108
186 169 27 52 38 56 51 17 8 -22 5 -38 -14 -80 -14 -31 -24 -69 -23 -95 1 -45
-17 -54 -27 -14 -5 21 -5 21 -50 -8 -25 -16 -85 -41 -135 -56 -73 -22 -110
-28 -200 -28 -107 -1 -112 0 -189 37 -44 20 -94 49 -112 62 -34 26 -54 32 -54
16 0 -5 21 -32 46 -60 119 -132 385 -186 563 -115 69 27 33 34 -64 13 -85 -19
-135 -19 -135 0 0 5 15 11 33 14 17 3 74 17 125 31 51 15 98 27 104 29 7 1 12
-9 12 -22 1 -33 20 -37 47 -10 21 21 23 21 35 5 7 -10 17 -15 22 -12 17 10 35
145 36 261 1 98 -2 117 -27 177 -15 37 -34 100 -41 142 -8 41 -22 96 -30 121
-9 25 -16 59 -16 75 0 16 -15 76 -34 132 -18 57 -45 139 -59 183 -14 44 -40
121 -58 170 -57 161 -44 252 42 299 29 15 40 17 74 7 77 -21 101 -44 149 -143
49 -98 56 -127 112 -468 23 -139 57 -431 85 -735 13 -131 7 -378 -10 -420 -7
-16 -21 -37 -33 -46 -20 -15 -20 -20 -9 -65 7 -27 23 -66 37 -87 22 -33 23
-42 14 -75 -25 -91 -9 -140 84 -257 31 -38 61 -87 67 -107 10 -38 29 -52 29
-23 0 27 -57 128 -104 185 -50 59 -64 103 -49 153 8 31 11 32 65 35 74 4 131
-12 170 -47 25 -22 32 -37 36 -80 4 -42 1 -54 -13 -65 -16 -12 -17 -27 -11
-187 7 -170 11 -234 41 -661 17 -242 47 -393 106 -534 67 -161 51 -214 -65
-214 -47 0 -70 5 -87 18 l-22 19 17 67 c11 45 13 72 7 84 -16 28 -31 -29 -38
-138 -10 -165 20 -218 115 -205 56 7 75 -7 70 -51 -5 -42 -32 -53 -62 -25
l-25 23 -31 -22 c-37 -26 -60 -20 -60 15 0 49 -18 15 -30 -56 -9 -50 -9 -74
-2 -81 8 -8 13 -3 17 15 9 33 30 51 50 43 13 -5 12 -12 -9 -53 -14 -27 -30
-77 -36 -113 -16 -98 -19 -110 -31 -110 -10 0 -6 67 8 145 8 45 -12 19 -30
-40 -8 -27 -18 -69 -21 -93 -4 -24 -13 -53 -20 -65 -15 -24 -40 -246 -30 -271
8 -20 26 -10 22 12 -1 10 2 17 7 17 6 0 9 -25 7 -58 -4 -84 19 -71 34 19 35
212 48 270 67 289 19 20 19 20 13 -35 -4 -30 -9 -84 -11 -120 l-5 -65 16 34
c13 28 22 83 24 149 0 20 20 14 30 -10 7 -16 6 -53 -3 -117 -12 -89 -14 -96
-42 -111 -38 -21 -51 -56 -34 -95 l12 -30 7 33 c14 61 22 47 15 -25 -7 -72 0
-89 23 -60 5 6 19 91 31 187 23 184 31 204 76 198 15 -2 22 -13 27 -48 10 -65
9 -163 -1 -179 -17 -27 -31 1 -32 67 0 37 -5 76 -10 87 -12 27 -4 -221 8 -254
10 -24 10 -24 17 9 11 56 28 21 24 -49 -3 -68 11 -78 25 -15 5 21 6 171 3 332
-4 190 -3 292 3 292 6 0 12 -15 15 -32 16 -120 39 -323 49 -435 6 -73 14 -133
18 -133 8 0 19 36 19 63 0 11 9 30 20 44 18 23 20 41 20 164 0 103 -5 159 -20
221 -25 102 -28 217 -5 198 41 -34 124 -229 149 -349 15 -73 39 -120 66 -129
10 -4 11 24 6 152 -5 87 -12 171 -17 188 -4 17 -30 63 -57 102 -95 139 -95
139 -103 260 -6 86 -4 125 8 172 l15 61 -31 61 c-75 149 -100 269 -132 632
-27 316 -29 587 -5 690 25 106 31 241 16 356 -14 112 -33 171 -76 230 -35 49
-87 162 -103 224 -82 320 -97 393 -140 680 -43 282 -59 423 -72 615 -13 194
-9 230 28 287 40 59 39 152 -2 234 -33 64 -53 77 -148 89 -42 6 -49 10 -61 39
-25 60 -67 69 -326 74 -270 4 -455 -8 -498 -33 -29 -18 -32 -17 -85 4 -31 13
-77 28 -104 35 -37 9 -49 17 -51 34 -2 16 3 23 21 27 32 8 132 -10 160 -30 12
-8 30 -15 41 -15 19 0 19 0 0 21 -27 31 -76 49 -131 50 -26 0 -56 4 -66 8 -17
6 -17 8 2 33 28 35 27 38 -14 78 l-35 34 47 48 47 48 -52 48 c-29 27 -52 55
-52 63 0 8 9 28 20 44 24 37 25 54 3 100 -16 34 -16 36 5 56 27 24 19 43 -35
88 l-38 31 23 43 c28 53 28 58 -3 87 -14 13 -25 27 -25 31 0 11 76 37 153 53
119 25 189 82 242 199 36 77 48 154 48 297 -1 132 -12 199 -43 265 -11 22 -26
60 -35 84 -20 59 -87 147 -127 167 -18 9 -45 29 -60 44 -15 16 -56 38 -90 50
-57 20 -87 23 -308 26 -197 3 -256 1 -300 -11z m445 -55 c-3 -5 -17 -10 -31
-10 -14 0 -22 4 -19 10 3 6 17 10 31 10 14 0 22 -4 19 -10z m125 -140 c0 -5
-4 -10 -10 -10 -5 0 -10 5 -10 10 0 6 5 10 10 10 6 0 10 -4 10 -10z m180 -400
c0 -5 -5 -10 -11 -10 -5 0 -7 5 -4 10 3 6 8 10 11 10 2 0 4 -4 4 -10z m167
-42 c-3 -8 -6 -5 -6 6 -1 11 2 17 5 13 3 -3 4 -12 1 -19z m-157 -88 c0 -15
-38 -50 -55 -50 -21 0 -30 27 -15 45 14 17 70 21 70 5z m-50 -116 c0 -8 -10
-14 -25 -14 -29 0 -33 15 -8 29 21 11 33 6 33 -15z m0 -230 c0 -17 -22 -14
-28 4 -2 7 3 12 12 12 9 0 16 -7 16 -16z m-230 -84 c0 -5 -5 -10 -11 -10 -5 0
-7 5 -4 10 3 6 8 10 11 10 2 0 4 -4 4 -10z m-170 -20 c0 -5 -4 -10 -10 -10 -5
0 -10 5 -10 10 0 6 5 10 10 10 6 0 10 -4 10 -10z m-330 -106 c0 -8 -5 -12 -10
-9 -6 4 -8 11 -5 16 9 14 15 11 15 -7z m-92 -23 c3 -8 -1 -12 -9 -9 -7 2 -15
10 -17 17 -3 8 1 12 9 9 7 -2 15 -10 17 -17z m207 -21 c3 -5 1 -10 -4 -10 -6
0 -11 5 -11 10 0 6 2 10 4 10 3 0 8 -4 11 -10z m187 -10 c18 0 61 -66 52 -81
-7 -12 -58 -33 -169 -70 -193 -64 -289 -75 -324 -37 -22 23 -37 79 -27 103 3
8 16 19 30 25 13 5 26 15 28 22 4 11 8 10 22 -1 25 -21 196 -10 233 15 40 27
63 33 103 29 19 -3 42 -5 52 -5z m96 -8 c2 -7 -3 -12 -12 -12 -9 0 -16 7 -16
16 0 17 22 14 28 -4z m-338 -2 c0 -5 -5 -10 -11 -10 -5 0 -7 5 -4 10 3 6 8 10
11 10 2 0 4 -4 4 -10z m-190 -20 c0 -5 -4 -10 -10 -10 -5 0 -10 5 -10 10 0 6
5 10 10 10 6 0 10 -4 10 -10z m606 -85 c-5 -20 -48 -45 -77 -45 -20 0 -6 27
34 68 38 39 42 41 45 22 2 -12 1 -32 -2 -45z m104 25 c0 -5 -4 -10 -10 -10 -5
0 -10 5 -10 10 0 6 5 10 10 10 6 0 10 -4 10 -10z m-60 -30 c0 -5 -4 -10 -10
-10 -5 0 -10 5 -10 10 0 6 5 10 10 10 6 0 10 -4 10 -10z m30 -79 c0 -5 -15
-12 -32 -15 -18 -3 -40 -11 -48 -16 -23 -15 5 -30 60 -30 l45 -1 -30 -16 c-36
-20 -178 -29 -217 -14 -31 12 -47 53 -28 76 6 7 24 16 38 18 54 8 212 7 212
-2z m7 -165 c10 -10 -17 -26 -44 -26 -29 0 -36 -13 -19 -35 9 -12 32 -20 77
-24 l64 -7 -35 -19 c-42 -22 -237 -34 -282 -16 -31 12 -69 66 -61 87 13 35
271 70 300 40z m-73 -342 c27 -10 18 -24 -16 -24 -18 0 -39 -4 -47 -9 -19 -12
12 -28 70 -37 62 -8 69 -11 63 -27 -8 -22 -50 -37 -132 -47 -99 -13 -122 0
-122 65 0 61 31 85 111 85 31 0 64 -3 73 -6z m-244 -109 c47 -24 40 -62 -10
-55 -17 2 -70 49 -70 62 0 13 49 9 80 -7z m1170 2 c62 -14 69 -29 28 -60 -23
-17 -32 -19 -50 -9 -13 6 -41 13 -63 15 -22 2 -61 10 -86 17 -42 12 -53 12
-111 -8 -35 -11 -104 -28 -152 -37 -48 -9 -116 -27 -152 -41 -40 -15 -74 -22
-92 -18 -21 4 -36 -1 -59 -20 -38 -32 -50 -32 -80 -4 -31 29 -30 71 3 97 37
29 80 38 219 46 66 3 165 12 220 19 125 17 303 18 375 3z m209 4 c8 -5 11 -16
8 -25 -7 -17 -40 -14 -82 7 -19 10 -19 10 0 18 27 10 57 10 74 0z m-1009 -9
c0 -5 -9 -17 -20 -27 -16 -14 -20 -15 -20 -4 0 16 19 39 32 39 4 0 8 -4 8 -8z
m-446 -105 c21 -58 -112 -155 -141 -102 -10 18 -85 45 -125 45 -16 0 -43 7
-59 16 -17 8 -37 13 -44 10 -7 -2 -16 2 -19 10 -4 11 -17 13 -59 8 -37 -4 -62
-2 -80 8 -24 12 -43 11 -160 -9 -148 -25 -197 -28 -197 -13 0 21 49 60 77 62
15 1 179 2 363 3 240 0 341 3 355 12 16 9 26 8 50 -7 17 -10 34 -30 39 -43z
m-914 -7 c0 -23 7 -52 16 -66 27 -40 6 -51 -53 -29 -51 20 -93 55 -93 80 0 30
38 55 85 55 l45 0 0 -40z m2049 15 c20 -19 -18 -40 -99 -56 -36 -6 -91 -23
-124 -36 -54 -23 -94 -25 -82 -4 3 5 -3 20 -14 34 -37 47 -36 47 144 72 99 14
153 11 175 -10z m459 -10 c53 -22 72 -58 72 -142 1 -37 7 -85 14 -105 11 -31
11 -38 1 -38 -7 0 -15 7 -19 15 -3 8 -12 15 -20 15 -9 0 -13 -6 -10 -13 2 -7
-2 -31 -10 -54 -8 -23 -18 -62 -22 -88 -6 -44 -4 -49 25 -75 34 -31 40 -50 16
-50 -8 0 -15 7 -15 15 0 8 -4 15 -10 15 -16 0 -12 -10 16 -47 l25 -34 -21 -17
c-19 -16 -20 -23 -14 -92 6 -59 12 -79 31 -98 29 -29 29 -42 1 -42 -21 -1 -21
-2 10 -28 39 -33 40 -42 5 -42 l-27 0 35 -36 c31 -33 32 -36 10 -29 l-24 7 21
-27 c25 -31 28 -51 10 -58 -8 -3 -6 -6 5 -6 24 -1 21 -28 -5 -42 l-22 -12 22
-8 c25 -9 30 -29 7 -29 -20 0 -19 -27 2 -39 14 -8 15 -12 4 -25 -11 -14 -9
-20 18 -45 36 -34 43 -81 12 -81 -24 0 -34 -26 -20 -52 10 -19 11 -19 24 -1
10 13 17 15 25 7 17 -17 8 -48 -18 -59 -31 -14 -28 -29 10 -46 27 -11 33 -20
34 -47 1 -17 7 -39 14 -47 10 -12 10 -15 -2 -15 -8 0 -19 5 -25 11 -20 20 -30
6 -21 -28 7 -26 14 -33 34 -33 22 0 25 -4 22 -27 -2 -21 -8 -27 -23 -25 l-20
3 20 -16 c11 -9 29 -22 40 -29 11 -8 17 -17 13 -21 -4 -4 -19 0 -33 9 -15 10
-31 16 -38 13 -15 -5 26 -40 56 -47 32 -8 32 -34 2 -63 -26 -24 -26 -25 -11
-56 18 -35 46 -42 46 -11 0 36 16 21 31 -30 l16 -51 -28 6 c-27 6 -28 5 -24
-26 2 -17 14 -42 26 -55 l22 -24 -24 0 c-26 -1 -24 -3 28 -37 16 -11 16 -12 0
-7 -9 4 -23 1 -31 -5 -16 -14 -33 4 -70 74 l-27 50 6 -57 c6 -52 4 -60 -18
-82 -30 -30 -20 -36 59 -36 54 0 101 -17 137 -48 21 -18 22 -65 2 -82 -24 -20
-84 -14 -117 10 l-30 22 -23 -27 c-19 -25 -26 -27 -59 -22 -75 12 -146 95
-146 169 0 18 13 58 28 88 27 54 27 58 26 235 -1 99 -9 236 -18 305 -9 69 -23
193 -31 275 -9 83 -22 182 -30 220 -8 39 -24 136 -35 215 -31 223 -59 323
-148 520 -68 151 -73 196 -28 254 15 21 42 46 60 57 38 23 120 25 174 4z
m-320 -31 c27 -19 28 -41 2 -49 -19 -6 -73 16 -85 35 -19 30 44 41 83 14z
m-728 -14 c0 -5 -5 -10 -11 -10 -5 0 -7 5 -4 10 3 6 8 10 11 10 2 0 4 -4 4
-10z m-975 -24 l39 -11 -30 -22 c-59 -42 -201 -57 -269 -29 -27 11 -35 21 -35
40 0 15 7 26 18 29 36 10 239 5 277 -7z m1145 -4 c0 -19 -18 -42 -32 -42 -10
0 -11 44 -1 53 13 14 33 7 33 -11z m-1762 -22 c20 -11 64 -32 97 -47 47 -21
55 -27 38 -30 -19 -4 -23 -11 -23 -42 0 -24 8 -49 21 -65 24 -30 18 -47 -13
-38 -20 5 -21 3 -14 -39 l7 -43 -24 22 c-23 22 -24 22 -40 4 -9 -10 -17 -22
-17 -27 0 -18 -34 -45 -57 -45 -29 0 -30 -23 -3 -50 11 -11 20 -22 20 -25 0
-12 -30 -3 -54 16 l-27 21 6 -25 c5 -17 2 -26 -10 -30 -11 -5 -14 -14 -9 -32
4 -17 1 -32 -10 -44 -15 -17 -15 -20 4 -44 23 -29 25 -55 8 -92 -12 -26 -23
-32 -33 -15 -3 6 -11 10 -17 10 -10 0 -8 -15 8 -55 7 -19 7 -19 -13 -2 -37 32
-47 10 -13 -33 27 -35 25 -45 -6 -25 -44 28 -44 11 1 -100 8 -19 8 -19 -12 -2
-27 24 -35 21 -31 -10 3 -24 0 -28 -21 -25 -23 2 -23 2 7 -32 41 -47 48 -73
27 -96 -12 -13 -16 -31 -13 -55 2 -19 2 -35 1 -35 -2 0 -15 12 -28 28 -27 32
-45 24 -21 -10 20 -28 20 -42 1 -34 -12 4 -15 -3 -15 -29 0 -18 -5 -37 -10
-40 -6 -4 -8 -15 -5 -25 4 -12 0 -22 -11 -28 -13 -7 -14 -13 -4 -31 14 -27 7
-51 -15 -51 -17 0 -20 -16 -5 -25 16 -10 50 -82 50 -106 0 -22 -1 -22 -30 6
-37 35 -39 21 -10 -66 12 -34 20 -62 18 -63 -31 -13 -46 -30 -58 -65 -13 -37
-13 -43 0 -52 11 -8 12 -12 3 -16 -26 -10 -14 -33 17 -33 36 0 37 -11 9 -57
-20 -32 -20 -36 -5 -51 14 -15 14 -18 -6 -39 -20 -21 -21 -26 -9 -79 11 -49
11 -58 -2 -72 -9 -8 -22 -12 -31 -9 -13 5 -14 16 -9 53 5 38 3 46 -8 42 -9 -3
-17 -27 -21 -63 -9 -71 -26 -92 -58 -75 -12 6 -28 27 -36 45 -16 40 -9 65 31
113 17 21 22 32 13 32 -27 0 -58 -31 -69 -70 -10 -32 -9 -46 5 -81 22 -55 10
-69 -39 -46 -45 22 -70 74 -61 130 4 22 29 81 57 132 40 76 56 120 84 241 19
82 41 192 49 245 8 53 24 127 35 165 11 38 27 107 35 154 8 47 28 137 45 201
58 227 76 411 57 615 -8 84 -7 96 13 136 28 60 60 87 123 109 68 24 91 23 136
-1z m2073 -10 c6 -16 15 -30 20 -30 5 0 9 -4 9 -10 0 -17 -17 -11 -49 16 -36
30 -40 54 -10 54 13 0 23 -10 30 -30z m153 14 c24 -9 9 -24 -24 -24 -34 0 -60
9 -60 21 0 10 60 12 84 3z m-1954 -34 c0 -5 -4 -10 -10 -10 -5 0 -10 5 -10 10
0 6 5 10 10 10 6 0 10 -4 10 -10z m2046 -15 c17 -17 23 -32 19 -45 -3 -10 1
-33 9 -49 9 -17 16 -32 16 -36 0 -10 -31 -5 -60 10 -34 18 -39 35 -10 35 26 0
26 34 0 78 -23 38 -9 42 26 7z m435 -28 c-13 -13 -15 11 -4 40 7 16 8 15 11
-6 2 -13 -1 -28 -7 -34z m-2028 27 c10 -10 -12 -44 -28 -44 -15 0 -21 31 -8
43 8 9 28 9 36 1z m-263 -44 c0 -5 -2 -10 -4 -10 -3 0 -8 5 -11 10 -3 6 -1 10
4 10 6 0 11 -4 11 -10z m1075 -4 c62 -26 36 -53 -29 -31 -44 16 -50 20 -41 34
9 15 29 14 70 -3z m605 -1 c-7 -9 -15 -13 -17 -11 -7 7 7 26 19 26 6 0 6 -6
-2 -15z m-275 -75 c3 -5 -7 -12 -22 -16 -15 -3 -41 -10 -57 -15 -39 -12 -43
-6 -10 20 28 22 78 28 89 11z m-1615 -36 c0 -8 -4 -14 -10 -14 -5 0 -10 9 -10
21 0 11 5 17 10 14 6 -3 10 -13 10 -21z m166 1 c4 -14 3 -29 0 -33 -9 -8 -26
18 -26 41 0 26 19 20 26 -8z m1779 6 c-3 -6 -11 -11 -17 -11 -6 0 -6 6 2 15
14 17 26 13 15 -4z m-45 -21 c0 -5 -5 -10 -11 -10 -5 0 -7 5 -4 10 3 6 8 10
11 10 2 0 4 -4 4 -10z m-1505 -11 c11 -17 -1 -21 -15 -4 -8 9 -8 15 -2 15 6 0
14 -5 17 -11z m1193 -7 c2 -7 -3 -12 -12 -12 -9 0 -16 7 -16 16 0 17 22 14 28
-4z m-246 -18 c31 -16 42 -30 33 -43 -8 -13 -64 7 -92 32 -42 38 -8 45 59 11z
m-1402 -4 c0 -5 -4 -10 -10 -10 -5 0 -10 5 -10 10 0 6 5 10 10 10 6 0 10 -4
10 -10z m1480 -10 c0 -5 -4 -10 -10 -10 -5 0 -10 5 -10 10 0 6 5 10 10 10 6 0
10 -4 10 -10z m-944 -11 c10 -17 -13 -36 -27 -22 -12 12 -4 33 11 33 5 0 12
-5 16 -11z m-576 -9 c0 -5 -4 -10 -10 -10 -5 0 -10 5 -10 10 0 6 5 10 10 10 6
0 10 -4 10 -10z m-70 -30 c4 -26 0 -40 -10 -40 -5 0 -10 17 -10 37 0 35 16 38
20 3z m150 20 c0 -5 -4 -10 -10 -10 -5 0 -10 5 -10 10 0 6 5 10 10 10 6 0 10
-4 10 -10z m1530 0 c0 -5 -9 -10 -21 -10 -11 0 -17 5 -14 10 3 6 13 10 21 10
8 0 14 -4 14 -10z m250 1 c0 -5 -7 -14 -15 -21 -13 -10 -15 -9 -15 9 0 12 6
21 15 21 8 0 15 -4 15 -9z m-1482 -33 c16 -16 15 -25 -3 -32 -15 -5 -45 18
-45 35 0 13 34 11 48 -3z m289 -44 c-3 -3 -12 -4 -19 -1 -8 3 -5 6 6 6 11 1
17 -2 13 -5z m723 -69 c32 -19 62 -35 67 -35 18 0 63 -41 63 -57 0 -26 -81
-11 -128 23 -39 28 -72 71 -72 93 0 17 7 14 70 -24z m-850 -35 c0 -14 -12 -12
-38 6 -33 23 -27 37 8 19 17 -9 30 -20 30 -25z m1165 10 c3 -5 -3 -10 -15 -10
-12 0 -18 5 -15 10 3 6 10 10 15 10 5 0 12 -4 15 -10z m-1897 -18 c6 -18 -15
-14 -22 4 -4 10 -1 14 6 12 6 -2 14 -10 16 -16z m612 -42 c0 -5 -7 -10 -16
-10 -8 0 -12 5 -9 10 3 6 10 10 16 10 5 0 9 -4 9 -10z m1185 -2 c27 -12 33
-28 11 -28 -25 0 -46 12 -46 26 0 17 2 17 35 2z m955 -12 c0 -3 -4 -8 -10 -11
-5 -3 -10 -1 -10 4 0 6 5 11 10 11 6 0 10 -2 10 -4z m-2020 -46 c0 -5 -2 -10
-4 -10 -3 0 -8 5 -11 10 -3 6 -1 10 4 10 6 0 11 -4 11 -10z m60 6 c0 -3 -4 -8
-10 -11 -5 -3 -10 -1 -10 4 0 6 5 11 10 11 6 0 10 -2 10 -4z m-330 -27 c0 -11
-4 -17 -10 -14 -5 3 -10 13 -10 21 0 8 5 14 10 14 6 0 10 -9 10 -21z m1161
-48 c91 -31 139 -59 139 -81 0 -11 -6 -20 -13 -20 -26 0 -133 59 -162 90 -34
35 -34 35 36 11z m359 10 c0 -12 -20 -25 -27 -18 -7 7 6 27 18 27 5 0 9 -4 9
-9z m266 -27 c-3 -9 -6 -18 -6 -20 0 -2 -7 -4 -15 -4 -18 0 -19 12 -3 28 17
17 31 15 24 -4z m519 -4 c3 -5 1 -10 -4 -10 -6 0 -11 5 -11 10 0 6 2 10 4 10
3 0 8 -4 11 -10z m-2250 -20 c3 -5 1 -10 -4 -10 -6 0 -11 5 -11 10 0 6 2 10 4
10 3 0 8 -4 11 -10z m40 0 c3 -5 1 -10 -4 -10 -6 0 -11 5 -11 10 0 6 2 10 4
10 3 0 8 -4 11 -10z m1415 -20 c0 -5 -4 -10 -10 -10 -5 0 -10 5 -10 10 0 6 5
10 10 10 6 0 10 -4 10 -10z m-1470 -20 c0 -5 -4 -10 -10 -10 -5 0 -10 5 -10
10 0 6 5 10 10 10 6 0 10 -4 10 -10z m182 -5 c0 -14 -29 -31 -38 -22 -9 8 16
39 28 35 5 -2 10 -8 10 -13z m1520 -60 c9 -19 8 -29 -6 -50 -18 -28 -28 -30
-57 -15 -25 14 -24 41 1 68 27 29 48 28 62 -3z m-1802 -37 c32 -71 24 -92 -40
-104 l-33 -7 5 65 c3 36 9 71 12 77 14 23 38 10 56 -31z m160 28 c0 -3 -4 -8
-10 -11 -5 -3 -10 -1 -10 4 0 6 5 11 10 11 6 0 10 -2 10 -4z m168 -38 c-5 -15
-58 -24 -58 -10 0 15 12 22 38 22 14 0 22 -5 20 -12z m912 -62 c25 -14 80 -44
123 -67 79 -42 94 -59 54 -59 -63 0 -130 32 -189 90 -37 36 -57 63 -53 70 5 9
10 9 14 1 4 -6 27 -22 51 -35z m408 17 c4 -14 -29 -17 -91 -6 -27 4 -34 9 -25
15 19 12 111 5 116 -9z m-53 -33 c3 -5 1 -10 -4 -10 -6 0 -11 5 -11 10 0 6 2
10 4 10 3 0 8 -4 11 -10z m-57 -34 c3 -12 -1 -17 -10 -14 -7 3 -15 13 -16 22
-3 12 1 17 10 14 7 -3 15 -13 16 -22z m161 -2 c-13 -16 -39 -19 -39 -4 0 12
32 30 43 23 4 -3 3 -11 -4 -19z m203 -6 c-15 -15 -26 -4 -18 18 5 13 9 15 18
6 9 -9 9 -15 0 -24z m-1748 -11 c-7 -19 -20 -22 -29 -7 -9 15 16 43 27 32 5
-5 6 -16 2 -25z m-64 -19 c25 -63 90 -115 127 -101 16 6 16 5 4 -10 -34 -42
-202 8 -209 62 -3 21 40 81 59 81 3 0 12 -15 19 -32z m168 0 c12 -10 17 -38 7
-38 -13 0 -63 30 -76 46 -12 15 -11 16 21 9 19 -4 41 -12 48 -17z m113 -18
c-42 -39 -61 -43 -61 -15 0 21 49 55 79 55 25 -1 25 -2 -18 -40z m1229 30 c0
-5 -4 -10 -10 -10 -5 0 -10 5 -10 10 0 6 5 10 10 10 6 0 10 -4 10 -10z m248
-72 c2 -9 -10 -31 -26 -49 -28 -31 -30 -32 -60 -18 -38 17 -39 20 -9 46 49 44
89 53 95 21z m-1643 -8 c-3 -5 -13 -10 -21 -10 -8 0 -14 5 -14 10 0 6 9 10 21
10 11 0 17 -4 14 -10z m85 0 c0 -5 -2 -10 -4 -10 -3 0 -8 5 -11 10 -3 6 -1 10
4 10 6 0 11 -4 11 -10z m1381 -98 c30 -25 20 -48 -27 -61 -33 -9 -46 -7 -105
19 -37 17 -72 30 -78 30 -6 0 -11 4 -11 9 0 12 36 18 126 20 56 1 77 -3 95
-17z m198 -131 c12 -8 12 -13 -3 -35 -19 -30 -51 -34 -65 -9 -19 34 32 66 68
44z m171 -67 c0 -9 -5 -14 -12 -12 -18 6 -21 28 -4 28 9 0 16 -7 16 -16z m-36
-66 c8 -13 7 -21 -2 -30 -11 -11 -17 -9 -33 11 -10 12 -16 27 -13 33 9 13 35
6 48 -14z m-72 -95 c63 -57 -45 -137 -236 -174 -31 -6 -62 -5 -85 1 -37 10
-120 83 -104 93 4 3 51 10 103 16 149 18 207 32 242 57 38 28 55 30 80 7z
m-576 -40 c31 -33 48 -63 37 -63 -16 0 -83 62 -83 76 0 22 19 17 46 -13z
m-2011 -103 c8 -12 -5 -60 -16 -60 -11 0 -23 46 -14 59 8 14 22 14 30 1z
m3255 -270 c8 -5 11 -12 8 -16 -10 -9 -38 3 -38 16 0 12 10 13 30 0z m-3195
-38 c0 -18 -20 -15 -23 4 -3 10 1 15 10 12 7 -3 13 -10 13 -16z m3265 -34 c0
-6 -7 -5 -15 2 -8 7 -15 17 -15 22 0 6 7 5 15 -2 8 -7 15 -17 15 -22z m50
-107 c14 -27 13 -41 -5 -41 -14 0 -35 29 -35 49 0 18 29 12 40 -8z m-3356 -37
c20 -20 20 -47 1 -85 -17 -31 -59 -54 -78 -42 -7 4 -20 17 -30 30 -10 13 -29
23 -43 23 -17 0 -24 6 -24 19 0 10 -7 21 -15 25 -46 17 21 43 117 45 39 1 61
-4 72 -15z m66 -115 c0 -5 -4 -9 -10 -9 -5 0 -10 7 -10 16 0 8 5 12 10 9 6 -3
10 -10 10 -16z m-25 -48 c3 -5 1 -12 -5 -16 -5 -3 -10 1 -10 9 0 18 6 21 15 7z
m3365 -80 c0 -6 -4 -13 -10 -16 -5 -3 -10 1 -10 9 0 9 5 16 10 16 6 0 10 -4
10 -9z m-30 -64 c0 -18 -2 -19 -10 -7 -13 20 -13 43 0 35 6 -3 10 -16 10 -28z
m-93 -19 c-3 -7 -5 -2 -5 12 0 14 2 19 5 13 2 -7 2 -19 0 -25z m78 -18 c32
-33 27 -54 -6 -24 -25 22 -43 54 -31 54 4 0 21 -13 37 -30z m-3498 -42 c-3 -8
-6 -5 -6 6 -1 11 2 17 5 13 3 -3 4 -12 1 -19z m3503 -22 c0 -11 -19 -15 -25
-6 -3 5 1 10 9 10 9 0 16 -2 16 -4z m-30 -103 c0 -46 -13 -56 -30 -24 -16 30
-13 54 6 47 13 -5 15 -1 10 21 -5 21 -4 24 4 13 5 -8 10 -34 10 -57z m-3525
-13 c3 -5 1 -10 -4 -10 -6 0 -11 5 -11 10 0 6 2 10 4 10 3 0 8 -4 11 -10z
m3505 -74 c-1 -6 -10 0 -20 13 -11 13 -20 28 -20 35 1 6 10 0 20 -13 11 -13
20 -28 20 -35z m-3575 -62 c-23 -36 -30 -23 -9 18 10 18 19 27 22 20 2 -7 -4
-24 -13 -38z m3582 12 c15 -13 24 -28 20 -32 -11 -12 -61 18 -65 39 -5 24 12
21 45 -7z m-58 -118 c1 -15 -3 -29 -8 -32 -12 -8 -23 56 -14 79 6 18 7 18 14
-1 4 -10 8 -31 8 -46z m-3534 -87 c-8 -14 -22 -44 -31 -66 -14 -33 -18 -36
-21 -19 -4 20 9 79 39 189 l12 40 8 -59 c6 -44 4 -65 -7 -85z m3610 88 c11
-17 -1 -21 -15 -4 -8 9 -8 15 -2 15 6 0 14 -5 17 -11z m-15 -129 c0 -5 -2 -10
-4 -10 -3 0 -8 5 -11 10 -3 6 -1 10 4 10 6 0 11 -4 11 -10z m28 -42 c16 -16
15 -28 -3 -28 -8 0 -15 2 -15 4 0 2 -3 11 -6 20 -7 19 7 21 24 4z m-3578 -48
c0 -5 -5 -10 -11 -10 -5 0 -7 5 -4 10 3 6 8 10 11 10 2 0 4 -4 4 -10z m-95
-46 c-15 -51 -35 -80 -35 -51 0 24 31 97 41 97 4 0 2 -21 -6 -46z m3680 6 c8
-13 -13 -40 -31 -40 -8 0 -14 10 -14 25 0 18 5 25 19 25 11 0 23 -5 26 -10z
m-35 -100 c0 -5 -2 -10 -4 -10 -3 0 -8 5 -11 10 -3 6 -1 10 4 10 6 0 11 -4 11
-10z m56 -17 c-7 -7 -26 7 -26 19 0 6 6 6 15 -2 9 -7 13 -15 11 -17z m-3740
-60 c-11 -20 -15 -23 -16 -10 0 21 24 61 28 48 2 -6 -4 -22 -12 -38z m3740
-20 c-7 -7 -26 7 -26 19 0 6 6 6 15 -2 9 -7 13 -15 11 -17z m-3691 -24 c11
-17 -1 -21 -15 -4 -8 9 -8 15 -2 15 6 0 14 -5 17 -11z m3695 -29 c0 -5 -4 -10
-10 -10 -5 0 -10 5 -10 10 0 6 5 10 10 10 6 0 10 -4 10 -10z m-3805 -159 c3
-5 1 -12 -5 -16 -5 -3 -10 1 -10 9 0 18 6 21 15 7z m3745 -11 c0 -5 -5 -10
-11 -10 -5 0 -7 5 -4 10 3 6 8 10 11 10 2 0 4 -4 4 -10z m80 -9 c0 -6 -4 -13
-10 -16 -5 -3 -10 1 -10 9 0 9 5 16 10 16 6 0 10 -4 10 -9z m0 -66 c23 -28
-16 -48 -50 -25 -13 9 -12 12 4 25 25 19 31 19 46 0z m-20 -65 c0 -5 -2 -10
-4 -10 -3 0 -8 5 -11 10 -3 6 -1 10 4 10 6 0 11 -4 11 -10z m60 -14 c0 -3 -4
-8 -10 -11 -5 -3 -10 -1 -10 4 0 6 5 11 10 11 6 0 10 -2 10 -4z m-3830 -119
c0 -5 -7 -4 -15 3 -8 7 -15 20 -15 29 1 13 3 13 15 -3 8 -11 15 -24 15 -29z
m3865 3 c3 -5 1 -10 -4 -10 -6 0 -11 5 -11 10 0 6 2 10 4 10 3 0 8 -4 11 -10z
m-3805 -16 c0 -8 -5 -12 -10 -9 -6 4 -8 11 -5 16 9 14 15 11 15 -7z m3800 -66
c10 -18 17 -35 14 -38 -7 -6 -54 47 -54 61 0 20 21 8 40 -23z m-3870 -12 c0
-3 -4 -8 -10 -11 -5 -3 -10 -1 -10 4 0 6 5 11 10 11 6 0 10 -2 10 -4z m-45
-85 c3 -5 1 -12 -5 -16 -5 -3 -10 1 -10 9 0 18 6 21 15 7z m155 -21 c0 -15
-24 -22 -57 -18 l-28 4 25 11 c32 15 60 16 60 3z m3530 -40 c11 -11 20 -27 20
-35 0 -18 -45 -49 -59 -41 -18 11 -25 77 -10 87 20 13 27 11 49 -11z m-3710
-14 c0 -16 -18 -31 -27 -22 -8 8 5 36 17 36 5 0 10 -6 10 -14z m3788 2 c16
-16 16 -61 0 -56 -7 3 -18 15 -25 28 -17 35 -1 54 25 28z m90 -48 c-4 -20 -28
-19 -41 2 -8 12 -7 21 3 33 13 16 15 16 27 -1 8 -10 12 -25 11 -34z m62 10 c0
-10 -5 -22 -10 -25 -13 -8 -24 20 -16 41 8 20 26 9 26 -16z m-3810 -41 c16
-59 7 -76 -26 -50 -27 21 -37 21 -138 -1 -39 -8 -50 -8 -57 3 -16 25 -10 48
17 66 25 16 27 16 39 0 11 -16 14 -16 39 4 25 20 28 20 45 5 16 -15 19 -15 36
4 23 25 32 19 45 -31z m-265 1 c10 -16 -15 -40 -41 -40 -17 0 -24 6 -24 18 0
10 3 22 7 25 10 11 51 8 58 -3z m4025 -69 c11 -42 5 -74 -14 -68 -17 6 -30 51
-22 81 9 37 24 32 36 -13z m70 -1 c25 -49 25 -52 -2 -48 -19 2 -24 10 -26 46
-2 23 -1 42 2 42 3 0 15 -18 26 -40z m-3894 -46 c29 -69 -3 -131 -46 -88 -46
46 -43 124 5 124 20 0 29 -8 41 -36z m-196 -57 c0 -49 0 -50 -20 -32 -20 18
-29 93 -13 109 15 14 33 -29 33 -77z m78 24 c4 -66 -11 -86 -39 -52 -21 26
-24 47 -9 86 7 17 16 25 28 23 13 -2 18 -15 20 -57z m200 6 c8 -16 21 -27 33
-27 20 0 27 -34 9 -45 -28 -17 -80 38 -80 85 0 29 21 21 38 -13z m3584 -113
c-4 -128 -22 -229 -42 -229 -22 0 -24 30 -6 82 l16 46 -25 -23 c-31 -29 -38
-23 -30 24 5 25 13 36 25 36 22 0 30 27 30 101 0 57 6 72 24 66 7 -3 10 -40 8
-103z m291 74 c28 -38 57 -92 57 -108 0 -20 -39 9 -70 52 -29 40 -40 88 -21
88 6 0 21 -15 34 -32z m-207 -147 c-8 -161 -13 -186 -31 -171 -23 19 -26 75
-10 200 16 132 22 152 38 125 6 -11 7 -69 3 -154z m83 135 c11 -28 41 -236 41
-283 0 -18 -4 -33 -9 -33 -20 0 -30 31 -40 130 -7 58 -16 123 -20 145 -4 22
-6 46 -3 53 6 19 22 14 31 -12z m226 -156 c3 -5 10 -37 16 -71 5 -33 15 -69
21 -79 9 -14 9 -22 -1 -34 -20 -24 -28 -12 -41 61 -6 36 -16 75 -21 86 -17 31
8 66 26 37z m-555 -197 c0 -70 -17 -136 -32 -127 -11 7 -5 134 8 168 13 33 24
14 24 -41z m176 32 c-3 -9 -11 -13 -16 -10 -8 5 -7 11 1 21 14 18 24 11 15
-11z m218 -112 c7 -52 -2 -143 -14 -143 -5 0 -11 31 -15 69 -11 113 14 179 29
74z m-4347 -5 c-3 -8 -6 -5 -6 6 -1 11 2 17 5 13 3 -3 4 -12 1 -19z m4550 16
c-3 -3 -12 -4 -19 -1 -8 3 -5 6 6 6 11 1 17 -2 13 -5z m-4293 -70 c10 -27 7
-194 -4 -194 -5 0 -10 3 -11 8 0 4 -4 45 -8 92 -5 47 -6 91 -4 97 7 18 20 16
27 -3z m152 -19 c21 -50 24 -160 4 -160 -11 0 -17 15 -21 55 -3 30 -9 74 -13
98 -10 53 9 57 30 7z m174 -255 c0 -5 -4 -10 -10 -10 -5 0 -10 5 -10 10 0 6 5
10 10 10 6 0 10 -4 10 -10z m-333 -57 c-3 -10 -5 -4 -5 12 0 17 2 24 5 18 2
-7 2 -21 0 -30z m333 17 c0 -5 -2 -10 -4 -10 -3 0 -8 5 -11 10 -3 6 -1 10 4
10 6 0 11 -4 11 -10z"/>
<path d="M3385 11051 c-3 -5 -1 -12 5 -16 5 -3 10 1 10 9 0 18 -6 21 -15 7z"/>
<path d="M4644 10354 c-25 -37 -5 -51 29 -20 15 14 27 30 27 36 0 20 -40 10
-56 -16z"/>
<path d="M4814 9245 c-9 -22 1 -29 15 -11 8 10 9 16 1 21 -5 3 -13 -1 -16 -10z"/>
<path d="M4837 9023 c-9 -9 12 -33 29 -33 19 0 18 26 -2 34 -19 7 -19 7 -27
-1z"/>
<path d="M4910 8710 c0 -5 5 -10 10 -10 6 0 10 5 10 10 0 6 -4 10 -10 10 -5 0
-10 -4 -10 -10z"/>
<path d="M2005 10320 c3 -5 8 -10 11 -10 2 0 4 5 4 10 0 6 -5 10 -11 10 -5 0
-7 -4 -4 -10z"/>
<path d="M1936 10279 c-14 -17 -26 -35 -26 -42 0 -13 48 30 61 56 16 28 -7 20
-35 -14z"/>
<path d="M1910 9822 c0 -12 19 -26 26 -19 2 2 -2 10 -11 17 -9 8 -15 8 -15 2z"/>
<path d="M1792 9408 c5 -15 28 -18 29 -3 0 6 -7 12 -17 13 -10 3 -15 -1 -12
-10z"/>
<path d="M1702 8858 c6 -18 28 -21 28 -4 0 9 -7 16 -16 16 -9 0 -14 -5 -12
-12z"/>
<path d="M1645 8610 c4 -6 11 -8 16 -5 14 9 11 15 -7 15 -8 0 -12 -5 -9 -10z"/>
<path d="M1620 8524 c0 -8 5 -12 10 -9 6 4 8 11 5 16 -9 14 -15 11 -15 -7z"/>
<path d="M3121 12694 c0 -11 3 -14 6 -6 3 7 2 16 -1 19 -3 4 -6 -2 -5 -13z"/>
<path d="M3253 12683 c9 -2 23 -2 30 0 6 3 -1 5 -18 5 -16 0 -22 -2 -12 -5z"/>
<path d="M3210 12610 c0 -5 5 -10 10 -10 6 0 10 5 10 10 0 6 -4 10 -10 10 -5
0 -10 -4 -10 -10z"/>
<path d="M3290 12549 c0 -5 5 -7 10 -4 6 3 10 8 10 11 0 2 -4 4 -10 4 -5 0
-10 -5 -10 -11z"/>
<path d="M3210 12526 c0 -9 5 -16 10 -16 6 0 10 4 10 9 0 6 -4 13 -10 16 -5 3
-10 -1 -10 -9z"/>
<path d="M3330 12504 c0 -17 22 -14 28 4 2 7 -3 12 -12 12 -9 0 -16 -7 -16
-16z"/>
<path d="M3298 12433 c7 -3 16 -2 19 1 4 3 -2 6 -13 5 -11 0 -14 -3 -6 -6z"/>
<path d="M2953 12070 c-47 -28 -67 -63 -60 -107 9 -51 45 -84 99 -90 41 -5 46
-3 81 36 47 53 49 86 5 128 -33 30 -69 53 -85 53 -4 0 -22 -9 -40 -20z"/>
<path d="M2650 12027 c-44 -22 -66 -130 -32 -159 59 -52 92 -44 146 36 41 61
53 100 36 121 -16 19 -114 20 -150 2z m20 -52 c0 -14 -4 -25 -10 -25 -11 0
-14 33 -3 43 11 11 13 8 13 -18z m57 -1 c-3 -3 -12 -4 -19 -1 -8 3 -5 6 6 6
11 1 17 -2 13 -5z"/>
<path d="M2507 11984 c-8 -8 9 -50 34 -86 29 -40 33 -30 10 23 -25 55 -36 71
-44 63z"/>
<path d="M2791 11813 c-44 -54 -36 -116 15 -129 55 -14 77 32 54 115 -13 49
-38 54 -69 14z"/>
<path d="M3135 10870 c3 -5 8 -10 11 -10 2 0 4 5 4 10 0 6 -5 10 -11 10 -5 0
-7 -4 -4 -10z"/>
<path d="M3310 10420 c0 -5 5 -10 11 -10 5 0 7 5 4 10 -3 6 -8 10 -11 10 -2 0
-4 -4 -4 -10z"/>
<path d="M3350 10406 c0 -9 7 -16 16 -16 9 0 14 5 12 12 -6 18 -28 21 -28 4z"/>
<path d="M3317 10273 c-4 -3 -7 -14 -7 -24 0 -21 74 -63 96 -55 17 7 19 57 2
74 -13 13 -80 17 -91 5z"/>
<path d="M3395 10016 c-17 -12 -18 -18 -7 -54 18 -59 29 -59 37 -1 8 58 -2 76
-30 55z"/>
<path d="M3060 9920 c0 -5 5 -10 11 -10 5 0 7 5 4 10 -3 6 -8 10 -11 10 -2 0
-4 -4 -4 -10z"/>
<path d="M3371 9814 c0 -11 3 -14 6 -6 3 7 2 16 -1 19 -3 4 -6 -2 -5 -13z"/>
<path d="M3330 9750 c0 -5 5 -10 11 -10 5 0 7 5 4 10 -3 6 -8 10 -11 10 -2 0
-4 -4 -4 -10z"/>
<path d="M3021 9713 c-31 -38 -38 -53 -23 -53 10 0 82 73 82 83 0 19 -32 3
-59 -30z"/>
<path d="M3415 9710 c-3 -5 1 -10 10 -10 9 0 13 5 10 10 -3 6 -8 10 -10 10 -2
0 -7 -4 -10 -10z"/>
<path d="M3040 9487 c-12 -26 -20 -56 -18 -65 2 -10 12 4 26 36 29 67 22 94
-8 29z"/>
<path d="M2267 9433 c3 -51 0 -82 -16 -125 -20 -57 -13 -78 11 -38 15 24 28
26 28 5 0 -33 44 -100 117 -176 65 -68 84 -82 131 -95 46 -14 65 -15 106 -5
66 15 206 85 256 128 22 19 44 32 50 28 21 -13 8 -40 -41 -88 -53 -51 -60 -71
-14 -41 35 23 95 102 95 125 0 10 11 30 24 44 23 25 78 146 70 154 -4 4 -58
-37 -147 -112 l-46 -38 -177 10 c-204 12 -225 19 -322 106 -43 40 -70 74 -91
120 -17 36 -33 65 -35 65 -2 0 -1 -30 1 -67z m156 -188 c15 -14 27 -32 27 -40
0 -17 -36 -28 -71 -23 -20 2 -25 10 -27 42 -6 74 10 79 71 21z m387 -85 c0 -5
-47 -33 -105 -61 -102 -50 -190 -72 -204 -53 -3 5 -19 15 -34 22 -58 25 -8 77
88 91 85 12 255 13 255 1z"/>
<path d="M3365 9465 c20 -49 35 -67 35 -39 0 10 -11 33 -25 49 l-26 30 16 -40z"/>
<path d="M3370 9280 c0 -88 -33 -124 -92 -101 -18 7 -28 20 -33 43 -11 55 -16
68 -25 68 -17 0 -40 -46 -50 -101 -6 -30 -23 -79 -39 -109 -28 -53 -55 -142
-90 -300 -16 -71 -72 -192 -109 -235 -46 -55 -159 -103 -308 -130 -71 -14 -98
-15 -152 -5 -115 20 -192 64 -192 108 0 12 4 11 23 -2 52 -39 167 -85 167 -67
0 6 -17 15 -39 21 -54 14 -162 130 -121 130 6 0 47 -19 93 -43 45 -24 92 -46
105 -50 13 -3 26 -15 29 -28 6 -20 11 -21 63 -16 32 3 74 13 93 22 20 9 40 14
45 11 6 -3 13 1 16 10 3 8 19 20 36 25 30 11 41 29 18 29 -7 0 -44 -8 -82 -17
-174 -42 -404 52 -451 186 -8 24 -15 53 -15 65 1 16 5 13 20 -15 11 -20 26
-39 35 -42 8 -4 15 -13 15 -21 0 -25 59 -65 127 -86 36 -11 67 -19 69 -17 2 1
-22 15 -52 31 -63 33 -144 101 -144 122 0 21 43 17 72 -6 14 -11 63 -38 109
-60 68 -33 94 -40 143 -40 l61 -1 -32 -28 c-18 -15 -33 -31 -33 -34 0 -27 144
40 217 100 40 32 64 76 49 90 -3 3 -44 -14 -92 -38 -84 -43 -90 -44 -178 -44
-107 1 -141 15 -249 103 -80 65 -103 94 -112 145 -9 48 -22 55 -37 20 -17 -41
-17 -394 1 -453 19 -66 73 -113 155 -135 l66 -18 0 -73 c0 -85 12 -94 54 -43
17 20 26 43 26 65 0 36 8 42 28 22 10 -10 15 -8 27 9 16 22 110 63 145 63 17
0 20 -7 20 -50 0 -43 3 -50 19 -50 20 0 61 44 61 65 0 7 6 15 14 18 7 3 23 25
36 49 41 80 231 298 259 298 6 0 11 -10 11 -22 0 -24 -16 -53 -63 -112 -34
-42 -32 -70 5 -74 26 -3 78 -43 78 -59 0 -5 -22 -31 -49 -57 l-50 -49 55 -45
c57 -47 65 -65 37 -81 -13 -7 28 -10 140 -11 96 0 156 -4 152 -9 -3 -6 -26
-13 -50 -17 -53 -7 -70 -24 -26 -24 17 0 34 -7 39 -16 8 -14 13 -14 31 -4 40
21 113 -9 90 -36 -9 -11 -5 -14 23 -14 19 0 39 5 45 11 9 9 19 6 41 -10 25
-17 32 -19 41 -7 7 8 27 22 46 31 19 9 35 22 35 29 0 17 -37 50 -86 74 -76 38
-78 59 -13 111 21 18 39 36 39 40 0 5 -29 27 -65 50 -61 38 -84 71 -49 71 17
0 74 53 74 69 0 5 -31 26 -69 46 -67 35 -91 63 -91 105 0 31 15 31 56 1 49
-36 200 -184 286 -279 52 -58 71 -73 89 -70 22 3 24 7 21 56 -4 50 -3 52 21
52 33 0 110 -72 140 -130 19 -36 30 -46 57 -51 60 -13 64 7 23 89 -32 63 -26
79 32 97 22 6 54 19 70 29 28 16 28 17 5 12 -209 -42 -187 -41 -331 -16 -98
16 -146 29 -179 49 -64 37 -164 141 -190 198 -12 26 -30 64 -40 83 -9 19 -25
58 -34 87 -10 29 -27 67 -40 85 -12 18 -34 67 -48 108 -56 160 -73 200 -85
200 -9 0 -13 -17 -13 -50z m-84 -151 c11 -18 -13 -34 -31 -19 -8 7 -15 16 -15
21 0 13 38 11 46 -2z m54 -19 c0 -5 -4 -10 -9 -10 -6 0 -13 5 -16 10 -3 6 1
10 9 10 9 0 16 -4 16 -10z m41 -40 c20 -6 43 -18 50 -27 12 -15 12 -16 -4 -10
-11 4 -20 1 -23 -8 -4 -8 -10 -12 -16 -9 -5 3 -16 -2 -23 -12 -8 -11 -15 -14
-15 -8 0 11 -58 44 -76 44 -4 0 3 -12 17 -26 16 -18 20 -28 12 -31 -8 -3 -11
-14 -7 -30 6 -21 3 -24 -12 -21 -14 2 -19 12 -20 38 -1 40 -18 43 -47 8 -23
-27 -30 -19 -16 20 8 24 24 38 63 57 57 28 66 29 117 15z m-213 -149 c2 -12
-2 -36 -9 -52 -14 -35 -59 -73 -71 -61 -7 7 20 105 37 133 12 18 40 5 43 -20z
m352 8 c15 -28 4 -38 -15 -13 -17 22 -19 34 -5 34 5 0 14 -9 20 -21z m-67 -45
c27 -10 16 -39 -16 -39 -15 -1 -32 -6 -38 -12 -15 -15 -2 -51 21 -58 10 -3 21
-13 24 -21 4 -10 13 -13 26 -9 11 3 20 2 20 -3 0 -14 -64 -22 -187 -22 l-113
0 0 58 c0 68 16 103 50 114 28 8 186 3 213 -8z m-9 -236 c2 -7 10 -34 16 -60
7 -27 17 -48 22 -48 6 0 8 9 5 21 -5 19 -4 20 12 5 9 -8 35 -19 57 -24 l39 -8
-35 -19 c-22 -11 -65 -19 -121 -23 -120 -7 -193 4 -227 33 -16 13 -42 27 -58
30 -58 13 -59 15 -23 41 19 14 45 30 59 36 63 26 248 37 254 16z m66 -17 c0
-12 -20 -25 -27 -18 -7 7 6 27 18 27 5 0 9 -4 9 -9z m60 -206 c7 -9 10 -19 6
-22 -4 -4 -11 -1 -15 6 -5 7 -14 10 -20 7 -13 -9 -14 -45 -2 -65 8 -12 12 -12
26 3 20 20 39 17 43 -8 7 -34 -61 -50 -208 -51 -128 0 -138 1 -197 29 -35 16
-63 32 -63 36 0 4 16 20 36 35 43 33 97 42 265 44 93 1 119 -2 129 -14z m-14
-196 c10 -17 -13 -36 -27 -22 -12 12 -4 33 11 33 5 0 12 -5 16 -11z m88 2 c3
-5 -1 -14 -9 -21 -13 -10 -15 -9 -15 9 0 21 14 28 24 12z m97 -76 c-1 -15 -24
-12 -29 3 -3 9 2 13 12 10 10 -1 17 -7 17 -13z"/>
<path d="M3317 8854 c3 -7 9 -14 14 -14 14 0 10 17 -5 23 -10 4 -13 1 -9 -9z"/>
<path d="M3410 8610 c0 -5 4 -10 9 -10 6 0 13 5 16 10 3 6 -1 10 -9 10 -9 0
-16 -4 -16 -10z"/>
<path d="M3372 8590 c0 -14 2 -19 5 -12 2 6 2 18 0 25 -3 6 -5 1 -5 -13z"/>
<path d="M3420 8571 c0 -6 5 -13 10 -16 6 -3 10 1 10 9 0 9 -4 16 -10 16 -5 0
-10 -4 -10 -9z"/>
<path d="M3390 8395 c0 -18 31 -35 64 -35 14 0 26 -4 26 -10 0 -5 7 -10 16
-10 13 0 15 6 9 28 -10 41 -22 48 -45 27 -19 -17 -21 -17 -38 -2 -23 21 -32
21 -32 2z"/>
<path d="M2253 9174 c-9 -24 6 -92 32 -144 14 -27 25 -55 25 -63 0 -34 93 -93
126 -80 9 3 118 7 242 7 l226 1 7 29 c12 42 2 49 -32 23 -28 -20 -41 -22 -172
-22 l-142 0 -60 34 c-72 41 -169 115 -188 145 -8 11 -17 33 -20 47 -8 31 -35
46 -44 23z m128 -173 c33 -33 36 -49 13 -58 -20 -7 -51 23 -59 60 -9 36 8 35
46 -2z"/>
<path d="M3560 9183 c0 -20 61 -90 124 -144 92 -78 164 -112 238 -113 70 -1
77 17 11 25 -92 12 -198 76 -303 183 -51 52 -70 66 -70 49z"/>
<path d="M2788 8993 c6 -2 18 -2 25 0 6 3 1 5 -13 5 -14 0 -19 -2 -12 -5z"/>
<path d="M2851 8854 c0 -11 3 -14 6 -6 3 7 2 16 -1 19 -3 4 -6 -2 -5 -13z"/>
<path d="M2454 8825 c45 -34 206 -79 206 -58 0 10 -178 73 -207 73 -17 -1 -17
-1 1 -15z"/>
<path d="M2770 8794 c0 -9 5 -14 12 -12 18 6 21 28 4 28 -9 0 -16 -7 -16 -16z"/>
<path d="M4409 8574 l-24 -27 33 17 c17 9 32 21 32 26 0 17 -16 11 -41 -16z"/>
<path d="M1372 8210 c0 -14 2 -19 5 -12 2 6 2 18 0 25 -3 6 -5 1 -5 -13z"/>
<path d="M3092 8198 c-19 -19 -14 -56 9 -68 25 -14 41 -3 16 11 -21 12 -22 27
0 51 13 15 14 18 2 18 -8 0 -20 -5 -27 -12z"/>
<path d="M3155 8090 c-3 -5 1 -13 10 -16 22 -9 29 1 11 15 -10 8 -16 9 -21 1z"/>
<path d="M3373 8051 c-89 -4 -165 -9 -168 -13 -4 -3 -14 -21 -23 -40 -10 -19
-33 -41 -54 -51 -33 -16 -38 -23 -38 -52 0 -41 22 -69 79 -98 45 -22 71 -50
59 -63 -4 -4 -27 -1 -52 5 -25 6 -68 11 -97 11 -46 0 -55 -4 -84 -35 -54 -57
-82 -168 -50 -195 14 -12 15 -8 10 26 -7 46 24 117 66 147 35 25 99 32 153 17
54 -15 71 -33 80 -81 7 -37 31 -68 43 -55 4 3 -1 28 -11 55 -9 27 -16 64 -14
83 l3 33 110 6 c61 3 123 10 139 14 l30 8 -22 -28 c-23 -29 -29 -60 -12 -70 6
-3 10 1 10 9 0 10 9 16 21 16 19 0 21 -4 16 -36 -6 -34 -5 -36 18 -31 42 7 28
-9 -26 -32 -27 -12 -89 -26 -136 -32 -47 -5 -93 -14 -102 -19 -35 -19 41 -32
170 -28 128 4 164 14 153 43 -3 7 3 16 15 20 14 4 21 15 21 31 0 33 24 31 52
-6 24 -34 36 -37 45 -15 3 9 -2 22 -13 30 -18 13 -17 14 8 26 23 10 31 9 53
-5 31 -20 49 -60 70 -151 24 -104 14 -127 -117 -262 -60 -63 -108 -117 -105
-119 3 -3 17 6 32 20 28 26 63 42 72 33 7 -7 -36 -156 -57 -197 -10 -19 -39
-61 -64 -94 -82 -105 -43 -94 48 14 47 56 58 77 100 208 27 81 59 162 72 181
30 42 44 89 50 166 5 49 0 75 -24 145 -22 63 -28 90 -21 108 5 13 9 41 9 63 0
22 6 54 14 72 18 45 96 113 144 128 38 11 44 10 114 -26 40 -20 84 -48 99 -61
14 -13 30 -24 37 -24 20 0 82 -61 109 -108 24 -41 27 -58 31 -163 6 -171 -8
-210 -113 -315 -64 -63 -91 -99 -126 -168 -44 -87 -72 -116 -116 -116 -24 0
-107 -42 -167 -85 -27 -20 -72 -42 -101 -51 -30 -8 -59 -22 -67 -31 -16 -19
-126 -73 -150 -73 -10 0 -18 9 -20 23 -2 18 -8 21 -32 19 -28 -3 -29 -3 -14
20 9 13 27 57 42 98 15 41 39 96 53 121 14 26 22 52 18 58 -10 17 -22 5 -44
-44 -25 -58 -66 -79 -147 -78 -82 1 -125 24 -181 94 -85 108 -75 57 10 -57 86
-113 70 -144 -39 -78 -114 68 -146 116 -162 242 -5 34 -7 62 -4 62 2 0 22 -16
44 -36 22 -19 42 -33 45 -31 9 9 -15 42 -96 132 -63 71 -83 100 -92 138 -13
54 -24 65 -38 39 -13 -24 10 -92 49 -142 32 -42 45 -81 60 -179 6 -41 18 -90
27 -108 21 -46 93 -117 135 -133 18 -8 36 -18 39 -23 4 -5 35 -23 70 -41 53
-26 68 -39 89 -78 27 -51 21 -74 -10 -40 -11 12 -39 26 -63 33 -23 6 -76 22
-117 35 -55 18 -92 24 -140 22 l-65 -3 -29 58 c-33 67 -100 121 -167 136 -40
8 -174 2 -181 -9 -2 -3 -9 -14 -16 -25 -16 -25 -34 -66 -57 -130 -10 -29 -36
-68 -62 -94 -37 -38 -47 -43 -74 -37 -45 9 -120 -11 -150 -40 -35 -33 -53
-100 -45 -159 6 -34 20 -59 60 -107 29 -35 59 -73 65 -86 7 -13 15 -71 18
-130 9 -160 22 -167 22 -12 1 152 -10 191 -69 245 -68 64 -90 157 -50 208 21
26 73 47 120 47 94 0 170 64 208 172 13 36 33 75 45 86 67 63 189 55 249 -16
45 -54 87 -192 58 -192 -5 0 -13 15 -18 32 -11 42 -36 47 -67 14 -13 -14 -31
-26 -40 -26 -17 0 -21 -25 -5 -35 6 -3 10 -14 10 -23 -1 -16 -1 -16 -11 1 -16
27 -89 20 -89 -9 0 -8 7 -14 15 -14 33 0 47 -92 24 -159 -13 -37 -16 -37 -44
-11 -19 18 -23 18 -43 4 -28 -19 -28 -37 -1 -81 27 -43 18 -53 -21 -24 l-30
22 0 -25 c0 -13 -7 -26 -15 -30 -9 -3 -15 -18 -15 -37 0 -27 -2 -30 -15 -19
-25 21 -19 -11 9 -45 21 -26 25 -28 31 -12 4 9 12 17 17 17 11 0 6 -136 -6
-147 -3 -4 -22 8 -40 26 -52 50 -61 33 -17 -32 30 -43 41 -71 45 -110 19 -188
15 -217 -23 -183 -10 9 -21 16 -24 16 -15 0 -5 -20 28 -60 19 -23 35 -51 35
-62 0 -19 -2 -19 -26 7 -20 21 -28 25 -37 16 -9 -10 -8 -15 6 -25 21 -16 21
-25 1 -47 -14 -16 -14 -20 2 -44 14 -21 15 -30 5 -51 -12 -27 -6 -46 30 -93
l19 -24 0 24 c0 13 4 30 9 38 16 26 24 -9 11 -54 -12 -42 -11 -46 14 -75 27
-33 36 -75 14 -68 -7 3 -21 20 -30 39 -9 20 -23 41 -32 48 -27 23 -20 -27 9
-61 14 -16 25 -37 25 -46 0 -9 14 -35 30 -56 33 -44 38 -66 15 -66 -9 0 -24
20 -35 45 -18 41 -40 60 -40 34 0 -25 56 -112 77 -120 24 -9 31 -33 13 -44 -6
-3 -23 3 -39 14 -49 35 -57 20 -17 -32 20 -26 24 -40 20 -72 -6 -45 24 -105
51 -105 9 0 15 -9 15 -22 0 -12 9 -41 21 -65 22 -46 19 -63 -12 -63 -15 0 -18
5 -14 23 3 13 -4 38 -17 61 -31 54 -50 59 -32 9 7 -21 13 -47 14 -58 0 -31 36
-82 69 -99 33 -17 46 -45 36 -76 -6 -19 -7 -19 -23 -3 -16 16 -17 15 -20 -6
-3 -17 -8 -20 -24 -15 -21 6 -21 6 0 -21 12 -15 22 -36 22 -46 0 -22 45 -77
55 -67 4 4 2 21 -5 37 -13 32 -8 61 9 61 16 0 53 -80 48 -101 -3 -11 -2 -19 1
-19 4 0 21 -11 37 -25 25 -21 28 -26 15 -35 -13 -9 -13 -11 0 -21 11 -7 3 -9
-32 -7 -27 2 -48 2 -48 1 0 -2 18 -12 40 -23 39 -20 46 -40 14 -40 -24 0 -16
-19 16 -35 35 -18 40 -29 9 -20 -14 5 -19 3 -15 -4 4 -6 25 -16 47 -22 32 -10
44 -10 65 2 25 13 28 11 60 -24 19 -20 34 -46 34 -58 0 -30 -22 -19 -45 25
-16 29 -24 35 -40 30 -11 -3 -35 -7 -54 -7 -19 -1 -36 -7 -38 -14 -3 -7 3 -10
15 -6 27 7 61 -13 72 -43 6 -15 18 -24 32 -24 22 -1 22 -1 -3 -15 -15 -8 -29
-21 -33 -30 -3 -8 -12 -15 -21 -15 -8 0 -15 -4 -15 -10 0 -17 29 -11 50 10 27
27 38 25 46 -5 3 -14 10 -25 15 -25 12 0 29 35 29 59 0 12 4 21 10 21 13 0 32
-75 28 -113 -2 -27 -8 -33 -31 -35 -16 -2 -36 -1 -45 3 -13 5 -9 10 16 25 18
11 32 27 32 35 0 15 -2 15 -22 1 -12 -9 -32 -16 -44 -16 -17 0 -21 -5 -17 -20
3 -10 11 -25 19 -31 21 -17 17 -27 -10 -22 -20 4 -25 -1 -37 -41 -7 -25 -17
-46 -21 -46 -4 0 -8 -7 -8 -15 0 -9 -9 -15 -23 -15 -12 0 -39 -11 -59 -25 -20
-14 -50 -25 -65 -25 -39 0 -89 33 -110 72 l-18 33 -3 -38 c-4 -45 -22 -56 -57
-33 -77 51 -105 198 -64 346 30 113 31 241 0 365 -12 49 -31 166 -42 260 -11
93 -26 208 -34 255 -13 75 -35 226 -81 555 -24 172 -34 268 -34 330 0 78 -10
135 -23 135 -17 0 21 -481 53 -660 6 -30 19 -129 30 -220 27 -225 66 -475 92
-595 31 -145 36 -299 12 -383 -13 -45 -19 -98 -19 -162 1 -91 3 -99 45 -190
l45 -95 0 -145 1 -145 46 -110 c43 -103 148 -432 148 -465 0 -8 26 -113 59
-235 32 -121 75 -308 96 -415 44 -226 174 -757 239 -975 67 -225 67 -218 7
-306 -27 -41 -79 -107 -115 -147 -36 -40 -66 -77 -66 -82 0 -5 -53 -52 -119
-104 -101 -81 -131 -111 -131 -132 0 -10 55 -2 86 12 34 16 45 39 22 46 -8 3
-3 14 14 31 34 34 52 35 46 2 -6 -28 3 -32 22 -10 21 26 29 17 32 -37 2 -42 7
-54 21 -56 10 -2 24 4 31 14 8 10 18 14 26 9 9 -5 5 -14 -14 -32 -28 -26 -35
-48 -11 -39 24 9 18 -18 -10 -44 l-25 -23 0 21 c0 31 -15 27 -43 -10 -82 -109
-65 -157 27 -77 25 22 46 39 46 37 0 -3 -11 -32 -25 -66 -30 -74 -31 -82 -5
-82 21 0 150 143 150 166 0 7 9 18 20 24 11 6 20 16 20 21 0 6 21 39 46 72 25
34 56 82 69 107 13 26 31 52 39 59 27 22 20 -28 -9 -71 -25 -37 -33 -68 -16
-68 13 0 27 21 42 64 16 45 64 100 79 91 5 -3 10 -21 10 -40 0 -25 -9 -43 -34
-70 -19 -20 -37 -49 -41 -64 -11 -50 -43 -93 -68 -89 -26 4 -35 41 -16 64 18
21 5 27 -14 6 -58 -63 -194 -329 -178 -345 13 -13 65 18 81 49 8 16 31 45 52
65 48 49 139 172 173 234 15 28 42 66 60 85 46 47 64 95 72 187 6 69 10 80 41
115 35 38 52 47 52 27 0 -23 74 -166 108 -209 20 -25 76 -86 123 -136 48 -51
110 -126 139 -168 74 -111 166 -214 219 -247 25 -15 54 -36 64 -46 13 -13 22
-15 34 -7 9 6 18 15 20 21 2 5 -30 51 -71 102 -75 94 -136 195 -136 225 0 25
15 12 56 -49 20 -30 40 -55 45 -55 12 0 11 7 -2 31 -14 26 -4 54 26 73 24 16
26 15 94 -41 105 -89 166 -130 152 -105 -18 34 -14 43 14 30 26 -12 27 -14 29
-63 1 -39 33 -47 42 -11 4 17 -1 34 -15 54 -24 34 -19 42 26 42 39 0 40 3 13
38 -28 35 -11 50 29 26 17 -10 33 -15 36 -12 19 19 -88 168 -121 168 -7 0 -17
6 -21 14 -4 8 -36 30 -69 50 -39 22 -92 69 -142 123 -44 48 -83 86 -85 83 -7
-7 52 -93 91 -135 39 -40 40 -55 7 -55 -29 0 -32 -16 -8 -42 13 -15 13 -18 2
-18 -32 0 -207 209 -193 231 10 16 34 -4 70 -59 63 -96 94 -124 94 -82 0 11
-4 20 -10 20 -15 0 -79 102 -91 145 -6 22 -21 54 -34 70 -23 31 -35 40 -170
128 -38 25 -78 59 -88 76 -17 29 -17 32 3 105 16 58 23 125 30 298 9 240 13
268 96 668 55 264 117 497 219 830 108 351 132 460 144 651 6 106 11 132 27
150 16 18 19 36 18 118 0 93 -2 99 -48 196 -56 118 -72 212 -63 370 6 100 58
592 97 905 33 266 39 358 50 741 6 200 13 383 16 407 4 31 15 52 40 77 19 19
34 41 34 50 0 8 9 20 20 27 11 7 20 21 20 32 0 28 -45 101 -75 120 -45 30 -47
13 -5 -43 44 -59 57 -108 15 -56 l-24 29 -9 -24 c-6 -15 -6 -32 -1 -42 14 -26
11 -28 -23 -21 -23 4 -29 3 -24 -6 4 -6 3 -18 -3 -25 -9 -11 -7 -15 10 -19 13
-3 18 -10 14 -17 -7 -11 -31 -9 -69 6 -12 5 -16 0 -16 -20 0 -25 9 -31 40 -26
12 2 11 -3 -4 -19 -18 -20 -18 -22 -1 -41 12 -13 15 -27 11 -45 -7 -27 -25
-32 -57 -14 -11 5 -28 8 -37 6 -13 -3 -9 -7 13 -17 69 -31 87 -66 29 -55 l-36
6 35 -31 c47 -41 63 -88 46 -137 -9 -28 -9 -38 0 -41 18 -6 13 -60 -9 -82 -24
-24 -25 -36 -5 -44 8 -3 15 -10 15 -16 0 -13 -36 -13 -63 1 l-22 12 22 -24
c36 -40 53 -93 53 -168 0 -38 -3 -77 -7 -86 -5 -15 -8 -15 -24 6 -32 43 -33
10 -1 -35 40 -55 52 -103 28 -112 -9 -3 -16 -17 -16 -31 l0 -24 -31 21 c-48
35 -48 12 1 -31 51 -44 49 -57 -5 -35 -21 9 -39 16 -42 16 -2 0 12 -21 32 -47
35 -46 33 -72 -4 -39 -10 9 -23 16 -30 16 -16 0 2 -35 37 -72 27 -30 19 -38
-13 -14 -19 14 -20 11 -32 -61 -9 -49 -10 -80 -3 -91 8 -14 9 -12 10 11 0 33
26 37 36 5 18 -58 1 -138 -29 -138 -7 0 -7 4 1 12 18 18 15 48 -6 48 -15 0
-20 -14 -30 -92 -8 -63 -8 -97 -1 -110 10 -19 11 -19 24 -1 13 17 14 17 20 0
9 -21 -2 -87 -14 -87 -5 0 -16 10 -24 23 -16 22 -16 21 -16 -18 -1 -23 8 -54
19 -73 12 -20 18 -42 15 -53 -9 -27 -25 -23 -25 6 0 16 -6 25 -16 25 -13 0
-15 -7 -10 -35 5 -27 3 -37 -9 -41 -8 -3 -15 -13 -15 -21 0 -11 7 -13 24 -9
28 7 57 -18 32 -27 -9 -4 -12 -14 -9 -26 4 -16 -1 -23 -20 -30 -27 -11 -31
-22 -41 -129 -5 -49 -3 -53 20 -62 24 -9 25 -13 22 -87 -2 -43 -7 -78 -13 -78
-5 -1 -20 -6 -31 -13 -12 -6 -24 -8 -28 -5 -3 3 -6 0 -6 -9 0 -25 34 -48 72
-48 23 0 42 -8 56 -23 31 -33 27 -43 -5 -17 -32 25 -45 9 -17 -21 17 -19 17
-21 2 -30 -9 -5 -14 -17 -11 -28 8 -33 -13 -31 -52 4 -21 19 -47 35 -58 35
-18 0 -13 -8 27 -49 l47 -48 -29 -6 c-36 -7 -50 -39 -31 -73 11 -21 10 -27
-11 -49 -28 -29 -34 -27 -21 7 5 14 6 31 1 38 -7 12 -12 11 -29 -4 -18 -16
-23 -17 -37 -5 -22 18 -44 71 -44 107 0 32 16 52 41 52 10 0 21 4 24 10 13 20
-6 27 -45 17 -34 -10 -42 -17 -50 -47 -14 -49 -13 -68 6 -100 18 -30 13 -60
-10 -60 -22 0 -67 50 -100 109 l-28 53 80 167 c108 225 136 310 166 521 35
247 68 582 57 593 -15 15 -22 -10 -31 -126 -15 -183 -49 -447 -67 -512 -8 -33
-17 -77 -19 -98 -5 -48 -61 -199 -130 -348 -77 -169 -84 -213 -41 -296 23 -44
21 -71 -9 -138 l-26 -57 15 -86 c27 -147 40 -311 33 -429 -9 -163 -59 -510
-117 -817 -35 -183 -48 -271 -41 -278 13 -13 35 60 57 192 9 52 23 123 31 156
19 83 59 341 84 543 25 205 26 406 3 527 -24 126 -24 236 1 263 29 32 106 29
142 -4 15 -14 32 -25 37 -25 6 0 18 -7 28 -16 10 -9 55 -27 100 -40 91 -26
116 -41 99 -58 -7 -7 -54 -10 -133 -8 l-121 2 26 -27 c37 -39 48 -74 55 -169
5 -76 5 -82 -13 -81 -20 2 -21 -5 -9 -78 5 -28 4 -36 -3 -26 -9 12 -13 12 -26
2 -9 -8 -16 -22 -16 -33 0 -15 5 -18 22 -13 17 6 20 4 14 -10 -3 -9 -9 -28
-12 -42 l-6 -24 -24 22 -24 22 0 -32 c0 -19 6 -34 15 -37 8 -4 15 -13 15 -21
0 -11 -7 -13 -25 -9 -20 5 -25 3 -25 -13 0 -11 5 -23 10 -26 16 -10 12 -35
-12 -68 -16 -22 -25 -53 -29 -100 -7 -76 -12 -85 -35 -67 -14 12 -15 10 -9
-23 6 -33 5 -36 -10 -31 -15 6 -16 2 -10 -34 4 -25 2 -49 -5 -62 -9 -17 -8
-30 4 -61 15 -38 15 -39 -4 -39 -14 0 -20 -7 -20 -23 0 -12 -7 -33 -16 -45
-11 -16 -14 -34 -10 -57 6 -29 4 -34 -9 -29 -11 5 -15 0 -15 -18 0 -13 -5 -29
-12 -36 -9 -9 -7 -16 6 -31 20 -21 15 -53 -6 -49 -8 2 -12 -5 -10 -15 2 -10
-2 -34 -9 -54 -8 -25 -8 -38 0 -46 16 -16 13 -27 -7 -27 -10 0 -21 -3 -25 -6
-10 -10 4 -34 20 -34 13 0 13 -4 -2 -26 -9 -14 -14 -35 -12 -46 4 -14 2 -18
-9 -14 -20 8 -18 -21 3 -33 17 -9 17 -10 0 -28 -9 -11 -17 -28 -17 -39 0 -11
-6 -26 -12 -33 -11 -10 -9 -15 7 -28 20 -15 20 -15 -2 -30 -13 -9 -23 -26 -23
-39 0 -17 -4 -22 -16 -17 -15 5 -15 3 0 -25 20 -39 21 -63 1 -56 -20 8 -20
-20 0 -36 14 -12 14 -15 -1 -31 -15 -17 -15 -20 0 -44 16 -25 16 -26 -1 -23
-15 2 -19 -5 -21 -44 -3 -42 -1 -48 16 -48 14 0 20 -7 19 -22 -1 -13 3 -34 7
-48 8 -24 8 -24 -11 -8 -28 26 -33 23 -33 -22 0 -43 23 -100 40 -100 6 0 10
-7 10 -15 0 -9 -9 -15 -21 -15 -18 0 -21 -4 -16 -27 5 -24 0 -32 -33 -56 -96
-68 -170 -28 -170 93 0 48 53 219 86 275 27 48 81 234 93 325 5 36 17 95 27
131 10 37 14 73 10 85 -14 37 -26 -6 -61 -217 -22 -130 -130 -389 -163 -389
-52 0 -144 178 -171 331 -11 57 -26 131 -34 164 -19 71 -81 387 -97 495 -7 41
-18 100 -26 130 -14 54 -67 409 -79 525 -3 33 -15 121 -25 195 -10 74 -21 189
-25 255 -3 66 -13 148 -21 182 l-15 62 30 44 c34 50 71 152 71 196 0 38 -93
220 -137 269 l-33 37 -20 -24 c-16 -18 -24 -21 -32 -13 -9 9 -7 16 10 28 29
20 24 37 -41 134 -28 41 -58 95 -68 120 -21 56 -63 254 -79 370 -6 47 -17 108
-25 135 -8 28 -26 127 -40 220 -14 94 -31 195 -36 225 -5 30 -16 165 -24 300
-8 135 -17 256 -19 270 -5 30 28 135 94 290 26 63 54 135 61 159 7 23 19 45
27 48 8 4 45 -26 94 -75 102 -104 163 -136 268 -140 41 -2 86 1 100 6 l25 10
-28 11 c-16 6 -58 11 -95 11 -90 0 -136 14 -184 58 -45 40 -118 129 -118 142
0 5 12 22 26 39 14 17 35 49 48 72 30 58 53 71 73 42 9 -13 19 -23 24 -23 5 0
8 10 6 23 -2 20 2 22 48 21 74 0 124 -28 147 -82 11 -24 18 -55 15 -68 -6 -32
11 -31 24 2 7 21 5 35 -10 66 l-19 39 22 -7 c61 -19 156 -113 156 -155 0 -10
-23 -48 -50 -85 -28 -36 -49 -68 -47 -71 11 -10 58 24 90 66 39 52 77 120 77
138 0 12 49 43 68 43 6 0 32 -18 58 -40 28 -23 59 -40 73 -40 24 0 24 1 -12
38 -20 21 -37 43 -37 50 0 6 -9 16 -21 23 l-21 11 22 23 c12 13 35 28 50 34
40 14 71 -22 78 -89 5 -56 17 -64 33 -22 10 25 5 56 -17 109 -7 15 31 26 62
19 15 -4 24 -14 24 -27 0 -11 16 -35 36 -53 34 -31 36 -37 31 -76 -9 -68 -80
-128 -184 -155 -77 -20 -175 -3 -221 38 -32 29 -50 9 -23 -25 25 -32 87 -48
182 -48 60 0 80 5 128 31 83 44 129 85 154 138 15 31 29 47 44 49 24 4 28 -7
36 -90 4 -38 14 -60 48 -103 71 -90 88 -116 99 -154 21 -73 34 -489 22 -721
-10 -209 -9 -260 8 -260 15 0 20 113 20 450 -1 527 -10 587 -107 691 l-48 51
-3 82 c-6 146 18 191 106 203 31 4 49 0 75 -16 21 -13 51 -21 76 -21 41 0 111
23 111 36 0 4 -31 3 -70 0 -46 -5 -70 -4 -70 3 0 29 -45 123 -85 176 -25 33
-45 70 -45 83 0 45 31 94 108 170 83 81 111 129 137 227 43 168 -5 319 -137
429 -58 48 -212 126 -249 126 -48 0 -89 -23 -161 -88 -88 -80 -119 -96 -173
-88 -23 4 -51 13 -61 20 -17 13 -16 15 13 30 63 32 74 85 23 101 -12 4 -32 24
-46 46 -28 45 9 41 -301 30z m167 -59 c0 -14 -23 -32 -42 -32 -22 0 -22 -9 -3
-34 22 -28 18 -63 -7 -80 -34 -24 -131 -20 -228 9 -46 14 -96 25 -112 25 -16
0 -28 5 -27 13 0 15 88 74 123 83 71 18 296 30 296 16z m170 -52 c0 -5 -4 -10
-10 -10 -5 0 -10 5 -10 10 0 6 5 10 10 10 6 0 10 -4 10 -10z m-117 -31 c16
-26 1 -49 -33 -49 -32 0 -37 9 -18 28 8 8 8 15 -2 27 -12 15 -11 16 15 13 15
-1 33 -10 38 -19z m-365 -86 c4 -27 -5 -29 -36 -7 -30 21 -28 36 6 32 19 -2
28 -9 30 -25z m395 -30 c9 -9 -12 -33 -29 -33 -17 0 -18 27 -1 33 18 8 23 8
30 0z m117 -23 c0 -5 -5 -10 -11 -10 -5 0 -7 5 -4 10 3 6 8 10 11 10 2 0 4 -4
4 -10z m65 -20 c3 -5 1 -10 -4 -10 -6 0 -11 5 -11 10 0 6 2 10 4 10 3 0 8 -4
11 -10z m36 -53 c-8 -8 -11 -4 -11 14 0 33 14 47 18 19 2 -12 -1 -27 -7 -33z
m-91 13 c0 -5 -4 -10 -10 -10 -5 0 -10 5 -10 10 0 6 5 10 10 10 6 0 10 -4 10
-10z m374 -790 c13 0 15 -4 6 -19 -15 -29 2 -34 52 -16 94 35 89 23 -29 -72
-22 -17 -53 -57 -69 -88 -27 -55 -29 -57 -63 -51 -59 9 -119 84 -107 132 9 36
75 105 121 125 35 16 42 16 56 3 8 -8 23 -14 33 -14z m-684 -5 c0 -15 -43 -12
-48 3 -3 10 4 13 22 10 15 -2 26 -7 26 -13z m801 -101 c12 -14 11 -16 -5 -13
-11 2 -21 10 -24 17 -5 17 13 15 29 -4z m-761 -24 c0 -5 -5 -10 -11 -10 -5 0
-7 5 -4 10 3 6 8 10 11 10 2 0 4 -4 4 -10z m43 -62 c15 -23 -3 -93 -23 -93
-11 0 -15 11 -16 40 0 22 -4 48 -9 58 -6 16 -4 18 15 15 13 -1 28 -11 33 -20z
m-593 -27 c0 -13 -71 -73 -78 -66 -6 6 57 75 70 75 4 0 8 -4 8 -9z m-194 -266
c9 -14 14 -28 10 -32 -8 -9 -46 27 -46 44 0 21 18 15 36 -12z m-50 -142 c-4
-4 -11 -1 -16 7 -16 25 -11 35 7 17 9 -9 13 -20 9 -24z m-20 -700 c-10 -11
-26 18 -25 47 0 24 1 23 16 -7 9 -18 13 -36 9 -40z m-27 -49 c-14 -18 -24 -11
-15 11 3 9 11 13 16 10 8 -5 7 -11 -1 -21z m1800 -290 c3 -16 1 -17 -13 -5
-19 16 -21 34 -3 29 6 -3 14 -13 16 -24z m-81 -753 c3 -8 -1 -12 -9 -9 -7 2
-15 10 -17 17 -3 8 1 12 9 9 7 -2 15 -10 17 -17z m-1308 -271 c0 -5 -4 -10
-10 -10 -5 0 -10 5 -10 10 0 6 5 10 10 10 6 0 10 -4 10 -10z m1387 -222 c22
-25 39 -68 27 -68 -14 0 -74 63 -74 77 0 20 24 15 47 -9z m-23 -111 c26 -34
34 -67 17 -67 -5 0 -16 10 -24 23 l-16 22 0 -22 c-1 -16 -7 -23 -20 -23 -10 0
-24 -7 -31 -15 -14 -17 -40 -20 -40 -5 0 6 4 10 9 10 19 0 19 40 -1 54 -24 17
-16 36 12 29 12 -3 22 1 26 11 10 26 41 18 68 -17z m61 -27 c3 -5 1 -10 -4
-10 -6 0 -11 5 -11 10 0 6 2 10 4 10 3 0 8 -4 11 -10z m-1385 -80 c0 -5 -7
-10 -16 -10 -8 0 -12 5 -9 10 3 6 10 10 16 10 5 0 9 -4 9 -10z m1230 -56 c0
-17 -22 -14 -28 4 -2 7 3 12 12 12 9 0 16 -7 16 -16z m120 6 c0 -12 -40 -33
-48 -25 -4 4 2 13 12 21 23 16 36 18 36 4z m-1366 -31 c26 -30 34 -73 17 -83
-5 -4 -3 -26 5 -53 21 -70 19 -76 -21 -71 -19 2 -35 3 -35 1 0 -1 16 -10 35
-19 46 -21 48 -49 3 -40 l-32 6 23 -24 c19 -20 20 -24 7 -29 -24 -9 -19 -26 9
-37 34 -13 33 -34 -1 -26 l-26 7 21 -30 c12 -16 21 -41 21 -55 0 -15 7 -29 16
-33 13 -5 12 -8 -5 -25 -28 -25 -26 -54 4 -74 13 -9 27 -24 30 -35 9 -26 -3
-59 -21 -59 -21 0 -17 -8 16 -37 36 -29 38 -43 8 -43 l-21 0 23 -25 23 -25
-26 0 c-15 0 -27 -4 -27 -9 0 -11 25 -21 56 -21 29 0 33 -26 7 -46 -16 -11
-16 -16 -5 -34 12 -19 11 -22 -7 -27 -12 -3 -21 -14 -21 -25 0 -24 24 -70 45
-88 9 -7 21 -22 27 -33 9 -18 7 -19 -16 -15 l-26 5 21 -26 c41 -54 51 -70 45
-80 -9 -14 -36 -2 -36 15 0 8 -7 14 -15 14 -20 0 -20 -1 15 -45 16 -20 27 -42
24 -47 -3 -5 6 -26 20 -46 34 -50 44 -116 22 -141 -14 -16 -15 -23 -6 -41 6
-12 14 -56 17 -98 4 -56 11 -83 24 -98 20 -22 16 -36 -7 -27 -26 10 -14 -18
22 -51 l36 -33 -26 -7 c-34 -8 -33 -16 9 -61 37 -39 41 -62 5 -30 -26 24 -37
12 -16 -17 67 -91 66 -91 60 -126 -6 -29 -3 -38 17 -53 l24 -19 -22 0 c-34 0
-28 -19 24 -72 32 -33 42 -48 30 -48 -28 0 -8 -28 33 -46 44 -20 43 -39 -1
-30 -16 3 -29 3 -29 0 0 -3 18 -27 40 -53 43 -51 50 -74 23 -69 -16 3 -18 -5
-15 -68 4 -64 2 -73 -22 -101 -37 -44 -86 -59 -125 -38 -17 8 -31 19 -32 23
-3 27 -8 53 -18 92 -6 25 -11 83 -11 130 -1 206 -37 442 -121 790 -48 197 -67
260 -81 260 -6 0 -7 -7 -3 -17 25 -57 64 -296 46 -278 -13 13 -103 394 -98
415 2 9 14 -7 27 -35 16 -33 25 -44 28 -33 7 33 -155 693 -204 829 -37 104
-78 177 -136 245 -78 91 -99 162 -59 198 15 14 33 16 112 11 85 -5 99 -3 149
18 72 32 74 32 104 -4z m1316 -153 c0 -17 -14 -29 -23 -20 -8 8 3 34 14 34 5
0 9 -6 9 -14z m-40 -36 c0 -22 -16 -35 -25 -20 -9 14 4 52 16 45 5 -4 9 -15 9
-25z m-1591 -70 c47 -60 61 -101 101 -295 17 -82 49 -220 70 -305 21 -85 46
-195 55 -245 9 -49 36 -166 59 -260 24 -93 50 -206 59 -250 20 -104 64 -282
78 -317 14 -33 34 -38 25 -5 -18 67 -46 223 -43 241 3 19 4 19 15 -6 12 -30
62 -262 62 -291 0 -14 -5 -17 -22 -12 -16 6 -20 4 -15 -8 3 -9 9 -33 12 -54 4
-21 13 -55 21 -75 27 -73 57 -396 35 -372 -5 5 -26 88 -46 184 -20 96 -54 240
-75 320 -22 80 -58 230 -80 335 -23 104 -52 234 -65 290 -70 294 -98 409 -121
500 -34 131 -158 511 -189 578 -24 50 -32 97 -19 110 12 11 43 -13 83 -63z
m1536 10 c0 -7 -6 -15 -12 -17 -8 -3 -13 4 -13 17 0 13 5 20 13 18 6 -3 12
-11 12 -18z m125 -66 c0 -8 -4 -12 -10 -9 -5 3 -10 10 -10 16 0 5 5 9 10 9 6
0 10 -7 10 -16z m-155 -4 c3 -5 1 -10 -4 -10 -6 0 -11 5 -11 10 0 6 2 10 4 10
3 0 8 -4 11 -10z m-1368 -232 c-3 -8 -6 -5 -6 6 -1 11 2 17 5 13 3 -3 4 -12 1
-19z m37 -130 c18 -45 30 -128 18 -128 -8 0 -42 122 -42 151 0 19 12 8 24 -23z
m1256 -82 c-12 -36 -25 -66 -30 -66 -11 0 7 74 26 112 25 49 28 24 4 -46z
m-1214 -83 c7 -10 14 -27 14 -38 0 -17 -2 -17 -14 -5 -16 17 -31 60 -20 60 4
0 13 -8 20 -17z m24 -93 c0 -5 -2 -10 -4 -10 -3 0 -8 5 -11 10 -3 6 -1 10 4
10 6 0 11 -4 11 -10z m21 -47 c0 -10 4 -42 8 -70 4 -29 4 -53 0 -53 -8 0 -29
80 -29 114 0 29 20 36 21 9z m1064 -170 c-23 -108 -46 -185 -52 -179 -7 7 16
128 39 204 26 86 34 71 13 -25z m-1032 -8 c4 -8 2 -17 -3 -20 -6 -4 -10 3 -10
14 0 25 6 27 13 6z m1034 -267 c-3 -8 -6 -5 -6 6 -1 11 2 17 5 13 3 -3 4 -12
1 -19z m-77 -67 c-12 -23 -30 -28 -30 -8 0 7 8 24 17 37 15 21 18 22 21 8 2
-9 -2 -26 -8 -37z m57 -33 c-3 -8 -6 -5 -6 6 -1 11 2 17 5 13 3 -3 4 -12 1
-19z m-52 -288 c3 -5 1 -10 -4 -10 -6 0 -11 5 -11 10 0 6 2 10 4 10 3 0 8 -4
11 -10z m-99 -137 c-10 -10 -19 5 -10 18 6 11 8 11 12 0 2 -7 1 -15 -2 -18z
m44 -93 c0 -5 -5 -10 -11 -10 -5 0 -7 5 -4 10 3 6 8 10 11 10 2 0 4 -4 4 -10z
m0 -250 c0 -5 -5 -10 -11 -10 -5 0 -7 5 -4 10 3 6 8 10 11 10 2 0 4 -4 4 -10z
m10 -99 c0 -12 -20 -25 -27 -18 -7 7 6 27 18 27 5 0 9 -4 9 -9z m-665 -151 c3
-5 1 -10 -4 -10 -6 0 -11 5 -11 10 0 6 2 10 4 10 3 0 8 -4 11 -10z m525 -74
c0 -3 -4 -8 -10 -11 -5 -3 -10 -1 -10 4 0 6 5 11 10 11 6 0 10 -2 10 -4z m78
-92 c12 -8 22 -26 22 -40 0 -37 -45 -33 -65 6 -8 16 -15 34 -15 40 0 15 32 12
58 -6z m-513 -40 c-26 -19 -65 -18 -65 1 0 21 40 35 64 23 19 -10 19 -11 1
-24z m193 18 c2 -7 -3 -12 -12 -12 -9 0 -16 7 -16 16 0 17 22 14 28 -4z m144
-7 c-2 -11 -11 -36 -19 -55 l-15 -35 -19 40 c-29 63 -26 77 19 73 31 -2 36 -6
34 -23z m101 -10 c24 -50 22 -60 -16 -89 -47 -36 -67 -34 -67 7 0 41 35 117
53 117 7 0 21 -16 30 -35z m-309 -17 c13 -36 7 -40 -37 -27 -35 9 -49 34 -30
53 17 16 58 0 67 -26z m-94 -48 c0 -14 -39 -37 -86 -49 -22 -6 -49 -19 -58
-30 -19 -21 -53 -33 -61 -22 -6 10 63 76 100 95 33 18 105 22 105 6z m606 -1
c10 -17 -8 -28 -67 -41 -67 -14 -98 -6 -78 18 7 9 22 20 34 24 30 13 103 12
111 -1z m108 -45 c9 -8 16 -21 16 -29 0 -7 3 -21 7 -30 5 -14 2 -16 -18 -10
-35 11 -89 54 -89 71 0 20 64 19 84 -2z m-630 0 c22 -8 20 -27 -9 -84 -14 -27
-25 -56 -25 -64 0 -21 -21 -31 -31 -15 -17 28 16 169 40 169 5 0 16 -3 25 -6z
m-120 -30 c21 -8 21 -53 0 -61 -19 -7 -64 16 -64 33 0 7 8 18 18 23 20 12 25
13 46 5z m498 -31 c15 -15 28 -35 28 -45 0 -19 -82 -108 -100 -108 -13 0 -50
74 -50 100 0 12 7 34 15 50 21 40 67 41 107 3z m163 11 c15 -15 15 -18 -1 -35
-24 -26 -68 -24 -101 6 -24 21 -26 26 -13 35 24 16 97 12 115 -6z m-865 -61
c0 -16 -41 -74 -55 -79 -8 -4 -15 -12 -15 -19 0 -19 -32 -52 -57 -60 -41 -12
-26 22 43 95 61 65 84 82 84 63z m990 -44 c14 -25 35 -59 48 -75 115 -147 132
-178 90 -172 -15 2 -35 21 -55 53 -17 28 -41 59 -52 71 -12 12 -21 26 -21 31
0 13 -90 96 -97 90 -11 -12 13 -53 85 -145 95 -122 118 -160 104 -174 -18 -18
-52 2 -88 52 -19 27 -47 53 -62 58 -37 14 -69 39 -60 48 4 3 19 -1 33 -10 l26
-17 -15 29 c-8 16 -26 37 -40 46 -24 15 -66 83 -66 105 0 16 92 61 120 58 18
-1 32 -14 50 -48z m-936 9 c-52 -101 -126 -198 -151 -198 -23 0 -14 20 42 92
30 38 55 76 55 83 0 14 46 55 62 55 5 0 1 -15 -8 -32z m86 7 c0 -8 -8 -22 -19
-32 -19 -19 -85 -142 -96 -180 -3 -13 -2 -23 3 -23 14 0 36 29 92 120 62 102
85 129 101 113 7 -7 6 -20 -6 -44 -35 -74 -56 -109 -64 -109 -5 0 -12 -13 -16
-28 -3 -16 -19 -44 -34 -63 l-28 -33 -42 19 c-23 10 -49 28 -56 39 -13 17 -12
21 5 33 11 8 32 35 46 61 57 100 87 142 100 142 8 0 14 -7 14 -15z m621 -78
c19 -12 43 -38 54 -56 11 -18 42 -58 69 -89 64 -75 84 -116 66 -137 -7 -8 -20
-15 -30 -15 -25 0 -70 38 -70 59 0 10 -38 60 -85 110 -79 86 -99 123 -78 144
12 13 40 7 74 -16z m590 -127 c22 -12 42 -27 45 -35 3 -7 19 -18 36 -24 17 -6
28 -16 26 -23 -8 -24 -36 -19 -70 10 -18 16 -52 39 -75 51 -24 12 -43 26 -43
31 0 16 38 11 81 -10z m-42 -60 c59 -38 81 -63 67 -77 -14 -15 -137 69 -150
102 -9 25 18 17 83 -25z m-56 -62 c18 -18 41 -37 52 -43 23 -12 32 -42 16 -58
-8 -8 -21 -1 -49 26 -21 20 -43 37 -49 37 -14 0 -43 39 -43 57 0 24 41 13 73
-19z m-1248 -47 c-21 -41 -49 -43 -34 -4 6 16 18 36 27 47 14 15 17 16 20 3 2
-9 -4 -29 -13 -46z m1485 39 c0 -5 -4 -10 -10 -10 -5 0 -10 5 -10 10 0 6 5 10
10 10 6 0 10 -4 10 -10z m-50 -70 c0 -11 -40 -34 -47 -26 -3 3 -3 12 0 21 7
16 47 21 47 5z m-1314 -48 c-8 -16 -22 -32 -31 -35 -23 -9 -19 25 6 57 28 36
47 20 25 -22z m870 -4 c73 -79 101 -136 49 -102 -27 18 -105 111 -105 125 0
19 28 7 56 -23z m-1068 -41 c-7 -14 -13 -17 -16 -9 -6 19 6 44 18 37 7 -4 6
-14 -2 -28z m108 -68 c10 -17 -13 -36 -27 -22 -12 12 -4 33 11 33 5 0 12 -5
16 -11z m1091 -71 c-3 -8 -6 -5 -6 6 -1 11 2 17 5 13 3 -3 4 -12 1 -19z"/>
<path d="M3416 7961 c-9 -15 23 -36 36 -23 5 5 7 15 4 21 -9 13 -33 14 -40 2z"/>
<path d="M2953 3590 c-43 -19 -56 -46 -28 -56 8 -4 26 1 40 10 13 9 37 16 53
16 32 0 58 22 47 40 -10 16 -66 11 -112 -10z"/>
<path d="M3090 3086 c0 -10 9 -16 21 -16 24 0 21 23 -4 28 -10 2 -17 -3 -17
-12z"/>
<path d="M3230 2370 c0 -5 5 -10 10 -10 6 0 10 5 10 10 0 6 -4 10 -10 10 -5 0
-10 -4 -10 -10z"/>
<path d="M3356 1703 c-12 -12 -6 -33 9 -33 8 0 15 6 15 14 0 17 -14 28 -24 19z"/>
<path d="M3480 1310 c0 -5 5 -10 10 -10 6 0 10 5 10 10 0 6 -4 10 -10 10 -5 0
-10 -4 -10 -10z"/>
<path d="M2607 7946 c-26 -7 -59 -24 -73 -37 -39 -36 -84 -120 -84 -155 0 -18
-13 -61 -30 -96 -42 -89 -58 -209 -36 -262 9 -21 14 -41 11 -46 -6 -9 43 -55
51 -48 3 3 -4 24 -14 45 -35 68 -36 99 -3 224 43 168 98 307 130 327 37 25
212 24 261 -1 85 -44 118 -63 145 -85 l29 -23 16 21 c10 13 22 19 32 15 19 -8
34 13 20 27 -6 6 -32 12 -59 13 -29 1 -85 18 -143 43 -109 46 -183 58 -253 38z"/>
<path d="M2625 7846 c-43 -20 -70 -53 -103 -126 -71 -158 -79 -274 -27 -351
31 -44 68 -73 85 -67 6 2 0 18 -15 37 -22 31 -23 36 -10 51 8 9 15 21 15 27 0
6 7 14 16 17 25 10 4 27 -29 24 -28 -3 -32 0 -35 22 -2 14 4 34 13 45 15 20
16 20 31 -2 9 -13 27 -23 40 -23 13 0 28 -9 34 -20 9 -16 8 -20 -5 -20 -17 0
-21 -45 -5 -55 16 -10 50 15 50 37 0 24 -49 105 -80 133 -23 21 -27 47 -6 39
19 -7 30 14 17 30 -6 8 -25 16 -41 20 -17 3 -30 12 -30 20 0 19 23 33 28 18 2
-7 12 -12 22 -12 23 0 36 -21 45 -75 8 -43 30 -85 45 -85 5 0 2 16 -6 36 -14
33 -14 35 3 32 15 -3 19 -19 26 -97 9 -99 20 -141 37 -141 20 0 22 29 6 76
-17 52 -14 68 15 59 10 -4 19 -3 19 2 0 13 -57 106 -79 130 -25 26 -26 33 -6
33 19 0 19 14 1 29 -18 15 -26 45 -16 61 9 15 30 4 30 -15 0 -22 50 -175 57
-175 4 0 22 10 40 23 42 28 51 59 29 103 -20 43 -20 55 0 47 25 -9 34 17 18
49 -30 57 -163 95 -229 64z m129 -72 c11 -28 6 -39 -9 -20 -8 11 -15 23 -15
28 0 14 18 9 24 -8z m63 10 c-3 -3 -12 -4 -19 -1 -8 3 -5 6 6 6 11 1 17 -2 13
-5z m-198 -50 c-14 -18 -24 -11 -15 11 3 9 11 13 16 10 8 -5 7 -11 -1 -21z
m183 -58 c22 -11 39 -66 21 -66 -13 0 -73 82 -73 99 1 13 3 13 15 -3 8 -10 25
-24 37 -30z m-302 -176 c0 -5 -4 -10 -10 -10 -5 0 -10 5 -10 10 0 6 5 10 10
10 6 0 10 -4 10 -10z m10 -80 c0 -5 -4 -10 -10 -10 -5 0 -10 5 -10 10 0 6 5
10 10 10 6 0 10 -4 10 -10z"/>
<path d="M4326 7738 c-3 -7 -6 -26 -9 -43 -2 -16 -8 -38 -12 -47 -6 -15 -2
-18 28 -18 20 0 39 -4 42 -10 3 -5 11 -10 17 -10 12 0 3 71 -13 101 -14 26
-48 44 -53 27z"/>
<path d="M4886 7722 c-4 -6 3 -85 14 -174 21 -168 70 -788 70 -890 0 -32 5
-60 12 -64 17 -11 4 308 -27 666 -33 392 -49 494 -69 462z"/>
<path d="M4240 7618 c0 -20 -8 -32 -30 -43 -31 -16 -34 -22 -30 -64 1 -13 -4
-27 -10 -31 -13 -8 -11 -16 16 -85 7 -20 7 -20 -14 -1 -12 11 -25 16 -29 13
-11 -12 39 -57 64 -57 14 0 23 -6 23 -15 0 -22 31 -4 82 48 66 68 93 138 74
194 -9 28 -44 40 -62 22 -11 -12 -10 -21 7 -58 31 -69 18 -68 -23 1 -20 35
-43 72 -52 83 -15 19 -15 19 -16 -7z m140 -74 c0 -8 -4 -14 -9 -14 -11 0 -22
26 -14 34 9 9 23 -3 23 -20z m-150 -24 c0 -5 -4 -10 -10 -10 -5 0 -10 5 -10
10 0 6 5 10 10 10 6 0 10 -4 10 -10z m50 -80 c0 -5 -4 -10 -10 -10 -5 0 -10 5
-10 10 0 6 5 10 10 10 6 0 10 -4 10 -10z"/>
<path d="M2830 7560 c0 -5 5 -10 11 -10 5 0 7 5 4 10 -3 6 -8 10 -11 10 -2 0
-4 -4 -4 -10z"/>
<path d="M3810 7540 c0 -5 5 -10 11 -10 5 0 7 5 4 10 -3 6 -8 10 -11 10 -2 0
-4 -4 -4 -10z"/>
<path d="M2810 7460 c0 -5 5 -10 10 -10 6 0 10 5 10 10 0 6 -4 10 -10 10 -5 0
-10 -4 -10 -10z"/>
<path d="M3592 7454 c-8 -15 -32 -19 -158 -26 -186 -9 -217 -28 -47 -28 66 0
148 3 182 6 59 7 62 8 59 32 -4 31 -23 39 -36 16z"/>
<path d="M2800 7422 c0 -19 12 -42 22 -42 14 0 5 43 -9 48 -7 2 -13 -1 -13 -6z"/>
<path d="M2601 7374 c0 -11 3 -14 6 -6 3 7 2 16 -1 19 -3 4 -6 -2 -5 -13z"/>
<path d="M2689 7353 c12 -23 29 -38 37 -31 2 3 -8 15 -22 29 -25 23 -26 23
-15 2z"/>
<path d="M2790 7334 c0 -8 5 -12 10 -9 6 4 8 11 5 16 -9 14 -15 11 -15 -7z"/>
<path d="M3565 7328 c-38 -29 -121 -35 -203 -14 -34 9 -67 14 -72 11 -41 -25
49 -49 156 -42 87 6 164 31 164 53 0 20 -13 17 -45 -8z"/>
<path d="M4121 7311 c-7 -12 -7 -22 -2 -26 5 -3 13 4 16 16 9 28 -1 36 -14 10z"/>
<path d="M4146 7268 c-20 -23 -36 -46 -36 -51 0 -5 -18 -29 -40 -54 -22 -25
-40 -51 -40 -57 1 -17 170 177 170 195 0 19 -20 8 -54 -33z"/>
<path d="M2665 7282 l-30 -17 29 -3 c32 -4 56 12 41 27 -6 6 -22 3 -40 -7z"/>
<path d="M2742 7264 c1 -9 9 -19 16 -22 9 -3 13 2 10 14 -1 9 -9 19 -16 22 -9
3 -13 -2 -10 -14z"/>
<path d="M2490 7264 c0 -3 14 -22 31 -42 39 -44 59 -91 59 -135 0 -20 7 -40
17 -48 15 -13 16 -10 9 40 -9 65 -29 117 -59 149 -24 26 -57 47 -57 36z"/>
<path d="M2750 7210 c0 -5 5 -10 10 -10 6 0 10 5 10 10 0 6 -4 10 -10 10 -5 0
-10 -4 -10 -10z"/>
<path d="M3550 7195 c-7 -9 -10 -19 -6 -22 8 -9 38 9 44 25 5 17 -23 15 -38
-3z"/>
<path d="M3354 7161 c7 -11 92 -20 133 -14 58 10 24 23 -58 23 -44 0 -78 -4
-75 -9z"/>
<path d="M3524 7056 c-8 -22 3 -33 18 -18 9 9 9 15 0 24 -9 9 -13 7 -18 -6z"/>
<path d="M3402 7053 c-25 -10 1 -23 46 -22 l47 1 -30 13 c-32 15 -43 16 -63 8z"/>
<path d="M4390 6700 c0 -14 26 -23 41 -15 8 6 7 10 -2 16 -19 12 -39 11 -39
-1z"/>
<path d="M2528 6650 c-62 -19 -55 -40 14 -40 45 0 68 8 68 25 0 23 -34 30 -82
15z"/>
<path d="M3105 6650 c4 -6 11 -8 16 -5 14 9 11 15 -7 15 -8 0 -12 -5 -9 -10z"/>
<path d="M2722 6624 c-29 -20 -28 -45 3 -78 35 -38 48 -33 30 10 -20 47 -19
51 5 29 24 -22 25 -14 5 25 -18 35 -15 34 -43 14z"/>
<path d="M2310 6604 c0 -9 5 -14 12 -12 18 6 21 28 4 28 -9 0 -16 -7 -16 -16z"/>
<path d="M3142 6593 c15 -15 31 -23 35 -19 9 8 -32 46 -50 46 -7 0 1 -12 15
-27z"/>
<path d="M3225 6569 c-4 -6 -5 -13 -2 -16 7 -7 27 6 27 18 0 12 -17 12 -25 -2z"/>
<path d="M4395 6504 c4 -17 0 -23 -17 -27 -21 -6 -22 -8 -7 -22 11 -11 29 -15
55 -13 l39 3 -38 40 c-28 30 -37 35 -32 19z"/>
<path d="M4440 6255 c7 -8 20 -15 29 -15 13 1 13 3 -3 15 -26 19 -42 19 -26 0z"/>
<path d="M2560 6229 c0 -5 5 -7 10 -4 6 3 10 8 10 11 0 2 -4 4 -10 4 -5 0 -10
-5 -10 -11z"/>
<path d="M4430 6190 c0 -15 38 -32 45 -20 3 5 3 15 0 20 -8 13 -45 13 -45 0z"/>
<path d="M4440 6114 c0 -15 22 -44 31 -39 11 7 -7 45 -21 45 -6 0 -10 -3 -10
-6z"/>
<path d="M2540 6091 c0 -12 42 -42 49 -36 5 6 -29 45 -41 45 -4 0 -8 -4 -8 -9z"/>
<path d="M2580 5974 c0 -8 5 -12 10 -9 6 4 8 11 5 16 -9 14 -15 11 -15 -7z"/>
<path d="M2576 5895 c7 -17 43 -40 51 -32 6 7 -34 47 -47 47 -5 0 -7 -7 -4
-15z"/>
<path d="M4440 5895 c0 -8 5 -15 10 -15 6 0 10 7 10 15 0 8 -4 15 -10 15 -5 0
-10 -7 -10 -15z"/>
<path d="M4431 5851 c-8 -5 -10 -14 -7 -20 8 -13 46 -15 46 -2 0 16 -25 30
-39 22z"/>
<path d="M1512 5818 c5 -15 28 -23 28 -10 0 5 -7 13 -16 16 -10 4 -14 1 -12
-6z"/>
<path d="M4450 5770 c0 -5 5 -10 10 -10 6 0 10 5 10 10 0 6 -4 10 -10 10 -5 0
-10 -4 -10 -10z"/>
<path d="M1520 5760 c0 -5 5 -10 10 -10 6 0 10 5 10 10 0 6 -4 10 -10 10 -5 0
-10 -4 -10 -10z"/>
<path d="M1586 5755 c3 -11 -4 -38 -16 -60 -24 -47 -24 -54 -5 -75 8 -9 20
-42 26 -73 8 -49 7 -61 -7 -86 -16 -26 -16 -36 -5 -86 13 -56 33 -77 53 -57
10 10 8 58 -18 359 -3 33 -12 69 -19 80 -13 17 -14 17 -9 -2z m44 -408 c0 -5
-7 -4 -15 3 -8 7 -15 20 -15 29 1 13 3 13 15 -3 8 -11 15 -24 15 -29z"/>
<path d="M4415 5620 c-7 -12 2 -30 16 -30 12 0 12 27 0 35 -5 3 -12 1 -16 -5z"/>
<path d="M1540 5584 c0 -8 5 -12 10 -9 6 3 10 10 10 16 0 5 -4 9 -10 9 -5 0
-10 -7 -10 -16z"/>
<path d="M1544 5524 c3 -9 6 -18 6 -20 0 -2 7 -4 15 -4 18 0 19 12 3 28 -17
17 -31 15 -24 -4z"/>
<path d="M5292 5364 c2 -22 8 -38 13 -36 15 3 12 65 -3 70 -10 3 -13 -6 -10
-34z"/>
<path d="M2722 4648 c3 -7 13 -15 22 -16 12 -3 17 1 14 10 -3 7 -13 15 -22 16
-12 3 -17 -1 -14 -10z"/>
<path d="M4311 4584 c0 -11 3 -14 6 -6 3 7 2 16 -1 19 -3 4 -6 -2 -5 -13z"/>
<path d="M2842 4388 c9 -13 26 -24 39 -26 23 -3 23 -2 -6 22 -37 32 -52 33
-33 4z"/>
<path d="M4265 4299 c-8 -12 22 -49 41 -49 8 0 10 8 6 23 -8 33 -34 48 -47 26z"/>
<path d="M2790 4249 c0 -5 5 -7 10 -4 6 3 10 8 10 11 0 2 -4 4 -10 4 -5 0 -10
-5 -10 -11z"/>
<path d="M2787 4213 c-12 -11 -8 -23 8 -23 8 0 15 7 15 15 0 16 -12 20 -23 8z"/>
<path d="M2770 4145 c0 -9 9 -15 21 -15 18 0 19 2 9 15 -7 8 -16 15 -21 15 -5
0 -9 -7 -9 -15z"/>
<path d="M2990 4100 c0 -5 5 -10 10 -10 6 0 10 5 10 10 0 6 -4 10 -10 10 -5 0
-10 -4 -10 -10z"/>
<path d="M2764 4071 c-39 -24 -64 -77 -63 -133 l0 -43 23 62 c13 35 29 70 36
78 28 34 78 8 89 -45 5 -25 13 -36 28 -38 12 -2 27 -10 35 -19 12 -15 10 -16
-14 -9 -20 4 -28 3 -28 -7 0 -18 32 -47 52 -47 12 0 16 -9 14 -32 -1 -27 3
-33 19 -33 16 0 20 6 18 34 -2 41 -64 170 -105 217 -34 39 -59 42 -104 15z"/>
<path d="M3000 4055 c-7 -9 -10 -18 -7 -22 8 -7 37 15 37 28 0 14 -16 11 -30
-6z"/>
<path d="M2715 3850 c-3 -5 -1 -10 4 -10 6 0 11 5 11 10 0 6 -2 10 -4 10 -3 0
-8 -4 -11 -10z"/>
<path d="M4100 2984 c0 -14 4 -23 10 -19 6 3 10 15 10 26 0 10 -4 19 -10 19
-5 0 -10 -12 -10 -26z"/>
<path d="M2965 440 c-52 -26 -115 -78 -115 -95 0 -26 20 -26 32 -1 10 23 17
26 65 26 56 0 93 13 93 31 0 7 -14 10 -35 7 l-36 -4 26 23 c42 39 31 44 -30
13z"/>
<path d="M4330 303 c0 -5 14 -28 30 -53 16 -25 30 -51 30 -57 0 -20 -28 -15
-40 7 -6 11 -17 20 -25 20 -29 0 -14 -39 27 -75 34 -28 48 -34 69 -30 25 6 28
3 31 -27 2 -23 9 -34 22 -36 39 -8 39 15 1 75 -20 32 -54 86 -76 121 -21 34
-45 62 -54 62 -8 0 -15 -3 -15 -7z"/>
</g>
</svg>
