<?xml version="1.0" standalone="no"?>
<!DOCTYPE svg PUBLIC "-//W3C//DTD SVG 20010904//EN"
 "http://www.w3.org/TR/2001/REC-SVG-20010904/DTD/svg10.dtd">
<svg version="1.0" xmlns="http://www.w3.org/2000/svg"
 width="853.000000pt" height="1280.000000pt" viewBox="0 0 853.000000 1280.000000"
 preserveAspectRatio="xMidYMid meet">
<metadata>
Created by potrace 1.15, written by Peter Selinger 2001-2017
</metadata>
<g transform="translate(0.000000,1280.000000) scale(0.100000,-0.100000)"
fill="#000000" stroke="none">
<path d="M3765 12790 c-129 -12 -307 -62 -342 -96 -21 -21 -23 -29 -17 -92 6
-65 5 -70 -17 -86 -42 -30 -320 -111 -699 -206 -135 -34 -330 -85 -435 -114
-294 -83 -275 -83 -275 10 l0 64 -44 0 c-76 0 -297 -20 -389 -36 -48 -8 -110
-25 -138 -39 l-49 -25 0 -96 c0 -52 -4 -104 -10 -114 -6 -12 -39 -26 -97 -41
-48 -13 -95 -31 -104 -40 -26 -26 -33 -112 -26 -333 5 -162 9 -201 22 -216 17
-19 115 -50 158 -50 19 0 30 -7 36 -22 14 -38 22 -1385 22 -3653 0 -1188 4
-2178 8 -2200 l8 -40 14 30 c12 25 14 194 17 1020 1 545 2 1006 2 1025 0 414
4 811 9 869 4 40 4 96 0 125 -10 71 -10 230 1 356 6 72 5 117 -2 142 -8 28 -8
41 1 51 8 11 8 22 0 46 -7 20 -9 54 -4 89 3 31 5 109 3 172 -3 125 -3 308 1
435 4 114 -15 1005 -29 1343 -9 217 -9 287 0 292 6 4 36 13 67 20 89 22 87 25
94 -206 29 -936 32 -1295 20 -2747 -22 -2710 -31 -3540 -41 -3767 -6 -124 -17
-629 -25 -1122 -7 -494 -16 -902 -20 -908 -3 -5 -40 -10 -82 -10 l-75 0 6 30
c6 31 17 515 36 1615 6 330 15 701 20 824 6 122 7 227 4 232 -3 5 -11 9 -19 9
-20 0 -25 -59 -35 -465 -5 -203 -14 -525 -20 -715 -6 -190 -14 -609 -18 -932
-4 -323 -11 -590 -15 -594 -4 -4 -152 -9 -330 -12 l-323 -5 -31 -67 c-16 -37
-95 -179 -175 -316 -213 -367 -333 -581 -370 -660 l-33 -69 -7 -485 c-4 -267
-8 -501 -10 -520 -4 -55 22 -412 32 -430 8 -15 61 -17 536 -23 290 -4 1110 -7
1823 -7 712 0 2000 -6 2861 -12 1843 -15 1812 -15 2460 -5 586 8 780 16 798
30 9 7 12 136 12 581 0 314 -3 629 -7 699 -6 119 -8 132 -34 170 -16 23 -29
51 -29 63 0 11 -13 38 -30 60 -16 21 -30 46 -30 54 -1 24 -38 100 -65 132 -14
16 -25 37 -25 47 0 9 -17 46 -39 82 -21 35 -42 79 -46 97 -3 17 -22 50 -41 73
-19 22 -34 47 -34 54 0 7 -7 18 -15 25 -8 7 -15 22 -15 34 0 11 -12 39 -25 61
-14 22 -25 50 -25 62 0 12 -8 30 -18 40 -11 10 -22 26 -25 36 -4 9 -13 17 -22
17 -10 0 -15 10 -15 33 0 30 -35 112 -62 144 -10 13 -64 14 -393 7 -446 -8
-410 -15 -538 110 -58 56 -112 98 -180 136 -53 30 -97 58 -97 61 0 13 121 34
195 33 59 0 110 -9 192 -33 70 -20 127 -31 155 -29 41 3 43 5 46 36 4 36 -20
82 -42 82 -7 0 -30 16 -50 35 -20 19 -54 39 -74 45 -20 6 -46 17 -56 25 -11 8
-30 15 -42 15 -13 0 -26 5 -29 10 -3 6 -20 10 -37 10 -22 0 -43 11 -74 40 -24
22 -52 40 -63 40 -27 0 -45 27 -44 66 1 24 -4 35 -18 39 -10 4 -27 19 -38 34
-57 79 -255 57 -315 -35 -10 -14 -39 -36 -64 -47 -42 -19 -65 -22 -207 -22
-171 0 -195 5 -270 56 -66 44 -242 111 -335 127 -24 4 -45 12 -47 18 -2 7 16
23 40 37 121 71 217 184 217 254 0 16 2 32 5 35 3 3 42 -4 88 -15 96 -22 204
-20 255 7 38 20 38 37 -2 47 -15 4 -36 19 -47 33 -11 14 -32 31 -46 38 -37 18
-64 58 -77 115 -12 46 -15 50 -76 80 -63 31 -170 124 -170 147 0 6 -15 23 -34
38 -26 21 -34 36 -39 72 -10 67 -35 109 -135 223 -49 57 -92 115 -95 130 -9
42 -67 133 -110 173 -21 19 -70 66 -108 104 -87 86 -117 96 -314 105 l-150 7
-107 53 c-122 60 -152 89 -163 157 -3 26 -22 85 -40 131 -19 46 -50 134 -70
196 -78 244 -92 270 -163 309 -22 11 -34 28 -41 56 -6 22 -21 51 -32 66 -30
39 -16 44 21 8 17 -17 30 -41 30 -55 0 -31 42 -77 71 -77 19 0 21 4 14 38 -3
20 -21 69 -38 107 l-31 70 -2 280 c-2 154 -7 430 -12 614 -5 184 -6 347 -2
362 5 15 4 142 -2 281 -7 157 -7 288 -2 344 5 50 7 124 4 165 -3 41 -2 151 3
244 5 94 9 186 9 205 0 80 -1 167 -4 273 -1 32 5 53 16 66 13 14 15 24 8 38
-5 10 -12 66 -16 126 -5 84 -3 117 9 153 12 35 13 50 4 66 -7 13 -9 44 -5 84
4 36 2 73 -4 90 -8 19 -8 29 0 34 6 4 11 15 10 26 0 10 1 177 2 369 3 616 3
717 -1 860 -2 77 0 357 5 623 l7 482 124 61 c68 33 126 66 129 73 2 6 -2 33
-10 60 -13 41 -13 52 -2 68 11 15 11 27 3 54 -7 24 -7 72 1 167 7 72 12 144
12 160 l0 27 -140 0 -140 0 0 58 c0 31 -3 74 -6 95 l-7 37 -151 -1 c-83 -1
-187 -5 -231 -9z m-70 -130 c0 -55 -4 -75 -15 -80 -16 -8 -201 -60 -213 -60
-11 0 -8 133 3 150 9 14 194 71 215 66 6 -2 10 -35 10 -76z m352 -56 c-3 -3
-12 -4 -19 -1 -8 3 -5 6 6 6 11 1 17 -2 13 -5z m-245 -301 c2 -131 0 -241 -5
-244 -4 -3 -88 -27 -185 -53 -97 -26 -316 -85 -487 -131 -170 -46 -481 -127
-690 -180 -209 -54 -509 -130 -667 -170 -158 -40 -309 -80 -335 -89 -74 -24
-242 -58 -253 -51 -6 4 -10 89 -10 219 0 248 -9 229 120 276 82 31 798 230
950 265 41 9 152 39 245 65 161 46 289 80 555 149 63 16 196 52 295 79 99 27
205 55 235 61 30 6 73 18 95 26 22 8 61 14 86 15 l47 0 4 -237z m536 156 c-2
-19 -7 -33 -13 -32 -12 3 -19 49 -10 71 10 26 27 -2 23 -39z m42 -14 c0 -8 -4
-15 -9 -15 -13 0 -22 16 -14 24 11 11 23 6 23 -9z m-63 -167 c-3 -7 -5 -2 -5
12 0 14 2 19 5 13 2 -7 2 -19 0 -25z m-267 -8 c0 -5 -7 -10 -16 -10 -8 0 -12
5 -9 10 3 6 10 10 16 10 5 0 9 -4 9 -10z m-2522 -177 l-3 -107 -50 -12 c-28
-8 -54 -9 -59 -4 -4 4 -7 42 -4 83 2 57 8 81 23 97 18 21 68 49 88 50 4 0 6
-48 5 -107z m123 71 c-12 -15 -21 -35 -21 -46 0 -11 -4 -16 -10 -13 -11 7 -14
68 -3 78 3 4 17 7 30 7 l24 0 -20 -26z m2456 -31 c-3 -10 -5 -2 -5 17 0 19 2
27 5 18 2 -10 2 -26 0 -35z m-2436 -66 c-13 -13 -26 -3 -16 12 3 6 11 8 17 5
6 -4 6 -10 -1 -17z m2047 -2367 c-2 -1487 -6 -2239 -13 -2237 -5 2 -21 24 -34
49 -17 34 -31 47 -52 52 -16 3 -29 10 -29 15 0 5 9 7 20 4 27 -7 27 26 0 60
-17 21 -18 30 -9 44 9 15 3 42 -30 138 -22 66 -54 172 -70 235 -16 63 -39 138
-52 165 l-22 50 2 545 c1 300 6 810 11 1134 10 654 5 617 78 631 59 11 72 22
72 60 l0 35 -70 0 -70 0 1 448 c1 246 4 517 8 602 l6 155 105 27 c58 15 116
27 128 28 l24 0 -4 -2240z m149 2164 c-3 -3 -12 -4 -19 -1 -8 3 -5 6 6 6 11 1
17 -2 13 -5z m273 -99 l0 -35 -129 0 c-70 0 -149 3 -175 6 -79 11 -31 24 94
25 139 2 104 16 -43 18 -63 1 -96 5 -92 11 4 6 73 10 176 10 l169 0 0 -35z
m-730 -347 c-1 -424 -13 -735 -29 -751 -6 -6 -11 -21 -11 -34 0 -13 -4 -23 -9
-23 -26 0 -45 19 -95 89 -68 98 -107 131 -152 131 -53 0 -102 -25 -125 -65
-21 -34 -22 -35 -87 -35 -37 0 -96 -5 -132 -10 -152 -24 -157 -24 -211 -1 -48
21 -53 22 -90 7 -22 -9 -50 -16 -64 -16 -13 0 -36 -5 -52 -12 l-28 -11 30 -7
c17 -3 29 -10 28 -16 -11 -44 -82 -198 -96 -205 -9 -5 -73 -21 -143 -34 -122
-24 -143 -30 -133 -40 5 -4 135 13 239 31 23 3 32 2 25 -4 -9 -9 -148 -40
-252 -57 l-42 -7 -5 44 c-10 86 -28 1010 -20 1018 5 4 86 24 179 44 94 21 206
48 250 61 148 44 238 68 610 161 204 51 380 93 393 93 l22 1 0 -352z m675 283
c20 -5 -5 -9 -79 -14 -140 -9 -221 -9 -212 0 17 18 230 28 291 14z m45 -81 l0
-40 -132 0 c-143 0 -211 7 -202 21 3 5 75 9 160 9 101 0 153 3 149 10 -4 6
-53 10 -114 10 -128 0 -209 9 -189 21 7 5 84 9 171 9 l157 0 0 -40z m-22 -69
c9 -5 -3 -10 -34 -15 -101 -13 -300 -3 -272 15 7 5 76 9 153 9 77 0 146 -4
153 -9z m-2015 -63 c-15 -29 -17 -30 -29 -13 -16 22 -2 45 26 45 17 0 17 -2 3
-32z m2027 -15 c0 -21 3 -48 6 -60 l6 -23 -140 0 c-152 0 -220 8 -187 21 11 4
56 9 100 10 44 1 62 4 40 6 -177 14 -191 33 -26 33 121 0 180 8 159 21 -7 5
-66 9 -131 9 -76 0 -116 4 -112 10 4 6 63 10 146 10 l139 0 0 -37z m-2190 -30
c0 -25 0 -26 -20 -8 -11 10 -20 22 -20 27 0 4 9 8 20 8 15 0 20 -7 20 -27z
m-43 -25 c13 -12 23 -25 23 -30 0 -4 -26 -8 -57 -8 l-57 0 29 30 c16 17 31 30
34 30 2 0 15 -10 28 -22z m2217 -54 c42 -16 5 -24 -108 -24 -164 0 -227 13
-101 21 145 9 192 9 209 3z m-2234 -19 c7 -8 18 -15 25 -15 7 0 16 -8 20 -17
10 -24 19 -511 11 -556 -8 -42 -15 -44 -153 -53 -71 -5 -102 -3 -107 5 -5 8 8
11 42 11 27 0 71 3 98 7 68 9 31 21 -71 23 -96 2 -137 13 -86 23 19 4 54 8 80
8 31 1 36 3 16 6 -16 2 -45 6 -64 9 -52 9 -18 24 54 24 33 0 78 3 100 7 36 6
38 7 15 14 -14 4 -64 7 -112 8 -48 1 -89 5 -92 10 -7 11 53 21 134 21 36 0 71
4 78 9 17 10 -66 21 -170 21 -45 0 -78 4 -78 10 0 6 31 10 73 10 102 0 207 11
201 21 -3 5 -47 9 -97 10 -51 1 -103 4 -117 8 -22 7 -20 9 20 14 25 4 59 8 75
10 17 1 -12 6 -62 11 -106 9 -125 26 -29 26 83 0 157 10 150 21 -3 5 -36 9
-73 9 -38 0 -89 3 -115 6 -69 10 -37 23 59 25 92 2 62 16 -37 18 -66 1 -80 21
-15 21 58 0 117 11 117 21 0 5 -35 9 -77 9 -109 0 -82 18 42 28 l100 8 -100 7
c-54 4 -101 10 -104 12 -12 12 17 18 109 23 116 5 125 22 11 22 -43 0 -93 3
-111 6 -58 12 -10 24 96 24 56 0 115 3 133 6 32 7 33 24 1 24 -21 0 -34 15
-25 30 9 14 21 12 35 -5z m-113 -31 c-3 -3 -12 -4 -19 -1 -8 3 -5 6 6 6 11 1
17 -2 13 -5z m2371 -131 l3 -133 -168 0 c-178 0 -243 12 -126 23 37 4 107 7
155 7 48 0 90 5 93 10 4 6 -37 10 -117 10 -126 0 -168 6 -168 21 0 5 66 10
148 10 172 2 148 16 -30 18 -64 0 -119 5 -122 10 -7 11 92 21 205 21 53 0 89
4 89 10 0 6 -55 10 -146 10 -94 0 -143 4 -139 10 4 6 58 10 128 11 134 0 190
11 122 22 -22 4 -87 7 -145 7 -73 0 -100 3 -90 10 9 6 41 8 77 4 68 -7 163 3
163 17 0 5 -48 9 -107 9 -60 0 -119 3 -133 7 l-25 7 30 7 c17 4 91 6 165 5
l135 -1 3 -132z m-24 -172 c18 -7 18 -8 -5 -14 -56 -15 -303 -2 -277 14 16 11
256 10 282 0z m-58 -41 c36 0 64 -4 64 -10 0 -13 -307 -14 -315 -1 -6 11 80
20 144 15 24 -2 72 -4 107 -4z m56 -52 c21 -18 28 -44 15 -57 -13 -13 -285
-15 -305 -2 -17 11 67 21 178 21 47 0 92 5 100 10 10 6 -34 10 -134 10 -156 0
-184 9 -68 20 114 12 197 11 214 -2z m-2 -108 c-20 -13 -273 -13 -265 0 4 6
62 10 143 10 92 0 132 -3 122 -10z m-949 -53 c-13 -13 -26 -3 -16 12 3 6 11 8
17 5 6 -4 6 -10 -1 -17z m937 6 c17 -3 32 -10 32 -15 0 -11 -252 -3 -300 10
-24 6 -23 7 10 13 36 7 198 2 258 -8z m-998 -23 c22 -12 64 -134 79 -231 9
-54 8 -68 -9 -103 -10 -23 -28 -52 -39 -66 l-21 -25 8 35 c4 19 7 85 7 145 0
98 -3 116 -28 169 -37 80 -36 97 3 76z m978 -26 l52 -7 0 -83 0 -84 -155 0
c-97 0 -155 4 -155 10 0 6 28 10 63 10 97 0 217 12 217 21 0 5 -46 9 -102 9
-57 0 -121 3 -143 7 -66 11 -13 22 112 22 63 1 115 5 118 11 4 6 -45 10 -139
10 -91 0 -146 4 -146 10 0 6 36 10 89 10 113 0 212 10 205 21 -3 5 -53 9 -112
9 -123 0 -190 9 -170 21 15 10 190 12 266 3z m-2151 -42 c8 -5 10 -27 6 -70
l-6 -62 -133 0 c-125 0 -175 10 -119 24 31 8 32 22 3 30 -44 12 4 26 88 26 45
0 96 3 115 7 55 11 7 22 -103 22 -96 1 -142 16 -71 24 71 7 208 7 220 -1z
m1321 -164 c3 -100 1 -138 -7 -134 -7 5 -11 48 -11 114 -1 62 -6 122 -14 144
-15 42 -10 56 13 33 13 -12 17 -46 19 -157z m-806 95 c-13 -16 -25 -36 -29
-45 -9 -29 -26 -21 -18 9 10 42 45 87 58 74 8 -8 5 -19 -11 -38z m80 -156 c2
-103 6 -126 21 -142 19 -19 9 -43 -13 -30 -35 21 -50 132 -34 249 12 82 22 49
26 -77z m885 -307 c2 -223 0 -448 -5 -500 l-7 -95 -132 -26 c-214 -42 -201
-42 -217 -10 -8 15 -38 104 -66 197 -29 93 -64 203 -79 244 -39 105 -74 230
-75 264 -1 28 2 30 64 42 35 8 83 20 106 28 l42 14 43 -44 c24 -24 51 -44 61
-44 9 0 42 11 73 25 65 29 77 49 95 170 17 110 38 147 80 142 13 -2 15 -56 17
-407z m-387 380 c0 -5 -4 -10 -10 -10 -5 0 -10 5 -10 10 0 6 5 10 10 10 6 0
10 -4 10 -10z m-1081 -1060 c11 -1021 16 -1216 32 -1225 4 -3 13 23 21 57 12
59 15 63 48 70 19 4 85 11 147 14 100 6 119 5 178 -15 75 -26 128 -25 133 2 3
13 -4 17 -30 17 -21 0 -43 8 -56 20 -19 18 -22 31 -22 103 0 109 -11 217 -21
217 -5 0 -9 -62 -10 -137 0 -149 -12 -154 -24 -13 -12 140 -24 136 -24 -7 -1
-73 -5 -133 -10 -133 -5 0 -12 59 -16 130 -8 139 -25 178 -25 56 0 -92 -10
-167 -21 -160 -5 3 -9 50 -9 104 0 110 -4 130 -29 130 -31 0 -41 -22 -41 -96
0 -90 -10 -165 -21 -158 -5 3 -9 50 -9 104 0 115 -4 130 -35 130 -31 0 -35
-15 -35 -133 0 -126 -18 -120 -22 8 -3 87 -4 90 -25 87 -19 -3 -23 2 -23 23 0
38 27 46 325 99 143 26 332 62 420 81 211 44 262 54 310 57 35 2 39 0 36 -17
-3 -11 -5 -76 -5 -143 l-1 -124 -29 -25 c-40 -34 -45 -21 -47 107 -2 141 -18
70 -18 -82 -1 -60 -5 -108 -10 -108 -4 0 -10 72 -13 160 -3 114 -8 164 -18
173 -10 10 -11 -23 -6 -178 3 -104 9 -207 12 -227 5 -30 3 -38 -9 -38 -23 0
-27 31 -27 206 0 89 -3 176 -6 193 -7 32 -24 43 -24 16 0 -12 -4 -13 -19 -6
-15 8 -20 7 -25 -5 -8 -21 -8 -221 1 -307 8 -86 23 -68 23 28 1 98 18 63 26
-53 l7 -90 -44 -6 c-24 -3 -60 -7 -79 -10 -19 -2 -62 -14 -94 -26 -73 -26 -76
-24 -76 90 0 92 -7 130 -22 130 -7 0 -9 -45 -7 -122 l4 -123 -120 -23 c-66
-12 -205 -37 -310 -55 l-190 -32 -3 -73 c-2 -42 1 -72 7 -72 10 0 15 13 26 68
4 18 12 35 18 38 7 2 147 29 312 59 165 31 441 83 613 116 291 57 315 60 330
45 9 -9 33 -67 53 -129 30 -91 35 -114 24 -123 -7 -5 -184 -45 -392 -88 -208
-43 -494 -102 -637 -132 -142 -30 -270 -54 -286 -54 -24 0 -28 5 -34 38 -3 20
-6 58 -6 85 0 26 -4 47 -9 47 -17 0 -20 -210 -15 -1025 5 -793 -4 -1502 -20
-1536 -5 -12 -1 -18 14 -22 17 -4 20 -10 14 -34 -4 -15 -10 -32 -14 -36 -8
-10 -166 -16 -240 -9 -88 8 -32 20 95 21 117 1 166 13 98 24 -21 4 -86 7 -145
7 -59 0 -109 4 -112 9 -6 10 89 21 180 21 34 0 66 5 69 10 4 6 -42 10 -129 10
-188 0 -178 19 12 22 173 3 203 22 42 25 -58 2 -116 6 -130 10 -23 6 -21 7 15
14 22 4 79 8 128 8 48 1 87 5 87 10 0 5 -61 12 -135 16 -149 8 -184 25 -51 25
101 0 177 10 170 21 -3 5 -44 9 -92 9 -99 0 -162 9 -162 21 0 5 56 9 124 9 69
0 127 4 130 9 8 12 -44 21 -133 22 l-76 1 97 12 c53 6 100 14 104 19 4 4 -36
7 -88 7 -110 0 -167 8 -146 21 7 5 60 9 118 9 109 0 158 12 100 24 -18 3 -62
6 -99 6 -83 0 -111 15 -45 24 26 3 78 6 115 6 116 0 77 18 -56 25 -124 7 -175
25 -71 25 82 0 176 12 170 21 -3 5 -40 9 -82 9 -42 0 -94 3 -115 7 -64 10 -21
23 79 23 50 0 106 3 125 7 56 11 6 22 -108 22 -101 1 -141 13 -82 25 18 3 61
6 98 6 83 0 111 15 45 24 -26 3 -71 6 -100 6 -30 0 -54 5 -54 10 0 6 26 10 59
10 76 0 151 11 151 21 0 5 -37 9 -82 10 -46 0 -101 4 -123 8 -38 7 -36 8 35
14 41 4 95 8 119 10 25 1 46 8 49 15 3 9 -23 12 -108 12 -71 0 -109 4 -105 10
3 6 37 10 75 10 38 0 72 5 75 10 4 6 -16 10 -52 10 -75 0 -134 10 -127 21 3 5
43 9 88 9 46 0 98 3 117 7 51 10 10 21 -82 22 -42 1 -92 4 -110 8 -33 7 -33 7
-9 14 14 4 72 8 130 8 58 1 111 5 118 10 17 10 -66 21 -170 21 -43 0 -78 4
-78 9 0 8 116 21 192 21 21 0 38 5 38 10 0 6 -33 10 -77 11 -43 0 -100 4 -128
8 l-50 7 33 8 c19 4 73 5 122 1 64 -5 90 -4 95 5 12 19 -15 30 -80 31 l-60 2
78 10 c42 5 77 13 77 17 0 5 -38 11 -84 15 -138 12 -166 23 -61 24 93 1 169
16 160 30 -2 5 -63 12 -135 16 -71 4 -127 11 -124 16 3 5 56 9 119 9 63 0 116
4 119 9 10 15 -22 21 -112 21 -48 0 -105 3 -127 7 -64 10 -15 21 105 23 117 2
167 12 111 23 -19 4 -70 7 -115 7 -96 0 -131 14 -60 24 26 3 84 6 130 6 46 0
84 4 84 9 0 11 -84 21 -180 21 -52 0 -70 3 -60 10 8 5 40 10 70 10 70 0 130
10 130 21 0 5 -31 9 -69 9 -38 0 -83 3 -102 7 -51 10 -10 21 81 22 41 1 86 4
99 8 23 6 23 7 5 14 -10 4 -62 8 -114 8 -52 1 -102 6 -110 11 -20 13 -13 13
121 10 63 -1 109 2 113 8 10 16 -23 24 -134 30 -80 4 -98 7 -75 14 17 4 62 5
102 2 39 -4 80 -4 90 0 35 14 -9 24 -134 31 -68 4 -126 11 -129 16 -3 5 61 9
145 9 83 0 151 4 151 9 0 12 -78 21 -186 21 -51 0 -95 4 -99 9 -9 15 60 24
131 18 72 -7 166 2 158 14 -3 5 -40 9 -82 9 -99 0 -183 10 -176 21 3 5 47 9
99 9 97 0 129 6 119 21 -3 5 -49 9 -102 9 -53 0 -104 5 -112 10 -10 7 10 10
65 10 44 0 98 3 120 7 l40 7 -30 7 c-16 4 -63 7 -102 8 -106 2 -92 21 15 21
98 0 141 8 120 21 -7 5 -53 9 -103 9 -99 0 -142 13 -78 23 21 4 70 7 110 7 39
0 74 4 77 9 7 11 -52 21 -139 22 l-70 1 95 15 c140 21 135 33 -13 33 -70 0
-127 4 -127 8 0 5 55 12 122 16 159 9 180 26 33 26 -129 0 -169 14 -68 23 37
4 90 7 116 7 30 0 46 4 42 10 -3 6 -41 10 -83 10 -42 0 -101 3 -130 7 -84 10
-40 23 78 23 115 0 160 7 138 21 -7 5 -62 9 -121 9 -70 0 -106 4 -102 10 3 6
43 10 88 11 45 1 93 4 107 8 23 7 21 8 -15 14 -22 4 -77 7 -122 7 -49 0 -83 4
-83 10 0 6 38 10 93 10 50 0 109 3 130 7 65 10 20 23 -85 23 -53 0 -108 4
-122 10 -27 10 -55 55 -42 67 4 4 49 9 101 11 52 3 95 8 95 12 0 5 -30 12 -67
16 -57 7 -63 9 -38 15 17 4 62 7 100 8 76 1 113 14 73 24 -12 4 -66 7 -118 8
-122 1 -177 16 -70 19 41 1 100 5 130 9 l55 7 -90 8 c-112 9 -139 20 -60 23
179 8 222 33 57 33 -53 0 -108 3 -121 7 -23 6 -23 7 -5 14 10 4 66 8 124 9
123 2 170 13 96 23 -27 4 -84 7 -127 7 -44 0 -79 4 -79 9 0 9 96 21 176 21 30
0 54 5 54 10 0 6 -35 10 -85 10 -82 0 -86 1 -95 25 -6 16 -18 25 -32 26 -43 2
44 18 135 24 48 4 87 11 87 16 0 5 -49 9 -109 9 -63 0 -112 4 -116 10 -4 6 22
10 72 10 86 0 126 13 73 24 -18 3 -54 6 -81 6 -27 0 -49 4 -49 9 0 10 75 21
151 21 33 0 59 4 59 10 0 6 -31 10 -72 10 -93 0 -154 10 -136 21 7 5 36 9 63
9 28 0 68 3 90 7 65 10 14 21 -104 22 -57 1 -102 4 -99 7 4 3 52 10 107 14
155 14 161 29 11 30 -129 1 -146 18 -20 19 36 1 82 4 103 7 69 12 38 24 -60
24 -103 0 -150 12 -93 24 18 3 69 6 114 6 92 0 130 13 69 23 -21 4 -76 7 -123
7 -64 0 -81 3 -72 12 7 7 46 11 104 11 99 -1 128 3 128 18 0 5 -55 9 -126 9
-81 0 -123 4 -119 10 3 6 22 10 41 10 19 0 34 4 34 9 0 11 -25 21 -51 21 -10
0 -19 4 -19 9 0 9 96 21 176 21 30 0 54 4 54 9 0 5 -58 12 -130 16 -71 4 -130
11 -130 16 0 5 46 9 103 10 156 2 202 25 62 31 l-60 3 50 8 c105 18 99 22 -48
32 -104 8 -107 25 -4 25 40 0 89 3 109 6 69 12 28 24 -80 24 -73 0 -102 3 -92
10 8 5 24 10 35 10 11 0 38 5 60 11 34 10 37 13 20 20 -11 4 -42 8 -69 8 -46
1 -48 2 -30 15 18 14 18 15 2 20 -55 18 -55 18 -33 26 11 5 61 9 110 9 97 1
140 14 85 25 -18 3 -70 6 -116 6 -46 0 -84 4 -84 9 0 5 52 12 115 16 63 4 115
10 115 15 0 4 -33 12 -72 17 l-73 10 55 2 c30 1 61 5 68 10 19 12 -44 21 -145
21 -45 0 -84 4 -87 9 -7 11 77 21 177 21 42 0 77 4 77 9 0 8 -109 20 -194 22
-69 1 -11 17 65 18 81 1 129 10 129 24 0 6 -34 8 -99 4 -103 -6 -171 -1 -171
14 0 5 7 9 15 9 17 0 20 16 5 25 -24 15 6 25 74 25 40 0 94 3 120 6 75 11 33
24 -76 24 -54 0 -100 4 -103 10 -4 6 11 10 37 10 75 0 178 13 178 21 0 5 -51
9 -112 10 -120 0 -127 17 -8 18 36 1 82 4 103 8 65 10 20 23 -85 23 -54 0 -98
4 -98 9 0 5 39 12 88 16 121 9 123 9 122 20 0 6 -44 9 -118 7 -141 -4 -142 11
-3 28 139 16 147 29 18 30 -70 0 -106 4 -102 10 3 6 45 10 93 10 94 0 137 13
82 24 -18 3 -64 6 -102 6 -102 0 -74 17 42 25 55 4 100 11 100 15 0 8 -80 19
-150 21 -37 1 -41 2 -20 9 14 4 44 8 67 9 48 1 73 9 73 23 0 6 -41 7 -115 3
-82 -5 -115 -4 -115 4 0 6 6 11 13 11 20 0 179 20 210 26 15 3 25 10 21 15 -3
6 -44 7 -103 3 -62 -4 -100 -3 -104 3 -7 11 82 23 169 23 41 0 54 4 54 15 0
18 -51 20 -154 5 -73 -11 -110 -6 -103 13 2 7 41 15 100 19 150 11 156 27 10
28 -67 0 -124 4 -127 9 -7 11 27 21 72 21 36 0 43 15 12 25 -34 11 -12 25 38
25 63 0 122 11 122 21 0 5 -30 9 -67 9 -38 0 -79 3 -92 7 -23 6 -23 7 -5 14
10 4 42 8 71 8 58 1 86 9 77 22 -3 5 -46 9 -96 9 -50 0 -88 3 -85 7 4 3 40 12
79 18 l73 12 -65 2 c-144 3 -140 31 5 31 93 0 138 12 93 23 -12 4 -53 7 -90 7
-99 0 -91 17 12 25 127 10 116 28 -15 23 -64 -2 -105 1 -107 7 -2 12 -1 12
115 20 48 4 87 11 87 16 0 5 -38 9 -85 9 -47 0 -85 4 -85 9 0 9 81 21 147 21
23 0 44 4 47 9 6 10 -65 21 -136 21 -30 0 -47 4 -43 10 3 6 34 10 68 11 34 0
71 4 82 8 16 7 14 9 -13 14 -17 4 -39 4 -47 1 -8 -4 -37 -3 -63 2 -45 7 -46 8
-17 15 17 3 55 7 85 8 82 2 93 17 19 25 -34 3 -80 6 -101 6 -24 0 -37 4 -33
10 3 6 30 10 58 10 69 0 128 10 121 21 -3 5 -27 9 -54 9 -26 0 -56 3 -65 6
-29 11 5 24 65 24 63 0 96 13 58 23 -12 4 -59 7 -103 8 -85 1 -72 16 15 18 54
2 92 20 45 22 -16 1 -51 1 -77 -1 -54 -2 -91 7 -83 21 4 5 51 9 106 9 54 0 99
4 99 9 0 14 -39 21 -117 21 -39 0 -74 4 -77 9 -7 11 53 21 136 21 37 0 69 4
72 9 6 9 -96 21 -177 21 -30 0 -46 4 -42 10 3 6 27 10 53 10 78 0 182 12 182
21 0 5 -38 9 -85 9 -48 0 -85 4 -85 10 0 9 169 19 182 10 3 -3 11 -475 17
-1050z m995 1044 c7 -18 -3 -64 -14 -64 -8 0 -20 35 -20 63 0 21 26 23 34 1z
m1196 -23 c0 -17 -3 -32 -8 -35 -17 -10 -312 -19 -312 -9 0 14 59 23 152 23
42 0 80 5 83 10 4 6 -31 10 -97 10 -57 0 -114 4 -128 7 -23 7 -21 8 15 14 22
3 97 7 168 8 l127 1 0 -29z m-1308 -16 c0 -5 -5 -11 -11 -13 -6 -2 -11 4 -11
13 0 9 5 15 11 13 6 -2 11 -8 11 -13z m228 -35 c0 -11 -7 -20 -15 -20 -15 0
-21 21 -8 33 12 13 23 7 23 -13z m1080 -29 c0 -17 -31 -21 -150 -21 -127 0
-182 10 -120 21 55 10 270 10 270 0z m-1769 -107 c30 -79 88 -139 157 -162 49
-16 58 -23 63 -48 9 -40 10 -272 3 -382 l-7 -92 -53 -40 c-62 -46 -76 -71
-100 -164 -13 -51 -22 -70 -38 -75 -12 -5 -95 -23 -186 -41 -91 -18 -175 -35
-186 -37 -16 -4 -23 1 -27 19 -3 12 -8 226 -12 473 -3 248 -8 471 -10 496 -5
41 -3 47 19 57 13 6 86 18 162 27 77 9 141 19 144 21 2 3 15 4 28 2 19 -2 29
-14 43 -54z m96 -27 c13 -27 22 -52 19 -55 -16 -15 -86 85 -86 124 0 15 2 15
21 -2 12 -10 32 -41 46 -67z m1661 74 c9 -5 -3 -10 -34 -15 -101 -13 -300 -3
-272 15 7 5 76 9 153 9 77 0 146 -4 153 -9z m-1373 -61 c3 -5 1 -10 -4 -10 -6
0 -11 5 -11 10 0 6 2 10 4 10 3 0 8 -4 11 -10z m1335 0 c-14 -4 -65 -8 -115
-8 -49 0 -101 4 -115 8 -15 5 31 8 115 8 84 0 130 -3 115 -8z m15 -50 c-8 -12
-212 -12 -240 0 -13 5 29 9 113 9 86 1 131 -3 127 -9z m-1395 -35 c13 -35 75
-254 110 -393 17 -63 34 -120 39 -126 10 -12 61 -198 61 -222 0 -17 -41 -19
-58 -2 -7 7 -12 20 -12 30 0 27 -58 86 -109 112 l-46 24 -1 273 c-1 151 -5
286 -9 302 -9 35 12 37 25 2z m80 -21 c0 -13 -5 -24 -10 -24 -13 0 -32 48 -24
61 10 16 34 -11 34 -37z m1335 6 c4 -6 -45 -10 -139 -10 -91 0 -146 4 -146 10
0 6 53 10 139 10 83 0 142 -4 146 -10z m-40 -48 c81 -11 40 -19 -114 -23 -105
-3 -145 -1 -148 8 -7 19 161 28 262 15z m-1275 -41 c5 -11 10 -28 10 -38 0
-11 14 -41 31 -67 30 -49 32 -63 5 -53 -33 13 -90 132 -79 165 7 18 21 15 33
-7z m1300 -20 c24 -7 24 -7 -9 -14 -75 -16 -278 -4 -249 14 16 10 222 10 258
0z m14 -60 c8 -13 -152 -23 -238 -15 -42 4 -73 11 -70 15 7 12 301 12 308 0z
m-71 -47 c124 -11 78 -24 -83 -24 -195 0 -215 19 -29 28 20 1 70 -1 112 -4z
m-1391 -69 c0 -5 -5 -11 -11 -13 -6 -2 -11 4 -11 13 0 9 5 15 11 13 6 -2 11
-8 11 -13z m1468 -30 l0 -45 -94 0 c-115 0 -216 10 -216 21 0 5 65 9 144 9 80
0 147 4 150 9 9 13 -47 21 -158 21 -55 0 -112 3 -126 7 l-25 7 25 7 c14 4 87
7 163 8 l137 1 0 -45z m-1235 8 c7 -17 35 -150 35 -165 0 -22 -22 -3 -41 33
-28 55 -38 149 -16 149 8 0 18 -8 22 -17z m1232 -99 c5 -16 -65 -22 -196 -15
-80 4 -116 10 -119 19 -3 10 29 12 154 10 104 -2 159 -7 161 -14z m-17 -64 c0
-6 -51 -10 -134 -10 -79 0 -137 4 -141 10 -4 6 43 10 134 10 87 0 141 -4 141
-10z m-1156 -75 c19 -29 20 -35 4 -35 -18 0 -48 31 -48 51 0 24 24 15 44 -16z
m1120 29 c85 -12 47 -24 -76 -24 -126 0 -168 6 -168 21 0 10 175 12 244 3z
m26 -63 c18 -5 21 -9 10 -13 -17 -6 -210 8 -218 17 -8 7 178 4 208 -4z m-12
-47 c38 -11 24 -24 -26 -24 -98 0 -233 13 -220 21 15 10 212 12 246 3z m-1108
-19 c7 -9 10 -19 6 -22 -8 -9 -38 9 -44 25 -5 17 23 15 38 -3z m-226 -46 c31
-36 33 -64 7 -78 -16 -9 -192 -51 -213 -51 -16 0 -8 88 10 110 18 22 19 22 45
5 34 -22 74 -13 87 20 13 33 33 31 64 -6z m1314 14 c52 -6 53 -6 50 -37 l-3
-31 -78 -3 c-53 -2 -77 1 -72 8 3 5 27 10 53 10 57 0 94 9 86 21 -3 5 -53 9
-112 9 -123 0 -190 9 -170 21 15 10 170 12 246 2z m-660 -31 c3 -22 1 -23 -25
-18 -24 6 -34 1 -65 -31 -41 -44 -72 -99 -62 -114 3 -6 -6 -28 -22 -50 -31
-45 -26 -63 7 -25 28 33 55 36 39 5 -23 -41 1 -31 54 24 90 94 86 64 -6 -39
-29 -33 -67 -77 -84 -98 -18 -24 -35 -36 -42 -32 -9 5 -9 13 -2 27 9 16 7 19
-9 19 -26 0 -34 15 -17 30 8 6 14 25 14 41 -1 18 8 39 22 54 17 19 20 25 8 25
-8 0 -25 -11 -38 -25 -13 -14 -27 -25 -32 -25 -13 0 -9 27 7 40 23 19 18 31
-10 24 -14 -3 -25 -2 -25 4 0 18 98 101 127 107 48 11 53 14 53 30 0 12 -6 15
-21 10 -12 -4 -33 -9 -48 -10 -14 -2 -50 -9 -80 -15 -54 -12 -92 -7 -75 9 7 8
130 35 244 54 56 10 85 3 88 -21z m492 -32 c0 -5 -18 -10 -40 -10 -22 0 -40 5
-40 10 0 6 18 10 40 10 22 0 40 -4 40 -10z m-946 -53 c9 -14 6 -26 -12 -58
-24 -41 -25 -62 -2 -34 31 37 41 4 10 -35 -28 -36 -26 -59 3 -32 27 26 37 28
37 8 0 -8 -25 -41 -56 -73 -75 -77 -214 -244 -214 -256 0 -5 30 19 66 52 69
63 93 76 74 40 -7 -11 -9 -23 -7 -26 9 -8 84 17 97 32 7 8 17 15 21 15 13 0
-14 -51 -38 -72 -18 -17 -271 -84 -280 -74 -4 4 12 24 132 161 82 93 120 145
107 145 -10 0 -130 -129 -231 -247 -29 -35 -57 -63 -62 -63 -15 0 -10 26 11
53 24 30 26 47 5 47 -19 0 -19 9 2 32 23 25 35 22 27 -7 -10 -42 10 -29 86 52
86 92 165 193 151 193 -5 0 -36 -29 -69 -65 -33 -36 -72 -75 -87 -86 l-27 -22
31 55 c17 30 31 64 31 75 0 11 7 27 17 34 15 13 15 12 4 -8 -14 -28 -2 -29 31
-4 35 28 112 130 104 138 -3 4 -29 -15 -56 -42 -55 -54 -73 -57 -35 -5 14 18
23 35 21 38 -9 8 -42 -24 -153 -143 -127 -138 -181 -190 -187 -184 -2 2 21 35
51 72 31 37 53 70 50 74 -4 3 -14 0 -23 -8 -14 -11 -16 -10 -14 11 1 14 2 29
1 35 -1 5 -46 -35 -101 -90 -55 -55 -100 -95 -100 -90 0 6 50 66 110 133 61
68 110 127 110 133 0 22 -23 4 -86 -66 -65 -72 -94 -95 -94 -75 0 5 18 30 40
55 72 83 42 72 -47 -18 -81 -83 -85 -88 -67 -102 21 -15 34 2 -109 -152 -31
-34 -57 -66 -57 -72 0 -6 11 -11 24 -11 13 0 26 -5 28 -11 2 -6 61 44 130 110
70 67 130 121 133 121 18 0 -6 -34 -87 -119 -51 -53 -103 -109 -115 -123 -20
-24 -102 -58 -140 -58 -16 0 -17 22 -1 38 6 6 9 15 5 18 -9 9 -47 -25 -47 -42
0 -7 -9 -18 -20 -24 -17 -9 -22 -7 -30 16 -10 26 -11 26 -30 9 -15 -14 -23
-16 -32 -7 -8 8 14 35 84 104 122 120 348 366 348 378 0 20 -14 9 -106 -82
-52 -50 -96 -89 -99 -86 -3 3 24 38 60 78 65 71 74 87 41 74 -17 -7 -146 -152
-146 -165 0 -4 10 -5 21 -2 19 5 20 4 10 -15 -17 -33 -194 -212 -209 -212 -19
0 1 33 32 54 30 19 106 112 106 129 0 6 -26 -14 -58 -46 -56 -55 -72 -66 -72
-49 0 5 57 71 127 148 121 133 125 139 98 142 -31 4 -119 -51 -161 -101 -41
-49 -17 -44 35 7 74 73 88 52 16 -23 -76 -80 -113 -107 -127 -93 -7 7 -1 15
21 26 35 19 41 36 11 36 -29 0 -25 11 16 51 47 45 58 67 44 84 -10 11 -6 16
17 21 91 24 811 172 827 171 10 -1 24 -10 30 -20z m66 15 c0 -13 -12 -22 -22
-16 -10 6 -1 24 13 24 5 0 9 -4 9 -8z m380 -17 c0 -8 -9 -19 -20 -25 -15 -8
-20 -8 -20 3 0 14 19 37 32 37 4 0 8 -7 8 -15z m719 -1 c12 -11 -19 -17 -132
-21 -125 -6 -177 -1 -177 17 0 5 26 11 58 13 60 4 244 -2 251 -9z m-981 -16
c-6 -17 -36 -34 -45 -24 -4 4 1 14 11 22 24 17 39 18 34 2z m951 -35 c23 -6
23 -7 5 -14 -24 -10 -220 -11 -254 -2 l-25 7 25 7 c32 9 218 11 249 2z m-745
-18 c-7 -16 -44 -41 -44 -29 0 11 32 44 41 44 5 0 6 -7 3 -15z m760 -44 c3 -5
-24 -12 -59 -16 -74 -8 -215 3 -215 16 0 12 267 12 274 0z m-703 -39 c-5 -10
-17 -24 -25 -32 -9 -7 -16 -25 -16 -39 0 -15 -16 -49 -35 -76 -40 -56 -38 -71
4 -31 26 24 31 26 50 14 28 -17 27 -26 -4 -20 -14 2 -25 0 -25 -7 0 -15 -74
-51 -105 -51 -17 0 -26 6 -27 18 -4 52 11 76 44 66 24 -7 58 13 58 36 0 10 -7
20 -15 22 -19 4 68 118 90 118 12 0 13 -4 6 -18z m-1351 -35 c0 -24 -27 -57
-47 -57 -18 0 -16 10 5 26 14 10 15 16 5 32 -14 24 -9 32 18 25 11 -3 19 -14
19 -26z m2037 23 c27 0 42 -4 38 -10 -7 -12 -244 -14 -272 -2 -23 9 84 21 146
16 24 -2 64 -4 88 -4z m-1086 -58 c-13 -25 -111 -115 -118 -109 -8 9 98 127
114 127 10 0 11 -5 4 -18z m1123 -1 c3 -5 -4 -11 -17 -15 -53 -14 -320 0 -282
15 28 11 293 11 299 0z m-1452 -58 c-16 -21 -61 -68 -98 -105 -75 -73 -124
-134 -124 -155 0 -7 -9 -13 -20 -13 -25 0 -25 5 0 46 18 27 19 36 8 53 -17 28
13 61 58 61 28 0 45 12 114 82 81 82 117 100 62 31z m373 -2 c7 -24 -2 -48
-22 -55 -21 -8 -30 1 -15 16 18 18 14 30 -8 23 -22 -7 -26 5 -8 23 18 18 46
14 53 -7z m1059 0 c6 -9 -64 -21 -129 -21 -65 0 -135 12 -129 21 3 5 61 9 129
9 68 0 126 -4 129 -9z m-1166 -78 c-15 -15 -30 -24 -34 -21 -8 8 32 48 48 48
7 0 0 -12 -14 -27z m1176 14 c15 -11 17 -21 11 -60 l-7 -47 -149 0 c-93 0
-149 4 -149 10 0 6 24 10 53 10 30 0 90 3 133 7 103 9 60 20 -85 22 -147 1
-118 20 37 23 163 4 162 22 -3 26 -170 4 -164 22 8 22 94 0 138 -4 151 -13z
m-1054 -11 c0 -14 -61 -86 -73 -86 -14 0 -7 18 23 58 30 43 50 53 50 28z
m-720 -34 c0 -10 -79 -105 -96 -115 -31 -17 -12 21 34 71 46 50 62 61 62 44z
m1046 -35 c3 -8 0 -26 -6 -42 -8 -21 -14 -25 -22 -17 -7 7 -22 12 -35 12 -22
0 -23 -4 -23 -71 0 -74 -15 -87 -25 -21 -4 20 -13 56 -22 80 -8 24 -13 46 -10
48 5 5 86 21 120 23 10 0 20 -5 23 -12z m-976 -58 c-16 -28 -80 -99 -91 -99
-21 0 -6 27 38 72 50 51 71 62 53 27z m1710 -49 l0 -50 -139 0 c-77 0 -146 3
-155 6 -42 16 -4 24 118 24 126 0 162 7 141 28 -4 4 -61 8 -128 10 -67 2 -129
6 -137 10 -16 7 95 17 223 20 l77 2 0 -50z m-1588 15 c0 -14 -29 -31 -38 -22
-9 8 16 39 28 35 5 -2 10 -8 10 -13z m658 5 c0 -5 -4 -10 -10 -10 -5 0 -10 5
-10 10 0 6 5 10 10 10 6 0 10 -4 10 -10z m160 -38 c0 -47 -16 -58 -23 -16 -4
20 -4 41 -1 46 10 15 24 -3 24 -30z m39 -77 c1 -59 -15 -105 -26 -77 -4 10 -8
10 -19 1 -24 -20 -28 17 -5 47 15 19 21 41 21 74 0 26 3 50 7 54 12 11 21 -32
22 -99z m-261 20 c-3 -76 -1 -84 20 -63 8 8 14 5 22 -16 16 -44 12 -64 -19
-79 -28 -14 -29 -14 -35 16 -11 53 -7 217 5 217 8 0 10 -24 7 -75z m915 -12
c-40 -2 -106 -2 -145 0 -40 1 -8 3 72 3 80 0 112 -2 73 -3z m-838 -23 c3 -5 2
-10 -4 -10 -5 0 -13 5 -16 10 -3 6 -2 10 4 10 5 0 13 -4 16 -10z m-315 -44 c0
-25 -4 -47 -9 -50 -11 -7 -20 36 -13 69 7 41 22 28 22 -19z m1210 4 c-8 -5
-67 -10 -130 -10 -63 0 -122 5 -130 10 -10 7 33 10 130 10 97 0 140 -3 130
-10z m-57 -36 l77 -7 0 -31 c0 -53 -5 -54 -125 -45 -140 12 -153 17 -43 18 48
1 99 6 115 12 26 10 27 12 8 19 -11 5 -59 9 -106 9 -48 1 -102 4 -120 8 -33 7
-33 7 -9 14 33 9 110 10 203 3z m-1824 -161 c1 -23 -3 -45 -9 -48 -6 -4 -10
27 -9 87 1 80 3 87 10 48 4 -25 8 -64 8 -87z m-99 16 c0 -53 -4 -89 -10 -89
-6 0 -10 39 -10 96 0 61 4 93 10 89 6 -3 10 -46 10 -96z m1283 62 c7 -34 -2
-99 -15 -107 -9 -6 -38 55 -38 82 0 18 27 54 40 54 4 0 10 -13 13 -29z m-1383
-81 c0 -53 -4 -90 -10 -90 -6 0 -10 37 -10 90 0 53 4 90 10 90 6 0 10 -37 10
-90z m1205 47 c8 -13 18 -37 21 -54 5 -27 2 -33 -23 -47 -36 -18 -200 -53
-209 -44 -3 4 4 29 16 56 19 42 30 53 84 80 74 37 91 39 111 9z m885 -7 c0 -6
-57 -10 -152 -9 -95 0 -145 4 -133 9 29 12 285 12 285 0z m-15 -60 c-28 -12
-252 -12 -260 0 -4 7 44 10 137 9 89 0 135 -4 123 -9z m9 -49 c9 -14 -133 -24
-219 -16 -119 11 -77 25 75 25 76 0 141 -4 144 -9z m-684 -22 c0 -5 -7 -9 -15
-9 -15 0 -20 12 -9 23 8 8 24 -1 24 -14z m-67 -20 c10 -11 16 -23 13 -27 -7
-6 -46 27 -46 40 0 14 15 9 33 -13z m757 -19 c0 -6 -53 -10 -139 -10 -83 0
-142 4 -146 10 -4 6 45 10 139 10 91 0 146 -4 146 -10z m-40 -49 c0 -11 -178
-23 -221 -14 l-34 7 30 7 c44 10 225 10 225 0z m10 -60 c0 -4 -36 -11 -79 -15
-90 -7 -200 2 -179 15 17 11 258 11 258 0z m4 -47 c43 -16 3 -24 -126 -24 -88
0 -138 4 -132 9 15 16 226 27 258 15z m-640 -76 c-4 -6 -10 -5 -15 3 -14 22
-10 33 6 19 8 -7 12 -17 9 -22z m650 6 c9 -4 16 -18 16 -34 l0 -27 -114 -7
c-122 -8 -227 1 -191 15 11 4 72 8 135 8 63 1 121 5 128 10 23 14 -23 21 -140
21 -60 0 -110 4 -113 10 -7 11 251 15 279 4z m-630 -77 c30 -39 32 -47 12 -47
-17 0 -56 46 -56 66 0 23 18 16 44 -19z m-76 -1450 l2 -1437 -23 -9 c-13 -5
-36 -20 -53 -34 -16 -13 -39 -27 -51 -31 -29 -9 -61 -55 -71 -101 -16 -78 -93
-65 -212 36 -128 108 -190 139 -319 160 -123 19 -303 -17 -395 -80 -158 -109
-204 -215 -207 -471 0 -113 -9 -154 -25 -129 -13 20 -25 950 -23 1789 0 393 1
726 0 740 -8 226 -11 760 -5 760 32 0 353 60 612 115 436 91 670 133 732 131
l35 -1 3 -1438z m706 1414 c3 -4 -21 -11 -53 -14 -71 -8 -221 2 -221 14 0 12
267 12 274 0z m-56 -47 c34 -4 59 -11 56 -15 -7 -12 -261 -11 -269 0 -9 16
120 24 213 15z m-558 -24 c0 -11 -2 -20 -5 -20 -2 0 -9 9 -15 20 -9 16 -8 20
5 20 8 0 15 -9 15 -20z m600 -39 c24 -7 24 -7 -9 -14 -18 -4 -75 -7 -126 -7
-51 0 -108 3 -126 7 -33 7 -33 7 -9 14 14 4 75 7 135 7 61 0 121 -3 135 -7z
m20 -91 l0 -40 -145 0 c-90 0 -145 4 -145 10 0 6 20 10 43 10 88 0 227 13 227
21 0 5 -35 9 -77 9 -108 0 -213 11 -207 21 3 5 72 9 155 9 l149 0 0 -40z
m-615 -65 c8 -16 17 -45 20 -64 4 -18 16 -52 26 -75 10 -22 19 -52 19 -66 0
-15 4 -30 9 -35 23 -23 150 -422 161 -505 12 -87 30 -1912 29 -3015 0 -834 -8
-1358 -21 -1370 -3 -3 -74 -9 -158 -12 l-153 -6 7 244 c8 245 8 294 5 327 -3
27 20 269 32 348 10 60 8 87 -7 175 -18 99 -19 194 -18 2079 0 1086 4 1993 8
2015 8 39 9 39 18 15 5 -14 16 -38 23 -55z m85 -36 c0 -23 -16 -25 -24 -3 -10
25 -7 34 9 28 8 -4 15 -15 15 -25z m484 25 c76 -11 32 -24 -80 -24 -56 0 -117
3 -135 7 l-34 7 30 7 c41 9 161 10 219 3z m35 -63 c8 -6 -17 -10 -70 -13 -114
-5 -225 2 -208 13 18 11 260 11 278 0z m1 -61 c-20 -13 -247 -13 -255 0 -4 6
42 10 132 10 93 0 133 -3 123 -10z m8 -47 c-3 -16 -18 -18 -108 -21 -107 -3
-197 4 -186 16 4 3 68 9 144 12 75 4 141 7 145 8 5 1 7 -6 5 -15z m-469 -70
c12 -14 19 -28 16 -31 -6 -7 -34 17 -46 40 -15 28 6 22 30 -9z m469 15 c-6
-16 -278 -24 -278 -9 0 6 50 12 123 14 67 1 130 4 140 5 11 1 17 -3 15 -10z
m-3 -58 c-4 -6 -56 -9 -128 -9 -84 1 -109 4 -82 9 64 11 217 11 210 0z m3 -87
c-3 -44 -5 -48 -28 -46 -14 1 -70 5 -125 9 -79 5 -94 9 -70 15 17 5 59 6 95 3
67 -6 126 7 115 26 -4 6 -57 10 -128 10 -73 0 -117 4 -111 9 14 14 49 18 157
20 l98 1 -3 -47z m0 -85 c7 -7 12 -22 12 -34 0 -16 -8 -23 -31 -28 -41 -8
-173 -8 -224 1 -64 10 -15 21 100 22 55 1 106 5 113 10 21 13 -36 21 -147 21
-53 0 -103 5 -111 10 -10 7 33 10 130 10 101 0 150 -4 158 -12z m-337 -117
c13 -11 21 -23 17 -26 -9 -9 -58 21 -58 35 0 15 15 12 41 -9z m313 10 c8 -13
-115 -23 -189 -15 -102 11 -65 24 65 24 65 0 121 -4 124 -9z m-36 -47 c34 -4
59 -11 56 -15 -7 -12 -254 -11 -254 0 0 9 29 14 111 19 14 1 54 -1 87 -4z m33
-61 c28 -5 30 -7 14 -14 -25 -10 -182 -11 -215 -2 l-25 7 25 7 c33 9 159 11
201 2z m29 -72 c5 -11 13 -71 16 -135 l7 -116 -74 0 c-79 0 -119 12 -77 23 12
4 40 7 61 7 20 0 37 5 37 10 0 6 -30 10 -70 10 -53 0 -70 3 -70 14 0 7 -3 27
-6 44 l-6 30 61 1 c34 0 71 3 81 6 40 13 18 25 -44 25 -35 0 -78 3 -96 6 -50
11 -15 24 65 24 75 0 119 14 74 24 -13 2 -57 7 -97 10 -39 3 -77 8 -82 11 -26
16 10 25 105 25 93 0 105 -2 115 -19z m0 -290 c0 -13 -26 -21 -68 -21 -59 0
-18 23 51 29 9 0 17 -3 17 -8z m20 -60 c0 -13 -27 -21 -75 -21 -55 0 -68 17
-18 23 73 7 93 7 93 -2z m-12 -50 c18 -11 -7 -21 -53 -21 -35 0 -55 14 -33 23
21 9 72 7 86 -2z m-166 -68 c10 -9 18 -20 18 -25 0 -13 -37 9 -44 27 -7 20 3
19 26 -2z m174 -8 c9 -38 -2 -55 -36 -55 -34 0 -40 15 -10 25 29 9 25 22 -11
29 -39 8 -28 26 16 26 29 0 36 -4 41 -25z m-246 0 c0 -8 -7 -15 -15 -15 -16 0
-20 12 -8 23 11 12 23 8 23 -8z m11 -60 c-1 -15 -24 -12 -29 3 -3 9 2 13 12
10 10 -1 17 -7 17 -13z m232 -21 c3 -3 3 -13 0 -21 -5 -12 -7 -12 -14 -1 -15
23 -4 40 14 22z m-195 -26 c-5 -16 -128 -24 -128 -9 0 9 32 15 103 19 19 1 27
-2 25 -10z m97 -28 c3 -5 -1 -10 -9 -10 -8 0 -18 5 -21 10 -3 6 1 10 9 10 8 0
18 -4 21 -10z m-29 -45 c13 -8 24 -23 24 -32 0 -14 -2 -14 -20 2 -15 13 -42
20 -100 23 -44 2 -80 8 -80 13 0 23 138 19 176 -6z m-38 -44 c19 -12 -8 -21
-63 -21 -24 0 -51 3 -60 6 -28 11 4 24 60 24 28 0 56 -4 63 -9z m32 -60 c0
-13 -74 -22 -120 -15 -22 4 -37 10 -34 15 7 12 154 12 154 0z m33 -72 c21 -26
22 -45 1 -53 -22 -8 -155 -6 -178 3 -18 7 -18 8 5 14 13 4 52 7 86 7 34 0 64
4 67 9 7 10 -51 21 -116 21 -55 0 -73 17 -26 23 66 10 142 -2 161 -24z m67 0
c0 -6 -4 -7 -10 -4 -5 3 -10 11 -10 16 0 6 5 7 10 4 6 -3 10 -11 10 -16z m-45
-99 c8 -12 -82 -13 -140 -1 -34 7 -26 9 47 10 48 0 90 -3 93 -9z m10 -50 c-7
-12 -182 -12 -210 0 -13 5 23 9 98 9 76 1 116 -3 112 -9z m29 -49 c3 -5 -22
-12 -55 -15 -68 -8 -199 2 -199 15 0 12 247 12 254 0z m49 -84 c8 -17 44 -65
80 -105 37 -39 67 -74 67 -77 0 -17 -29 3 -88 62 l-67 68 -115 3 c-63 1 -126
6 -140 9 -25 6 -25 6 5 13 17 4 69 8 117 9 48 0 89 5 92 10 7 11 -68 21 -160
21 -43 0 -74 4 -74 10 0 6 52 10 135 10 l135 0 13 -33z m77 -24 c15 -20 18
-29 9 -32 -13 -4 -49 33 -49 50 0 17 19 9 40 -18z m-100 -98 l0 -45 -77 0
c-98 0 -183 10 -183 21 0 5 24 9 53 9 83 0 187 12 187 21 0 5 -37 9 -82 9
-102 0 -165 9 -146 21 7 5 66 9 131 9 l117 0 0 -45z m94 -135 c9 -41 33 -131
55 -200 21 -69 42 -140 46 -159 l7 -34 -33 7 c-19 4 -52 9 -75 13 l-41 5 -7
82 c-8 105 -8 350 0 371 12 30 32 -5 48 -85z m-140 64 c79 -11 31 -24 -91 -24
-121 0 -175 10 -113 21 49 9 149 10 204 3z m221 -64 c13 -15 15 -24 8 -31 -19
-19 -48 -6 -51 24 -4 33 17 36 43 7z m-187 1 c17 -11 -42 -21 -124 -21 -79 0
-130 10 -112 21 17 11 219 11 236 0z m16 -73 c12 -46 7 -97 -11 -106 -28 -15
-224 -21 -220 -8 2 7 41 12 100 14 53 1 97 7 97 12 0 11 -67 19 -148 18 -47
-1 -67 3 -80 15 -15 16 -9 17 90 17 59 0 113 3 122 6 37 14 9 22 -99 29 -64 4
-112 11 -109 16 3 5 61 9 128 9 120 0 124 -1 130 -22z m204 -38 c21 -20 29
-40 15 -40 -10 0 -53 42 -53 52 0 14 15 9 38 -12z m28 -114 c10 -8 16 -17 13
-20 -3 -4 -17 2 -30 13 -27 23 -13 28 17 7z m-236 -65 l0 -58 -52 -7 c-74 -8
-171 -7 -186 3 -19 12 34 21 124 21 40 0 75 4 78 9 7 11 -67 21 -155 21 -38 0
-69 4 -69 9 0 9 104 21 183 21 30 0 46 4 42 10 -3 6 -50 10 -106 10 -59 0 -99
4 -99 10 0 6 47 10 120 10 l120 0 0 -59z m-2120 -100 c0 -113 3 -111 -185
-111 -85 0 -156 4 -159 9 -3 4 62 11 145 13 90 4 155 10 162 17 8 8 -30 11
-143 11 -110 0 -151 3 -143 11 6 6 55 13 109 15 55 3 119 7 143 10 70 9 29 24
-65 24 -171 0 -187 27 -19 30 50 1 99 5 109 9 18 7 18 8 -5 14 -13 4 -64 8
-114 9 -87 1 -88 2 -30 8 33 4 90 7 128 8 l67 2 0 -79z m2403 51 c13 -14 14
-21 5 -30 -13 -13 -38 -16 -38 -4 0 4 -3 17 -6 30 -8 28 16 30 39 4z m-283
-122 l0 -70 -112 0 c-123 0 -171 13 -92 24 26 3 78 6 115 6 38 0 69 4 69 9 0
12 -62 21 -147 21 -39 0 -75 5 -78 10 -4 6 17 10 57 10 84 0 168 11 168 21 0
5 -31 9 -69 9 -88 0 -162 10 -155 21 3 5 59 9 125 9 l119 0 0 -70z m312 20
c35 -31 24 -41 -17 -14 -25 16 -41 44 -25 44 5 0 24 -13 42 -30z m-122 7 c41
-20 85 -119 145 -327 77 -261 85 -292 89 -342 2 -24 10 -72 17 -108 15 -79 7
-129 -28 -170 l-26 -32 13 -128 c7 -71 9 -154 5 -188 -12 -108 -78 -215 -148
-241 -42 -16 -47 -14 -47 23 0 51 39 269 50 280 14 14 12 36 -3 36 -22 0 -36
-43 -57 -169 -14 -82 -29 -133 -50 -174 -27 -52 -39 -97 -25 -97 3 0 46 20 95
45 49 25 91 41 94 37 2 -4 -8 -27 -24 -50 -34 -51 -68 -168 -53 -183 8 -8 16
6 28 46 9 32 52 126 95 209 105 204 106 207 85 342 -33 204 -34 196 20 253 26
28 51 48 56 46 8 -6 77 -217 125 -385 14 -52 32 -108 39 -125 7 -16 20 -52 29
-80 9 -27 41 -120 70 -205 30 -85 73 -216 96 -290 23 -74 61 -193 86 -263 24
-71 41 -133 38 -138 -9 -15 -114 -65 -173 -83 -86 -25 -119 -21 -219 29 -88
44 -141 89 -143 123 -3 37 5 49 64 110 49 49 57 62 41 62 -27 0 -111 -60 -135
-97 -44 -66 -12 -145 81 -201 30 -18 57 -37 58 -42 6 -16 -75 -12 -116 5 -126
53 -174 134 -143 243 12 42 -5 43 -44 2 -26 -27 -27 -33 -22 -85 5 -53 16 -83
47 -132 33 -51 -37 -49 -107 4 -69 50 -66 144 7 303 22 48 40 97 40 110 0 41
-25 6 -78 -113 -60 -132 -70 -191 -49 -291 l14 -69 -32 -43 c-30 -40 -33 -41
-39 -21 -3 12 -6 597 -6 1300 l0 1277 58 0 c31 0 68 -6 82 -13z m-1571 -72
c89 -21 155 -59 226 -130 55 -55 62 -67 83 -141 47 -174 8 -381 -90 -470 -49
-44 -82 -43 -86 2 -2 18 -12 40 -24 50 -19 18 -20 18 -40 -6 -15 -19 -18 -33
-14 -62 8 -47 -12 -59 -54 -34 -44 25 -63 21 -57 -11 3 -16 8 -45 13 -67 7
-39 7 -39 -22 -33 -16 2 -78 13 -139 22 -127 20 -156 31 -108 41 43 9 57 27
49 66 -10 53 -42 98 -70 98 -32 0 -66 -48 -73 -101 -3 -22 -9 -42 -13 -44 -5
-3 -30 10 -56 28 -85 58 -124 175 -124 366 0 184 100 356 234 401 128 42 254
51 365 25z m1729 -29 c27 -24 28 -32 2 -46 -17 -9 -23 -6 -40 22 -11 18 -20
41 -20 52 0 20 7 17 58 -28z m162 13 c110 -42 216 -114 329 -224 54 -52 101
-95 105 -95 29 0 -111 165 -184 215 -22 15 -40 32 -40 36 0 14 101 10 164 -6
78 -20 135 -55 206 -126 72 -73 124 -156 159 -257 15 -42 31 -75 37 -72 5 2 8
11 6 18 -6 25 68 -41 115 -103 25 -33 57 -85 70 -115 43 -98 53 -115 116 -190
43 -51 86 -89 135 -120 66 -40 76 -51 104 -108 18 -38 50 -82 79 -110 64 -60
63 -72 -4 -72 -64 0 -146 23 -205 56 l-42 25 -9 -23 c-6 -13 -14 -52 -20 -87
-9 -54 -17 -71 -48 -104 -76 -77 -259 -167 -343 -167 -48 0 -47 -2 -53 165 -4
104 -9 130 -34 195 -17 41 -43 111 -58 155 -34 100 -95 228 -135 280 -69 91
-107 166 -94 186 10 17 64 9 112 -15 81 -41 140 -102 179 -183 36 -76 53 -91
53 -48 0 87 -162 253 -277 284 -46 13 -91 -3 -99 -35 -11 -44 4 -82 77 -195
74 -116 111 -195 148 -319 12 -41 31 -89 40 -106 40 -69 45 -102 47 -379 2
-212 -1 -282 -13 -324 -15 -55 -13 -68 7 -56 22 13 38 69 50 169 17 142 19
146 79 146 71 0 198 -18 256 -37 28 -9 101 -38 164 -65 63 -28 135 -56 160
-64 72 -23 220 -28 378 -14 139 12 146 12 171 -7 46 -34 62 -66 78 -158 8 -49
22 -100 30 -113 8 -12 49 -40 92 -62 156 -82 242 -140 266 -180 l18 -31 -39 7
c-21 4 -69 18 -108 31 -119 42 -194 62 -258 68 -90 10 -150 31 -191 70 -44 41
-91 50 -196 35 -233 -32 -279 -33 -578 -22 -180 6 -309 16 -324 22 -35 16 -44
39 -138 345 -45 149 -99 313 -121 366 -21 53 -60 168 -88 255 -54 172 -106
318 -170 484 -47 119 -261 771 -261 795 0 21 9 19 100 -16z m-2641 -34 c7 -7
11 -21 8 -29 -5 -13 -25 -16 -110 -16 -57 0 -133 -3 -168 -6 -50 -4 -60 -3
-46 6 10 7 68 13 130 14 138 4 137 4 137 16 0 6 -41 10 -102 10 -57 0 -114 3
-128 7 l-25 7 25 8 c40 12 263 -1 279 -17z m1407 -12 c10 -56 -2 -427 -15
-452 -7 -11 -20 -21 -30 -21 -16 0 -19 13 -25 108 -7 116 -27 214 -53 270 -15
31 -15 38 -2 61 8 14 29 31 47 37 18 5 37 15 44 22 19 19 27 14 34 -25z m722
0 c-4 -20 -12 -20 -133 -6 l-70 8 85 6 c47 3 93 6 103 7 13 1 17 -3 15 -15z
m0 -85 l3 -38 -103 0 c-57 0 -120 3 -141 7 -64 10 -21 23 78 23 101 0 145 8
123 21 -7 5 -60 9 -118 9 -73 0 -100 3 -90 10 8 6 66 9 130 8 l115 -3 3 -37z
m395 4 c31 -32 28 -41 -9 -34 -24 4 -47 38 -37 55 8 13 19 8 46 -21z m-2573
-2 c-20 -13 -253 -13 -245 0 4 6 59 10 133 10 86 0 122 -3 112 -10z m60 -70
c0 -23 -5 -31 -22 -34 -49 -10 -318 -16 -318 -8 0 14 63 22 175 22 110 0 155
7 133 21 -7 5 -75 9 -151 9 -90 0 -136 4 -132 10 4 6 68 10 161 10 l154 0 0
-30z m1259 -3 c16 -20 31 -138 31 -248 0 -116 -7 -126 -101 -139 -35 -5 -67
-10 -71 -10 -5 0 -8 60 -8 133 0 72 -6 161 -14 195 -14 69 -14 68 39 75 67 9
113 6 124 -6z m856 -7 c4 -6 -38 -10 -119 -10 -72 0 -127 4 -131 10 -4 6 38
10 119 10 72 0 127 -4 131 -10z m422 -12 c22 -20 31 -48 16 -48 -12 0 -53 43
-53 57 0 19 10 16 37 -9z m-419 -70 c-2 -31 -7 -43 -18 -41 -8 1 -51 4 -94 8
-53 5 -74 10 -65 16 8 5 44 6 82 3 42 -4 67 -3 67 3 0 14 -50 23 -125 23 -35
0 -72 3 -82 7 -27 11 33 20 145 22 l93 1 -3 -42z m-2118 -48 l0 -70 -137 1
c-147 0 -209 11 -138 22 22 4 81 7 130 8 50 0 99 4 110 8 29 11 -56 21 -186
21 -60 0 -111 4 -114 10 -11 18 15 49 48 59 17 5 89 10 160 10 l127 1 0 -70z
m2590 -11 c0 -4 -10 -9 -22 -11 -21 -3 -19 -7 25 -50 48 -47 57 -84 14 -55
-47 31 -80 85 -85 139 l-4 53 36 -34 c20 -19 36 -38 36 -42z m-470 -44 l0 -45
-94 0 c-51 0 -108 3 -126 6 -55 11 -12 24 85 25 104 1 150 12 96 22 -19 4 -62
7 -97 7 -35 0 -64 4 -64 9 0 11 43 17 138 19 l62 2 0 -45z m-2195 -55 c-90
-12 -213 -11 -220 0 -4 7 44 9 137 9 115 -2 131 -3 83 -9z m2190 -30 c4 -6
-38 -10 -119 -10 -77 0 -126 4 -126 10 0 6 46 10 119 10 69 0 122 -4 126 -10z
m-2153 -6 c78 -13 21 -24 -124 -24 -155 0 -189 10 -70 21 100 9 153 9 194 3z
m2672 -36 c20 -28 20 -38 2 -38 -17 0 -48 39 -40 52 9 14 22 9 38 -14z m-514
-28 l0 -40 -102 1 c-111 1 -111 2 0 19 39 7 70 16 66 21 -3 5 -46 9 -96 9 -50
0 -88 3 -84 8 4 4 53 10 109 13 56 3 103 6 105 7 1 1 2 -16 2 -38z m-2155 1
c37 -6 34 -7 -37 -14 -93 -8 -255 3 -198 14 49 9 187 9 235 0z m1445 -46 c0
-8 -4 -15 -9 -15 -13 0 -22 16 -14 24 11 11 23 6 23 -9z m-1492 -12 c-43 -2
-113 -2 -155 0 -43 1 -8 3 77 3 85 0 120 -2 78 -3z m2750 -19 c24 -17 29 -34
9 -34 -20 0 -58 30 -52 41 8 13 17 11 43 -7z m-548 -124 l0 -120 -64 0 c-91 0
-186 11 -180 21 3 5 35 9 72 9 83 0 143 10 136 21 -3 5 -38 9 -77 9 -40 0 -89
3 -109 6 -73 12 -37 24 71 24 61 0 112 4 115 9 8 13 -30 21 -109 22 -95 1 -56
17 45 18 52 1 70 4 60 11 -8 5 -51 10 -95 10 -44 0 -91 3 -104 7 -23 6 -23 7
-5 14 10 4 57 8 104 8 93 1 134 14 80 25 -18 3 -70 6 -117 6 -54 0 -82 4 -78
10 4 6 58 10 131 10 l124 0 0 -120z m-2355 100 c15 -6 7 -9 -30 -8 -39 0 -45
2 -25 8 32 10 31 10 55 0z m135 -99 c0 -28 -4 -52 -9 -55 -12 -8 -22 50 -15
80 10 41 24 26 24 -25z m2720 23 c0 -8 -4 -12 -10 -9 -5 3 -10 10 -10 16 0 5
5 9 10 9 6 0 10 -7 10 -16z m84 -3 c24 -27 11 -48 -15 -25 -19 17 -26 44 -11
44 5 0 17 -9 26 -19z m-2894 -22 c21 -1 19 -3 -10 -10 -19 -5 -60 -6 -90 -2
-50 6 -52 7 -25 14 17 4 46 6 65 3 19 -2 46 -4 60 -5z m8 -61 c7 -7 12 -20 12
-30 0 -15 -8 -18 -47 -17 -27 1 -37 4 -23 6 14 2 32 6 40 10 24 9 -17 21 -73
22 -29 1 -46 5 -42 11 9 14 119 12 133 -2z m2910 -4 c26 -18 29 -34 5 -34 -18
0 -53 28 -53 42 0 13 24 9 48 -8z m-2936 -80 c60 -10 33 -24 -47 -24 -76 0
-111 15 -53 23 58 7 62 7 100 1z m2332 -55 c9 -95 7 -153 -7 -173 -22 -31
-251 -36 -232 -6 3 6 44 10 90 10 87 0 141 13 130 30 -3 6 -54 10 -113 11
-120 1 -106 16 16 18 41 1 72 5 72 11 0 6 -26 10 -59 10 -79 0 -152 11 -145
21 3 5 38 9 78 9 41 0 88 3 106 6 51 11 14 24 -70 25 -91 1 -132 12 -81 22 19
4 66 7 105 7 87 0 118 14 50 24 -26 3 -75 6 -110 6 -35 0 -64 4 -64 9 0 11 45
17 151 19 l76 2 7 -61z m651 21 c21 -23 12 -39 -13 -24 -19 12 -29 44 -14 44
5 0 17 -9 27 -20z m-2961 -26 c21 -8 21 -40 0 -48 -9 -3 -30 -5 -47 -5 l-32 2
38 10 c20 6 37 14 37 18 0 4 -21 11 -47 17 l-48 10 42 1 c23 0 48 -2 57 -5z
m3010 -97 c6 -9 7 -19 3 -23 -9 -10 -57 35 -57 54 0 13 3 13 22 0 12 -8 26
-22 32 -31z m-3089 3 c-3 -5 -13 -10 -21 -10 -8 0 -12 5 -9 10 3 6 13 10 21
10 8 0 12 -4 9 -10z m95 -56 c0 -45 -3 -54 -17 -54 -10 0 -25 5 -33 10 -13 8
-13 10 1 10 21 0 45 26 29 32 -6 2 -8 16 -4 35 10 49 24 29 24 -33z m-95 6 c3
-5 -1 -10 -10 -10 -9 0 -13 5 -10 10 3 6 8 10 10 10 2 0 7 -4 10 -10z m3123
-42 c16 -16 15 -28 -3 -28 -8 0 -19 9 -25 20 -8 15 -8 20 3 20 7 0 18 -5 25
-12z m-3113 -8 c3 -5 -1 -10 -9 -10 -8 0 -18 5 -21 10 -3 6 1 10 9 10 8 0 18
-4 21 -10z m1325 -38 c0 -10 5 -23 12 -30 9 -9 7 -12 -10 -12 -24 0 -38 21
-28 45 8 21 26 19 26 -3z m1047 1 c6 -17 -76 -27 -164 -19 -97 8 -113 19 -38
27 95 10 198 6 202 -8z m-2344 -10 c-7 -2 -19 -2 -25 0 -7 3 -2 5 12 5 14 0
19 -2 13 -5z m942 -23 c59 -5 114 -15 134 -25 27 -14 78 -20 260 -27 124 -5
243 -14 263 -19 35 -9 37 -12 48 -67 6 -31 14 -68 17 -81 5 -22 4 -23 -23 -17
-16 4 -54 25 -84 45 -101 69 -114 71 -145 24 -14 -20 -15 -30 -5 -53 7 -16 23
-36 36 -45 37 -24 31 -45 -13 -45 -49 0 -179 33 -239 60 -32 15 -55 20 -73 15
-14 -4 -60 -10 -101 -14 -58 -5 -74 -9 -72 -20 6 -27 62 -88 92 -101 40 -17
38 -30 -4 -30 -40 0 -66 -8 -66 -21 0 -5 30 -29 68 -53 81 -52 103 -76 100
-106 -3 -22 3 -25 82 -41 115 -23 246 -34 254 -21 8 13 -149 89 -212 103 -24
5 -67 21 -95 36 -143 72 -122 84 68 39 82 -19 152 -33 157 -30 19 12 -18 35
-86 55 -116 33 -159 50 -194 76 -48 36 -29 47 31 17 114 -58 237 -84 237 -49
0 20 -22 30 -110 49 -77 17 -140 47 -140 67 0 6 6 9 13 6 109 -42 190 -60 272
-61 86 -1 160 16 153 34 -2 4 -27 26 -55 49 -88 69 -62 86 36 23 32 -22 73
-45 90 -51 40 -17 44 -35 26 -112 -8 -35 -17 -118 -20 -184 -9 -178 4 -161
-122 -154 -59 3 -119 11 -132 18 -13 7 -80 30 -150 51 -159 49 -194 61 -205
71 -6 5 1 9 17 9 41 0 32 18 -14 30 -52 14 -74 10 -74 -15 0 -28 77 -82 143
-101 31 -8 121 -35 200 -59 105 -33 167 -46 237 -51 l95 -7 0 -73 c0 -104 0
-104 -79 -104 -118 0 -231 42 -367 135 -73 49 -228 105 -246 87 -12 -12 11
-24 120 -63 35 -12 96 -45 135 -74 115 -83 164 -102 317 -119 l105 -12 3 -37
c3 -33 0 -38 -25 -48 -53 -20 -301 44 -368 95 -74 56 -214 113 -392 157 -68
16 -139 42 -181 64 -60 33 -76 48 -120 114 -84 125 -97 161 -97 271 0 52 2
106 5 120 4 18 1 25 -10 25 -15 0 -26 -38 -37 -132 -14 -126 54 -283 162 -378
90 -79 147 -104 294 -129 46 -8 107 -26 135 -40 29 -14 68 -29 87 -32 19 -4
70 -26 114 -50 129 -69 302 -124 391 -124 l42 0 7 -60 c9 -75 -1 -90 -61 -90
-59 0 -196 45 -234 77 -17 14 -52 30 -78 34 -55 11 -115 40 -160 80 -32 28
-72 39 -72 19 0 -23 159 -119 225 -134 33 -8 95 -51 95 -67 0 -15 -191 -11
-250 7 -54 16 -124 56 -134 77 -50 98 -63 113 -116 139 -42 21 -79 30 -156 37
-118 11 -157 25 -217 80 -41 38 -77 53 -77 32 0 -20 95 -91 148 -111 30 -11
91 -26 136 -32 110 -14 170 -46 195 -103 13 -30 36 -56 71 -81 64 -46 55 -54
-60 -54 -74 0 -100 5 -198 40 -177 63 -207 83 -279 190 -35 50 -80 96 -88 88
-11 -10 17 -63 54 -103 39 -43 66 -84 59 -91 -2 -2 -26 8 -53 21 -52 27 -71
30 -79 16 -8 -12 101 -62 232 -106 61 -20 112 -41 112 -46 0 -5 -83 -9 -187
-9 l-188 0 2 222 c2 123 6 413 9 646 l6 422 277 0 c152 -1 321 -5 376 -10z
m305 1 c0 -11 -30 -19 -47 -14 -24 8 -13 23 17 23 17 0 30 -4 30 -9z m185 -12
c10 -15 -1 -23 -20 -15 -9 3 -13 10 -10 16 8 13 22 13 30 -1z m925 -169 l0
-180 -117 1 c-128 1 -123 16 5 18 112 2 85 18 -43 26 -128 8 -156 25 -41 25
92 0 167 10 160 21 -3 5 -35 9 -72 9 -37 0 -85 3 -107 7 l-40 7 30 7 c17 4 64
7 105 8 147 3 112 31 -39 31 -122 0 -116 16 9 22 154 8 171 28 23 28 -110 0
-153 11 -92 24 18 3 59 6 93 6 33 0 71 3 83 6 41 11 13 24 -51 24 -35 0 -79 3
-97 7 -33 7 -33 7 -9 14 14 4 53 7 87 8 34 1 65 6 68 11 4 6 -32 10 -101 10
-177 0 -96 25 124 39 l22 1 0 -180z m-2260 150 c0 -6 -26 -10 -59 -10 -33 0
-63 5 -66 10 -4 6 18 10 59 10 37 0 66 -4 66 -10z m3018 -2 c17 -17 15 -38 -3
-38 -12 0 -35 28 -35 44 0 11 26 6 38 -6z m-2890 -40 c-3 -10 -44 -14 -148
-16 -79 -1 -141 1 -136 5 4 4 60 10 124 14 64 3 128 6 140 7 15 1 22 -3 20
-10z m2 -88 l0 -40 -159 0 c-202 0 -223 17 -27 22 130 3 169 8 155 23 -3 2
-70 8 -150 12 -168 9 -141 20 54 22 l127 1 0 -40z m2920 25 c15 -18 14 -20
-22 -29 -29 -7 -43 6 -34 29 7 20 40 19 56 0z m10 -85 c12 -12 20 -33 20 -55
0 -26 6 -39 25 -51 27 -18 34 -44 11 -44 -20 0 -56 48 -56 74 0 11 -9 35 -20
51 -11 17 -20 33 -20 38 0 13 20 7 40 -13z m-2927 -21 c3 -2 7 -176 9 -386 l5
-383 -151 1 c-163 1 -264 16 -120 18 118 1 234 13 234 22 0 5 -19 9 -42 10
-24 0 -61 4 -83 8 -38 8 -36 9 25 10 80 2 117 10 98 22 -7 5 -26 9 -43 10
l-30 1 29 12 c39 17 26 23 -72 31 -45 4 -85 12 -88 16 -3 5 40 9 95 9 55 0
102 4 105 9 7 10 -63 20 -153 22 -56 2 -49 3 44 11 61 5 117 11 125 14 40 14
-28 24 -180 25 -98 1 -155 4 -140 9 14 4 94 8 178 9 83 1 152 5 152 10 0 11
-109 21 -227 21 -50 0 -95 5 -98 10 -4 6 18 10 58 10 105 0 247 12 247 21 0 5
-44 9 -97 9 -130 0 -238 11 -221 21 7 5 69 9 138 9 69 0 143 3 165 7 65 11 14
21 -110 23 -129 2 -127 5 14 19 57 5 106 12 109 15 12 13 -10 18 -100 26 l-93
7 75 2 c170 3 149 29 -25 30 -116 1 -158 7 -149 22 3 5 65 9 139 9 78 0 136 4
140 10 4 6 -36 10 -112 11 -65 0 -138 4 -163 8 -32 6 3 9 120 10 191 2 235 14
142 41 l-27 7 28 8 c46 12 30 23 -45 29 -138 11 -143 13 -53 15 50 1 99 6 109
10 18 7 18 8 -5 14 -13 4 -72 7 -131 7 -107 0 -142 12 -70 24 20 3 79 6 130 6
54 0 92 4 92 10 0 6 -58 10 -152 10 -109 0 -149 3 -138 11 14 10 304 9 313 -2z
m-209 -135 c30 -12 5 -24 -49 -24 -53 0 -82 14 -48 23 28 7 80 8 97 1z m2340
-26 c17 -65 17 -65 -116 -70 -68 -3 -125 -4 -127 -2 -10 9 10 14 80 19 94 8
119 13 119 25 0 6 -41 10 -97 11 -116 1 -100 17 17 18 41 1 82 6 90 11 22 14
27 12 34 -12z m920 -70 c5 -9 7 -20 3 -24 -8 -8 -47 24 -47 38 0 15 32 5 44
-14z m-914 -153 l0 -125 -122 0 c-151 0 -185 15 -56 23 145 10 167 26 36 26
-58 1 -114 4 -123 7 -33 13 9 24 95 24 90 0 130 7 130 21 0 5 -52 9 -115 9
-63 0 -115 4 -115 9 0 10 83 21 168 21 34 0 62 4 62 10 0 6 -28 10 -64 10 -83
0 -157 10 -150 21 3 5 35 9 72 9 37 0 84 3 104 6 67 11 29 24 -70 24 -60 0
-92 4 -86 9 10 11 62 17 167 19 l67 2 0 -125z m2573 68 c22 -27 71 -77 108
-113 61 -59 80 -70 216 -128 147 -63 243 -125 243 -158 0 -20 -23 -18 -141 15
-217 60 -239 62 -299 31 -94 -48 -164 -14 -201 98 -34 103 -65 160 -99 177
-54 28 -36 76 40 109 62 27 87 21 133 -31z m-1650 -1 c10 -10 14 -21 11 -25
-9 -9 -40 9 -48 28 -8 21 17 19 37 -3z m-1993 -42 c12 -8 12 -10 -5 -10 -11 0
-27 5 -35 10 -12 8 -12 10 5 10 11 0 27 -5 35 -10z m1996 -22 c45 -31 57 -53
42 -78 -11 -17 -8 -24 20 -53 35 -36 39 -47 18 -47 -27 0 -66 42 -77 83 -6 23
-19 56 -30 73 -31 51 -24 57 27 22z m-952 -157 c18 -7 18 -8 -5 -14 -37 -10
-177 -8 -184 2 -9 16 153 26 189 12z m1031 -61 c32 -20 51 -47 40 -58 -6 -7
-77 50 -83 66 -5 17 6 15 43 -8z m-1045 0 c0 -6 -42 -10 -105 -10 -63 0 -105
4 -105 10 0 6 42 10 105 10 63 0 105 -4 105 -10z m-2265 -60 c3 -5 -1 -10 -9
-10 -8 0 -18 5 -21 10 -3 6 1 10 9 10 8 0 18 -4 21 -10z m2260 0 c-29 -12
-205 -12 -205 0 0 6 44 10 113 9 72 0 105 -3 92 -9z m1108 -68 c18 -16 22 -32
8 -32 -13 0 -71 50 -71 61 0 11 36 -6 63 -29z m-1098 18 c4 -6 -29 -10 -92
-10 -67 0 -93 3 -83 10 20 13 167 13 175 0z m19 -59 c6 -10 -51 -21 -109 -21
-58 0 -115 11 -109 21 3 5 52 9 109 9 57 0 106 -4 109 -9z m1116 -79 c-15 -5
-60 38 -60 57 0 10 12 3 35 -19 20 -19 31 -36 25 -38z m-3246 38 c19 -7 26
-17 26 -35 l0 -25 -157 1 c-180 1 -241 12 -119 22 44 4 104 7 135 8 82 1 27
16 -69 19 -142 4 -129 18 17 19 78 1 153 -3 167 -9z m2144 -55 c-3 -31 -9 -60
-15 -66 -13 -13 -206 -24 -230 -13 -12 5 18 10 87 14 58 3 111 10 119 14 27
17 -13 26 -118 26 -57 0 -101 3 -97 7 4 4 55 10 114 13 86 4 107 8 107 20 0
13 -16 14 -95 12 -96 -4 -115 6 -37 19 23 3 71 7 106 8 l63 1 -4 -55z m2095
23 c14 -22 15 -22 34 -5 26 22 62 21 93 -3 l25 -20 -210 1 c-163 1 -199 3
-160 11 27 5 52 13 55 17 9 14 34 19 91 20 48 1 59 -2 72 -21z m-733 -52 c0
-3 -4 -8 -10 -11 -5 -3 -10 -1 -10 4 0 6 5 11 10 11 6 0 10 -2 10 -4z m-3537
-12 c26 -4 44 -11 41 -15 -6 -11 -127 -12 -244 -2 -68 6 -78 9 -50 14 48 9
197 10 253 3z m3297 -19 c13 -14 21 -27 18 -30 -7 -7 -58 34 -58 46 0 16 16
10 40 -16z m1313 10 c9 -4 17 -18 17 -31 0 -22 4 -24 53 -24 58 0 97 -8 97
-20 0 -5 -10 -11 -22 -13 -13 -2 -1 -5 26 -6 39 -1 47 2 38 11 -7 7 -12 18
-12 25 0 21 25 15 50 -12 19 -21 33 -25 77 -25 34 0 52 -4 48 -10 -3 -5 -19
-10 -34 -10 -18 0 -34 -8 -43 -22 -14 -21 -16 -21 -49 -6 -19 9 -61 19 -94 23
-79 9 -95 14 -92 28 1 8 -22 13 -73 15 -41 2 -79 7 -84 12 -7 7 -1 10 13 10
19 0 21 3 11 15 -6 8 -8 19 -4 26 7 13 -30 9 -101 -10 -52 -14 -138 -14 -130
-1 3 6 25 10 48 11 l42 1 -44 9 c-24 5 -47 11 -50 15 -8 9 289 -2 312 -11z
m-993 -25 c0 -5 -5 -10 -12 -10 -6 0 -8 -3 -5 -7 4 -3 35 -9 69 -13 54 -6 48
-7 -47 -7 -60 0 -95 2 -77 4 43 6 41 17 -5 30 l-38 10 58 2 c32 0 57 -3 57 -9z
m131 -3 c-1 -12 -15 -9 -19 4 -3 6 1 10 8 8 6 -3 11 -8 11 -12z m232 6 c-13
-2 -33 -2 -45 0 -13 2 -3 4 22 4 25 0 35 -2 23 -4z m257 -9 c0 -17 -22 -14
-28 4 -2 7 3 12 12 12 9 0 16 -7 16 -16z m-4305 -15 c53 0 65 -2 47 -10 -32
-12 -18 -29 23 -29 19 0 37 -4 40 -10 8 -12 -331 -12 -360 0 -13 6 20 9 92 9
110 1 153 13 92 25 -18 3 -60 6 -95 6 -37 0 -66 5 -70 12 -5 8 14 10 77 5 46
-4 116 -7 154 -8z m4255 -19 c10 -7 -6 -9 -55 -9 -50 1 -63 3 -45 9 35 11 82
11 100 0z m238 3 c-10 -2 -26 -2 -35 0 -10 3 -2 5 17 5 19 0 27 -2 18 -5z
m-2258 -18 c7 -8 10 -22 6 -30 -4 -12 -22 -15 -83 -13 -56 1 -64 3 -28 5 117
8 87 30 -45 34 -69 1 -77 3 -45 9 77 14 182 11 195 -5z m1176 -30 c16 -13 25
-27 21 -31 -11 -11 -81 30 -85 49 -4 21 26 12 64 -18z m127 -2 c-7 -2 -19 -2
-25 0 -7 3 -2 5 12 5 14 0 19 -2 13 -5z m620 0 c-7 -2 -19 -2 -25 0 -7 3 -2 5
12 5 14 0 19 -2 13 -5z m254 1 c-3 -3 -12 -4 -19 -1 -8 3 -5 6 6 6 11 1 17 -2
13 -5z m76 -1 c-7 -2 -19 -2 -25 0 -7 3 -2 5 12 5 14 0 19 -2 13 -5z m284 -39
c-9 -9 -28 6 -21 18 4 6 10 6 17 -1 6 -6 8 -13 4 -17z m350 20 c34 -9 17 -24
-27 -24 -41 0 -63 15 -33 23 27 7 36 7 60 1z m-1791 -67 c4 -4 0 -21 -9 -36
-9 -16 -17 -36 -17 -45 0 -28 -17 -17 -23 14 -8 37 -25 39 -29 5 -4 -32 -22
-34 -26 -3 -2 13 -5 29 -8 37 -7 21 -32 -5 -36 -37 -3 -24 -7 -27 -43 -27 -37
0 -40 2 -43 30 -5 45 -20 52 -29 14 -9 -34 -41 -49 -35 -17 4 27 -15 30 -22 3
-7 -29 -26 -34 -26 -6 0 21 -23 45 -33 34 -4 -3 -7 -19 -7 -35 0 -39 -18 -35
-22 5 -4 41 -31 43 -38 3 -7 -41 -30 -46 -30 -7 0 21 -5 31 -15 31 -10 0 -15
-10 -15 -31 0 -38 -24 -35 -28 4 -4 36 -21 34 -29 -3 -8 -42 -20 -37 -28 10
-7 44 -25 55 -25 16 0 -31 -10 -56 -21 -56 -5 0 -9 11 -9 24 0 24 -25 53 -33
39 -2 -4 -7 -20 -11 -35 -7 -29 -20 -36 -31 -18 -5 8 -11 7 -21 -1 -18 -15
-31 -3 -36 31 -4 31 -30 33 -38 2 -7 -34 -24 -32 -30 3 -6 34 -23 40 -28 10
-6 -33 -22 -42 -29 -17 -7 30 -27 23 -31 -11 -5 -40 -20 -33 -24 11 -4 50 -33
52 -34 3 0 -19 -5 -36 -12 -39 -12 -4 -16 3 -26 51 -9 39 -22 33 -30 -13 -7
-45 -26 -54 -26 -12 0 15 -4 34 -10 42 -8 13 -10 13 -14 0 -3 -8 -6 -26 -8
-40 -3 -22 -8 -25 -43 -25 -38 0 -40 2 -45 35 -5 32 -8 35 -44 38 -43 4 -56
-7 -56 -50 0 -16 -4 -28 -10 -28 -5 0 -10 18 -10 41 0 49 -21 49 -31 0 -11
-54 -27 -56 -33 -5 -2 16 -4 32 -5 37 0 4 -7 7 -15 7 -8 0 -17 -15 -20 -35 -8
-39 -26 -48 -26 -12 0 12 -4 29 -10 37 -8 13 -10 13 -14 0 -3 -8 -6 -26 -8
-40 -2 -14 -10 -26 -19 -28 -12 -2 -18 8 -23 39 -8 47 -20 43 -33 -10 -13 -50
-30 -49 -40 1 -8 41 -10 43 -43 43 -32 0 -35 -3 -40 -33 -6 -41 -23 -43 -30
-2 -7 45 -23 41 -35 -10 -6 -25 -15 -45 -20 -45 -6 0 -12 20 -15 45 -6 52 -23
56 -30 8 -3 -22 -11 -34 -24 -36 -16 -3 -17 1 -11 37 4 27 3 41 -4 41 -6 0
-14 -18 -17 -40 -5 -30 -11 -40 -23 -38 -9 2 -17 14 -19 28 -2 14 -5 32 -8 40
-4 13 -6 13 -14 0 -6 -8 -10 -27 -10 -42 0 -42 -19 -33 -26 12 -8 48 -24 53
-24 8 0 -63 -34 -78 -42 -19 -5 37 -28 39 -28 2 0 -21 -5 -31 -15 -31 -10 0
-15 10 -15 28 0 15 -4 34 -10 42 -8 13 -10 13 -14 0 -3 -8 -6 -26 -8 -40 -2
-15 -11 -26 -21 -28 -16 -3 -18 2 -15 34 2 30 -1 39 -14 42 -15 3 -18 -4 -18
-37 0 -30 -4 -41 -15 -41 -10 0 -15 10 -15 28 0 15 -5 34 -10 42 -9 13 -12 12
-25 -4 -8 -11 -15 -33 -15 -49 0 -16 -4 -26 -10 -22 -5 3 -10 21 -10 40 0 59
-30 52 -46 -10 l-7 -30 -10 30 c-18 56 -47 75 -47 31 0 -31 -10 -56 -21 -56
-5 0 -9 11 -9 24 0 31 -10 56 -21 56 -5 0 -9 -11 -9 -24 0 -31 -10 -56 -21
-56 -5 0 -9 11 -9 24 0 57 -34 78 -46 30 l-7 -27 -14 27 c-20 39 -43 34 -43
-10 0 -44 -21 -42 -34 4 -12 43 -23 40 -36 -8 -13 -48 -32 -53 -30 -7 3 47 1
51 -14 38 -7 -6 -16 -25 -20 -41 -7 -38 -26 -39 -26 -2 0 15 -4 34 -10 42 -8
13 -10 13 -14 0 -3 -8 -6 -26 -8 -40 -2 -15 -11 -26 -22 -28 -16 -3 -17 1 -11
38 6 33 4 41 -6 38 -8 -3 -19 -20 -25 -38 -15 -46 -32 -49 -36 -5 -4 41 -21
52 -26 15 -6 -43 -22 -47 -22 -6 0 51 -31 47 -43 -7 -11 -45 -31 -44 -35 1 -4
35 -32 49 -77 38 -21 -5 -25 -12 -25 -41 0 -42 -17 -47 -26 -7 -12 54 -14 58
-24 42 -6 -8 -10 -28 -10 -43 0 -22 -4 -28 -17 -25 -10 2 -19 14 -21 28 -2 14
-5 32 -8 40 -4 13 -6 13 -14 0 -6 -8 -10 -25 -10 -37 0 -36 -18 -27 -26 12 -7
40 -24 47 -24 11 0 -31 -10 -56 -21 -56 -5 0 -9 11 -9 24 0 63 -37 79 -42 19
-4 -46 -23 -54 -31 -13 -8 37 -25 39 -29 3 -4 -37 -22 -32 -28 7 -6 40 -24 42
-30 4 -6 -32 -23 -36 -29 -7 -4 22 -20 43 -33 43 -6 0 -7 -17 -3 -41 6 -36 5
-40 -11 -37 -13 2 -20 13 -22 33 -5 43 -20 53 -28 19 -13 -53 -48 -77 -38 -26
5 31 -8 58 -25 48 -6 -4 -11 -23 -11 -42 0 -28 -4 -35 -17 -32 -11 2 -19 14
-21 31 -4 36 -18 34 -26 -4 -7 -37 -30 -34 -34 4 -4 36 -21 34 -28 -3 -6 -27
-24 -43 -24 -21 0 5 -5 22 -10 36 -9 23 -13 25 -25 15 -8 -7 -15 -21 -15 -31
0 -29 -17 -22 -29 12 -12 34 -27 31 -42 -8 -10 -27 -29 -23 -29 7 0 10 -5 22
-11 26 -14 8 -29 -14 -29 -44 0 -33 -24 -22 -30 14 -7 39 -33 38 -40 -1 -6
-32 -23 -37 -28 -8 -7 41 -12 49 -22 33 -6 -8 -10 -25 -10 -38 0 -21 -4 -23
-47 -20 -43 3 -48 6 -51 28 -6 41 -21 47 -28 12 -8 -40 -16 -40 -31 -1 -11 27
-15 30 -28 19 -8 -7 -15 -23 -15 -36 0 -15 -6 -24 -15 -24 -10 0 -15 10 -15
30 0 36 -17 39 -30 5 -12 -32 -28 -32 -32 0 -4 36 -22 36 -29 0 -5 -23 -7 -26
-13 -13 -13 28 -2 62 24 75 20 10 472 12 2247 10 1222 -1 2225 -6 2229 -10z
m2694 -2 c0 -21 -28 -89 -38 -93 -5 -1 -12 9 -16 23 -11 45 -46 26 -46 -26 0
-10 -4 -19 -10 -19 -5 0 -10 11 -10 24 0 31 -10 56 -21 56 -5 0 -9 -12 -9 -27
0 -16 -4 -35 -10 -43 -7 -12 -10 -11 -15 5 -25 77 -39 84 -49 24 -7 -45 -15
-44 -32 4 -15 46 -31 44 -42 -5 -9 -43 -14 -40 -26 15 -8 36 -24 34 -37 -3
-13 -37 -25 -38 -33 -5 -8 31 -23 33 -28 3 -2 -12 -9 -23 -16 -26 -9 -3 -11 3
-6 23 6 23 4 26 -12 23 -12 -2 -21 -14 -24 -33 -7 -38 -23 -38 -30 1 -8 43
-36 39 -32 -4 3 -28 1 -33 -15 -30 -14 3 -17 11 -15 37 3 27 0 32 -15 29 -10
-2 -19 -12 -21 -23 -2 -11 -5 -27 -8 -35 -4 -13 -6 -13 -14 0 -6 8 -10 25 -10
38 0 32 -16 27 -26 -10 -13 -46 -34 -48 -34 -4 0 24 -5 36 -14 36 -15 0 -26
-21 -26 -51 0 -32 -17 -21 -24 16 -7 37 -26 48 -26 16 0 -31 -11 -51 -27 -51
-12 0 -15 8 -10 39 5 43 -3 51 -42 42 -16 -4 -28 -18 -35 -38 -6 -17 -15 -35
-19 -39 -11 -12 -27 16 -27 48 0 15 -4 29 -9 32 -10 7 -21 -17 -21 -45 0 -30
-20 -22 -27 11 -7 38 -27 34 -31 -6 -7 -57 -41 -54 -42 4 0 33 -20 27 -27 -8
-8 -43 -20 -45 -27 -5 -8 43 -18 44 -33 6 -7 -20 -20 -31 -41 -36 -40 -8 -48
-3 -56 37 -7 34 -22 29 -28 -10 -4 -33 -22 -31 -28 3 -3 19 -12 31 -24 33 -16
3 -18 0 -12 -22 8 -32 -2 -55 -15 -35 -5 8 -9 27 -9 42 0 42 -24 28 -28 -16
-5 -61 -42 -43 -42 20 0 33 -24 25 -28 -10 -4 -34 -20 -35 -28 -2 -10 39 -34
31 -34 -10 0 -28 -4 -35 -19 -35 -37 0 -71 19 -71 39 0 21 -27 41 -53 41 -8 0
-17 -13 -20 -30 -8 -37 -25 -39 -29 -3 -5 43 -27 39 -34 -6 -8 -52 -20 -52
-29 -1 -8 46 -32 54 -37 13 -4 -32 -28 -44 -28 -14 0 24 -32 44 -63 39 -12 -2
-28 -15 -35 -32 l-14 -28 -12 23 c-15 31 -43 37 -48 9 -5 -31 -23 -29 -26 3
-4 33 -24 31 -32 -4 -3 -13 -14 -25 -23 -27 -15 -3 -17 1 -11 23 6 23 4 26
-12 23 -13 -2 -18 -10 -16 -26 2 -14 -2 -22 -12 -22 -9 0 -16 12 -18 33 -2 25
-7 31 -23 29 -51 -7 -64 -13 -67 -34 -4 -28 -28 -36 -28 -10 0 29 -11 53 -21
46 -5 -3 -9 -16 -9 -29 0 -13 -4 -27 -10 -30 -6 -4 -10 7 -10 24 0 40 -18 40
-33 1 -15 -39 -25 -38 -29 3 -4 40 -20 39 -32 -2 -12 -43 -36 -40 -36 4 0 29
-5 37 -27 46 -17 6 -23 13 -16 17 18 12 2523 8 2523 -3z m-2582 -11 c23 -16
30 -44 11 -44 -15 0 -69 39 -69 51 0 14 33 11 58 -7z m-1350 -62 c2 -14 -2
-22 -12 -22 -19 0 -29 17 -22 36 8 22 30 12 34 -14z m1272 3 c0 -26 -14 -33
-25 -15 -9 14 1 40 15 40 5 0 10 -11 10 -25z m-1670 -19 c-14 -14 -24 0 -16
21 6 15 8 15 16 3 6 -9 5 -19 0 -24z m2440 8 c0 -16 -16 -19 -25 -4 -8 13 4
32 16 25 5 -4 9 -13 9 -21z m240 6 c0 -19 -11 -26 -23 -14 -8 8 3 34 14 34 5
0 9 -9 9 -20z m-4100 -5 c0 -8 -9 -15 -20 -15 -20 0 -26 11 -13 23 12 13 33 7
33 -8z m5808 -2 c2 -8 -5 -13 -17 -13 -12 0 -21 6 -21 16 0 18 31 15 38 -3z
m-2268 -3 c0 -5 -7 -10 -15 -10 -8 0 -15 5 -15 10 0 6 7 10 15 10 8 0 15 -4
15 -10z m1360 0 c0 -5 -7 -10 -15 -10 -8 0 -15 5 -15 10 0 6 7 10 15 10 8 0
15 -4 15 -10z m-1690 -35 c7 -8 10 -18 6 -22 -7 -7 -56 36 -56 49 0 11 33 -6
50 -27z m-4694 -40 c16 -40 31 -45 36 -13 2 13 11 24 22 26 16 3 18 0 12 -22
-5 -22 -3 -26 14 -26 13 0 20 7 20 19 0 31 19 35 32 7 14 -32 35 -34 40 -4 4
30 26 34 30 6 4 -31 32 -34 46 -6 l11 23 7 -22 c8 -30 28 -29 42 2 14 31 30
32 34 3 3 -25 28 -37 28 -14 0 24 21 30 27 7 7 -29 31 -26 43 4 5 14 13 25 18
25 5 0 14 -11 20 -25 12 -26 32 -34 32 -12 0 6 5 19 10 27 8 12 13 11 34 -9
25 -24 46 -21 46 5 0 23 25 11 28 -14 5 -30 30 -28 42 4 11 28 30 24 30 -7 0
-23 13 -25 30 -4 16 19 30 19 30 -1 0 -25 35 -12 38 14 4 28 26 24 30 -6 5
-31 30 -27 43 5 l10 28 20 -25 20 -25 16 23 c20 29 31 28 43 -3 12 -31 28 -32
32 -3 4 29 21 33 33 6 14 -31 32 -33 39 -3 8 30 22 33 29 5 3 -11 12 -20 20
-20 9 0 19 9 22 20 8 26 23 25 27 -2 4 -30 26 -34 30 -6 4 33 32 34 48 1 l13
-28 6 24 c7 28 31 41 31 17 0 -24 21 -30 27 -7 7 27 17 27 36 -1 l16 -23 18
23 c20 25 33 20 33 -10 0 -26 24 -17 28 10 4 27 18 28 32 2 14 -26 30 -26 37
0 7 26 27 20 31 -9 4 -27 26 -22 30 7 4 30 18 28 26 -3 8 -29 40 -34 56 -7 10
16 10 16 20 0 15 -25 29 -22 40 7 5 14 14 25 20 25 6 0 15 -11 20 -25 11 -29
30 -33 30 -7 0 30 13 34 32 10 l18 -23 18 23 c19 24 32 20 32 -10 0 -25 17
-23 31 4 l12 23 10 -23 c13 -28 41 -25 45 6 4 28 26 24 30 -6 4 -26 27 -29 41
-4 9 16 11 16 24 -2 16 -22 37 -14 37 15 0 27 19 24 30 -7 12 -30 34 -27 38 4
4 29 20 28 32 -3 11 -29 22 -31 45 -8 13 13 18 14 25 3 10 -15 30 -5 30 16 0
24 35 12 38 -14 4 -29 26 -28 40 3 13 27 32 34 32 11 0 -24 21 -30 27 -7 6 24
43 29 43 7 0 -23 20 -29 39 -12 12 11 20 13 28 5 8 -8 17 -8 31 0 17 9 23 8
30 -5 10 -19 32 -11 32 12 0 22 26 17 44 -8 15 -22 16 -22 27 -5 10 17 12 17
23 1 14 -19 36 -12 36 12 0 19 10 18 25 -3 18 -24 92 -21 111 4 13 17 15 17
33 -7 19 -24 20 -24 39 -7 13 12 22 15 27 8 8 -15 102 -14 111 0 5 8 10 6 16
-5 12 -21 27 -20 50 1 18 16 19 16 25 -5 6 -26 28 -29 42 -4 8 14 13 15 30 5
22 -13 51 -8 51 10 0 5 8 3 18 -6 29 -27 102 -20 102 9 0 23 20 16 32 -11 12
-27 38 -34 38 -11 0 24 21 30 27 7 7 -27 29 -27 44 1 l12 23 10 -23 c13 -29
25 -28 39 3 14 30 34 33 41 5 5 -21 37 -28 37 -9 0 10 5 9 46 -8 6 -2 14 5 17
16 7 27 23 27 30 1 7 -26 23 -26 37 0 14 25 26 25 33 0 3 -11 10 -20 16 -20 6
0 15 9 21 20 14 27 24 25 38 -5 15 -32 30 -32 38 0 7 30 34 33 41 5 7 -26 18
-25 37 1 17 24 36 17 36 -12 0 -27 24 -19 28 9 4 29 20 28 32 -3 8 -21 16 -25
50 -25 34 0 41 4 46 25 8 31 22 33 26 3 4 -31 23 -33 36 -3 9 20 19 25 47 25
29 0 37 -5 45 -25 11 -30 36 -33 45 -5 8 24 21 26 29 5 8 -21 23 -19 29 5 3
11 10 20 15 20 10 0 23 -61 15 -70 -3 -3 -747 -7 -1653 -10 -1271 -4 -1652 -8
-1661 -17 -10 -10 -16 -10 -27 0 -12 9 -173 13 -679 15 -732 3 -678 -2 -649
67 19 45 43 45 62 0z m7334 -10 c0 -21 6 -35 17 -39 13 -5 14 -9 4 -19 -9 -9
-255 -13 -1064 -15 -1032 -4 -1497 2 -1497 18 0 5 10 10 23 12 18 2 22 8 19
36 -2 27 1 33 15 30 10 -2 19 -14 21 -26 4 -29 26 -24 30 7 4 29 26 22 30 -10
6 -40 21 -46 28 -11 7 36 20 41 29 12 3 -11 13 -20 22 -20 8 0 17 9 20 20 8
29 23 24 30 -10 4 -24 8 -28 19 -19 7 6 14 20 16 31 5 33 26 33 34 1 11 -45
16 -47 30 -14 17 40 29 39 44 -1 11 -32 12 -32 26 -14 7 11 14 27 14 35 1 10
7 5 15 -11 27 -49 92 -50 114 -2 13 28 26 24 33 -11 5 -27 31 -25 38 3 7 30
24 33 28 5 5 -35 32 -29 32 7 0 40 18 38 36 -5 16 -40 20 -41 46 -18 14 13 21
14 30 5 21 -21 48 -13 60 16 l12 27 4 -33 c3 -27 7 -33 25 -30 12 2 23 12 27
26 7 30 23 30 30 0 7 -30 33 -30 40 0 7 30 23 30 30 0 7 -28 33 -30 38 -3 7
36 20 38 37 6 17 -33 35 -33 35 -1 0 28 17 34 30 10 13 -25 36 -26 49 -2 10
16 10 16 11 0 0 -27 36 -23 44 4 6 25 22 16 28 -15 5 -27 21 -23 36 7 13 27
32 27 32 0 0 -8 7 -14 15 -14 8 0 15 6 15 14 0 24 21 30 27 7 7 -28 39 -27 47
1 6 25 22 16 28 -15 5 -27 21 -23 36 7 13 27 32 27 32 0 0 -23 37 -16 44 9 6
20 7 20 19 5 6 -9 17 -24 23 -34 10 -17 12 -16 25 11 18 36 35 42 44 16 8 -27
22 -27 30 -1 3 11 10 20 15 20 4 0 10 -9 13 -20 3 -11 10 -20 15 -20 5 0 12 9
15 20 8 30 26 24 42 -12 l13 -33 15 35 15 35 12 -32 c14 -38 25 -41 40 -13 14
26 26 25 33 -2 l6 -22 26 24 25 23 0 -21 c0 -27 16 -28 32 -2 7 11 16 20 19
20 4 0 9 -9 12 -20 6 -24 30 -26 50 -5 13 13 16 13 27 0 19 -22 29 -18 44 18
l13 32 16 -35 c15 -33 16 -34 22 -12 9 28 31 29 38 1 7 -26 28 -21 42 9 12 27
25 28 25 3 0 -29 15 -33 35 -11 13 15 21 17 26 9 10 -17 39 -3 39 19 0 21 19
44 32 36 4 -3 8 -20 8 -39z m-2520 0 c0 -8 -4 -15 -10 -15 -5 0 -10 7 -10 15
0 8 5 15 10 15 6 0 10 -7 10 -15z m512 0 c0 -5 -5 -11 -11 -13 -6 -2 -11 4
-11 13 0 9 5 15 11 13 6 -2 11 -8 11 -13z m-585 -60 c3 -9 3 -19 -1 -22 -7 -7
-36 16 -36 28 0 15 30 10 37 -6z m-1994 -32 c-7 -2 -19 -2 -25 0 -7 3 -2 5 12
5 14 0 19 -2 13 -5z m-2835 -49 c-10 -10 -28 6 -28 24 0 15 1 15 17 -1 9 -9
14 -19 11 -23z m7259 30 c-3 -3 -12 -4 -19 -1 -8 3 -5 6 6 6 11 1 17 -2 13 -5z
m220 -11 c3 -7 -10 -15 -31 -18 -51 -10 -66 -1 -31 17 34 18 57 19 62 1z
m-1467 -23 c0 -5 -7 -10 -15 -10 -8 0 -15 5 -15 10 0 6 7 10 15 10 8 0 15 -4
15 -10z m280 0 c0 -6 -23 -9 -52 -9 -45 1 -49 2 -23 9 44 11 75 11 75 0z
m-173 -6 c-3 -3 -12 -4 -19 -1 -8 3 -5 6 6 6 11 1 17 -2 13 -5z m296 -1 c-7
-2 -19 -2 -25 0 -7 3 -2 5 12 5 14 0 19 -2 13 -5z m-6312 -26 c-13 -13 -26 -3
-16 12 3 6 11 8 17 5 6 -4 6 -10 -1 -17z m1267 6 c-3 -17 22 -18 367 -24 204
-3 950 -7 1660 -8 710 -1 1299 -6 1310 -10 15 -6 -455 -14 -1320 -23 -170 -2
-2668 21 -2671 25 -2 2 123 6 278 9 263 5 286 7 323 26 49 26 57 27 53 5z
m683 -6 c-5 -5 -18 -7 -28 -3 -14 6 -15 9 -4 16 19 11 46 1 32 -13z m177 17
c35 -10 26 -26 -10 -19 -39 8 -61 25 -32 25 10 0 29 -3 42 -6z m309 -20 c-9
-9 -28 6 -21 18 4 6 10 6 17 -1 6 -6 8 -13 4 -17z m1463 4 c0 -7 -21 -9 -61
-4 -34 3 -78 7 -98 7 l-36 2 40 6 c56 8 155 1 155 -11z m690 12 c10 -6 -83 -9
-270 -8 -157 1 -262 4 -235 8 79 11 488 11 505 0z m-4716 -15 c11 -8 34 -15
50 -15 17 0 38 -5 46 -10 11 -7 -5 -10 -52 -10 -85 0 -101 6 -87 31 12 23 18
23 43 4z m3403 8 c-109 -2 -285 -2 -390 0 -106 1 -16 2 198 2 215 0 301 -1
192 -2z m1583 -3 c11 -7 7 -10 -17 -10 -18 0 -33 5 -33 10 0 13 30 13 50 0z
m273 -7 c-13 -2 -35 -2 -50 0 -16 2 -5 4 22 4 28 0 40 -2 28 -4z m178 -4 c-16
-6 -28 -6 -35 1 -7 7 1 10 25 9 32 0 33 -1 10 -10z m172 4 c-13 -2 -33 -2 -45
0 -13 2 -3 4 22 4 25 0 35 -2 23 -4z m137 -3 c-19 -13 -30 -13 -30 0 0 6 10
10 23 10 18 0 19 -2 7 -10z m110 0 c0 -5 -9 -10 -20 -10 -11 0 -20 5 -20 10 0
6 9 10 20 10 11 0 20 -4 20 -10z m849 -6 c2 -2 -126 -3 -285 -2 -179 1 -258 4
-209 8 83 7 486 2 494 -6z m689 9 c-16 -2 -40 -2 -55 0 -16 2 -3 4 27 4 30 0
43 -2 28 -4z m-2498 -81 c-15 -5 -60 38 -60 57 0 10 12 3 35 -19 20 -19 31
-36 25 -38z m-4617 51 c-7 -2 -21 -2 -30 0 -10 3 -4 5 12 5 17 0 24 -2 18 -5z
m228 -4 c-45 -5 -80 -5 -90 1 -11 6 13 9 74 8 l90 -1 -74 -8z m7025 1 c6 0 23
-22 38 -50 15 -27 31 -50 37 -50 5 0 9 -10 9 -21 0 -12 16 -56 35 -99 39 -87
42 -105 18 -114 -29 -11 -2573 -20 -2573 -9 0 13 582 23 1545 24 772 2 1227
12 820 19 -99 1 -209 4 -245 6 -36 2 -528 3 -1094 3 -603 1 -1026 5 -1020 10
5 5 519 12 1179 15 644 4 1206 10 1250 14 l80 7 -115 7 c-63 5 -362 8 -665 9
-311 1 -530 5 -505 10 25 4 203 8 396 8 455 1 882 13 829 22 -22 5 -506 9
-1075 10 -569 1 -1114 4 -1210 8 -174 6 -174 6 -90 15 47 5 407 6 800 2 713
-7 1534 4 1563 20 9 5 -510 7 -1195 5 -666 -1 -1240 0 -1277 5 -66 7 -66 7
-26 15 22 4 193 8 381 8 188 1 377 4 420 8 l79 8 -60 6 c-33 4 -231 8 -440 9
-209 1 -391 5 -405 10 -14 4 535 9 1220 12 768 3 1256 8 1273 14 19 6 -374 10
-1150 9 -1076 0 -1393 5 -1393 23 0 6 929 6 2566 2z m-7508 -37 c-10 -2 -28
-2 -40 0 -13 2 -5 4 17 4 22 1 32 -1 23 -4z m837 -3 c4 -7 -95 -10 -289 -10
-186 0 -297 4 -301 10 -4 7 95 10 289 10 186 0 297 -4 301 -10z m1205 -7 c41
-5 42 -7 20 -15 -15 -6 -195 -7 -440 -3 -535 7 -751 15 -725 26 22 10 1070 2
1145 -8z m2715 -2 c11 -4 -57 -11 -155 -14 -240 -9 -1977 -9 -2241 1 l-214 7
255 5 c411 9 2333 9 2355 1z m-3870 -31 c429 -5 1327 -11 1995 -12 668 -2
1368 -5 1555 -8 l340 -5 -480 -9 c-600 -11 -4335 7 -4415 21 l-35 7 40 6 c59
10 141 10 1000 0z m4033 -43 c16 -12 16 -27 -1 -27 -19 0 -58 30 -52 40 6 10
32 3 53 -13z m-848 -24 c452 -4 723 -10 690 -15 -66 -10 -2500 -13 -3055 -4
-214 3 -691 9 -1060 13 -369 4 -654 9 -635 13 45 7 3076 2 4060 -7z m837 -36
c4 -8 20 -22 36 -32 31 -20 35 -35 8 -35 -21 0 -71 46 -71 66 0 18 17 18 27 1z
m-4513 -17 c7 -7 -72 -10 -260 -10 -272 0 -319 4 -307 23 8 14 552 2 567 -13z
m4433 -5 c-6 -18 -360 -23 -1602 -24 -1395 0 -2714 12 -2739 26 -10 6 797 9
2164 9 1449 -1 2179 -4 2177 -11z m1348 -14 c11 -4 -110 -11 -269 -15 -312 -8
-843 2 -852 15 -6 11 1094 11 1121 0z m-3406 -31 c1527 0 2082 -3 2074 -11
-27 -27 -743 -31 -2848 -19 -1149 7 -2124 15 -2165 18 l-75 6 60 7 c33 4 242
5 464 3 222 -2 1343 -4 2490 -4z m2170 -46 c3 -16 1 -17 -13 -5 -19 16 -21 34
-3 29 6 -3 14 -13 16 -24z m-2554 -10 c1358 -3 2471 -7 2473 -9 2 -2 -16 -9
-39 -15 -74 -20 -4941 -16 -5024 4 -11 3 -32 7 -47 11 -16 3 -28 10 -28 16 0
8 29 9 98 5 53 -4 1208 -9 2567 -12z m2615 -34 c0 -5 -7 -10 -15 -10 -8 0 -15
5 -15 10 0 6 7 10 15 10 8 0 15 -4 15 -10z m-2706 -30 c1397 -5 2544 -14 2548
-18 16 -16 -1458 -21 -3247 -11 -974 5 -1796 13 -1828 17 -31 5 -63 14 -70 21
-10 11 -6 12 23 7 19 -4 1178 -11 2574 -16z m5394 -2 c-3 -8 -32 -16 -69 -21
-92 -11 -2370 -20 -2454 -10 -70 9 816 21 1710 24 346 2 535 6 778 17 27 1 37
-2 35 -10z m-2703 -28 c3 -6 -3 -10 -13 -10 -21 0 -46 23 -36 33 8 7 40 -8 49
-23z m-4712 -26 c209 -4 377 -11 377 -16 0 -12 -971 -6 -989 6 -28 18 21 26
129 21 58 -3 275 -8 483 -11z m3838 -11 c415 -4 743 -10 729 -14 -33 -9 -4020
-11 -4090 -1 -118 16 2158 26 3361 15z m3593 -3 c-18 -18 -681 -31 -1564 -32
-806 -1 -1041 4 -1025 21 4 3 498 8 1098 12 601 3 1184 6 1297 7 132 1 201 -1
194 -8z m-6594 -51 c795 -5 1977 -9 2627 -7 650 2 1185 0 1189 -5 4 -4 4 -10
0 -14 -32 -32 -5281 -21 -5313 11 -3 3 -3 13 1 22 4 11 13 14 29 10 12 -3 672
-11 1467 -17z m6649 -13 c12 -7 10 -11 -10 -19 -33 -13 -2280 -32 -2478 -21
-102 6 -156 13 -158 21 -8 22 111 26 617 21 278 -3 717 -2 975 2 604 9 1036 7
1054 -4z m-2717 -21 c0 -5 -5 -11 -11 -13 -6 -2 -11 4 -11 13 0 9 5 15 11 13
6 -2 11 -8 11 -13z m-2044 -50 c1363 -1 1946 -5 1953 -12 8 -8 -12 -13 -67
-19 -176 -19 -5280 -1 -5299 18 -4 4 -4 12 1 19 6 10 164 10 738 4 402 -4
1605 -9 2674 -10z m4782 5 c15 -8 40 -57 40 -80 0 -5 -8 -11 -17 -15 -42 -17
-1293 -25 -1903 -12 -358 7 -582 15 -535 18 44 4 508 8 1030 9 894 1 1367 9
1380 22 13 12 -619 19 -1597 16 -564 -2 -1030 0 -1034 5 -4 4 -4 10 0 14 4 4
561 11 1238 15 677 4 1233 10 1236 13 9 9 143 5 162 -5z m-2716 -41 c28 -22
34 -39 14 -39 -14 0 -58 40 -58 52 0 14 16 9 44 -13z m-4049 -28 c120 -5 85
-8 -248 -15 -356 -8 -1091 5 -1105 19 -8 7 1187 4 1353 -4z m273 -8 c-10 -2
-26 -2 -35 0 -10 3 -2 5 17 5 19 0 27 -2 18 -5z m380 0 c-10 -2 -28 -2 -40 0
-13 2 -5 4 17 4 22 1 32 -1 23 -4z m185 0 c-7 -2 -19 -2 -25 0 -7 3 -2 5 12 5
14 0 19 -2 13 -5z m2107 -12 c29 -7 19 -9 -64 -16 -107 -8 -815 3 -831 14 -29
19 814 21 895 2z m935 -1 c-94 -12 -733 -12 -740 0 -4 7 130 10 397 9 231 -1
377 -5 343 -9z m211 -55 c16 -12 16 -14 3 -15 -9 0 -22 7 -29 15 -16 19 0 19
26 0z m-5561 -267 c-3 -139 -9 -300 -12 -358 -7 -100 -7 -102 -14 -50 -11 88
-10 581 2 623 23 83 29 32 24 -215z m611 -418 c-4 -338 -10 -633 -13 -655 l-7
-40 -7 50 c-8 56 -1 1169 8 1255 5 49 6 52 15 30 6 -16 8 -247 4 -640z m1618
92 c-7 -524 -2 -752 15 -752 4 0 11 244 15 542 10 701 19 826 29 428 4 -162 7
-454 7 -647 l0 -353 -297 0 -298 0 3 215 c2 129 7 215 12 215 6 0 10 -79 10
-200 l0 -200 24 -6 c13 -3 35 -4 47 -2 l24 3 5 627 c3 344 8 629 11 632 7 7
19 -574 20 -959 0 -269 10 -364 22 -221 4 44 8 273 8 510 2 622 12 738 21 241
5 -220 8 -496 8 -612 0 -214 11 -280 24 -136 3 42 6 182 6 312 0 375 12 881
22 881 4 0 8 -283 8 -629 0 -388 4 -632 10 -636 5 -3 14 14 21 37 20 75 20 75
29 53 5 -11 9 -38 9 -60 1 -28 4 -36 12 -28 7 7 12 192 15 569 5 557 10 731
22 719 4 -4 7 -294 7 -645 0 -351 3 -642 8 -646 17 -17 22 18 28 194 3 103 7
188 8 190 0 2 5 1 10 -2 4 -3 11 -90 15 -193 4 -103 10 -190 12 -192 2 -2 7
-2 10 2 3 3 8 288 10 634 2 345 6 640 10 655 3 16 10 26 15 22 6 -3 7 -222 3
-562z m-1494 -111 c-7 -393 -14 -630 -21 -640 -11 -18 -4 1204 7 1273 7 37 8
38 16 15 5 -14 5 -278 -2 -648z m-685 -278 c-5 -230 -11 -341 -18 -336 -11 7
-2 1087 11 1208 10 103 15 -458 7 -872z m934 326 c1 -519 7 -718 21 -702 4 4
10 285 13 623 3 338 9 626 13 639 7 22 8 23 14 5 3 -10 4 -304 2 -652 l-4
-633 -131 3 -131 3 -9 45 c-5 25 -6 293 -3 595 6 514 12 673 24 661 2 -3 6
-274 8 -603 3 -648 15 -844 27 -468 4 121 7 387 8 590 0 204 3 388 8 410 4 22
10 -238 14 -579 4 -340 11 -625 16 -633 15 -27 21 140 22 612 1 468 9 691 22
645 3 -14 8 -298 9 -632 2 -469 6 -610 16 -620 9 -10 12 103 12 562 0 579 7
793 21 700 4 -25 8 -282 8 -571z m1799 -28 c-2 -502 0 -643 10 -652 10 -10 12
2 13 61 2 294 19 849 26 869 17 43 20 9 12 -154 -4 -88 -8 -299 -8 -470 -1
-171 -5 -315 -9 -322 -4 -6 -19 -14 -34 -18 -23 -6 -28 -3 -34 20 -9 35 1
1265 11 1288 4 9 9 17 11 17 3 0 3 -288 2 -639z m-2109 -31 c-3 -360 -7 -656
-8 -657 0 -2 -5 -3 -11 -3 -13 0 -13 1018 0 1182 7 100 16 150 24 136 1 -2 -1
-298 -5 -658z m1673 -192 c-3 -241 -9 -435 -14 -432 -10 6 -11 1066 0 1195 6
87 7 79 13 -116 3 -115 4 -407 1 -647z m1566 137 c0 -327 -4 -570 -9 -545 -4
25 -7 320 -7 655 1 336 4 581 8 545 4 -36 8 -330 8 -655z m4002 407 c0 -163 5
-452 10 -642 5 -190 7 -354 3 -365 -15 -49 -25 44 -33 310 -11 329 -13 878 -4
952 15 121 24 23 24 -255z m-7734 -84 c-4 -211 -10 -419 -13 -463 l-7 -80 -7
80 c-7 81 7 781 16 823 3 12 8 22 11 22 4 0 4 -172 0 -382z m182 -280 c-8
-599 -18 -762 -32 -538 -7 120 9 985 21 1125 16 181 19 -13 11 -587z m60 -23
c-6 -406 -13 -613 -20 -620 -11 -11 -4 1100 9 1235 17 179 21 -31 11 -615z
m812 68 c0 -598 -4 -721 -21 -678 -18 45 -5 1295 13 1295 4 0 8 -278 8 -617z
m370 -23 c3 -346 8 -632 13 -636 16 -16 22 13 26 128 4 160 21 133 21 -34 l0
-128 -139 0 c-77 0 -142 3 -144 8 -2 4 -1 29 2 55 7 52 24 64 29 20 2 -15 5
-35 8 -43 16 -47 22 65 29 559 4 301 11 573 15 606 8 66 8 68 12 -712 2 -248
6 -455 11 -459 4 -4 10 -4 15 0 4 4 9 284 12 621 3 337 8 616 11 619 11 11 19
-324 19 -786 0 -252 4 -458 8 -458 12 0 22 288 22 625 0 315 10 658 19 649 3
-3 8 -288 11 -634z m170 -604 c-12 -12 -14 858 -2 1095 5 109 8 -29 10 -465 1
-407 -1 -623 -8 -630z m385 486 c-5 -47 -10 -70 -17 -65 -12 7 -4 661 9 768
10 75 17 -599 8 -703z m1638 26 c3 -307 2 -558 -2 -558 -5 0 -11 35 -15 78
-10 131 -19 1094 -11 1157 l9 60 7 -90 c4 -49 9 -341 12 -647z m676 72 c0
-261 -2 -519 -6 -572 -6 -93 -7 -98 -29 -98 -58 0 -54 -45 -53 644 1 347 5
642 9 656 12 39 14 -36 15 -675 0 -359 4 -586 10 -595 20 -31 24 70 24 585 1
286 4 565 9 620 l7 100 6 -95 c4 -52 7 -309 8 -570z m871 -80 c-6 -324 -15
-569 -21 -575 -12 -12 -12 197 2 800 10 469 20 623 27 430 2 -49 -1 -344 -8
-655z m228 722 c2 -7 -6 -12 -17 -12 -21 0 -27 11 -14 24 9 9 26 2 31 -12z
m522 -88 c0 -67 -4 -103 -10 -99 -6 3 -10 50 -10 106 0 59 4 99 10 99 6 0 10
-42 10 -106z m600 25 c-10 -17 -14 -19 -21 -8 -9 16 -2 57 15 78 16 21 21 -41
6 -70z m459 -676 c1 -513 -5 -646 -23 -517 -9 66 -8 1239 2 1261 14 34 20
-178 21 -744z m-5127 -318 c-14 -100 -25 344 -18 678 11 476 21 427 24 -113 1
-278 -2 -532 -6 -565z m1642 525 c3 -256 9 -495 13 -532 4 -44 2 -68 -4 -68
-27 0 -42 213 -43 590 0 355 9 583 21 515 3 -22 9 -249 13 -505z m61 98 c12
-639 12 -842 0 -848 -6 -3 -13 22 -16 60 -10 102 -10 1230 0 1230 5 0 12 -199
16 -442z m434 -328 c1 -463 -7 -613 -23 -457 -9 90 -8 1085 1 1166 8 62 8 57
14 -74 4 -77 7 -363 8 -635z m1251 484 c-5 -153 -10 -414 -11 -579 -1 -165 -5
-334 -8 -375 l-7 -75 -8 49 c-10 55 0 760 14 1054 9 177 15 221 26 209 2 -2 0
-129 -6 -283z m300 221 c0 -53 -15 -80 -30 -55 -7 12 -4 78 6 108 9 30 24 -3
24 -53z m154 -390 c-4 -95 -10 -152 -15 -140 -10 25 -11 541 -1 575 12 41 23
-258 16 -435z m56 90 c0 -377 -12 -497 -20 -200 -7 268 -1 573 10 555 6 -9 10
-160 10 -355z m119 4 c1 -235 -10 -449 -22 -418 -12 31 -13 702 -1 749 7 30
10 21 15 -65 4 -55 7 -175 8 -266z m531 109 c0 -277 -8 -448 -22 -448 -10 0
-11 299 -1 533 3 92 10 167 15 167 4 0 8 -114 8 -252z m255 -400 c-4 -359 -11
-660 -15 -668 -18 -33 -23 131 -16 610 7 545 14 710 28 710 6 0 7 -243 3 -652z
m70 100 c-3 -304 -8 -605 -12 -668 -6 -104 -7 -111 -15 -70 -14 70 -4 1240 11
1268 6 12 14 22 16 22 3 0 2 -249 0 -552z m380 -133 c6 -547 5 -648 -6 -637
-11 10 -16 133 -23 631 -8 582 -5 726 14 676 4 -11 11 -313 15 -670z m376 -1
c4 -555 0 -691 -15 -593 -15 100 -23 1158 -9 1241 l7 43 7 -40 c3 -21 8 -315
10 -651z m64 615 c8 -83 -3 -231 -16 -208 -11 21 -23 220 -15 253 11 46 24 28
31 -45z m67 -566 c5 -345 10 -637 11 -648 4 -38 -18 -30 -26 10 -4 22 -11 289
-14 592 -5 500 -1 694 14 679 3 -3 10 -288 15 -633z m259 292 c0 -176 4 -430
8 -565 7 -249 5 -294 -11 -249 -20 53 -36 861 -21 1068 12 177 23 66 24 -254z
m69 -270 c1 -264 5 -527 9 -585 4 -58 4 -109 0 -114 -4 -5 -23 -6 -43 -2 -37
7 -54 34 -38 61 7 13 11 11 23 -12 12 -25 15 49 19 617 3 355 7 647 9 650 12
15 19 -189 21 -615z m62 -7 c3 -532 5 -627 18 -648 13 -22 16 40 20 612 3 350
8 639 11 642 17 17 26 -881 12 -1157 l-6 -127 -31 -8 -31 -8 -6 65 c-10 107
-10 1251 0 1251 6 0 11 -255 13 -622z m-7633 6 c1 -309 -2 -589 -5 -623 -23
-219 -31 170 -17 879 4 195 10 344 14 330 4 -14 7 -277 8 -586z m630 26 c1
-340 -10 -703 -21 -692 -11 11 -13 1102 -1 1202 8 72 8 69 14 -85 4 -88 7
-279 8 -425z m548 195 c-3 -187 -10 -358 -14 -380 -16 -79 -22 -16 -13 146 5
90 9 243 10 339 0 171 10 312 18 260 2 -14 2 -178 -1 -365z m1185 -250 c-2
-302 -7 -566 -11 -585 -23 -106 -25 865 -4 1135 15 177 19 11 15 -550z m186
25 c0 -316 -3 -597 -7 -625 -6 -47 -7 -44 -15 50 -9 121 -9 926 0 1080 15 232
23 52 22 -505z m132 483 c0 -103 -12 -136 -24 -65 -8 48 -8 140 1 170 12 47
23 -2 23 -105z m379 -333 c1 -223 6 -495 10 -605 5 -110 6 -206 4 -212 -11
-29 -31 -11 -37 33 -8 64 -8 1038 1 1155 13 173 21 47 22 -371z m250 60 c1
-307 -7 -415 -23 -304 -8 63 -8 565 1 645 7 64 7 64 14 24 5 -22 8 -186 8
-365z m1312 148 c-7 -25 -9 0 -10 103 -1 75 2 139 7 143 11 12 14 -209 3 -246z
m129 126 c0 -81 -4 -123 -10 -119 -6 4 -10 55 -10 119 0 99 4 126 17 126 2 0
3 -57 3 -126z m519 -106 c1 -126 -3 -198 -9 -198 -6 0 -10 79 -9 218 0 130 4
209 9 197 5 -11 9 -109 9 -217z m165 -338 c-5 -151 -10 -212 -15 -185 -10 52
-11 718 -1 742 13 32 23 -324 16 -557z m347 302 c-7 -12 -10 23 -11 119 0 75
3 139 8 143 11 12 14 -242 3 -262z m64 -44 c-4 -172 -12 -322 -16 -333 -6 -12
-8 109 -6 301 4 294 7 344 24 344 3 0 2 -141 -2 -312z m641 -347 c-3 -338 -8
-616 -11 -619 -15 -15 -18 25 -19 200 -2 379 5 1033 11 1057 l6 25 10 -25 c6
-15 7 -255 3 -638z m63 78 c1 -479 -7 -752 -20 -694 -9 41 -11 1102 -2 1201
l8 79 6 -55 c4 -30 7 -269 8 -531z m890 -197 c1 -294 -3 -521 -8 -518 -12 8
-25 1121 -15 1221 l9 80 6 -130 c4 -71 7 -365 8 -653z m-7742 58 c-2 -358 -7
-542 -14 -555 -10 -17 -12 -15 -19 20 -8 44 2 871 13 1105 l7 145 9 -90 c5
-49 7 -331 4 -625z m240 88 c-5 -438 -10 -625 -18 -633 -9 -7 -10 149 -5 595
6 561 9 660 24 660 3 0 2 -280 -1 -622z m626 47 c-2 -275 -6 -547 -10 -605 -6
-94 -7 -101 -16 -65 -10 45 -2 1053 10 1175 15 152 20 -1 16 -505z m1307 -50
c0 -352 4 -606 10 -615 20 -32 25 11 22 208 -2 157 0 203 9 189 6 -11 13 -98
16 -219 7 -217 6 -218 -48 -218 -15 0 -29 7 -33 16 -8 21 -8 1009 1 1152 14
250 23 58 23 -513z m616 178 c-4 -247 -10 -459 -13 -472 -5 -20 -7 -21 -15 -7
-5 9 -4 175 2 414 6 219 10 402 9 408 -6 31 3 104 12 104 9 0 10 -115 5 -447z
m323 347 c0 -30 -2 -66 -6 -79 -6 -23 -7 -23 -14 -5 -10 25 -11 168 -2 178 11
11 21 -31 22 -94z m1386 13 c-7 -27 -7 -28 -17 -6 -6 13 -7 38 -3 60 l8 38 10
-32 c5 -17 6 -44 2 -60z m55 -591 c-5 -327 -11 -596 -14 -599 -3 -3 -8 7 -12
23 -8 33 3 1050 13 1174 16 195 21 -22 13 -598z m1358 313 c0 -345 -11 -449
-21 -199 -7 179 3 586 14 539 4 -16 7 -169 7 -340z m60 5 c-1 -102 -3 -219 -7
-260 l-6 -75 -8 109 c-9 137 -9 262 0 446 l8 145 6 -90 c4 -49 7 -173 7 -275z
m1129 -303 c4 -431 3 -647 -4 -647 -14 0 -23 338 -23 869 0 306 3 442 10 435
7 -7 13 -235 17 -657z m187 1 c3 -369 2 -628 -3 -628 -17 0 -20 70 -22 530 -1
614 1 769 10 745 5 -11 11 -302 15 -647z m316 404 c0 -136 5 -420 10 -631 5
-211 6 -389 2 -395 -13 -20 -20 95 -32 527 -12 419 -7 762 11 751 5 -3 9 -116
9 -252z m-7731 -233 c1 -470 -8 -801 -20 -759 -17 61 -6 1270 12 1225 4 -11 8
-221 8 -466z m171 -743 c-12 -12 -14 935 -2 1114 4 73 8 -105 10 -494 1 -400
-1 -613 -8 -620z m1019 1033 c1 -118 -10 -244 -20 -227 -11 16 -12 343 -2 389
7 33 8 32 14 -21 4 -30 7 -94 8 -141z m120 65 c1 -97 -8 -176 -20 -168 -11 6
-12 201 -2 259 6 36 7 38 14 15 4 -14 7 -61 8 -106z m240 -294 c-13 -425 -29
-449 -23 -35 3 182 8 359 11 395 l7 65 7 -60 c5 -33 4 -197 -2 -365z m1485
-820 c-5 -31 -7 -32 -16 -15 -13 21 -3 1191 10 1235 9 31 15 -1171 6 -1220z
m264 619 c-4 -432 -9 -624 -17 -632 -8 -8 -11 127 -11 499 0 540 7 754 23 754
7 0 8 -211 5 -621z m812 16 c0 -388 -3 -576 -10 -569 -6 6 -13 103 -16 225 -8
261 5 957 17 938 5 -8 9 -275 9 -594z m129 463 c-4 -79 -8 -327 -9 -553 -1
-226 -5 -441 -9 -480 l-6 -70 -8 100 c-13 186 -1 933 19 1093 12 100 19 51 13
-90z m180 -375 c0 -487 -6 -608 -22 -524 -15 74 -1 1041 15 1041 4 0 8 -233 7
-517z m69 461 c-2 -22 -7 -39 -13 -39 -13 0 -18 40 -10 72 9 39 27 13 23 -33z
m53 -1171 c-15 -28 -23 303 -17 720 10 620 21 576 24 -96 1 -337 -2 -616 -7
-624z m271 874 c-3 -84 -9 -142 -13 -135 -11 16 -12 343 -1 429 l7 64 6 -105
c4 -58 4 -172 1 -253z m549 -222 c-10 -480 -7 -680 10 -691 15 -9 19 65 26
605 5 347 12 546 18 548 7 2 10 -187 10 -554 0 -521 6 -649 25 -568 4 17 8 69
9 117 2 127 21 123 22 -4 1 -111 10 -169 22 -133 3 11 8 65 12 120 9 162 16
215 28 215 7 0 8 -50 4 -157 -3 -87 -2 -167 3 -178 12 -30 16 -9 28 133 5 68
12 126 16 129 16 16 18 -17 10 -149 l-9 -143 -134 -3 -134 -3 6 628 c3 345 9
637 13 648 21 52 25 -91 15 -560z m289 493 c0 -111 -11 -199 -21 -173 -16 41
-5 255 12 255 5 0 9 -37 9 -82z m501 -403 c-4 -128 -7 -166 -12 -130 -10 68
-11 331 -1 490 l7 130 5 -155 c3 -85 3 -236 1 -335z m184 223 c-10 -359 -22
-442 -23 -173 -2 250 7 435 21 435 7 0 8 -88 2 -262z m181 -335 c-7 -608 -10
-703 -27 -703 -12 0 -12 535 1 926 10 302 15 374 27 374 3 0 2 -269 -1 -597z
m331 575 c-3 -8 -6 -5 -6 6 -1 11 2 17 5 13 3 -3 4 -12 1 -19z m447 -853 c5
-299 4 -417 -4 -409 -21 20 -43 1258 -22 1278 8 9 16 -260 26 -869z m57 379
c6 -269 7 -559 3 -644 l-8 -155 -7 110 c-20 326 -22 1201 -2 1182 2 -3 9 -225
14 -493z m885 -156 c4 -430 3 -610 -4 -603 -7 7 -13 217 -17 635 -3 399 -2
617 4 603 6 -12 13 -284 17 -635z m-5066 525 c0 -80 -3 -113 -10 -103 -18 28
-12 220 7 220 2 0 3 -53 3 -117z m190 22 c0 -57 -4 -95 -10 -95 -6 0 -10 38
-10 95 0 57 4 95 10 95 6 0 10 -38 10 -95z m503 -540 c2 -341 1 -608 -4 -592
-4 15 -13 139 -20 275 -12 255 -8 900 7 936 4 11 9 16 10 10 1 -5 4 -288 7
-629z m306 77 c-2 -624 -9 -808 -22 -517 -9 216 3 1076 15 1069 4 -3 7 -251 7
-552z m943 68 c-7 -190 -13 -406 -14 -480 0 -74 -4 -169 -9 -210 -4 -41 -5
203 -3 544 2 340 8 624 12 630 20 30 25 -158 14 -484z m2362 -90 c4 -300 9
-574 12 -610 5 -70 -7 -109 -26 -80 -6 9 -10 248 -9 645 0 347 4 621 8 610 5
-11 11 -265 15 -565z m-4873 -272 c-2 -208 -8 -375 -12 -372 -11 6 -12 980 -1
1119 6 90 8 77 12 -135 3 -129 4 -405 1 -612z m254 295 c-4 -302 -11 -582 -15
-623 -9 -94 -13 916 -3 1063 3 61 10 107 16 107 7 0 8 -183 2 -547z m2005 383
c-7 -7 -10 14 -10 70 0 105 14 119 18 18 2 -44 -2 -82 -8 -88z m2244 -501 c3
-308 9 -572 12 -587 5 -21 3 -28 -9 -28 -9 0 -18 8 -21 18 -5 16 -10 402 -6
467 1 17 -1 190 -5 386 -8 343 -1 488 15 359 4 -30 11 -307 14 -615z m-5865
518 c-1 -100 -3 -128 -10 -103 -8 31 -1 240 7 240 2 0 4 -62 3 -137z m1181
100 c-1 -31 -3 -35 -11 -20 -6 9 -7 26 -4 37 10 30 15 24 15 -17z m129 -66 c0
-51 -4 -101 -9 -112 -5 -13 -9 23 -9 98 -1 76 3 116 9 112 6 -3 10 -47 9 -98z
m3845 -280 c-4 -139 -10 -233 -15 -225 -11 16 -11 218 -2 444 7 160 8 165 15
94 5 -41 5 -182 2 -313z m258 291 c2 -51 1 -205 -3 -343 -4 -137 -8 -379 -8
-537 -1 -260 -8 -338 -25 -275 -7 26 2 1041 10 1165 3 45 9 82 14 82 4 0 10
-42 12 -92z m-2728 -226 c-8 -37 -8 -36 -15 23 -10 83 -11 270 -1 279 11 11
25 -259 16 -302z m1003 -24 c-1 -62 -3 -12 -3 112 0 124 2 174 3 113 2 -62 2
-164 0 -225z m57 -487 c-3 -184 -10 -328 -14 -320 -21 40 -17 593 7 1009 8
134 8 133 11 -110 2 -135 0 -395 -4 -579z m-2505 622 c-1 -104 -5 -165 -8
-138 -6 54 -3 325 5 325 2 0 3 -84 3 -187z m3015 171 c9 -8 16 -20 16 -25 0
-12 -32 4 -50 25 -10 13 -10 16 3 16 9 0 23 -7 31 -16z m-2074 -131 c0 -93 -3
-133 -10 -123 -13 20 -13 260 0 260 6 0 10 -52 10 -137z m-681 46 c1 -64 -9
-114 -20 -97 -10 16 -12 139 -2 164 6 16 7 16 14 -2 4 -10 8 -40 8 -65z m1240
-521 c0 -422 -3 -596 -11 -578 -18 45 -11 1180 8 1180 2 0 4 -271 3 -602z
m2870 107 c-4 -225 -8 -483 -8 -572 -1 -167 -15 -221 -23 -90 -7 102 11 1117
19 1131 16 24 18 -76 12 -469z m-263 400 c9 -62 -16 -1108 -27 -1120 -5 -5 -9
166 -9 411 0 610 13 862 36 709z m-2102 -521 c-5 -382 -10 -521 -17 -504 -12
28 -14 993 -2 1030 5 15 10 19 17 12 6 -6 7 -194 2 -538z m-2119 501 c0 -10
-6 -20 -12 -22 -8 -3 -13 5 -13 22 0 17 5 25 13 23 6 -3 12 -13 12 -23z m2366
-946 c-11 -109 -14 590 -3 801 5 114 8 52 10 -286 1 -237 -2 -469 -7 -515z
m-2309 859 c-2 -16 -8 -28 -13 -28 -11 0 -12 61 -2 87 6 16 8 15 13 -7 3 -14
4 -37 2 -52z m2187 -460 c-1 -297 -5 -504 -10 -478 -15 87 -9 1000 8 1000 1 0
2 -235 2 -522z m1373 265 c2 -142 2 -262 0 -267 -3 -4 -8 -2 -13 5 -12 19 -12
519 0 519 5 0 11 -112 13 -257z m2202 -295 c4 -291 3 -518 -2 -518 -5 0 -12
64 -15 143 -10 199 -7 936 2 912 5 -11 11 -253 15 -537z m-2624 497 c15 -16
19 -25 10 -25 -15 0 -50 29 -50 42 0 15 16 8 40 -17z m-3209 -72 c-8 -15 -10
-10 -11 23 0 22 3 44 8 48 11 12 14 -52 3 -71z m750 54 c-13 -13 -26 -3 -16
12 3 6 11 8 17 5 6 -4 6 -10 -1 -17z m259 -32 c0 -25 -4 -45 -10 -45 -5 0 -10
20 -10 45 0 25 5 45 10 45 6 0 10 -20 10 -45z m-130 -39 c0 -106 -11 -201 -21
-183 -11 19 1 257 13 257 4 0 8 -33 8 -74z m1650 27 c0 -13 -4 -23 -10 -23 -5
0 -10 17 -10 38 0 27 3 33 10 22 5 -8 10 -25 10 -37z m610 -76 c0 -182 -12
-427 -22 -427 -9 0 -11 510 -2 534 15 38 24 -4 24 -107z m-430 83 c0 -19 -11
-26 -23 -14 -8 8 3 34 14 34 5 0 9 -9 9 -20z m2540 -265 c1 -121 5 -326 9
-455 3 -129 5 -239 3 -243 -3 -5 -9 -4 -15 2 -12 12 -32 910 -21 951 l7 25 7
-30 c4 -16 9 -129 10 -250z m-1390 115 c0 -93 -4 -150 -10 -150 -6 0 -10 31
-10 73 0 80 11 227 16 227 2 0 4 -67 4 -150z m-3661 -477 l1 -323 -70 0 -70 0
1 68 2 67 10 -53 c5 -28 13 -52 17 -52 17 0 21 85 14 323 -6 217 0 456 12 445
1 -2 8 -163 13 -358 9 -302 21 -446 32 -405 2 6 3 194 3 420 1 241 5 424 11
445 14 48 22 -155 24 -577z m-140 245 c-1 -194 -5 -339 -9 -323 -16 63 -10
675 6 675 2 0 3 -159 3 -352z m686 14 c-15 -15 -20 22 -19 141 2 210 18 235
22 33 1 -93 0 -171 -3 -174z m74 -259 c1 -305 -10 -414 -23 -231 -8 125 -7
757 2 788 11 37 19 -197 21 -557z m-1871 222 c1 -326 -9 -453 -21 -286 -15
198 -4 673 14 611 4 -14 7 -160 7 -325z m2122 331 c0 -8 -4 -17 -9 -21 -12 -7
-24 12 -16 25 9 15 25 12 25 -4z m1637 -30 c-4 -9 -11 -16 -17 -16 -11 0 -14
33 -3 44 11 10 26 -11 20 -28z m-1698 -168 c1 -154 -10 -206 -23 -112 -8 61
-8 198 1 260 11 86 22 20 22 -148z m-2132 75 c-2 -21 -4 -6 -4 32 0 39 2 55 4
38 2 -18 2 -50 0 -70z m1123 -90 c0 -119 -4 -173 -10 -163 -5 8 -10 85 -10
171 0 137 3 169 17 169 2 0 3 -80 3 -177z m2820 117 c0 -22 -4 -40 -10 -40
-11 0 -13 39 -4 64 10 26 14 19 14 -24z m392 -27 c14 -38 34 -89 44 -116 15
-38 16 -53 7 -77 -7 -18 -7 -32 -2 -36 16 -9 10 -24 -11 -24 -22 0 -28 19 -32
95 -5 81 -23 53 -26 -40 -1 -47 -7 -85 -11 -85 -5 0 -11 39 -13 88 -6 103 2
262 12 262 4 0 19 -30 32 -67z m-711 -704 c-6 -37 -9 57 -10 307 0 199 2 383
7 410 4 28 8 -101 10 -307 1 -196 -2 -380 -7 -410z m-928 334 c4 -214 2 -383
-2 -383 -16 0 -38 679 -25 761 15 90 21 -3 27 -378z m-2750 218 c5 -135 4
-172 -6 -162 -7 7 -13 61 -15 151 -4 121 2 201 12 189 2 -2 6 -82 9 -178z
m2252 -230 c6 -305 5 -363 -6 -359 -10 3 -16 36 -20 124 -8 147 2 631 11 612
4 -7 11 -177 15 -377z m2225 364 c10 -12 10 -15 -3 -15 -8 0 -17 7 -21 15 -3
8 -2 15 3 15 5 0 14 -7 21 -15z m-613 -17 c-3 -8 -6 -5 -6 6 -1 11 2 17 5 13
3 -3 4 -12 1 -19z m114 -666 c-6 -32 -9 64 -10 304 0 193 2 354 7 358 10 11
14 -606 3 -662z m-241 -50 c-11 -21 -12 8 -10 398 1 156 5 289 8 295 11 17 13
-674 2 -693z m-3675 223 l-7 -225 -44 0 -44 0 7 167 c8 224 21 257 23 63 1
-85 5 -166 9 -180 7 -23 8 -22 14 15 4 22 12 159 17 305 11 324 11 319 23 188
5 -63 6 -202 2 -333z m1990 167 c-2 -7 -10 -10 -16 -6 -8 5 -9 39 -4 118 10
165 20 178 23 32 1 -72 0 -136 -3 -144z m1574 165 c-1 -45 -4 -93 -8 -107 -11
-38 -22 69 -14 141 9 84 23 62 22 -34z m237 26 c-10 -10 -19 5 -10 18 6 11 8
11 12 0 2 -7 1 -15 -2 -18z m-5160 -27 c7 -28 -2 -49 -17 -41 -12 8 -12 65 1
65 5 0 12 -11 16 -24z m6468 -12 c21 -8 22 -93 1 -120 -13 -17 -14 -14 -15 39
0 102 -26 62 -32 -52 -2 -26 -8 -46 -16 -49 -11 -3 -12 12 -6 77 5 59 3 81 -5
81 -18 0 -31 -46 -31 -115 0 -65 -13 -93 -24 -52 -3 12 -6 45 -6 74 0 28 -4
54 -9 58 -14 8 -18 -22 -13 -107 l5 -76 -61 -31 c-91 -46 -91 -46 -94 62 l-3
92 -16 -34 c-13 -26 -17 -30 -23 -16 -16 41 -7 64 34 85 l40 20 0 -92 c0 -51
4 -99 9 -107 15 -24 24 50 16 132 l-6 73 48 22 c75 35 169 51 207 36z m-1304
-39 c0 -19 -4 -35 -10 -35 -11 0 -14 53 -3 63 11 12 13 8 13 -28z m-1937 -177
c6 -179 -1 -345 -14 -311 -14 37 -14 487 -1 479 5 -3 12 -79 15 -168z m646
-112 c1 -145 -2 -197 -10 -189 -14 14 -25 350 -14 418 l8 50 8 -40 c4 -22 8
-130 8 -239z m-390 -1 c1 -230 -15 -232 -25 -3 -7 159 2 283 17 223 3 -16 7
-115 8 -220z m2532 182 c-1 -12 -15 -9 -19 4 -3 6 1 10 8 8 6 -3 11 -8 11 -12z
m-860 -90 c-8 -8 -11 1 -11 29 0 53 14 67 18 19 2 -21 -1 -42 -7 -48z m1413
-119 c-7 -181 -16 -233 -29 -158 -11 68 9 330 26 330 5 0 6 -74 3 -172z
m-1644 -12 c0 -106 -4 -177 -10 -181 -7 -4 -10 57 -10 174 0 114 4 181 10 181
6 0 10 -65 10 -174z m-4746 -72 c-12 -136 -30 -133 -27 3 2 60 6 137 10 173
l7 65 9 -72 c6 -42 6 -111 1 -169z m5876 226 c0 -5 -2 -10 -4 -10 -3 0 -8 5
-11 10 -3 6 -1 10 4 10 6 0 11 -4 11 -10z m-120 -20 c0 -5 -2 -10 -4 -10 -3 0
-8 5 -11 10 -3 6 -1 10 4 10 6 0 11 -4 11 -10z m-2577 -76 c10 -79 -1 -232
-13 -198 -5 12 -12 79 -16 149 -6 107 -5 127 7 123 9 -3 17 -30 22 -74z m3151
-56 c-8 -184 -19 -220 -28 -97 -9 124 2 229 23 229 7 0 8 -47 5 -132z m-3476
-30 c-1 -110 -2 -121 -7 -63 -6 68 -3 195 5 195 2 0 3 -60 2 -132z m2132 -13
c0 -83 -4 -135 -10 -135 -6 0 -10 52 -10 135 0 83 4 135 10 135 6 0 10 -52 10
-135z m920 125 c0 -5 -4 -10 -9 -10 -6 0 -13 5 -16 10 -3 6 1 10 9 10 9 0 16
-4 16 -10z m355 -220 c-6 -37 -8 -41 -17 -26 -11 20 -3 202 10 234 9 23 15
-151 7 -208z m-6440 190 c0 -7 -6 -15 -12 -17 -8 -3 -13 4 -13 17 0 13 5 20
13 18 6 -3 12 -11 12 -18z m5976 -5 c-1 -15 -24 -12 -29 3 -3 9 2 13 12 10 10
-1 17 -7 17 -13z m406 -95 c-3 -60 -11 -117 -17 -127 -9 -14 -10 7 -6 89 3 61
2 109 -3 113 -16 9 -21 -10 -31 -110 -13 -146 -25 -142 -33 12 -3 62 -1 96 7
101 11 10 64 30 80 31 5 1 7 -46 3 -109z m-122 -3 c4 -29 5 -73 3 -98 -3 -42
-5 -44 -36 -47 -52 -5 -62 10 -62 95 0 55 3 74 13 71 7 -3 13 -25 15 -54 1
-27 5 -60 8 -74 6 -23 7 -24 14 -5 5 11 9 50 9 86 1 36 4 69 8 72 15 16 22 4
28 -46z m-1715 -55 c0 -45 -14 -72 -24 -47 -8 22 4 96 15 89 5 -3 9 -22 9 -42z
m-4544 -18 c-4 -13 -11 -24 -16 -24 -11 0 -14 63 -3 74 12 11 25 -24 19 -50z
m6128 4 c-4 -29 -11 -59 -17 -65 -16 -21 -127 -13 -127 8 0 5 10 7 23 4 20 -6
25 -1 36 34 16 55 36 54 27 0 -5 -30 -3 -40 6 -37 12 4 20 25 32 81 11 50 27
30 20 -25z m-2444 -19 c0 -24 -4 -38 -10 -34 -5 3 -10 22 -10 41 0 19 5 34 10
34 6 0 10 -18 10 -41z m2094 6 c-6 -16 -24 -21 -24 -7 0 11 11 22 21 22 5 0 6
-7 3 -15z m-1534 -31 c0 -8 -7 -14 -15 -14 -15 0 -21 21 -9 33 10 9 24 -2 24
-19z m865 -12 c0 -18 -20 -15 -23 4 -3 10 1 15 10 12 7 -3 13 -10 13 -16z"/>
<path d="M1796 11151 c-8 -12 39 -23 69 -15 36 9 20 24 -25 24 -21 0 -41 -4
-44 -9z"/>
<path d="M1726 10581 c-3 -4 15 -11 39 -14 52 -8 135 2 135 14 0 12 -167 12
-174 0z"/>
<path d="M1750 9680 c0 -5 20 -10 44 -10 25 0 48 5 51 10 4 6 -13 10 -44 10
-28 0 -51 -4 -51 -10z"/>
<path d="M1680 9040 c0 -6 40 -10 100 -10 60 0 100 4 100 10 0 6 -40 10 -100
10 -60 0 -100 -4 -100 -10z"/>
<path d="M3020 8731 c0 -67 4 -111 10 -111 6 0 10 41 10 104 0 59 -4 108 -10
111 -6 4 -10 -33 -10 -104z"/>
<path d="M2721 8678 c1 -62 5 -144 9 -183 5 -54 7 -27 8 113 1 116 -2 182 -8
182 -6 0 -10 -43 -9 -112z"/>
<path d="M2668 8755 c-3 -16 -4 -44 -1 -61 3 -17 0 -40 -6 -50 -9 -17 -10 -15
-11 11 -1 61 -12 105 -28 105 -13 0 -14 -22 -8 -177 4 -98 11 -182 15 -186 5
-5 12 29 16 77 8 92 25 117 26 39 0 -27 4 -66 8 -88 l9 -40 2 35 c5 68 -2 311
-9 338 l-8 27 -5 -30z"/>
<path d="M2771 8632 c-1 -100 2 -151 9 -147 12 7 12 238 0 275 -5 15 -8 -36
-9 -128z"/>
<path d="M1750 8740 c0 -6 29 -10 68 -10 47 0 63 3 52 10 -20 13 -120 13 -120
0z"/>
<path d="M2505 8695 c-9 -66 3 -161 16 -130 4 11 8 37 8 57 2 71 31 99 31 29
0 -45 15 -62 24 -28 8 29 8 91 0 111 -8 20 -24 21 -24 2 0 -24 -21 -30 -27 -7
-9 37 -21 23 -28 -34z"/>
<path d="M2450 8725 c0 -8 5 -15 10 -15 6 0 10 7 10 15 0 8 -4 15 -10 15 -5 0
-10 -7 -10 -15z"/>
<path d="M2406 8650 c-4 -47 -4 -112 1 -145 l9 -60 8 75 c4 41 3 107 -2 145
l-8 70 -8 -85z"/>
<path d="M1842 8694 c-21 -9 -3 -24 29 -24 20 0 29 4 27 13 -5 13 -35 19 -56
11z"/>
<path d="M2453 8563 c7 -129 27 -182 27 -71 0 95 -11 188 -23 188 -7 0 -8 -41
-4 -117z"/>
<path d="M2521 8443 c0 -39 4 -75 9 -78 12 -7 12 53 1 110 -8 36 -9 33 -10
-32z"/>
<path d="M1797 8423 c-33 -9 -6 -23 43 -23 49 0 73 13 44 24 -17 7 -59 6 -87
-1z"/>
<path d="M1780 7953 c0 -12 108 -28 118 -19 10 11 -6 17 -62 23 -35 4 -56 2
-56 -4z"/>
<path d="M1845 7630 c3 -5 17 -10 31 -10 13 0 24 5 24 10 0 6 -14 10 -31 10
-17 0 -28 -4 -24 -10z"/>
<path d="M1697 7583 c-15 -2 -25 -9 -22 -14 8 -11 185 -12 203 0 26 16 -100
26 -181 14z"/>
<path d="M3216 9193 c-11 -11 -6 -23 9 -23 8 0 15 4 15 9 0 13 -16 22 -24 14z"/>
<path d="M2668 9273 c-26 -26 -50 -44 -54 -40 -4 4 0 15 9 25 19 20 23 52 7
52 -5 0 -22 -18 -36 -40 -26 -39 -26 -41 -9 -60 10 -11 24 -20 31 -20 11 0
114 111 114 124 0 15 -19 3 -62 -41z"/>
<path d="M2250 9048 c-32 -34 -23 -45 10 -13 17 16 30 30 30 32 0 10 -22 0
-40 -19z"/>
<path d="M2121 8914 c-58 -64 -71 -84 -53 -84 13 0 36 22 78 75 50 61 58 75
45 75 -5 0 -37 -30 -70 -66z"/>
<path d="M3632 5041 c2 -7 7 -12 11 -12 12 1 9 15 -3 20 -7 2 -11 -2 -8 -8z"/>
<path d="M3960 6860 c-12 -8 -12 -10 2 -15 26 -10 101 -1 106 13 5 15 -85 17
-108 2z"/>
<path d="M4294 3386 c-4 -9 -2 -27 3 -39 6 -12 8 -38 6 -58 -3 -24 0 -39 11
-48 18 -15 20 -5 16 84 -2 55 -24 92 -36 61z"/>
<path d="M2402 4708 c-16 -16 -15 -50 1 -72 19 -26 108 -34 126 -12 19 23 27
20 67 -19 28 -28 42 -35 74 -35 36 0 40 2 40 26 0 20 -8 28 -37 40 -21 8 -69
30 -108 49 -73 37 -140 46 -163 23z m104 -42 c17 -13 18 -15 2 -21 -26 -10
-52 -2 -56 18 -4 21 26 23 54 3z"/>
<path d="M5285 4158 c-4 -10 -4 -26 0 -35 6 -17 7 -17 16 0 7 11 7 23 0 35 -9
16 -10 16 -16 0z"/>
<path d="M5606 4085 c23 -35 126 -111 206 -151 75 -38 88 -41 88 -20 0 8 -33
31 -73 51 -39 20 -105 61 -146 91 -81 60 -100 67 -75 29z"/>
<path d="M5350 4060 c0 -5 9 -24 20 -42 28 -47 26 -134 -5 -223 -26 -72 -32
-139 -15 -150 6 -3 10 1 10 10 0 9 16 65 36 126 44 133 44 196 0 253 -26 35
-46 46 -46 26z"/>
<path d="M1667 4814 c-14 -14 7 -24 51 -24 86 0 212 13 212 21 0 10 -253 12
-263 3z"/>
<path d="M2271 3835 c-55 -50 -117 -143 -104 -156 7 -7 20 3 44 33 18 24 53
65 76 92 24 26 43 52 43 57 0 18 -21 8 -59 -26z"/>
<path d="M2364 3836 c-10 -58 3 -221 26 -310 11 -42 36 -109 57 -149 43 -81
140 -187 172 -187 32 0 26 11 -38 67 -42 37 -69 74 -99 131 -55 105 -71 172
-79 325 -4 77 -11 134 -19 145 -11 15 -13 12 -20 -22z"/>
<path d="M2070 3205 c0 -56 18 -115 35 -115 8 0 15 3 15 8 0 17 -28 111 -38
128 -10 16 -11 13 -12 -21z"/>
<path d="M4010 2515 c-16 -19 -6 -46 15 -39 16 7 21 39 6 48 -5 3 -14 -1 -21
-9z"/>
<path d="M4440 2510 c0 -13 5 -20 13 -17 6 2 12 10 12 17 0 7 -6 15 -12 18 -8
2 -13 -5 -13 -18z"/>
<path d="M955 2510 c-10 -16 16 -43 28 -31 11 11 2 41 -12 41 -5 0 -13 -5 -16
-10z"/>
<path d="M4993 2513 c-15 -5 -17 -39 -4 -48 13 -7 35 35 24 45 -4 4 -14 5 -20
3z"/>
<path d="M6662 2489 c2 -6 8 -10 13 -10 5 0 11 4 13 10 2 6 -4 11 -13 11 -9 0
-15 -5 -13 -11z"/>
<path d="M5057 2384 c-14 -14 -7 -35 11 -32 9 2 17 10 17 17 0 16 -18 25 -28
15z"/>
<path d="M6720 2070 c-96 -3 93 -6 420 -7 327 0 665 3 750 7 94 4 -72 6 -420
6 -316 0 -654 -3 -750 -6z"/>
<path d="M6357 544 c-4 -4 -7 -45 -7 -91 0 -63 3 -84 13 -81 7 3 13 29 15 69
3 65 -8 116 -21 103z"/>
</g>
</svg>
