<?xml version="1.0" standalone="no"?>
<!DOCTYPE svg PUBLIC "-//W3C//DTD SVG 20010904//EN"
 "http://www.w3.org/TR/2001/REC-SVG-20010904/DTD/svg10.dtd">
<svg version="1.0" xmlns="http://www.w3.org/2000/svg"
 width="1097.000000pt" height="1280.000000pt" viewBox="0 0 1097.000000 1280.000000"
 preserveAspectRatio="xMidYMid meet">
<metadata>
Created by potrace 1.15, written by Peter Selinger 2001-2017
</metadata>
<g transform="translate(0.000000,1280.000000) scale(0.100000,-0.100000)"
fill="#000000" stroke="none">
<path d="M1286 12763 c-10 -61 -50 -135 -107 -200 -60 -67 -133 -197 -158
-281 l-17 -56 -120 0 c-89 -1 -125 -5 -138 -15 -28 -23 -1 -31 117 -31 60 0
117 -4 127 -10 10 -5 21 -23 25 -39 3 -16 13 -35 21 -42 8 -6 14 -20 14 -30 0
-27 48 -150 67 -171 37 -42 49 -4 21 65 -19 44 -22 71 -22 172 0 105 4 129 28
195 15 41 31 94 36 117 6 24 27 71 48 105 37 60 92 184 92 207 0 23 20 9 62
-40 92 -110 88 -107 183 -134 50 -14 130 -31 179 -38 l89 -13 66 -155 c36 -86
71 -170 78 -187 14 -38 30 -41 39 -7 6 23 -11 69 -93 257 -14 32 -32 63 -39
69 -21 17 -17 47 9 63 12 8 64 24 115 36 51 11 103 26 115 34 12 7 37 16 55
20 19 3 46 15 62 26 15 11 33 20 39 20 23 0 86 -68 107 -116 12 -28 41 -82 64
-119 23 -37 52 -92 65 -122 16 -35 35 -59 54 -71 17 -9 31 -21 31 -26 0 -5
-38 -48 -83 -95 -90 -93 -157 -185 -157 -213 0 -26 13 -22 32 10 9 15 73 83
142 151 l124 124 174 -11 c95 -6 187 -16 203 -22 l30 -12 -38 -13 c-55 -19
-141 -73 -202 -128 -57 -51 -57 -51 -75 -140 -9 -45 -17 -60 -34 -67 -12 -4
-30 -20 -40 -35 -25 -38 -84 -195 -92 -244 -6 -37 -4 -41 20 -51 15 -5 29 -16
32 -25 8 -20 -29 -95 -63 -128 l-28 -26 0 117 c0 140 -12 171 -78 200 -23 11
-44 18 -45 16 -2 -1 4 -29 14 -61 15 -46 19 -91 19 -213 0 -155 0 -156 -32
-221 -46 -92 -95 -144 -218 -229 -112 -78 -205 -169 -205 -201 0 -22 4 -20 53
15 22 16 45 21 100 22 71 1 179 34 232 70 37 26 45 18 45 -43 0 -67 7 -64 24
9 11 49 14 53 43 56 17 2 45 -4 62 -13 29 -15 205 -157 216 -174 2 -5 -28 -17
-67 -27 l-72 -19 56 -7 c32 -4 75 -16 97 -27 95 -49 151 -35 151 38 0 21 3 60
6 87 l6 49 -25 -27 c-25 -27 -25 -27 -32 -5 l-6 22 -9 -22 c-12 -30 -29 -29
-76 3 -70 47 -204 155 -204 164 0 4 19 22 42 39 26 20 36 32 27 35 -45 13
-119 41 -153 58 l-38 20 36 24 c101 69 183 90 252 64 18 -7 36 -7 58 1 27 10
39 8 84 -11 29 -12 52 -26 52 -30 0 -4 -26 -18 -57 -31 -32 -12 -83 -35 -114
-50 -93 -46 -110 -89 -20 -50 64 27 87 27 123 -4 24 -20 40 -25 84 -25 30 0
71 7 91 15 19 8 44 15 54 15 23 0 67 -57 75 -99 13 -62 43 -45 55 30 12 76 23
82 146 76 56 -3 111 -10 121 -16 10 -6 27 -32 37 -58 32 -88 155 -272 241
-363 90 -95 85 -84 100 -244 6 -72 69 -282 99 -333 9 -16 30 -36 47 -46 l31
-18 -9 -62 c-5 -34 -8 -125 -8 -203 1 -121 5 -153 29 -233 l27 -93 -25 -77
c-37 -112 -68 -270 -77 -400 -7 -111 -9 -115 -47 -170 -48 -67 -73 -115 -127
-241 -37 -89 -40 -102 -42 -200 -2 -99 -3 -106 -29 -127 -14 -13 -35 -23 -45
-23 -24 0 -50 26 -50 51 0 60 -53 79 -89 33 -36 -46 -28 -67 44 -118 35 -26
67 -51 70 -56 3 -5 -3 -35 -14 -67 -10 -32 -25 -94 -32 -137 -13 -85 -18 -93
-161 -261 -79 -93 -127 -189 -144 -285 -20 -116 -30 -128 -131 -150 -29 -7
-71 -25 -93 -41 -48 -35 -100 -112 -100 -148 0 -53 -21 -100 -60 -135 -22 -20
-49 -36 -61 -36 -14 0 -19 -5 -17 -17 5 -25 36 -19 95 17 l50 31 61 -15 c113
-30 223 -18 295 32 l38 25 52 -50 c29 -28 78 -67 109 -87 73 -46 79 -66 42
-143 -38 -78 -42 -95 -32 -115 22 -44 81 -6 92 58 24 137 26 144 52 144 47 0
81 -28 132 -109 35 -55 65 -89 94 -107 24 -15 60 -41 80 -57 20 -16 52 -32 70
-36 29 -6 34 -12 40 -46 4 -22 7 -84 7 -137 1 -127 15 -188 57 -246 101 -142
96 -131 90 -202 -3 -36 -10 -109 -16 -163 -9 -94 -8 -101 15 -157 14 -33 25
-72 25 -86 0 -15 7 -35 16 -45 14 -15 13 -22 -9 -75 -29 -68 -41 -126 -61
-279 -8 -60 -29 -159 -47 -220 -30 -105 -31 -115 -24 -223 l7 -114 -65 -66
c-68 -72 -124 -149 -114 -158 3 -4 32 17 64 45 31 28 63 51 70 51 9 0 13 -18
13 -61 0 -54 2 -60 15 -49 8 7 15 23 15 37 0 38 18 63 46 63 14 0 80 -11 146
-25 66 -14 127 -25 135 -25 35 0 -2 29 -107 85 -62 33 -118 67 -123 76 -7 12
-4 24 13 47 28 38 22 48 -21 33 -43 -15 -49 -4 -48 79 1 56 15 138 18 103 2
-27 32 -12 38 18 3 17 11 33 18 35 16 7 90 -23 261 -105 l142 -68 14 -49 c121
-404 192 -634 198 -645 7 -10 11 -10 24 0 14 12 20 5 46 -52 16 -37 35 -87 42
-111 11 -40 10 -47 -7 -66 -24 -27 -22 -72 9 -154 14 -36 29 -82 35 -101 9
-35 8 -37 -25 -57 -19 -11 -37 -31 -40 -44 -3 -13 -9 -24 -13 -24 -7 0 -40 53
-102 163 -24 43 -45 74 -47 69 -1 -5 40 -129 92 -274 90 -253 132 -386 123
-394 -2 -2 -11 4 -19 13 -15 17 -40 61 -210 363 -33 58 -116 189 -184 291 -68
102 -124 194 -124 204 0 14 6 16 31 11 l31 -6 -32 38 c-80 91 -114 125 -163
159 -29 20 -97 72 -152 117 -246 198 -321 258 -339 268 -18 10 -18 8 2 -18 56
-78 437 -484 454 -484 11 0 -19 37 -126 154 -38 42 -67 79 -64 81 8 8 191
-150 239 -206 72 -85 84 -106 69 -124 -17 -21 -10 -36 99 -204 130 -201 318
-537 308 -548 -3 -3 -27 24 -54 58 -66 87 -133 159 -148 159 -39 0 -22 -52 59
-178 52 -80 99 -172 92 -179 -2 -3 -43 46 -89 109 -46 63 -99 127 -118 142
-29 25 -34 26 -45 12 -16 -23 -26 -20 -75 19 -24 19 -47 35 -51 35 -22 0 3
-31 110 -143 64 -67 138 -153 164 -192 49 -73 84 -145 70 -145 -4 0 -37 20
-72 45 -35 25 -68 45 -72 45 -21 0 0 -28 92 -125 55 -58 117 -131 137 -163 21
-31 44 -61 50 -65 15 -10 18 -164 3 -187 -12 -19 -15 -8 -29 85 -13 89 -55
173 -127 253 -63 70 -131 113 -140 88 -4 -9 18 -38 58 -78 63 -63 107 -136
158 -268 21 -53 21 -54 1 -35 -11 11 -70 100 -133 197 -207 324 -339 488 -394
488 -23 0 -56 27 -176 149 -141 143 -164 171 -135 171 12 0 83 -47 139 -92 30
-23 42 -21 32 6 -7 19 -121 106 -181 138 -41 22 -41 22 -83 3 -40 -18 -44 -18
-72 -2 -17 10 -33 15 -36 12 -6 -6 -2 -11 92 -124 32 -40 57 -74 54 -76 -2 -3
-38 24 -79 58 -85 73 -115 92 -124 77 -10 -16 32 -91 116 -204 43 -58 77 -106
74 -106 -2 0 -19 9 -37 20 -43 26 -48 25 -48 -8 0 -31 15 -56 78 -127 24 -27
54 -70 67 -95 12 -25 65 -91 116 -147 103 -111 169 -188 169 -197 0 -3 -10 -6
-23 -6 -13 0 -29 -6 -35 -12 -10 -10 -12 -6 -10 21 2 19 -2 36 -8 38 -7 2 -49
-24 -94 -59 -111 -85 -120 -91 -125 -87 -2 3 7 47 21 99 24 94 27 133 7 95 -6
-11 -30 -83 -53 -160 -54 -181 -76 -230 -105 -243 -13 -6 -26 -8 -28 -4 -3 4
6 43 19 87 30 103 41 170 25 161 -6 -4 -11 -11 -11 -16 0 -5 -18 -56 -40 -114
-71 -183 -119 -210 -75 -42 27 107 29 116 17 116 -4 0 -29 -55 -56 -121 -42
-102 -91 -188 -101 -177 -2 2 3 32 11 68 7 36 13 81 13 100 0 27 -10 6 -45
-90 -54 -153 -101 -250 -120 -250 -20 0 -18 46 7 143 23 93 34 117 52 117 7 0
22 6 32 14 16 11 17 16 6 29 -10 13 -9 19 8 36 16 16 27 55 45 153 51 284 45
294 -34 53 -28 -88 -60 -171 -69 -185 -10 -14 -38 -89 -63 -166 -50 -154 -70
-194 -99 -194 -26 0 -31 15 -20 57 5 21 12 63 15 93 l6 55 -31 -75 c-36 -88
-53 -110 -86 -110 -28 0 -28 -2 -6 82 13 52 15 70 5 80 -9 9 -12 8 -16 -3 -33
-94 -50 -131 -71 -153 -36 -39 -45 -33 -45 35 0 73 -10 70 -50 -14 -29 -62
-84 -137 -100 -137 -4 0 -2 24 6 53 16 62 18 117 4 117 -6 0 -20 -21 -30 -47
-38 -91 -52 -101 -73 -51 -24 58 -67 75 -67 27 0 -32 -44 -46 -84 -26 -32 15
-35 15 -52 -5 -28 -30 -147 -98 -217 -123 -34 -13 -69 -25 -77 -29 -10 -4 -40
10 -80 36 l-63 43 -146 0 c-138 0 -146 1 -149 20 -2 11 -11 28 -19 37 -11 13
-12 21 -3 38 18 34 2 79 -47 131 -51 55 -98 75 -195 84 -37 4 -71 12 -76 18
-5 7 -13 41 -17 76 -10 88 -57 272 -90 355 -23 59 -26 77 -21 125 4 31 13 130
21 221 7 91 14 166 14 167 1 0 25 15 55 32 31 17 70 51 91 78 44 58 99 170
116 236 6 26 19 52 28 57 10 5 56 12 103 16 l85 6 -4 -33 c-13 -114 -28 -171
-61 -237 -30 -61 -34 -75 -22 -82 21 -14 94 -12 108 2 8 8 12 58 13 152 1 78
4 152 8 166 7 27 11 29 183 110 59 28 137 73 175 101 l68 49 36 -40 c66 -72
186 -111 233 -75 11 8 36 15 56 15 20 0 60 7 89 16 l52 15 54 -31 c98 -56 186
-51 266 16 70 58 124 60 151 4 10 -19 28 -40 41 -46 45 -24 193 -47 317 -49
69 -1 136 -5 150 -10 14 -4 103 -57 199 -116 174 -109 211 -127 175 -88 -75
83 -471 309 -541 309 -32 0 -56 21 -91 80 -11 19 -34 48 -51 64 -17 17 -31 38
-31 48 0 9 -10 38 -22 63 l-22 46 22 107 c26 126 28 154 8 146 -18 -7 -30 76
-22 154 8 72 -3 116 -32 120 -14 2 -22 12 -24 29 -3 25 -3 25 -25 7 -37 -31
-40 -69 -8 -98 26 -24 28 -34 36 -133 4 -60 13 -133 20 -163 9 -42 9 -65 0
-98 l-12 -42 -30 15 c-41 22 -45 37 -26 119 22 93 32 184 20 171 -5 -5 -24
-56 -42 -112 -18 -57 -36 -103 -41 -103 -5 0 -15 18 -21 40 -12 39 -11 45 17
187 8 43 -13 31 -30 -17 -20 -57 -57 -100 -84 -100 -11 0 -36 -12 -57 -26 -28
-19 -36 -21 -31 -9 13 36 86 322 86 340 0 41 -20 -6 -69 -160 -52 -164 -71
-205 -97 -205 -21 0 -18 28 25 188 45 167 54 212 43 212 -4 0 -36 -87 -70
-192 -59 -185 -76 -228 -85 -218 -2 3 20 118 49 255 29 138 54 259 54 270 0
17 -2 17 -14 5 -8 -8 -33 -91 -56 -184 -47 -194 -55 -213 -76 -195 -20 16 -18
101 6 238 23 130 23 131 11 131 -9 0 -31 -83 -52 -197 -6 -35 -18 -71 -25 -80
-13 -17 -15 -17 -34 6 -31 37 -34 66 -15 167 22 116 14 170 -27 193 -24 14
-28 14 -47 -3 -14 -13 -21 -31 -21 -58 0 -33 5 -42 30 -56 38 -22 40 -27 28
-95 -9 -53 -13 -59 -50 -78 -22 -11 -42 -18 -45 -15 -7 6 -5 163 3 203 7 38
-3 42 -59 18 -63 -26 -63 -16 1 28 57 38 74 57 54 57 -4 0 -51 -25 -104 -55
-53 -30 -100 -55 -106 -55 -5 0 -12 27 -16 61 -8 84 -20 95 -27 26 -4 -32 -12
-64 -19 -70 -10 -10 -11 -4 -7 25 7 50 -7 99 -38 128 -23 21 -35 24 -113 25
-135 0 -165 28 -112 105 31 46 32 54 55 365 6 74 5 78 -9 55 -8 -14 -15 -38
-16 -55 l0 -30 -27 27 -26 27 21 73 c11 40 24 102 28 137 7 61 6 63 -15 56
-27 -8 -27 -2 5 152 14 68 24 132 22 141 -2 9 -19 -27 -37 -80 -18 -54 -37
-98 -42 -98 -14 0 -11 22 27 208 l35 173 -18 77 c-12 51 -25 83 -40 96 -36 31
-28 59 32 126 70 79 97 148 103 260 2 47 8 90 14 97 5 7 35 17 66 24 31 7 73
20 92 30 47 23 122 104 153 166 29 57 51 78 72 70 21 -9 27 7 10 29 -19 26
-19 34 3 34 10 0 29 -11 42 -25 52 -55 66 -29 73 140 6 168 26 222 65 183 19
-19 15 36 -9 122 -17 61 -19 90 -14 153 l7 78 -43 -6 c-129 -18 -179 -28 -196
-40 -26 -19 -10 -28 48 -26 50 1 50 1 35 -21 -23 -32 -20 -38 20 -38 33 0 37
-3 58 -52 13 -29 26 -68 29 -87 8 -38 -21 -161 -38 -161 -5 0 -28 12 -50 25
-57 36 -83 33 -87 -7 l-3 -33 -34 45 c-32 44 -33 47 -28 124 6 88 26 129 28
56 1 -38 2 -41 9 -20 15 46 10 84 -15 115 -13 16 -26 27 -29 24 -3 -2 -10 -36
-16 -74 -21 -141 -25 -147 -72 -97 -43 44 -50 77 -42 181 4 65 3 92 -4 87 -6
-3 -14 -32 -18 -64 -17 -142 -39 -86 -32 84 4 112 -3 132 -16 46 -4 -24 -13
-60 -21 -79 -13 -31 -17 -34 -31 -22 -13 11 -15 25 -10 71 8 71 24 118 39 118
33 0 86 23 91 38 6 18 -14 86 -30 102 -15 15 -84 16 -93 1 -5 -7 -17 -11 -27
-9 -18 3 -19 13 -17 127 1 68 1 122 -1 120 -2 -2 -11 -49 -20 -103 -9 -54 -23
-111 -31 -125 l-13 -26 -12 30 c-8 21 -10 72 -7 165 5 118 11 174 31 328 3 17
1 32 -3 32 -4 0 -20 -62 -34 -139 -39 -201 -65 -253 -106 -212 -32 32 -35 66
-13 149 11 43 23 102 27 132 9 65 20 90 41 90 12 0 14 -7 10 -27 -7 -35 -26
-163 -26 -182 0 -34 11 2 30 95 56 267 93 536 49 349 -33 -138 -41 -166 -53
-162 -25 8 -13 291 15 365 9 24 10 24 31 6 11 -11 27 -34 35 -52 27 -63 173
-323 202 -360 17 -20 41 -64 55 -97 27 -67 50 -79 52 -27 1 18 10 42 22 55 26
28 38 73 23 91 -8 9 -25 12 -55 9 -33 -4 -44 -2 -49 11 -6 16 2 20 37 16 18
-2 18 0 -2 27 -33 46 -137 160 -250 276 -75 78 -107 105 -113 95 -4 -7 -19
-69 -33 -136 -31 -145 -38 -162 -71 -162 -32 0 -32 6 5 210 17 91 33 208 35
260 l5 95 -15 -64 c-16 -72 -22 -82 -35 -61 -12 19 -12 79 -1 150 13 82 24
236 16 228 -3 -3 -17 -61 -30 -127 -27 -138 -31 -147 -51 -130 -21 18 -18 44
37 276 47 200 54 262 28 236 -6 -6 -13 -32 -17 -58 -9 -64 -27 -68 -52 -12
-11 25 -26 47 -33 50 -9 3 -8 23 6 89 9 47 17 104 17 127 0 34 4 43 28 55 50
26 64 51 69 123 9 115 -33 177 -82 123 -21 -23 -75 -24 -83 -2 -2 7 16 33 41
57 39 40 49 45 89 45 106 0 146 108 79 212 -34 54 -45 78 -38 85 4 3 30 1 58
-5 135 -31 241 -1 298 84 52 79 56 135 5 81 -31 -34 -64 -34 -104 0 -26 22
-35 24 -49 15 -49 -36 -60 -37 -117 -9 -65 32 -74 33 -124 7 -49 -25 -50 -25
-50 5 0 57 -57 39 -89 -28 -24 -49 -208 -248 -269 -290 -48 -34 -52 -47 -42
-129 4 -35 6 -64 5 -66 -1 -1 -21 27 -43 62 -43 66 -76 91 -199 156 -64 33
-101 65 -90 77 4 3 85 12 181 19 189 14 240 27 249 66 4 14 20 31 42 41 37 18
47 37 18 37 -10 0 -40 -7 -68 -15 -104 -32 -343 -77 -410 -78 -75 -1 -96 7
-171 66 -23 18 -49 37 -60 43 -18 10 -18 12 -1 38 35 52 150 100 271 113 56 6
63 9 112 61 39 41 59 55 80 55 61 1 349 -35 361 -45 21 -17 15 -61 -22 -158
-28 -72 -33 -95 -24 -106 24 -29 51 20 84 154 13 52 28 99 33 104 5 5 5 29 -1
58 -8 40 -4 82 22 234 45 263 44 261 160 360 53 45 123 103 156 128 76 57 94
78 71 78 -27 0 -90 -36 -157 -91 -35 -28 -92 -74 -127 -101 -69 -55 -87 -82
-103 -158 -6 -27 -15 -50 -20 -50 -5 0 -9 41 -9 90 0 73 -3 90 -15 90 -8 0
-15 -6 -16 -12 -2 -44 -21 53 -30 155 -23 251 -44 120 -34 -213 5 -159 4 -222
-3 -215 -14 13 -42 173 -42 242 0 55 -21 123 -38 123 -22 0 -23 35 -1 50 16
13 24 36 34 96 11 66 24 109 53 167 2 5 -6 7 -18 5 -40 -6 -62 -49 -68 -132
-4 -70 -14 -94 -25 -63 -10 28 -31 -15 -37 -80 l-6 -68 -8 65 c-4 36 -6 90 -4
120 l3 55 -30 0 c-27 0 -30 -3 -28 -30 11 -155 15 -239 10 -234 -4 3 -13 41
-22 85 -21 111 -46 204 -56 204 -5 0 -9 -9 -9 -20 0 -28 -19 -25 -30 5 -16 42
-22 28 -16 -40 3 -36 9 -95 12 -131 4 -47 3 -64 -5 -60 -7 4 -11 -1 -11 -13 0
-27 72 -260 109 -351 29 -71 29 -73 7 -46 -50 60 -189 341 -203 407 -3 17 0
35 7 44 22 26 -6 185 -32 185 -11 0 -8 -37 8 -110 l7 -35 -26 18 c-23 15 -28
16 -33 3 -3 -8 -12 -12 -21 -9 -44 17 51 -252 147 -417 l33 -55 -28 25 c-15
14 -69 80 -120 148 l-93 122 -12 -35 c-7 -20 -9 -48 -5 -62 3 -14 93 -114 212
-234 113 -115 203 -209 198 -209 -4 0 -57 48 -119 107 -153 147 -235 213 -264
213 -18 0 -23 -4 -18 -16 3 -9 6 -17 6 -19 0 -3 27 -23 60 -45 96 -65 243
-210 228 -225 -2 -2 -26 2 -53 11 -56 16 -75 13 -75 -15 0 -42 -37 -36 -175
29 -75 35 -105 44 -180 51 -112 10 -229 41 -268 70 -38 28 -53 19 -87 -47 -19
-37 -30 -48 -45 -46 -115 15 -123 15 -158 -7 -39 -24 -66 -27 -90 -8 -16 11
-15 15 8 48 19 26 30 62 41 130 19 120 43 158 140 213 40 23 83 49 96 59 34
24 66 12 214 -84 66 -44 126 -79 132 -79 29 0 3 24 -122 114 -104 74 -136 102
-140 123 -11 51 -34 237 -41 328 -4 50 -13 101 -20 115 -7 14 -40 54 -72 90
l-60 64 68 48 c37 26 71 52 74 59 17 26 -15 26 -77 -1 -174 -73 -338 -188
-338 -237 0 -60 32 -71 51 -18 7 19 16 35 19 35 4 0 17 -11 29 -24 13 -13 38
-27 57 -31 25 -4 43 -17 64 -47 17 -23 30 -49 30 -59 0 -9 11 -31 25 -48 48
-57 111 -221 103 -272 -2 -17 -26 -39 -86 -79 -46 -31 -101 -74 -122 -97 -41
-44 -70 -119 -70 -184 0 -22 -7 -42 -17 -50 -9 -8 -36 -41 -61 -74 -39 -53
-43 -64 -38 -98 9 -57 43 -116 72 -127 14 -6 52 -10 85 -10 33 0 70 -5 82 -12
12 -6 61 -51 109 -99 51 -52 98 -91 115 -95 15 -4 40 -17 55 -30 29 -24 42
-27 153 -44 89 -14 141 -37 212 -96 32 -26 74 -53 93 -61 153 -61 210 -104
254 -191 18 -35 14 -52 -12 -52 -10 0 -12 -3 -7 -9 12 -12 201 -51 247 -51 18
0 49 -5 70 -10 48 -14 58 -44 58 -184 l-1 -111 -27 33 c-15 18 -30 32 -34 32
-14 0 -8 -37 7 -50 17 -14 21 -70 5 -70 -18 0 -198 60 -254 85 -94 41 -169 45
-121 5 8 -7 77 -45 152 -84 120 -63 140 -77 156 -109 9 -20 23 -37 31 -37 8 0
23 -8 35 -17 46 -37 48 -220 5 -305 -13 -24 -21 -28 -59 -28 -66 0 -60 -38 8
-54 36 -9 26 -24 -21 -31 -148 -23 -315 -70 -309 -88 2 -8 23 -11 58 -10 204
9 225 8 252 -10 15 -9 27 -26 27 -37 0 -24 13 -26 30 -4 20 23 47 35 64 28 23
-9 36 -68 36 -164 0 -89 -8 -110 -42 -110 -24 0 -23 -27 2 -68 11 -18 20 -34
20 -36 0 -2 -84 -6 -187 -8 -193 -6 -223 -10 -223 -34 0 -11 17 -14 69 -14 58
0 72 -3 84 -20 11 -16 25 -19 93 -19 104 0 134 -11 134 -51 0 -27 3 -30 31
-30 28 0 31 -3 27 -25 -8 -39 10 -41 46 -6 18 17 35 28 39 25 11 -11 8 -215
-3 -256 -14 -50 -34 -68 -76 -68 -29 0 -33 -3 -31 -22 2 -22 -1 -23 -118 -28
-97 -4 -120 -8 -120 -20 0 -11 22 -17 85 -26 117 -16 198 -33 206 -45 3 -5 0
-17 -7 -25 -21 -26 3 -38 45 -23 33 12 37 11 61 -11 13 -13 28 -33 31 -44 4
-12 15 -29 25 -39 28 -26 24 -40 -8 -33 -16 4 -45 9 -67 13 -57 9 -43 -16 28
-50 l58 -28 -6 -51 c-6 -43 -5 -50 8 -45 11 5 16 0 16 -13 0 -10 -25 -39 -56
-66 -50 -43 -54 -49 -39 -60 15 -11 12 -14 -21 -19 -112 -19 -256 -85 -186
-85 9 0 79 10 154 22 76 12 141 19 144 15 4 -4 -2 -27 -14 -51 -37 -73 -28
-83 28 -36 58 50 93 38 105 -35 11 -69 14 -73 34 -46 l18 24 7 -49 c10 -71 15
-84 34 -84 12 0 10 -6 -10 -27 -19 -20 -26 -38 -25 -63 1 -26 -13 -61 -50
-125 -60 -106 -71 -135 -50 -135 8 0 27 20 41 45 15 24 57 75 93 112 l67 68 4
-32 c2 -18 7 -33 11 -33 10 0 31 46 31 70 0 10 4 21 9 25 15 9 83 -79 121
-157 l35 -72 -40 -41 c-22 -23 -62 -68 -89 -100 -44 -51 -154 -135 -177 -135
-5 0 -22 27 -39 60 -31 62 -58 81 -46 34 4 -15 10 -40 13 -57 l6 -30 -59 33
c-32 19 -87 51 -121 71 -80 49 -144 81 -149 76 -12 -12 18 -44 119 -125 140
-111 146 -118 122 -136 -19 -14 -13 -36 11 -36 19 0 18 -13 -6 -43 -35 -44
-22 -62 24 -31 32 20 39 5 21 -46 -21 -59 -86 -180 -97 -180 -5 0 -24 11 -42
25 -30 23 -66 33 -66 20 0 -3 7 -17 16 -30 15 -23 15 -24 -8 -29 -12 -3 -81
-7 -153 -8 -135 -3 -164 -10 -145 -33 11 -13 49 -25 174 -51 65 -14 86 -23
113 -50 18 -18 33 -43 33 -56 0 -21 1 -21 30 7 l29 28 11 -27 c5 -15 10 -38
10 -52 0 -40 -31 -176 -47 -207 l-15 -29 -22 21 c-25 24 -36 19 -36 -16 0 -13
-5 -23 -11 -23 -6 0 -61 27 -123 60 -62 33 -116 60 -120 60 -5 0 38 -38 95
-84 57 -46 112 -93 123 -104 18 -20 18 -22 -4 -53 l-23 -31 34 7 c19 3 41 9
51 11 14 4 18 -6 23 -62 8 -73 -1 -222 -16 -261 -9 -24 -12 -25 -62 -19 l-52
7 39 -34 c24 -20 35 -36 29 -40 -27 -17 -194 -77 -214 -77 -19 0 -20 -2 -8
-16 12 -14 29 -15 127 -9 112 6 113 6 103 -14 -15 -28 4 -37 35 -16 48 31 67
-10 82 -180 10 -108 3 -145 -26 -145 -25 0 -65 -39 -58 -56 3 -8 -1 -14 -9
-14 -23 0 -51 54 -91 175 -45 134 -82 215 -99 215 -16 0 -25 -22 -20 -47 30
-141 75 -281 106 -325 24 -33 24 -37 -3 -65 -12 -13 -20 -25 -17 -27 2 -2 45
7 94 20 99 26 132 30 103 13 -25 -14 -23 -28 22 -142 66 -169 156 -305 217
-328 28 -11 29 -23 3 -49 -21 -21 -50 -27 -50 -11 0 19 -140 219 -175 250 -47
41 -65 40 -31 -1 88 -109 166 -241 166 -282 0 -31 -46 -87 -65 -79 -8 3 -44
54 -80 113 -122 202 -243 457 -312 655 -19 55 -46 123 -60 150 -31 62 -87 201
-97 239 -5 19 -3 27 6 25 28 -3 36 2 47 32 16 47 13 94 -7 119 -24 29 -39 20
-52 -30 -11 -41 -16 -45 -36 -32 -20 13 -33 47 -44 118 -18 112 -31 164 -42
164 -25 0 51 -428 98 -555 7 -20 7 -20 -14 -2 -27 25 -166 409 -198 552 -11
50 -44 77 -44 35 0 -26 86 -309 171 -563 83 -251 134 -376 278 -692 60 -132
107 -242 104 -245 -7 -8 -48 46 -110 145 -88 141 -137 238 -198 395 -82 208
-271 781 -290 875 -16 84 -37 114 -62 94 -7 -6 -13 -18 -13 -26 0 -9 -6 -13
-15 -9 -10 4 -15 -1 -15 -15 0 -26 48 -217 61 -241 14 -26 29 -22 29 7 0 27
17 34 26 10 3 -8 -6 -29 -20 -46 -47 -56 -76 -159 -44 -159 7 0 25 -12 40 -27
29 -28 29 -28 60 -10 17 10 35 14 39 10 11 -12 49 -130 49 -154 0 -21 -15 -37
-52 -59 -15 -9 -23 1 -59 72 -23 46 -44 78 -46 72 -7 -21 130 -342 276 -648
39 -82 69 -151 67 -154 -3 -2 -13 12 -22 32 -10 20 -23 36 -30 36 -13 0 -102
89 -118 118 -5 9 -13 37 -18 61 -4 25 -49 134 -98 243 -145 318 -165 377 -156
448 5 39 3 50 -15 66 -30 27 -46 61 -95 203 -50 142 -64 165 -64 104 0 -22
-11 -70 -24 -105 -24 -62 -24 -68 -11 -124 14 -59 80 -255 96 -285 26 -49 47
-119 38 -124 -24 -15 -137 144 -158 223 -7 23 -16 42 -21 42 -31 0 -16 -64 34
-145 17 -27 38 -79 47 -115 17 -70 22 -75 143 -153 36 -23 59 -49 83 -92 38
-68 66 -154 61 -187 -3 -21 -7 -19 -52 27 -164 166 -387 433 -439 525 -30 51
-32 53 -35 28 -2 -15 3 -40 12 -55 22 -43 130 -175 326 -398 272 -310 400
-467 400 -492 0 -6 15 -30 33 -54 66 -86 307 -505 307 -533 0 -39 -94 85 -238
315 -168 268 -409 606 -475 668 -22 20 -27 21 -32 9 -12 -31 68 -165 299 -498
59 -85 143 -214 187 -286 48 -80 92 -142 114 -158 29 -23 94 -123 83 -130 -2
-1 -20 -7 -41 -12 -47 -11 -49 -27 -5 -35 72 -12 73 -31 8 -164 -40 -84 -103
-150 -177 -189 l-32 -16 -17 35 c-15 33 -53 70 -62 61 -2 -2 4 -25 12 -50 9
-26 16 -49 16 -51 0 -6 -126 31 -237 69 -102 36 -153 45 -153 26 0 -5 55 -37
121 -71 67 -33 144 -76 171 -95 28 -19 61 -34 74 -34 16 0 27 -8 33 -22 8 -23
22 -138 17 -138 -2 0 -55 27 -119 60 -113 58 -159 71 -172 50 -11 -17 14 -40
120 -108 55 -35 110 -73 123 -85 27 -25 28 -58 2 -82 -18 -17 -25 -17 -75 -5
-66 16 -80 7 -42 -25 15 -13 27 -26 27 -29 0 -3 -14 -6 -32 -8 -33 -3 -52 -28
-21 -28 10 0 24 -4 32 -9 18 -12 9 -25 -104 -171 -143 -182 -137 -195 24 -50
121 108 146 126 156 110 3 -5 16 -10 29 -10 26 0 56 -57 81 -155 25 -100 17
-135 -31 -135 -28 0 -40 -18 -25 -33 9 -9 -23 -45 -135 -153 -82 -77 -143
-143 -138 -147 5 -3 47 23 93 58 45 35 103 71 129 80 26 10 70 28 97 41 61 29
65 29 65 4 0 -27 12 -25 49 5 29 25 31 26 63 9 37 -18 113 -78 141 -109 33
-38 49 -77 43 -109 -3 -17 -9 -56 -15 -86 -5 -30 -23 -89 -40 -130 -44 -112
-41 -111 102 51 l48 54 15 -33 c18 -43 34 -32 34 24 0 47 9 54 35 28 10 -11
45 -18 109 -24 126 -11 176 -39 176 -100 0 -17 5 -20 27 -18 24 3 31 -5 82
-101 85 -159 96 -148 45 44 -25 94 -30 145 -15 145 5 0 23 -17 41 -37 l32 -36
-7 44 c-3 24 -9 52 -11 62 -5 16 7 17 153 17 l158 -1 34 -30 33 -31 -31 -159
c-18 -88 -29 -164 -25 -170 4 -7 14 -3 28 10 l22 21 117 -77 c65 -42 116 -77
115 -79 -2 -1 -36 4 -77 12 -130 25 -322 44 -442 44 -98 0 -120 -3 -139 -18
-30 -24 -21 -50 30 -91 45 -36 44 -51 -4 -51 -68 0 -146 -43 -146 -80 0 -18
36 -70 49 -70 4 0 15 16 24 35 10 22 26 37 43 41 45 11 222 -3 387 -32 126
-22 160 -25 170 -15 19 19 -23 47 -106 71 -213 62 -357 116 -357 133 0 12 229
3 330 -13 171 -27 484 -109 709 -185 135 -45 161 -47 161 -9 0 21 -31 37 -259
139 -324 144 -434 205 -373 205 53 0 427 -106 592 -167 52 -20 237 -96 410
-171 411 -176 470 -196 470 -157 0 21 -42 46 -402 232 -178 91 -336 175 -353
186 -27 17 -28 18 -5 11 40 -11 330 -144 518 -238 192 -95 247 -115 264 -98 7
7 -13 28 -73 72 -122 89 -475 323 -545 360 l-59 31 55 -5 c30 -3 111 -22 179
-41 146 -43 185 -43 189 -2 4 35 14 34 115 -5 45 -17 96 -33 114 -35 17 -2 50
-10 74 -18 23 -8 45 -13 48 -9 7 7 -22 32 -124 104 -43 30 -94 70 -114 88
l-36 34 64 -5 c44 -4 73 -12 94 -27 23 -18 31 -20 37 -9 5 7 4 21 -1 31 -12
23 -124 75 -180 84 -55 8 -91 30 -148 87 l-43 45 178 -3 c161 -3 273 -16 335
-40 10 -4 20 -2 23 4 9 14 -50 52 -202 131 -69 36 -128 71 -130 78 -5 17 57
16 133 -3 77 -18 75 -18 75 4 0 11 -22 38 -50 62 -28 23 -48 44 -46 46 2 2 20
-3 40 -11 53 -22 49 6 -6 41 -56 35 -98 74 -98 89 0 7 -18 35 -41 64 -47 59
-33 55 63 -18 90 -69 128 -87 128 -61 0 6 -66 76 -146 155 -81 80 -144 147
-141 151 4 3 37 -15 74 -41 37 -25 74 -46 81 -46 37 0 -6 71 -135 221 -40 47
-73 89 -73 92 0 4 21 -9 46 -28 50 -38 66 -42 83 -21 19 22 -9 66 -103 165
-147 155 -334 377 -324 386 3 3 73 -60 156 -140 83 -80 156 -145 162 -145 16
0 12 31 -7 52 -15 17 -15 18 8 18 14 0 31 6 38 13 10 10 20 3 52 -32 22 -24
60 -75 84 -112 46 -68 296 -561 321 -633 23 -63 17 -107 -36 -262 -28 -81 -48
-150 -45 -153 11 -11 40 17 62 60 27 53 28 44 6 -93 -9 -59 -13 -111 -9 -115
15 -15 62 24 90 77 l29 54 11 -38 c29 -104 106 -41 106 86 0 62 11 54 29 -22
18 -75 28 -90 56 -90 22 0 30 -6 63 -45 8 -9 21 -15 30 -13 24 5 26 117 7 439
-8 146 -15 281 -14 300 l1 34 8 -30 c5 -16 15 -145 24 -285 20 -309 34 -465
47 -505 5 -16 24 -42 43 -57 26 -21 36 -37 38 -65 5 -58 25 -52 43 14 25 90
35 114 76 178 20 33 63 132 94 220 90 255 83 241 123 259 21 8 74 24 120 36
145 35 186 65 120 89 -18 7 -55 22 -83 33 -99 40 -199 69 -259 74 -33 3 -77
12 -96 20 -19 7 -88 25 -153 38 -66 14 -125 30 -133 37 -8 6 -14 26 -14 43 0
35 -15 56 -41 56 -9 0 -33 12 -54 26 -25 16 -41 22 -48 15 -14 -14 -26 -86
-27 -155 0 -83 -21 -60 -27 31 -4 60 -2 74 24 123 15 30 71 108 123 173 85
104 98 117 126 117 17 0 43 9 57 20 43 34 185 97 297 132 94 30 110 38 156 85
93 93 120 100 444 114 233 9 270 9 430 -10 207 -24 362 -61 656 -159 332 -111
542 -201 592 -255 l21 -22 -148 -177 c-82 -98 -168 -208 -192 -245 -24 -38
-53 -80 -65 -95 -12 -15 -25 -48 -29 -75 -7 -50 -51 -212 -60 -221 -3 -3 -5 1
-5 9 0 8 -4 50 -9 94 -5 44 -14 188 -20 320 -18 384 -22 434 -33 405 -7 -16
-8 -150 -5 -362 4 -186 3 -338 -1 -338 -13 0 -38 52 -87 180 -90 239 -194 443
-266 523 -61 68 -75 54 -16 -15 24 -29 58 -75 75 -103 45 -75 144 -312 238
-570 19 -53 -22 15 -110 182 -52 101 -121 222 -153 270 -59 90 -158 202 -169
191 -3 -4 21 -40 54 -82 124 -155 295 -473 309 -571 9 -71 -10 -57 -92 66
-125 188 -219 295 -294 334 -58 29 -56 10 2 -34 59 -43 154 -151 219 -249 21
-31 35 -58 33 -61 -3 -2 -92 81 -198 185 -186 184 -273 262 -329 297 -29 18
-78 23 -78 7 0 -10 13 -19 105 -80 149 -96 525 -477 525 -530 0 -34 -60 -34
-399 -1 -424 40 -541 47 -541 32 0 -14 -17 -12 145 -20 77 -4 146 -10 153 -15
14 -9 22 2 -154 -208 -136 -161 -312 -386 -332 -422 -16 -31 -6 -56 23 -56 33
0 52 20 158 161 142 191 366 457 391 463 25 7 282 -31 309 -46 29 -15 18 -50
-97 -288 -102 -211 -172 -381 -178 -430 -5 -38 34 -39 60 -3 29 42 75 136 117
243 68 172 158 331 224 394 36 35 39 61 10 92 l-21 22 43 6 c24 3 67 8 96 11
l52 6 25 -43 c49 -86 96 -215 96 -266 0 -58 -32 -171 -58 -201 -9 -11 -53 -34
-97 -51 -131 -51 -413 -210 -484 -272 -46 -40 -82 -36 -235 31 -66 29 -141 56
-168 61 -122 23 -515 -50 -609 -113 -19 -12 -49 -45 -66 -72 l-32 -49 27 -18
c88 -58 522 -158 687 -158 53 0 90 -7 139 -25 37 -14 73 -25 80 -25 8 0 37 16
66 36 l51 35 53 -22 c40 -16 58 -19 72 -11 15 8 28 4 65 -24 46 -34 80 -43
110 -30 10 4 30 -5 54 -24 25 -20 48 -30 64 -28 43 5 33 60 -46 263 -80 204
-92 245 -70 226 25 -20 125 -233 136 -290 6 -30 29 -92 51 -137 29 -64 43 -84
59 -84 44 0 36 55 -38 258 -24 68 -36 112 -29 110 20 -7 63 -101 114 -248 84
-243 88 -248 140 -214 23 16 25 15 49 -10 26 -28 56 -34 74 -13 12 16 7 36
-58 214 -22 62 -37 113 -32 113 9 0 58 -104 94 -200 53 -142 96 -204 118 -169
10 17 6 34 -38 168 -23 69 -31 107 -25 113 17 17 58 -37 92 -120 58 -141 89
-202 103 -202 8 0 40 -23 73 -52 67 -58 155 -103 236 -120 101 -21 117 10 20
38 -110 32 -232 97 -232 124 0 5 22 21 48 34 27 14 73 46 103 71 30 25 80 60
113 78 33 17 88 61 124 99 l66 68 204 0 c293 0 412 -31 557 -144 118 -91 119
-92 106 -69 -15 30 -103 106 -174 152 -34 22 -80 52 -101 67 l-39 26 7 121 c3
66 6 212 6 324 0 169 2 203 14 203 8 0 22 -7 31 -16 14 -14 16 -48 13 -279 -3
-277 -1 -295 43 -295 26 0 28 15 32 260 4 201 9 250 26 250 4 0 22 -13 41 -29
l35 -29 5 -198 c4 -175 7 -199 22 -202 21 -4 34 58 47 232 6 70 12 130 14 132
2 3 22 -1 43 -8 l39 -13 -3 -150 c-3 -151 3 -183 31 -172 24 9 37 71 44 208 7
158 -3 199 -51 199 -34 0 -51 10 -134 77 -29 24 -57 43 -63 43 -19 0 -130 82
-197 144 -37 35 -80 70 -97 79 -42 22 -208 156 -284 230 -80 78 -107 134 -120
252 -6 50 -15 292 -21 538 l-11 448 55 60 c55 60 77 111 38 90 -19 -10 -113
-106 -171 -173 -17 -20 -54 -54 -82 -75 -30 -23 -57 -54 -68 -78 -21 -48 -68
-105 -86 -105 -40 0 -19 276 35 465 23 82 22 75 10 75 -13 0 -41 -59 -76 -159
-29 -85 -34 -87 -48 -18 -4 15 -12 27 -18 27 -8 0 -9 -53 -5 -199 l7 -199 -81
76 c-45 42 -90 83 -100 90 -17 12 -19 11 -19 -6 0 -11 7 -25 15 -32 8 -7 15
-16 15 -21 0 -5 -36 19 -80 54 -74 59 -166 114 -175 105 -8 -8 14 -28 130
-116 66 -49 136 -107 155 -127 43 -46 50 -48 -195 48 -447 174 -772 257 -1110
286 l-111 9 -74 77 c-131 135 -174 151 -69 26 34 -40 59 -74 58 -76 -4 -4
-163 -45 -174 -45 -3 0 -3 9 0 20 4 12 -4 41 -19 74 -14 30 -26 72 -26 93 1
36 2 34 34 -42 32 -75 57 -100 64 -64 2 9 -15 63 -37 120 -21 58 -42 121 -46
141 l-7 36 39 -13 c21 -8 49 -14 61 -15 13 0 36 -7 52 -17 26 -15 31 -15 68 0
36 15 41 15 53 1 8 -9 16 -55 19 -104 3 -49 8 -91 12 -95 4 -4 26 19 50 50 85
113 81 110 140 112 29 1 93 5 142 8 144 11 196 -13 196 -91 0 -47 12 -56 32
-24 7 11 18 20 25 20 11 0 40 -81 72 -205 25 -94 33 -72 28 82 -3 84 -2 153 1
153 4 0 26 -19 49 -42 50 -49 53 -41 28 57 -9 32 -14 64 -11 71 5 14 99 31
221 39 50 3 101 8 114 11 23 5 23 3 17 -35 -5 -31 -3 -41 7 -41 10 0 13 -8 10
-24 -6 -30 13 -43 35 -24 35 30 42 30 53 -1 13 -37 26 -40 38 -9 8 22 9 22 25
-9 9 -18 25 -73 37 -122 11 -49 27 -97 34 -107 13 -17 14 -15 15 28 0 25 -7
82 -15 125 -19 100 -20 213 -2 213 7 0 27 -16 44 -35 53 -60 74 -37 28 31 -14
20 -25 43 -25 50 0 33 172 125 272 146 79 16 92 5 83 -74 -8 -66 3 -75 28 -23
9 19 23 35 31 35 8 0 80 -63 161 -141 81 -77 149 -138 152 -135 3 3 -28 50
-68 105 -61 83 -129 211 -129 244 0 4 9 7 20 7 30 0 24 27 -10 45 -16 9 -30
20 -30 26 0 19 60 123 90 156 65 72 144 113 190 98 17 -5 20 -15 20 -61 0 -61
11 -68 37 -24 9 16 20 30 23 30 3 0 41 -36 85 -79 107 -109 124 -97 39 27 -41
59 -42 62 -19 56 38 -9 31 12 -20 67 -50 54 -57 87 -28 142 16 31 140 167 153
167 10 0 99 -153 109 -187 13 -45 4 -70 -36 -94 -38 -24 -39 -44 -2 -44 28 0
28 -11 -2 -147 -20 -94 -24 -142 -11 -134 5 3 30 41 56 86 41 71 49 80 70 74
20 -5 25 0 34 26 11 30 13 31 33 16 28 -19 85 -100 93 -131 4 -16 -2 -44 -15
-75 -12 -28 -19 -54 -15 -57 3 -4 20 3 36 15 37 28 37 29 85 -153 37 -138 62
-206 66 -175 1 8 3 69 3 134 1 78 5 120 12 123 6 2 14 -5 17 -17 3 -11 11 -20
17 -20 9 0 11 16 8 55 l-5 54 61 -5 c174 -15 242 -39 271 -93 12 -25 12 -31
-2 -50 -16 -24 -11 -36 15 -36 21 0 30 -34 31 -117 1 -69 16 -91 27 -40 26
117 41 162 55 162 4 0 9 -10 11 -22 6 -43 23 -23 28 32 4 45 9 55 25 58 11 2
48 17 83 34 48 24 76 31 125 32 l62 1 0 -30 c0 -25 4 -30 22 -27 12 2 24 -2
28 -8 3 -5 15 -10 25 -10 25 0 47 -44 95 -190 20 -63 43 -121 50 -129 28 -28
27 35 0 179 -23 118 -25 145 -15 165 10 19 10 31 -3 68 -22 65 -12 94 56 160
l60 58 38 -37 c21 -21 41 -36 43 -33 3 3 0 21 -6 41 -9 31 -8 41 8 65 l18 28
10 -43 c9 -44 29 -52 34 -14 2 12 9 22 16 22 6 0 58 -27 113 -61 115 -68 159
-77 102 -19 -19 19 -67 64 -107 99 l-73 63 20 22 c29 30 26 43 -9 51 -17 4
-35 15 -40 25 -17 32 -11 179 10 269 25 105 32 118 49 97 23 -27 44 -20 37 12
-4 15 -8 34 -9 42 -1 10 25 24 83 45 64 23 88 36 99 57 24 42 7 49 -81 31 -42
-9 -83 -13 -92 -10 -8 3 -17 20 -21 37 -5 24 -12 31 -28 29 -61 -7 -87 30
-132 188 -25 86 -25 93 -10 120 8 15 26 47 40 71 13 23 37 59 53 80 76 97 58
109 -37 26 l-64 -56 -22 28 c-24 31 -38 22 -35 -24 3 -44 1 -52 -15 -52 -45 0
-175 103 -223 176 -40 60 -41 96 -3 135 46 46 120 39 148 -13 14 -28 136 -128
155 -128 20 0 73 68 114 149 25 49 30 70 34 167 l5 111 45 57 c88 113 82 96
76 246 -5 114 -8 137 -23 145 -66 38 -104 126 -122 285 -14 122 -37 176 -88
214 -24 17 -57 50 -74 74 -21 31 -48 52 -90 72 -102 48 -133 48 -508 -1 -65
-9 -103 -21 -171 -55 -47 -24 -94 -52 -105 -64 -18 -19 -18 -20 2 -20 11 0 41
7 67 16 108 37 247 -1 346 -96 39 -37 49 -55 59 -102 7 -31 19 -62 27 -68 20
-17 18 -54 -10 -146 -20 -68 -22 -82 -10 -99 24 -35 11 -217 -25 -352 -21 -78
-33 -62 -26 36 l8 91 -28 10 c-39 15 -50 1 -34 -43 10 -29 10 -44 0 -78 -18
-60 -31 -33 -31 66 0 93 7 125 26 125 21 0 34 34 34 90 0 56 -13 90 -34 90
-16 0 -26 -31 -26 -81 0 -20 -11 -61 -24 -90 l-25 -54 0 98 c-1 54 -5 96 -9
93 -5 -3 -12 -69 -16 -147 -10 -211 -26 -223 -50 -39 -8 61 -17 115 -20 118
-3 3 -6 -28 -6 -68 0 -55 -3 -71 -11 -63 -11 11 -9 151 2 193 2 9 -4 16 -17
18 -15 2 -23 -3 -27 -20 -9 -31 10 -287 29 -416 9 -57 14 -106 11 -108 -4 -5
-124 155 -152 203 -19 32 -19 33 2 55 25 27 39 73 25 82 -6 3 -30 -10 -53 -30
-41 -34 -47 -36 -94 -30 -62 7 -75 22 -111 129 -31 93 -37 212 -13 263 17 35
174 122 195 108 7 -5 54 -44 104 -87 51 -43 95 -76 98 -73 3 3 -41 53 -96 110
-56 58 -102 112 -102 120 0 25 -17 19 -63 -22 -23 -21 -50 -41 -59 -45 -27
-10 -55 23 -73 88 -9 33 -23 70 -31 83 -21 32 -10 42 50 42 29 0 61 6 72 14
18 14 18 15 -9 21 -34 9 -155 -3 -163 -16 -3 -5 -14 -7 -25 -4 -16 5 -19 1
-19 -25 0 -17 11 -58 25 -92 14 -34 25 -70 25 -80 0 -46 -45 -150 -86 -198
-24 -29 -44 -55 -44 -60 0 -4 7 -25 16 -46 22 -53 32 -243 14 -254 -7 -5 -15
-32 -18 -62 -3 -42 1 -67 21 -113 30 -74 42 -125 28 -125 -5 0 -13 -9 -16 -20
-3 -11 -12 -20 -19 -20 -7 0 -53 33 -102 74 -49 41 -91 73 -93 70 -2 -2 16
-30 41 -61 131 -169 136 -178 96 -206 -29 -19 -21 -27 31 -34 23 -3 41 -11 41
-17 0 -6 -24 -35 -53 -64 l-52 -52 -69 91 c-38 49 -70 88 -72 86 -3 -2 14 -43
36 -92 22 -48 40 -93 40 -101 0 -16 -70 -37 -108 -32 -21 2 -33 15 -55 56 -33
61 -52 68 -44 17 3 -19 3 -35 -1 -35 -4 0 -54 27 -112 59 -57 33 -107 57 -110
54 -3 -3 37 -44 89 -92 l94 -87 -27 -21 c-39 -31 -33 -43 24 -43 46 0 50 -2
50 -23 0 -34 -20 -55 -69 -72 -63 -22 -86 -19 -124 18 -32 30 -35 38 -41 112
-9 101 -21 124 -30 57 -9 -71 -27 -82 -61 -38 -29 38 -69 145 -80 214 -7 41
-5 44 39 88 25 25 46 49 46 54 0 6 -16 10 -35 10 -19 0 -35 3 -35 8 0 4 16 67
34 140 19 72 30 132 26 132 -15 0 -39 -48 -71 -140 -18 -50 -38 -94 -46 -97
-8 -3 -26 0 -40 6 -35 16 -39 8 -25 -46 7 -25 11 -47 10 -48 -2 -2 -33 3 -70
10 -48 9 -88 25 -135 55 -38 24 -85 54 -105 67 -42 26 -46 37 -20 52 15 9 15
12 2 21 -8 5 -23 10 -32 10 -10 0 -18 4 -18 8 0 5 43 60 96 123 52 63 100 122
105 132 21 37 -20 16 -95 -51 -43 -37 -98 -84 -123 -105 l-46 -38 -27 26 c-14
14 -29 25 -33 25 -4 0 -7 -24 -7 -54 0 -68 -23 -98 -87 -117 -74 -21 -162 -16
-226 14 -83 38 -97 56 -97 127 0 63 -13 78 -30 35 -5 -14 -13 -25 -18 -25 -11
0 -67 122 -80 175 -27 105 -33 123 -47 135 -20 17 -20 -1 5 -120 11 -52 20
-114 20 -138 0 -36 -4 -44 -25 -54 -28 -13 -32 -26 -10 -33 52 -17 52 -15 20
-42 -33 -27 -181 -103 -202 -103 -8 0 -22 13 -31 30 -23 41 -44 39 -40 -2 l3
-33 -74 2 c-91 3 -117 17 -126 73 -7 40 -7 41 -22 20 -22 -31 -56 -23 -64 16
-3 17 -23 63 -44 102 -89 165 -121 159 -40 -7 30 -62 55 -116 55 -121 0 -4
-18 -11 -40 -15 -43 -7 -61 -22 -36 -30 52 -16 52 -17 28 -26 -29 -11 -24 -31
8 -39 13 -3 25 -11 27 -17 7 -19 -81 -107 -134 -135 -57 -31 -194 -71 -215
-63 -8 3 -23 23 -33 43 l-18 37 -10 -32 c-5 -18 -14 -33 -19 -33 -4 0 -57 30
-116 67 -120 74 -201 115 -214 107 -5 -3 24 -29 64 -57 40 -29 102 -80 138
-114 l65 -61 -29 -31 -30 -31 32 0 c19 0 35 -6 38 -14 6 -14 -30 -218 -47
-274 -14 -44 -52 -87 -105 -118 l-44 -26 -57 51 c-80 72 -99 70 -39 -4 l35
-42 -190 -5 c-175 -5 -211 -9 -197 -23 2 -3 76 -13 164 -23 154 -17 159 -18
156 -40 -3 -19 1 -22 33 -22 l37 0 -7 -102 c-4 -60 -15 -124 -26 -153 -11 -27
-19 -63 -19 -78 0 -29 -42 -121 -60 -132 -20 -12 -21 2 -5 69 22 96 21 105
-10 76 -14 -13 -25 -22 -25 -19 0 2 11 46 25 97 28 105 32 162 12 162 -44 0
-87 -117 -121 -330 -9 -52 -25 -227 -36 -389 -20 -283 -22 -295 -48 -340 l-27
-46 -7 40 c-6 38 7 334 17 379 14 59 22 192 14 214 l-10 25 -24 -23 c-14 -13
-27 -21 -30 -18 -8 7 13 250 32 376 13 87 14 115 5 124 -18 18 -61 -29 -72
-78 -12 -54 -28 -281 -35 -509 -5 -150 -3 -213 10 -300 9 -60 19 -165 22 -233
5 -109 4 -124 -12 -142 -26 -28 -41 -25 -55 13 -42 117 -64 445 -57 841 5 340
18 429 91 620 37 98 32 146 -15 146 -28 0 -80 -51 -100 -98 -52 -120 -69 -274
-76 -697 -4 -246 -9 -332 -16 -315 -7 16 -11 205 -11 520 -1 490 -1 496 22
568 13 40 22 85 20 100 l-3 26 -36 -32 c-52 -46 -65 -87 -94 -301 -9 -63 -18
-117 -22 -120 -12 -12 7 288 27 408 11 68 18 126 16 128 -8 8 -34 -50 -53
-117 -15 -54 -18 -102 -17 -280 0 -195 5 -250 47 -585 42 -332 89 -650 103
-697 9 -31 -11 -19 -23 13 -15 40 -35 33 -49 -17 -10 -36 -12 -37 -22 -18 -6
12 -20 43 -31 71 -65 166 -111 227 -111 147 0 -42 11 -82 96 -353 36 -112 62
-206 60 -209 -7 -6 -18 20 -100 240 -36 98 -71 199 -77 225 -48 200 -124 422
-199 578 -26 55 -78 195 -115 310 -104 330 -127 397 -132 391 -3 -2 6 -54 18
-115 13 -61 20 -113 17 -116 -11 -12 -338 167 -338 185 0 3 18 27 40 54 50 60
54 85 10 59 -27 -15 -32 -16 -40 -3 -7 12 -12 12 -22 2 -25 -25 -30 -11 -24
56 17 159 80 315 134 328 15 4 40 17 55 28 15 12 94 57 174 101 81 44 148 86
151 93 7 21 -42 14 -109 -17 -61 -27 -271 -101 -289 -101 -4 0 -6 18 -3 41 5
34 2 44 -21 68 -24 25 -28 39 -32 107 -3 44 -10 89 -16 100 -13 27 -7 59 11
59 8 0 26 -20 41 -45 l26 -45 79 -9 c57 -6 93 -5 128 4 l50 13 38 -42 c44 -47
56 -50 69 -17 13 35 50 39 126 14 61 -20 67 -20 76 -5 19 36 66 9 113 -65 26
-42 39 -35 32 17 -8 54 -5 56 93 71 41 7 83 15 93 19 14 6 35 -10 93 -69 100
-103 112 -94 49 36 -10 21 -15 41 -11 45 17 17 132 15 189 -5 32 -10 60 -15
63 -11 7 13 -43 106 -61 113 -9 3 -34 6 -56 6 -22 0 -68 12 -102 26 -60 26
-65 26 -150 15 -48 -6 -111 -19 -140 -29 -42 -14 -53 -22 -61 -47 -16 -56 -21
-60 -67 -57 -28 1 -78 19 -134 47 -97 49 -140 55 -181 29 -22 -15 -30 -15 -64
-4 -33 11 -47 11 -80 0 -37 -12 -47 -11 -103 8 -34 11 -76 24 -93 27 -17 3
-42 18 -56 33 -48 52 -108 145 -108 168 0 26 59 79 97 89 61 15 122 54 205
132 49 46 96 83 104 83 21 0 17 -37 -6 -57 -27 -23 -25 -41 5 -49 41 -10 55 1
55 44 0 60 32 108 136 205 141 133 134 129 239 142 70 9 113 22 183 54 57 27
99 40 111 36 36 -11 38 -106 3 -167 -20 -35 -3 -58 42 -58 47 0 56 15 57 95 2
104 9 129 39 133 14 2 61 15 105 29 106 33 259 38 280 9 23 -31 30 -120 12
-156 -21 -40 -13 -58 29 -66 45 -8 81 2 95 27 9 18 7 25 -14 48 -33 35 -67 92
-67 113 0 23 21 28 135 30 113 2 240 -26 312 -68 23 -13 51 -24 63 -24 23 0
121 -92 174 -163 l29 -38 -12 -101 c-11 -101 -34 -168 -58 -176 -8 -2 -13 5
-13 17 0 45 -122 34 -139 -12 -17 -45 -94 -87 -158 -87 -18 0 -50 -7 -71 -16
-20 -9 -65 -20 -99 -24 -35 -4 -69 -14 -78 -24 -9 -9 -25 -16 -36 -16 -20 0
-53 -28 -61 -51 -4 -11 -9 -10 -23 5 -16 16 -29 18 -84 13 -84 -8 -181 -41
-217 -74 l-28 -26 23 -16 c13 -9 36 -28 51 -43 35 -35 74 -36 150 -6 37 14 79
21 129 22 71 1 74 0 101 -32 l27 -33 27 31 c14 17 26 37 26 44 0 22 40 66 78
85 21 10 75 26 122 36 47 9 124 32 171 51 96 38 108 39 191 22 31 -7 61 -9 65
-5 4 4 -12 27 -35 50 -23 24 -42 49 -42 57 0 8 9 39 20 68 11 29 20 76 20 106
0 74 13 83 130 92 151 11 158 25 21 43 -99 13 -165 48 -239 125 -69 72 -72 83
-46 178 9 32 14 61 11 65 -4 3 -29 -15 -56 -40 -39 -37 -57 -47 -83 -47 -30 1
-235 52 -241 61 -2 2 1 61 6 130 15 193 -2 208 -54 51 -17 -53 -40 -113 -50
-133 -17 -35 -22 -37 -80 -44 -59 -7 -62 -6 -93 24 -38 37 -42 38 -49 10 -5
-18 -11 -21 -38 -15 -47 9 -55 19 -79 99 -12 40 -27 78 -32 84 -17 21 -31 2
-25 -34 8 -48 -10 -135 -30 -151 -18 -13 -110 -43 -168 -56 -28 -6 -32 -3 -52
36 -19 37 -22 40 -23 18 -1 -36 -13 -51 -46 -53 l-29 -2 -6 150 c-3 83 -7 152
-7 155 -1 2 -7 -1 -12 -6 -6 -6 -19 -73 -30 -150 -13 -91 -26 -148 -38 -164
-10 -14 -47 -40 -82 -58 -104 -53 -142 -35 -268 131 -98 129 -145 182 -150
169 -4 -14 9 -39 75 -139 29 -45 64 -105 78 -134 23 -51 23 -54 7 -82 -28 -47
-179 -200 -194 -195 -7 3 -16 29 -21 59 -4 30 -10 61 -14 69 -8 18 -21 -63
-22 -138 l-1 -53 -47 39 c-55 46 -88 64 -97 55 -3 -4 1 -14 10 -24 9 -10 18
-35 21 -56 10 -78 -97 -176 -206 -188 -31 -3 -73 -13 -94 -22 -56 -24 -72 -5
-72 85 0 66 0 67 30 72 23 4 31 11 33 31 2 16 14 32 35 44 85 48 287 205 265
205 -3 0 -67 -29 -143 -65 -169 -80 -182 -84 -187 -54 -4 32 -26 35 -34 4 -5
-19 -9 -23 -15 -14 -6 10 -13 10 -35 1 -22 -11 -31 -10 -53 4 -42 27 -211 201
-211 218 0 9 14 23 31 32 29 14 31 19 25 52 -3 21 -6 43 -6 50 0 6 -9 12 -20
12 -18 0 -18 6 16 98 68 185 82 227 78 231 -7 7 -28 -26 -101 -157 -74 -135
-122 -200 -123 -169 0 11 -6 17 -12 14 -8 -3 -12 -21 -11 -51 1 -34 -2 -46
-13 -46 -18 0 -24 16 -38 93 -13 74 -36 89 -36 24 0 -24 -6 -49 -13 -55 -17
-14 -109 30 -142 69 -25 31 -33 73 -15 84 6 3 10 17 10 30 0 17 -6 25 -22 27
-19 2 -23 9 -21 37 0 18 6 38 11 43 15 15 109 14 165 -1 51 -15 73 -8 44 13
-9 8 -76 35 -147 61 -72 26 -140 55 -152 65 l-22 18 22 94 c41 169 92 248 159
248 18 0 35 -6 37 -12 14 -46 17 -51 27 -41 6 6 13 29 16 52 8 56 26 54 148
-19 54 -32 101 -57 104 -54 3 2 -34 44 -82 92 -87 88 -88 88 -67 107 28 25 25
35 -10 35 -43 0 -49 21 -34 125 18 120 22 135 38 135 17 0 46 -32 46 -52 0
-16 47 -68 61 -68 16 0 9 21 -36 106 -42 81 -48 114 -20 114 7 0 18 -14 24
-31 12 -36 27 -31 36 13 l7 31 82 -6 c44 -3 139 -18 209 -32 220 -46 184 -11
-60 56 -174 48 -183 52 -183 86 0 26 -6 27 -54 7 -18 -7 -19 -3 -13 72 6 79
53 259 83 317 l16 31 14 -33 c19 -44 52 -40 68 9 11 34 13 35 56 32 25 -2 89
-14 142 -27 98 -25 168 -32 168 -17 0 13 -41 30 -180 73 -69 22 -138 45 -154
51 l-28 11 61 28 c38 17 61 34 61 44 0 14 -7 15 -46 9 -58 -8 -64 0 -63 91 0
105 12 152 48 189 17 17 31 38 31 46 0 8 9 34 20 58 18 39 22 42 59 42 23 0
87 -19 158 -46 127 -50 213 -76 213 -65 0 4 -81 47 -181 96 -99 48 -183 94
-186 101 -3 7 7 28 21 47 14 19 26 42 26 52 0 16 -1 16 -26 0 l-27 -17 7 38 7
39 -31 -37 c-17 -21 -35 -38 -40 -38 -19 0 -33 117 -27 241 7 153 19 187 78
220 28 15 45 33 49 49 5 20 30 37 135 90 124 62 160 90 116 90 -11 0 -95 -25
-186 -56 -92 -31 -169 -53 -172 -51 -2 3 5 27 16 52 31 70 26 74 -24 25 l-45
-44 -31 30 c-50 46 -70 104 -76 213 -5 82 -3 103 14 141 11 25 23 53 26 62 7
21 54 34 179 52 166 24 153 44 -29 45 -89 1 -115 -2 -127 -15 -9 -8 -16 -20
-16 -25 0 -5 -6 -9 -14 -9 -22 0 -28 33 -21 108 l6 67 -22 -28 -22 -28 -39 38
c-30 28 -39 33 -35 18 15 -53 19 -95 8 -95 -18 0 -126 112 -164 170 -19 30
-43 84 -52 120 -36 138 -36 124 6 181 43 57 46 75 6 35 -62 -62 -62 -11 -1
137 98 237 112 277 95 277 -5 0 -41 -62 -79 -137 -83 -164 -115 -223 -122
-223 -3 0 -14 16 -25 36 -17 32 -51 61 -61 52 -2 -2 4 -27 13 -55 21 -65 12
-78 -64 -93 -100 -21 -197 7 -237 68 -34 50 -72 170 -87 270 -13 83 -25 105
-31 55 -5 -47 -22 -31 -38 34 -16 61 -30 91 -30 61 0 -26 56 -239 79 -300 12
-31 37 -76 55 -100 37 -48 66 -101 66 -119 0 -7 -37 24 -82 68 -89 86 -168
142 -233 163 -22 8 -102 16 -178 19 l-137 6 65 109 c77 131 170 254 201 268
18 8 29 7 49 -6 34 -22 34 2 0 34 -14 13 -25 29 -25 35 0 18 97 243 128 295
39 67 109 138 145 146 l31 7 -29 24 c-61 51 -124 72 -250 83 -66 7 -151 15
-190 18 l-70 7 -7 48 c-11 81 -81 190 -193 302 -33 33 -84 86 -112 119 -28 32
-57 56 -65 54 -7 -3 -25 -23 -41 -46 -19 -28 -37 -43 -60 -47 -17 -4 -36 -11
-42 -15 -5 -4 -59 -22 -119 -39 -60 -17 -127 -43 -151 -56 -50 -30 -82 -31
-197 -5 -111 24 -134 36 -221 119 -69 65 -104 91 -125 91 -5 0 -12 -17 -16
-37z m1610 -745 c-10 -48 -112 -322 -151 -403 -39 -83 -44 -65 -16 63 11 48
25 119 31 157 6 39 22 89 35 111 22 37 87 104 102 104 3 0 3 -15 -1 -32z
m-2370 3 c40 -25 111 -98 131 -135 10 -20 16 -71 19 -180 l4 -151 -21 45 c-11
25 -25 69 -30 98 -5 28 -13 78 -19 109 -16 94 -106 203 -168 203 -29 0 -28 17
1 23 42 8 52 7 83 -12z m1029 -545 c37 -176 41 -224 13 -171 -30 60 -91 324
-81 352 13 34 33 -20 68 -181z m-220 17 c3 -16 27 -75 51 -131 25 -57 43 -106
40 -109 -10 -10 -116 229 -116 262 0 24 17 9 25 -22z m375 -59 c0 -14 -4 -23
-10 -19 -5 3 -10 15 -10 26 0 10 5 19 10 19 6 0 10 -12 10 -26z m-20 -208 c17
-70 29 -131 26 -134 -6 -5 -47 82 -72 152 -15 41 -18 84 -8 111 11 29 22 3 54
-129z m-66 -18 c23 -55 28 -78 18 -78 -11 0 -42 71 -42 95 0 24 10 17 24 -17z
m1386 -168 c0 -5 -9 -10 -20 -10 -11 0 -20 5 -20 10 0 6 9 10 20 10 11 0 20
-4 20 -10z m-2180 -71 c47 -11 123 -25 170 -30 101 -12 166 -30 239 -67 50
-25 82 -55 70 -66 -2 -3 -51 -14 -107 -26 -109 -22 -177 -44 -203 -67 -9 -7
-24 -31 -34 -53 -10 -22 -23 -40 -29 -40 -15 0 -178 169 -210 217 -37 56 -43
106 -17 132 25 25 17 25 121 0z m821 11 c19 -10 49 -59 49 -80 0 -21 -19 -9
-49 32 -41 56 -41 70 0 48z m897 -6 c31 -9 27 -31 -10 -54 -50 -30 -68 -27
-68 14 0 43 23 54 78 40z m-2143 -79 c69 -18 107 -45 63 -45 -36 0 -158 39
-158 50 0 14 27 12 95 -5z m236 -62 c55 -27 259 -217 259 -241 0 -7 -16 -12
-39 -12 -31 0 -50 9 -88 39 -63 50 -223 215 -223 230 0 18 33 13 91 -16z
m2245 -210 c-8 -8 -36 5 -36 17 0 7 6 7 21 0 11 -7 18 -14 15 -17z m-961 -199
c-3 -20 -17 -73 -30 -118 -51 -174 -69 -196 -162 -196 -74 0 -88 13 -99 96
l-6 52 53 24 c30 14 91 58 137 101 95 88 118 96 107 41z m-140 -364 c-3 -5
-12 -10 -20 -10 -8 0 -17 5 -20 10 -4 6 5 10 20 10 15 0 24 -4 20 -10z m121
-894 c-25 -89 -46 -130 -46 -90 0 23 24 108 48 174 27 72 26 17 -2 -84z m110
-358 c-4 -24 -12 -61 -18 -83 l-11 -40 -8 35 c-4 19 -6 45 -3 58 2 12 6 33 9
47 3 14 12 25 21 25 14 0 15 -7 10 -42z m244 -1198 c18 -33 -15 -130 -39 -116
-14 9 -14 91 -1 117 14 24 27 24 40 -1z m-30 -195 c0 -15 -43 -12 -48 3 -3 10
4 13 22 10 15 -2 26 -7 26 -13z m1193 -326 c46 -12 51 -34 5 -24 -42 10 -78
23 -78 30 0 8 32 6 73 -6z m-32 -55 c30 -9 58 -20 63 -24 9 -9 -46 -114 -66
-126 -5 -4 -21 6 -33 22 -29 37 -41 26 -24 -21 11 -31 11 -37 -1 -45 -24 -15
-203 -12 -224 3 -17 13 -17 15 -2 45 9 17 45 52 80 77 35 25 66 52 69 59 5 13
27 21 68 25 8 0 40 -6 70 -15z m459 -359 c-7 -8 -16 -12 -21 -9 -13 8 -1 24
18 24 13 0 13 -3 3 -15z m6596 -115 c66 -32 180 -130 213 -183 11 -18 23 -52
27 -75 6 -36 4 -42 -12 -42 -22 0 -99 79 -152 156 -52 77 -63 87 -93 76 -13
-5 -38 -7 -55 -5 -56 9 -105 -29 -158 -120 l-22 -38 -47 61 c-26 33 -70 76
-97 96 -28 20 -50 42 -50 49 0 15 95 46 175 56 105 13 203 1 271 -31z m-482
-6 c6 -14 1 -16 -35 -10 -69 11 -82 25 -23 26 39 0 53 -4 58 -16z m-3974 -53
c13 -26 13 -44 -2 -39 -14 5 -30 58 -17 58 4 0 13 -9 19 -19z m4432 -84 c61
-16 92 -46 130 -127 25 -51 33 -82 36 -145 6 -107 -10 -175 -64 -281 -24 -48
-43 -92 -41 -97 1 -5 29 21 62 59 149 174 167 185 226 142 80 -59 94 -175 29
-236 -20 -18 -24 -19 -52 -5 -24 12 -53 15 -137 10 -58 -3 -121 -11 -139 -17
-18 -7 -35 -10 -39 -7 -3 3 3 51 12 107 9 56 15 103 12 106 -2 3 -14 -22 -27
-56 -12 -33 -26 -60 -30 -60 -5 0 -6 44 -3 98 5 80 3 95 -8 84 -7 -6 -18 -31
-25 -55 -6 -23 -21 -69 -34 -101 -12 -33 -23 -82 -25 -110 -3 -48 -24 -80 -41
-64 -6 6 37 283 52 336 6 19 3 22 -25 22 -31 0 -31 -1 -31 -50 0 -50 -45 -279
-57 -289 -3 -3 -3 17 0 44 3 28 9 160 12 295 4 135 11 259 16 277 13 41 99
133 125 133 10 -1 40 -6 66 -13z m-1025 -405 c-33 -36 -31 -74 8 -163 53 -120
68 -185 54 -229 -16 -46 -38 -80 -53 -80 -16 0 -52 40 -60 66 -4 12 -2 51 3
85 8 51 7 89 -7 184 -10 66 -16 127 -14 135 1 8 17 25 35 38 32 22 32 22 41 2
7 -14 4 -25 -7 -38z m1263 25 c0 -17 -36 -51 -43 -40 -2 4 -1 18 4 31 9 24 39
31 39 9z m-4085 -17 c-3 -5 -21 -10 -38 -9 -27 0 -29 2 -12 9 28 12 57 12 50
0z m-375 -159 c0 -6 -5 -13 -10 -16 -15 -9 -43 3 -35 15 8 13 45 13 45 1z
m-117 -58 c-7 -2 -21 -2 -30 0 -10 3 -4 5 12 5 17 0 24 -2 18 -5z m4300 -58
c-7 -21 -13 -19 -13 6 0 11 4 18 10 14 5 -3 7 -12 3 -20z m461 -17 c-17 -29
-99 -120 -116 -129 -35 -19 -19 10 43 76 55 58 92 85 73 53z m-326 -41 c61 1
112 -1 112 -5 0 -4 -13 -54 -29 -112 -20 -71 -37 -110 -52 -122 -24 -20 -184
-71 -269 -87 -98 -17 -142 -22 -138 -14 2 5 16 28 31 53 15 25 48 79 73 120
24 41 61 99 82 128 31 44 40 52 57 45 11 -4 71 -7 133 -6z m-8387 -70 c-14
-40 -46 -74 -56 -58 -7 12 -2 22 34 68 31 39 37 36 22 -10z m5309 -20 c0 -10
-4 -15 -10 -12 -5 3 -10 18 -10 33 0 21 2 24 10 12 5 -8 10 -23 10 -33z m2170
33 c10 -5 40 -40 68 -77 28 -38 67 -84 87 -103 20 -19 46 -53 57 -75 11 -22
27 -48 35 -57 19 -22 10 -48 -14 -42 -10 3 -65 39 -123 81 -99 71 -229 143
-257 143 -17 0 -17 4 8 52 40 78 88 105 139 78z m-4212 -24 c3 -12 -1 -17 -10
-14 -7 3 -15 13 -16 22 -3 12 1 17 10 14 7 -3 15 -13 16 -22z m2172 -136 c121
-61 218 -73 310 -39 106 39 128 35 234 -50 54 -43 112 -68 241 -102 63 -16
115 -36 122 -45 7 -9 18 -42 25 -73 6 -31 38 -107 70 -170 32 -62 58 -125 58
-140 -1 -14 -9 -48 -18 -76 -14 -42 -21 -50 -42 -50 -22 0 -25 -5 -28 -37 -2
-20 -10 -42 -18 -48 -36 -31 2 -115 49 -108 17 2 23 12 27 38 6 35 6 35 19 11
17 -31 27 -15 36 54 20 159 35 196 74 175 25 -13 35 -49 28 -95 -6 -38 20 -99
58 -135 l25 -23 0 31 c0 18 4 32 10 32 18 0 83 65 96 95 7 16 18 68 24 115 18
122 20 126 83 144 77 22 134 21 147 -3 15 -29 12 -41 -10 -41 -27 0 -25 -27 3
-36 12 -4 35 -17 50 -30 37 -31 82 -31 101 -1 14 21 21 66 17 113 -2 33 -29
38 -43 9 -6 -14 -14 -25 -18 -25 -7 0 -40 65 -40 80 0 5 20 32 45 60 28 31 50
68 57 95 7 25 18 47 25 49 7 3 38 -4 70 -15 32 -11 112 -25 178 -32 l120 -13
46 -46 c71 -70 116 -96 203 -114 l79 -16 67 34 66 34 70 -64 c38 -36 89 -74
114 -84 102 -44 100 -41 164 -220 24 -68 57 -150 74 -181 26 -49 29 -61 21
-94 -43 -177 -43 -177 -37 -476 1 -52 -24 -99 -57 -105 -24 -5 -68 40 -95 98
-25 53 -22 80 10 80 11 0 20 5 20 10 0 18 -52 31 -114 28 -50 -2 -61 -6 -64
-21 -7 -36 9 -66 73 -142 36 -42 65 -81 65 -86 0 -6 -16 -31 -36 -55 -20 -24
-47 -72 -59 -107 l-23 -62 -48 -7 c-27 -3 -83 -7 -125 -7 -109 -1 -168 -22
-243 -86 l-64 -54 -28 30 c-42 44 -95 78 -174 110 -81 33 -130 36 -185 13 -71
-29 -134 0 -169 79 -29 67 -124 155 -210 196 -35 16 -67 35 -71 41 -4 6 7 26
24 46 17 19 31 40 31 47 -1 54 -104 180 -157 193 -15 4 -41 16 -56 27 -22 15
-37 18 -70 13 -54 -8 -88 -31 -127 -84 -21 -30 -47 -50 -86 -67 -46 -20 -55
-28 -52 -46 2 -16 14 -25 42 -33 42 -12 83 -56 52 -56 -8 0 -36 5 -61 12 -44
12 -46 11 -159 -45 -162 -81 -204 -121 -161 -157 29 -24 14 -29 -82 -32 -92
-3 -98 -4 -101 -25 -2 -17 7 -28 38 -48 23 -15 40 -29 37 -31 -3 -3 -32 6 -64
20 l-60 25 -91 -30 c-62 -19 -113 -29 -156 -29 -76 0 -94 -13 -80 -63 8 -28
14 -32 47 -35 24 -2 37 -8 34 -15 -8 -25 -68 -18 -173 20 -5 2 -27 -12 -47
-32 -31 -30 -42 -35 -84 -35 -26 0 -82 9 -123 20 -100 26 -118 26 -130 -5 -10
-27 -12 -28 -83 -25 l-48 2 3 -34 c2 -28 7 -34 31 -36 39 -5 34 -15 -22 -45
-65 -36 -88 -34 -126 7 -48 53 -120 71 -285 71 l-135 0 -3 -32 c-4 -37 -25
-53 -75 -55 -46 -2 -57 7 -57 47 0 39 -27 61 -64 51 -11 -3 -56 6 -100 20 -75
25 -80 26 -113 10 -19 -9 -42 -30 -51 -46 -31 -54 -52 -37 -77 59 -9 36 -23
74 -31 85 -8 12 -14 45 -14 81 0 68 -13 100 -30 75 -5 -8 -10 -22 -10 -31 0
-27 -30 -119 -39 -119 -5 0 -11 46 -15 103 -4 56 -9 130 -12 164 -6 58 -4 64
20 86 14 13 29 39 33 58 3 19 29 79 57 134 62 119 86 212 92 354 3 58 10 117
15 131 5 14 30 38 56 55 63 40 143 122 175 181 30 56 63 167 73 248 4 32 14
61 24 70 10 9 49 20 87 25 119 15 205 70 285 185 28 39 56 74 63 78 6 4 30 3
52 -2 21 -5 85 -12 141 -16 l102 -7 32 -76 c45 -109 65 -169 73 -224 12 -79
59 -109 104 -67 32 30 27 52 -20 108 -53 61 -137 201 -140 232 -3 20 6 27 54
46 31 12 71 32 89 45 80 57 150 59 249 9z m3140 -35 c0 -24 -5 -66 -11 -94
-12 -56 -64 -144 -82 -139 -6 2 -22 25 -34 50 -16 32 -37 55 -73 78 l-51 33
80 37 c44 20 97 48 118 62 21 14 41 24 46 21 4 -2 7 -24 7 -48z m-714 -62
c-11 -11 -19 6 -11 24 8 17 8 17 12 0 3 -10 2 -21 -1 -24z m-491 -3 c38 -6 80
-17 93 -26 24 -16 49 -60 40 -70 -8 -7 -195 14 -236 27 -39 13 -59 44 -41 65
13 16 48 17 144 4z m629 -142 c-3 -13 -13 -36 -22 -53 -8 -16 -15 -46 -16 -67
-1 -42 -3 -43 -59 -27 l-37 10 27 24 c24 21 26 26 13 35 -8 5 -24 10 -35 10
-11 0 -28 9 -38 20 -9 11 -24 20 -33 20 -8 0 -14 6 -11 13 2 7 17 11 38 9 19
-2 52 4 74 12 22 8 55 15 73 15 30 1 33 -1 26 -21z m-7989 -99 c-30 -114 -59
-147 -83 -94 -17 36 -15 43 13 77 14 16 25 35 25 42 0 7 10 22 21 35 34 36 43
13 24 -60z m-1137 39 c15 -19 43 -134 36 -151 -3 -9 12 -44 33 -79 50 -84 268
-569 287 -639 8 -30 33 -87 56 -127 41 -69 49 -112 12 -62 -48 65 -130 205
-122 208 6 2 -1 18 -14 35 -38 50 -113 206 -129 268 -8 31 -29 77 -46 103 -17
25 -47 81 -65 124 -46 108 -108 302 -102 318 7 17 40 18 54 2z m6292 -73 c0
-8 -4 -15 -10 -15 -5 0 -10 7 -10 15 0 8 5 15 10 15 6 0 10 -7 10 -15z m1970
-156 c0 -5 -4 -9 -10 -9 -9 0 -40 52 -40 67 1 11 50 -46 50 -58z m-354 -134
c14 -35 -59 -155 -95 -155 -17 0 -13 52 6 80 59 89 78 105 89 75z m-4518 -189
c16 -18 16 -18 -8 -11 -36 11 -81 45 -74 56 6 11 57 -17 82 -45z m-2943 -13
c9 -21 30 -78 47 -126 25 -73 29 -92 20 -112 -21 -46 -40 -29 -92 80 -64 135
-69 157 -39 179 35 24 47 20 64 -21z m291 -190 c43 -110 251 -535 313 -642 26
-44 77 -105 146 -172 89 -87 103 -105 90 -115 -25 -18 -17 -41 18 -54 l32 -11
-30 -25 c-16 -13 -33 -24 -36 -24 -9 0 -94 132 -184 285 -119 204 -381 739
-404 825 -19 70 -19 74 -2 53 10 -12 36 -66 57 -120z m426 70 c7 -9 33 -36 58
-60 34 -35 45 -52 46 -81 1 -20 18 -79 38 -130 42 -109 44 -127 14 -143 -20
-11 -26 -8 -53 24 -58 67 -165 303 -165 363 0 13 8 28 18 33 24 14 29 13 44
-6z m8683 -32 c-26 -23 -125 -41 -125 -23 0 7 49 19 125 31 6 0 6 -2 0 -8z
m-8171 -173 c-11 -69 -21 -87 -61 -103 -20 -9 -45 -23 -55 -32 -10 -9 -20 -14
-22 -12 -7 7 16 124 28 138 12 16 84 50 104 51 9 0 10 -11 6 -42z m-164 -43
c0 -8 -4 -17 -10 -20 -6 -4 -10 5 -10 20 0 15 4 24 10 20 6 -3 10 -12 10 -20z
m1770 -10 c7 -9 10 -18 7 -21 -11 -11 -57 6 -57 21 0 20 34 19 50 0z m-2660
-142 c0 -13 -3 -13 -15 -3 -8 7 -15 19 -15 27 0 13 3 13 15 3 8 -7 15 -19 15
-27z m1128 -99 c45 -18 72 -42 83 -73 12 -29 -4 -51 -37 -51 -34 0 -37 -14
-23 -100 12 -74 11 -80 -11 -121 -54 -104 -44 -122 29 -54 30 28 52 42 56 35
4 -6 9 -52 12 -103 7 -116 1 -122 -101 -121 -53 1 -92 9 -155 32 -46 18 -92
39 -102 48 -10 9 -20 38 -24 73 -11 100 -33 109 -44 19 l-6 -53 -13 52 c-7 28
-23 59 -34 70 -20 18 -20 18 -13 -24 9 -56 -2 -56 -91 3 -74 50 -120 89 -135
116 -11 20 26 68 80 103 20 13 71 55 114 94 43 39 82 71 87 71 6 0 10 -10 10
-23 0 -32 10 -40 27 -19 12 16 14 16 27 0 16 -22 26 -23 26 -4 0 51 144 70
238 30z m7690 -46 c36 -71 24 -94 -16 -32 -33 52 -42 89 -19 82 6 -2 22 -25
35 -50z m-7578 -148 c-12 -23 -30 -27 -30 -7 0 17 10 27 27 27 11 0 11 -5 3
-20z m6111 -23 c-13 -13 -15 1 -4 30 7 17 8 17 11 -1 2 -10 -1 -23 -7 -29z
m-6051 14 c0 -5 -7 -14 -15 -21 -16 -14 -18 -10 -9 14 6 17 24 22 24 7z m250
-20 c0 -5 18 -11 39 -15 46 -7 170 -100 192 -144 7 -15 28 -44 47 -65 18 -21
30 -42 27 -47 -13 -20 7 -48 45 -65 41 -18 52 -35 25 -35 -46 0 -195 101 -313
213 -40 38 -76 67 -79 64 -7 -8 32 -87 68 -136 17 -24 37 -41 49 -41 36 0 21
-17 -39 -44 -69 -31 -132 -33 -206 -8 -48 16 -50 18 -55 61 -5 42 -30 72 -30
36 0 -30 -25 -9 -42 36 -21 55 -22 109 -4 135 15 19 15 19 29 0 17 -23 37 -13
37 18 0 12 5 27 12 34 14 14 198 17 198 3z m5050 -124 c0 -20 -30 -57 -46 -57
-20 0 -17 20 8 47 24 26 38 29 38 10z m38 -147 c23 -27 112 -159 112 -166 0
-11 -44 32 -112 109 -40 45 -58 72 -54 83 5 14 9 14 24 3 9 -8 23 -21 30 -29z
m2096 -62 c8 -55 -6 -65 -23 -17 -13 36 -14 82 -4 93 9 9 18 -17 27 -76z
m-8293 50 c6 -13 37 -51 67 -86 31 -36 51 -67 46 -72 -5 -5 -25 -11 -45 -15
-45 -8 -57 6 -68 76 -5 29 -16 58 -25 64 -16 13 -21 36 -9 48 12 12 22 7 34
-15z m-105 -138 l44 -75 -67 -3 c-37 -2 -77 -1 -89 2 -37 10 -36 33 2 55 39
23 43 44 19 111 -8 23 -15 45 -15 49 1 14 65 -69 106 -139z m3446 88 c-9 -9
-12 -7 -12 12 0 19 3 21 12 12 9 -9 9 -15 0 -24z m408 -203 c17 -44 42 -96 55
-115 13 -19 31 -52 41 -72 23 -49 41 -54 75 -23 l27 27 27 -36 c15 -20 26 -38
24 -41 -3 -2 -47 -9 -99 -16 -52 -6 -112 -18 -133 -27 -32 -12 -41 -12 -47 -2
-8 12 -15 75 -25 205 l-4 60 19 -80 c11 -44 24 -93 29 -110 l9 -30 1 36 c1 20
-8 88 -19 150 -19 109 -25 167 -16 158 2 -2 18 -40 36 -84z m249 -10 c0 -20 0
-20 -14 -1 -8 11 -15 34 -14 50 l1 31 13 -30 c8 -16 14 -39 14 -50z m-663 30
c10 -25 12 -41 5 -53 -6 -9 -11 -15 -11 -12 0 3 -7 26 -15 53 -17 56 -1 65 21
12z m61 -157 c-3 -7 -5 -2 -5 12 0 14 2 19 5 13 2 -7 2 -19 0 -25z m-1466 -73
c69 -80 72 -85 67 -85 -8 0 -132 129 -137 142 -7 21 28 -7 70 -57z m1486 -37
c-3 -7 -5 -2 -5 12 0 14 2 19 5 13 2 -7 2 -19 0 -25z m-1352 -108 c10 -11 16
-20 13 -20 -3 0 -13 9 -23 20 -10 11 -16 20 -13 20 3 0 13 -9 23 -20z m1593
-25 c10 -21 9 -27 -4 -32 -20 -7 -33 12 -27 38 7 26 18 24 31 -6z m2599 -7
c-3 -7 -5 -2 -5 12 0 14 2 19 5 13 2 -7 2 -19 0 -25z m-2797 -35 c0 -21 -3
-24 -9 -14 -5 8 -7 20 -4 28 8 21 13 15 13 -14z m-193 -46 c3 -20 2 -44 -2
-54 -6 -14 -10 -9 -16 22 -4 22 -8 51 -8 65 -1 36 18 11 26 -33z m-1062 -27
c27 -27 47 -50 44 -50 -3 0 -27 23 -54 50 -27 28 -47 50 -44 50 3 0 27 -22 54
-50z m1002 -72 c-3 -7 -5 -2 -5 12 0 14 2 19 5 13 2 -7 2 -19 0 -25z m2932
-203 c-4 -126 -11 -425 -15 -662 l-7 -433 27 -25 28 -26 -4 -129 c-4 -150 -12
-170 -56 -127 l-27 28 2 402 c2 410 16 834 34 1032 10 119 18 179 24 174 1 -2
-1 -107 -6 -234z m-103 -127 c-4 -101 -13 -385 -21 -633 -8 -247 -18 -474 -21
-503 -8 -64 -16 -67 -153 -59 -104 7 -171 22 -171 38 0 6 9 8 20 4 24 -8 57 9
65 34 5 17 8 16 35 -10 24 -24 37 -29 78 -29 28 0 54 6 60 13 5 6 13 68 16
137 4 69 11 208 17 310 17 328 53 807 64 858 13 57 16 7 11 -160z m-3126 -4
c0 -23 -23 -48 -33 -37 -11 11 -8 58 5 71 15 15 28 -2 28 -34z m2925 -264
c-21 -350 -42 -620 -47 -626 -11 -10 19 594 37 751 8 72 15 134 15 139 0 5 2
7 5 4 3 -3 -2 -123 -10 -268z m-6576 172 c-13 -16 -33 -35 -44 -42 -19 -12
-19 -12 -6 6 29 38 65 74 69 69 2 -2 -6 -17 -19 -33z m6398 -174 c-2 -13 -4
-3 -4 22 0 25 2 35 4 23 2 -13 2 -33 0 -45z m-2410 -45 c-3 -10 -5 -2 -5 17 0
19 2 27 5 18 2 -10 2 -26 0 -35z m121 -322 c3 -187 2 -347 -2 -357 -19 -51
-28 21 -33 282 -6 294 1 444 20 425 7 -7 12 -127 15 -350z m280 253 c1 -21 -2
-46 -8 -54 -8 -13 -11 -13 -25 1 -14 14 -15 23 -5 58 14 52 34 49 38 -5z
m1889 -133 c-3 -81 -15 -243 -28 -358 -12 -116 -19 -218 -16 -227 11 -29 55
-19 74 17 l18 32 3 -29 c2 -15 1 -39 -2 -52 -6 -23 -11 -24 -81 -24 -41 0 -75
3 -75 6 0 3 5 14 10 24 25 46 41 177 65 515 8 115 18 218 21 227 13 44 17 8
11 -131z m-2703 87 c11 -26 16 -51 12 -55 -12 -13 -66 55 -66 83 0 42 32 25
54 -28z m2803 -40 c-2 -18 -4 -6 -4 27 0 33 2 48 4 33 2 -15 2 -42 0 -60z
m-1849 66 c27 -8 29 -24 3 -24 -28 0 -52 11 -45 21 6 11 11 11 42 3z m-888
-224 c0 -92 -13 -105 -34 -32 -16 57 -14 82 7 110 17 22 27 -6 27 -78z m-1070
60 c0 -5 -9 -14 -20 -20 -29 -15 -25 -36 17 -92 l36 -50 -62 32 c-74 37 -105
37 -109 -1 -2 -20 9 -40 49 -83 28 -31 50 -58 48 -60 -2 -2 -41 6 -87 17 -62
17 -86 19 -100 11 -26 -17 -27 -62 -2 -89 l21 -23 -43 -24 c-31 -17 -46 -33
-54 -58 -13 -39 -43 -51 -64 -25 -19 23 -51 227 -38 240 6 7 21 -3 44 -29 l34
-39 0 27 c0 15 -7 41 -16 59 -16 30 -16 32 7 47 12 8 41 30 63 49 55 46 107
78 164 101 50 20 112 26 112 10z m80 -62 c0 -17 -3 -18 -15 -8 -8 7 -15 21
-15 32 0 17 3 18 15 8 8 -7 15 -21 15 -32z m3407 5 c-3 -10 -5 -4 -5 12 0 17
2 24 5 18 2 -7 2 -21 0 -30z m-72 -65 c8 -29 15 -61 15 -72 0 -20 -2 -20 -20
4 -35 46 -51 144 -20 125 5 -3 16 -29 25 -57z m-2833 41 c27 -15 7 -29 -42
-29 l-35 1 24 19 c27 23 26 23 53 9z m-402 -34 c13 -14 21 -25 18 -25 -2 0
-15 11 -28 25 -13 14 -21 25 -18 25 2 0 15 -11 28 -25z m3607 -52 c-3 -10 -5
-2 -5 17 0 19 2 27 5 18 2 -10 2 -26 0 -35z m-2171 -51 c-15 -15 -16 -15 -16
1 0 9 6 26 13 38 12 20 12 20 15 -2 2 -12 -3 -29 -12 -37z m1968 -9 c-5 -82
-12 -105 -26 -97 -10 6 -3 138 8 156 15 24 22 0 18 -59z m939 0 c9 -89 7 -585
-1 -642 -6 -35 -9 -41 -18 -30 -13 16 -7 739 6 739 4 0 10 -30 13 -67z m-5084
38 c29 -6 56 -13 59 -16 3 -3 0 -26 -6 -53 -10 -42 -9 -49 8 -62 13 -10 26
-47 40 -110 11 -52 25 -109 31 -126 l10 -32 147 6 148 5 37 -32 36 -32 -22
-22 c-27 -27 -38 -25 -197 19 -160 45 -215 53 -224 29 -9 -24 38 -64 134 -115
91 -47 100 -62 19 -29 -71 27 -470 124 -579 140 -47 7 -88 15 -93 19 -6 5 57
217 69 229 2 2 12 -3 22 -12 20 -19 82 -23 82 -7 0 6 -9 29 -20 51 -12 22 -18
48 -15 57 7 22 77 72 102 73 10 0 38 9 63 19 25 11 56 18 70 15 14 -2 49 -9
79 -14z m1065 -51 c37 -14 32 -30 -9 -30 -37 0 -85 18 -85 32 0 11 63 10 94
-2z m139 -22 c32 -17 38 -23 23 -26 -21 -4 -96 26 -96 40 0 14 29 9 73 -14z
m3137 -67 c-5 -46 -12 -86 -16 -90 -8 -7 3 156 12 170 11 19 12 4 4 -80z m869
-654 c13 -32 39 -46 52 -26 5 8 8 145 7 318 -2 220 0 305 8 308 26 9 36 -68
45 -357 4 -162 13 -312 18 -334 12 -49 26 -65 44 -47 9 9 12 88 12 326 0 172
3 317 8 321 27 27 35 -68 36 -417 l1 -296 -227 1 c-243 1 -336 -12 -358 -50
-5 -10 -22 -31 -36 -48 -27 -30 -27 -30 -75 -18 -27 7 -124 19 -217 27 -173
15 -190 19 -219 54 -13 16 -30 21 -64 21 -49 0 -76 10 -114 45 -14 13 -36 26
-50 30 -50 14 -148 75 -183 114 -20 22 -47 62 -61 89 -38 74 -72 110 -108 114
-57 6 -43 26 47 70 79 38 90 40 118 30 29 -11 34 -9 64 20 l33 32 157 -2 c145
-2 339 -12 536 -28 l78 -7 223 -192 c304 -261 344 -288 225 -150 -59 68 -60
71 -55 115 3 25 9 169 13 320 l8 275 11 -315 c7 -173 17 -327 23 -343z m-779
608 c0 -8 -4 -15 -10 -15 -5 0 -10 7 -10 15 0 8 5 15 10 15 6 0 10 -7 10 -15z
m-342 -97 c9 -94 8 -113 -8 -113 -14 0 -20 22 -33 107 -4 27 -1 42 10 53 21
21 25 15 31 -47z m-73 -89 c-4 -5 -13 -9 -22 -9 -13 0 -13 3 -3 15 13 15 35
11 25 -6z m-3146 -25 c2 -2 -3 -4 -11 -4 -9 0 -26 9 -39 20 l-24 21 35 -17
c19 -9 37 -18 39 -20z m-245 -159 c32 -13 49 -35 29 -35 -11 0 -73 39 -73 45
0 7 4 7 44 -10z m4352 -61 c-5 -13 -10 -14 -18 -6 -6 6 -8 18 -4 28 5 13 10
14 18 6 6 -6 8 -18 4 -28z m-1966 -92 c105 -33 244 -102 248 -122 1 -9 -16
-29 -41 -47 -41 -28 -45 -35 -49 -83 -3 -28 -12 -59 -21 -67 -14 -14 -20 -14
-59 -1 -189 66 -237 80 -296 87 -41 5 -91 4 -130 -3 -52 -8 -78 -7 -148 7 -87
18 -186 56 -198 76 -10 16 37 59 90 81 57 25 170 53 294 74 52 9 111 20 130
25 43 11 72 7 180 -27z m717 -34 c-3 -7 -5 -2 -5 12 0 14 2 19 5 13 2 -7 2
-19 0 -25z m-218 -11 c26 -42 73 -167 63 -167 -20 0 -118 181 -105 194 12 12
22 6 42 -27z m-90 -73 c23 -29 56 -122 47 -131 -8 -8 -49 31 -81 78 -43 61
-12 111 34 53z m1005 -391 c18 -52 28 -123 17 -123 -15 0 -54 103 -59 155 -4
48 -3 49 12 28 9 -12 23 -39 30 -60z m244 54 c4 -22 -65 -94 -78 -81 -6 6 -13
31 -16 58 l-7 47 49 -3 c37 -2 50 -7 52 -21z"/>
<path d="M7835 5190 c4 -14 31 -88 60 -165 29 -77 58 -159 64 -181 12 -46 23
-58 65 -74 25 -9 31 -7 62 24 26 26 34 42 34 70 0 56 -43 44 -52 -14 -1 -14
-11 -26 -20 -28 -14 -3 -18 3 -18 28 0 33 -19 83 -43 115 -21 27 -33 12 -13
-17 9 -12 16 -29 16 -37 0 -35 -30 16 -40 68 -10 54 -77 192 -107 221 -14 13
-14 12 -8 -10z"/>
<path d="M6650 4998 c0 -84 -8 -127 -31 -185 -12 -29 -11 -35 4 -50 18 -18 82
-22 98 -6 17 17 -42 323 -62 323 -5 0 -9 -37 -9 -82z"/>
<path d="M9960 4904 c0 -30 82 -94 187 -148 65 -33 87 -33 101 -1 29 62 20 70
-131 121 -90 31 -157 43 -157 28z m161 -64 c19 -11 26 -30 10 -30 -5 0 -19 9
-32 20 -26 21 -11 27 22 10z"/>
<path d="M7363 4700 c-110 -103 -129 -125 -96 -113 16 6 16 5 4 -10 -30 -38
-74 -9 -85 56 -8 41 -29 46 -34 9 -2 -14 -11 -22 -23 -22 -24 0 -24 -6 2 -76
17 -46 27 -58 56 -70 31 -13 38 -13 59 1 19 12 29 13 45 4 28 -15 34 -6 14 24
-15 23 -15 28 -1 55 8 16 52 75 97 131 44 57 79 105 76 108 -3 2 -54 -41 -114
-97z"/>
<path d="M9733 4752 c2 -20 -7 -32 -35 -51 -21 -13 -38 -30 -38 -37 0 -8 15
-14 38 -16 l37 -3 38 -135 c21 -74 43 -139 48 -144 5 -6 9 48 9 142 0 98 4
159 12 171 15 25 4 49 -29 61 -16 5 -40 16 -55 24 -26 14 -26 13 -25 -12z"/>
<path d="M9121 4631 c-31 -32 -65 -75 -76 -96 -11 -21 -34 -46 -50 -55 -72
-40 -71 -105 1 -105 38 0 39 1 79 80 22 44 59 109 83 144 70 107 52 124 -37
32z"/>
<path d="M7890 4616 c0 -8 55 -74 123 -148 145 -157 180 -202 182 -231 3 -36
32 -33 48 5 23 55 41 64 77 38 42 -30 39 -6 -8 49 -21 25 -47 61 -57 79 -20
34 -35 42 -35 18 0 -22 -17 -28 -41 -15 -12 6 -60 46 -108 88 -140 125 -181
151 -181 117z"/>
<path d="M6335 4610 c-3 -5 -8 -47 -11 -92 -6 -95 5 -127 50 -143 26 -9 32 -6
72 39 24 26 44 54 44 62 0 26 -32 29 -51 5 -17 -21 -18 -21 -28 -3 -6 11 -20
45 -31 75 -22 59 -34 74 -45 57z"/>
<path d="M10307 4548 c-31 -41 -67 -109 -67 -125 0 -9 7 -9 30 -1 20 6 35 7
43 0 6 -5 23 -12 37 -15 14 -4 58 -36 99 -72 41 -36 78 -65 83 -65 21 0 3 45
-50 126 -32 49 -70 110 -85 137 -33 56 -56 60 -90 15z m111 -105 c43 -62 44
-79 3 -36 -40 41 -51 63 -32 63 5 0 18 -12 29 -27z"/>
<path d="M6849 4314 c-3 -124 -8 -186 -16 -196 -13 -15 -6 -54 16 -96 27 -51
92 -30 110 35 17 59 14 73 -14 73 -13 0 -29 8 -34 18 -5 10 -17 83 -27 162 -9
80 -20 154 -24 165 -4 11 -9 -61 -11 -161z"/>
<path d="M7647 4473 c-10 -16 -27 -182 -27 -265 0 -43 -3 -78 -6 -78 -3 0 -18
9 -32 21 -31 24 -39 12 -18 -29 12 -24 13 -35 3 -61 -15 -40 3 -60 62 -68 48
-7 67 6 88 56 13 31 13 35 -8 58 -21 22 -24 37 -32 185 -7 152 -16 204 -30
181z"/>
<path d="M8796 4445 c-9 -24 -7 -108 3 -124 14 -22 22 3 22 65 0 58 -13 89
-25 59z"/>
<path d="M9323 4374 c-23 -10 -13 -52 25 -102 58 -78 175 -198 179 -185 2 6
-19 60 -46 119 -28 59 -51 108 -51 109 0 2 10 5 23 9 l22 5 -22 22 c-21 22
-102 36 -130 23z m91 -107 c6 -9 7 -19 3 -23 -9 -9 -37 15 -37 33 0 18 20 12
34 -10z"/>
<path d="M9960 4351 c0 -6 -16 -28 -35 -50 -40 -44 -42 -51 -16 -51 12 0 29
-16 44 -43 33 -56 193 -224 203 -214 5 5 1 20 -9 35 -9 15 -42 79 -72 142 -30
63 -63 131 -74 150 -18 34 -41 51 -41 31z m67 -166 c8 -22 -6 -33 -17 -15 -13
20 -12 30 0 30 6 0 13 -7 17 -15z"/>
<path d="M6140 4310 c0 -16 66 -145 121 -237 63 -104 96 -133 154 -133 54 0
69 18 70 84 0 45 -2 51 -23 54 -13 2 -25 -3 -28 -12 -16 -43 -66 -6 -189 141
-53 62 -98 113 -101 113 -2 0 -4 -5 -4 -10z m210 -286 c0 -8 -1 -14 -3 -14 -6
0 -77 98 -77 106 1 14 80 -77 80 -92z"/>
<path d="M8016 3998 c-3 -50 -6 -124 -6 -165 l0 -73 33 0 c18 0 41 6 51 13 18
13 17 20 -19 165 -21 84 -41 152 -45 152 -4 0 -10 -41 -14 -92z"/>
<path d="M9206 4043 c4 -10 10 -45 13 -78 5 -55 8 -60 31 -63 14 -2 34 3 44
11 26 19 16 53 -32 105 -40 43 -71 57 -56 25z"/>
<path d="M9572 3878 c-20 -27 -22 -54 -5 -70 26 -23 92 -40 138 -36 l40 3 -58
58 c-59 57 -94 71 -115 45z"/>
<path d="M10011 3800 c-7 -23 -10 -49 -7 -58 10 -31 220 -141 232 -121 3 6
-21 39 -55 74 -34 35 -61 67 -61 72 0 8 -84 73 -94 73 -1 0 -8 -18 -15 -40z"/>
<path d="M9942 3779 c2 -18 9 -34 16 -37 10 -3 13 5 10 29 -2 18 -9 34 -16 37
-10 3 -13 -5 -10 -29z"/>
<path d="M7210 3769 c0 -7 21 -35 47 -61 l47 -48 -32 -6 c-18 -4 -35 -10 -37
-14 -7 -11 93 -60 120 -60 27 0 65 39 65 66 0 22 -38 64 -58 64 -6 0 -27 14
-46 31 -38 33 -106 51 -106 28z"/>
<path d="M6706 3624 c-10 -27 -7 -61 8 -73 8 -7 72 -30 143 -52 70 -22 136
-42 146 -46 34 -11 16 17 -37 56 -162 120 -244 156 -260 115z"/>
<path d="M1370 12653 c0 -5 7 -19 16 -32 28 -39 49 -159 85 -476 23 -202 37
-269 38 -177 1 58 -21 283 -44 462 -11 82 -23 131 -43 170 -24 48 -52 77 -52
53z"/>
<path d="M2031 11948 c-13 -68 -36 -176 -52 -240 -34 -137 -33 -134 -14 -118
22 18 61 149 79 265 35 227 25 297 -13 93z"/>
<path d="M3392 10695 c-12 -15 -24 -47 -27 -73 -18 -136 -38 -257 -55 -328
-11 -47 -15 -83 -10 -88 13 -13 53 81 75 174 10 41 31 119 47 172 31 104 34
161 7 166 -9 2 -26 -9 -37 -23z"/>
<path d="M3666 10609 c-4 -8 -19 -92 -35 -185 -19 -117 -36 -186 -54 -223 -35
-74 -15 -112 44 -81 33 18 49 66 60 178 10 109 0 342 -15 311z m-4 -302 c-9
-19 -11 -13 -10 33 0 53 1 54 10 22 8 -23 8 -39 0 -55z"/>
<path d="M2899 10248 c-37 -52 -83 -128 -78 -131 2 -1 13 -7 23 -13 13 -7 23
-29 31 -65 12 -63 21 -79 41 -79 19 0 34 41 34 96 0 24 4 44 8 44 17 0 69 -64
146 -182 45 -67 87 -124 94 -126 23 -7 12 29 -31 101 -52 86 -146 288 -154
331 -14 77 -67 88 -114 24z m70 -34 c3 -16 1 -17 -13 -5 -19 16 -21 34 -3 29
6 -3 14 -13 16 -24z"/>
<path d="M2333 10238 c-39 -41 -79 -120 -98 -195 -20 -76 -12 -99 31 -94 23 3
34 -29 49 -135 8 -60 18 -122 21 -138 12 -56 24 -2 35 156 6 84 13 173 15 197
5 42 6 43 21 21 24 -34 37 -10 19 36 -8 21 -20 64 -26 95 -6 31 -16 64 -23 73
-11 15 -15 14 -44 -16z m23 -269 c-8 -136 -20 -176 -29 -98 -15 123 -3 230 24
213 9 -5 10 -38 5 -115z"/>
<path d="M3721 9714 c-12 -15 -21 -34 -21 -42 0 -22 69 -109 144 -180 94 -90
114 -83 47 16 -53 79 -68 123 -52 158 13 29 11 34 -12 38 -8 1 -26 9 -40 19
-35 23 -42 22 -66 -9z"/>
<path d="M3161 9523 c-3 -29 -40 -53 -71 -47 -28 6 -30 5 -30 -24 0 -32 -4
-35 -73 -47 l-39 -6 44 -22 c39 -20 45 -28 61 -82 25 -83 37 -104 69 -123 19
-11 36 -37 54 -82 46 -117 77 -180 87 -180 13 0 3 62 -39 247 -19 84 -40 203
-48 265 -7 62 -14 107 -15 101z m8 -253 c0 -23 -1 -23 -9 -5 -5 11 -9 29 -9
40 -1 17 1 17 9 5 5 -8 9 -26 9 -40z m18 -82 c-3 -7 -5 -2 -5 12 0 14 2 19 5
13 2 -7 2 -19 0 -25z"/>
<path d="M3600 9429 c0 -32 -17 -55 -50 -69 -16 -7 -30 -18 -29 -24 0 -6 19
-25 42 -41 35 -26 43 -37 45 -69 l3 -38 25 23 c29 27 31 26 154 -61 129 -90
142 -77 29 29 -111 104 -176 185 -190 235 -11 39 -29 49 -29 15z"/>
<path d="M2366 9399 c-33 -26 -106 -49 -156 -49 -21 0 -47 -8 -60 -18 -34 -27
-8 -40 93 -48 l87 -7 0 -57 c0 -67 19 -101 47 -84 29 17 60 70 67 113 8 51 21
59 40 23 19 -37 42 -56 51 -42 14 23 -99 190 -129 190 -8 0 -25 -10 -40 -21z"/>
<path d="M3630 8910 c-16 -17 -39 -51 -51 -77 -22 -46 -22 -48 -5 -92 9 -25
26 -72 37 -103 15 -40 31 -65 52 -80 18 -12 36 -28 40 -35 4 -7 15 -13 24 -13
11 0 14 6 9 23 -3 12 -13 99 -22 192 -22 229 -29 244 -84 185z m48 -156 c4
-47 -14 -36 -24 15 -6 26 -4 33 7 29 8 -3 15 -21 17 -44z"/>
<path d="M2656 8911 c-7 -10 31 -31 55 -31 21 0 5 -48 -57 -178 -59 -121 -89
-212 -70 -212 3 0 19 24 36 54 34 60 54 80 88 91 16 5 32 24 47 58 13 29 37
65 54 81 36 34 39 63 11 94 -29 30 -152 63 -164 43z"/>
<path d="M3207 8737 c-9 -14 -30 -33 -46 -42 -35 -17 -59 -80 -68 -172 l-6
-63 39 0 c64 0 83 -17 134 -118 45 -89 80 -139 80 -115 0 6 -18 70 -39 141
-47 156 -59 213 -69 317 l-7 79 -18 -27z"/>
<path d="M2073 7975 c0 -22 2 -30 4 -17 2 12 2 30 0 40 -3 9 -5 -1 -4 -23z"/>
<path d="M3134 7983 c-23 -16 -56 -97 -70 -171 -15 -81 -12 -121 13 -161 8
-13 18 -51 21 -84 4 -51 2 -62 -14 -74 -19 -14 -19 -14 0 -28 38 -29 50 3 96
260 12 66 26 128 32 139 10 19 11 19 24 1 8 -10 17 -16 20 -12 12 11 -7 77
-29 102 -23 26 -74 41 -93 28z m34 -213 c-16 -81 -32 -89 -24 -12 6 68 14 89
26 75 5 -4 4 -33 -2 -63z"/>
<path d="M2580 7880 c0 -13 14 -25 45 -39 48 -21 54 -31 30 -51 -29 -24 -18
-39 21 -28 38 10 53 1 54 -29 0 -23 18 -14 49 24 34 41 39 74 16 93 -13 11
-167 48 -202 50 -7 0 -13 -9 -13 -20z"/>
<path d="M3524 7205 c-16 -38 -19 -85 -5 -85 12 0 18 17 26 74 9 55 0 60 -21
11z"/>
<path d="M2735 6571 c3 -5 22 -15 43 -22 20 -6 72 -25 114 -41 83 -32 87 -37
103 -131 7 -42 27 -56 52 -36 22 18 103 129 103 141 0 5 -11 20 -25 33 -19 20
-34 25 -77 25 -29 0 -105 9 -168 20 -129 22 -154 24 -145 11z m373 -73 c-3 -7
-13 -15 -24 -17 -16 -3 -17 -1 -5 13 16 19 34 21 29 4z"/>
<path d="M6213 6476 c4 -10 7 -19 7 -21 0 -2 29 -25 64 -50 66 -47 76 -60 76
-100 0 -33 10 -36 61 -22 53 16 63 41 22 59 -15 6 -68 39 -118 73 -122 83
-120 82 -112 61z"/>
<path d="M5574 6373 c14 -66 18 -180 7 -200 -9 -17 -8 -25 5 -37 20 -21 102
-22 110 -2 6 15 -32 118 -78 209 -30 60 -55 77 -44 30z"/>
<path d="M5004 6316 c33 -87 41 -101 72 -124 30 -21 28 -52 -4 -52 -10 0 -27
-6 -37 -14 -16 -12 -17 -16 -6 -30 16 -19 61 -21 86 -3 14 11 16 21 11 48 -12
64 -112 239 -136 239 -6 0 1 -29 14 -64z"/>
<path d="M5840 6254 c0 -3 26 -38 58 -77 33 -40 70 -92 83 -117 30 -56 68 -66
94 -26 24 36 13 74 -23 82 -45 11 -79 32 -147 90 -36 30 -65 52 -65 48z"/>
<path d="M3330 6145 c-8 -10 -31 -15 -71 -15 -56 0 -86 -14 -55 -26 30 -11 16
-20 -49 -33 -36 -7 -68 -17 -70 -22 -6 -8 37 -22 106 -35 66 -13 89 -31 89
-70 l0 -35 29 15 c44 23 81 73 81 110 0 37 -28 126 -40 126 -4 0 -13 -7 -20
-15z m10 -110 c-7 -8 -16 -12 -21 -9 -13 8 -1 24 18 24 13 0 13 -3 3 -15z"/>
<path d="M2486 6128 c-8 -13 -18 -40 -21 -60 -6 -30 -3 -43 14 -64 26 -33 58
-134 75 -240 l13 -79 6 55 c4 30 11 97 16 149 7 62 16 100 27 112 14 16 15 23
4 49 -14 33 -85 100 -107 100 -7 0 -19 -10 -27 -22z"/>
<path d="M4772 6118 c-6 -18 -13 -54 -16 -81 -3 -26 -14 -64 -25 -85 -10 -20
-19 -41 -20 -47 0 -5 -9 -11 -21 -13 -31 -5 -24 -29 11 -36 38 -7 65 6 72 36
14 55 27 242 19 250 -6 6 -14 -3 -20 -24z"/>
<path d="M3796 5968 c-48 -117 -102 -338 -83 -338 4 0 29 39 57 88 72 122 93
152 108 152 6 0 12 -9 12 -19 0 -53 33 -70 50 -26 11 30 -1 97 -30 162 -17 39
-22 43 -53 43 -33 0 -36 -3 -61 -62z m24 -88 c-17 -34 -33 -60 -35 -58 -8 7
14 72 36 108 35 55 33 18 -1 -50z"/>
<path d="M4996 5991 c18 -19 201 -52 268 -49 47 2 62 7 64 19 5 26 -23 32
-188 36 -117 4 -152 2 -144 -6z"/>
<path d="M5581 5959 c22 -42 98 -109 123 -109 31 0 41 28 19 53 -24 26 -113
77 -136 77 -15 0 -16 -3 -6 -21z"/>
<path d="M4905 5950 c4 -12 33 -75 64 -139 l56 -116 43 -3 c56 -4 55 13 -3 61
-24 21 -68 76 -97 123 -53 88 -76 114 -63 74z"/>
<path d="M3370 5654 c-55 -47 -88 -135 -55 -148 8 -3 15 -16 15 -28 1 -28 17
-50 48 -67 36 -19 45 -5 39 60 -3 33 -4 59 -2 59 1 0 49 -52 106 -114 57 -63
105 -113 108 -111 2 2 -32 60 -77 127 -72 111 -111 182 -126 231 -7 23 -19 22
-56 -9z"/>
<path d="M2945 5559 c-48 -43 -83 -108 -51 -96 8 3 19 0 24 -6 15 -18 31 -114
38 -233 7 -110 19 -140 29 -77 13 78 29 118 50 121 31 6 38 18 37 64 -3 64
-33 210 -49 236 -18 30 -36 28 -78 -9z m45 -159 c0 -11 -4 -20 -10 -20 -5 0
-10 9 -10 20 0 11 5 20 10 20 6 0 10 -9 10 -20z"/>
<path d="M514 5332 c9 -98 248 -774 308 -870 11 -18 18 -35 15 -38 -2 -3 -31
32 -62 78 -70 100 -64 93 -71 86 -10 -11 148 -313 346 -658 177 -310 178 -315
34 -112 -133 187 -243 324 -257 319 -24 -8 -10 -96 27 -174 20 -42 35 -77 34
-79 -2 -1 -32 20 -67 47 -91 71 -104 64 -41 -24 17 -23 46 -67 63 -97 43 -72
525 -716 566 -754 l31 -30 0 31 c0 19 -15 52 -41 89 -103 149 -259 400 -259
417 0 6 35 -24 79 -66 70 -69 111 -94 111 -68 0 5 -11 33 -25 63 -17 36 -21
54 -13 57 19 6 62 -53 113 -157 55 -113 81 -152 101 -152 24 0 16 48 -23 139
-102 238 -344 661 -493 862 -116 156 -339 670 -446 1029 -30 98 -34 107 -30
62z m585 -1379 c93 -151 173 -294 168 -299 -11 -11 -257 392 -257 421 0 17 22
-13 89 -122z m-65 -123 c128 -180 140 -199 133 -207 -11 -10 -160 151 -178
192 -10 22 -38 78 -63 124 -26 47 -46 87 -46 90 1 10 47 -50 154 -199z m-58
-107 c58 -79 108 -163 97 -163 -10 0 -86 104 -130 177 -45 74 -26 66 33 -14z
m278 -135 c-8 -12 -34 11 -34 30 0 13 3 12 20 -3 11 -10 17 -22 14 -27z"/>
<path d="M3890 5365 c-20 -24 -24 -103 -10 -232 23 -229 50 -282 50 -99 0 70
6 126 20 177 22 84 25 122 10 150 -13 23 -52 25 -70 4z"/>
<path d="M2465 5230 c-4 -11 -23 -28 -43 -38 -33 -15 -38 -22 -44 -65 -3 -27
-11 -62 -17 -78 -12 -36 1 -46 34 -25 18 12 25 13 33 3 5 -7 40 -83 77 -169
61 -144 83 -181 86 -145 3 37 -7 84 -43 197 -29 94 -40 147 -44 215 -5 96 -10
125 -24 125 -5 0 -12 -9 -15 -20z"/>
<path d="M3140 5063 c0 -16 -8 -49 -17 -75 -16 -44 -16 -48 0 -66 23 -26 21
-67 -12 -212 -15 -69 -27 -127 -25 -129 19 -23 76 93 145 297 42 121 49 172
25 172 -8 0 -18 -5 -21 -10 -4 -7 -19 2 -38 20 -39 38 -57 38 -57 3z m47 -205
c-3 -7 -5 -2 -5 12 0 14 2 19 5 13 2 -7 2 -19 0 -25z"/>
<path d="M4710 5000 c0 -183 71 -549 146 -757 49 -137 118 -301 156 -375 50
-99 46 -44 -7 84 -169 412 -216 594 -264 1027 -14 130 -31 141 -31 21z"/>
<path d="M4881 5057 c-2 -74 71 -346 126 -469 25 -57 31 -62 66 -58 31 3 44
-18 62 -93 20 -82 31 -107 47 -107 14 0 6 97 -27 304 -14 92 -32 170 -41 185
l-17 25 -23 -27 c-13 -15 -25 -27 -28 -27 -2 0 -9 14 -15 30 -14 41 -36 38
-47 -7 -9 -38 -9 -38 -36 62 -40 145 -66 217 -67 182z"/>
<path d="M3620 4857 c98 -95 228 -202 236 -194 3 3 -10 22 -28 43 -34 39 -27
38 30 -3 17 -13 32 -30 32 -37 0 -8 -21 -32 -47 -54 l-48 -40 54 10 c67 12 83
6 75 -27 -8 -33 7 -32 39 5 15 17 34 30 42 30 8 0 15 7 15 15 0 19 -68 95 -85
95 -7 0 -95 54 -195 120 -100 66 -187 120 -193 120 -7 0 26 -38 73 -83z"/>
<path d="M3339 4681 c-20 -16 -21 -22 -11 -47 6 -16 14 -89 18 -162 4 -78 10
-130 15 -125 13 13 59 239 59 289 0 63 -35 83 -81 45z"/>
<path d="M350 4296 c0 -12 145 -217 274 -386 272 -357 518 -640 556 -640 18 0
-25 54 -153 195 -124 135 -247 285 -382 465 -64 85 -151 196 -282 360 -7 8
-13 11 -13 6z"/>
<path d="M4695 4129 c4 -17 24 -82 45 -145 21 -63 37 -114 36 -114 -1 0 -33
30 -71 68 -87 85 -94 69 -31 -64 26 -54 44 -99 42 -101 -2 -3 -41 39 -86 91
-50 59 -89 96 -101 96 -32 0 -25 -19 66 -181 33 -59 68 -121 77 -138 17 -30
43 -49 54 -38 3 3 -4 27 -15 53 -12 26 -19 49 -17 51 2 3 23 -24 47 -59 52
-78 79 -108 96 -108 21 0 15 53 -12 112 -25 53 -36 113 -14 76 13 -22 48 -23
56 -2 3 9 -11 59 -32 112 -20 54 -51 138 -67 187 -16 50 -36 100 -44 113 -21
33 -37 28 -29 -9z"/>
<path d="M3800 4114 c0 -24 781 -864 802 -864 5 0 -4 19 -21 43 -45 61 -740
814 -758 821 -19 8 -23 7 -23 0z"/>
<path d="M3797 4019 c10 -17 62 -81 116 -142 105 -120 142 -167 132 -167 -4 0
-35 20 -69 45 -178 127 -315 177 -158 58 69 -53 169 -152 122 -120 -120 79
-326 185 -337 173 -9 -9 45 -64 140 -143 43 -36 76 -67 73 -70 -2 -2 -35 18
-73 45 -106 76 -150 99 -163 86 -17 -17 28 -64 165 -173 116 -92 291 -258 282
-267 -2 -3 -47 22 -98 54 -128 80 -204 122 -219 122 -27 0 36 -52 149 -122
192 -118 373 -245 428 -298 59 -57 76 -62 71 -22 -1 15 1 49 5 75 l8 48 -93
98 c-136 143 -261 281 -253 281 4 0 63 -48 132 -106 161 -137 192 -157 209
-143 8 6 25 8 39 5 17 -4 25 -2 25 7 0 18 -41 66 -245 287 -94 102 -215 235
-270 295 -54 61 -104 113 -109 117 -23 16 -26 7 -9 -23z m-2 -287 c-7 -7 -45
29 -45 41 0 6 11 0 25 -13 14 -13 23 -26 20 -28z m485 -296 c0 -6 -34 23 -75
64 -41 41 -75 79 -75 84 0 6 34 -23 75 -64 41 -41 75 -79 75 -84z"/>
<path d="M492 3878 c-7 -7 -12 -29 -12 -50 0 -33 4 -39 36 -54 19 -9 59 -47
89 -83 30 -36 90 -111 135 -166 44 -55 116 -144 159 -197 44 -53 108 -138 144
-190 76 -109 103 -136 118 -121 6 6 8 20 5 30 -15 46 -122 213 -238 369 -69
93 -151 208 -183 257 -46 68 -64 87 -82 87 -13 0 -26 -7 -29 -15 -11 -28 -25
-15 -54 49 -28 61 -53 96 -69 96 -4 0 -12 -5 -19 -12z"/>
<path d="M56 3808 c-29 -40 -14 -78 30 -78 28 0 47 23 47 56 0 46 -51 60 -77
22z"/>
<path d="M406 3698 c-28 -40 -14 -78 29 -78 27 0 65 39 65 67 0 38 -70 46 -94
11z"/>
<path d="M175 3699 c-14 -22 8 -62 77 -141 84 -98 74 -113 -29 -44 -71 48
-113 59 -113 29 0 -23 106 -124 255 -242 174 -139 254 -186 270 -161 9 14 -30
55 -157 167 -53 47 -99 91 -102 99 -11 28 16 13 70 -41 32 -32 83 -68 120 -85
58 -28 72 -42 175 -173 171 -215 265 -307 284 -277 9 15 -18 55 -155 230 -67
85 -126 165 -132 177 -9 19 -6 27 26 56 51 48 47 88 -11 121 -8 4 -26 -8 -48
-31 -19 -20 -36 -35 -38 -33 -2 3 -19 28 -39 55 -53 73 -85 102 -100 87 -18
-18 -38 -15 -76 14 -28 22 -36 24 -43 13 -17 -25 -39 19 -39 78 l0 53 -45 0
c-34 0 -55 7 -87 30 -45 33 -53 35 -63 19z"/>
<path d="M607 3552 c-21 -23 -22 -51 -1 -80 19 -28 35 -28 62 1 27 29 28 47 2
75 -25 27 -42 28 -63 4z"/>
<path d="M28 3512 c-23 -5 -34 -48 -18 -67 19 -23 66 -19 84 7 14 20 14 24 0
39 -17 19 -41 27 -66 21z"/>
<path d="M150 3353 c0 -10 51 -67 113 -128 61 -60 124 -131 139 -156 15 -25
83 -111 151 -190 67 -79 150 -178 184 -219 78 -97 91 -108 104 -89 14 20 2 68
-26 109 -13 19 -89 109 -169 200 -79 91 -143 167 -141 168 8 9 104 -68 245
-197 139 -126 230 -196 230 -174 0 4 -30 33 -66 63 -36 30 -135 128 -220 216
-99 104 -180 179 -226 210 -40 27 -111 77 -158 110 -77 56 -140 94 -155 94 -3
0 -5 -8 -5 -17z"/>
<path d="M3230 3245 c18 -46 49 -100 119 -205 39 -58 71 -110 71 -116 0 -18
53 -35 114 -37 69 -1 86 12 62 48 -21 31 -45 43 -56 25 -10 -17 -80 48 -168
155 -117 143 -163 185 -142 130z"/>
<path d="M2343 3190 c-34 -8 -49 -17 -95 -59 -36 -32 -35 -41 6 -41 l33 0 6
-87 c4 -47 11 -91 16 -96 11 -11 34 38 55 119 8 29 24 67 36 83 40 57 12 96
-57 81z m-3 -145 c-16 -50 -34 -45 -26 7 9 53 16 65 28 44 6 -11 5 -29 -2 -51z"/>
<path d="M8570 3073 c0 -13 142 -23 319 -23 263 0 562 -28 716 -66 221 -55
844 -278 951 -340 43 -25 99 -33 92 -12 -6 17 -111 68 -318 153 -255 106 -276
113 -440 157 -291 77 -427 107 -525 118 -142 15 -795 26 -795 13z"/>
<path d="M2566 3038 c16 -18 65 -70 107 -116 43 -45 75 -87 72 -92 -3 -6 -18
-10 -31 -10 -52 0 -16 -25 55 -39 61 -12 76 -12 97 0 39 21 46 41 28 92 -18
54 -41 78 -49 53 -3 -9 -7 -23 -10 -31 -6 -22 -32 -7 -170 94 -118 86 -147
101 -99 49z"/>
<path d="M1715 2768 c-4 -25 -5 -107 -4 -182 4 -119 6 -137 23 -149 22 -16 14
-37 -15 -37 -26 0 -25 -34 3 -60 26 -24 61 -26 82 -4 20 19 20 47 2 82 -8 15
-26 103 -40 196 -30 192 -41 223 -51 154z"/>
<path d="M383 2770 c-50 -20 -16 -91 107 -222 l72 -78 -57 0 c-76 0 -95 -11
-95 -57 0 -33 11 -48 123 -160 145 -148 272 -259 329 -290 51 -29 101 -30 128
-3 25 25 26 50 2 50 -71 0 -209 92 -381 256 -147 140 -141 143 67 44 110 -52
149 -67 159 -58 26 21 12 46 -64 119 -43 41 -120 115 -172 164 -116 111 -151
158 -151 200 0 42 -21 53 -67 35z"/>
<path d="M3867 2695 c-16 -39 -37 -234 -37 -331 0 -95 2 -104 21 -114 50 -28
99 16 73 65 -20 39 -33 140 -35 260 0 107 -10 154 -22 120z m0 -322 c-3 -10
-5 -2 -5 17 0 19 2 27 5 18 2 -10 2 -26 0 -35z"/>
<path d="M3086 2650 c34 -116 105 -286 126 -303 27 -23 96 -20 112 5 8 13 5
22 -13 40 -41 42 -128 156 -177 233 -26 41 -51 75 -55 75 -4 0 -1 -23 7 -50z"/>
<path d="M8934 2667 c-12 -31 1 -52 42 -67 52 -19 72 -36 76 -62 6 -43 126
-119 268 -171 171 -63 424 -175 523 -233 82 -47 122 -54 122 -19 0 28 -124
102 -431 255 -227 113 -266 136 -309 181 -81 85 -273 162 -291 116z"/>
<path d="M1990 2660 c0 -18 243 -188 326 -227 30 -15 35 -15 58 1 50 32 26 70
-59 91 -33 9 -115 45 -182 80 -123 66 -143 73 -143 55z"/>
<path d="M6380 2506 c0 -8 40 -35 89 -60 49 -25 109 -62 132 -82 39 -32 44
-34 48 -18 5 28 -69 89 -164 135 -88 42 -105 46 -105 25z"/>
<path d="M5780 2465 c-113 -13 -206 -23 -207 -24 -2 -1 -3 -7 -3 -15 0 -32
114 -53 346 -62 159 -7 162 -7 173 14 10 18 21 22 67 22 47 0 56 3 63 23 12
31 -4 45 -68 57 -72 14 -130 11 -371 -15z"/>
<path d="M2660 2358 c0 -8 9 -44 21 -79 37 -116 89 -329 89 -367 0 -50 14 -62
72 -62 44 0 48 2 48 24 0 12 -25 73 -55 135 -30 62 -75 162 -101 224 -45 110
-74 160 -74 125z"/>
<path d="M8640 2296 c0 -8 11 -17 25 -20 13 -3 38 -21 55 -39 l31 -32 -7 30
c-12 54 -31 75 -69 75 -23 0 -35 -5 -35 -14z"/>
<path d="M2700 2068 c0 -7 9 -31 19 -53 16 -32 20 -36 20 -17 1 22 -24 82 -34
82 -3 0 -5 -6 -5 -12z"/>
<path d="M1896 2027 c3 -9 31 -37 62 -64 173 -150 262 -191 291 -135 18 36 -5
54 -160 127 -178 84 -201 93 -193 72z"/>
<path d="M8815 2010 c-9 -15 17 -53 49 -69 23 -13 28 -13 43 2 15 15 14 18
-16 46 -34 31 -65 40 -76 21z"/>
<path d="M9166 1892 c-11 -18 30 -57 118 -113 88 -57 126 -71 126 -47 0 19
-82 90 -151 131 -65 38 -84 44 -93 29z"/>
<path d="M5913 1793 c9 -2 23 -2 30 0 6 3 -1 5 -18 5 -16 0 -22 -2 -12 -5z"/>
<path d="M6165 1518 c-36 -19 -126 -111 -227 -232 -109 -130 -128 -160 -110
-178 24 -24 67 7 204 144 180 181 221 233 208 259 -12 21 -44 24 -75 7z"/>
</g>
</svg>
