<?xml version="1.0" standalone="no"?>
<!DOCTYPE svg PUBLIC "-//W3C//DTD SVG 20010904//EN"
 "http://www.w3.org/TR/2001/REC-SVG-20010904/DTD/svg10.dtd">
<svg version="1.0" xmlns="http://www.w3.org/2000/svg"
 width="1280.000000pt" height="1280.000000pt" viewBox="0 0 1280.000000 1280.000000"
 preserveAspectRatio="xMidYMid meet">
<metadata>
Created by potrace 1.15, written by Peter Selinger 2001-2017
</metadata>
<g transform="translate(0.000000,1280.000000) scale(0.100000,-0.100000)"
fill="#000000" stroke="none">
<path d="M6301 12589 c-245 -48 -438 -208 -529 -437 -24 -61 -26 -80 -27 -202
0 -154 13 -218 71 -338 44 -91 155 -211 242 -263 l61 -35 -139 -215 c-76 -118
-192 -297 -258 -399 -66 -102 -222 -342 -347 -535 -125 -192 -295 -455 -377
-583 l-150 -232 -1302 2 -1301 3 -7 60 c-30 274 -284 537 -593 616 -100 25
-272 28 -360 4 -179 -47 -319 -161 -398 -326 -64 -132 -77 -202 -73 -379 2
-132 6 -153 33 -226 85 -234 261 -405 462 -450 125 -28 314 -5 421 52 35 19
67 31 71 26 7 -6 237 -397 464 -787 29 -49 209 -358 400 -685 191 -327 378
-647 415 -712 l68 -116 -172 -294 c-95 -161 -307 -520 -471 -798 -164 -278
-390 -661 -502 -852 l-204 -347 -51 30 c-72 43 -146 60 -284 66 -105 5 -131 3
-190 -15 -191 -58 -351 -223 -427 -440 -29 -80 -31 -99 -33 -237 -3 -123 1
-164 17 -225 64 -247 222 -419 444 -486 92 -28 286 -26 385 5 86 27 172 68
250 121 75 51 197 182 243 260 45 79 87 205 87 266 l0 44 1307 -2 1307 -3 151
-232 c82 -128 303 -469 490 -758 334 -515 408 -630 552 -853 l72 -111 -52 -29
c-77 -44 -155 -118 -208 -200 -88 -135 -124 -276 -117 -452 8 -166 57 -276
179 -399 132 -132 304 -201 502 -201 138 0 213 17 337 78 164 80 285 222 336
397 20 70 23 216 4 315 -34 185 -143 351 -298 452 -35 23 -61 46 -59 52 3 6
109 171 235 366 127 195 340 524 473 730 134 206 313 482 398 613 l154 237
1301 0 1302 0 11 -72 c21 -148 90 -275 218 -403 332 -330 831 -325 1071 10 94
133 136 275 137 465 0 226 -63 381 -218 535 -132 132 -231 175 -400 175 -130
-1 -234 -22 -308 -63 l-63 -35 -231 392 c-126 215 -364 618 -528 896 -164 278
-362 615 -441 748 -79 134 -144 249 -144 255 0 6 50 96 112 201 61 105 174
299 251 431 78 132 207 353 287 490 81 138 268 457 415 710 147 253 271 464
275 468 4 5 32 -5 61 -22 65 -36 153 -58 274 -67 171 -12 313 44 446 176 63
63 85 94 128 181 70 142 85 206 84 359 -2 221 -61 377 -193 511 -170 172 -421
227 -685 148 -285 -85 -523 -345 -550 -602 l-7 -67 -1302 0 -1301 0 -98 153
c-54 83 -257 396 -450 695 -194 298 -432 665 -529 816 -98 150 -180 280 -183
287 -3 9 14 25 48 46 228 136 359 431 313 700 -24 137 -78 237 -186 345 -73
72 -103 94 -181 131 -142 69 -302 93 -438 66z"/>
</g>
</svg>
