<?xml version="1.0" standalone="no"?>
<!DOCTYPE svg PUBLIC "-//W3C//DTD SVG 20010904//EN"
 "http://www.w3.org/TR/2001/REC-SVG-20010904/DTD/svg10.dtd">
<svg version="1.0" xmlns="http://www.w3.org/2000/svg"
 width="1280.000000pt" height="757.000000pt" viewBox="0 0 1280.000000 757.000000"
 preserveAspectRatio="xMidYMid meet">
<metadata>
Created by potrace 1.15, written by Peter Selinger 2001-2017
</metadata>
<g transform="translate(0.000000,757.000000) scale(0.100000,-0.100000)"
fill="#000000" stroke="none">
<path d="M9443 7558 c-43 -55 5 -173 81 -198 19 -6 36 -19 39 -29 4 -16 -6
-19 -107 -25 -61 -3 -169 -6 -239 -6 l-128 0 -98 101 c-54 56 -103 99 -109 95
-6 -3 -13 -37 -17 -74 -3 -37 -8 -78 -11 -92 l-5 -25 -103 3 c-99 4 -176 -8
-176 -28 0 -4 19 -6 43 -3 23 2 71 -3 107 -11 l65 -16 -94 5 c-103 5 -111 0
-29 -20 l53 -13 -90 -1 c-49 -1 -108 -3 -130 -6 -40 -5 -40 -5 -7 5 38 12 40
25 9 64 l-23 28 -245 -41 c-309 -52 -497 -71 -943 -96 -137 -7 -253 -18 -259
-24 -6 -6 -3 -22 12 -46 11 -20 21 -37 21 -38 0 -1 -1101 -2 -2446 -2 l-2446
0 -13 33 c-9 19 -21 32 -32 32 -17 -1 -17 -1 0 -11 21 -12 23 -57 2 -65 -9 -4
-68 0 -133 7 -75 8 -108 15 -92 19 25 7 25 7 -5 13 -77 17 -404 49 -525 52
-74 2 -216 7 -315 11 l-180 7 55 18 c41 13 90 18 194 18 77 1 137 3 135 5 -2
3 -74 7 -160 10 -129 4 -164 9 -205 26 -27 12 -71 31 -99 41 l-50 19 25 -20
25 -20 -29 10 c-16 6 -44 24 -63 40 -19 17 -39 30 -46 30 -7 0 -3 -7 7 -15 11
-8 17 -15 14 -15 -16 0 -178 81 -178 90 0 5 -6 7 -14 4 -8 -3 -27 1 -43 9 -15
8 -50 18 -76 22 -27 4 -44 11 -41 17 4 6 -2 8 -12 6 -11 -2 -20 -12 -22 -23
-1 -11 -6 -58 -11 -105 -9 -78 -12 -87 -40 -111 -38 -31 -38 -37 -3 -50 24 -9
25 -12 9 -20 -15 -9 -17 -24 -15 -115 1 -104 7 -122 40 -138 10 -5 10 -7 1
-12 -9 -4 -13 -36 -14 -102 l-2 -97 -12 100 c-7 55 -13 90 -14 78 -1 -29 -17
-30 -24 -3 -5 20 -6 20 -41 3 -38 -18 -50 -39 -16 -28 18 6 19 4 9 -22 -27
-69 -17 -884 11 -985 6 -21 20 -43 31 -49 15 -7 314 -7 1063 0 1215 13 1506
13 1456 0 -41 -10 -1209 -28 -1861 -29 -251 0 -497 -3 -548 -7 l-91 -6 6 -36
c9 -50 38 -77 69 -63 13 6 25 8 28 6 5 -5 322 -4 452 1 28 1 442 7 920 13 479
6 923 14 988 17 136 6 120 20 162 -135 14 -52 35 -122 46 -156 l19 -60 128
-12 c94 -8 305 -9 807 -2 374 5 816 9 982 10 254 0 304 2 317 15 23 24 25 18
9 -36 -20 -67 -14 -156 14 -195 11 -16 23 -42 27 -59 4 -16 13 -43 20 -60 41
-95 89 -234 90 -257 1 -34 -17 -38 -25 -6 -6 23 -6 22 -14 -5 -4 -15 -4 -43
-1 -62 4 -20 2 -44 -5 -56 -14 -27 -15 -137 0 -152 6 -6 7 -16 1 -27 -12 -22
14 -226 35 -276 9 -21 26 -49 38 -63 45 -48 76 -54 327 -61 141 -5 251 -12
275 -20 50 -16 171 -76 180 -90 3 -5 16 -10 28 -10 12 -1 38 -9 57 -20 28 -15
31 -19 14 -20 -12 0 -27 7 -34 15 -28 33 -19 2 29 -102 77 -169 91 -221 96
-342 4 -102 21 -222 45 -313 49 -181 227 -359 485 -483 232 -111 588 -204 840
-218 103 -6 94 -4 -103 24 -326 45 -697 169 -889 296 -103 68 -199 168 -238
247 -73 149 -98 329 -71 525 8 62 16 114 18 115 2 2 12 9 24 17 11 8 42 41 69
74 26 33 66 79 88 103 l41 42 -34 1 c-28 1 -21 4 30 15 36 8 70 21 76 29 6 8
16 15 21 15 6 0 39 13 74 29 88 40 155 58 284 77 61 9 119 17 130 19 11 2 41
4 68 4 35 1 47 5 47 16 0 17 -16 20 -25 5 -10 -16 -38 -12 -31 5 7 18 -29 20
-71 4 -15 -6 -44 -13 -63 -14 -69 -6 -130 -18 -130 -25 0 -7 -36 -17 -90 -26
-46 -8 -129 -33 -155 -46 -78 -41 -169 -59 -340 -68 l-170 -9 -91 50 c-107 57
-221 102 -236 93 -8 -5 -9 11 -5 56 4 35 7 109 7 166 0 99 1 104 23 109 38 9
1003 26 1458 26 420 -1 437 -1 483 -21 26 -12 52 -19 59 -17 7 3 4 8 -8 12
-59 20 -58 24 7 24 61 1 69 -1 84 -24 22 -34 5 -57 -38 -48 -22 4 -29 3 -24
-5 4 -7 13 -12 21 -12 22 0 27 -18 13 -50 -9 -21 -20 -30 -35 -30 -13 0 -23
-4 -23 -10 0 -5 5 -10 10 -10 6 0 10 -6 10 -12 0 -7 18 -33 40 -56 50 -55 51
-66 3 -58 -21 4 -49 7 -63 7 -14 1 -28 6 -32 12 -6 9 -8 9 -8 -1 0 -8 -9 -11
-26 -8 -15 3 -35 1 -45 -4 -13 -8 -20 -6 -28 7 -6 10 -11 12 -11 6 0 -14 -81
-19 -94 -6 -10 11 -80 10 -87 0 -4 -5 -15 -4 -26 1 -16 9 -21 6 -32 -19 -11
-26 -17 -29 -54 -27 -36 1 -37 2 -10 5 51 7 59 28 10 30 -22 2 -45 8 -50 15
-6 9 -7 8 -3 -4 6 -19 -3 -21 -44 -8 -24 8 -24 8 -2 9 12 1 22 6 22 12 0 8
-12 9 -37 4 -49 -9 -61 -17 -38 -25 17 -6 16 -8 -5 -28 l-24 -22 73 0 c71 0
74 -1 106 -36 70 -76 125 -211 125 -308 0 -78 -29 -253 -54 -322 -71 -195
-255 -376 -463 -454 -87 -33 -102 -50 -79 -85 15 -23 54 -35 113 -35 94 0 310
172 420 336 71 104 122 249 124 349 1 27 5 61 9 75 7 22 8 20 9 -15 2 -65 -27
-217 -49 -260 -11 -21 -20 -54 -20 -73 0 -25 -5 -35 -20 -39 -12 -3 -22 -17
-26 -38 -3 -20 -25 -52 -57 -85 -35 -35 -44 -49 -27 -40 14 7 35 25 48 41 28
35 34 36 48 7 9 -19 6 -28 -20 -58 -17 -19 2 -3 42 35 74 70 152 175 152 202
0 8 7 22 16 31 11 10 13 17 5 20 -6 2 -2 16 13 35 30 40 42 77 25 77 -8 0 -6
7 5 19 13 14 19 47 25 137 4 66 13 129 19 141 7 13 46 38 90 59 42 19 104 49
138 65 34 16 83 49 110 74 l49 46 50 -23 c70 -33 181 -107 242 -162 47 -42 51
-49 38 -63 -18 -17 -19 -32 -4 -70 5 -15 6 -29 2 -30 -5 -2 -5 -37 0 -81 11
-95 4 -192 -19 -263 -25 -81 -128 -291 -152 -313 -12 -11 -22 -26 -22 -34 0
-9 -3 -13 -6 -10 -3 3 -24 -12 -47 -34 -108 -102 -254 -183 -384 -214 -49 -12
-120 -17 -258 -17 -173 -1 -206 2 -369 31 -135 25 -201 42 -270 71 -50 21
-107 42 -126 46 -52 11 -237 94 -293 132 -27 18 -51 33 -54 33 -3 0 -31 21
-63 46 -48 38 -63 57 -83 108 -48 120 -61 293 -32 430 19 89 13 96 -10 12 -27
-98 -17 -324 18 -423 50 -144 131 -245 273 -339 222 -147 621 -277 974 -315
117 -13 362 -6 425 11 145 41 229 87 333 185 120 112 204 266 261 478 12 42
20 61 20 45 1 -34 21 -38 21 -4 0 16 7 26 23 30 12 3 23 1 25 -4 2 -5 19 -29
38 -54 40 -52 102 -97 158 -116 57 -18 215 -8 435 29 203 34 310 38 414 16
129 -27 164 -71 174 -215 7 -99 -18 -174 -101 -300 -74 -113 -86 -143 -86
-224 0 -79 28 -137 115 -241 37 -44 71 -90 76 -103 21 -55 4 -205 -31 -277
-11 -22 -50 -74 -86 -115 -93 -105 -104 -125 -104 -191 0 -137 76 -235 265
-339 112 -62 155 -97 155 -126 0 -22 -17 -16 -41 14 l-21 27 5 -220 c6 -249
11 -275 79 -362 105 -137 367 -286 593 -338 39 -8 102 -23 140 -33 55 -13 113
-17 265 -17 278 1 465 34 766 133 371 123 663 282 758 411 55 74 66 110 66
208 0 91 -5 113 -74 336 -44 144 -107 454 -181 892 -115 679 -142 804 -230
1070 -63 192 -142 375 -226 528 -71 129 -251 424 -313 512 -23 33 -45 68 -48
77 -6 15 -181 297 -236 381 -16 23 -28 34 -32 27 -4 -7 -10 2 -13 19 -5 21
-37 62 -98 126 l-92 95 34 202 c25 148 34 234 34 318 0 109 -2 118 -33 182
-36 76 -51 87 -157 113 -192 47 -447 135 -635 220 -129 58 -298 150 -325 177
-20 20 -20 20 3 35 12 9 22 23 22 32 0 51 138 207 275 312 94 71 122 98 66 62
-131 -82 -282 -231 -336 -331 l-27 -51 -30 22 c-21 16 -28 28 -25 44 3 15 -1
23 -9 23 -8 0 -14 6 -14 13 0 6 -5 4 -11 -7 -9 -14 -8 -20 2 -27 10 -6 11 -9
2 -9 -7 0 -22 9 -32 19 -10 10 -30 22 -43 26 -44 15 -69 38 -89 86 -19 43 -49
73 -49 49 0 -5 -7 -7 -15 -4 -8 4 -15 1 -15 -6 0 -6 9 -14 20 -17 20 -5 28
-23 11 -23 -12 0 -61 40 -61 49 0 4 12 13 26 20 15 6 24 14 21 17 -3 4 -19 -3
-35 -15 l-29 -20 -26 27 c-19 20 -27 40 -29 77 -3 42 -6 50 -25 53 -12 2 -23
9 -25 15 -6 16 10 239 17 246 8 7 121 -23 192 -51 50 -20 62 -31 105 -95 38
-57 58 -76 100 -97 61 -30 140 -34 203 -10 22 9 50 18 61 21 12 3 36 18 54 35
34 31 107 65 117 54 3 -3 11 -2 17 3 16 14 298 89 395 106 46 8 103 15 127 15
37 0 44 -3 44 -19 0 -27 -3 -28 -127 -55 -114 -26 -278 -75 -271 -81 2 -3 49
8 104 24 54 16 160 41 234 56 74 15 141 32 148 37 6 6 12 30 12 53 0 45 -12
58 -48 49 -18 -5 -120 37 -172 72 -20 13 -19 11 5 -12 17 -16 41 -36 55 -45
38 -26 16 -34 -53 -20 -42 8 -80 24 -119 52 -77 53 -75 31 2 -25 43 -32 55
-46 44 -50 -21 -8 -124 5 -124 15 0 5 -6 9 -12 9 -7 0 -33 16 -57 35 -24 19
-49 35 -55 35 -12 -1 30 -39 87 -77 20 -14 37 -29 37 -34 0 -29 -111 -14 -168
23 -75 50 -86 48 -29 -4 32 -29 57 -56 57 -60 0 -5 -24 -8 -54 -8 -48 0 -63 5
-122 45 -36 25 -68 45 -70 45 -16 0 6 -24 63 -70 57 -46 64 -55 47 -61 -42
-16 -173 18 -159 41 5 9 -55 40 -76 40 -23 0 -4 -24 56 -71 36 -28 63 -55 59
-60 -11 -18 -62 -8 -104 20 -42 28 -43 28 -91 13 -51 -16 -49 -32 2 -32 34 0
59 -27 38 -40 -29 -19 -103 -23 -143 -9 -30 11 -52 30 -91 81 -57 77 -100 103
-238 144 -97 29 -121 51 -92 84 15 17 14 17 -29 13 -33 -4 -47 -2 -50 8 -10
33 -17 221 -7 215 15 -10 20 5 31 102 14 121 14 122 65 122 48 0 67 16 58 48
-4 16 -17 25 -47 32 -58 14 -125 49 -130 69 -2 9 -7 27 -11 39 -6 21 -4 23 14
17 13 -4 21 -2 21 6 0 9 -19 10 -75 6 -63 -6 -75 -4 -75 8 0 18 -14 19 -27 3z
m-601 -280 l23 -13 -25 -2 c-14 -2 -56 6 -95 17 l-70 20 72 -4 c40 -3 82 -11
95 -18z m123 2 c10 -11 16 -20 13 -20 -3 0 -13 9 -23 20 -10 11 -16 20 -13 20
3 0 13 -9 23 -20z m-50 -10 c3 -5 2 -10 -4 -10 -5 0 -13 5 -16 10 -3 6 -2 10
4 10 5 0 13 -4 16 -10z m717 -20 c-9 -67 -22 -98 -47 -104 -15 -4 -25 -14 -25
-25 0 -10 -3 -38 -6 -63 -6 -42 -4 -46 17 -51 23 -6 24 -9 19 -69 l-5 -63 -94
-8 c-51 -4 -157 -4 -235 0 -128 7 -141 10 -138 26 3 15 0 16 -17 5 -11 -7 -23
-9 -26 -6 -4 4 -1 92 6 197 l12 191 271 -2 271 -3 -3 -25z m-8802 -10 c0 -5
-2 -10 -4 -10 -3 0 -8 5 -11 10 -3 6 -1 10 4 10 6 0 11 -4 11 -10z m70 -15
c14 -8 21 -14 15 -14 -5 0 -21 6 -35 14 -14 8 -20 14 -15 14 6 0 21 -6 35 -14z
m7463 -32 c-7 -2 -21 -2 -30 0 -10 3 -4 5 12 5 17 0 24 -2 18 -5z m565 -80 l3
-82 -37 -16 c-32 -13 -148 -15 -915 -15 l-879 0 0 39 c0 29 5 41 18 45 9 2 91
7 182 11 317 11 444 23 930 82 78 10 39 -5 -45 -17 -299 -42 -472 -58 -740
-70 -288 -12 -321 -16 -329 -37 -5 -11 -2 -14 11 -8 10 3 133 13 273 21 427
24 590 42 1000 109 121 19 177 23 335 22 l190 -2 3 -82z m-7541 11 c-3 -3 -12
-4 -19 -1 -8 3 -5 6 6 6 11 1 17 -2 13 -5z m50 0 c-3 -3 -12 -4 -19 -1 -8 3
-5 6 6 6 11 1 17 -2 13 -5z m218 -14 c140 -14 178 -20 172 -26 -8 -8 -318 26
-342 37 -15 7 -10 8 20 4 22 -2 90 -9 150 -15z m-1140 -90 c3 -5 1 -10 -4 -10
-6 0 -11 5 -11 10 0 6 2 10 4 10 3 0 8 -4 11 -10z m300 1 c11 -5 30 -4 43 0
17 7 28 4 44 -11 l22 -20 -275 1 c-166 1 -254 5 -224 9 28 4 60 6 73 3 12 -3
36 0 53 7 25 11 32 11 39 1 5 -10 9 -10 14 -2 4 6 12 9 17 6 5 -4 9 -1 9 4 0
13 154 14 185 2z m605 -11 c75 0 110 -4 100 -10 -20 -12 -567 -13 -574 -1 -9
15 53 19 214 15 80 -2 197 -4 260 -4z m683 -7 c-18 -2 -48 -2 -65 0 -18 2 -4
4 32 4 36 0 50 -2 33 -4z m392 -2 l40 -9 -45 -1 c-25 0 -52 4 -60 9 -12 8 -12
10 5 9 11 0 38 -4 60 -8z m4588 -45 c9 -23 -51 -27 -293 -24 l-215 3 232 3
c189 2 235 5 245 17 17 18 24 19 31 1z m-845 -23 c-26 -2 -71 -2 -100 0 -29 2
-8 3 47 3 55 0 79 -1 53 -3z m319 1 c-3 -3 -12 -4 -19 -1 -8 3 -5 6 6 6 11 1
17 -2 13 -5z m-1432 -26 c4 -3 3 -54 -1 -112 l-7 -106 -91 0 c-50 0 -98 4
-105 9 -10 7 -16 30 -17 73 l-1 63 6 -55 6 -55 9 73 c6 55 5 76 -5 88 -12 14
-59 16 -420 12 -224 -1 -411 -7 -416 -11 -4 -5 -10 -53 -11 -108 l-4 -99 -115
0 -116 0 6 75 c3 41 2 77 -3 80 -5 3 -11 -23 -13 -57 -3 -51 -4 -47 -4 22 l0
85 -418 8 c-229 5 -420 5 -424 2 -3 -4 -6 -54 -6 -111 l0 -104 -115 2 c-99 1
-106 2 -48 7 37 3 73 12 80 20 11 11 9 12 -9 6 -27 -8 -29 2 -7 33 14 21 14
22 -5 22 -12 0 -21 5 -21 10 0 6 9 10 20 10 11 0 20 4 20 10 0 5 -6 8 -12 5
-7 -2 -26 12 -41 31 -25 30 -27 34 -10 34 15 0 16 2 3 10 -9 6 -191 10 -464
10 -247 0 -446 3 -442 7 14 14 3187 25 3201 11z m650 -28 c43 -4 55 -7 33 -8
-21 -1 -38 -5 -38 -9 0 -6 -526 -10 -564 -4 -5 0 -6 4 -2 9 15 14 458 24 571
12z m-3915 -111 l0 -99 -27 1 c-20 1 -22 3 -9 6 16 4 18 12 11 66 -3 34 -11
66 -16 72 -15 15 -10 43 8 54 10 5 21 7 25 5 5 -3 8 -50 8 -105z m1595 92
l120 -6 -95 -8 c-135 -12 -392 -5 -397 10 -8 24 18 24 372 4z m173 4 c14 -14
-10 -14 -39 0 l-34 15 34 -5 c19 -3 37 -7 39 -10z m712 6 c126 2 195 1 225 -2
17 -1 56 0 88 4 42 4 57 2 54 -6 -5 -15 -479 -28 -517 -15 -37 14 -5 30 45 24
22 -3 69 -5 105 -5z m-2030 -15 c75 -13 74 -13 -122 -15 -112 0 -199 3 -203 8
-13 22 213 26 325 7z m407 -129 c-2 -23 -3 -1 -3 48 0 50 1 68 3 42 2 -26 2
-67 0 -90z m-2520 101 c-3 -8 -6 -5 -6 6 -1 11 2 17 5 13 3 -3 4 -12 1 -19z
m9317 14 l169 -3 -6 -208 c-4 -115 -10 -216 -13 -225 -6 -14 -64 -16 -598 -15
-325 1 -580 4 -566 8 28 8 41 41 15 41 -9 0 -13 5 -10 10 3 6 -1 17 -9 26 -9
8 -16 26 -16 39 0 12 -8 33 -18 46 l-19 22 -12 -34 c-12 -32 -13 -33 -21 -12
-10 23 -3 63 11 63 14 0 10 66 -4 78 -10 9 -17 6 -30 -8 -9 -11 -17 -24 -17
-29 0 -5 -465 -12 -1032 -17 -568 -4 -1036 -9 -1040 -10 -5 -1 -75 -2 -158 -3
l-150 -1 0 -65 c0 -50 -4 -67 -15 -72 -9 -3 -189 -2 -400 2 l-385 7 0 88 0 87
343 6 c412 7 446 13 657 118 92 45 150 63 150 45 0 -7 -5 -17 -11 -23 -6 -6
-9 -23 -7 -39 2 -23 9 -30 30 -32 61 -7 90 45 48 83 -11 10 -20 22 -20 27 0 8
2743 8 3134 0z m-8775 -84 c0 -56 -3 -76 -9 -63 -16 38 -11 145 7 145 2 0 3
-37 2 -82z m9696 -188 c-3 -5 -13 -10 -21 -10 -8 0 -12 5 -9 10 3 6 13 10 21
10 8 0 12 -4 9 -10z m-2005 -82 c-1 -7 -7 -24 -15 -38 -15 -26 -19 -12 -9 28
7 23 24 31 24 10z m-2395 -137 c-2 -14 -7 -43 -10 -64 -3 -21 -10 -35 -16 -32
-11 7 -13 138 -2 149 13 12 32 -25 28 -53z m-5818 -8 c10 -38 10 -229 0 -239
-18 -18 -27 28 -27 144 0 118 11 156 27 95z m4927 -122 c-3 -51 -9 -89 -13
-84 -7 9 -1080 0 -1826 -16 -981 -21 -1215 -23 -1555 -12 -356 11 -535 23
-700 45 -69 10 -97 10 -102 2 -6 -8 -11 -6 -18 4 -29 44 -5 56 130 64 530 29
1101 50 1795 66 253 6 654 15 890 20 671 15 1212 31 1305 38 104 9 104 8 94
-127z m836 47 c0 -128 1 -125 -78 -116 -37 4 -143 3 -237 -3 -93 -6 -237 -9
-320 -7 l-150 3 -3 80 c-1 56 1 75 8 65 8 -12 10 -9 10 14 l0 28 158 -1 c86
-1 209 -3 272 -4 198 -3 302 1 313 12 22 22 27 9 27 -71z m3796 11 c245 -197
670 -437 961 -545 115 -42 130 -57 26 -26 -37 12 -88 24 -113 28 -32 5 -39 9
-26 14 15 5 7 11 -35 28 -65 26 -110 31 -116 15 -3 -8 5 -13 19 -14 13 0 32
-5 43 -10 14 -7 7 -8 -28 -4 -55 6 -99 -12 -119 -48 -7 -12 -18 -91 -24 -175
-9 -124 -15 -156 -30 -173 -19 -21 -19 -21 1 -18 19 4 20 -1 17 -61 -2 -36
-10 -112 -18 -169 -8 -58 -14 -121 -14 -142 0 -44 -9 -71 -21 -63 -5 3 -21
-20 -36 -51 -17 -34 -32 -54 -40 -51 -7 3 -13 1 -13 -5 0 -6 -13 -22 -30 -35
-25 -22 -28 -28 -17 -45 6 -10 18 -19 27 -19 8 0 2 -11 -17 -27 -17 -16 -36
-37 -43 -48 -8 -14 -10 -15 -6 -2 6 20 -5 22 -22 5 -7 -7 -12 -8 -12 -2 0 6 5
15 12 22 9 9 9 12 -1 12 -7 0 -10 4 -7 9 3 5 -6 9 -20 9 -22 0 -25 -4 -20 -24
7 -26 -3 -31 -23 -11 -11 10 -14 10 -18 0 -3 -7 -13 -13 -23 -13 -10 0 -31
-13 -46 -28 -33 -33 -104 -77 -104 -66 0 4 -5 3 -12 -4 -14 -14 -38 -16 -38
-3 0 5 8 12 18 14 12 3 13 5 2 6 -8 0 -21 -3 -29 -8 -12 -8 -12 -12 -2 -25 12
-14 9 -16 -19 -16 -28 0 -31 -2 -20 -15 10 -12 9 -16 -6 -21 -50 -15 -66 -25
-61 -38 3 -8 -12 -20 -46 -33 -82 -33 -87 -34 -87 -18 0 8 9 15 20 15 11 0 20
5 20 10 0 16 -40 12 -46 -5 -4 -10 -20 -15 -49 -15 -53 0 -139 -29 -221 -75
-68 -38 -144 -68 -152 -60 -3 2 1 7 9 9 86 31 93 41 16 23 -36 -8 -47 -15 -47
-30 0 -17 -27 -33 -46 -27 -4 1 -10 -3 -13 -8 -6 -9 -29 -22 -151 -84 -25 -13
-60 -33 -77 -46 -18 -13 -39 -20 -45 -16 -7 4 -5 -2 5 -12 17 -18 19 -18 28
-1 10 16 49 25 49 10 -1 -15 -36 -49 -65 -63 l-30 -15 38 -3 c20 -2 37 -8 37
-13 0 -6 -12 -8 -27 -5 -32 7 -65 -7 -40 -17 20 -8 32 -64 17 -82 -9 -10 -8
-21 4 -44 18 -33 21 -77 7 -86 -8 -4 -17 11 -26 45 -1 3 -10 23 -20 45 -10 22
-18 57 -18 78 0 21 -4 40 -8 43 -5 3 -9 -2 -9 -10 0 -9 -6 -13 -14 -10 -8 3
-17 1 -21 -5 -3 -6 -13 -11 -21 -11 -12 0 -11 6 7 31 18 26 20 35 10 55 -16
37 -13 49 7 31 10 -10 22 -14 25 -10 12 11 8 23 -8 23 -8 0 -15 4 -15 9 0 5
-11 11 -24 13 -17 4 -26 0 -29 -12 -2 -9 -18 -20 -35 -23 -25 -5 -30 -10 -25
-24 7 -19 32 -42 46 -43 5 0 5 6 1 12 -13 21 -11 48 2 48 8 0 16 -12 20 -27 3
-16 7 -34 10 -40 3 -11 -15 -18 -38 -14 -5 0 -8 -12 -8 -28 0 -17 -5 -33 -11
-37 -9 -5 -10 6 -7 39 4 34 2 47 -9 51 -26 11 -33 6 -33 -20 0 -24 2 -25 17
-13 15 13 15 12 4 -9 -6 -12 -9 -27 -6 -33 4 -5 1 -16 -5 -24 -9 -11 -9 -15
-1 -15 6 0 11 -7 11 -16 0 -10 6 -14 15 -10 11 4 15 -2 15 -20 0 -18 4 -24 13
-21 9 3 17 -8 24 -34 12 -46 7 -48 -27 -14 -14 14 -67 53 -118 87 -50 34 -90
63 -88 65 2 3 16 -3 30 -12 27 -18 60 -11 35 7 -11 7 -11 11 -1 15 6 2 12 14
12 24 0 11 5 17 10 14 6 -3 10 -17 10 -31 0 -13 4 -24 9 -24 5 0 12 -8 14 -17
3 -10 4 -1 3 20 -2 21 -8 43 -14 49 -28 28 -7 64 33 61 17 -1 17 -1 2 3 -15 5
-16 8 -6 20 11 13 9 14 -13 9 -29 -7 -41 12 -38 63 3 42 1 52 -11 52 -5 0 -7
-5 -4 -11 4 -5 -1 -19 -10 -29 -9 -10 -14 -24 -10 -29 8 -14 -6 -14 -25 0 -11
8 -12 12 -2 16 13 5 17 33 4 33 -4 0 -13 -5 -20 -12 -9 -9 -12 -6 -12 15 0 21
-5 27 -22 28 -13 0 -17 3 -10 6 6 2 12 9 12 15 0 6 -7 7 -15 4 -8 -3 -22 -9
-30 -12 -10 -4 -15 0 -15 10 0 9 8 16 17 16 13 0 14 3 6 11 -6 6 -9 18 -6 25
3 8 -1 14 -8 14 -10 0 -10 3 -2 11 9 9 9 16 0 30 -8 13 -8 24 1 44 7 14 12 35
12 46 0 11 8 23 17 26 15 6 15 7 -2 13 -14 5 -22 24 -31 76 -15 83 -17 144 -5
144 4 0 11 39 14 88 10 133 17 164 39 170 14 3 16 8 8 18 -9 9 -6 15 9 24 12
6 21 21 21 35 0 21 4 23 31 20 30 -4 31 -4 14 15 -16 18 -16 20 11 45 16 14
40 35 53 48 13 12 27 21 32 20 12 -4 11 24 -1 32 -5 3 13 36 42 73 57 74 102
164 124 244 18 68 18 248 0 314 -30 113 -128 251 -235 329 -22 17 -39 35 -37
40 2 6 -4 28 -14 48 -16 33 -17 39 -4 52 13 13 13 18 -1 45 -12 24 -13 31 -3
35 7 3 198 6 423 8 226 1 512 3 636 5 l226 2 89 -71z m-3646 20 c0 -5 -4 -9
-10 -9 -5 0 -10 7 -10 16 0 8 5 12 10 9 6 -3 10 -10 10 -16z m-5770 -59 c0 -5
-4 -10 -10 -10 -5 0 -10 5 -10 10 0 6 5 10 10 10 6 0 10 -4 10 -10z m270 -34
c0 -3 -4 -8 -10 -11 -5 -3 -10 -1 -10 4 0 6 5 11 10 11 6 0 10 -2 10 -4z m-48
-28 c-7 -7 -12 -8 -12 -2 0 14 12 26 19 19 2 -3 -1 -11 -7 -17z m195 -4 c-3
-3 -12 -4 -19 -1 -8 3 -5 6 6 6 11 1 17 -2 13 -5z m7582 -12 c31 -59 37 -275
9 -337 -12 -27 -13 -25 -30 56 -20 99 -22 145 -7 155 8 5 10 29 5 75 -6 68 3
89 23 51z m-7489 -12 c0 -5 -2 -10 -4 -10 -3 0 -8 5 -11 10 -3 6 -1 10 4 10 6
0 11 -4 11 -10z m7336 -5 c-11 -8 -22 -12 -25 -9 -6 6 19 24 34 24 6 -1 1 -7
-9 -15z m-1959 -327 c-3 -7 -5 -2 -5 12 0 14 2 19 5 13 2 -7 2 -19 0 -25z
m-3082 -25 c-61 -8 -76 -14 -117 -51 -46 -41 -77 -101 -78 -147 0 -29 -20 -75
-20 -48 0 17 -50 29 -59 15 -4 -7 -22 39 -40 101 -19 61 -36 117 -38 123 -3 9
48 12 189 12 106 0 180 -2 163 -5z m-341 -85 c14 -45 24 -84 21 -86 -2 -2 -13
27 -25 65 -11 37 -23 76 -26 86 -3 9 -3 17 0 17 3 0 17 -37 30 -82z m3978 75
c-95 -2 -248 -2 -340 0 -92 1 -14 3 173 3 187 0 262 -2 167 -3z m690 -11 c15
-6 54 -12 85 -14 32 -1 63 -6 70 -11 7 -5 21 -6 33 -2 12 4 27 1 35 -5 9 -7
15 -8 15 -2 0 16 35 20 49 5 9 -10 16 -11 26 -3 8 7 16 7 19 2 4 -6 21 -7 43
-2 24 6 42 5 50 -2 10 -8 13 -6 13 8 1 18 1 18 11 2 5 -10 17 -18 24 -18 8 0
15 -6 15 -14 0 -7 9 -16 19 -19 16 -4 19 0 18 22 -2 22 3 27 26 29 15 2 25 7
22 13 -4 5 7 6 25 3 16 -4 30 -2 30 3 0 15 48 9 69 -9 14 -12 22 -13 30 -5 8
8 11 7 11 -4 1 -10 5 -9 15 5 8 11 15 16 15 10 0 -5 4 -2 10 6 19 30 25 -6 23
-148 -3 -182 -22 -353 -35 -306 l-8 31 -964 -5 c-530 -3 -975 -2 -990 2 -14 3
-26 13 -26 21 0 18 -12 19 -28 3 -9 -9 -12 -9 -12 3 0 23 138 29 625 29 419 1
569 9 632 35 47 20 83 53 77 70 -6 16 -48 33 -89 37 -28 3 -30 6 -30 42 0 37
4 42 49 69 30 17 59 27 73 24 35 -6 28 9 -18 43 -64 46 -98 52 -314 60 l-200
7 215 -2 c136 -1 225 -6 242 -13z m-3868 -7 c15 -11 17 -17 7 -29 -10 -12 -8
-16 8 -21 10 -3 31 -3 45 1 16 4 32 1 41 -6 12 -10 56 -11 188 -6 94 3 413 9
707 12 294 3 542 10 551 15 22 11 29 2 30 -40 0 -32 1 -33 9 -13 9 22 12 22
188 22 123 0 182 -4 190 -12 9 -9 17 -9 36 2 17 8 41 11 75 6 30 -4 52 -3 56
4 8 13 45 13 45 0 0 -6 11 -15 25 -20 14 -5 30 -22 36 -37 6 -16 20 -38 32
-51 15 -17 17 -21 5 -17 -11 5 -16 1 -15 -11 2 -16 -16 -18 -233 -21 -129 -1
-281 -5 -337 -7 -85 -3 -103 -1 -103 11 0 8 -4 11 -10 8 -6 -4 -10 10 -10 35
l0 41 -67 -6 c-59 -5 -471 -27 -498 -26 -21 0 -52 1 -95 4 -88 4 -697 -5 -847
-14 -15 -1 -23 -7 -23 -20 0 -18 -18 -24 -62 -21 -10 1 -18 -2 -18 -6 0 -5
-21 -7 -47 -5 -64 5 -224 3 -244 -3 -12 -3 -16 4 -17 31 -1 20 -8 43 -17 51
-22 23 -18 58 11 89 14 15 23 34 20 41 -3 9 2 14 15 14 11 0 22 -7 25 -15 4
-8 11 -15 16 -15 6 0 8 7 5 15 -11 26 9 25 44 -4 28 -24 38 -27 58 -19 17 6
27 5 31 -3 6 -8 9 -8 15 0 4 7 1 18 -5 26 -10 12 -9 15 3 15 8 0 20 -7 27 -15
14 -17 34 -9 26 11 -7 18 5 18 30 -1 23 -17 34 -19 34 -5 0 6 -7 10 -15 10 -8
0 -15 5 -15 10 0 14 22 12 44 -5z m-174 -9 c0 -11 -19 -15 -25 -6 -3 5 1 10 9
10 9 0 16 -2 16 -4z m5031 -182 c14 -22 34 -52 43 -69 l18 -30 -26 30 c-15 17
-39 51 -54 77 -15 27 -30 48 -33 48 -3 0 -4 12 -1 26 3 19 1 25 -7 20 -6 -4
-11 -3 -11 3 0 5 5 13 10 16 6 3 10 18 11 33 1 15 6 -5 13 -44 7 -44 22 -87
37 -110z m2404 106 c3 -5 1 -10 -4 -10 -6 0 -11 5 -11 10 0 6 2 10 4 10 3 0 8
-4 11 -10z m-4654 -37 c2 -24 2 -25 6 -5 l4 22 552 -6 c338 -4 557 -11 565
-17 14 -11 16 -37 2 -37 -5 0 -10 -8 -10 -17 0 -13 -3 -14 -12 -5 -8 8 -15 9
-25 1 -8 -7 -95 -13 -240 -15 -126 -2 -362 -6 -526 -9 l-297 -7 -9 24 c-9 21
-10 19 -10 -14 -1 -20 -5 -39 -10 -42 -12 -8 -20 51 -14 107 6 51 22 64 24 20z
m-321 -17 c0 -3 -4 -8 -10 -11 -5 -3 -10 -1 -10 4 0 6 5 11 10 11 6 0 10 -2
10 -4z m-1940 -77 l245 -2 -220 -9 c-226 -8 -299 -5 -311 14 -5 8 1 9 17 5 13
-4 134 -7 269 -8z m370 1 c0 -5 -5 -10 -11 -10 -5 0 -7 5 -4 10 3 6 8 10 11
10 2 0 4 -4 4 -10z m4030 -83 c20 -90 5 -361 -17 -299 -6 17 -23 15 -23 -3 0
-19 -7 -19 -27 0 -13 14 -14 27 -4 98 21 147 22 149 38 135 13 -10 14 -2 7 62
-8 86 8 91 26 7z m-3390 -37 c5 -8 12 -19 14 -25 3 -5 10 -2 16 8 15 24 27 21
32 -8 4 -17 0 -26 -11 -29 -32 -10 -417 -26 -856 -36 -510 -11 -594 -11 -462
1 49 4 92 10 95 14 9 9 -20 26 -35 20 -6 -2 -13 1 -16 8 -2 8 -11 6 -30 -6
-32 -21 -37 -21 -37 -2 0 11 -7 14 -25 9 -14 -3 -25 -2 -25 4 0 14 25 22 65
22 19 0 37 5 41 11 5 8 -79 10 -299 7 -168 -1 -308 -6 -311 -9 -3 -3 1 -20 10
-38 12 -24 21 -31 35 -28 11 3 21 2 23 -1 5 -8 155 -6 163 2 3 3 0 12 -7 21
-10 12 -10 15 2 15 8 0 21 -12 28 -27 13 -27 14 -27 18 -6 5 29 24 44 42 33
12 -8 10 -10 -7 -10 -13 0 -23 -4 -23 -10 0 -5 18 -10 40 -10 21 0 63 -5 92
-12 50 -11 51 -12 23 -19 -16 -4 -137 -7 -267 -8 l-237 -1 6 53 c3 28 8 54 10
57 6 7 866 16 1426 16 396 -1 459 -3 467 -16z m-1640 -40 c0 -5 -2 -10 -4 -10
-3 0 -8 5 -11 10 -3 6 -1 10 4 10 6 0 11 -4 11 -10z m-85 -10 c3 -5 2 -10 -4
-10 -5 0 -13 5 -16 10 -3 6 -2 10 4 10 5 0 13 -4 16 -10z m5255 -18 c0 -13
-12 -22 -22 -16 -10 6 -1 24 13 24 5 0 9 -4 9 -8z m-30 -32 c0 -5 -5 -10 -11
-10 -5 0 -7 5 -4 10 3 6 8 10 11 10 2 0 4 -4 4 -10z m-3220 -140 c0 -5 -2 -10
-4 -10 -3 0 -8 5 -11 10 -3 6 -1 10 4 10 6 0 11 -4 11 -10z m207 -12 c7 -6 26
-7 43 -3 23 5 29 3 25 -7 -4 -10 6 -14 35 -14 22 -1 40 2 40 6 0 12 28 20 45
14 12 -5 15 -21 13 -75 -2 -38 -6 -69 -10 -69 -5 0 -8 -5 -8 -11 0 -6 8 -9 18
-7 12 3 24 -2 31 -13 6 -11 18 -19 27 -19 10 0 14 -6 10 -15 -6 -18 -2 -19 26
-4 13 7 18 7 14 1 -3 -6 5 -23 19 -39 24 -26 26 -26 20 -5 -7 25 -3 27 27 11
18 -10 20 -9 15 5 -4 10 1 20 13 26 18 10 20 7 19 -27 0 -47 -16 -129 -18 -94
-1 19 -5 22 -23 17 -63 -18 -482 -53 -517 -43 -15 4 -21 2 -18 -6 20 -54 11
-50 -18 8 -19 38 -38 85 -41 105 -3 19 -21 77 -40 128 -19 51 -34 100 -33 110
1 11 3 10 7 -6 7 -23 28 -28 26 -5 -1 6 9 13 22 16 13 2 24 0 24 -4 0 -5 5 -9
10 -9 6 0 10 9 10 21 0 26 24 20 28 -8 3 -18 6 -19 27 -9 14 6 25 14 25 19 0
4 11 7 24 7 14 0 27 4 31 10 6 10 31 4 52 -12z m2873 -82 c0 -3 -4 -8 -10 -11
-5 -3 -10 -1 -10 4 0 6 5 11 10 11 6 0 10 -2 10 -4z m1955 -245 c-4 -17 -13
-31 -21 -31 -18 0 -18 6 3 41 21 35 27 31 18 -10z m-1994 -102 l-9 -34 -1 30
c0 17 2 41 6 55 7 23 8 24 11 4 2 -12 -1 -37 -7 -55z m-2679 -82 c-179 -7
-246 -7 -255 2 -8 8 54 11 244 9 l254 -1 -243 -10z m4551 -32 c-7 -21 -13 -19
-13 6 0 11 4 18 10 14 5 -3 7 -12 3 -20z m-96 -11 c-3 -3 -12 -4 -19 -1 -8 3
-5 6 6 6 11 1 17 -2 13 -5z m7 -49 c-9 -14 -35 -36 -58 -47 -32 -16 -38 -17
-27 -4 7 9 19 16 26 16 7 0 25 16 40 36 31 40 46 40 19 -1z m-4257 19 c-3 -3
-12 -4 -19 -1 -8 3 -5 6 6 6 11 1 17 -2 13 -5z m4070 -70 c-3 -3 -12 -4 -19
-1 -8 3 -5 6 6 6 11 1 17 -2 13 -5z m-30 -31 c3 -7 -14 -21 -37 -33 -49 -25
-66 -20 -22 6 19 11 28 23 25 32 -4 9 0 13 12 11 10 -2 20 -9 22 -16z m-1606
-134 c-13 -136 -28 -175 -64 -165 -12 3 -28 6 -35 6 -10 0 -12 11 -6 48 4 26
10 83 13 127 l6 79 45 17 c25 9 47 15 48 14 2 -2 -1 -59 -7 -126z m-2871 70
c0 -13 9 -16 43 -13 23 2 133 5 245 8 l202 4 0 -51 c0 -29 -4 -57 -8 -63 -4
-7 -83 -11 -226 -12 -249 -2 -247 -3 -259 78 -4 25 -9 56 -13 70 -4 20 -3 22
5 10 6 -8 11 -22 11 -31z m4360 21 c0 -5 -5 -10 -11 -10 -5 0 -7 5 -4 10 3 6
8 10 11 10 2 0 4 -4 4 -10z m1058 -112 c70 -17 155 -105 178 -183 43 -150 -36
-325 -178 -393 -62 -30 -153 -46 -212 -38 -26 4 -46 9 -43 12 2 2 47 8 99 13
113 11 156 30 217 96 91 99 127 254 81 349 -37 77 -120 131 -219 143 -77 9
-179 -26 -218 -74 -16 -21 -34 -49 -38 -63 -4 -14 -11 -29 -15 -35 -4 -5 -10
-29 -14 -52 -9 -64 -47 -155 -62 -149 -9 4 -10 -3 -2 -27 5 -18 12 -42 15 -54
3 -12 27 -43 54 -68 36 -34 56 -45 81 -46 l33 -1 -28 -10 c-23 -8 -33 -5 -69
21 -51 38 -95 100 -104 148 -4 19 -4 67 -2 106 7 107 68 215 152 266 73 45
202 62 294 39z m-5 -62 c18 -7 52 -31 77 -53 l45 -40 3 -80 c4 -91 -13 -148
-50 -163 -13 -5 -19 -9 -15 -9 20 -2 -24 -31 -46 -31 -14 0 -30 -7 -37 -14 -8
-11 -18 -12 -36 -5 -37 14 -65 11 -79 -8 -9 -12 -36 -18 -101 -23 -49 -4 -90
-6 -92 -5 -2 1 2 31 8 66 9 52 8 73 -4 114 -17 56 -15 63 47 126 19 20 42 49
50 66 14 26 48 47 107 67 30 9 91 6 123 -8z m-2388 -226 c3 -5 2 -17 -3 -26
-8 -14 -10 -14 -21 0 -13 15 -8 36 9 36 5 0 12 -4 15 -10z m-587 -7 c-21 -2
-55 -2 -75 0 -21 2 -4 4 37 4 41 0 58 -2 38 -4z m358 -50 c-11 -11 -19 6 -11
24 8 17 8 17 12 0 3 -10 2 -21 -1 -24z m169 -81 c-3 -3 -11 0 -18 7 -9 10 -8
11 6 5 10 -3 15 -9 12 -12z m380 -213 c-4 -5 3 -9 14 -9 12 0 21 4 21 10 0 5
7 7 16 3 22 -8 -2 -23 -38 -23 -22 0 -28 5 -28 21 0 11 5 17 10 14 6 -4 8 -11
5 -16z m-44 1 c5 0 9 -5 9 -11 0 -15 -43 -7 -48 10 -3 10 0 12 12 8 10 -4 22
-7 27 -7z m-1014 -62 c-3 -8 -6 -5 -6 6 -1 11 2 17 5 13 3 -3 4 -12 1 -19z
m24 -495 c-5 -10 -26 -37 -46 -60 -37 -43 -65 -55 -65 -29 0 8 -3 21 -6 29 -3
9 3 16 15 20 23 6 38 -8 21 -18 -5 -3 -10 -13 -10 -22 0 -8 21 10 46 41 47 57
62 70 45 39z"/>
<path d="M9292 7165 c-23 -20 -44 -51 -51 -75 -10 -35 -9 -46 8 -84 51 -117
209 -94 251 37 25 81 -33 157 -121 157 -42 0 -54 -5 -87 -35z m94 0 c-11 -8
-27 -15 -36 -15 -10 0 -29 -11 -44 -25 -21 -20 -26 -33 -26 -74 0 -58 14 -71
77 -71 39 0 103 31 103 50 0 6 -5 8 -10 5 -7 -4 -9 2 -4 19 4 16 -1 36 -12 54
-18 31 -13 67 9 59 7 -2 11 -15 9 -30 -2 -15 1 -27 8 -27 6 0 9 4 5 9 -3 5 -1
12 4 15 5 3 14 -7 19 -24 15 -42 -2 -93 -44 -129 -28 -25 -44 -31 -80 -31 -79
0 -123 52 -109 127 12 67 52 102 115 102 33 0 34 -1 16 -14z m14 -61 c0 -3 -5
-15 -11 -26 -9 -17 -9 -20 3 -15 20 7 19 -25 -1 -40 -21 -16 -54 -16 -69 -1
-13 13 -17 70 -5 81 8 8 83 9 83 1z"/>
<path d="M9101 7094 c0 -11 3 -14 6 -6 3 7 2 16 -1 19 -3 4 -6 -2 -5 -13z"/>
<path d="M9101 7014 c0 -11 3 -14 6 -6 3 7 2 16 -1 19 -3 4 -6 -2 -5 -13z"/>
<path d="M9120 6980 c0 -5 5 -10 10 -10 6 0 10 5 10 10 0 6 -4 10 -10 10 -5 0
-10 -4 -10 -10z"/>
<path d="M3870 6772 c0 -11 -3 -27 -6 -36 -4 -10 -1 -16 10 -16 12 0 14 7 9
33 -7 39 -13 48 -13 19z"/>
<path d="M2880 6746 c0 -11 48 -56 59 -56 25 0 5 34 -26 47 -18 7 -33 11 -33
9z"/>
<path d="M7196 6809 c-31 -24 -33 -40 -8 -62 22 -20 53 -22 70 -5 19 19 15 66
-7 78 -25 13 -24 13 -55 -11z"/>
<path d="M8432 6291 c2 -7 7 -12 11 -12 12 1 9 15 -3 20 -7 2 -11 -2 -8 -8z"/>
<path d="M9750 6234 c0 -8 5 -12 10 -9 6 3 10 10 10 16 0 5 -4 9 -10 9 -5 0
-10 -7 -10 -16z"/>
<path d="M9560 5998 c-21 -23 -27 -44 -10 -33 6 3 10 1 10 -5 0 -6 -10 -10
-22 -8 -13 2 -22 9 -21 15 4 20 -26 3 -32 -18 -8 -24 -25 -25 -25 -1 0 13 -5
10 -17 -10 -15 -24 -51 -44 -61 -34 -2 2 4 18 13 36 9 18 14 34 11 37 -11 11
-36 -20 -48 -59 -9 -31 -16 -38 -30 -35 -14 4 -18 -1 -18 -19 0 -13 -4 -24
-10 -24 -5 0 -10 7 -10 15 0 8 -4 15 -9 15 -5 0 -11 -7 -15 -15 -5 -15 -36
-22 -36 -8 0 4 12 17 27 29 l27 21 -23 12 c-25 14 -41 7 -24 -10 8 -8 1 -21
-24 -45 -28 -28 -38 -33 -49 -23 -11 9 -14 8 -14 -5 0 -12 -6 -15 -24 -10 -13
3 -34 0 -47 -6 -18 -10 -24 -10 -34 3 -10 14 -14 15 -33 2 -11 -9 -22 -25 -24
-38 -2 -12 -9 -21 -16 -19 -6 1 -12 -6 -12 -16 0 -10 -20 -42 -46 -72 -71 -83
-88 -124 -89 -205 0 -63 4 -76 33 -121 17 -28 32 -58 32 -68 0 -9 5 -14 10
-11 16 10 12 -23 -6 -50 -9 -13 -17 -31 -18 -39 -1 -8 -12 -24 -23 -34 -15
-13 -19 -22 -13 -33 13 -20 149 -15 191 6 17 9 40 15 52 15 67 -6 58 10 -23
40 -33 12 -59 25 -56 27 3 3 37 -7 75 -22 58 -22 71 -31 71 -48 0 -12 5 -29
10 -37 9 -13 13 -12 29 7 16 19 23 21 52 13 19 -6 47 -10 64 -10 23 0 27 -3
15 -10 -11 -7 -4 -10 27 -10 36 0 40 -3 36 -19 -3 -14 3 -24 24 -36 l28 -16
-26 5 c-32 7 -41 -1 -28 -25 23 -44 93 -7 87 46 -2 23 1 28 22 31 14 2 59 8
100 14 41 5 81 8 88 5 6 -2 12 0 12 5 0 5 26 14 57 20 31 7 74 18 95 26 46 16
50 9 6 -12 l-33 -15 34 6 c42 7 37 0 -15 -19 -47 -17 -23 -20 60 -6 37 6 68
18 82 31 13 12 34 27 46 33 18 10 22 19 20 45 -1 20 2 30 8 26 6 -4 8 -11 5
-16 -4 -5 -2 -9 3 -9 5 0 9 20 9 45 0 49 -9 55 -40 28 -19 -18 -19 -18 -5 12
9 17 21 55 28 85 7 30 19 67 26 82 8 14 18 63 23 108 6 55 15 88 27 101 18 19
18 21 1 30 -9 6 -17 20 -18 32 -1 19 -2 18 -14 -8 -9 -21 -10 -34 -3 -42 8
-10 6 -13 -7 -13 -14 0 -16 6 -13 30 5 31 -8 41 -18 15 -4 -8 -10 -15 -15 -15
-5 0 -3 11 3 25 13 30 1 49 -22 35 -13 -8 -12 -10 3 -10 10 0 15 -5 12 -10
-10 -17 -45 8 -38 27 4 11 3 14 -5 9 -7 -4 -12 -1 -12 7 0 8 -8 18 -17 22 -16
6 -15 8 7 17 l25 10 -28 9 c-16 4 -34 12 -40 17 -7 5 -33 9 -59 9 -26 0 -53 5
-60 10 -7 6 -26 13 -43 15 -20 2 -31 9 -33 22 -3 11 0 16 7 12 14 -9 14 0 1
25 -6 10 -17 19 -25 19 -8 0 -15 5 -15 10 0 6 -11 10 -24 10 -14 0 -27 4 -31
9 -3 5 -17 -2 -31 -16 -21 -21 -28 -23 -35 -12 -13 21 -11 39 6 39 8 0 15 5
15 10 0 17 -18 11 -40 -12z m-80 -104 c0 -2 -7 -4 -15 -4 -8 0 -15 4 -15 10 0
5 7 7 15 4 8 -4 15 -8 15 -10z m-75 -24 c3 -5 2 -10 -4 -10 -5 0 -13 5 -16 10
-3 6 -2 10 4 10 5 0 13 -4 16 -10z m385 -10 c0 -5 -4 -10 -10 -10 -5 0 -10 5
-10 10 0 6 5 10 10 10 6 0 10 -4 10 -10z m168 -174 c-7 -8 -15 -12 -17 -11 -5
6 10 25 20 25 5 0 4 -6 -3 -14z m-312 -17 c4 -7 0 -16 -9 -20 -9 -6 -13 -17
-10 -29 3 -11 1 -20 -5 -20 -5 0 -18 -16 -27 -37 -21 -45 -34 -281 -17 -316 6
-12 13 -39 17 -60 3 -21 12 -40 20 -43 18 -7 7 -34 -14 -34 -9 0 -34 14 -55
30 -34 26 -48 30 -105 31 -36 0 -75 4 -86 8 -17 7 -14 11 25 30 47 24 117 89
112 105 -2 5 4 26 13 48 20 51 19 73 -6 125 -25 51 -53 68 -132 77 -105 13
-201 -51 -228 -154 -17 -65 1 -120 58 -181 36 -39 42 -50 30 -55 -21 -8 -71
22 -99 60 -18 24 -24 49 -29 116 -3 47 -7 72 -8 55 -1 -16 -6 -39 -11 -50 -7
-15 -9 -9 -9 25 -1 49 34 135 64 160 17 14 17 14 7 -7 -20 -37 -13 -39 13 -3
14 19 33 39 43 44 9 6 85 13 167 16 160 7 190 15 232 64 25 28 38 32 49 15z
m234 1 c0 -5 -5 -10 -11 -10 -5 0 -7 5 -4 10 3 6 8 10 11 10 2 0 4 -4 4 -10z
m120 0 c0 -5 -5 -10 -11 -10 -5 0 -7 5 -4 10 3 6 8 10 11 10 2 0 4 -4 4 -10z
m-410 -4 c0 -3 -4 -8 -10 -11 -5 -3 -10 -1 -10 4 0 6 5 11 10 11 6 0 10 -2 10
-4z m225 -6 c3 -5 1 -10 -4 -10 -6 0 -11 5 -11 10 0 6 2 10 4 10 3 0 8 -4 11
-10z m95 -20 c0 -5 -5 -10 -11 -10 -5 0 -7 5 -4 10 3 6 8 10 11 10 2 0 4 -4 4
-10z m104 -24 c-3 -9 -10 -16 -15 -16 -6 0 -5 9 1 21 13 24 24 20 14 -5z
m-364 -26 c0 -5 -5 -10 -11 -10 -5 0 -7 5 -4 10 3 6 8 10 11 10 2 0 4 -4 4
-10z m377 -24 c-9 -7 -17 -18 -17 -24 0 -6 -6 -12 -12 -15 -9 -3 -3 -16 17
-38 l30 -34 -38 34 c-26 25 -37 30 -37 19 0 -9 -6 -18 -12 -21 -7 -2 3 -9 22
-15 19 -6 29 -11 23 -11 -23 -2 -14 -19 15 -29 20 -8 22 -11 8 -11 -16 -1 -17
-4 -8 -13 17 -17 15 -68 -2 -68 -21 0 -29 17 -11 24 22 8 18 22 -16 58 -17 18
-28 25 -25 16 2 -9 0 -19 -7 -21 -7 -3 1 -10 17 -16 22 -9 27 -14 17 -24 -9
-9 -17 -5 -37 15 -22 22 -24 29 -15 47 17 32 3 46 -20 20 -12 -14 -19 -17 -19
-8 0 16 131 141 139 133 3 -3 -2 -11 -12 -18z m53 -5 c0 -6 -4 -13 -10 -16 -5
-3 -10 1 -10 9 0 9 5 16 10 16 6 0 10 -4 10 -9z m-143 -15 c0 -7 -9 -18 -19
-25 -22 -14 -23 -4 -1 21 19 22 20 22 20 4z m100 -43 c-3 -10 -5 -4 -5 12 0
17 2 24 5 18 2 -7 2 -21 0 -30z m-667 7 c0 -6 -9 -30 -20 -52 -11 -23 -20 -54
-20 -69 0 -15 -4 -30 -9 -33 -5 -3 -14 -25 -20 -50 -6 -24 -18 -47 -27 -50
-32 -12 -32 -1 1 77 6 15 1 17 -43 17 -57 0 -66 11 -51 63 16 60 71 86 82 39
3 -13 13 -7 43 25 38 41 64 54 64 33z m457 -26 c-3 -3 -12 -4 -19 -1 -8 3 -5
6 6 6 11 1 17 -2 13 -5z m-427 -53 c9 -24 9 -34 -4 -60 -15 -28 -52 -58 -62
-49 -5 6 39 138 47 138 4 0 12 -13 19 -29z m495 -11 c3 -5 -3 -10 -15 -10 -12
0 -18 5 -15 10 3 6 10 10 15 10 5 0 12 -4 15 -10z m-145 -14 c0 -3 -4 -8 -10
-11 -5 -3 -10 -1 -10 4 0 6 5 11 10 11 6 0 10 -2 10 -4z m165 -28 c-19 -11
-30 -5 -21 11 4 6 14 7 22 4 15 -5 14 -7 -1 -15z m45 -28 c0 -5 -7 -10 -15
-10 -8 0 -15 5 -15 10 0 6 7 10 15 10 8 0 15 -4 15 -10z m-80 -10 c0 -5 -2
-10 -4 -10 -3 0 -8 5 -11 10 -3 6 -1 10 4 10 6 0 11 -4 11 -10z m120 -26 c0
-2 -9 -4 -21 -4 -11 0 -18 4 -14 10 5 8 35 3 35 -6z m-85 -4 c3 -5 -1 -10 -9
-10 -9 0 -16 5 -16 10 0 6 4 10 9 10 6 0 13 -4 16 -10z m-100 -50 c3 -5 1 -10
-4 -10 -6 0 -11 5 -11 10 0 6 2 10 4 10 3 0 8 -4 11 -10z m72 4 c-3 -3 -12 -4
-19 -1 -8 3 -5 6 6 6 11 1 17 -2 13 -5z m88 -24 c-3 -5 -10 -10 -16 -10 -5 0
-9 5 -9 10 0 6 7 10 16 10 8 0 12 -4 9 -10z m-65 -10 c0 -5 -2 -10 -4 -10 -3
0 -8 5 -11 10 -3 6 -1 10 4 10 6 0 11 -4 11 -10z m-120 -84 c0 -3 -4 -8 -10
-11 -5 -3 -10 -1 -10 4 0 6 5 11 10 11 6 0 10 -2 10 -4z"/>
<path d="M9765 5940 c3 -5 11 -10 16 -10 6 0 7 5 4 10 -3 6 -11 10 -16 10 -6
0 -7 -4 -4 -10z"/>
<path d="M9160 5900 c0 -5 7 -10 15 -10 8 0 15 5 15 10 0 6 -7 10 -15 10 -8 0
-15 -4 -15 -10z"/>
<path d="M9160 5860 c0 -5 5 -10 10 -10 6 0 10 5 10 10 0 6 -4 10 -10 10 -5 0
-10 -4 -10 -10z"/>
<path d="M10420 5791 c-6 -12 -7 -21 -1 -21 10 0 24 30 17 37 -2 3 -9 -5 -16
-16z"/>
<path d="M10325 5599 c-11 -17 1 -21 15 -4 8 9 8 15 2 15 -6 0 -14 -5 -17 -11z"/>
<path d="M8675 5170 c-4 -6 -4 -10 -1 -10 2 0 11 -3 20 -6 9 -3 16 -2 16 4 0
14 -28 23 -35 12z"/>
<path d="M10295 5160 c-3 -5 -1 -10 4 -10 6 0 11 5 11 10 0 6 -2 10 -4 10 -3
0 -8 -4 -11 -10z"/>
<path d="M8600 5145 c-6 -8 -10 -19 -8 -24 1 -5 11 2 21 15 19 26 8 34 -13 9z"/>
<path d="M8650 5099 c0 -5 5 -7 10 -4 6 3 10 8 10 11 0 2 -4 4 -10 4 -5 0 -10
-5 -10 -11z"/>
<path d="M8788 5073 c-21 -2 -38 -10 -38 -16 0 -24 31 -57 53 -57 34 0 89 38
85 58 -3 18 -32 22 -100 15z"/>
<path d="M8938 5068 c-31 -11 -42 -32 -28 -59 22 -39 65 -6 58 45 -3 20 -6 22
-30 14z"/>
<path d="M9110 5053 c-35 -7 -48 -22 -30 -33 20 -13 172 -13 206 0 21 8 25 13
15 23 -12 12 -145 19 -191 10z m10 -17 c0 -11 -19 -15 -25 -6 -3 5 1 10 9 10
9 0 16 -2 16 -4z m150 0 c0 -3 -4 -8 -10 -11 -5 -3 -10 -1 -10 4 0 6 5 11 10
11 6 0 10 -2 10 -4z"/>
<path d="M10260 4930 c0 -5 5 -10 10 -10 6 0 10 5 10 10 0 6 -4 10 -10 10 -5
0 -10 -4 -10 -10z"/>
<path d="M10137 4703 c-4 -3 -7 -13 -7 -21 0 -12 3 -12 15 -2 8 7 15 16 15 21
0 11 -14 12 -23 2z"/>
<path d="M9973 4673 c-14 -5 -18 -23 -5 -23 5 0 17 7 28 15 14 11 15 14 4 14
-8 0 -21 -3 -27 -6z"/>
<path d="M9905 4653 c-11 -3 -24 -9 -29 -14 -6 -5 -18 -9 -27 -9 -9 0 -22 -7
-29 -15 -11 -13 -8 -14 21 -8 19 3 45 13 58 22 23 15 24 15 12 -6 -17 -33 -13
-38 9 -10 20 25 26 48 13 46 -5 -1 -17 -3 -28 -6z"/>
<path d="M9854 4585 c-10 -8 -14 -14 -9 -15 15 0 40 18 34 24 -3 3 -14 -1 -25
-9z"/>
<path d="M9710 4530 c0 -5 7 -7 15 -4 8 4 15 8 15 10 0 2 -7 4 -15 4 -8 0 -15
-4 -15 -10z"/>
<path d="M9560 4485 c-8 -9 -8 -15 -2 -15 12 0 26 19 19 26 -2 2 -10 -2 -17
-11z"/>
<path d="M9477 4463 c-12 -11 -8 -23 7 -23 8 0 18 4 21 10 4 6 -1 7 -11 3 -12
-4 -15 -3 -10 5 8 13 3 16 -7 5z"/>
<path d="M9596 4424 c-4 -10 -1 -14 6 -12 15 5 23 28 10 28 -5 0 -13 -7 -16
-16z"/>
<path d="M8340 4269 c0 -5 5 -7 10 -4 6 3 10 8 10 11 0 2 -4 4 -10 4 -5 0 -10
-5 -10 -11z"/>
<path d="M8348 4243 c7 -3 16 -2 19 1 4 3 -2 6 -13 5 -11 0 -14 -3 -6 -6z"/>
<path d="M8643 4150 c-1 -11 2 -20 8 -20 5 0 9 9 9 20 0 11 -4 20 -8 20 -4 0
-8 -9 -9 -20z"/>
<path d="M8680 4130 c0 -5 5 -10 11 -10 5 0 7 5 4 10 -3 6 -8 10 -11 10 -2 0
-4 -4 -4 -10z"/>
<path d="M8720 4130 c8 -5 26 -10 40 -10 20 0 22 2 10 10 -8 5 -26 10 -40 10
-20 0 -22 -2 -10 -10z"/>
<path d="M8497 4106 c-3 -8 -2 -18 3 -21 5 -3 7 -13 4 -23 -2 -9 1 -7 7 4 7
15 8 28 2 39 -9 15 -11 15 -16 1z"/>
<path d="M8530 4106 c0 -8 9 -18 20 -21 11 -3 20 -14 21 -23 0 -10 6 -5 14 13
14 32 9 56 -7 34 -7 -11 -11 -11 -15 -1 -7 17 -33 15 -33 -2z"/>
<path d="M8631 4111 c-8 -5 -9 -11 -3 -15 5 -3 15 1 22 9 14 16 3 20 -19 6z"/>
<path d="M8714 4096 c-5 -14 -9 -15 -15 -5 -4 8 -11 10 -14 7 -10 -9 4 -28 20
-28 13 0 29 29 20 38 -2 3 -8 -3 -11 -12z"/>
<path d="M8730 3890 c0 -5 5 -10 10 -10 6 0 10 5 10 10 0 6 -4 10 -10 10 -5 0
-10 -4 -10 -10z"/>
<path d="M8465 3850 c3 -5 11 -10 16 -10 6 0 7 5 4 10 -3 6 -11 10 -16 10 -6
0 -7 -4 -4 -10z"/>
<path d="M3295 5720 c-3 -5 -1 -10 4 -10 6 0 11 5 11 10 0 6 -2 10 -4 10 -3 0
-8 -4 -11 -10z"/>
<path d="M3560 5726 c0 -2 7 -7 16 -10 8 -3 12 -2 9 4 -6 10 -25 14 -25 6z"/>
<path d="M3420 5569 c0 -5 5 -7 10 -4 6 3 10 8 10 11 0 2 -4 4 -10 4 -5 0 -10
-5 -10 -11z"/>
<path d="M3785 5419 c4 -6 36 -9 74 -8 38 1 73 -1 80 -5 7 -4 17 -3 24 3 7 5
40 12 72 14 33 2 -11 4 -98 5 -108 1 -156 -1 -152 -9z"/>
<path d="M4285 5420 c3 -5 8 -10 11 -10 2 0 4 5 4 10 0 6 -5 10 -11 10 -5 0
-7 -4 -4 -10z"/>
<path d="M4820 5420 c0 -6 7 -10 15 -10 8 0 15 2 15 4 0 2 -7 6 -15 10 -8 3
-15 1 -15 -4z"/>
<path d="M4869 5404 c-11 -31 -7 -39 17 -30 13 5 14 9 4 21 -9 10 -9 15 -1 15
6 0 11 5 11 10 0 20 -21 9 -31 -16z"/>
<path d="M4910 5410 c0 -5 5 -10 10 -10 6 0 10 5 10 10 0 6 -4 10 -10 10 -5 0
-10 -4 -10 -10z"/>
<path d="M4772 5397 c9 -9 29 -17 44 -17 26 0 27 11 1 16 -7 2 -23 6 -37 10
-23 7 -24 7 -8 -9z"/>
<path d="M4180 5390 c0 -5 4 -10 9 -10 6 0 13 5 16 10 3 6 -1 10 -9 10 -9 0
-16 -4 -16 -10z"/>
<path d="M3923 5373 c-27 -10 -11 -23 27 -23 40 0 53 13 24 24 -18 7 -33 7
-51 -1z"/>
<path d="M4450 5369 c0 -5 5 -7 10 -4 6 3 10 8 10 11 0 2 -4 4 -10 4 -5 0 -10
-5 -10 -11z"/>
<path d="M5395 5150 c3 -5 11 -10 16 -10 6 0 7 5 4 10 -3 6 -11 10 -16 10 -6
0 -7 -4 -4 -10z"/>
<path d="M5450 5152 c0 -12 19 -26 26 -19 2 2 -2 10 -11 17 -9 8 -15 8 -15 2z"/>
<path d="M5575 5100 c3 -5 8 -10 11 -10 2 0 4 5 4 10 0 6 -5 10 -11 10 -5 0
-7 -4 -4 -10z"/>
<path d="M10524 3917 c-8 -22 11 -46 26 -31 7 7 5 17 -4 30 -14 18 -15 18 -22
1z"/>
<path d="M8975 7530 c-4 -6 3 -10 14 -10 25 0 27 6 6 13 -8 4 -17 2 -20 -3z"/>
<path d="M9175 7530 c3 -5 11 -10 16 -10 6 0 7 5 4 10 -3 6 -11 10 -16 10 -6
0 -7 -4 -4 -10z"/>
<path d="M9220 7530 c0 -5 5 -10 11 -10 5 0 7 5 4 10 -3 6 -8 10 -11 10 -2 0
-4 -4 -4 -10z"/>
<path d="M9020 7446 c0 -2 7 -6 15 -10 8 -3 15 -1 15 4 0 6 -7 10 -15 10 -8 0
-15 -2 -15 -4z"/>
<path d="M9136 7431 c-3 -5 8 -11 24 -13 32 -5 41 6 14 16 -22 8 -32 8 -38 -3z"/>
<path d="M9757 7213 c-4 -3 -7 -13 -7 -22 1 -13 3 -13 11 2 11 19 8 33 -4 20z"/>
<path d="M1658 7183 c12 -2 30 -2 40 0 9 3 -1 5 -23 4 -22 0 -30 -2 -17 -4z"/>
<path d="M9630 7055 c-8 -9 -8 -15 -2 -15 12 0 26 19 19 26 -2 2 -10 -2 -17
-11z"/>
<path d="M9721 6934 c0 -11 3 -14 6 -6 3 7 2 16 -1 19 -3 4 -6 -2 -5 -13z"/>
<path d="M11140 6858 c28 -26 71 -51 77 -44 5 5 -82 66 -93 66 -4 0 3 -10 16
-22z"/>
<path d="M10270 6701 c0 -4 14 -20 30 -36 23 -22 33 -26 42 -17 8 8 8 15 -1
26 -14 17 -71 39 -71 27z"/>
<path d="M67 6685 c-28 -27 -32 -81 -32 -395 0 -268 2 -309 17 -335 l17 -30
12 34 12 34 13 -29 c10 -24 12 15 13 246 0 281 -10 465 -27 482 -6 6 -15 3
-25 -7z m23 -435 c0 -60 -4 -100 -10 -100 -6 0 -10 40 -10 100 0 60 4 100 10
100 6 0 10 -40 10 -100z"/>
<path d="M10220 6675 c0 -8 7 -15 16 -15 14 0 14 3 4 15 -7 8 -14 15 -16 15
-2 0 -4 -7 -4 -15z"/>
<path d="M9846 6516 c4 -10 -3 -16 -22 -18 -15 -2 -29 -8 -31 -14 -4 -13 45
-7 65 9 17 13 15 37 -3 37 -8 0 -12 -6 -9 -14z"/>
<path d="M4 6355 c0 -77 2 -107 3 -67 2 40 2 103 0 140 -2 37 -3 4 -3 -73z"/>
<path d="M9804 6459 c-4 -7 -1 -10 7 -7 8 3 19 -2 26 -11 11 -15 12 -15 13 0
0 9 -7 20 -16 23 -21 8 -22 8 -30 -5z"/>
<path d="M9966 6373 c-6 -14 -5 -15 5 -6 7 7 10 15 7 18 -3 3 -9 -2 -12 -12z"/>
<path d="M10060 6360 c-16 -29 -12 -46 6 -24 15 19 15 19 11 -3 -4 -17 -1 -20
12 -16 13 5 14 3 4 -8 -7 -7 -13 -22 -12 -33 0 -12 3 -15 6 -8 9 22 23 2 17
-24 -9 -34 15 -31 51 6 37 38 45 38 45 -2 0 -24 3 -29 11 -21 6 6 18 9 25 6 9
-3 14 2 14 16 0 13 5 19 14 15 9 -3 17 3 21 15 3 12 15 26 26 31 17 10 18 13
5 26 -19 19 -85 14 -110 -8 -26 -23 -34 -14 -11 12 31 34 -7 25 -40 -10 -28
-29 -58 -43 -37 -17 15 18 19 42 7 46 -5 2 -20 7 -32 12 -18 6 -25 4 -33 -11z
m180 -74 c0 -3 -4 -8 -10 -11 -5 -3 -10 -1 -10 4 0 6 5 11 10 11 6 0 10 -2 10
-4z"/>
<path d="M9800 6359 c0 -5 5 -7 10 -4 6 3 10 8 10 11 0 2 -4 4 -10 4 -5 0 -10
-5 -10 -11z"/>
<path d="M9960 6271 c0 -6 5 -13 10 -16 6 -3 10 1 10 9 0 9 -4 16 -10 16 -5 0
-10 -4 -10 -9z"/>
<path d="M9997 6253 c-8 -13 19 -51 29 -40 5 4 4 11 -2 15 -6 4 -13 14 -16 22
-3 9 -7 10 -11 3z"/>
<path d="M10135 6210 c-3 -5 -1 -10 4 -10 6 0 11 5 11 10 0 6 -2 10 -4 10 -3
0 -8 -4 -11 -10z"/>
<path d="M10440 6016 c0 -7 215 -164 245 -179 43 -21 175 -60 182 -53 9 9 -64
92 -103 117 -20 12 -71 32 -113 44 -42 12 -106 34 -143 48 -38 14 -68 25 -68
23z"/>
<path d="M10340 5996 c0 -5 248 -126 258 -126 31 0 -169 106 -235 125 -13 3
-23 4 -23 1z"/>
<path d="M7830 4183 c8 -3 18 -11 22 -17 4 -6 10 -7 15 -3 9 10 -16 27 -37 26
-13 -1 -13 -1 0 -6z"/>
<path d="M6120 4080 c-11 -7 -4 -10 28 -10 23 0 42 5 42 10 0 13 -50 13 -70 0z"/>
<path d="M6265 4074 l-30 -14 34 5 c18 3 40 5 48 5 8 0 11 5 8 10 -8 13 -24
12 -60 -6z"/>
<path d="M6180 4051 c0 -23 80 -45 87 -25 2 7 -9 15 -24 18 -15 4 -36 9 -45
12 -10 3 -18 1 -18 -5z"/>
<path d="M6625 4030 c3 -5 11 -10 16 -10 6 0 7 5 4 10 -3 6 -11 10 -16 10 -6
0 -7 -4 -4 -10z"/>
<path d="M8650 2979 c-9 -22 -10 -33 -2 -41 8 -8 11 -6 10 8 -1 10 2 29 6 42
11 33 0 27 -14 -9z"/>
<path d="M7450 2963 c-23 -9 -60 -45 -54 -54 6 -11 71 28 78 46 6 16 1 17 -24
8z"/>
<path d="M7450 2910 c-8 -5 -12 -12 -9 -15 4 -3 12 1 19 10 14 17 11 19 -10 5z"/>
<path d="M7360 2891 c0 -10 42 -23 49 -15 7 6 -20 24 -36 24 -7 0 -13 -4 -13
-9z"/>
<path d="M8575 2823 c-11 -21 -21 -41 -23 -44 -1 -3 4 -6 13 -6 8 0 15 9 15
19 0 10 5 18 11 18 5 0 8 4 4 9 -3 5 -1 12 5 16 12 7 13 25 2 25 -5 0 -17 -17
-27 -37z"/>
<path d="M8335 2540 c-3 -6 1 -7 9 -4 18 7 21 14 7 14 -6 0 -13 -4 -16 -10z"/>
</g>
</svg>
