<?xml version="1.0" standalone="no"?>
<!DOCTYPE svg PUBLIC "-//W3C//DTD SVG 20010904//EN"
 "http://www.w3.org/TR/2001/REC-SVG-20010904/DTD/svg10.dtd">
<svg version="1.0" xmlns="http://www.w3.org/2000/svg"
 width="1280.000000pt" height="640.000000pt" viewBox="0 0 1280.000000 640.000000"
 preserveAspectRatio="xMidYMid meet">
<metadata>
Created by potrace 1.15, written by Peter Selinger 2001-2017
</metadata>
<g transform="translate(0.000000,640.000000) scale(0.100000,-0.100000)"
fill="#000000" stroke="none">
<path d="M12334 5670 c-11 -4 -34 -24 -52 -44 l-32 -37 0 -129 0 -130 -2740 0
-2740 0 0 40 0 40 -347 0 c-192 0 -377 5 -412 10 -74 12 -125 36 -199 93 l-53
40 -957 -7 c-526 -4 -1098 -11 -1271 -15 l-315 -8 -28 -34 c-15 -18 -35 -54
-45 -79 -22 -60 -26 -65 -70 -78 -21 -7 -78 -42 -128 -78 -102 -74 -157 -103
-198 -104 -43 0 -102 35 -192 116 -46 40 -100 85 -121 99 -63 43 -159 30 -213
-29 l-24 -26 24 0 c46 0 126 -30 153 -56 14 -15 35 -55 46 -91 40 -130 134
-269 220 -326 l24 -17 -24 -47 c-35 -70 -40 -239 -11 -390 12 -60 21 -114 21
-119 0 -5 -32 -34 -71 -64 -64 -50 -116 -115 -194 -243 -6 -10 -55 -28 -129
-47 -139 -35 -362 -123 -479 -187 -195 -108 -416 -280 -613 -478 -147 -148
-202 -225 -297 -411 -121 -239 -240 -526 -612 -1474 -59 -151 -141 -353 -181
-449 -41 -95 -74 -175 -74 -177 0 -2 466 -4 1036 -4 l1036 0 -5 28 c-93 521
-111 689 -104 977 5 219 21 319 78 495 90 277 255 542 376 603 34 18 249 89
320 107 46 12 54 11 78 -4 40 -26 60 -67 90 -184 52 -205 139 -343 254 -405
191 -105 558 -106 812 -3 146 59 247 129 331 229 86 104 91 120 97 367 6 206
7 217 31 260 17 31 42 55 78 77 71 42 244 97 389 124 65 11 282 61 483 111
l365 89 24 56 c13 30 34 61 45 68 12 8 107 25 211 40 251 34 321 44 375 56 25
5 182 13 350 18 334 10 296 4 732 105 397 92 465 101 1145 166 608 58 798 83
899 121 64 24 126 75 144 119 l13 30 776 -4 c427 -3 793 -6 813 -7 77 -6 118
73 118 228 l0 93 705 0 705 0 0 320 0 320 -141 0 -140 0 2 123 c2 112 1 127
-19 159 -35 56 -109 82 -168 58z m-6567 -277 c32 -20 83 -47 113 -60 54 -22
62 -23 458 -23 l402 0 0 -240 0 -240 -671 0 c-635 0 -671 1 -664 18 4 9 12 49
18 87 17 119 -26 262 -116 382 l-32 42 -787 1 c-811 0 -843 -1 -935 -41 -65
-28 -136 -100 -169 -172 l-29 -62 -3 -514 -3 -514 -49 68 c-28 37 -55 85 -61
106 -10 30 -18 39 -42 45 -49 10 -123 90 -141 153 -9 30 -15 68 -15 85 1 21 3
25 6 11 13 -54 37 -85 80 -106 41 -20 50 -21 97 -10 29 6 60 9 68 6 29 -11 48
33 48 110 0 111 -38 222 -92 272 l-24 23 -41 -21 c-48 -24 -88 -71 -115 -138
-10 -25 -16 -35 -13 -21 18 83 17 98 -5 127 -15 22 -21 41 -18 69 3 36 7 41
51 62 l47 22 0 66 c0 80 15 116 73 182 63 70 76 118 53 184 -10 27 -16 51 -14
53 2 2 548 7 1213 12 666 5 1220 10 1232 11 13 1 49 -15 80 -35z m-3375 -42
c13 -5 70 -50 128 -100 58 -50 123 -100 146 -111 80 -40 149 -22 276 73 40 30
93 65 117 77 l44 22 -7 -29 c-13 -54 -75 -168 -131 -238 -143 -182 -196 -270
-231 -390 -22 -79 -15 -228 15 -303 11 -29 21 -54 21 -56 0 -2 -12 -6 -27 -9
-16 -3 -35 -8 -43 -12 -25 -9 -55 161 -55 311 0 116 1 123 32 182 l31 61 -33
21 c-46 28 -130 122 -166 184 -16 28 -41 88 -55 133 -28 92 -64 133 -134 154
-22 7 -40 16 -40 20 0 17 76 24 112 10z m2883 -38 c32 -44 46 -43 -811 -43
-662 0 -821 -3 -847 -14 -36 -15 -107 -88 -131 -134 -8 -16 -18 -48 -22 -71
-6 -40 -7 -41 -47 -41 l-40 0 7 41 c11 71 46 136 97 184 103 96 73 94 988 94
737 1 795 0 806 -16z m-15 -165 l0 -23 -797 0 c-796 0 -798 0 -845 -22 -50
-23 -76 -54 -88 -106 l-8 -32 -1 38 c-2 64 39 121 109 151 30 13 143 15 833
16 l797 0 0 -22z m7520 -123 l0 -125 -3005 0 -3005 0 0 125 0 125 3005 0 3005
0 0 -125z m-8018 25 l498 0 0 -250 0 -250 -749 0 c-653 0 -752 -2 -765 -15 -8
-8 -17 -15 -20 -15 -3 0 -6 32 -6 70 l0 70 -52 -1 c-29 0 -79 -4 -110 -8 l-58
-7 0 83 0 82 43 12 c33 9 145 26 190 29 4 0 7 36 7 81 l0 80 -85 -3 c-47 -2
-85 -1 -85 2 0 3 10 12 23 20 31 21 176 28 446 24 123 -2 449 -4 723 -4z
m2198 -480 l0 -120 -57 0 c-32 0 -123 3 -201 7 -143 6 -144 6 -154 32 -15 39
-13 121 5 164 l16 37 195 0 196 0 0 -120z m4170 83 l0 -38 -712 0 -713 0 -5
30 -5 30 -1355 5 c-1332 5 -1319 5 718 8 l2072 2 0 -37z m187 -28 c18 -33 38
-76 43 -95 9 -30 7 -37 -10 -52 -12 -9 -27 -15 -34 -12 -8 3 -35 37 -60 75
-36 53 -46 78 -46 109 l0 41 37 -3 c33 -3 39 -8 70 -63z m-7617 -54 l0 -70
-57 -6 c-32 -3 -77 -8 -100 -11 l-43 -5 0 70 c0 82 -4 79 120 84 41 2 76 4 78
5 1 1 2 -29 2 -67z m5970 -31 l0 -60 -1340 0 -1340 0 0 60 0 60 1340 0 1340 0
0 -60z m1190 -10 l0 -40 -580 0 -580 0 0 40 0 40 580 0 580 0 0 -40z m-4345
-28 c21 -70 25 -72 136 -72 l98 0 11 -39 c14 -52 -1 -115 -46 -202 -33 -63
-39 -68 -104 -98 -80 -37 -137 -47 -315 -56 -373 -18 -440 -30 -494 -89 -35
-37 -45 -32 -17 9 57 84 55 206 -5 279 -51 61 -180 118 -344 151 -44 9 -90 18
-102 21 -19 4 -23 11 -23 43 0 39 0 39 63 60 35 12 83 25 108 30 24 5 264 8
533 7 l489 -1 12 -43z m4372 -14 c-2 -13 -4 -3 -4 22 0 25 2 35 4 23 2 -13 2
-33 0 -45z m20 0 c-2 -13 -4 -3 -4 22 0 25 2 35 4 23 2 -13 2 -33 0 -45z m30
0 c-2 -13 -4 -3 -4 22 0 25 2 35 4 23 2 -13 2 -33 0 -45z m20 0 c-2 -13 -4 -3
-4 22 0 25 2 35 4 23 2 -13 2 -33 0 -45z m30 0 c-2 -13 -4 -3 -4 22 0 25 2 35
4 23 2 -13 2 -33 0 -45z m236 32 c10 -17 15 -35 12 -40 -4 -6 -55 -10 -119
-10 l-113 0 0 40 0 40 101 0 102 0 17 -30z m-7563 -61 c-37 -25 -74 -40 -115
-48 -45 -8 -45 -8 -45 20 0 31 11 34 120 37 40 1 51 -1 40 -9z m7540 -29 c-11
-20 -21 -20 -759 -20 -744 0 -749 0 -744 20 5 20 14 20 760 20 751 0 754 0
743 -20z m-4240 -25 c0 -25 -1 -25 -85 -25 -47 0 -85 4 -85 9 0 5 -3 16 -6 25
-5 14 6 16 85 16 90 0 91 0 91 -25z m4298 -23 c-5 -2 -15 -1 -24 2 -12 4 -12
9 -2 25 12 19 12 19 23 -2 6 -12 7 -24 3 -25z m-1608 -12 c0 -22 -73 -89 -120
-109 -73 -31 -241 -57 -633 -96 -1050 -105 -975 -94 -1472 -206 -265 -60 -485
-102 -492 -95 -1 1 5 22 14 46 22 64 19 177 -6 234 l-20 46 -87 0 c-78 0 -85
2 -79 18 23 54 34 90 35 115 l0 27 100 0 c82 0 100 3 100 15 0 13 154 15 1330
15 877 0 1330 -3 1330 -10z m-4169 -81 c188 -44 296 -104 313 -172 28 -109
-113 -290 -289 -373 l-50 -24 -918 0 c-912 0 -918 0 -959 21 -96 49 -186 165
-191 247 l-2 37 59 0 59 0 17 -70 c10 -38 22 -82 28 -96 17 -43 71 -98 105
-107 18 -4 391 -6 830 -4 l797 4 0 285 0 286 58 -7 c32 -4 96 -16 143 -27z
m-2652 -61 c82 -144 245 -243 442 -270 l91 -13 24 -52 c29 -60 114 -142 185
-179 l48 -24 918 0 918 0 60 28 c33 16 91 52 128 80 37 29 71 52 74 52 4 0 34
11 69 25 76 30 139 40 409 60 292 22 322 28 400 89 l39 31 -52 -76 c-29 -42
-61 -84 -70 -92 -27 -24 -120 -44 -362 -77 -293 -40 -330 -47 -360 -69 -24
-17 -26 -17 -40 0 -8 10 -30 20 -48 24 -32 6 -32 6 -30 -26 3 -27 -2 -35 -27
-50 -42 -25 -574 -169 -625 -169 -7 0 -22 8 -32 17 -17 15 -30 15 -156 4 -221
-20 -2114 -246 -2148 -256 -7 -2 -6 -30 3 -91 7 -48 11 -89 9 -91 -2 -2 -45
-14 -97 -28 -52 -13 -120 -33 -152 -44 -67 -23 -79 -14 -53 37 58 113 77 308
38 396 -43 95 -195 216 -336 268 l-60 22 55 24 c30 13 112 43 183 67 l129 42
37 72 c73 138 184 255 278 292 71 27 84 25 111 -23z m4089 -93 c19 -42 25
-119 13 -177 -19 -91 -11 -87 -220 -95 l-185 -6 28 36 28 37 165 0 c152 0 165
1 159 17 -4 9 -10 36 -13 60 l-6 43 -108 0 c-60 0 -109 2 -109 5 0 3 14 27 31
55 l31 50 87 0 c84 0 88 -1 99 -25z m-1940 -652 c6 -20 9 -39 7 -43 -3 -4 -28
-10 -56 -14 -80 -11 -266 -61 -348 -95 -41 -16 -92 -44 -114 -62 -30 -25 -37
-27 -28 -11 36 68 221 146 421 177 78 12 82 27 5 20 -117 -10 -247 -35 -310
-60 -32 -14 -61 -22 -64 -20 -6 6 96 51 137 60 31 6 45 25 20 25 -22 0 -400
-79 -517 -108 -63 -16 -116 -33 -118 -38 -2 -6 22 -15 52 -21 47 -10 68 -9
143 7 93 21 168 25 191 11 11 -7 10 -13 -3 -33 -16 -24 -45 -142 -46 -182 0
-15 3 -16 15 -6 13 11 15 0 15 -94 0 -83 -3 -106 -14 -106 -9 0 -15 -20 -19
-66 -10 -127 -107 -274 -225 -340 -28 -16 -52 -35 -52 -41 0 -19 11 -16 76 22
58 34 58 34 24 5 -51 -43 -201 -115 -300 -144 -232 -66 -497 -57 -677 24 -130
59 -214 185 -272 408 -16 61 -39 127 -50 146 l-21 34 64 16 c117 29 132 20
110 -63 -33 -128 56 -364 164 -436 167 -110 512 -112 791 -5 259 100 370 320
300 593 -26 98 -61 154 -126 195 -74 48 -146 62 -313 62 -436 0 -832 -87 -865
-189 -3 -12 -16 -23 -28 -26 -74 -17 -172 -35 -191 -35 -21 0 -24 6 -36 100
-7 56 -10 103 -7 106 9 9 1445 185 2097 257 19 2 62 5 96 5 l61 2 11 -37z
m-888 -290 c71 -18 118 -56 153 -124 59 -115 58 -247 -3 -375 -96 -199 -382
-315 -743 -301 -182 7 -250 29 -327 105 -91 91 -148 239 -137 351 7 64 54 164
96 205 36 35 30 48 75 -156 41 -186 67 -245 137 -315 52 -53 189 -130 209
-118 18 11 11 26 -50 93 -163 180 -194 389 -84 560 l44 69 147 12 c82 6 166
13 188 15 69 6 237 -6 295 -21z m-686 -35 c-5 -7 -20 -32 -35 -56 -39 -62 -55
-162 -42 -262 13 -95 52 -183 116 -263 26 -31 45 -57 41 -57 -3 0 -25 11 -49
25 -57 34 -122 105 -147 161 -17 40 -102 393 -96 400 7 6 185 62 201 63 12 1
16 -3 11 -11z m-664 -172 c0 -21 -290 -112 -301 -94 -4 7 -5 16 -1 19 6 6 275
86 295 88 4 1 7 -5 7 -13z m1647 -148 c-3 -7 -5 -2 -5 12 0 14 2 19 5 13 2 -7
2 -19 0 -25z m-22 -128 c-15 -46 -42 -88 -99 -155 -41 -48 -30 -25 19 40 46
62 84 145 86 193 l2 27 4 -28 c3 -15 -3 -50 -12 -77z"/>
<path d="M3810 4983 l0 -63 150 0 151 0 -3 61 -3 60 -148 2 -147 2 0 -62z"/>
<path d="M6276 4369 c-54 -43 -23 -129 47 -129 69 0 101 77 52 125 -30 30 -64
32 -99 4z"/>
<path d="M2773 3978 c-42 -11 -63 -42 -63 -94 0 -85 100 -125 161 -65 38 38
39 87 4 129 -28 34 -56 42 -102 30z"/>
<path d="M3275 3575 c-39 -38 -32 -86 17 -111 24 -12 33 -13 55 -2 57 27 61
102 7 127 -37 16 -52 14 -79 -14z"/>
</g>
</svg>
