<?xml version="1.0" standalone="no"?>
<!DOCTYPE svg PUBLIC "-//W3C//DTD SVG 20010904//EN"
 "http://www.w3.org/TR/2001/REC-SVG-20010904/DTD/svg10.dtd">
<svg version="1.0" xmlns="http://www.w3.org/2000/svg"
 width="1274.000000pt" height="1280.000000pt" viewBox="0 0 1274.000000 1280.000000"
 preserveAspectRatio="xMidYMid meet">
<metadata>
Created by potrace 1.15, written by Peter Selinger 2001-2017
</metadata>
<g transform="translate(0.000000,1280.000000) scale(0.100000,-0.100000)"
fill="#000000" stroke="none">
<path d="M9660 12791 c0 -6 9 -15 20 -21 21 -11 50 -59 50 -83 0 -24 -181
-331 -212 -360 -26 -24 -37 -28 -72 -25 -22 3 -49 8 -58 12 -10 5 -18 4 -18 0
0 -11 251 -157 257 -150 3 2 -14 21 -36 41 -64 58 -58 100 34 255 18 30 52 88
75 129 39 68 44 73 52 52 4 -13 42 -159 84 -325 90 -360 84 -338 95 -334 5 2
59 91 121 198 125 215 153 246 218 237 19 -3 44 -8 55 -12 43 -17 -3 16 -115
79 -63 36 -117 63 -120 60 -3 -3 2 -11 10 -17 31 -24 50 -62 50 -102 0 -32
-15 -68 -72 -168 -40 -69 -74 -125 -76 -123 -1 2 -33 126 -70 277 l-67 273
-45 26 c-126 73 -160 91 -160 81z"/>
<path d="M9489 11868 c-10 -18 -8 -24 7 -35 16 -12 21 -11 31 4 18 23 16 31
-7 43 -16 8 -21 6 -31 -12z"/>
<path d="M9411 11732 c-7 -13 -6 -23 1 -30 17 -17 32 -15 45 8 11 16 10 21 -6
30 -26 13 -29 13 -40 -8z"/>
<path d="M9150 11280 c-8 -15 -6 -21 11 -30 17 -10 23 -8 34 7 12 15 12 20 -2
31 -23 17 -31 15 -43 -8z"/>
<path d="M9073 11150 c-11 -16 -9 -21 9 -34 20 -14 23 -14 36 6 14 19 13 22
-3 34 -24 18 -28 18 -42 -6z"/>
<path d="M8813 10700 c-11 -17 -10 -21 9 -31 18 -10 24 -8 35 7 12 16 11 21
-4 31 -22 17 -26 16 -40 -7z"/>
<path d="M8739 10568 c-10 -18 -8 -24 7 -35 16 -12 21 -11 31 4 18 23 16 31
-7 43 -16 8 -21 6 -31 -12z"/>
<path d="M8657 10438 c-19 -24 -206 -270 -417 -548 -210 -278 -388 -504 -394
-503 -6 1 -66 26 -133 57 -420 190 -877 287 -1358 287 -285 0 -455 -17 -710
-73 -804 -174 -1513 -633 -1997 -1293 -36 -49 -72 -100 -79 -112 -8 -13 -17
-23 -21 -23 -4 0 -291 120 -639 266 -581 245 -632 265 -647 250 -15 -15 -15
-18 3 -35 11 -10 254 -195 540 -411 286 -216 526 -398 533 -404 10 -10 2 -35
-38 -124 -144 -321 -223 -597 -276 -962 -21 -148 -30 -543 -15 -710 38 -431
153 -837 345 -1220 163 -326 339 -571 595 -834 173 -176 369 -341 531 -447
l25 -16 -34 -84 c-19 -46 -45 -108 -58 -137 l-23 -53 -61 41 c-33 23 -66 40
-72 37 -7 -3 -20 -19 -30 -36 l-18 -30 71 -47 c38 -26 70 -51 70 -55 0 -4 -86
-211 -190 -459 -105 -248 -188 -455 -185 -461 21 -33 54 4 335 376 160 211
295 387 300 390 5 3 23 -1 39 -10 17 -8 32 -15 35 -15 3 0 15 18 26 40 l20 39
-30 16 -30 16 87 114 c48 63 91 115 95 115 5 0 31 -11 59 -25 27 -14 100 -46
162 -72 411 -169 837 -253 1277 -253 1084 0 2104 524 2726 1401 l76 107 131
-56 c73 -30 134 -57 136 -58 2 -2 -4 -15 -13 -28 -9 -14 -16 -27 -16 -30 0 -5
65 -46 73 -46 3 0 15 16 27 35 18 29 25 33 40 25 69 -37 879 -370 894 -368 22
3 29 18 18 34 -4 5 -176 138 -382 293 -206 156 -381 289 -388 296 -11 10 -7
25 22 83 20 40 36 75 36 80 0 8 -70 46 -75 40 -1 -2 -18 -33 -36 -71 l-34 -67
-100 76 c-55 42 -108 82 -118 89 -17 12 -17 16 13 81 244 530 345 1042 318
1614 -34 710 -308 1410 -772 1970 -164 198 -450 460 -648 593 -43 29 -77 56
-78 61 0 4 119 292 265 638 208 493 263 633 254 644 -17 21 -25 18 -62 -28z
m-2017 -799 c304 -27 644 -108 920 -219 49 -19 229 -100 239 -106 5 -4 -861
-1144 -870 -1144 -4 0 -50 11 -101 25 -92 25 -220 48 -330 60 -45 5 -58 10
-58 23 1 9 7 69 15 132 8 74 10 121 4 132 -12 23 -51 33 -119 32 -63 -1 -104
-18 -96 -40 3 -8 1 -14 -3 -14 -5 0 -5 -17 0 -37 4 -21 11 -79 15 -129 l6 -90
-122 -13 c-67 -7 -123 -11 -125 -9 -1 2 -101 238 -221 526 -120 287 -220 519
-222 514 -1 -4 18 -168 43 -363 90 -707 97 -761 93 -763 -11 -9 -220 -98 -222
-95 -2 2 -26 54 -52 114 -26 61 -52 116 -57 123 -27 34 -162 -19 -191 -77 -15
-27 -14 -30 50 -117 109 -147 110 -129 -4 -215 -53 -41 -138 -114 -189 -163
l-93 -88 -37 15 c-79 31 -1259 529 -1271 536 -30 17 244 357 435 542 257 248
527 437 838 588 348 170 750 283 1130 320 131 12 462 13 595 0z m1617 -601
c219 -156 477 -400 648 -614 368 -462 592 -982 686 -1594 30 -195 33 -664 6
-860 -48 -341 -164 -735 -288 -982 l-29 -57 -192 146 c-106 80 -363 274 -571
431 -281 213 -376 290 -371 302 21 54 57 226 72 344 l17 138 60 -6 c33 -4 96
-9 141 -13 l80 -6 15 34 c27 67 9 199 -26 185 -8 -3 -15 -1 -17 4 -2 5 -25 5
-53 0 -27 -5 -85 -11 -127 -14 l-77 -6 -6 48 c-3 26 -10 80 -16 120 -6 41 -9
75 -7 76 1 2 91 39 198 84 550 229 862 360 868 367 4 3 -4 4 -18 1 -14 -3
-113 -17 -220 -31 -107 -13 -356 -45 -554 -70 -197 -25 -360 -45 -361 -43 -1
2 -12 29 -24 61 -11 31 -32 80 -46 108 l-26 50 83 38 c46 21 104 48 131 59 41
18 47 25 47 52 0 58 -74 170 -112 170 -5 0 -47 -28 -93 -62 -46 -35 -97 -71
-113 -81 l-30 -17 -23 37 c-41 66 -140 186 -222 270 l-80 81 263 624 c145 342
269 638 277 656 7 17 15 32 18 32 3 0 44 -28 92 -62z m-1843 -519 c2 -2 -2
-58 -10 -124 -7 -66 -13 -123 -14 -127 0 -5 -18 -8 -40 -8 -32 0 -40 4 -40 18
0 10 -5 67 -11 127 -9 88 -8 109 3 117 12 8 104 6 112 -3z m-1018 -374 l52
-114 -35 -21 c-19 -11 -35 -20 -37 -20 -1 0 -26 35 -55 78 -28 42 -61 89 -73
105 -19 24 -20 29 -8 42 20 19 72 45 90 45 9 -1 34 -44 66 -115z m863 18 l-4
-88 93 -3 92 -3 0 86 0 85 33 0 c84 0 418 -67 438 -87 4 -5 -117 -173 -270
-375 l-279 -367 -167 401 c-130 309 -165 402 -154 408 7 5 51 11 98 15 74 5
104 9 120 14 1 0 1 -38 0 -86z m131 16 c0 -69 -1 -71 -22 -65 -13 3 -31 6 -40
6 -15 0 -18 10 -18 65 l0 65 40 0 40 0 0 -71z m-636 -351 c21 -167 46 -360 55
-430 10 -71 16 -128 14 -128 -6 0 -813 340 -835 352 -16 8 -15 12 15 44 72 80
310 274 336 274 6 0 27 -31 46 -70 19 -38 38 -70 41 -70 16 0 154 83 154 92 0
5 -8 22 -19 36 -23 34 -63 113 -59 117 9 9 185 84 199 84 13 1 21 -49 53 -301z
m-264 125 l30 -53 -38 -19 -38 -19 -29 55 -29 55 25 19 c34 27 46 21 79 -38z
m-1492 -556 c303 -230 554 -422 557 -427 3 -4 -1 -26 -9 -48 -22 -62 -55 -230
-67 -344 -6 -57 -12 -104 -13 -105 -1 -1 -59 4 -129 12 -70 8 -135 11 -143 8
-9 -3 -20 -17 -25 -30 -15 -39 -11 -146 6 -170 16 -23 18 -23 197 -8 l97 8 5
-34 c19 -123 26 -203 19 -209 -4 -4 -242 -105 -528 -225 -286 -119 -522 -219
-525 -222 -3 -3 15 -2 40 1 158 22 1069 136 1087 136 16 0 25 -9 34 -37 6 -20
27 -69 45 -109 30 -67 32 -74 16 -82 -9 -5 -62 -29 -117 -52 -119 -52 -125
-56 -125 -87 0 -56 73 -163 111 -163 10 0 56 27 101 61 45 33 94 67 109 75 28
14 28 14 77 -56 63 -89 197 -243 240 -276 17 -14 32 -30 32 -37 0 -6 -120
-295 -266 -641 -146 -347 -270 -641 -275 -654 -9 -23 -9 -23 -81 27 -202 140
-460 375 -620 566 -478 572 -743 1269 -765 2015 -13 444 62 876 224 1285 74
187 110 258 126 248 7 -4 261 -196 565 -426z m3783 185 c33 -41 77 -100 99
-133 l40 -59 -72 -36 c-40 -20 -75 -38 -78 -41 -7 -6 72 -152 85 -157 6 -2 41
14 78 37 41 24 72 36 77 31 13 -13 89 -197 85 -205 -3 -3 -30 -9 -62 -12 -32
-3 -222 -26 -422 -52 -199 -25 -365 -44 -367 -42 -2 2 73 186 167 408 94 222
175 415 180 428 10 24 11 24 70 -35 33 -32 87 -92 120 -132z m444 -160 c3 -14
2 -28 -2 -32 -9 -9 -213 -100 -223 -100 -3 0 -14 16 -23 35 l-17 35 68 44 c37
25 83 59 102 75 l35 30 27 -30 c14 -17 29 -43 33 -57z m-260 -107 c11 -19 17
-36 15 -37 -3 -2 -29 -18 -58 -35 l-52 -32 -20 39 -20 39 53 29 c28 17 55 30
58 31 3 0 14 -15 24 -34z m-3015 -640 c195 -147 359 -271 363 -275 4 -4 -74
-41 -175 -83 -101 -42 -280 -117 -398 -166 -118 -50 -218 -87 -221 -83 -6 7
-29 169 -29 206 0 16 9 17 78 15 42 -2 82 0 87 3 6 3 10 44 10 90 l0 83 -89 3
-89 3 7 87 c12 165 68 410 90 394 6 -5 171 -129 366 -277z m3248 -64 c7 -48
12 -101 12 -116 l0 -27 -82 3 -83 4 -7 -80 c-4 -50 -2 -85 4 -92 7 -9 38 -13
89 -13 l79 0 0 -44 c0 -94 -54 -385 -79 -425 -7 -10 -98 54 -375 264 -201 153
-366 280 -366 284 0 7 768 330 786 331 6 0 16 -39 22 -89z m-3820 -178 l92 -6
0 -42 0 -42 -82 -7 c-46 -3 -104 -9 -129 -12 -45 -6 -46 -5 -52 24 -3 16 -3
47 0 67 6 36 7 37 42 31 20 -3 78 -9 129 -13z m4117 -14 c4 -17 4 -46 1 -65
-8 -40 -10 -40 -166 -23 l-100 12 0 43 0 44 78 1 c42 0 95 4 117 8 62 13 63
13 70 -20z m-287 -4 c2 -1 6 -19 9 -39 l6 -36 -72 0 -73 0 3 38 c1 20 5 41 7
46 4 7 111 -1 120 -9z m-3588 -35 l0 -40 -65 0 -65 0 0 40 0 40 65 0 65 0 0
-40z m665 -952 c-98 -233 -179 -425 -181 -427 -17 -20 -314 326 -314 366 0 7
32 29 70 48 39 19 70 40 70 45 0 17 -73 142 -86 147 -7 3 -26 -4 -41 -15 -15
-11 -47 -29 -69 -40 l-41 -21 -31 67 c-17 37 -38 85 -46 108 l-14 41 181 23
c100 13 292 37 427 55 135 17 247 30 249 29 2 -2 -76 -194 -174 -426z m-436
86 c12 -20 21 -37 19 -39 -17 -11 -103 -55 -109 -55 -11 0 -42 60 -35 67 5 5
96 60 103 62 0 1 11 -15 22 -35z m2473 -206 l408 -171 -28 -31 c-74 -85 -314
-286 -340 -286 -4 0 -23 32 -42 70 -19 39 -40 70 -47 70 -15 0 -141 -68 -148
-81 -3 -5 12 -39 35 -76 22 -37 40 -71 40 -76 0 -10 -163 -87 -193 -90 -20 -2
-22 10 -68 363 -67 520 -65 494 -42 486 10 -4 201 -84 425 -178z m-2603 138
c12 -18 21 -35 21 -38 0 -3 -35 -28 -78 -56 -44 -29 -87 -61 -97 -72 -10 -11
-24 -20 -31 -20 -15 0 -64 78 -64 102 0 9 30 27 78 47 42 18 93 41 112 51 19
11 36 19 37 20 1 0 11 -15 22 -34z m1791 -504 l167 -397 -30 -7 c-17 -3 -71
-9 -120 -13 l-90 -7 5 86 c7 101 9 99 -107 94 l-70 -3 -3 -88 -3 -88 -57 6
c-143 15 -370 62 -409 84 -9 4 74 121 265 373 152 201 279 364 281 362 3 -2
80 -183 171 -402z m1900 -92 c355 -149 649 -275 653 -279 21 -20 -216 -313
-403 -501 -273 -273 -556 -475 -894 -635 -893 -424 -1889 -431 -2790 -20 -57
26 -76 39 -69 48 15 19 856 1132 857 1134 1 1 39 -9 84 -22 96 -28 306 -65
368 -65 52 0 50 11 30 -160 l-14 -115 25 -22 c20 -19 36 -23 91 -23 66 0 119
20 107 40 -3 5 -1 11 4 14 4 3 5 25 1 48 -4 24 -11 80 -14 125 l-7 81 58 6
c32 4 85 10 118 15 33 5 63 6 68 2 4 -4 106 -243 227 -532 121 -288 220 -515
220 -504 0 11 -13 124 -30 250 -96 753 -110 867 -105 876 4 5 11 9 17 9 6 0
53 20 104 44 l94 45 28 -57 c16 -31 41 -87 57 -124 29 -71 47 -85 93 -73 43
10 118 63 130 90 15 33 17 27 -25 77 -20 23 -56 74 -81 112 -37 57 -42 70 -30
77 46 26 204 157 278 231 47 47 90 84 95 83 6 -1 300 -125 655 -275z m-1121
-6 l30 -55 -32 -20 c-18 -10 -34 -19 -37 -19 -3 1 -19 25 -36 55 l-32 54 32
21 c17 11 34 20 38 20 3 0 20 -25 37 -56z m82 -136 c23 -35 55 -80 72 -101 16
-20 27 -43 24 -51 -7 -19 -97 -61 -106 -50 -12 13 -104 224 -100 228 20 15 55
36 61 36 4 0 26 -28 49 -62z m-978 -70 c-2 -5 -3 -33 -3 -63 l0 -55 -40 0 -40
0 0 66 0 65 43 -3 c23 -2 41 -6 40 -10z m1 -180 c19 -166 21 -211 10 -215 -6
-2 -36 -3 -65 -1 l-54 3 3 35 c1 19 8 77 14 128 l10 92 39 0 c37 0 38 -1 43
-42z"/>
<path d="M53 10377 c45 -35 44 -79 -7 -367 -25 -140 -42 -258 -38 -261 4 -4
86 55 182 132 96 76 177 139 181 139 3 0 -12 -99 -34 -221 -21 -122 -36 -223
-33 -226 3 -3 94 65 202 152 243 194 250 199 315 193 27 -3 48 -1 47 4 -4 10
-191 118 -197 113 -2 -2 11 -18 28 -35 34 -35 36 -39 20 -72 -10 -23 -277
-244 -284 -236 -4 4 51 328 61 361 9 30 40 39 80 22 19 -8 34 -10 32 -5 -4 12
-261 161 -267 155 -2 -3 6 -17 20 -31 20 -22 24 -35 23 -85 -1 -33 -3 -61 -5
-62 -2 -2 -57 -45 -122 -96 -65 -51 -120 -91 -121 -89 -7 8 64 371 76 385 9
11 23 13 52 8 22 -3 38 -4 36 -1 -3 2 -60 36 -127 75 -120 70 -174 92 -120 48z"/>
<path d="M5305 10133 c-75 -39 -115 -104 -116 -188 -3 -186 229 -274 355 -135
33 37 56 92 56 135 0 72 -61 163 -128 191 -45 18 -129 17 -167 -3z"/>
<path d="M6117 10112 l-88 -3 3 -47 3 -47 85 3 c47 2 88 7 92 11 4 4 4 25 0
46 l-7 40 -88 -3z"/>
<path d="M6400 10076 l0 -43 61 -7 c117 -12 117 -12 120 38 l4 44 -50 6 c-27
3 -69 6 -92 6 l-43 0 0 -44z"/>
<path d="M6770 10078 c0 -9 -3 -29 -6 -45 l-6 -29 88 -12 c98 -13 104 -11 104
44 0 37 -9 40 -112 50 -57 6 -68 4 -68 -8z"/>
<path d="M5725 10066 l-60 -11 3 -35 c4 -58 3 -58 96 -42 83 15 86 16 86 43 0
63 -12 67 -125 45z"/>
<path d="M7137 10023 c-2 -4 -7 -24 -11 -43 l-6 -36 76 -18 c41 -9 81 -19 88
-22 9 -3 16 5 20 23 4 15 9 36 12 45 4 13 -7 20 -48 31 -78 23 -125 30 -131
20z"/>
<path d="M7491 9917 c-24 -64 -22 -67 67 -97 l82 -28 15 35 c14 34 19 53 12
53 -2 0 -40 13 -85 30 l-83 30 -8 -23z"/>
<path d="M5033 9879 c-46 -17 -83 -35 -83 -40 0 -5 7 -26 15 -45 12 -29 19
-35 32 -29 10 5 48 19 85 32 l66 25 -15 44 c-8 24 -16 44 -16 43 -1 0 -39 -14
-84 -30z"/>
<path d="M7840 9796 c0 -2 -7 -19 -15 -39 l-14 -35 75 -36 c42 -20 80 -36 85
-36 7 0 39 62 39 77 0 5 -148 73 -161 73 -5 0 -9 -2 -9 -4z"/>
<path d="M4688 9729 c-43 -21 -78 -41 -78 -44 0 -13 35 -75 42 -75 7 0 148 68
156 75 3 3 -36 85 -41 85 -1 -1 -37 -19 -79 -41z"/>
<path d="M4368 9550 c-37 -23 -70 -45 -73 -50 -5 -8 9 -35 41 -79 2 -1 18 8
36 22 18 13 47 32 63 40 58 31 58 31 35 70 -12 21 -25 37 -28 37 -4 0 -37 -18
-74 -40z"/>
<path d="M855 9549 c-5 -14 -2 -25 6 -30 21 -13 27 -11 40 12 9 17 8 23 -2 30
-23 14 -37 10 -44 -12z"/>
<path d="M989 9478 c-10 -18 -8 -24 6 -35 14 -9 22 -10 32 -2 19 16 16 37 -7
49 -16 8 -21 6 -31 -12z"/>
<path d="M8471 9406 c-12 -18 -21 -36 -21 -39 0 -3 32 -29 70 -57 68 -50 72
-52 86 -34 26 34 36 56 27 63 -23 21 -132 101 -136 101 -3 0 -15 -15 -26 -34z"/>
<path d="M4067 9340 c-36 -27 -69 -55 -73 -61 -3 -6 7 -25 23 -41 l30 -30 70
54 70 54 -27 37 -27 37 -66 -50z"/>
<path d="M1439 9218 c-10 -18 -8 -24 6 -35 14 -9 22 -10 32 -2 19 16 16 37 -7
49 -16 8 -21 6 -31 -12z"/>
<path d="M8758 9176 l-28 -34 69 -61 68 -60 26 27 c15 16 27 33 27 39 0 9
-122 123 -132 123 -1 0 -15 -15 -30 -34z"/>
<path d="M1569 9139 c-9 -17 -8 -23 2 -30 22 -14 38 -10 49 11 8 15 6 21 -9
30 -27 14 -29 13 -42 -11z"/>
<path d="M3775 9090 l-65 -64 32 -33 32 -33 62 58 c34 31 62 62 63 68 0 5 -12
23 -28 38 l-30 29 -66 -63z"/>
<path d="M9026 8921 l-29 -30 58 -65 c32 -36 61 -66 64 -66 4 0 20 13 35 29
l29 30 -58 65 c-32 36 -61 66 -64 66 -4 0 -20 -13 -35 -29z"/>
<path d="M2019 8879 c-9 -17 -8 -23 2 -30 22 -14 38 -10 49 11 8 15 6 21 -9
30 -27 14 -29 13 -42 -11z"/>
<path d="M3524 8825 c-33 -36 -60 -69 -61 -73 -1 -4 14 -20 33 -36 l34 -28 23
28 c12 16 39 47 59 70 l37 41 -33 32 -33 32 -59 -66z"/>
<path d="M2150 8800 c-8 -15 -6 -21 9 -30 27 -14 29 -13 42 11 9 17 8 23 -2
30 -22 14 -38 10 -49 -11z"/>
<path d="M9263 8642 l-32 -27 50 -67 c28 -38 56 -68 63 -68 6 0 24 11 40 23
l29 23 -54 72 c-29 40 -56 72 -59 72 -3 0 -19 -13 -37 -28z"/>
<path d="M3290 8524 c-29 -41 -50 -76 -49 -77 2 -1 19 -13 37 -26 19 -12 37
-19 41 -15 4 5 28 39 54 75 l47 67 -35 26 c-18 14 -36 26 -38 26 -3 0 -28 -34
-57 -76z"/>
<path d="M9477 8344 l-38 -25 22 -37 c54 -89 70 -112 75 -112 5 0 66 30 72 35
3 3 -89 166 -92 164 0 0 -18 -11 -39 -25z"/>
<path d="M9653 8023 c-18 -9 -33 -20 -33 -25 0 -7 67 -147 75 -156 1 -1 20 6
42 15 l40 18 -38 83 c-21 45 -42 82 -46 81 -4 0 -23 -8 -40 -16z"/>
<path d="M2927 7878 l-36 -83 22 -11 c59 -30 62 -29 92 43 16 38 32 73 37 80
7 8 -3 18 -31 32 -22 12 -42 21 -44 21 -3 0 -21 -37 -40 -82z"/>
<path d="M9798 7684 l-36 -15 25 -75 25 -74 -33 -27 c-107 -90 -85 -269 41
-333 53 -27 93 -32 142 -20 124 32 192 170 139 285 -31 70 -92 111 -185 127
-14 2 -26 23 -44 76 -13 39 -27 72 -30 71 -4 0 -23 -7 -44 -15z"/>
<path d="M2797 7536 c-15 -45 -27 -85 -27 -88 0 -7 57 -28 75 -28 6 0 22 33
34 73 13 39 26 77 28 83 2 7 -15 18 -40 27 l-44 15 -26 -82z"/>
<path d="M2716 7248 c-12 -36 -36 -161 -32 -165 5 -6 79 -23 83 -20 1 2 11 42
21 89 l19 86 -26 7 c-14 3 -34 8 -44 11 -9 3 -19 -1 -21 -8z"/>
<path d="M9996 6978 c-22 -5 -41 -10 -43 -12 -2 -2 1 -42 8 -90 13 -91 13 -91
69 -80 l32 7 -7 69 c-12 113 -13 116 -59 106z"/>
<path d="M2646 6873 c-2 -10 -8 -50 -11 -89 l-7 -71 42 -7 c24 -4 44 -5 45 -4
2 2 8 41 13 88 12 94 9 100 -45 100 -22 0 -33 -5 -37 -17z"/>
<path d="M10033 6612 l-43 -3 0 -67 c0 -104 4 -112 56 -112 l44 0 -1 38 c-1
20 -4 62 -8 92 l-6 55 -42 -3z"/>
<path d="M2610 6430 l0 -90 50 0 50 0 0 90 0 90 -50 0 -50 0 0 -90z"/>
<path d="M9995 6235 c-2 -5 -6 -47 -8 -92 l-5 -83 49 0 49 0 0 74 c0 41 3 81
6 89 4 12 -5 16 -42 19 -26 2 -48 -1 -49 -7z"/>
<path d="M2657 6153 l-37 -4 6 -82 c3 -45 7 -87 9 -93 2 -7 19 -8 47 -5 l43 6
-3 50 c-4 78 -13 135 -20 133 -4 -1 -24 -3 -45 -5z"/>
<path d="M9950 5808 c-6 -40 -12 -79 -13 -87 -2 -15 29 -28 68 -30 19 -1 22 8
34 86 14 96 11 103 -46 103 -31 0 -31 0 -43 -72z"/>
<path d="M2702 5787 c-27 -5 -42 -13 -39 -20 2 -7 10 -44 17 -83 l13 -72 -41
-36 c-133 -121 -65 -339 112 -354 130 -11 225 75 226 202 0 99 -74 187 -171
202 -36 6 -36 6 -49 78 -16 94 -16 94 -68 83z"/>
<path d="M9896 5522 c-4 -8 -46 -156 -46 -164 0 -7 57 -28 75 -28 11 0 63 167
54 173 -12 9 -80 24 -83 19z"/>
<path d="M9774 5132 c-10 -26 -23 -62 -31 -81 -7 -18 -13 -35 -13 -37 0 -2 18
-13 40 -24 l40 -21 11 28 c6 16 21 55 34 89 l23 61 -44 16 -43 16 -17 -47z"/>
<path d="M2893 5077 c-18 -5 -33 -15 -33 -21 0 -10 58 -156 65 -164 2 -2 76
27 82 32 6 5 -64 160 -73 162 -5 1 -24 -3 -41 -9z"/>
<path d="M3039 4740 l-36 -19 41 -80 c22 -45 45 -81 50 -81 5 0 24 9 42 21
l34 21 -42 79 c-24 43 -45 79 -48 79 -3 -1 -21 -9 -41 -20z"/>
<path d="M3222 4418 c-20 -12 -31 -26 -28 -35 4 -10 76 -122 92 -141 1 -2 17
7 36 20 18 12 35 24 37 25 5 3 -92 153 -99 153 -3 0 -20 -10 -38 -22z"/>
<path d="M9227 4145 l-56 -73 34 -26 c18 -14 36 -26 38 -26 7 0 107 131 107
140 0 4 -15 19 -33 33 l-33 25 -57 -73z"/>
<path d="M3445 4124 c-11 -8 -27 -19 -34 -24 -12 -6 -3 -23 43 -79 32 -39 61
-71 65 -71 4 0 20 13 36 30 l28 29 -53 66 c-30 36 -56 65 -59 65 -3 0 -15 -8
-26 -16z"/>
<path d="M10502 3984 c-10 -20 -8 -25 9 -35 17 -8 23 -7 35 8 18 25 18 28 -10
41 -20 9 -25 7 -34 -14z"/>
<path d="M8988 3866 l-57 -63 33 -32 33 -32 61 68 62 67 -27 28 c-15 15 -32
28 -37 28 -6 0 -37 -29 -68 -64z"/>
<path d="M10634 3908 c-4 -15 -1 -25 11 -35 16 -11 20 -10 33 9 14 19 13 22
-3 34 -26 19 -33 18 -41 -8z"/>
<path d="M3677 3842 c-15 -15 -27 -32 -27 -38 0 -5 27 -36 60 -69 l60 -59 32
32 33 32 -66 65 -65 66 -27 -29z"/>
<path d="M8728 3622 c-36 -31 -67 -59 -67 -62 0 -3 13 -20 28 -38 l28 -33 67
56 c36 31 66 60 66 65 0 6 -12 23 -27 39 l-28 30 -67 -57z"/>
<path d="M11084 3648 c-4 -15 -1 -25 11 -35 16 -11 20 -10 33 9 14 19 13 22
-3 34 -26 19 -33 18 -41 -8z"/>
<path d="M3946 3589 c-14 -17 -26 -34 -26 -38 0 -4 31 -32 69 -64 l68 -56 27
37 27 37 -33 28 c-18 16 -49 42 -70 58 l-36 29 -26 -31z"/>
<path d="M11215 3569 c-7 -21 7 -39 32 -39 18 0 27 41 12 51 -23 14 -37 10
-44 -12z"/>
<path d="M8445 3398 c-38 -27 -71 -50 -73 -53 -3 -3 16 -35 44 -73 2 -2 37 20
78 49 48 33 73 56 68 63 -5 6 -17 23 -28 37 l-19 26 -70 -49z"/>
<path d="M12235 3329 c56 -49 50 -73 -57 -260 -51 -89 -103 -172 -115 -185
-24 -26 -78 -33 -114 -14 -10 6 -19 7 -19 3 0 -8 520 -313 533 -313 8 0 121
200 115 205 -2 2 -24 -12 -48 -32 -61 -48 -99 -63 -164 -63 -45 0 -70 8 -137
43 -45 23 -82 47 -81 52 2 16 116 215 124 215 4 0 23 -14 42 -31 45 -39 54
-82 34 -155 -9 -30 -13 -56 -9 -58 7 -5 193 315 187 321 -2 3 -22 -13 -45 -36
-48 -48 -100 -65 -153 -50 -21 5 -40 14 -43 20 -4 5 18 54 49 107 86 150 71
141 152 92 38 -23 80 -52 92 -64 50 -45 68 -115 51 -195 -6 -29 -9 -55 -6 -57
3 -3 30 37 60 88 42 70 52 96 44 104 -20 18 -504 294 -516 294 -7 0 4 -14 24
-31z"/>
<path d="M11665 3309 c-7 -21 7 -39 32 -39 18 0 27 41 12 51 -23 14 -37 10
-44 -12z"/>
<path d="M11802 3239 c-16 -25 -16 -26 9 -40 17 -9 23 -8 30 2 14 22 11 37 -9
48 -14 7 -21 5 -30 -10z"/>
<path d="M8185 3233 c-11 -8 -42 -26 -70 -40 -27 -14 -52 -27 -54 -29 -6 -5
30 -84 38 -84 4 0 41 20 83 45 l77 45 -20 35 c-27 45 -30 46 -54 28z"/>
<path d="M7808 3042 c-43 -19 -78 -39 -78 -44 0 -5 6 -24 14 -43 l15 -35 83
36 c45 19 84 37 86 39 3 3 -36 86 -41 84 -1 0 -37 -17 -79 -37z"/>
<path d="M4876 3005 c-9 -21 -16 -40 -16 -44 0 -5 88 -44 151 -66 12 -5 21 5
33 36 9 23 16 42 14 43 -2 2 -106 44 -155 63 -7 3 -19 -11 -27 -32z"/>
<path d="M7225 3006 c-62 -28 -107 -88 -120 -158 -6 -32 -11 -37 -39 -40 -30
-3 -31 -4 -28 -48 2 -24 4 -46 6 -48 2 -2 19 1 37 6 32 8 37 5 79 -38 82 -83
185 -92 278 -23 36 27 67 81 77 137 6 27 15 41 34 49 14 6 27 12 29 13 6 4
-21 84 -29 84 -4 0 -19 -4 -32 -9 -21 -8 -29 -4 -58 26 -19 19 -48 42 -66 49
-41 18 -129 17 -168 0z"/>
<path d="M5221 2879 c-6 -18 -11 -37 -11 -44 0 -9 118 -52 164 -59 14 -2 36
85 23 89 -58 17 -156 45 -160 45 -3 0 -10 -14 -16 -31z"/>
<path d="M5576 2789 c-3 -17 -6 -38 -6 -45 0 -15 47 -29 128 -40 43 -5 52 -4
52 8 0 9 3 29 6 45 l6 29 -78 13 c-42 7 -83 15 -89 17 -7 3 -15 -8 -19 -27z"/>
<path d="M6780 2764 c-8 -1 -36 -6 -62 -9 l-48 -6 0 -46 0 -45 58 6 c137 16
135 15 128 48 -3 17 -6 37 -6 44 0 13 -31 17 -70 8z"/>
<path d="M5940 2739 c0 -13 -3 -34 -6 -46 -6 -23 -10 -22 134 -38 l52 -6 0 51
0 50 -52 0 c-29 0 -70 3 -90 6 -35 6 -38 5 -38 -17z"/>
<path d="M6307 2733 c-4 -3 -7 -23 -7 -44 0 -35 2 -37 38 -40 20 -2 63 -2 95
-1 l57 4 0 44 0 44 -88 0 c-49 0 -92 -3 -95 -7z"/>
<path d="M3922 2228 c-18 -18 -14 -36 9 -43 34 -11 56 36 23 49 -20 8 -18 8
-32 -6z"/>
<path d="M3842 2089 c-11 -18 -11 -23 5 -35 25 -18 28 -18 40 9 9 19 8 26 -8
35 -24 15 -22 16 -37 -9z"/>
<path d="M3582 1639 c-15 -23 -15 -22 14 -37 18 -10 23 -8 32 12 8 18 6 25 -9
34 -24 15 -22 16 -37 -9z"/>
<path d="M3506 1508 c-14 -20 -14 -23 6 -36 19 -14 22 -13 34 3 18 24 18 28
-6 42 -16 11 -21 9 -34 -9z"/>
<path d="M3252 1068 c-18 -18 -15 -36 8 -48 15 -8 21 -6 30 11 7 11 10 22 8
23 -2 1 -10 7 -19 14 -12 9 -18 9 -27 0z"/>
<path d="M3172 928 c-18 -18 -14 -36 9 -43 34 -11 56 36 23 49 -20 8 -18 8
-32 -6z"/>
<path d="M2765 641 c-71 -36 -94 -112 -59 -187 9 -19 68 -89 131 -156 101
-106 143 -164 143 -197 0 -5 -12 -23 -26 -40 -49 -59 -150 -36 -231 52 -64 69
-96 140 -97 212 -1 33 2 72 7 88 4 15 4 27 0 27 -9 -1 -133 -215 -133 -229 0
-5 14 -2 31 6 29 15 35 15 64 -1 17 -9 49 -40 71 -67 44 -57 80 -86 142 -118
153 -78 305 15 268 164 -7 31 -36 67 -132 166 -163 169 -178 201 -117 249 52
40 137 16 214 -61 58 -58 79 -109 79 -197 0 -40 4 -71 9 -68 15 10 100 166 90
166 -6 0 -19 -4 -29 -10 -28 -15 -42 -5 -89 60 -95 131 -239 191 -336 141z"/>
</g>
</svg>
