<?xml version="1.0" standalone="no"?>
<!DOCTYPE svg PUBLIC "-//W3C//DTD SVG 20010904//EN"
 "http://www.w3.org/TR/2001/REC-SVG-20010904/DTD/svg10.dtd">
<svg version="1.0" xmlns="http://www.w3.org/2000/svg"
 width="1259.000000pt" height="1280.000000pt" viewBox="0 0 1259.000000 1280.000000"
 preserveAspectRatio="xMidYMid meet">
<metadata>
Created by potrace 1.15, written by Peter Selinger 2001-2017
</metadata>
<g transform="translate(0.000000,1280.000000) scale(0.100000,-0.100000)"
fill="#000000" stroke="none">
<path d="M7550 12770 c-286 -77 -544 -103 -1010 -104 l-355 -1 -73 -63 c-89
-76 -130 -103 -203 -130 -98 -36 -217 -53 -449 -62 -173 -7 -242 -14 -300 -29
-41 -11 -109 -30 -150 -41 -48 -13 -131 -24 -230 -30 -256 -15 -339 -57 -365
-183 -7 -37 -41 -56 -205 -116 -221 -82 -299 -96 -835 -152 -295 -31 -309 -31
-800 -31 -276 0 -542 5 -595 11 -100 11 -112 7 -103 -31 13 -47 140 -71 473
-87 282 -14 382 -21 393 -28 18 -11 -33 -33 -100 -44 -37 -6 -212 -13 -388
-16 -302 -5 -338 -3 -650 26 -181 17 -373 31 -426 31 -84 0 -98 -3 -115 -21
-18 -20 -18 -21 1 -57 11 -20 39 -49 62 -66 50 -34 67 -35 493 -22 237 7 287
6 359 -8 96 -19 306 -21 462 -6 57 6 212 28 344 50 290 48 411 64 575 80 139
13 314 9 375 -8 30 -9 98 -8 285 3 135 8 400 19 590 25 784 24 927 36 1090 90
63 21 142 44 175 50 71 14 105 33 105 60 0 31 -70 26 -155 -10 -110 -48 -238
-65 -640 -90 -474 -28 -918 -39 -929 -21 -8 12 32 45 99 80 53 28 56 31 25 26
-19 -3 -91 -15 -160 -26 -136 -23 -293 -30 -298 -14 -2 6 27 18 65 28 140 37
417 161 485 217 25 20 39 42 44 65 12 65 63 88 248 116 144 21 256 25 256 9 0
-6 -6 -19 -12 -30 -11 -17 -10 -22 2 -30 20 -13 621 -13 791 0 237 19 372 51
341 82 -8 8 -73 6 -219 -6 -386 -32 -588 -32 -821 1 l-44 6 44 19 c106 48 119
50 293 54 212 4 262 8 454 40 85 14 168 23 183 20 23 -4 44 3 95 34 89 54 176
72 360 78 136 4 322 -10 471 -34 18 -3 32 -1 32 5 0 19 -60 41 -137 51 -42 6
-78 11 -80 13 -7 8 153 38 246 47 214 21 618 36 1621 60 550 13 660 19 660 36
0 21 -62 62 -110 73 -27 6 -74 6 -124 1 -45 -5 -196 -14 -336 -20 -234 -10
-443 -19 -831 -36 -156 -7 -206 1 -158 27 13 7 38 15 54 19 l30 6 -28 19 c-47
30 -118 29 -247 -5z m-1089 -191 c-27 -11 -207 -39 -248 -39 -24 0 -25 2 -13
14 21 20 99 34 200 34 64 1 79 -2 61 -9z m-3396 -859 c4 -6 -17 -10 -55 -10
-38 0 -59 4 -55 10 3 6 28 10 55 10 27 0 52 -4 55 -10z m1055 0 c11 -7 5 -10
-23 -10 -23 0 -36 4 -32 10 8 13 35 13 55 0z"/>
<path d="M8460 12494 c-771 -44 -1042 -65 -1107 -87 -23 -7 -39 -19 -41 -31
-4 -18 1 -19 64 -12 139 13 387 26 719 36 591 18 890 41 919 70 42 42 -118 50
-554 24z"/>
<path d="M7048 12426 c3 -28 -2 -39 -35 -69 l-38 -37 65 0 c69 0 185 23 207
42 29 24 10 35 -81 48 -33 5 -72 18 -87 30 -16 11 -30 20 -32 20 -1 0 -1 -15
1 -34z"/>
<path d="M6767 12298 c26 -5 54 -5 75 1 28 8 22 9 -42 9 -70 0 -72 -1 -33 -10z"/>
<path d="M6365 12284 c-78 -11 -95 -16 -95 -28 0 -8 7 -17 16 -20 27 -10 157
-6 193 7 44 15 52 37 14 37 -15 0 -44 2 -63 4 -19 2 -48 2 -65 0z"/>
<path d="M6625 12144 c-44 -20 -114 -51 -156 -70 -86 -39 -215 -74 -268 -74
-38 0 -81 23 -81 43 0 31 -22 87 -35 87 -19 0 -28 -33 -26 -99 2 -122 10 -128
145 -118 224 16 426 100 426 177 0 51 76 51 201 1 46 -18 110 -34 165 -41 49
-5 467 -15 929 -20 462 -6 869 -15 905 -20 80 -12 218 -78 254 -121 47 -55 34
-89 -46 -130 -47 -24 -57 -33 -48 -43 8 -11 3 -20 -20 -40 -47 -39 -191 -115
-279 -146 -43 -15 -98 -41 -122 -57 -91 -62 -102 -65 -284 -74 -251 -13 -388
-26 -558 -54 -91 -16 -228 -29 -342 -35 -228 -11 -299 -21 -473 -66 -73 -19
-137 -32 -142 -29 -38 24 27 90 149 154 260 135 646 253 884 271 149 11 177
17 177 36 0 20 -62 27 -189 21 -144 -7 -290 -36 -446 -89 -274 -93 -482 -190
-570 -267 -32 -28 -74 -55 -94 -61 -20 -6 -173 -15 -341 -20 -457 -14 -467
-15 -606 -60 -221 -72 -367 -84 -649 -55 -243 25 -646 39 -800 27 -139 -11
-171 -20 -146 -44 9 -10 86 -12 334 -10 312 3 489 -6 510 -27 18 -18 -40 -31
-136 -31 -154 0 -366 -18 -472 -40 -55 -11 -185 -43 -290 -71 -414 -111 -591
-131 -940 -106 -126 10 -276 17 -332 17 -89 0 -106 -3 -123 -20 -11 -11 -17
-26 -14 -35 16 -40 268 -73 626 -82 352 -8 437 8 853 162 l250 93 390 6 c537
9 592 15 855 84 63 17 150 35 193 41 111 16 319 14 509 -4 125 -12 177 -14
231 -5 39 6 74 13 79 16 27 17 210 35 398 40 241 6 258 3 272 -55 14 -52 37
-80 88 -106 53 -27 62 -42 54 -84 -3 -16 -2 -31 3 -34 17 -11 74 26 119 76 70
78 54 104 -63 106 -76 1 -97 13 -131 75 -33 57 -56 76 -91 76 -12 0 -21 4 -21
9 0 18 91 30 255 35 122 3 198 11 270 26 76 17 155 24 330 30 197 7 244 12
326 33 109 29 171 57 214 98 45 42 122 73 305 123 204 56 260 75 365 126 45
22 87 40 93 40 6 0 23 -11 39 -24 59 -49 82 -55 185 -49 l96 6 98 -46 c116
-53 124 -54 459 -67 252 -9 377 -26 422 -56 57 -37 12 -71 -181 -133 -83 -27
-215 -74 -292 -104 -78 -31 -186 -68 -240 -82 -55 -14 -115 -37 -134 -51 -19
-13 -50 -36 -68 -49 -81 -58 -304 -125 -419 -125 -41 0 -168 -16 -281 -35
-301 -50 -347 -56 -445 -56 -126 1 -144 -9 -234 -127 -27 -35 -48 -42 -308
-92 -251 -48 -285 -57 -285 -75 0 -28 113 -21 313 20 246 51 322 79 417 154
28 22 68 45 88 50 31 8 144 18 367 34 l30 2 -3 -59 c-3 -67 -28 -196 -40 -208
-22 -22 -533 -88 -684 -88 -51 0 -145 7 -207 16 -62 8 -115 14 -117 12 -2 -2
39 -21 90 -41 85 -33 103 -37 189 -37 52 0 222 14 377 30 155 17 302 30 326
30 54 0 79 -22 89 -79 4 -23 10 -41 15 -41 9 0 35 67 51 133 9 36 9 58 0 90
-17 60 -30 179 -24 213 8 41 31 64 65 64 46 0 68 -17 94 -73 33 -72 31 -107
-11 -170 -38 -56 -44 -93 -19 -111 11 -9 17 -37 21 -106 5 -101 -11 -433 -22
-463 -17 -42 -41 -4 -104 158 -24 61 -47 114 -51 118 -15 16 -288 -19 -352
-44 -34 -14 -35 -23 -7 -35 12 -6 27 -26 33 -44 l11 -35 102 3 101 4 17 -34
c10 -18 41 -58 70 -88 34 -34 61 -74 73 -107 11 -28 41 -79 68 -113 87 -111
105 -140 102 -163 -3 -19 -9 -22 -49 -21 -79 0 -136 29 -171 85 -32 52 -70 78
-147 99 -47 12 -282 16 -356 5 -94 -15 -39 -25 133 -26 249 0 292 -18 233 -99
-29 -40 -42 -100 -22 -100 4 0 20 9 35 21 14 11 30 17 36 14 11 -7 14 -108 4
-118 -4 -3 -24 3 -45 13 -53 28 -91 25 -123 -6 -27 -28 -30 -40 -26 -116 2
-55 -7 -62 -92 -72 -32 -4 -58 -10 -58 -14 0 -4 29 -22 65 -41 76 -39 98 -67
69 -89 -49 -36 -232 25 -273 91 -45 74 -39 186 13 245 18 20 36 45 39 55 12
34 -23 91 -113 183 -50 50 -90 96 -90 102 0 6 11 24 25 40 51 61 37 68 -145
75 -109 4 -127 9 -230 69 -74 43 -152 61 -246 56 -74 -4 -92 -9 -176 -51 -112
-56 -226 -87 -322 -87 -62 0 -73 3 -97 26 -18 17 -34 24 -45 20 -14 -5 -16
-16 -11 -64 8 -71 -2 -87 -95 -166 -131 -110 -107 -139 165 -196 78 -17 157
-35 175 -41 72 -24 136 -105 167 -211 9 -32 32 -81 52 -109 63 -92 80 -161 47
-194 -29 -29 -49 5 -68 117 -13 76 -64 88 -143 34 -28 -19 -92 -56 -144 -82
-131 -65 -248 -146 -342 -234 -94 -88 -137 -144 -137 -177 0 -14 -12 -36 -29
-51 -22 -20 -31 -40 -37 -77 l-7 -50 -15 33 c-9 17 -19 32 -22 32 -4 0 -5 -44
-2 -99 4 -77 1 -110 -13 -152 -23 -71 -69 -162 -90 -179 -15 -12 -19 -12 -31
5 -12 15 -14 62 -12 232 3 190 1 214 -14 229 -10 10 -21 15 -25 11 -14 -15
-22 -127 -29 -417 -8 -341 2 -459 42 -527 l24 -42 -21 -12 c-29 -15 -120 -4
-135 16 -6 8 -13 73 -16 143 -5 122 -18 179 -38 167 -17 -11 -22 -97 -15 -250
l7 -154 85 -26 c103 -32 160 -66 169 -101 12 -45 -15 -59 -109 -58 -72 2 -120
11 -289 55 l-36 9 -6 93 c-3 50 -12 301 -21 557 -18 541 -24 670 -35 670 -5 0
-14 -17 -22 -37 -10 -30 -13 -173 -12 -706 1 -367 3 -670 5 -672 2 -2 87 -8
189 -14 383 -23 472 -58 155 -59 -151 -1 -336 12 -360 26 -9 4 -23 24 -33 43
-21 42 -46 48 -67 16 -42 -65 -22 -157 40 -183 52 -21 234 -37 355 -29 58 3
162 15 233 27 70 12 130 19 133 16 3 -3 12 -84 19 -179 25 -290 37 -338 108
-408 50 -50 148 -101 192 -101 40 0 100 43 139 98 29 42 29 42 22 153 l-6 111
29 -21 c46 -33 75 -103 79 -195 8 -151 -38 -282 -123 -352 -59 -48 -80 -90
-101 -203 -9 -50 -20 -91 -25 -91 -5 0 -15 12 -23 28 l-14 27 -7 -28 c-4 -15
-21 -38 -38 -51 l-30 -24 79 -7 c100 -8 118 -14 82 -27 -16 -5 -28 -15 -28
-22 0 -7 16 -47 35 -89 39 -85 43 -117 18 -173 -13 -31 -16 -65 -15 -165 2
-113 0 -131 -18 -162 -20 -33 -20 -38 -6 -66 9 -16 20 -32 26 -36 19 -12 41
-113 51 -240 14 -173 22 -202 62 -223 55 -29 104 -85 117 -132 9 -31 11 -91 7
-196 -8 -177 -4 -186 85 -259 32 -25 63 -56 70 -68 6 -12 17 -64 23 -115 15
-110 41 -157 111 -198 102 -60 277 -85 356 -51 67 28 88 109 88 344 0 226 -29
391 -80 464 -31 42 -40 84 -41 174 0 54 4 90 15 111 22 43 34 231 46 742 11
460 23 641 43 654 43 28 59 -32 87 -337 26 -277 45 -389 81 -488 16 -43 29
-88 29 -100 0 -12 11 -40 25 -62 59 -96 58 -90 66 -395 12 -465 35 -679 82
-764 36 -64 60 -76 178 -87 57 -6 145 -19 194 -30 50 -11 119 -27 155 -34 88
-20 252 -19 320 1 96 28 133 91 96 163 -19 36 -47 54 -121 77 -65 21 -125 70
-125 102 0 41 32 47 320 61 172 9 174 9 197 35 16 19 23 40 23 67 0 33 -4 41
-25 49 -37 14 -34 78 9 182 31 74 95 319 111 421 6 37 7 38 28 24 27 -18 63
-78 114 -193 83 -184 133 -368 133 -490 0 -72 -34 -173 -75 -225 -33 -41 -45
-79 -27 -79 5 0 30 17 57 38 43 33 54 37 104 37 65 -1 132 -33 150 -72 26 -57
-96 -117 -240 -118 -83 0 -115 15 -121 59 -7 47 -104 21 -143 -38 -55 -84 23
-166 158 -166 107 0 354 71 517 148 200 95 375 241 354 295 -2 7 -20 21 -39
30 -70 34 -69 26 -77 472 -3 220 -11 441 -17 490 -22 175 -93 612 -122 749
-32 152 -35 224 -18 406 22 248 68 469 127 617 22 54 43 117 47 140 6 38 -9
316 -20 370 -4 17 23 50 127 156 151 153 189 175 237 139 22 -17 26 -27 25
-68 0 -29 -11 -76 -27 -116 -37 -90 -78 -268 -80 -342 -2 -57 0 -61 26 -74 22
-11 27 -20 27 -48 0 -50 -16 -74 -48 -74 -41 0 -65 -22 -64 -58 1 -38 12 -59
62 -117 l40 -47 -7 -111 c-5 -62 -8 -312 -8 -557 0 -490 0 -491 65 -717 24
-82 40 -159 40 -190 0 -36 -17 -104 -57 -224 l-56 -172 -41 -18 c-23 -10 -71
-23 -109 -29 -52 -9 -72 -18 -87 -37 -23 -29 -20 -37 21 -59 84 -43 328 -57
494 -28 151 26 285 78 285 110 0 25 -42 36 -183 44 -208 12 -290 38 -235 74
13 8 46 20 73 27 59 14 95 34 95 54 0 7 -20 30 -46 51 -25 20 -49 45 -54 55
-6 9 -14 68 -20 131 -7 79 -25 169 -59 298 -27 102 -54 212 -60 244 -15 83
-13 430 4 756 22 426 37 537 84 656 10 28 25 78 32 113 6 34 20 72 30 85 21
27 59 37 84 23 16 -9 17 -57 10 -751 -8 -830 -6 -871 50 -997 60 -136 95 -248
166 -529 74 -291 119 -498 119 -547 0 -86 -129 -244 -262 -319 -80 -45 -113
-86 -103 -127 4 -13 24 -45 44 -70 24 -29 41 -61 45 -87 5 -31 12 -43 32 -50
30 -12 194 -13 211 -2 6 4 13 23 15 41 3 31 8 36 48 49 25 8 146 54 270 102
124 48 257 97 295 110 66 20 115 56 115 82 0 6 -18 28 -40 48 -50 46 -51 65
-10 232 39 158 38 232 0 463 -36 210 -39 335 -14 537 19 153 15 219 -22 399
-24 113 -26 153 -32 464 -4 187 -10 345 -14 351 -4 5 -12 49 -18 96 -14 107
-2 176 43 244 42 65 49 153 17 234 -36 91 -15 176 107 435 42 88 78 178 80
200 3 22 -3 76 -12 120 -10 48 -20 169 -25 300 -5 121 -14 240 -20 264 -22 92
-124 272 -201 358 -21 23 -54 73 -74 112 -43 87 -90 140 -150 172 -25 13 -45
26 -44 29 0 3 24 23 52 46 29 22 52 46 52 54 0 8 -15 25 -34 37 -28 19 -47 23
-108 23 -41 0 -84 5 -96 11 -41 21 -87 73 -97 110 -9 31 -6 45 16 94 46 99 15
174 -114 281 -133 110 -215 129 -348 79 -36 -14 -77 -25 -90 -25 -15 0 -48 22
-90 61 -74 66 -99 81 -161 98 -68 18 -127 -2 -190 -64 -92 -93 -85 -142 72
-473 52 -110 110 -249 130 -309 20 -59 44 -116 53 -125 10 -10 53 -23 106 -32
143 -24 149 -49 24 -112 -40 -20 -101 -64 -143 -103 -53 -50 -104 -84 -185
-125 l-111 -57 -37 28 c-83 63 -240 230 -281 299 -49 83 -62 138 -36 148 9 3
78 15 153 26 146 22 198 35 208 52 4 5 -38 53 -93 106 -114 112 -158 173 -238
331 -83 166 -100 190 -151 212 -91 41 -318 91 -532 119 -202 26 -212 38 -212
248 l0 129 113 17 c61 10 144 26 182 38 139 41 275 126 275 172 0 21 -54 106
-68 106 -4 1 -26 18 -50 39 l-43 38 60 31 c32 18 89 59 124 91 81 73 133 88
251 72 41 -6 82 -8 90 -5 8 3 16 20 18 37 l3 31 112 3 c112 2 253 22 307 43
48 18 16 33 -87 40 -51 3 -98 10 -106 14 -19 12 28 41 109 67 159 53 250 109
250 155 0 12 -13 33 -30 47 -58 49 -228 73 -635 87 -278 10 -308 14 -399 56
-47 21 -81 28 -168 34 -60 4 -112 10 -115 14 -4 3 4 25 16 47 21 37 22 42 8
56 -27 27 -153 16 -310 -28 -58 -16 -64 -13 -132 67 -96 115 -165 152 -328
173 -59 8 -275 11 -655 11 -337 -1 -624 3 -707 9 -268 22 -521 53 -615 77
-127 32 -159 31 -255 -12z m3170 -1290 c36 -36 73 -77 82 -91 16 -24 16 -26
-8 -44 -41 -33 -161 -86 -230 -103 -72 -18 -186 -21 -209 -6 -11 7 -14 25 -12
69 3 75 29 148 62 172 38 28 159 68 207 69 38 0 47 -5 108 -66z m1103 -754
c100 -53 137 -130 97 -200 -32 -55 -8 -125 67 -196 74 -72 168 -109 348 -139
122 -20 188 -42 201 -66 16 -30 -15 -81 -92 -152 -107 -100 -226 -154 -243
-111 -17 44 73 107 181 128 67 13 68 16 13 32 -8 3 -71 16 -140 28 -69 13
-150 33 -181 45 -171 65 -303 209 -390 428 -41 101 -45 176 -10 204 31 25 101
25 149 -1z m-984 -89 c164 -39 226 -90 324 -268 78 -141 133 -221 208 -302
l66 -71 -66 0 c-80 0 -127 21 -200 90 -64 60 -123 100 -147 100 -25 0 -24 -5
11 -61 44 -68 57 -149 36 -222 -18 -63 -39 -80 -89 -75 -25 2 -34 -2 -42 -19
-10 -24 -31 -37 -46 -28 -4 3 -11 22 -15 43 -4 20 -11 45 -16 54 -11 22 -54
45 -93 49 l-30 4 0 -58 c0 -49 -4 -62 -23 -77 -32 -26 -108 -54 -128 -46 -23
9 -14 67 26 170 17 43 28 87 25 97 -3 10 -21 27 -40 39 -52 32 -71 111 -40
169 23 45 69 57 59 16 -9 -37 3 -86 30 -119 l23 -30 30 22 c17 12 36 35 43 52
12 28 11 34 -9 60 -11 16 -21 32 -21 35 0 10 71 5 93 -6 12 -7 37 -25 55 -40
48 -42 92 -34 92 16 0 66 -153 125 -322 125 -81 0 -99 -3 -142 -26 -46 -24
-53 -25 -104 -15 -90 18 -182 84 -182 130 0 49 192 182 305 212 51 14 234 2
329 -20z m1431 -16 c113 -34 235 -147 235 -219 0 -46 -40 -125 -71 -141 -80
-42 -286 12 -371 97 -84 84 -48 199 82 257 54 25 63 25 125 6z m-3428 -139
c242 -51 405 -137 495 -260 36 -51 35 -62 -7 -76 -80 -26 -114 -18 -325 76
-88 39 -181 56 -194 35 -11 -18 55 -132 89 -152 16 -11 46 -19 65 -19 55 0 63
-11 58 -68 -7 -68 -45 -143 -118 -230 -34 -40 -70 -93 -81 -117 -24 -54 -59
-64 -59 -17 0 31 -35 69 -111 120 -68 46 -94 82 -124 171 -14 44 -38 97 -51
117 -42 61 -33 69 76 69 l94 0 23 34 c30 44 39 79 24 94 -8 8 -49 12 -114 12
-101 0 -102 0 -154 -37 -82 -57 -190 -72 -268 -36 -36 16 -31 41 19 85 89 79
187 112 328 113 67 0 78 7 78 46 0 21 6 37 18 43 25 15 160 13 239 -3z m1592
-281 c27 -35 41 -109 41 -213 0 -149 -29 -199 -88 -155 -41 30 -62 65 -92 149
l-29 79 0 -83 c-1 -98 13 -137 65 -183 66 -58 102 -100 109 -126 9 -39 -2 -39
-18 0 -8 19 -20 38 -27 42 -17 11 -48 -23 -77 -83 -13 -29 -36 -60 -49 -69
-33 -21 -87 -13 -150 25 -65 38 -107 48 -123 29 -23 -29 0 -49 138 -119 77
-39 91 -63 120 -195 21 -99 43 -151 67 -160 30 -11 31 13 8 112 -28 117 -32
236 -9 259 18 18 101 36 171 37 116 3 125 -45 43 -222 -27 -58 -49 -114 -49
-123 0 -10 9 -25 21 -35 20 -16 20 -19 7 -51 -8 -19 -22 -41 -32 -49 -14 -12
-19 -11 -35 4 -19 16 -20 15 -37 -16 -9 -19 -19 -67 -22 -114 -5 -93 6 -241
18 -229 4 5 15 43 25 84 9 41 19 81 21 89 3 9 17 -2 39 -30 50 -63 65 -100 65
-158 0 -54 -31 -227 -49 -274 -27 -70 2 -208 53 -256 l24 -23 89 32 c227 81
240 84 267 72 22 -10 26 -18 26 -52 0 -47 -12 -57 -123 -100 -119 -46 -206
-94 -287 -159 -41 -34 -78 -61 -82 -61 -22 0 2 122 36 188 23 45 20 58 -24
106 -56 60 -68 97 -90 264 -10 81 -22 155 -26 165 -20 52 -55 -39 -56 -148 -2
-62 2 -78 36 -143 45 -90 44 -113 -6 -129 -20 -7 -56 -26 -79 -43 -34 -24 -52
-30 -95 -30 -76 0 -371 59 -395 79 -15 12 -23 35 -29 86 -5 39 -13 84 -18 102
-14 42 -1 58 71 85 33 13 60 27 60 32 1 6 -37 18 -85 27 -105 21 -141 40 -177
99 -49 77 -49 80 19 139 33 29 60 59 60 66 0 21 -33 35 -79 35 -56 0 -71 24
-71 118 0 95 -20 169 -75 284 -47 96 -55 135 -30 144 63 25 206 -122 230 -236
22 -106 201 -373 411 -612 85 -96 167 -164 186 -152 12 8 -25 58 -121 159
-205 217 -351 437 -400 601 -32 108 -109 210 -226 303 -76 60 -118 84 -186
106 -105 34 -199 97 -249 167 -38 52 -38 78 3 163 44 91 80 132 125 145 45 12
162 13 181 1 38 -24 -66 -169 -149 -206 -22 -10 -40 -22 -40 -27 0 -4 29 -8
65 -8 62 0 66 -1 117 -46 103 -92 279 -150 428 -142 140 8 167 35 126 125 -14
30 -26 63 -26 72 0 24 36 78 65 97 31 20 55 5 55 -35 0 -15 7 -37 16 -50 28
-40 39 -10 39 110 0 128 -2 125 104 160 92 30 157 64 188 99 32 37 46 37 72 5z
m1611 -188 c59 -29 65 -58 18 -87 -45 -27 -102 -27 -122 2 -16 23 -22 99 -9
112 11 11 61 -1 113 -27z m666 -87 c16 0 39 -7 50 -15 19 -15 19 -15 -3 -34
-12 -10 -63 -29 -112 -41 -91 -22 -171 -63 -189 -97 -14 -25 0 -46 77 -118
l63 -60 -8 35 c-5 19 -8 53 -9 75 l0 40 59 5 c48 5 62 10 80 33 12 15 31 27
43 27 22 0 53 -24 53 -41 0 -20 -39 -46 -78 -53 -33 -5 -42 -11 -42 -26 0 -14
9 -20 35 -25 19 -3 50 -7 68 -10 74 -12 74 -44 0 -76 -61 -26 -89 -52 -119
-111 -19 -37 -30 -48 -48 -48 -17 0 -29 11 -47 48 -17 33 -35 52 -63 66 -25
12 -43 30 -52 53 -18 42 -62 69 -134 83 -158 32 -165 52 -41 115 36 18 101 63
144 99 64 54 86 66 125 71 26 3 54 8 62 10 8 2 24 1 35 -1 11 -2 34 -4 51 -4z
m-1591 -169 c18 -30 -184 -131 -260 -131 -64 0 -55 54 15 90 79 40 229 65 245
41z m125 -139 c37 -38 63 -75 74 -107 35 -97 31 -93 83 -100 104 -13 151 -62
124 -128 -31 -73 -27 -99 33 -215 94 -185 206 -502 206 -584 0 -43 -38 -114
-93 -174 -117 -129 -457 -233 -545 -167 -17 13 -36 45 -53 90 -14 39 -36 87
-48 106 -26 43 -76 87 -98 87 -9 0 -41 -27 -73 -60 -45 -47 -64 -60 -87 -60
-40 0 -147 55 -174 88 -38 48 -22 157 100 667 59 244 83 288 240 446 124 125
183 168 231 169 17 0 41 -18 80 -58z m-2260 22 c41 -25 57 -60 84 -185 13 -63
47 -217 76 -343 28 -126 71 -349 96 -495 49 -292 58 -335 81 -370 31 -49 12
-121 -38 -136 -31 -10 -22 -22 36 -49 30 -14 58 -31 61 -39 3 -8 -4 -32 -16
-54 -16 -31 -18 -46 -11 -65 14 -36 -8 -63 -72 -86 -100 -38 -365 -55 -489
-32 -50 10 -60 8 -90 -10 -43 -26 -102 -26 -181 1 -72 24 -100 40 -221 126
-76 54 -91 62 -98 48 -12 -20 -16 -318 -5 -368 5 -23 26 -58 53 -88 42 -47 44
-53 31 -72 -21 -32 -39 -31 -83 4 -31 24 -46 30 -71 26 -25 -4 -35 -1 -46 16
-14 21 -21 22 -170 22 l-155 0 -4 82 c-3 78 -6 88 -65 202 -93 179 -125 314
-124 531 0 158 8 198 72 362 64 167 86 210 147 290 54 70 82 119 82 142 0 8
-14 31 -31 51 -27 30 -31 41 -26 71 3 19 20 54 37 77 36 50 145 137 170 137
23 0 52 -41 92 -127 72 -160 101 -282 74 -318 -14 -20 -15 -19 -48 13 -35 33
-80 43 -95 20 -4 -7 -8 -143 -8 -303 l0 -290 -28 -65 c-42 -96 -66 -175 -73
-238 -13 -131 -48 -150 -137 -76 -37 31 -77 32 -77 3 0 -29 32 -80 68 -106 15
-11 60 -37 99 -56 39 -20 74 -44 77 -54 4 -9 -1 -46 -10 -80 -13 -50 -15 -69
-6 -88 12 -26 77 -64 89 -52 3 4 0 105 -7 224 -20 335 -7 454 58 533 24 28 33
32 55 26 35 -8 62 -51 61 -95 -1 -21 -19 -72 -43 -120 -27 -53 -41 -91 -37
-105 7 -28 61 -80 75 -72 6 4 11 33 11 65 0 43 7 70 25 105 31 58 31 93 4 250
-31 183 -26 219 49 346 98 165 121 267 84 375 -13 38 -22 50 -37 50 -16 0 -25
-15 -45 -72 -14 -39 -28 -74 -31 -78 -11 -10 -37 80 -69 236 -44 214 -39 254
36 279 64 21 79 10 133 -100 l48 -100 7 63 c18 167 57 169 91 5 18 -83 50
-160 76 -184 19 -17 19 -14 19 109 0 114 2 129 20 147 27 27 76 26 94 -2 8
-13 28 -77 46 -143 54 -209 121 -392 149 -409 20 -13 33 45 26 114 -11 103
-42 208 -84 284 -52 95 -58 129 -31 156 18 18 28 20 84 14 39 -4 66 -3 69 4 4
5 -7 28 -23 51 -32 44 -37 66 -17 74 21 9 28 8 57 -9z m1610 2 c0 -20 -27 -39
-45 -32 -13 4 -14 10 -5 26 12 23 50 27 50 6z m187 -91 c3 -9 -5 -44 -17 -78
-33 -92 -122 -277 -130 -272 -5 3 -11 36 -15 74 l-7 68 46 67 c25 37 46 73 46
81 0 16 48 75 61 75 5 0 12 -7 16 -15z m-1555 -18 c48 -20 81 -71 124 -195 52
-151 74 -269 85 -452 9 -173 15 -203 70 -363 32 -96 33 -99 21 -175 -15 -100
-28 -145 -51 -174 -19 -22 -19 -23 -40 -4 -12 11 -21 23 -21 27 0 5 -21 56
-46 115 l-46 108 -13 260 c-15 279 -20 307 -84 482 -39 108 -104 312 -116 368
-6 29 -6 29 37 24 24 -3 60 -12 80 -21z m3107 -3 c11 -14 22 -47 25 -77 19
-198 26 -248 40 -274 8 -17 61 -88 117 -159 148 -188 158 -216 104 -324 -35
-72 -38 -96 -15 -147 11 -25 20 -52 20 -60 0 -21 -38 -31 -174 -44 -140 -14
-179 -8 -184 29 -3 22 -2 22 93 21 104 -1 141 12 89 31 -16 6 -85 20 -154 30
-171 24 -197 34 -281 101 -41 32 -83 59 -95 59 -29 0 -51 -27 -64 -82 -7 -27
-15 -48 -19 -48 -11 0 -119 284 -126 331 -4 30 -3 55 5 69 11 20 17 22 67 17
69 -7 89 -25 109 -99 27 -95 90 -133 147 -88 71 56 60 252 -16 280 -54 20 -62
26 -65 53 -2 17 6 36 26 58 55 62 125 34 153 -61 20 -65 77 -110 159 -125 28
-5 42 -2 60 14 24 19 24 21 8 37 -9 9 -45 22 -80 29 l-63 11 -3 44 c-5 64 25
166 60 206 24 28 27 36 18 54 -6 11 -14 20 -18 20 -11 0 -72 60 -72 71 0 14
62 49 87 49 12 0 31 -11 42 -26z m719 -50 c28 -19 52 -38 52 -42 0 -11 -39
-47 -67 -61 -12 -6 -35 -11 -52 -11 -21 0 -43 -11 -71 -36 -22 -20 -40 -40
-40 -45 0 -5 52 -9 116 -9 63 0 124 -5 134 -10 24 -13 40 -70 42 -146 2 -79
-17 -94 -118 -94 -105 0 -103 -13 18 -108 100 -80 133 -134 132 -217 -1 -66
-34 -160 -41 -118 -8 44 -38 53 -170 53 -128 0 -152 -9 -90 -35 17 -7 59 -16
92 -20 79 -9 95 -14 95 -30 0 -17 -82 -35 -160 -35 -79 0 -110 -13 -110 -44 0
-28 25 -46 62 -46 13 0 33 -7 44 -15 16 -13 17 -16 4 -25 -8 -5 -36 -10 -62
-10 -56 0 -98 -14 -98 -33 0 -23 43 -55 106 -79 33 -13 71 -30 85 -39 24 -16
24 -17 5 -38 -43 -48 -219 -13 -251 50 -8 15 -15 52 -15 81 0 91 59 389 84
423 12 17 15 17 44 -5 45 -33 138 -40 171 -13 30 24 23 37 -38 67 -67 34 -76
48 -73 116 3 68 -5 78 -78 89 -35 6 -60 17 -78 35 -24 24 -27 33 -26 99 1 67
38 271 55 298 6 10 23 10 78 1 98 -17 150 -15 157 3 10 25 -5 63 -26 70 -11 3
-20 11 -20 17 0 17 51 -1 108 -38z m-1193 -44 c22 -24 32 -104 15 -115 -28
-17 -72 79 -56 120 7 20 19 19 41 -5z m679 -52 c9 -12 16 -30 16 -39 0 -24
-32 -119 -40 -119 -7 0 -30 106 -30 141 0 45 29 53 54 17z m-689 -203 c0 -30
-4 -41 -18 -43 -41 -8 -66 56 -29 77 32 19 47 9 47 -34z m955 -325 c0 -22 -4
-40 -10 -40 -5 0 -10 18 -10 40 0 22 5 40 10 40 6 0 10 -18 10 -40z m-735
-364 c19 -8 35 -20 35 -25 0 -19 -41 -32 -93 -29 -42 2 -53 7 -55 22 -8 42 51
58 113 32z m-2405 -22 c0 -30 -31 -73 -52 -74 -14 0 -8 45 8 68 18 25 44 29
44 6z m2990 -113 c0 -42 -16 -78 -39 -90 -18 -10 -172 -32 -179 -26 -4 4 137
118 163 133 36 21 55 15 55 -17z m-441 -60 c12 -8 12 -12 2 -25 -16 -19 -51
-21 -51 -3 0 13 19 37 30 37 3 0 11 -4 19 -9z m-2492 -147 c31 -19 66 -34 76
-34 11 0 94 -32 185 -70 91 -39 185 -74 210 -77 48 -7 82 -32 82 -60 0 -10 -9
-79 -20 -153 -21 -145 -26 -250 -11 -250 5 0 22 32 39 71 l29 71 7 -45 c18
-121 -51 -307 -111 -295 -14 3 -18 13 -18 51 0 26 -3 47 -7 47 -3 0 -20 -17
-37 -37 -37 -45 -39 -73 -11 -163 25 -77 23 -86 -40 -245 -26 -66 -58 -153
-70 -193 -12 -40 -30 -82 -40 -94 -16 -20 -20 -21 -35 -8 -40 33 -83 178 -109
368 -16 119 -41 191 -81 232 -42 44 -93 171 -140 351 -25 95 -50 178 -54 182
-17 17 -242 -208 -278 -277 -11 -21 -12 -35 -5 -55 21 -53 22 -82 8 -150 -19
-93 -54 -163 -121 -243 -58 -72 -66 -88 -38 -88 40 0 174 53 188 73 9 15 17
75 23 183 13 217 32 250 83 143 36 -73 75 -108 193 -171 55 -29 107 -64 117
-78 11 -15 26 -75 38 -146 13 -80 32 -152 56 -207 59 -143 95 -343 95 -524 0
-115 -24 -431 -66 -867 -28 -293 -27 -318 21 -400 86 -150 -9 -257 -269 -302
-96 -17 -187 -14 -213 7 -16 14 -15 45 8 141 14 60 13 61 -31 138 -17 29 -20
53 -20 149 0 64 -7 170 -16 237 -19 146 -12 174 35 150 15 -8 33 -22 40 -30
20 -24 63 -19 100 12 44 36 39 49 -53 160 -67 81 -100 110 -151 137 -28 15
-72 106 -95 200 -11 44 -27 157 -35 250 -17 195 -18 196 -56 371 -16 72 -34
177 -39 234 -6 56 -18 123 -27 148 -10 32 -14 68 -11 113 3 37 2 73 -3 80 -13
22 -36 -7 -42 -53 -9 -70 -39 -75 -121 -21 -42 28 -56 43 -54 58 2 11 46 52
106 98 57 44 101 81 98 84 -2 3 -67 -13 -143 -36 -154 -45 -230 -57 -253 -41
-24 17 52 78 188 149 127 67 182 105 170 117 -4 4 -40 -1 -79 -11 -104 -25
-129 -23 -185 12 -27 16 -62 35 -79 41 -43 16 -255 62 -286 62 -55 0 -45 -31
21 -65 54 -27 84 -63 129 -155 18 -36 39 -73 48 -82 24 -26 12 -74 -56 -217
-70 -149 -86 -202 -71 -231 13 -25 42 -26 62 -2 9 9 41 68 73 130 54 106 91
152 114 138 5 -3 23 -30 39 -59 17 -29 60 -86 96 -125 36 -39 68 -83 72 -98 4
-14 4 -56 0 -93 -3 -36 -13 -147 -21 -246 -9 -99 -20 -204 -25 -234 -6 -30
-10 -56 -10 -58 0 -1 -22 -28 -50 -58 -54 -59 -64 -102 -36 -141 14 -18 16
-18 50 15 20 19 38 32 42 29 27 -27 31 -216 9 -393 -8 -65 -15 -174 -15 -241
0 -120 0 -121 -31 -164 -37 -51 -38 -77 -9 -143 26 -59 21 -67 -60 -97 -33
-12 -60 -26 -60 -29 0 -4 35 -15 78 -25 162 -38 186 -70 146 -194 -22 -66 -48
-90 -120 -107 -33 -7 -84 -25 -114 -39 -30 -14 -64 -26 -75 -26 -12 0 -47 27
-84 64 -61 62 -63 65 -40 70 13 4 69 15 124 26 55 11 104 25 110 31 18 18 -10
42 -75 63 -55 18 -69 27 -94 65 -29 43 -29 43 -78 38 -46 -6 -49 -5 -59 21
-12 31 -6 87 12 108 6 8 30 14 53 14 72 1 144 44 160 98 6 19 4 22 -17 22 -13
0 -61 -9 -106 -20 -103 -26 -117 -20 -200 90 -69 92 -91 152 -91 250 0 83 -23
175 -55 216 -32 42 -32 81 1 150 47 99 97 107 140 22 21 -41 28 -47 40 -38 19
17 18 50 -6 110 -11 29 -24 91 -29 138 -10 89 -22 135 -39 146 -6 3 -29 -10
-53 -30 -40 -33 -44 -34 -56 -18 -19 25 -26 78 -20 138 4 42 0 62 -19 101 -26
54 -30 99 -14 157 14 50 56 98 85 98 31 0 47 -22 56 -81 5 -29 21 -70 39 -97
30 -44 32 -51 26 -114 -3 -38 -4 -68 0 -68 44 0 86 83 118 239 30 142 28 151
-40 151 -74 0 -78 12 -72 268 3 144 9 225 17 240 7 13 32 32 57 42 41 18 44
22 44 56 0 32 -8 45 -59 94 -51 49 -60 63 -66 104 -8 50 -1 117 16 147 13 24
48 24 96 -1 51 -26 216 -46 501 -61 277 -15 335 -8 432 49 81 47 153 112 174
155 12 27 15 62 13 158 -1 79 3 143 12 177 l13 53 54 -46 c29 -26 79 -62 111
-81z m2850 -6 c12 -13 31 -47 43 -76 32 -75 46 -79 109 -32 83 63 133 50 177
-44 27 -59 30 -106 9 -165 -13 -37 -13 -51 0 -119 19 -99 19 -99 -8 -74 -28
26 -35 27 -59 5 -30 -27 -21 -56 43 -129 33 -38 72 -89 87 -114 l27 -45 0
-350 0 -350 40 -85 c35 -74 40 -92 39 -155 0 -83 -21 -185 -37 -185 -6 0 -92
43 -190 95 -98 53 -201 105 -228 115 -52 21 -119 27 -119 10 0 -15 61 -72 184
-172 148 -121 217 -162 271 -163 22 -1 45 -4 51 -8 6 -3 14 -51 17 -105 3 -54
20 -184 38 -288 26 -160 30 -206 26 -299 -7 -159 -37 -228 -103 -241 -20 -4
-56 -24 -80 -45 -25 -21 -56 -42 -70 -45 -26 -7 -54 10 -54 33 0 25 -41 97
-100 173 -98 129 -117 174 -205 500 -113 420 -127 474 -145 573 -10 56 -24
125 -31 152 -10 38 -12 216 -11 760 0 391 5 726 9 745 6 26 15 36 31 38 27 4
52 -14 52 -37 0 -9 23 -54 50 -101 37 -62 50 -95 50 -124 l0 -39 43 7 c23 3
96 11 162 17 66 5 124 14 129 19 20 20 -14 61 -72 88 -43 20 -79 27 -148 32
-54 3 -98 10 -107 19 -9 7 -28 37 -43 66 -38 79 -20 133 52 155 44 13 49 12
71 -12z m-2187 -65 c0 -12 -33 -43 -47 -43 -13 0 -18 31 -6 43 8 9 53 9 53 0z
m641 -97 c23 -20 57 -38 75 -42 18 -3 94 -1 167 5 92 8 143 8 161 1 33 -12 50
-50 71 -163 14 -73 14 -91 3 -114 -17 -36 -42 -40 -88 -14 -78 44 -185 36
-209 -16 -7 -15 -21 -74 -31 -130 -23 -123 -38 -180 -48 -187 -16 -9 -93 34
-143 81 -52 49 -77 88 -99 158 -7 22 -24 58 -39 79 -24 37 -26 46 -26 155 1
137 14 184 59 212 45 29 95 20 147 -25z m2026 -102 c-6 -58 -37 -95 -62 -74
-21 18 -12 56 23 93 36 38 45 34 39 -19z m-2424 -71 c58 -100 56 -363 -2 -363
-66 0 -104 169 -71 311 23 98 39 109 73 52z m-1071 -230 c38 -41 48 -66 48
-119 0 -51 -31 -128 -55 -138 -37 -14 -75 72 -75 172 0 107 31 139 82 85z
m894 -5 c37 -45 144 -265 144 -298 0 -16 -10 -35 -26 -49 -25 -22 -26 -25 -19
-99 11 -129 -35 -303 -82 -310 -13 -2 -28 -17 -38 -40 -27 -58 -62 -99 -90
-106 -45 -11 -71 -107 -44 -159 27 -51 46 -48 114 13 30 28 62 50 69 50 26 0
73 -57 86 -105 18 -66 8 -233 -19 -310 -12 -33 -44 -93 -71 -132 -28 -40 -57
-92 -66 -115 -31 -88 -43 -580 -13 -526 14 25 55 214 83 386 36 211 46 225
110 150 57 -66 58 -106 9 -348 -40 -202 -159 -590 -181 -590 -3 0 -17 10 -30
23 l-24 22 -39 -45 c-21 -25 -39 -48 -39 -51 0 -39 -266 -57 -309 -21 -33 27
-54 160 -49 303 4 98 9 125 32 174 54 119 74 327 85 880 5 220 11 407 14 415
3 8 8 27 11 42 9 38 50 65 72 47 12 -10 15 -28 12 -83 -3 -71 -3 -71 24 -74
56 -7 81 107 54 249 -29 154 -26 168 80 390 60 127 65 142 73 231 11 130 20
141 67 86z m388 -94 c31 -36 63 -78 71 -93 7 -15 51 -58 97 -96 102 -83 135
-121 164 -193 46 -113 60 -73 56 158 -3 179 7 264 34 274 19 7 43 -20 71 -81
33 -72 31 -143 -8 -353 -22 -116 -33 -206 -34 -268 0 -108 -9 -114 -62 -42
-69 96 -69 96 -87 81 -47 -39 1 -144 120 -257 103 -99 107 -116 154 -579 16
-165 37 -358 46 -430 16 -127 16 -131 -4 -197 -24 -78 -21 -97 39 -221 21 -44
39 -95 39 -112 0 -42 -96 -301 -127 -342 -15 -20 -39 -37 -65 -45 l-41 -12
-41 46 c-30 34 -53 50 -85 58 -86 22 -116 79 -155 286 -14 76 -43 198 -65 269
-21 72 -49 173 -61 225 -24 108 -32 122 -81 143 -31 13 -44 30 -92 120 -31 58
-61 123 -67 144 -6 21 -15 169 -20 328 -7 229 -13 313 -30 399 -25 127 -23
150 26 346 39 155 50 212 63 333 12 104 41 177 70 177 12 0 41 -25 75 -66z
m-2244 11 c18 -21 5 -47 -22 -43 -26 3 -37 36 -16 49 18 12 24 11 38 -6z
m-572 -136 c48 -94 46 -122 -11 -176 -25 -23 -55 -43 -67 -43 -55 0 -152 80
-166 137 -14 53 51 130 133 158 51 18 70 5 111 -76z m4635 -2291 c21 -49 51
-70 106 -76 58 -5 110 10 168 49 23 16 52 30 65 31 19 3 24 -2 26 -29 3 -25
-5 -40 -33 -72 -49 -54 -124 -88 -259 -117 -61 -13 -136 -30 -166 -39 -74 -20
-154 -20 -171 1 -12 14 -9 20 16 41 27 24 33 25 107 19 l79 -7 -26 39 c-22 34
-24 43 -15 68 15 40 70 124 81 124 5 0 15 -15 22 -32z m-2655 -372 c15 -8 47
-36 72 -61 l45 -47 -106 5 c-134 6 -196 33 -155 67 12 9 99 47 114 50 2 0 15
-6 30 -14z m-1193 -96 c50 -11 95 -59 95 -101 0 -88 -141 -118 -248 -52 -106
65 -90 127 40 152 58 12 67 12 113 1z"/>
<path d="M7915 9750 c22 -4 58 -4 80 0 33 6 26 8 -40 8 -66 0 -73 -2 -40 -8z"/>
<path d="M7831 9329 c-58 -12 -63 -52 -14 -97 19 -17 32 -22 52 -17 39 10 51
24 51 60 0 48 -31 67 -89 54z"/>
<path d="M9182 8688 c-83 -121 -104 -210 -69 -290 18 -42 41 -49 58 -17 17 32
45 144 59 235 19 121 3 146 -48 72z"/>
<path d="M10215 8790 c-65 -32 -158 -113 -200 -174 -57 -83 -59 -143 -11 -291
19 -60 33 -111 31 -114 -3 -2 -33 1 -67 7 -34 6 -64 10 -66 7 -9 -9 21 -64 51
-93 53 -51 121 -76 210 -78 55 -1 82 -5 88 -15 15 -22 2 -69 -41 -140 -22 -37
-38 -73 -35 -81 3 -7 21 -24 40 -38 42 -30 72 -89 80 -153 7 -57 25 -67 67
-42 17 10 54 23 82 29 47 11 51 14 51 41 0 29 1 30 50 30 37 0 50 4 53 16 6
30 -45 85 -133 144 -98 65 -101 71 -124 197 -12 69 -52 156 -91 198 -17 18
-30 38 -30 45 0 7 14 45 30 83 32 76 39 132 17 132 -32 0 -96 -60 -121 -114
-27 -57 -56 -77 -81 -56 -42 35 -3 130 115 286 46 60 92 123 103 141 32 55 3
68 -68 33z"/>
<path d="M10385 8675 c-60 -22 -84 -66 -39 -73 31 -4 136 32 148 51 22 36 -37
48 -109 22z"/>
<path d="M7699 8536 c-8 -17 -7 -38 7 -87 32 -120 31 -132 -15 -169 -23 -19
-41 -37 -41 -41 0 -5 17 -17 39 -28 35 -18 51 -37 51 -61 0 -18 -33 -40 -60
-40 -63 0 -73 -63 -12 -76 83 -17 91 -32 103 -204 10 -135 19 -182 36 -187 46
-16 -5 689 -63 870 -17 52 -29 59 -45 23z"/>
<path d="M8192 7877 c-6 -7 -23 -55 -37 -107 -15 -52 -37 -132 -51 -178 -14
-45 -22 -87 -19 -92 3 -5 18 -4 36 2 39 13 53 1 40 -34 -15 -40 -52 -63 -168
-102 -117 -41 -197 -82 -188 -97 8 -11 171 -11 340 1 189 14 235 20 235 35 0
7 -17 34 -37 61 -37 47 -38 52 -38 128 0 72 -2 79 -22 87 -27 10 -37 46 -51
188 -11 106 -20 132 -40 108z"/>
<path d="M7672 7838 c-20 -20 -14 -48 12 -60 49 -22 77 20 38 55 -22 20 -34
21 -50 5z"/>
<path d="M7616 7567 c-45 -33 19 -90 74 -67 39 16 47 41 20 62 -26 21 -69 23
-94 5z"/>
<path d="M7612 7294 c-28 -20 -29 -60 -1 -69 51 -17 112 43 73 72 -24 17 -45
16 -72 -3z"/>
<path d="M11329 8287 c-41 -28 -43 -47 -6 -65 61 -30 257 -23 257 8 0 12 -34
30 -58 30 -10 0 -40 11 -66 25 -58 31 -84 31 -127 2z"/>
<path d="M11130 8095 c-7 -9 -10 -19 -6 -23 4 -4 62 -8 129 -8 93 -1 139 -6
192 -23 95 -29 117 -27 155 11 54 53 34 58 -231 58 -191 0 -229 -2 -239 -15z"/>
<path d="M11992 8557 c-73 -11 -129 -24 -125 -28 5 -4 67 -14 138 -23 72 -9
142 -19 158 -22 26 -5 27 -4 27 39 0 66 3 65 -198 34z"/>
<path d="M8307 6042 c-35 -37 -45 -84 -23 -117 20 -30 41 -32 56 -6 12 23 14
151 2 151 -5 0 -20 -13 -35 -28z"/>
<path d="M8653 5919 c-13 -5 -23 -15 -23 -24 0 -20 39 -35 65 -25 11 4 20 15
20 25 0 22 -33 35 -62 24z"/>
<path d="M7500 5591 c0 -30 65 -93 91 -89 36 5 33 26 -9 68 -43 43 -82 53 -82
21z"/>
<path d="M8395 5479 c-23 -36 39 -93 70 -63 18 18 19 28 5 55 -12 21 -64 27
-75 8z"/>
<path d="M8367 5304 c-13 -13 -7 -41 12 -65 l19 -24 7 27 c4 14 5 35 3 45 -3
18 -29 29 -41 17z"/>
<path d="M7362 5174 c-12 -8 -22 -26 -22 -40 0 -26 31 -64 53 -64 46 0 86 82
51 107 -24 17 -55 16 -82 -3z"/>
<path d="M7706 4948 c-20 -28 -20 -81 -1 -118 37 -72 112 4 85 85 -18 55 -58
70 -84 33z"/>
<path d="M8605 4670 c-14 -27 -28 -76 -31 -107 -5 -50 -3 -62 16 -85 53 -67
108 -8 96 104 -6 60 -33 138 -47 138 -5 0 -20 -22 -34 -50z"/>
<path d="M11489 7044 c-25 -30 -17 -114 18 -189 18 -39 45 -122 62 -186 18
-73 41 -135 61 -168 98 -158 313 -145 386 24 22 50 23 168 3 210 -12 26 -22
32 -79 42 -36 7 -95 19 -133 28 -37 9 -98 19 -136 24 -104 13 -107 16 -115
112 -9 112 -31 146 -67 103z m377 -350 c47 -6 84 -35 84 -67 0 -55 -100 -147
-159 -147 -39 0 -105 37 -124 69 -21 36 -22 109 -2 138 14 20 22 21 88 17 39
-3 90 -7 113 -10z"/>
<path d="M11792 5864 c-32 -22 -27 -43 15 -60 48 -21 174 -24 197 -5 15 13 15
15 0 33 -21 22 -103 48 -154 48 -19 0 -46 -7 -58 -16z"/>
<path d="M9417 4693 c-21 -20 1 -178 30 -222 l16 -25 8 22 c9 24 -6 167 -21
207 -9 25 -21 31 -33 18z"/>
<path d="M9090 4610 c-52 -52 -7 -156 87 -204 70 -35 81 -10 34 82 -15 31 -32
68 -36 82 -9 31 -34 60 -52 60 -7 0 -22 -9 -33 -20z"/>
<path d="M10361 5791 c-18 -33 -33 -164 -27 -229 9 -83 30 -135 72 -172 70
-61 79 -27 24 84 l-42 85 2 103 c3 130 2 148 -10 148 -5 0 -14 -8 -19 -19z"/>
<path d="M9981 5723 c-32 -70 -30 -255 4 -279 45 -33 89 -4 74 49 -5 17 -18
79 -29 137 -12 58 -24 108 -29 113 -4 4 -13 -5 -20 -20z"/>
<path d="M10270 4985 c-26 -32 21 -115 66 -115 39 0 47 61 13 104 -23 29 -60
34 -79 11z"/>
<path d="M10180 4604 c0 -36 56 -201 81 -235 46 -65 89 -42 89 47 0 89 -25
131 -109 185 -55 36 -61 36 -61 3z"/>
<path d="M4725 12075 c-18 -17 -25 -35 -25 -61 0 -35 1 -36 23 -22 37 25 69
79 56 94 -16 20 -26 17 -54 -11z"/>
<path d="M4565 11926 c-82 -26 -135 -66 -88 -66 37 0 132 33 159 56 l29 23
-30 0 c-16 0 -48 -6 -70 -13z"/>
<path d="M8280 11760 c-81 -8 -169 -31 -210 -55 -22 -13 4 -14 240 -13 246 1
270 0 330 -20 101 -34 236 -26 283 16 17 15 17 17 2 28 -12 9 -43 11 -103 7
-66 -4 -112 0 -187 15 -120 24 -253 33 -355 22z"/>
<path d="M11197 11633 c-4 -3 -7 -17 -7 -29 0 -50 101 -75 108 -27 5 34 -78
80 -101 56z"/>
<path d="M11401 11525 c-24 -8 -47 -19 -51 -25 -11 -18 8 -102 29 -130 27 -37
72 -46 125 -26 63 24 78 44 66 88 -6 19 -20 51 -33 69 -27 40 -65 47 -136 24z"/>
<path d="M11030 11344 c-49 -17 -90 -50 -90 -71 0 -36 107 -39 178 -6 102 48
24 117 -88 77z"/>
<path d="M6070 10791 c-69 -10 -164 -37 -210 -61 -145 -74 -473 -102 -765 -65
-164 20 -207 20 -203 -2 5 -27 72 -59 166 -78 48 -10 99 -24 114 -31 78 -40
397 8 766 115 218 63 245 67 313 47 163 -49 749 -38 1014 20 81 17 116 37 97
56 -13 13 -73 6 -247 -28 -136 -27 -453 -25 -645 4 -167 26 -321 34 -400 23z"/>
<path d="M6306 10625 c-10 -27 -7 -169 4 -185 9 -13 12 -13 25 4 8 10 17 38
21 62 10 70 -31 168 -50 119z"/>
<path d="M6484 10618 c-31 -50 6 -1693 45 -1978 7 -54 7 -54 14 45 5 55 7 332
6 615 -2 546 2 599 43 621 55 30 64 -40 78 -641 6 -245 15 -483 21 -530 12
-109 27 -166 40 -153 17 17 30 452 27 883 -2 228 1 425 5 437 8 22 12 22 83
16 l75 -6 54 56 c30 31 55 62 55 68 0 9 -46 10 -179 5 -269 -11 -270 -9 -282
269 -7 188 -21 256 -59 290 -14 13 -20 14 -26 3z"/>
<path d="M6076 10538 c-4 -13 -11 -97 -17 -188 -17 -288 -33 -325 -150 -340
-69 -8 -97 -19 -118 -44 -24 -29 21 -39 139 -31 l108 7 16 -30 c73 -142 -93
-259 -476 -337 -136 -27 -152 -25 -208 32 -58 58 -266 170 -348 188 -19 4 -88
48 -158 101 -68 51 -139 97 -157 102 -51 14 -264 -14 -307 -41 -19 -12 -82
-62 -140 -112 -58 -50 -123 -104 -145 -120 -46 -34 -55 -44 -55 -64 0 -25 59
-4 244 86 168 81 184 87 255 91 95 5 176 -15 425 -104 205 -74 296 -113 296
-125 0 -14 -36 -46 -72 -65 -36 -20 -174 -24 -261 -10 -42 8 -52 6 -86 -17
-91 -60 -256 -83 -330 -44 -44 22 -48 22 -75 -10 -18 -21 -34 -27 -78 -31 -47
-4 -58 -1 -76 18 -17 18 -39 24 -149 35 -149 16 -174 21 -226 47 -47 24 -70
17 -102 -30 -27 -39 -32 -76 -13 -88 6 -4 73 -11 149 -15 140 -8 179 -18 230
-60 26 -20 27 -20 60 -3 19 10 63 23 99 30 75 15 486 41 496 31 7 -7 -64 -143
-101 -191 -33 -43 -88 -81 -159 -110 -58 -24 -63 -36 -14 -36 30 0 68 -30 68
-54 0 -8 -11 -28 -25 -44 -50 -60 -25 -82 90 -82 91 0 113 -10 182 -83 69 -73
113 -144 113 -182 0 -68 -114 -193 -234 -256 -33 -18 -101 -58 -151 -90 -166
-106 -252 -107 -451 -6 -49 25 -108 50 -132 56 -55 12 -120 56 -247 165 -135
117 -223 174 -308 202 -40 12 -110 37 -157 54 -98 36 -138 39 -209 15 -85 -28
-132 -9 -117 48 9 37 58 60 124 58 58 -2 83 8 127 50 31 29 101 59 140 59 12
0 34 9 49 21 41 32 33 70 -30 141 -58 65 -78 114 -79 198 -1 66 -6 84 -40 148
-33 64 -38 84 -43 162 l-5 89 34 34 c41 40 207 114 284 127 96 16 235 104 208
131 -21 21 -204 31 -433 25 -124 -3 -252 -2 -284 3 -65 9 -70 13 -134 113 -57
88 -261 317 -307 344 -53 31 -145 32 -260 5 -143 -35 -234 -79 -360 -175 -33
-25 -85 -59 -116 -76 -90 -48 -169 -148 -169 -214 0 -11 25 -70 55 -131 30
-60 55 -119 55 -130 0 -24 -40 -65 -87 -89 -57 -29 -195 -56 -338 -66 -77 -6
-158 -13 -180 -16 -128 -18 -149 -54 -78 -131 48 -52 85 -56 384 -48 l267 7 7
-104 c6 -85 4 -111 -9 -143 -10 -22 -26 -80 -37 -130 -26 -116 -46 -160 -103
-224 -44 -49 -55 -68 -85 -144 -7 -18 -25 -34 -49 -44 -34 -14 -43 -14 -109 2
-60 15 -79 16 -118 6 -108 -27 -234 -113 -399 -272 -144 -138 -163 -168 -172
-274 -3 -44 -14 -98 -24 -120 -9 -22 -61 -87 -114 -145 -122 -132 -162 -183
-224 -291 -27 -47 -88 -144 -136 -215 -48 -70 -89 -138 -92 -151 -4 -13 -1
-37 6 -53 14 -33 7 -50 -21 -50 -41 0 -78 -29 -90 -71 -20 -67 -9 -75 103 -71
52 1 104 -1 117 -6 15 -5 30 -28 46 -67 32 -78 79 -120 153 -136 49 -10 76 -8
212 15 294 49 640 72 668 44 7 -7 12 -25 12 -40 0 -32 25 -88 40 -88 15 0 22
-40 9 -56 -40 -49 -136 -71 -490 -114 -434 -52 -554 -77 -592 -122 -16 -19
-16 -22 -2 -38 20 -22 88 -40 149 -40 25 0 102 14 173 31 293 69 665 139 744
139 52 0 64 -10 99 -80 13 -25 42 -67 66 -94 24 -26 44 -54 44 -61 0 -23 52
-76 110 -113 l55 -36 -190 -32 c-105 -17 -251 -43 -325 -57 -74 -14 -238 -37
-364 -52 -126 -14 -244 -32 -264 -38 -47 -16 -60 -38 -42 -72 26 -49 55 -56
236 -54 156 2 166 1 192 -20 55 -44 92 -55 151 -42 65 13 141 49 155 74 15 25
-7 36 -69 38 -27 0 -61 4 -74 8 -20 5 -21 8 -9 18 8 7 30 19 49 27 81 34 534
140 551 130 23 -14 -1 -307 -42 -509 -11 -55 -23 -158 -26 -230 -8 -172 7
-246 74 -358 27 -45 57 -102 67 -127 23 -55 64 -118 120 -185 97 -116 114
-151 156 -331 102 -428 141 -538 247 -701 39 -59 89 -146 111 -193 36 -77 101
-296 101 -342 0 -27 -26 -74 -75 -138 -24 -30 -46 -65 -49 -76 -4 -14 5 -51
24 -98 35 -88 37 -116 13 -153 -16 -23 -19 -63 -24 -283 -6 -254 -13 -306 -45
-341 -16 -18 -64 -27 -64 -12 0 4 12 24 26 45 38 54 28 68 -50 68 -48 0 -83
-7 -138 -30 -141 -56 -802 -241 -1045 -292 -86 -18 -110 -27 -143 -56 -22 -18
-44 -42 -50 -51 -8 -15 -6 -17 15 -13 48 9 29 -44 -41 -120 -24 -26 -44 -52
-44 -59 0 -6 8 -27 17 -46 17 -37 62 -63 108 -63 43 0 135 38 220 89 129 79
277 146 475 215 102 35 282 101 400 146 230 89 298 104 329 75 35 -31 46 -108
46 -320 0 -216 -4 -238 -51 -249 -14 -4 -115 -45 -223 -92 -297 -129 -462
-194 -725 -284 -353 -121 -379 -136 -318 -191 81 -73 235 -24 822 261 319 155
446 210 485 210 29 0 63 -47 85 -116 17 -54 21 -93 21 -183 -1 -106 1 -117 22
-139 26 -27 31 -99 8 -125 -17 -21 -77 -22 -151 -2 -147 39 -239 28 -303 -35
-31 -32 -38 -45 -35 -72 5 -52 57 -73 205 -82 92 -5 122 -11 134 -24 9 -9 31
-64 49 -121 83 -263 214 -333 438 -233 112 50 226 75 427 97 240 26 365 58
474 122 94 55 191 164 191 214 0 33 -44 73 -98 89 -43 13 -226 34 -429 49
-156 12 -190 22 -199 58 -9 35 16 57 125 111 143 71 189 123 165 187 -13 33
-81 56 -194 65 -137 11 -150 18 -150 73 0 51 66 249 115 347 56 112 99 151
239 220 147 72 375 161 474 185 49 12 97 34 150 67 159 101 678 349 774 369
112 24 360 152 420 216 30 32 51 95 46 138 -2 25 -10 32 -48 46 -24 9 -50 25
-57 36 -7 10 -19 87 -27 171 -19 196 -32 222 -111 222 -24 0 -45 9 -68 30 -54
47 -68 41 -120 -51 -59 -104 -154 -159 -317 -184 -98 -14 -119 -22 -305 -111
-110 -52 -228 -113 -262 -135 -40 -26 -90 -48 -140 -61 -84 -21 -355 -138
-394 -170 -21 -17 -21 -19 -4 -13 11 3 33 9 49 12 l28 6 -7 -42 c-7 -40 -6
-41 22 -41 16 0 61 11 99 24 77 26 485 196 547 227 l39 21 -26 27 c-32 33 -33
45 -4 65 17 12 49 16 136 16 139 0 169 7 453 111 120 43 227 79 238 79 27 0
31 -25 31 -201 0 -109 -4 -160 -12 -172 -17 -22 -311 -163 -568 -272 -113 -48
-311 -142 -441 -211 -240 -126 -545 -273 -678 -326 -58 -23 -75 -27 -82 -17
-24 40 -24 441 0 491 8 15 31 39 52 54 45 31 49 44 14 44 -35 0 -55 44 -55
125 0 72 16 121 55 167 22 26 25 38 23 97 -2 61 1 71 25 100 31 38 33 52 11
112 -22 62 -14 94 55 210 71 121 94 176 127 319 34 142 109 410 187 670 36
118 70 242 77 275 6 33 15 211 20 395 10 360 16 417 55 519 14 36 31 110 39
163 9 65 21 106 35 126 28 39 27 48 -13 156 -19 50 -37 108 -41 129 -9 49 -24
56 -50 24 -11 -15 -28 -27 -36 -27 -10 0 -34 37 -65 97 -83 166 -207 271 -323
274 -70 2 -105 12 -109 32 -5 23 89 67 143 67 96 0 191 -53 229 -127 36 -71
118 -143 163 -143 45 0 30 21 -158 216 -122 128 -211 249 -229 312 -24 86 -11
134 64 231 50 66 89 85 222 106 142 23 217 40 383 86 80 22 251 58 379 79 128
22 242 45 253 50 30 17 13 30 -39 30 -85 0 -419 -62 -513 -95 -67 -24 -149
-35 -324 -46 -93 -5 -195 -16 -227 -25 -51 -13 -61 -13 -87 0 -37 19 -53 61
-53 135 0 85 19 159 46 174 39 22 936 4 1086 -23 94 -17 361 -89 388 -106 49
-29 67 -69 67 -154 0 -103 -16 -128 -102 -168 -129 -59 -386 -129 -853 -232
-426 -95 -531 -122 -552 -147 -7 -9 -2 -14 19 -20 37 -11 227 -7 381 7 68 6
126 9 128 7 2 -2 8 -143 14 -313 10 -328 18 -434 30 -434 35 0 53 632 21 714
-45 114 20 166 184 146 44 -6 93 -13 109 -16 l29 -6 -6 -392 c-4 -215 -11
-429 -17 -476 -30 -259 -32 -315 -20 -650 7 -184 10 -376 6 -427 -6 -86 -5
-93 14 -103 33 -17 58 3 64 53 3 23 10 312 16 642 10 556 31 1129 46 1303 4
41 13 80 21 87 28 29 227 65 247 45 17 -17 19 -295 7 -1170 -13 -898 -24
-1276 -48 -1630 -9 -135 -17 -310 -17 -390 -1 -131 1 -149 22 -191 39 -80 96
-82 122 -3 10 29 9 47 -6 100 -22 81 -17 188 27 624 l31 315 -8 560 c-5 308
-9 713 -9 900 0 393 0 390 71 382 60 -6 66 8 49 102 -14 69 -40 135 -85 211
-42 70 -11 180 89 311 79 105 95 143 96 225 0 65 -4 80 -43 156 -24 47 -58
100 -77 118 -33 32 -35 33 -164 41 -137 9 -241 28 -291 54 -41 21 -40 52 3 70
57 24 117 75 262 221 79 79 150 144 159 144 9 0 39 -21 66 -46 62 -58 64 -79
10 -180 -39 -73 -51 -124 -30 -124 18 0 85 77 115 131 27 51 28 55 17 117 -13
76 -54 148 -102 179 -78 50 -77 39 -21 127 51 81 64 112 76 178 8 50 41 87
144 163 87 64 131 111 131 140 0 25 19 56 66 106 24 26 50 63 58 82 8 20 37
65 65 102 55 71 61 93 33 118 -32 30 -77 39 -232 47 -97 6 -184 17 -234 30
-135 34 -127 38 -307 -138 l-86 -84 -59 62 c-32 35 -83 76 -112 92 -57 33 -82
69 -82 118 0 36 9 56 54 115 30 39 38 58 66 173 15 60 34 63 76 13 20 -22 39
-41 44 -41 5 0 16 24 25 53 10 28 20 55 24 59 3 4 96 19 206 32 393 49 497 69
623 121 150 61 158 54 178 -148 13 -144 26 -203 43 -193 14 9 22 64 30 226 9
173 20 209 70 230 41 17 75 6 90 -27 7 -16 19 -91 27 -167 8 -77 16 -142 19
-144 12 -12 16 14 24 162 8 138 12 163 34 205 14 28 21 54 17 61 -9 15 -77 9
-157 -14 -114 -32 -165 20 -132 137 14 51 44 77 90 77 45 0 86 -30 106 -78 36
-87 62 61 44 249 -17 174 -24 190 -40 92 -21 -130 -58 -193 -110 -193 -56 0
-68 39 -81 265 -9 165 -22 245 -39 245 -5 0 -12 -10 -15 -22z m-3574 -176 c67
-38 178 -133 241 -206 59 -66 107 -133 107 -148 0 -5 -33 -24 -72 -43 -223
-103 -720 -220 -793 -187 -55 25 -126 168 -111 225 9 36 33 57 66 57 39 0 82
39 124 113 99 177 305 267 438 189z m639 -442 c24 -13 25 -36 2 -48 -10 -5
-46 -12 -81 -16 -35 -4 -107 -21 -160 -37 -53 -17 -122 -33 -152 -36 -51 -6
-54 -5 -41 11 27 32 189 102 296 129 37 9 116 7 136 -3z m-1106 -320 c4 -6 -8
-10 -30 -10 -22 0 -34 4 -30 10 3 6 17 10 30 10 13 0 27 -4 30 -10z m1063
-146 c12 -8 29 -28 37 -44 16 -32 32 -166 38 -329 l4 -103 -66 8 c-36 4 -79 8
-96 8 -30 1 -30 1 -27 -52 3 -62 -1 -65 -123 -77 -130 -13 -155 -5 -155 48 0
26 14 44 81 109 45 42 79 83 77 90 -38 102 -40 119 -24 162 18 48 68 106 91
106 30 0 38 -48 22 -149 l-14 -95 39 45 c70 79 81 110 73 206 -7 90 -2 99 43
67z m200 -302 c13 -19 12 -22 -3 -29 -21 -7 -47 21 -38 43 7 19 23 14 41 -14z
m-1231 -197 c75 -22 103 -60 103 -135 0 -75 8 -79 149 -91 181 -14 214 -25
175 -54 -11 -8 -86 -45 -169 -82 -82 -37 -175 -84 -205 -104 -31 -20 -69 -39
-85 -43 -34 -9 -62 -28 -168 -113 -86 -70 -107 -75 -180 -44 -74 32 -87 57
-87 172 0 54 5 109 11 122 6 13 29 32 52 43 41 18 42 21 47 74 l5 55 66 1 c83
1 90 5 78 50 -23 80 43 161 132 163 14 1 48 -6 76 -14z m3485 -80 c22 -3 42
-14 48 -25 14 -27 12 -113 -5 -195 -46 -216 -145 -291 -289 -216 -30 16 -80
33 -110 36 -31 4 -61 14 -70 24 -16 17 -36 120 -36 186 0 22 7 50 15 61 35 51
310 150 385 139 14 -2 42 -6 62 -10z m-2967 -16 c13 -20 -6 -59 -35 -74 -66
-34 -78 -36 -100 -13 -26 28 -25 34 9 69 24 23 38 29 75 29 24 0 48 -5 51 -11z
m146 -148 c-25 -46 -166 -155 -244 -189 -34 -15 -87 -16 -87 -2 0 6 3 10 8 10
4 0 59 39 122 85 155 114 229 150 201 96z m221 -51 c22 -39 62 -40 166 -4 l75
26 66 -35 c42 -22 101 -43 162 -55 53 -11 117 -30 142 -42 68 -32 131 -92 160
-153 39 -83 85 -108 402 -217 242 -84 385 -151 385 -181 0 -5 -18 -12 -39 -15
-48 -8 -55 -22 -32 -65 30 -57 47 -59 88 -15 36 39 52 37 53 -6 0 -46 130 -99
159 -65 19 24 9 44 -74 142 -98 117 -101 128 -44 177 64 57 179 126 235 143
29 9 77 37 119 71 68 55 70 56 120 51 62 -6 141 -42 161 -72 34 -52 26 -174
-12 -189 -7 -3 -28 13 -49 37 -20 23 -46 47 -58 54 -23 13 -87 18 -87 6 0 -3
11 -29 25 -57 62 -127 61 -367 -2 -463 -41 -63 -298 -221 -401 -247 -36 -9
-61 -8 -131 5 -47 10 -174 25 -282 34 -393 32 -499 75 -499 201 0 80 -8 84
-155 84 -126 0 -208 12 -325 49 -101 32 -166 38 -190 16 -12 -11 -20 -31 -20
-49 0 -17 -4 -38 -10 -46 -13 -21 -40 6 -79 80 -91 170 -146 153 -86 -27 61
-182 141 -223 274 -144 76 45 136 59 165 38 43 -31 -35 -88 -164 -120 -36 -9
-130 -23 -210 -32 -80 -8 -172 -22 -205 -29 -56 -14 -89 -38 -82 -61 7 -21 70
-54 123 -65 69 -14 255 -14 319 0 104 23 277 137 308 202 23 48 41 62 56 44
22 -26 31 -80 41 -236 7 -126 15 -173 39 -253 17 -54 36 -135 43 -181 l11 -82
-31 -46 c-61 -88 -121 -129 -221 -149 -44 -8 -84 -26 -135 -59 -39 -25 -86
-52 -105 -58 -61 -22 -354 -9 -439 19 -29 10 -33 15 -28 35 14 54 -31 87 -151
110 -103 19 -123 19 -123 -6 0 -27 37 -58 113 -96 50 -25 62 -35 62 -54 0 -18
-8 -27 -27 -34 -23 -8 -40 -3 -105 31 -115 60 -161 68 -368 68 -155 0 -185 -3
-213 -18 -29 -16 -33 -22 -27 -45 9 -35 39 -77 74 -102 16 -11 31 -20 33 -20
3 0 19 13 38 30 81 72 313 62 384 -19 19 -21 19 -21 -7 -21 -35 0 -64 -30 -72
-74 -4 -19 -14 -41 -22 -47 -8 -7 -58 -14 -121 -16 -149 -6 -148 -5 -161 -57
-27 -108 -104 -53 -230 164 -41 72 -73 116 -85 118 -17 4 -18 -1 -13 -41 4
-25 22 -93 41 -151 19 -59 30 -106 26 -106 -16 0 -97 99 -127 156 -17 33 -49
113 -71 179 -22 66 -58 166 -81 222 -48 120 -74 212 -131 463 -23 102 -53 214
-67 250 -30 80 -53 187 -53 245 0 33 9 56 41 104 l41 61 -22 42 c-29 57 -66
102 -78 94 -5 -3 -13 -27 -17 -52 -8 -57 -25 -96 -39 -91 -6 2 -34 34 -63 72
-63 84 -81 99 -101 83 -18 -16 -11 -76 18 -142 22 -53 20 -66 -14 -66 -51 0
-60 -49 -21 -126 13 -27 72 -107 130 -178 58 -70 105 -133 105 -140 0 -6 -22
-47 -49 -89 -27 -43 -54 -91 -60 -107 -6 -17 -16 -44 -22 -60 -17 -45 -52 -65
-190 -110 -131 -43 -195 -73 -213 -103 -9 -15 -6 -22 14 -39 21 -17 34 -19 85
-15 33 4 100 20 148 37 104 35 128 37 152 10 21 -23 48 -26 64 -6 7 8 16 42
22 77 5 34 12 66 15 71 12 19 48 5 96 -39 57 -54 81 -98 67 -125 -24 -45 -239
-89 -424 -86 -83 1 -141 -4 -188 -15 -38 -9 -91 -17 -119 -17 -47 0 -54 3 -98
48 -37 36 -49 57 -55 91 -4 24 -25 87 -47 138 -21 52 -36 102 -33 111 2 10 25
44 50 77 24 33 57 89 71 125 57 142 94 208 146 260 53 54 115 89 156 90 34 0
50 49 67 210 10 98 21 154 37 187 26 58 277 309 343 344 l44 23 113 -23 c125
-25 155 -39 164 -76 9 -36 -1 -65 -46 -132 -56 -85 -72 -133 -77 -248 -6 -114
5 -203 42 -331 58 -199 147 -359 284 -512 47 -52 90 -112 104 -144 25 -55 61
-88 97 -88 28 0 26 26 -10 102 -16 34 -30 69 -30 76 0 18 -44 81 -125 177 -70
85 -124 172 -150 245 -9 25 -23 104 -31 175 -8 72 -24 160 -34 196 -11 36 -20
78 -20 93 0 34 7 32 155 -42 76 -39 122 -56 150 -56 l40 -1 -3 45 c-2 44 -1
46 43 70 24 14 102 79 172 145 167 158 176 164 276 180 45 8 102 21 126 29 89
32 220 110 292 173 128 112 161 125 191 73z m-1013 -442 c-29 -55 -92 -139
-115 -154 -23 -16 -28 -15 -82 5 -115 44 -191 112 -167 150 11 19 58 12 123
-19 35 -17 71 -30 81 -30 9 0 48 15 86 34 84 41 89 42 74 14z m1731 -752 c0
-30 -15 -56 -31 -56 -13 0 -21 60 -14 98 l7 37 19 -24 c10 -13 19 -38 19 -55z
m215 32 c38 -11 92 -31 118 -45 76 -38 52 -48 -113 -48 -161 0 -178 7 -166 69
11 60 28 63 161 24z m325 -78 c11 -7 1 -10 -35 -10 -36 0 -46 3 -35 10 8 5 24
10 35 10 11 0 27 -5 35 -10z m-679 -870 c23 -13 26 -62 4 -80 -10 -8 -30 -11
-58 -7 -31 4 -54 0 -87 -15 -61 -28 -110 -41 -350 -94 -257 -57 -369 -85 -506
-128 -60 -19 -135 -37 -166 -41 -68 -9 -137 2 -145 22 -12 32 41 63 198 114
85 28 222 72 304 99 189 62 320 84 620 106 75 5 108 12 163 33 2 0 12 -4 23
-9z m-17 -316 c157 -40 304 -146 336 -243 12 -38 12 -48 -3 -91 -9 -26 -17
-54 -17 -62 0 -45 126 -158 177 -158 15 0 27 -9 35 -25 36 -79 -116 -365 -194
-365 -14 0 -46 9 -71 20 -25 11 -78 24 -117 29 -52 7 -79 16 -96 32 -13 12
-24 26 -24 30 0 5 -22 57 -50 117 -80 175 -71 194 78 169 187 -33 302 -32 302
2 0 6 -20 24 -45 41 -56 38 -72 69 -85 161 -6 41 -19 83 -30 99 -12 17 -62 50
-120 80 -111 57 -170 102 -170 131 0 12 -12 24 -32 33 l-33 14 49 1 c26 1 76
-6 110 -15z m-279 -74 c12 -36 39 -99 59 -140 20 -41 36 -87 36 -102 0 -41
-26 -50 -66 -23 -18 12 -72 32 -120 44 -138 35 -194 71 -194 126 0 39 20 67
76 105 57 40 110 60 153 57 32 -2 35 -5 56 -67z m-395 -28 c25 -12 36 -25 38
-44 3 -22 -2 -27 -27 -33 -38 -8 -159 13 -241 42 -24 8 100 52 150 52 25 1 61
-7 80 -17z m-872 -48 c32 -22 26 -58 -10 -62 -27 -3 -108 32 -108 46 0 33 79
43 118 16z m317 -68 c34 -51 -7 -118 -42 -70 -17 23 -17 81 0 87 22 9 26 7 42
-17z m1293 -53 c49 -30 48 -85 -2 -118 -68 -45 -139 53 -90 123 17 24 48 23
92 -5z m-1017 -23 c10 -6 19 -18 19 -27 0 -13 6 -11 28 10 35 34 45 34 71 1
25 -31 27 -82 6 -110 -14 -18 -16 -18 -42 13 -23 26 -38 32 -84 38 -47 5 -60
11 -78 36 -12 16 -28 29 -36 29 -7 0 -17 5 -20 10 -8 13 110 13 136 0z m-588
-117 c3 -5 -12 -35 -34 -67 -43 -64 -46 -77 -24 -96 22 -18 55 -6 121 45 32
25 76 50 98 56 93 25 288 -16 595 -125 100 -35 185 -67 188 -70 20 -20 -65
-60 -149 -71 -51 -7 -79 -28 -60 -47 12 -12 88 -4 257 26 104 19 151 10 283
-54 73 -35 102 -54 102 -67 0 -10 -7 -67 -15 -128 -24 -182 -45 -421 -52 -585
-7 -180 0 -203 81 -278 101 -93 128 -86 261 66 55 63 77 56 91 -28 l11 -65 11
55 c7 30 24 114 38 185 27 138 61 248 90 293 l18 27 9 -40 c13 -59 1 -407 -17
-490 -8 -38 -38 -135 -67 -215 -104 -292 -215 -658 -243 -810 -9 -44 -23 -95
-32 -113 -21 -41 -84 -127 -92 -127 -12 0 -52 109 -52 141 0 17 27 93 60 169
178 408 284 730 240 730 -17 0 -72 -92 -122 -202 -97 -218 -237 -616 -258
-738 -6 -36 -13 -72 -16 -80 -8 -28 -57 -48 -209 -85 -184 -44 -312 -82 -320
-95 -9 -14 142 -111 220 -141 119 -46 235 -50 235 -9 0 21 -19 30 -63 30 -56
0 -62 14 -19 43 29 21 50 27 91 27 66 0 161 -27 161 -45 0 -7 -48 -68 -106
-134 -81 -92 -119 -127 -158 -146 -61 -30 -179 -56 -259 -57 -50 -1 -63 3 -95
29 -20 16 -50 52 -67 78 -29 47 -30 53 -30 164 0 109 2 119 28 163 37 63 63
168 77 314 17 173 19 1103 2 1266 -20 198 -39 309 -61 358 -24 53 -27 113 -7
133 8 8 45 17 83 20 98 10 158 30 254 87 77 47 179 133 179 152 0 17 -36 7
-124 -34 -51 -23 -111 -43 -139 -46 -56 -5 -56 -5 1 66 45 55 34 72 -48 72
-118 0 -275 -56 -401 -142 -37 -25 -88 -53 -115 -63 -132 -47 -244 -120 -244
-159 0 -24 38 -20 131 14 91 33 196 88 250 131 56 44 138 79 187 79 l44 0 -45
-52 c-46 -54 -85 -125 -106 -190 -7 -20 -19 -42 -27 -49 -10 -8 -69 -15 -159
-20 -145 -7 -206 -19 -237 -47 -30 -25 -21 -40 34 -57 132 -39 340 -44 379 -9
12 11 23 14 29 8 25 -25 31 -219 28 -861 -2 -493 -6 -665 -15 -674 -17 -17
-50 41 -63 111 -22 107 -30 126 -90 205 -107 142 -187 329 -264 621 -83 313
-135 432 -237 542 -68 72 -170 267 -190 361 -15 70 -7 287 21 571 11 113 20
213 20 223 0 15 7 14 59 -13 33 -16 62 -33 64 -37z m839 27 c36 -28 72 -40
151 -50 66 -8 110 -30 93 -47 -13 -13 -86 -5 -153 18 -41 13 -78 19 -99 16
-39 -7 -64 12 -64 47 0 42 31 49 72 16z m486 -52 c19 -19 14 -45 -14 -67 -28
-22 -74 -28 -74 -10 0 14 19 50 38 72 18 20 33 22 50 5z m323 -509 c77 -25
191 -83 215 -110 16 -18 16 -21 2 -36 -15 -15 -24 -14 -115 7 -119 27 -212 68
-241 105 -44 56 22 72 139 34z m158 -253 c27 -25 27 -61 -1 -113 -54 -99 -84
-111 -170 -67 -73 37 -98 65 -98 112 0 72 40 92 177 89 54 -2 76 -7 92 -21z
m-164 -375 c48 -28 39 -46 -24 -46 -47 0 -56 4 -74 27 -11 14 -16 31 -12 38 9
15 69 5 110 -19z m-62 -123 c13 -20 -14 -86 -50 -120 l-25 -23 -29 33 c-38 42
-37 63 7 102 39 34 79 38 97 8z m-821 -2083 c28 -23 36 -25 141 -25 62 0 155
5 207 10 52 5 120 10 150 11 l55 3 12 -49 c17 -74 15 -130 -8 -261 -11 -66
-26 -209 -34 -319 -16 -237 -24 -275 -117 -555 -76 -230 -81 -264 -63 -417 7
-60 6 -63 -23 -93 -17 -16 -41 -30 -53 -30 -12 0 -47 -18 -76 -41 -30 -22 -60
-38 -67 -36 -7 3 -18 23 -24 45 -21 69 -54 80 -67 22 -17 -76 12 -113 169
-220 56 -38 111 -79 121 -90 30 -33 5 -42 -110 -37 -114 6 -220 36 -262 74
l-26 25 6 136 c7 170 18 217 68 277 67 81 49 135 -46 135 -46 0 -54 3 -60 23
-14 39 -17 703 -6 953 15 317 40 484 74 484 5 0 22 -11 39 -25z m-208 -491 c9
-8 16 -24 16 -34 0 -23 -37 -51 -56 -43 -20 7 -28 47 -14 72 13 25 33 27 54 5z
m16 -194 c0 -27 -4 -50 -10 -50 -11 0 -13 42 -4 78 10 35 14 26 14 -28z m808
-809 c23 -14 9 -54 -27 -78 -67 -46 -181 -19 -152 35 22 41 139 69 179 43z
m-186 -308 c44 -40 -4 -120 -79 -130 -49 -6 -93 15 -93 46 0 42 75 100 129
101 14 0 33 -7 43 -17z m593 -198 c-38 -36 -99 -86 -134 -112 l-63 -46 -157
-5 c-213 -6 -220 -1 -171 113 29 68 41 75 134 75 47 0 87 5 93 11 16 16 108
26 248 27 l120 1 -70 -64z m-1034 -256 c19 -7 40 -18 48 -25 13 -12 12 -16 -4
-34 -37 -41 -155 -18 -155 30 0 37 49 49 111 29z"/>
<path d="M1887 8612 c-21 -23 -22 -46 -3 -61 30 -25 90 35 65 65 -16 19 -43
18 -62 -4z"/>
<path d="M1702 8501 c-21 -13 -10 -46 16 -49 27 -4 40 22 22 43 -14 17 -20 18
-38 6z"/>
<path d="M3128 8553 c-45 -48 -94 -121 -120 -179 -19 -43 -19 -47 -2 -65 25
-28 43 -24 85 20 61 65 126 261 86 261 -7 0 -29 -17 -49 -37z"/>
<path d="M1236 8311 c-48 -72 -76 -129 -76 -156 0 -46 71 20 115 107 64 128
36 163 -39 49z"/>
<path d="M2991 8156 c-15 -18 15 -163 36 -171 21 -8 67 17 71 39 7 33 -9 85
-34 116 -28 32 -55 38 -73 16z"/>
<path d="M1554 7045 c-9 -23 81 -199 118 -230 25 -21 40 -25 96 -25 37 0 74 5
82 10 13 9 12 13 -9 30 -13 11 -33 20 -44 20 -13 0 -54 34 -112 93 -115 119
-123 124 -131 102z"/>
<path d="M2022 6951 c-23 -14 -10 -55 21 -65 22 -8 30 -7 37 4 14 21 12 28
-10 50 -22 22 -29 24 -48 11z"/>
<path d="M3276 6941 c-21 -23 -24 -99 -5 -112 38 -25 105 25 94 70 -14 57 -57
77 -89 42z"/>
<path d="M2893 2660 c-30 -12 -29 -24 2 -38 51 -24 175 -11 175 18 0 24 -131
38 -177 20z"/>
<path d="M2751 2256 c-29 -34 -38 -216 -12 -216 21 0 58 161 47 205 -7 28 -18
32 -35 11z"/>
<path d="M2705 1968 c-4 -15 -2 -35 3 -45 9 -16 11 -15 17 9 4 15 2 35 -3 45
-9 16 -11 15 -17 -9z"/>
<path d="M7330 10491 c-46 -15 -125 -59 -148 -84 -30 -32 -26 -69 8 -78 35
-10 121 -9 145 1 17 6 14 9 -17 15 -83 16 -69 42 60 105 45 22 82 42 82 45 0
8 -101 4 -130 -4z"/>
<path d="M7661 10424 c-85 -23 -163 -78 -93 -67 45 8 226 64 237 74 14 14 -83
10 -144 -7z"/>
<path d="M10332 10370 c-31 -13 -38 -37 -17 -60 23 -25 58 -25 113 0 45 20 54
43 23 60 -24 12 -87 12 -119 0z"/>
<path d="M9900 10263 c-48 -25 -48 -57 0 -61 40 -3 105 33 105 58 0 22 -64 24
-105 3z"/>
<path d="M8215 10187 c-16 -13 -17 -17 -6 -31 15 -18 86 -22 97 -5 17 29 -59
59 -91 36z"/>
<path d="M6725 10181 c-34 -4 -53 -10 -45 -14 62 -27 835 -52 1159 -37 215 11
241 13 229 25 -18 19 -1210 42 -1343 26z"/>
<path d="M10445 10033 c-42 -10 -83 -35 -88 -54 -3 -10 -2 -21 2 -24 14 -8
194 34 202 47 19 29 -50 47 -116 31z"/>
<path d="M12510 10019 c-24 -43 10 -129 51 -129 36 0 37 92 1 122 -32 28 -41
29 -52 7z"/>
<path d="M4761 9624 c-27 -19 -27 -39 1 -58 28 -20 62 -20 78 -1 31 37 -37 88
-79 59z"/>
<path d="M8701 9626 c-9 -10 -7 -19 8 -37 15 -19 28 -23 72 -24 47 0 54 2 54
20 0 39 -108 72 -134 41z"/>
<path d="M4543 9278 c-13 -6 -23 -14 -23 -18 0 -16 46 -19 68 -4 41 27 4 45
-45 22z"/>
<path d="M6316 9168 c-14 -71 -18 -513 -7 -743 15 -310 40 -489 66 -464 3 3 0
75 -5 160 -6 85 -14 358 -19 607 -5 284 -12 457 -18 463 -7 7 -13 0 -17 -23z"/>
<path d="M4225 9144 c-89 -40 -163 -65 -400 -135 -163 -49 -325 -177 -325
-259 0 -32 21 -24 93 40 125 110 185 142 324 174 39 9 122 31 185 50 193 58
205 57 246 -19 25 -45 30 -50 62 -50 44 0 52 26 18 62 -20 22 -23 35 -23 101
l0 77 -40 2 c-29 2 -67 -10 -140 -43z"/>
<path d="M6085 9095 c-9 -29 -15 -76 -13 -102 3 -40 6 -48 25 -51 27 -4 35 20
36 102 0 65 -9 106 -23 106 -5 0 -17 -25 -25 -55z"/>
<path d="M3816 8823 c-15 -37 50 -163 83 -163 38 0 39 115 0 156 -26 28 -74
32 -83 7z"/>
<path d="M5260 6005 c-18 -21 -5 -47 22 -43 26 3 37 36 16 49 -18 12 -24 11
-38 -6z"/>
<path d="M5892 5819 c-55 -9 -92 -24 -92 -37 1 -35 40 -46 240 -64 208 -18
914 -18 958 1 74 31 25 71 -118 97 -87 15 -898 18 -988 3z"/>
<path d="M4335 5597 c-11 -26 0 -176 13 -189 25 -25 27 121 2 185 -7 20 -9 20
-15 4z"/>
<path d="M5811 5386 c-17 -21 5 -62 43 -80 38 -18 254 -33 590 -42 219 -6 252
-5 359 15 130 24 219 50 224 67 13 40 -181 53 -753 54 -373 0 -454 -2 -463
-14z"/>
<path d="M4350 5165 c-26 -64 -23 -466 4 -493 3 -2 13 1 22 9 14 12 16 39 12
239 -3 125 -9 236 -15 250 l-11 25 -12 -30z"/>
<path d="M4687 4375 c-9 -9 -19 -30 -22 -48 -8 -42 -2 -413 7 -422 3 -4 16 -4
27 0 31 10 42 64 47 230 7 201 -14 285 -59 240z"/>
<path d="M12465 4268 c-16 -5 -82 -45 -146 -88 -82 -55 -148 -90 -221 -118
-57 -21 -124 -52 -148 -68 l-45 -29 34 -3 c89 -9 566 190 607 252 34 53 -7 80
-81 54z"/>
<path d="M11820 3983 c-52 -15 -100 -36 -100 -44 0 -10 73 -12 107 -3 12 3 24
12 27 19 6 17 -14 34 -34 28z"/>
<path d="M10925 3921 c-22 -4 -62 -19 -90 -33 -27 -14 -75 -33 -105 -43 -64
-22 -90 -40 -45 -32 17 3 66 9 110 12 115 9 295 34 333 46 104 33 -63 74 -203
50z"/>
<path d="M7620 3506 c0 -10 76 -47 128 -63 82 -25 350 -25 405 -1 44 20 47 48
7 59 -26 7 -540 12 -540 5z"/>
<path d="M6751 2969 c-30 -12 -24 -41 12 -50 16 -4 40 -3 54 2 24 9 25 10 9
28 -22 24 -46 30 -75 20z"/>
<path d="M6352 2829 c-54 -9 -106 -31 -117 -49 -3 -5 4 -19 16 -31 18 -18 28
-20 69 -15 88 12 200 54 200 76 0 21 -97 32 -168 19z"/>
<path d="M9410 2437 c0 -8 9 -22 20 -32 18 -16 20 -16 26 -1 3 9 4 23 0 31 -7
19 -46 20 -46 2z"/>
<path d="M10220 1772 c-57 -8 -340 -73 -391 -89 l-54 -17 75 -6 c102 -9 235 5
268 26 15 10 49 23 76 29 50 11 79 37 61 53 -6 4 -21 6 -35 4z"/>
<path d="M9570 1685 c-10 -12 -10 -18 0 -30 20 -25 55 -15 55 15 0 30 -35 40
-55 15z"/>
<path d="M10057 1524 c-12 -12 -8 -54 9 -87 l17 -32 9 25 c13 36 6 94 -12 98
-9 1 -19 0 -23 -4z"/>
<path d="M9672 1508 c-32 -32 6 -77 121 -141 86 -49 121 -56 136 -28 13 23 5
29 -61 50 -21 7 -48 25 -60 42 -13 16 -33 42 -46 59 -25 32 -67 41 -90 18z"/>
<path d="M7105 1390 c3 -5 19 -10 36 -10 16 0 29 5 29 10 0 6 -16 10 -36 10
-21 0 -33 -4 -29 -10z"/>
<path d="M7360 1331 c-11 -8 1 -17 55 -42 185 -85 394 -189 425 -213 31 -24
40 -26 92 -20 55 6 58 5 90 -26 59 -59 81 -64 308 -64 216 1 273 9 305 44 18
20 19 20 39 1 37 -35 77 -43 261 -51 244 -12 411 -44 520 -98 60 -31 86 -31
365 -14 222 14 254 18 246 31 -9 14 -91 31 -250 51 -148 19 -216 34 -216 49 0
12 48 31 75 31 55 0 103 83 72 124 -11 15 -30 21 -76 24 -92 7 -113 -6 -161
-99 -44 -85 -62 -101 -98 -88 -31 12 -41 45 -35 121 11 128 -19 153 -92 74
-46 -51 -102 -71 -177 -64 -57 6 -78 21 -78 58 0 62 1 61 -154 54 -113 -5
-157 -3 -223 10 -118 24 -152 23 -236 -13 -68 -28 -83 -30 -183 -30 -74 1
-125 -4 -159 -15 -72 -23 -102 -20 -157 15 -37 24 -68 34 -136 43 -67 9 -115
24 -198 61 -110 49 -193 66 -224 46z m1521 -222 c24 -24 21 -43 -10 -47 -25
-4 -71 32 -71 55 0 21 57 16 81 -8z"/>
<path d="M10500 1243 c-24 -9 -50 -35 -50 -49 0 -15 60 -34 110 -34 81 0 100
24 50 62 -27 20 -85 31 -110 21z"/>
<path d="M11357 1203 c-17 -16 -6 -50 20 -62 22 -10 29 -9 41 3 13 13 13 18
-2 40 -16 25 -45 34 -59 19z"/>
<path d="M10201 934 c-26 -33 -26 -50 -2 -64 57 -30 108 10 83 65 -16 34 -54
33 -81 -1z"/>
<path d="M9105 820 c-245 -25 -447 -93 -343 -115 68 -15 478 45 584 85 26 10
27 12 11 22 -26 14 -148 18 -252 8z"/>
<path d="M8484 719 c-17 -5 -37 -16 -44 -24 -10 -12 -7 -15 14 -21 35 -8 129
4 151 20 10 7 15 18 11 24 -8 14 -87 14 -132 1z"/>
<path d="M10664 680 c-116 -10 -174 -20 -174 -30 0 -9 176 -77 240 -92 41 -9
53 -8 86 8 46 23 59 43 50 77 -9 39 -62 48 -202 37z"/>
<path d="M7785 640 c-16 -18 -16 -20 -1 -26 24 -9 46 3 46 26 0 26 -22 26 -45
0z"/>
<path d="M10026 637 c-10 -7 -16 -22 -14 -33 3 -16 12 -19 61 -17 33 1 76 11
104 23 42 19 45 23 28 30 -33 14 -159 11 -179 -3z"/>
<path d="M6925 600 c-4 -7 0 -19 8 -28 14 -13 21 -13 42 -4 15 7 25 18 23 25
-6 16 -64 21 -73 7z"/>
<path d="M8080 599 l-25 -10 24 -20 c30 -24 74 -24 131 2 35 16 41 22 30 29
-20 13 -128 11 -160 -1z"/>
<path d="M9285 503 c-76 -11 -219 -44 -232 -54 -43 -36 97 -53 232 -28 105 19
147 57 89 79 -26 10 -35 10 -89 3z"/>
<path d="M7600 477 c-39 -20 -32 -42 16 -45 52 -4 80 22 49 44 -23 17 -33 17
-65 1z"/>
<path d="M9649 428 c-2 -25 3 -43 15 -56 11 -11 16 -11 30 3 15 15 15 20 3 39
-17 24 -46 34 -48 14z"/>
<path d="M8670 410 c0 -5 16 -10 36 -10 21 0 33 4 29 10 -3 6 -19 10 -36 10
-16 0 -29 -4 -29 -10z"/>
<path d="M9957 369 c-113 -15 -141 -42 -59 -55 61 -10 336 -11 385 -1 91 19
-5 57 -153 62 -58 2 -136 0 -173 -6z"/>
<path d="M7405 234 c-103 -21 -127 -27 -140 -41 -12 -12 -13 -18 -4 -29 29
-35 289 9 289 50 0 21 -82 32 -145 20z"/>
</g>
</svg>
