<?xml version="1.0" standalone="no"?>
<!DOCTYPE svg PUBLIC "-//W3C//DTD SVG 20010904//EN"
 "http://www.w3.org/TR/2001/REC-SVG-20010904/DTD/svg10.dtd">
<svg version="1.0" xmlns="http://www.w3.org/2000/svg"
 width="1280.000000pt" height="1009.000000pt" viewBox="0 0 1280.000000 1009.000000"
 preserveAspectRatio="xMidYMid meet">
<metadata>
Created by potrace 1.15, written by Peter Selinger 2001-2017
</metadata>
<g transform="translate(0.000000,1009.000000) scale(0.100000,-0.100000)"
fill="#000000" stroke="none">
<path d="M6830 10084 c-14 -2 -56 -9 -95 -15 -238 -37 -475 -134 -955 -391
-129 -69 -302 -159 -385 -200 -82 -41 -222 -121 -310 -179 -336 -219 -443
-255 -955 -318 -469 -59 -594 -92 -850 -227 -197 -104 -386 -237 -696 -490
-90 -73 -235 -187 -321 -252 -365 -276 -497 -426 -572 -647 -105 -312 -115
-688 -30 -1140 28 -151 107 -463 173 -685 92 -314 153 -528 194 -688 l40 -152
-87 -46 c-275 -148 -428 -244 -611 -384 -227 -175 -640 -638 -867 -972 -441
-647 -585 -1230 -457 -1842 115 -548 403 -929 879 -1161 218 -106 512 -194
835 -249 494 -85 783 -60 1655 145 439 103 503 120 676 173 79 24 254 76 389
116 883 258 1666 565 2196 860 732 407 1335 862 2421 1823 111 98 279 239 374
313 369 289 700 569 1064 899 116 105 280 244 365 310 873 671 1181 995 1537
1615 246 428 344 679 360 921 10 157 -33 303 -121 408 -20 24 -36 53 -36 64 0
12 -4 27 -8 33 -9 14 -163 28 -322 28 -150 0 -200 -10 -477 -100 -242 -79
-317 -121 -460 -257 -53 -51 -166 -175 -253 -277 -381 -448 -507 -512 -1076
-540 -227 -11 -357 -24 -474 -46 -89 -17 -66 -39 -200 186 -129 216 -219 399
-376 765 -130 305 -295 646 -534 1105 -297 571 -451 799 -744 1099 -78 79
-180 173 -227 210 -94 74 -225 144 -309 167 -53 14 -299 27 -350 18z"/>
</g>
</svg>
