<?xml version="1.0" standalone="no"?>
<!DOCTYPE svg PUBLIC "-//W3C//DTD SVG 20010904//EN"
 "http://www.w3.org/TR/2001/REC-SVG-20010904/DTD/svg10.dtd">
<svg version="1.0" xmlns="http://www.w3.org/2000/svg"
 width="1280.000000pt" height="1280.000000pt" viewBox="0 0 1280.000000 1280.000000"
 preserveAspectRatio="xMidYMid meet">
<metadata>
Created by potrace 1.15, written by Peter Selinger 2001-2017
</metadata>
<g transform="translate(0.000000,1280.000000) scale(0.100000,-0.100000)"
fill="#000000" stroke="none">
<path d="M6816 10944 c-129 -31 -250 -123 -299 -228 -28 -60 -57 -207 -57
-292 0 -31 -7 -77 -16 -103 -16 -44 -15 -50 5 -126 12 -44 27 -98 33 -120 6
-22 22 -52 36 -67 17 -19 23 -34 19 -49 -3 -12 -1 -32 5 -43 7 -12 11 -36 9
-53 -1 -18 2 -33 7 -33 15 0 52 -77 52 -107 0 -21 -8 -33 -31 -47 -17 -10 -28
-24 -25 -31 3 -8 -35 -44 -95 -90 -55 -42 -105 -88 -111 -101 -11 -24 -139
-134 -155 -134 -4 0 -36 -27 -70 -59 -45 -42 -68 -58 -82 -54 -11 3 -34 -2
-52 -11 -37 -19 -39 -19 -39 -7 0 5 10 13 23 16 12 4 32 13 44 21 19 12 21 18
12 44 -6 16 -24 41 -40 55 l-30 24 -51 -20 c-28 -11 -65 -29 -81 -41 -45 -32
-117 -136 -117 -169 0 -21 -7 -32 -29 -43 -34 -18 -91 -81 -91 -101 0 -8 -29
-43 -65 -78 -35 -36 -67 -77 -71 -91 -5 -22 -10 -25 -28 -19 -11 4 -34 7 -51
8 l-30 0 -7 -75 c-12 -130 -28 -221 -63 -355 -18 -71 -36 -150 -40 -175 -4
-25 -13 -70 -20 -100 -9 -36 -15 -142 -17 -313 l-3 -257 31 -10 c17 -6 38 -8
47 -4 11 4 17 1 17 -9 0 -10 -7 -13 -20 -10 -44 12 -123 -108 -136 -204 -7
-56 6 -78 54 -90 15 -3 41 -16 57 -28 17 -13 41 -26 55 -30 14 -4 35 -18 47
-31 12 -13 32 -24 45 -25 13 0 32 -2 43 -5 107 -20 244 -9 297 24 15 10 69 53
118 97 85 73 106 104 66 97 -34 -6 -17 36 26 62 41 24 42 25 56 5 7 -10 20
-19 27 -19 8 0 33 -28 54 -62 22 -35 54 -72 70 -83 29 -19 46 -51 33 -59 -4
-2 -24 -7 -46 -10 -71 -13 -174 -74 -210 -123 -54 -74 -99 -258 -94 -380 3
-65 4 -68 28 -67 14 1 32 4 41 8 13 6 20 -8 37 -68 12 -41 22 -77 22 -80 0 -3
-17 -10 -38 -16 -51 -13 -108 -70 -123 -121 -16 -53 -202 -243 -229 -234 -41
13 -66 -11 -105 -102 -20 -48 -43 -101 -51 -118 -30 -66 -126 -370 -167 -530
-24 -93 -51 -182 -61 -198 -12 -18 -15 -31 -9 -40 7 -8 -1 -60 -22 -157 -28
-127 -30 -147 -17 -157 12 -10 12 -16 -7 -46 -29 -47 -55 -235 -47 -342 8
-112 21 -153 57 -173 21 -13 27 -22 23 -37 -9 -29 -11 -30 -50 -16 -30 11 -39
10 -60 -4 -14 -9 -33 -31 -42 -48 -34 -64 -126 -149 -185 -171 -45 -17 -68
-35 -122 -96 -104 -119 -174 -219 -211 -305 -31 -69 -38 -103 -55 -245 -27
-233 -35 -389 -20 -431 11 -31 8 -43 -26 -124 -20 -49 -45 -101 -55 -114 -10
-13 -31 -65 -48 -116 -42 -133 -80 -225 -94 -226 -6 -1 -17 -1 -24 0 -38 6
-76 -79 -70 -154 2 -33 7 -41 26 -43 29 -4 28 -13 -9 -48 -17 -16 -45 -49 -62
-74 -17 -25 -54 -66 -82 -91 -54 -50 -185 -217 -206 -262 -11 -25 -10 -30 16
-57 16 -17 46 -35 66 -41 36 -11 36 -12 23 -38 -28 -54 -11 -92 43 -95 16 -1
39 -9 53 -19 25 -17 76 -22 118 -11 19 6 22 11 17 32 -5 19 -3 23 9 19 21 -8
38 17 38 58 0 19 4 38 9 41 5 3 9 48 9 101 0 84 2 95 19 100 10 2 25 20 34 39
13 26 31 40 79 62 84 39 115 74 130 146 14 66 5 89 -34 94 -31 4 -40 30 -27
75 5 17 9 46 9 63 0 24 53 116 216 376 208 332 237 376 350 538 69 100 170
289 230 430 42 98 57 123 106 171 81 79 129 184 136 294 2 44 9 86 14 92 6 7
8 19 5 27 -4 10 6 15 35 19 52 7 82 36 143 139 98 166 129 289 83 337 l-21 24
76 153 c47 94 83 154 92 154 8 0 19 9 25 20 6 12 22 25 35 30 20 7 61 83 200
359 l175 350 63 -6 c64 -6 64 -5 89 28 37 49 52 103 39 139 -9 26 -8 30 8 30
9 0 36 -12 59 -27 30 -20 40 -32 36 -45 -3 -11 10 -37 36 -72 23 -30 45 -70
51 -89 5 -20 19 -38 32 -44 13 -6 113 -132 221 -280 109 -147 205 -269 214
-271 32 -6 67 -27 101 -62 57 -59 673 -899 666 -910 -3 -5 2 -21 11 -34 15
-24 15 -28 -5 -69 -12 -24 -21 -60 -21 -81 0 -20 -4 -45 -10 -55 -5 -10 -16
-68 -24 -127 -8 -60 -22 -124 -32 -143 -11 -21 -18 -64 -20 -120 -2 -47 -10
-149 -16 -226 -7 -77 -12 -180 -11 -230 2 -89 8 -116 81 -385 18 -63 50 -188
71 -278 22 -90 45 -169 51 -177 7 -8 23 -15 35 -15 20 0 23 -7 35 -90 8 -62 9
-95 2 -103 -6 -7 -8 -30 -6 -52 2 -22 7 -61 9 -87 3 -26 21 -98 40 -159 19
-61 35 -120 35 -131 0 -11 -14 -33 -31 -49 -28 -26 -31 -34 -26 -71 3 -22 15
-54 26 -69 28 -38 27 -43 -11 -54 -28 -9 -34 -16 -42 -53 -9 -43 -10 -43 -42
-38 -46 9 -50 -7 -15 -62 69 -108 102 -122 323 -132 189 -8 197 -11 253 -89
26 -36 50 -55 94 -75 32 -14 63 -26 69 -26 5 0 15 -7 22 -15 7 -8 24 -15 39
-15 33 0 53 -13 49 -30 -4 -17 81 -32 128 -24 17 3 50 23 74 45 l43 40 -21 37
c-14 24 -30 39 -48 42 -19 4 -32 17 -48 48 -20 40 -31 48 -171 118 -82 42
-160 86 -171 100 -12 13 -28 24 -35 24 -21 0 -113 68 -121 89 -3 11 -32 31
-63 45 l-56 27 26 30 c14 17 25 43 25 57 -1 36 -33 106 -58 124 -20 14 -20 21
-18 698 l2 685 34 100 c31 90 34 111 34 215 1 131 -15 197 -65 273 -31 47 -31
48 -15 87 9 22 19 66 23 97 3 33 15 70 26 85 51 69 23 227 -51 288 -31 27 -43
30 -74 25 -29 -4 -38 -2 -38 9 0 8 -8 21 -18 28 -11 7 -29 45 -42 83 -13 39
-25 76 -28 84 -4 11 7 13 57 9 54 -4 65 -8 85 -33 27 -34 39 -22 26 26 -6 19
-10 49 -10 67 0 18 -4 40 -9 50 -6 9 -19 60 -31 112 -11 52 -25 110 -31 128
-9 27 -7 37 12 63 37 52 36 103 -4 231 -19 62 -49 160 -66 218 -22 78 -60 165
-150 340 -107 208 -134 252 -232 378 -119 151 -133 161 -180 123 -13 -10 -35
-22 -49 -26 -14 -4 -33 -14 -43 -23 -15 -14 -21 -13 -53 4 -60 31 -65 48 -69
199 -2 75 -6 144 -10 153 -4 13 11 30 54 63 57 42 60 46 69 104 5 33 8 101 7
151 -1 73 -6 97 -22 120 -11 16 -25 44 -33 62 -17 43 -84 100 -127 108 -32 6
-34 9 -27 33 4 14 8 82 9 151 1 87 10 169 29 270 34 181 33 177 57 183 11 3
23 15 26 26 3 11 13 23 23 26 20 6 19 3 51 173 22 115 25 123 44 117 11 -4 41
-9 66 -12 65 -7 79 12 117 155 71 271 85 445 40 482 -19 15 -19 16 1 77 12 35
21 74 21 88 0 43 17 20 39 -54 21 -68 87 -170 135 -208 12 -10 46 -54 76 -98
29 -44 58 -83 63 -86 5 -4 10 -38 12 -75 1 -40 10 -86 20 -109 10 -22 21 -62
25 -88 6 -45 5 -49 -22 -65 -45 -26 -53 -81 -20 -129 15 -21 24 -64 36 -173 9
-80 16 -148 16 -152 0 -4 8 -15 19 -25 15 -15 17 -29 14 -78 -5 -55 -7 -60
-29 -61 -31 -2 -54 -21 -54 -44 0 -19 -94 -142 -113 -149 -20 -7 -27 -25 -21
-56 5 -31 -18 -101 -41 -120 -14 -11 -30 -185 -17 -185 16 0 44 72 33 83 -18
18 -13 35 10 39 12 2 25 10 29 18 4 8 21 44 38 80 18 36 32 79 32 96 0 34 16
54 42 54 10 0 17 3 17 8 -1 4 -1 12 0 17 2 13 91 -161 91 -177 0 -7 -13 -38
-29 -69 -42 -83 -42 -83 -52 -68 -6 10 -14 7 -33 -14 -14 -15 -31 -28 -38 -28
-27 -3 -33 -4 -50 -14 -9 -6 -16 -19 -15 -30 2 -16 -3 -19 -25 -17 -32 3 -91
-24 -83 -38 5 -8 28 -7 91 6 17 3 23 -2 27 -25 8 -38 69 -71 98 -53 30 19 65
14 98 -14 36 -30 75 -27 86 5 6 21 75 61 104 61 41 0 74 89 46 127 -8 10 -11
28 -8 40 3 13 -9 57 -28 105 -25 63 -33 99 -33 150 l-1 68 37 0 c41 0 64 26
53 59 -3 10 8 82 24 159 28 132 30 154 32 395 1 218 -1 258 -14 277 -14 20
-14 24 0 38 30 31 -6 151 -64 214 -21 22 -31 54 -54 169 -23 118 -37 159 -78
244 -28 56 -70 130 -93 166 -23 35 -59 109 -80 164 -24 60 -52 113 -70 132
-60 62 -168 79 -268 42 -93 -34 -90 -34 -90 -9 0 13 8 24 20 27 11 3 20 9 20
13 0 5 -32 37 -70 73 -53 49 -85 70 -131 86 -47 16 -89 19 -89 7 0 0 -11 -27
-23 -58 l-24 -58 -40 35 c-23 19 -44 46 -47 59 -7 29 -33 58 -94 105 -33 26
-41 38 -36 54 4 14 0 25 -14 36 l-20 16 26 100 c28 105 57 165 80 165 10 0 12
9 7 39 -4 22 -2 42 3 45 5 3 13 21 16 41 4 19 17 47 30 62 33 39 61 108 76
184 11 57 11 73 -3 120 -9 30 -19 90 -22 134 -4 44 -9 96 -11 115 -4 44 -45
160 -56 160 -4 0 -14 12 -22 28 -8 15 -32 45 -53 66 -103 105 -249 152 -377
120z m-94 -1093 c2 -22 0 -37 -4 -35 -8 5 -11 74 -4 74 2 0 6 -18 8 -39z m336
-22 c-12 -16 -22 -29 -23 -29 -1 0 2 83 4 89 1 2 10 -4 20 -14 20 -17 20 -17
-1 -46z m-428 -268 c0 -5 -9 -13 -20 -16 -27 -9 -26 -43 3 -50 12 -3 28 -18
34 -32 11 -22 10 -33 -5 -63 -9 -21 -29 -43 -45 -50 -18 -8 -30 -22 -34 -41
-7 -37 -14 -41 -74 -44 -27 -1 -52 -5 -56 -9 -3 -3 -36 -6 -72 -6 -59 0 -68 3
-97 31 l-33 32 61 48 c39 32 70 49 88 49 15 0 33 7 40 15 7 8 18 15 24 15 6 1
47 30 91 65 80 64 95 73 95 56z m374 -92 c7 -35 -11 -97 -38 -134 -13 -16 -25
-37 -28 -45 -3 -10 -12 0 -26 28 l-21 44 24 36 c13 21 29 61 36 91 l11 54 18
-23 c10 -14 21 -36 24 -51z m149 -84 c45 -36 89 -65 98 -65 9 0 36 -18 60 -41
l44 -40 -33 5 c-17 3 -43 0 -57 -6 -39 -18 -142 18 -150 52 -11 42 -35 62 -68
54 -25 -5 -28 -3 -23 12 3 11 8 33 12 49 14 61 17 60 117 -20z m397 -137 c0
-12 -62 -58 -71 -52 -10 6 -12 54 -4 77 5 12 11 12 40 -2 19 -9 34 -19 35 -23z
m-1469 -101 c-16 -16 -26 0 -10 19 9 11 15 12 17 4 2 -6 -1 -17 -7 -23z m419
-73 c0 -18 -58 -44 -114 -52 -61 -8 -41 18 35 44 79 28 79 28 79 8z m-375
-123 c3 -5 1 -12 -4 -16 -6 -3 -20 -33 -32 -66 -24 -67 -33 -63 -42 14 -5 47
-4 49 27 63 38 16 43 17 51 5z m60 -153 c13 -12 -12 -28 -44 -28 -17 0 -22 4
-17 16 3 9 6 20 6 25 0 11 39 2 55 -13z m1335 -108 c24 -24 25 -33 4 -50 -13
-11 -20 -9 -46 17 -17 17 -27 36 -24 42 11 17 44 13 66 -9z m168 -12 c17 -17
15 -48 -4 -55 -19 -7 -44 21 -44 49 0 21 30 24 48 6z m-1778 -70 c71 -34 130
-65 130 -69 0 -3 -28 -26 -62 -50 -35 -24 -87 -68 -116 -96 -30 -30 -61 -53
-73 -53 -20 0 -21 4 -17 109 2 69 8 114 16 124 11 13 11 17 -1 24 -18 10 -28
39 -21 58 4 8 8 15 10 15 2 0 62 -28 134 -62z m1971 -90 c17 -24 18 -29 6 -19
-18 14 -42 51 -33 51 3 0 15 -15 27 -32z m-2092 -351 c10 -28 56 -128 102
-220 l83 -168 62 68 61 68 18 -96 18 -96 -42 -40 c-23 -23 -46 -55 -52 -71
-13 -39 -45 -45 -76 -14 -29 29 -44 28 -76 -8 -32 -35 -47 -38 -47 -10 0 11
-6 23 -13 26 -7 2 -66 -2 -131 -11 -64 -8 -120 -15 -123 -15 -7 0 9 165 17
180 2 3 4 10 5 15 4 22 17 71 22 85 4 8 5 19 4 23 0 4 5 20 13 35 7 15 21 56
29 92 9 36 33 104 54 152 41 95 41 95 72 5z m1299 36 c4 -14 -25 -17 -54 -6
-16 6 -16 7 2 14 25 10 46 7 52 -8z m122 -3 c0 -5 -7 -10 -15 -10 -8 0 -15 5
-15 10 0 6 7 10 15 10 8 0 15 -4 15 -10z m-644 -32 c-16 -9 -36 -3 -36 11 0 5
12 6 26 3 22 -4 24 -6 10 -14z m-219 -13 c36 -11 66 -30 103 -66 56 -54 52
-54 143 -28 42 12 52 11 75 -2 33 -18 47 -77 15 -65 -58 24 -82 20 -121 -20
-30 -30 -46 -60 -70 -134 -34 -101 -50 -120 -101 -120 -28 0 -30 3 -41 58 -7
31 -18 86 -25 122 -14 65 -14 65 16 109 16 25 29 50 29 56 0 17 -20 32 -53 40
-24 6 -47 37 -47 61 0 8 26 4 77 -11z m1313 -75 c0 -16 -4 -30 -10 -30 -5 0
-10 14 -10 30 0 17 5 30 10 30 6 0 10 -13 10 -30z m-561 -1 c70 -10 91 -17
132 -48 27 -20 49 -40 49 -46 0 -5 -13 -77 -30 -160 -32 -161 -36 -200 -20
-210 6 -3 10 -17 10 -30 0 -13 7 -28 15 -32 13 -8 11 -33 -21 -202 -26 -138
-42 -199 -55 -212 -10 -10 -21 -41 -25 -69 -4 -28 -11 -53 -15 -56 -5 -3 -9
-14 -9 -25 0 -11 -10 -23 -22 -28 -41 -15 -48 -4 -48 72 0 63 3 74 26 98 18
19 36 63 61 150 l35 124 -6 215 c-3 118 -8 228 -12 243 -4 15 -25 49 -48 74
-49 54 -90 62 -129 25 -29 -28 -35 -28 -35 1 -1 12 -4 37 -8 55 -5 25 -3 32
10 32 8 0 18 11 22 25 4 18 11 24 23 21 9 -3 54 -10 100 -17z m-694 -399 c-28
-12 -37 -12 -30 0 3 6 16 10 28 9 21 0 21 -1 2 -9z m28 -30 c-6 -22 -18 -26
-29 -9 -3 6 -15 9 -25 6 -11 -3 -19 -1 -19 3 0 8 25 16 62 19 11 1 15 -5 11
-19z m-38 -142 c-9 -52 -18 -64 -34 -44 -14 17 -7 48 15 71 23 23 26 19 19
-27z m655 12 c0 -16 -5 -30 -10 -30 -18 0 -23 28 -8 44 18 21 18 20 18 -14z
m-565 -37 c-3 -21 -11 -42 -17 -48 -7 -7 -8 -4 -5 10 4 11 9 32 13 48 9 41 17
33 9 -10z m99 -10 c-4 -15 -16 -36 -26 -47 -26 -29 -40 -10 -27 37 8 30 15 37
35 37 22 0 24 -3 18 -27z m506 -191 c-9 -13 -10 -6 -6 32 3 27 7 81 8 120 2
55 3 49 5 -32 2 -63 -1 -109 -7 -120z m-712 77 c2 -23 2 -23 -13 -5 -18 24
-20 39 -2 34 6 -3 13 -15 15 -29z m72 -54 l-8 -40 -1 36 c0 20 2 39 6 42 11
11 11 4 3 -38z m-183 -326 c9 -9 8 -19 -3 -41 -8 -16 -12 -34 -7 -41 4 -6 6
-24 5 -40 -2 -16 2 -35 7 -41 17 -20 -64 -145 -104 -162 -36 -15 -75 -57 -75
-83 -1 -44 -23 29 -41 137 -11 64 -22 124 -24 133 -3 9 4 24 16 35 12 10 34
38 50 61 20 28 38 43 57 46 57 8 108 7 119 -4z m1983 -159 c9 -17 5 -28 -30
-68 -22 -27 -40 -54 -40 -60 0 -16 -39 -15 -69 2 -18 10 -20 14 -8 19 8 3 24
3 35 0 27 -7 62 29 55 56 -5 22 20 71 37 71 5 0 14 -9 20 -20z m-1880 -76 c14
-35 14 -34 -25 -34 -40 0 -41 2 -19 35 21 32 32 31 44 -1z m-480 12 c0 -3 -4
-8 -10 -11 -5 -3 -10 -1 -10 4 0 6 5 11 10 11 6 0 10 -2 10 -4z m1416 -31 c19
-15 34 -34 32 -42 -2 -10 -31 -24 -78 -37 -101 -29 -157 -62 -170 -99 -8 -23
-13 -28 -22 -19 -21 21 42 199 78 221 32 20 121 6 160 -24z m759 -45 c-3 -5
-11 -10 -16 -10 -6 0 -7 5 -4 10 3 6 11 10 16 10 6 0 7 -4 4 -10z m-1181 -220
c-5 -96 -36 -150 -87 -150 -16 0 -59 78 -51 92 3 4 13 8 24 8 19 0 30 19 30
54 0 15 12 27 43 42 23 12 43 22 44 22 0 1 -1 -29 -3 -68z m-380 -18 c20 -72
20 -96 1 -112 -11 -9 -22 -9 -49 0 -20 6 -39 16 -42 22 -10 16 17 121 34 136
28 22 39 13 56 -46z m899 34 c-12 -21 -93 -78 -105 -74 -6 2 15 25 48 50 60
46 73 52 57 24z m-1556 -443 c-13 -21 -27 -48 -31 -60 -9 -27 -19 -29 -36 -8
-10 12 -4 22 36 60 27 25 50 45 52 45 1 0 -8 -17 -21 -37z m289 -148 l36 -15
-19 -32 c-21 -36 -57 -47 -93 -28 -27 14 -26 55 2 74 28 20 30 20 74 1z m269
-110 c0 -25 -4 -31 -27 -33 -24 -3 -28 0 -28 20 0 29 19 50 40 46 9 -2 15 -14
15 -33z m-352 -72 l28 -5 -47 -87 c-25 -47 -49 -89 -53 -93 -3 -4 -6 40 -6 98
l0 105 25 -6 c14 -3 37 -9 53 -12z m1242 -10 c5 -10 11 -92 15 -183 6 -141 10
-173 30 -220 26 -61 62 -112 126 -180 23 -25 63 -83 89 -130 26 -47 62 -103
80 -125 46 -57 80 -129 109 -231 14 -49 48 -156 75 -237 27 -82 45 -145 40
-140 -4 4 -113 167 -242 362 -234 353 -234 354 -230 402 4 47 1 51 -123 234
-124 184 -126 187 -105 201 28 20 52 69 87 177 15 48 31 87 35 87 4 0 10 -8
14 -17z m236 -239 c47 -71 54 -89 68 -177 9 -53 14 -96 11 -95 -3 2 -40 39
-82 83 -91 95 -94 106 -101 315 l-4 135 28 -91 c19 -59 47 -118 80 -170z
m-2043 152 c-2 -23 -8 -31 -23 -31 -25 0 -33 53 -14 98 l13 31 14 -33 c7 -19
12 -48 10 -65z m1613 44 c22 -12 26 -59 7 -78 -30 -30 -88 3 -88 50 0 31 45
47 81 28z m-1741 -420 c0 -49 -30 -140 -48 -147 -28 -11 -30 13 -11 97 26 116
26 115 44 100 8 -7 15 -29 15 -50z m2209 -111 c5 -16 8 -29 6 -29 -6 0 -55 77
-55 86 0 16 40 -30 49 -57z m-1978 -396 c-17 -32 -40 -58 -41 -47 0 11 38 64
46 64 3 0 0 -8 -5 -17z m-317 -129 c12 -12 16 -37 16 -110 l0 -94 -62 6 c-35
4 -67 10 -71 14 -8 7 3 85 23 161 10 36 14 39 45 39 18 0 41 -7 49 -16z m380
-123 c16 -17 16 -25 6 -58 -18 -54 -49 -114 -73 -140 -19 -22 -67 -32 -67 -15
0 14 103 232 110 232 4 0 15 -9 24 -19z m-410 -137 c19 -7 21 -24 4 -24 -7 1
-26 7 -43 15 l-30 13 27 1 c14 1 33 -2 42 -5z m3065 -965 c12 -57 13 -142 1
-179 -4 -14 -8 -18 -9 -10 -3 39 -22 199 -28 230 -5 31 -4 34 10 22 8 -7 20
-36 26 -63z m-3798 -696 c-12 -20 -14 -14 -5 12 4 9 9 14 11 11 3 -2 0 -13 -6
-23z m-532 -1289 c-17 -21 -31 -17 -19 6 6 11 15 18 21 14 6 -4 6 -11 -2 -20z"/>
</g>
</svg>
