<?xml version="1.0" standalone="no"?>
<!DOCTYPE svg PUBLIC "-//W3C//DTD SVG 20010904//EN"
 "http://www.w3.org/TR/2001/REC-SVG-20010904/DTD/svg10.dtd">
<svg version="1.0" xmlns="http://www.w3.org/2000/svg"
 width="1240.000000pt" height="1280.000000pt" viewBox="0 0 1240.000000 1280.000000"
 preserveAspectRatio="xMidYMid meet">
<metadata>
Created by potrace 1.15, written by Peter Selinger 2001-2017
</metadata>
<g transform="translate(0.000000,1280.000000) scale(0.100000,-0.100000)"
fill="#000000" stroke="none">
<path d="M6070 12507 c-130 -37 -233 -124 -293 -247 -32 -65 -38 -90 -47 -185
-5 -60 -10 -136 -10 -169 l0 -58 -19 23 c-13 16 -23 21 -30 14 -12 -12 -32
-248 -24 -290 3 -16 11 -37 18 -45 6 -8 17 -35 24 -60 20 -70 60 -142 76 -137
18 8 22 -21 17 -138 l-4 -100 -107 -71 c-58 -40 -113 -74 -121 -77 -8 -2 -55
-37 -105 -77 -85 -69 -154 -108 -217 -124 -40 -9 -48 -32 -38 -111 15 -115 14
-128 -12 -119 -13 3 -24 7 -24 8 -1 0 5 29 13 63 14 57 14 64 -3 100 -23 46
-64 74 -152 105 -97 33 -210 32 -317 -4 -44 -15 -125 -39 -180 -53 -127 -34
-160 -51 -241 -128 l-67 -62 -141 -6 c-80 -4 -190 -16 -256 -29 -90 -17 -153
-23 -290 -24 -167 -1 -181 0 -305 32 -129 32 -129 32 -155 13 -26 -19 -27 -19
-39 1 -12 20 -20 20 -159 15 -157 -5 -188 -10 -382 -63 -88 -24 -164 -37 -259
-45 -100 -8 -183 -23 -330 -59 -210 -52 -319 -73 -474 -90 -59 -6 -115 -18
-140 -30 -39 -19 -61 -21 -287 -20 -325 2 -377 -6 -406 -62 -12 -23 -21 -29
-36 -25 -12 3 -38 -3 -59 -14 -21 -10 -51 -19 -67 -19 -19 0 -35 -8 -45 -22
-13 -19 -18 -21 -26 -9 -8 12 -14 13 -35 3 -23 -10 -26 -16 -20 -49 4 -30 1
-45 -19 -74 -14 -21 -28 -47 -32 -59 -5 -16 -10 -19 -18 -11 -8 8 -16 6 -28
-5 -16 -14 -16 -19 -4 -38 12 -18 11 -31 -8 -103 -24 -93 -22 -99 39 -113 48
-11 68 0 94 50 22 44 28 47 44 25 6 -8 22 -16 35 -17 30 -4 83 65 77 100 -3
23 9 31 16 10 6 -18 124 -17 166 1 23 10 32 20 32 37 0 17 6 24 19 24 11 0 26
3 34 6 10 3 18 -2 22 -16 6 -20 11 -21 73 -14 78 8 74 8 129 -5 24 -6 88 -12
142 -13 l100 -1 67 59 c76 67 59 65 244 29 69 -14 166 -29 215 -35 119 -14
196 -33 286 -68 143 -57 299 -102 391 -113 74 -9 143 -8 343 5 138 9 260 19
273 22 27 8 27 22 3 132 -19 86 -13 112 9 40 19 -67 49 -118 73 -129 19 -8 39
-3 107 27 107 47 125 47 364 -5 199 -43 308 -56 551 -67 175 -7 267 8 470 76
145 49 167 50 195 10 25 -35 38 -37 89 -10 49 25 87 70 121 143 l26 58 -2
-113 -3 -113 -68 -38 c-79 -44 -113 -74 -113 -98 0 -9 13 -70 29 -136 16 -65
37 -158 46 -207 19 -109 54 -194 140 -346 68 -121 75 -136 154 -350 68 -185
90 -232 112 -237 24 -7 43 -96 39 -188 -6 -117 -3 -387 5 -443 6 -43 3 -61
-15 -100 -54 -113 -100 -293 -100 -387 0 -39 6 -50 55 -101 45 -48 52 -60 42
-72 -8 -10 -12 -55 -12 -134 l0 -119 -35 6 c-19 4 -46 13 -59 22 -14 9 -27 11
-33 5 -5 -5 -16 -67 -24 -138 -18 -160 -24 -189 -89 -449 -117 -466 -145 -669
-125 -930 23 -302 102 -602 197 -746 23 -35 27 -54 32 -142 7 -114 17 -139 61
-157 20 -8 29 -18 26 -27 -4 -8 -6 -23 -6 -34 0 -12 -10 -21 -32 -27 -37 -9
-38 -13 -57 -172 -5 -47 -26 -139 -47 -205 -75 -241 -83 -280 -83 -417 -1 -88
5 -159 19 -230 11 -56 31 -190 45 -298 14 -107 44 -300 66 -427 21 -128 39
-245 39 -260 0 -16 14 -102 32 -191 30 -157 31 -167 18 -235 -26 -140 -25
-165 6 -198 l28 -29 -22 -23 c-14 -15 -19 -30 -16 -44 3 -12 -6 -55 -20 -96
-14 -42 -26 -85 -26 -98 0 -46 -69 -167 -119 -209 -60 -51 -173 -191 -184
-228 -10 -38 2 -120 20 -130 8 -5 20 -20 26 -33 7 -13 22 -25 34 -27 11 -2 29
-12 39 -23 9 -10 29 -19 44 -19 15 0 33 -7 40 -15 16 -20 59 -19 81 1 15 14
19 13 42 -10 22 -22 35 -26 81 -26 61 0 104 26 125 79 7 15 23 33 36 39 12 6
36 27 51 48 28 36 29 42 30 153 1 105 4 125 34 206 18 50 44 102 58 117 38 41
40 110 8 232 -15 55 -25 100 -24 100 2 1 15 7 31 14 23 10 27 18 27 49 0 21
-11 74 -25 118 -39 125 -41 209 -11 442 14 111 30 271 36 355 12 165 25 214
99 390 74 173 75 306 6 643 -45 220 -46 208 28 385 36 85 68 165 71 177 9 29
-15 41 -94 50 -61 6 -61 6 -58 37 3 26 13 36 71 69 37 22 75 49 83 61 8 13 19
60 25 106 5 46 14 90 18 99 5 9 12 43 15 76 21 181 81 568 106 685 48 219 60
315 66 505 6 160 -4 343 -22 425 -5 25 -4 25 58 26 l64 1 -13 -51 c-20 -78
-27 -341 -14 -516 8 -103 27 -229 56 -375 48 -239 90 -504 104 -667 5 -56 16
-116 25 -132 8 -17 18 -61 22 -99 8 -83 26 -107 113 -157 53 -31 61 -39 61
-65 0 -29 -1 -30 -55 -32 -65 -3 -95 -16 -95 -43 0 -11 30 -90 67 -177 76
-179 77 -193 44 -353 -56 -273 -69 -478 -37 -585 10 -33 40 -112 68 -175 l50
-115 14 -175 c8 -96 26 -269 40 -385 30 -239 28 -301 -11 -428 -32 -106 -35
-155 -10 -173 10 -8 25 -14 33 -14 10 0 12 -6 7 -23 -4 -12 -11 -42 -16 -67
-4 -25 -13 -63 -18 -85 -16 -61 -13 -97 10 -140 11 -22 34 -83 51 -135 27 -87
29 -103 23 -187 -8 -116 4 -161 52 -203 20 -18 46 -50 56 -72 27 -53 58 -72
124 -72 47 -1 58 3 77 25 22 26 23 26 46 7 26 -21 67 -18 86 8 7 8 19 12 28 8
11 -4 29 2 46 15 16 11 35 21 42 21 7 0 30 18 50 40 47 49 61 126 34 179 -25
48 -98 140 -151 191 -50 48 -111 158 -121 220 -3 19 -15 64 -26 98 -13 40 -18
77 -15 98 5 29 2 37 -19 50 l-24 16 36 40 c25 28 34 46 31 61 -3 12 -13 61
-23 108 l-18 87 27 153 c15 85 29 177 33 204 3 28 19 122 35 210 15 88 42 259
59 380 16 121 42 283 57 360 22 111 28 167 27 270 -1 143 -8 178 -89 430 -33
100 -49 171 -57 248 -11 104 -12 108 -37 113 -14 3 -31 7 -37 9 -7 2 -13 19
-16 39 -3 31 -1 37 25 47 44 18 54 45 59 151 5 86 9 103 41 166 120 231 175
473 184 802 8 287 -8 396 -132 910 -30 124 -61 284 -70 355 -24 193 -24 193
-71 171 -16 -7 -43 -16 -59 -19 l-31 -6 4 97 c2 54 0 113 -6 133 -8 31 -6 39
17 66 52 62 71 84 76 92 7 12 -13 164 -32 241 -8 36 -33 109 -55 164 -36 87
-39 103 -32 145 11 66 14 293 5 381 -4 41 -4 90 0 110 4 19 11 52 14 74 4 25
12 40 25 43 22 6 59 85 139 297 35 94 86 204 124 270 108 186 129 242 171 456
14 69 34 152 46 184 11 33 20 62 20 66 0 17 -60 65 -130 102 l-75 41 0 66 c0
36 -3 87 -7 114 -7 43 -6 47 12 47 15 0 27 -17 48 -63 34 -75 85 -135 129
-153 38 -17 57 -11 71 22 17 35 56 32 213 -20 239 -79 293 -85 612 -65 130 7
220 20 367 50 276 56 267 56 380 10 115 -47 132 -42 178 49 11 23 12 22 6 -15
-3 -22 -8 -52 -11 -67 -5 -23 -1 -29 22 -38 15 -6 142 -18 282 -27 353 -23
379 -19 763 116 79 28 152 45 235 56 66 9 175 27 242 41 152 32 171 30 202
-18 30 -47 95 -69 243 -83 10 -1 40 -12 68 -25 43 -20 55 -22 71 -12 25 16 39
8 39 -22 0 -42 92 -106 154 -106 20 0 86 58 86 76 0 19 -37 68 -77 103 -33 30
-43 45 -35 50 7 4 10 15 6 24 -5 14 0 15 33 11 21 -3 46 -7 55 -9 10 -2 21 1
24 6 3 5 10 9 16 9 7 0 6 -5 -1 -14 -17 -21 40 -50 82 -42 29 6 29 5 23 -25
-5 -26 -1 -36 24 -59 24 -22 29 -34 25 -56 -7 -34 26 -94 51 -94 27 0 54 20
54 40 0 28 46 27 55 0 10 -32 47 -51 84 -44 48 10 55 35 33 122 -11 41 -15 75
-10 78 5 4 7 12 4 20 -3 7 -1 16 5 20 6 4 4 13 -7 25 -12 13 -21 16 -29 9 -18
-15 -66 79 -67 132 -1 24 -6 49 -11 56 -12 15 -44 16 -49 1 -2 -7 -37 4 -92
30 -71 34 -91 39 -103 29 -11 -9 -16 -9 -24 3 -5 8 -9 20 -9 26 0 21 -49 46
-113 58 -37 6 -159 10 -300 9 -181 -1 -245 2 -265 12 -40 19 -102 32 -244 49
-70 8 -208 35 -306 60 -227 57 -253 62 -405 75 -81 7 -165 22 -234 41 -192 54
-226 60 -378 69 -122 7 -155 5 -179 -6 -20 -10 -33 -11 -40 -4 -19 19 -51 14
-310 -48 -54 -13 -336 6 -475 33 -93 17 -167 25 -246 25 -124 0 -132 3 -202
81 -44 48 -112 83 -224 115 -52 14 -137 40 -189 56 -125 40 -204 41 -319 2
-64 -21 -95 -38 -123 -66 -30 -30 -38 -34 -38 -19 0 24 -15 35 -65 51 -67 21
-115 50 -196 116 -43 34 -89 68 -101 75 -55 28 -248 162 -248 173 0 6 -3 59
-5 117 -4 93 -2 107 12 105 19 -1 57 62 74 124 7 25 18 52 24 60 21 26 25 82
15 210 -10 128 -21 159 -44 128 -11 -15 -14 -1 -20 90 -10 164 -23 229 -64
307 -49 93 -110 153 -205 200 -72 36 -85 39 -180 42 -63 2 -119 -2 -147 -10z
m1160 -1949 c0 -9 -4 -20 -10 -23 -6 -4 -10 9 -10 32 0 28 3 34 10 23 5 -8 10
-23 10 -32z"/>
</g>
</svg>
