<?xml version="1.0" standalone="no"?>
<!DOCTYPE svg PUBLIC "-//W3C//DTD SVG 20010904//EN"
 "http://www.w3.org/TR/2001/REC-SVG-20010904/DTD/svg10.dtd">
<svg version="1.0" xmlns="http://www.w3.org/2000/svg"
 width="1240.000000pt" height="1280.000000pt" viewBox="0 0 1240.000000 1280.000000"
 preserveAspectRatio="xMidYMid meet">
<metadata>
Created by potrace 1.15, written by Peter Selinger 2001-2017
</metadata>
<g transform="translate(0.000000,1280.000000) scale(0.100000,-0.100000)"
fill="#000000" stroke="none">
<path d="M6045 12240 c-127 -21 -207 -62 -300 -154 -133 -130 -193 -305 -183
-534 4 -88 3 -102 -11 -100 -20 4 -30 -55 -33 -198 -3 -95 0 -115 15 -131 9
-11 17 -28 17 -38 0 -29 62 -155 76 -155 7 0 17 7 22 16 8 14 13 6 26 -34 10
-28 36 -79 59 -114 60 -91 65 -107 73 -216 11 -158 -16 -222 -111 -270 -45
-22 -188 -67 -250 -77 -51 -9 -65 -21 -65 -56 0 -27 -25 -138 -33 -146 -2 -2
-11 -1 -20 3 -14 5 -16 18 -10 94 l6 88 -43 7 c-89 15 -322 -22 -560 -90 -172
-49 -541 -122 -681 -136 -152 -14 -285 -8 -504 25 -139 21 -185 24 -204 16
-17 -8 -27 -8 -35 0 -18 18 -220 11 -425 -14 -108 -13 -241 -27 -296 -31 -55
-3 -170 -15 -255 -26 -85 -10 -231 -24 -325 -30 -93 -6 -177 -14 -186 -19 -8
-4 -23 -4 -32 2 -9 5 -110 13 -223 19 -181 8 -214 8 -263 -7 -64 -18 -112 -41
-126 -61 -5 -7 -23 -15 -40 -17 -16 -2 -56 -15 -87 -29 -45 -20 -58 -31 -58
-48 0 -15 -5 -19 -15 -15 -17 6 -95 -90 -95 -118 0 -9 -7 -19 -15 -22 -18 -7
-65 -100 -65 -129 0 -16 10 -25 38 -34 53 -18 72 -12 100 29 31 47 70 90 81
90 5 0 11 -8 13 -18 4 -15 1 -18 -16 -15 -24 5 -45 -23 -57 -74 -8 -39 -3 -43
56 -49 33 -3 45 0 45 10 0 7 7 19 15 26 8 7 15 25 15 41 0 16 5 29 12 29 6 0
26 16 44 35 31 34 36 36 137 47 89 9 122 9 213 -6 155 -23 263 -22 308 5 l35
20 148 -20 c81 -12 254 -28 383 -36 222 -15 680 -63 799 -85 30 -6 71 -10 92
-10 33 0 38 4 48 31 6 18 11 40 11 50 0 11 5 19 10 19 6 0 10 -17 10 -38 0
-21 6 -47 14 -57 13 -18 21 -19 192 -7 154 11 202 10 344 -3 126 -12 256 -15
560 -13 448 3 496 -2 601 -67 60 -37 90 -43 107 -22 5 6 18 51 28 100 10 48
21 87 24 87 10 0 3 -206 -9 -246 -11 -35 -11 -45 3 -72 15 -29 14 -33 -10 -87
-93 -203 -61 -403 79 -494 21 -14 39 -34 42 -45 35 -179 128 -473 156 -498 32
-28 36 -126 9 -233 -12 -50 -23 -97 -24 -105 -1 -8 -5 -22 -9 -30 -3 -8 -18
-48 -33 -89 -31 -88 -70 -147 -105 -160 -47 -16 -201 -339 -216 -451 -4 -31 0
-39 36 -73 46 -42 46 -42 61 -187 6 -58 13 -119 16 -136 l6 -32 -96 21 c-53
11 -98 18 -101 15 -5 -5 -51 -176 -98 -363 -29 -117 -36 -670 -12 -907 35
-345 76 -542 182 -875 65 -207 101 -380 102 -490 1 -43 6 -58 29 -83 34 -39
94 -50 141 -25 l32 16 -12 -23 c-7 -13 -20 -29 -31 -36 -10 -7 -18 -19 -18
-26 0 -9 -18 -15 -50 -18 -79 -8 -80 -11 -80 -164 0 -85 -7 -178 -20 -256 -59
-367 -66 -534 -32 -763 12 -77 33 -241 46 -365 26 -234 68 -525 112 -785 22
-127 25 -164 18 -240 -13 -147 -10 -216 12 -232 18 -14 18 -15 -7 -36 -16 -14
-41 -58 -64 -116 -37 -93 -115 -232 -182 -324 -52 -70 -103 -177 -103 -214 0
-30 10 -45 52 -79 28 -22 82 -44 110 -44 15 0 28 -5 28 -10 0 -6 12 -15 26
-21 31 -11 74 11 74 39 0 14 3 13 18 -5 9 -12 31 -27 49 -33 41 -15 91 7 116
50 10 16 30 38 46 49 39 28 68 94 76 172 12 112 24 151 60 190 19 21 38 55 44
76 11 40 8 240 -4 284 -5 22 -3 27 16 32 22 6 22 7 16 139 -5 91 -2 175 8 268
98 894 98 898 146 1048 22 69 44 159 50 201 11 78 6 268 -11 391 -34 245 -32
356 11 538 32 140 25 159 -73 177 -32 6 -37 11 -40 39 -2 21 -10 34 -25 41
-13 5 -23 15 -23 22 0 7 0 16 0 20 0 3 31 5 70 4 63 -2 72 0 95 23 24 24 25
30 25 153 1 361 19 576 80 958 74 466 87 771 41 965 -11 47 -21 102 -21 122 0
37 0 37 33 30 17 -4 57 -7 87 -7 30 0 70 3 88 7 31 7 32 7 32 -27 0 -20 -10
-77 -22 -128 -20 -81 -22 -118 -22 -302 1 -218 15 -356 79 -754 41 -258 54
-404 61 -701 5 -217 10 -290 20 -307 18 -29 65 -41 128 -32 28 3 52 6 53 5 9
-7 -13 -45 -28 -49 -10 -3 -20 -15 -20 -26 -1 -12 -2 -26 -3 -32 0 -6 -29 -20
-64 -31 -35 -10 -66 -26 -69 -35 -3 -8 4 -61 15 -117 43 -203 48 -288 26 -464
-13 -106 -19 -220 -19 -352 l0 -195 42 -125 c50 -150 55 -178 88 -485 14 -132
35 -314 47 -405 16 -121 22 -218 23 -363 0 -190 1 -199 21 -215 16 -13 20 -22
14 -37 -5 -11 -9 -78 -9 -148 -1 -109 2 -134 19 -167 11 -21 28 -45 39 -52 19
-14 35 -74 45 -181 8 -76 28 -124 71 -167 19 -19 47 -49 63 -67 16 -18 41 -35
55 -38 31 -8 97 21 97 42 0 10 11 4 29 -16 34 -36 53 -39 80 -10 11 12 24 18
30 15 10 -7 101 29 111 44 3 4 15 12 27 19 42 22 40 71 -7 169 -23 48 -50 96
-60 107 -40 43 -141 223 -177 314 -20 53 -47 108 -60 122 -13 14 -20 29 -16
33 4 4 13 25 19 47 10 32 9 60 -2 137 -17 108 -16 123 26 372 45 273 77 498
100 708 11 106 32 270 45 365 14 95 25 208 25 252 0 91 -20 277 -51 475 -12
74 -24 202 -28 285 -6 147 -6 150 -31 162 -14 7 -41 13 -61 13 -31 0 -38 4
-43 25 -4 14 -13 25 -20 25 -14 0 -31 29 -22 37 2 3 13 0 24 -6 41 -22 92 -13
126 22 31 30 33 38 40 121 4 49 12 112 17 140 5 28 11 65 13 81 2 17 31 116
65 220 96 298 131 457 178 805 25 188 26 870 1 970 -38 156 -99 385 -104 389
-4 4 -152 -25 -182 -36 -12 -5 -14 -2 -8 12 3 10 11 64 17 119 20 194 17 183
61 227 49 48 49 58 -13 215 -62 160 -136 294 -168 305 -35 13 -85 89 -111 169
-11 36 -25 74 -29 85 -5 11 -17 56 -26 100 -10 44 -21 85 -25 90 -13 19 6 155
24 168 27 20 156 427 156 494 0 10 27 42 59 70 32 29 69 72 80 97 50 102 46
227 -10 362 -29 71 -30 73 -14 105 15 28 15 38 4 73 -13 42 -19 246 -8 246 4
0 14 -35 23 -77 30 -140 40 -147 134 -88 108 66 149 70 577 67 297 -3 423 1
577 14 169 15 220 15 351 5 194 -14 207 -11 207 62 0 49 16 48 24 -2 10 -64
17 -66 178 -42 210 31 586 69 803 81 105 6 257 20 338 31 140 20 150 20 167 4
15 -13 44 -18 125 -22 120 -5 140 -10 194 -53 52 -42 101 -49 130 -19 25 27
26 37 5 67 -9 13 -14 25 -13 26 2 2 33 0 69 -4 42 -4 68 -3 73 4 6 7 7 4 3 -6
-6 -20 39 -49 62 -41 17 6 42 -15 42 -36 0 -9 16 -31 35 -50 19 -18 35 -38 35
-45 0 -8 9 -25 21 -40 21 -27 71 -36 84 -16 11 18 -25 109 -46 115 -11 4 -19
15 -19 28 0 33 -38 90 -55 83 -17 -6 -21 9 -5 19 19 12 48 -6 53 -33 3 -15 15
-40 27 -55 17 -21 27 -26 46 -21 17 4 24 2 24 -9 0 -8 10 -27 21 -42 18 -22
27 -26 51 -21 36 7 58 28 58 56 0 29 -46 116 -65 124 -9 3 -15 12 -13 19 2 7
-15 39 -36 70 -30 44 -44 56 -58 51 -14 -4 -18 0 -18 16 0 16 -15 28 -65 51
-35 16 -70 26 -78 24 -7 -3 -27 8 -45 24 -56 54 -122 66 -325 63 -99 -2 -202
-8 -230 -13 -29 -5 -56 -9 -62 -9 -80 4 -387 34 -513 50 -90 11 -223 25 -295
31 -73 5 -204 18 -292 29 -193 23 -378 28 -399 11 -11 -10 -19 -9 -34 0 -17
10 -57 8 -219 -14 -293 -39 -309 -40 -459 -28 -157 14 -544 87 -694 131 -251
75 -514 116 -599 93 -23 -6 -24 -7 -17 -93 6 -75 4 -89 -10 -94 -8 -3 -19 -6
-23 -6 -7 0 -32 103 -36 152 -4 41 -10 45 -82 58 -73 14 -169 45 -243 79 -33
14 -53 32 -70 63 -23 39 -25 53 -25 168 1 139 9 172 61 234 18 21 46 70 62
108 19 46 31 64 35 54 4 -9 12 -16 20 -16 13 0 60 93 73 145 3 17 14 38 23 49
13 15 15 39 13 135 -4 151 -12 196 -36 195 -16 -2 -17 5 -11 75 9 93 -8 240
-37 328 -40 122 -159 270 -260 324 -93 50 -279 78 -393 59z"/>
</g>
</svg>
