<?xml version="1.0" standalone="no"?>
<!DOCTYPE svg PUBLIC "-//W3C//DTD SVG 20010904//EN"
 "http://www.w3.org/TR/2001/REC-SVG-20010904/DTD/svg10.dtd">
<svg version="1.0" xmlns="http://www.w3.org/2000/svg"
 width="1280.000000pt" height="1198.000000pt" viewBox="0 0 1280.000000 1198.000000"
 preserveAspectRatio="xMidYMid meet">
<metadata>
Created by potrace 1.15, written by Peter Selinger 2001-2017
</metadata>
<g transform="translate(0.000000,1198.000000) scale(0.100000,-0.100000)"
fill="#000000" stroke="none">
<path d="M2170 11958 c-32 -16 -52 -36 -70 -68 -23 -41 -25 -55 -24 -160 1
-102 4 -126 34 -215 108 -329 389 -801 792 -1329 l76 -98 -187 -187 c-287
-287 -518 -573 -715 -889 -42 -67 -63 -92 -74 -87 -8 3 -55 17 -104 31 l-88
26 -45 -22 c-53 -26 -110 -99 -149 -193 -29 -70 -329 -1084 -353 -1192 -18
-86 -13 -196 12 -249 14 -29 30 -44 64 -59 25 -11 47 -20 48 -21 1 -1 -8 -76
-21 -167 -25 -171 -43 -383 -48 -554 l-3 -100 530 -3 531 -2 -20 -115 c-15
-90 -23 -115 -35 -115 -15 0 -921 -80 -1141 -100 -157 -15 -144 -19 -170 53
-62 170 -205 295 -382 333 -81 17 -127 17 -213 -1 -184 -39 -329 -170 -391
-355 -30 -87 -25 -245 9 -333 62 -159 185 -273 347 -321 69 -21 218 -22 282
-2 138 43 254 136 316 254 21 38 40 62 50 62 17 0 965 -137 1157 -168 l110
-17 3 -117 3 -118 -476 0 -475 0 0 -27 c1 -201 44 -608 90 -848 187 -978 641
-1839 1356 -2574 l111 -113 -37 -47 c-20 -25 -81 -109 -136 -186 -329 -460
-530 -814 -624 -1100 -30 -89 -33 -113 -34 -215 -1 -105 1 -119 24 -160 29
-52 92 -90 150 -90 174 0 506 198 895 534 138 119 382 347 505 470 69 69 130
126 137 126 6 0 51 -23 100 -51 108 -63 241 -130 393 -199 1070 -484 2291
-573 3420 -249 345 98 615 207 948 379 l156 81 160 -159 c327 -323 610 -563
870 -737 395 -264 616 -257 634 20 17 266 -236 766 -730 1444 l-54 74 129 126
c720 701 1218 1622 1407 2606 46 236 76 499 86 738 l7 157 -436 0 -437 0 0
115 c0 63 4 115 8 115 8 0 436 62 1032 150 151 22 283 40 292 40 10 0 29 -22
48 -57 93 -175 258 -274 455 -274 144 0 256 43 353 135 70 65 106 119 139 203
34 88 39 246 9 333 -62 185 -207 316 -391 355 -86 18 -132 18 -213 1 -177 -38
-320 -163 -382 -333 -17 -47 -28 -63 -41 -63 -11 0 -146 11 -302 25 -155 14
-452 41 -660 59 -208 19 -380 36 -382 37 -2 2 -12 52 -23 112 l-19 107 453 0
454 0 0 108 c0 172 -55 689 -77 725 -3 5 5 16 17 24 40 28 60 89 59 183 0 107
5 88 -188 745 -101 342 -174 571 -193 607 -40 76 -89 132 -134 153 -35 17 -39
16 -117 -6 -58 -17 -82 -20 -85 -11 -2 7 -50 82 -107 167 -224 336 -476 632
-768 903 l-98 91 114 153 c519 697 793 1227 775 1503 -18 277 -239 284 -634
20 -276 -185 -538 -409 -946 -812 l-227 -223 -128 63 c-601 301 -1202 464
-1915 521 l-68 5 0 -609 c0 -585 -1 -611 -20 -663 -76 -202 -362 -210 -451
-12 -17 37 -19 81 -19 663 l0 623 -77 -6 c-736 -58 -1344 -224 -1943 -531
l-145 -74 -235 233 c-500 495 -872 799 -1145 933 -174 85 -266 102 -345 62z"/>
</g>
</svg>
