<?xml version="1.0" standalone="no"?>
<!DOCTYPE svg PUBLIC "-//W3C//DTD SVG 20010904//EN"
 "http://www.w3.org/TR/2001/REC-SVG-20010904/DTD/svg10.dtd">
<svg version="1.0" xmlns="http://www.w3.org/2000/svg"
 width="705.000000pt" height="1280.000000pt" viewBox="0 0 705.000000 1280.000000"
 preserveAspectRatio="xMidYMid meet">
<metadata>
Created by potrace 1.15, written by Peter Selinger 2001-2017
</metadata>
<g transform="translate(0.000000,1280.000000) scale(0.100000,-0.100000)"
fill="#000000" stroke="none">
<path d="M3965 12369 c-121 -29 -285 -145 -355 -252 -35 -53 -50 -67 -82 -77
-22 -6 -74 -27 -116 -46 l-75 -34 20 -23 c30 -34 64 -97 57 -108 -3 -5 6 -23
20 -39 47 -56 46 -149 -1 -308 -14 -48 -38 -134 -53 -192 -32 -124 -54 -176
-115 -275 l-46 -73 -40 5 c-43 6 -74 -12 -90 -54 -25 -66 -298 -214 -414 -225
-16 -1 -49 1 -73 6 -38 7 -47 5 -68 -15 -13 -12 -24 -34 -24 -48 0 -18 -10
-33 -35 -49 -36 -25 -102 -106 -128 -158 -24 -48 -57 -173 -57 -219 0 -22 -11
-64 -25 -93 -77 -165 -71 -311 20 -491 l35 -71 -73 -98 c-40 -53 -76 -102 -80
-108 -13 -22 18 -91 63 -139 68 -74 89 -138 94 -288 2 -67 7 -163 11 -212 4
-50 4 -136 0 -190 -7 -93 -8 -99 -22 -77 -19 27 -33 28 -33 3 0 -15 -6 -19
-26 -18 -18 1 -32 -6 -44 -23 -21 -29 -51 -191 -51 -278 0 -83 27 -181 61
-217 53 -55 54 -76 9 -136 -44 -60 -48 -78 -18 -99 12 -8 37 -27 56 -42 19
-15 43 -30 54 -33 25 -8 25 -10 -14 -102 -19 -43 -40 -102 -47 -131 -14 -59
-20 -252 -7 -252 4 0 3 -10 -4 -21 -7 -14 -9 -43 -5 -79 4 -32 2 -77 -3 -101
-5 -24 -6 -66 -2 -92 5 -26 4 -50 -1 -53 -11 -7 -10 -71 3 -116 8 -31 15 -38
34 -38 21 0 25 5 25 32 0 25 3 29 12 20 7 -7 21 -12 31 -12 18 0 19 7 15 75
-2 41 0 75 4 75 5 0 8 31 8 69 0 39 5 73 10 76 6 3 10 35 10 71 0 54 3 64 18
64 20 1 52 23 52 37 0 6 7 17 16 24 15 12 16 10 9 -19 -4 -22 -2 -38 7 -49 10
-13 10 -17 1 -20 -18 -6 -17 -117 1 -132 34 -28 57 10 60 95 0 24 4 44 8 44 4
0 13 18 19 40 23 77 20 31 -5 -82 -54 -240 -67 -344 -67 -523 0 -102 6 -212
16 -274 13 -84 13 -106 3 -113 -7 -4 -16 -8 -19 -8 -4 0 -14 -16 -24 -36 -16
-34 -16 -40 5 -141 16 -80 19 -112 11 -134 -7 -21 -6 -42 4 -76 8 -26 12 -49
10 -52 -3 -2 1 -14 9 -26 33 -50 85 -262 105 -425 19 -146 12 -230 -44 -560
-2 -14 -7 -59 -11 -101 l-7 -75 44 -38 44 -37 0 -167 c0 -156 1 -170 23 -208
34 -58 52 -67 91 -43 17 10 31 26 31 34 0 8 4 15 9 15 6 0 11 17 13 37 2 20 8
38 14 40 7 2 8 -17 2 -64 -4 -38 -6 -74 -3 -81 8 -21 -12 -58 -70 -136 -118
-157 -185 -318 -201 -486 -8 -87 -25 -165 -39 -175 -28 -23 -21 -89 17 -163
74 -140 104 -270 114 -492 14 -291 -50 -577 -165 -740 -109 -154 -128 -215
-97 -309 10 -31 14 -65 10 -93 -3 -26 1 -63 10 -93 l16 -50 -45 -38 c-80 -69
-109 -140 -80 -201 10 -21 15 -46 11 -60 -4 -16 1 -32 14 -49 22 -28 19 -67
-6 -88 -9 -7 -14 -32 -14 -68 l0 -56 42 -13 c31 -10 87 -12 222 -7 186 6 211
11 326 61 102 45 105 47 105 81 0 42 11 50 43 32 31 -17 40 -50 17 -69 -8 -7
-15 -27 -15 -46 0 -25 7 -38 32 -56 28 -20 44 -23 113 -22 44 1 98 4 120 6
l40 6 3 57 c3 48 -1 61 -18 80 -12 13 -32 26 -45 29 -19 5 -40 39 -100 160
-73 146 -87 165 -135 179 -8 2 -25 0 -37 -4 -35 -13 -37 8 -3 26 16 8 40 34
52 58 19 35 23 56 22 132 -2 147 -17 276 -40 355 -9 30 -18 76 -19 102 -2 26
-6 52 -10 59 -14 22 -22 215 -14 348 14 217 73 512 130 639 10 24 34 65 53 90
61 85 68 106 74 236 3 67 6 180 6 252 l1 131 -43 84 c-23 46 -65 122 -92 169
-28 47 -57 107 -65 135 -18 58 -31 202 -16 170 5 -11 10 -34 10 -52 1 -17 6
-35 11 -38 6 -3 10 -14 10 -24 0 -43 155 -54 186 -13 8 10 13 42 13 82 -4 287
15 1096 26 1163 16 93 60 189 139 305 31 46 56 88 56 92 0 5 6 13 13 17 12 7
26 33 69 129 13 27 19 66 25 144 4 63 3 67 -32 113 -20 26 -40 47 -44 47 -5 0
-2 37 5 83 8 45 14 114 14 152 l0 71 41 31 42 32 79 -77 c43 -42 108 -97 144
-122 59 -41 68 -52 98 -120 40 -93 141 -262 240 -400 81 -113 118 -194 221
-480 80 -222 148 -377 229 -520 77 -137 120 -234 130 -296 7 -41 -32 -374 -61
-514 -8 -41 -17 -147 -20 -235 -5 -141 -2 -178 21 -315 14 -85 33 -213 41
-285 18 -151 38 -279 65 -420 30 -153 59 -397 66 -552 9 -191 0 -225 -81 -312
-63 -66 -107 -139 -119 -197 -18 -84 37 -171 161 -253 102 -67 118 -92 138
-221 20 -129 37 -183 70 -226 34 -45 97 -76 144 -73 20 2 59 -2 86 -9 37 -10
59 -10 79 -3 19 8 33 8 48 0 32 -17 104 -2 127 27 35 44 5 99 -81 151 -47 29
-116 192 -147 343 -19 96 -61 584 -61 712 0 81 12 216 35 398 50 387 83 781
100 1165 8 182 19 413 25 515 19 305 18 593 -2 675 -9 39 -22 111 -29 160 -6
50 -33 180 -60 289 -27 110 -60 260 -74 335 -14 75 -37 189 -52 255 -21 98
-24 124 -15 155 22 73 23 82 12 96 -8 10 -9 19 0 35 13 25 16 94 5 133 -9 35
6 73 33 81 52 17 56 155 6 207 -24 25 -27 36 -25 86 2 61 -25 165 -61 237 -15
30 -18 44 -10 57 12 18 -19 193 -40 233 -6 11 -7 21 -2 23 36 13 59 32 65 56
6 24 1 35 -36 78 -29 32 -50 68 -60 102 -14 50 -14 66 6 223 24 196 21 295
-16 456 -26 116 -93 338 -105 352 -13 13 -100 -78 -100 -104 0 -12 -4 -18 -10
-15 -14 9 4 368 25 498 8 45 13 138 12 207 l-1 125 47 46 c68 66 66 92 -18
205 l-64 88 18 30 c48 77 91 159 112 213 42 107 28 313 -30 433 -9 20 -18 63
-20 95 -2 68 -23 151 -53 209 -30 59 -112 140 -167 167 -46 22 -48 24 -40 52
12 42 3 50 -45 42 -50 -9 -212 -12 -220 -4 -3 3 2 22 12 42 12 26 24 36 40 37
22 0 62 32 62 49 0 5 11 22 24 38 14 16 26 45 28 63 2 26 8 36 23 38 41 6 75
25 81 44 3 11 -2 40 -11 64 -18 48 -18 200 0 197 6 -1 11 12 12 29 2 20 15 43
37 65 50 50 64 87 74 192 11 106 0 229 -25 293 -31 79 -93 165 -176 245 -124
119 -253 200 -376 237 -59 17 -181 20 -246 5z m-1061 -3159 c19 -36 41 -89 50
-119 20 -70 21 -192 0 -283 -9 -38 -12 -73 -8 -77 5 -5 29 -16 53 -25 37 -14
46 -15 60 -3 10 8 29 11 51 8 l35 -6 -3 -145 c-3 -168 -17 -278 -42 -335 -10
-22 -21 -56 -25 -75 -12 -59 -113 -299 -144 -343 -29 -42 -143 -157 -155 -157
-3 0 -6 24 -6 54 0 35 -5 60 -15 70 -20 19 -19 20 11 65 22 34 25 48 23 113
-2 60 2 84 25 136 l27 63 -22 36 c-12 19 -23 53 -24 74 -3 59 -24 98 -54 106
-14 3 -30 9 -36 13 -5 4 -24 11 -41 14 -28 6 -35 3 -57 -26 -14 -18 -29 -29
-33 -26 -10 10 39 169 95 312 61 155 79 237 90 426 6 110 14 159 31 203 l22
59 29 -34 c16 -18 45 -62 63 -98z m1534 -96 c12 -34 22 -82 22 -107 0 -74 25
-181 83 -362 48 -147 97 -319 97 -340 0 -3 -4 -3 -10 0 -5 3 -10 15 -10 25 0
10 -13 28 -30 40 -16 12 -30 30 -30 40 0 25 -8 29 -47 23 l-31 -5 -7 -77 c-3
-42 -11 -119 -17 -171 -15 -132 0 -265 41 -358 17 -39 31 -85 30 -104 l-1 -33
-18 40 c-10 22 -43 135 -73 250 -52 199 -103 385 -169 610 -16 55 -32 119 -35
143 l-6 42 40 0 c21 0 44 -5 51 -12 8 -8 23 -7 59 7 26 10 49 19 50 20 2 1
-18 41 -43 90 -29 57 -43 96 -40 109 3 12 13 57 22 101 16 80 31 113 44 98 4
-4 16 -35 28 -69z m443 -891 c3 -32 -1 -43 -15 -43 -15 0 -32 82 -21 101 8 12
33 -29 36 -58z m-51 -73 c0 -5 -4 -10 -10 -10 -5 0 -10 5 -10 10 0 6 5 10 10
10 6 0 10 -4 10 -10z m-2134 -670 c-7 -25 -17 -72 -21 -105 -4 -33 -21 -103
-38 -155 -32 -94 -32 -95 -35 -51 -2 31 4 58 22 96 42 84 34 155 -16 155 -24
0 -27 3 -20 17 8 14 113 92 119 88 1 0 -4 -21 -11 -45z m1981 -32 c28 -36 51
-84 72 -150 36 -113 38 -127 13 -105 -10 10 -23 17 -29 17 -16 0 -31 43 -38
116 -7 66 -24 109 -63 164 -32 45 5 11 45 -42z m-1703 -2974 l46 -7 0 -48 0
-49 -52 0 c-67 0 -98 -9 -98 -26 0 -8 -3 -14 -8 -14 -7 0 -7 20 -3 117 1 30
34 38 115 27z m-104 -3225 c0 -11 -4 -17 -10 -14 -5 3 -10 13 -10 21 0 8 5 14
10 14 6 0 10 -9 10 -21z"/>
</g>
</svg>
