<?xml version="1.0" standalone="no"?>
<!DOCTYPE svg PUBLIC "-//W3C//DTD SVG 20010904//EN"
 "http://www.w3.org/TR/2001/REC-SVG-20010904/DTD/svg10.dtd">
<svg version="1.0" xmlns="http://www.w3.org/2000/svg"
 width="1280.000000pt" height="1244.000000pt" viewBox="0 0 1280.000000 1244.000000"
 preserveAspectRatio="xMidYMid meet">
<metadata>
Created by potrace 1.15, written by Peter Selinger 2001-2017
</metadata>
<g transform="translate(0.000000,1244.000000) scale(0.100000,-0.100000)"
fill="#000000" stroke="none">
<path d="M2213 12320 c3 -8 48 -119 101 -247 182 -447 315 -860 380 -1183 48
-241 65 -605 37 -800 -41 -292 -144 -492 -286 -559 -25 -12 -49 -21 -55 -21
-14 0 -13 46 10 226 28 230 34 394 21 594 -20 300 -55 514 -205 1259 -46 229
-90 450 -97 491 -19 111 -23 58 -5 -67 53 -371 78 -755 91 -1393 6 -248 13
-462 32 -871 3 -74 3 -151 -1 -171 l-6 -36 -33 31 c-17 17 -70 48 -117 70
-113 52 -112 51 -94 92 31 74 8 176 -56 247 l-38 43 49 45 c47 43 50 49 64
124 16 87 11 340 -8 364 -6 7 -7 42 -3 87 8 89 -10 141 -68 201 -24 25 -41 56
-52 95 -17 59 -28 74 -68 94 -11 6 -31 31 -43 57 -31 65 -74 93 -143 93 -195
-2 -429 -14 -450 -23 -14 -6 -19 -11 -13 -11 26 -2 53 -41 53 -75 0 -19 4 -46
9 -59 9 -24 9 -24 -19 -14 -23 9 -36 8 -64 -6 -29 -13 -37 -14 -43 -3 -11 18
-57 29 -123 29 -82 1 -124 -26 -193 -121 -31 -43 -57 -82 -57 -86 0 -4 13 0
30 9 41 21 50 19 106 -20 34 -25 56 -34 71 -30 18 4 26 -2 39 -26 15 -29 18
-31 55 -25 37 6 39 5 39 -19 0 -34 28 -102 45 -109 8 -3 17 -22 21 -43 9 -52
21 -73 43 -73 19 0 27 -13 60 -110 56 -159 62 -227 31 -333 -23 -78 13 -108
138 -115 l74 -4 -37 -38 c-21 -21 -42 -47 -49 -57 -6 -11 -26 -42 -44 -69 -66
-99 -97 -271 -61 -338 15 -28 15 -31 -7 -64 -48 -70 -42 -152 20 -287 l35 -76
-20 -39 c-43 -81 -44 -250 -3 -448 20 -98 70 -283 88 -327 16 -38 48 -59 76
-50 24 7 27 21 35 140 3 50 8 112 12 138 l6 48 41 -39 c97 -92 140 -107 267
-92 52 7 114 20 138 31 24 10 45 19 46 19 1 0 8 -20 14 -44 12 -50 17 -55 91
-85 30 -13 145 -68 255 -122 334 -165 567 -227 753 -201 139 20 258 83 310
166 31 48 144 133 191 142 26 6 29 2 70 -93 55 -125 170 -354 229 -458 109
-190 297 -471 336 -504 11 -9 16 -30 16 -63 0 -109 85 -220 187 -242 17 -4 39
-18 47 -31 15 -23 14 -25 -14 -54 -21 -21 -30 -39 -30 -63 0 -18 -11 -52 -24
-75 -65 -113 -94 -242 -150 -673 l-43 -325 -83 -135 c-46 -74 -118 -175 -162
-225 -93 -106 -180 -226 -263 -365 l-61 -99 -134 -89 c-153 -102 -201 -138
-363 -275 -178 -150 -240 -225 -442 -527 -101 -151 -238 -349 -304 -440 -134
-184 -184 -273 -231 -405 -36 -104 -70 -252 -70 -311 0 -22 -6 -63 -14 -90 -8
-27 -26 -137 -41 -244 -33 -250 -46 -314 -88 -430 -59 -159 -54 -152 -128
-194 -79 -45 -205 -157 -250 -222 -32 -48 -69 -143 -69 -180 0 -14 -9 -28 -22
-35 -13 -7 -117 -105 -233 -218 -201 -197 -210 -205 -213 -176 -1 17 9 63 23
104 34 101 35 198 2 229 -53 49 -144 15 -180 -68 -17 -39 -27 -50 -45 -50 -55
0 -122 -60 -167 -149 -51 -102 -91 -317 -102 -543 -7 -151 -2 -168 48 -168 73
0 99 30 110 128 3 35 8 65 10 67 2 2 31 -3 64 -11 33 -8 119 -18 191 -21 145
-6 174 -1 264 51 54 31 156 76 171 76 4 0 5 -71 2 -158 -5 -143 -4 -159 12
-176 20 -20 63 -16 101 9 25 16 44 70 44 123 l0 34 103 -7 c119 -8 330 8 403
30 72 21 89 43 87 115 -2 59 -2 60 42 96 123 101 130 273 20 499 -42 87 -82
141 -119 162 -17 9 -17 13 8 60 14 28 41 106 61 174 20 68 51 156 70 194 60
124 312 489 462 669 41 49 80 98 88 109 12 17 18 18 42 9 56 -21 93 -23 155
-7 34 9 72 22 83 30 11 8 29 21 40 29 18 13 25 11 77 -21 l56 -35 73 12 c93
14 195 49 267 92 84 49 218 188 306 316 56 81 88 118 114 131 101 53 356 263
457 377 75 85 141 182 175 258 30 65 57 197 45 216 -10 16 51 117 90 152 134
117 183 310 121 472 l-27 70 39 55 c21 31 47 72 57 91 10 19 31 51 47 71 16
20 32 49 36 64 6 23 18 32 58 45 71 24 133 57 181 96 23 19 44 34 46 34 3 0
11 -17 18 -37 40 -126 105 -210 197 -255 63 -31 72 -33 172 -32 151 2 207 20
279 92 31 31 64 67 72 80 l14 23 67 -61 c37 -33 70 -69 73 -80 4 -13 -4 -32
-26 -59 -36 -45 -89 -224 -97 -323 -10 -147 134 -526 243 -641 40 -41 44 -50
34 -68 -14 -27 -4 -108 26 -212 20 -70 21 -84 10 -120 -24 -78 -38 -98 -108
-144 -55 -37 -74 -56 -90 -91 -17 -40 -18 -52 -8 -94 6 -26 23 -66 37 -88 46
-70 175 -142 306 -172 42 -10 48 -15 53 -42 11 -72 25 -282 29 -431 3 -95 11
-178 19 -205 9 -31 11 -54 4 -73 -9 -27 0 -116 38 -397 8 -58 14 -141 14 -185
0 -96 -29 -212 -50 -206 -67 18 -97 7 -143 -56 -48 -64 -94 -186 -118 -308
-11 -55 -24 -123 -30 -151 -11 -54 -4 -76 45 -131 13 -15 20 -38 21 -70 1 -45
-4 -54 -75 -149 -90 -119 -100 -147 -67 -180 27 -27 115 -52 216 -61 l72 -6 1
-46 c1 -97 42 -151 104 -135 37 9 54 41 61 111 l7 61 48 6 c66 9 83 35 74 108
-6 46 -3 60 16 92 18 31 23 57 26 123 1 45 7 92 13 102 5 11 10 27 10 36 0 12
5 15 18 10 86 -33 160 14 197 125 9 27 22 50 30 50 10 0 13 -38 14 -177 1
-224 3 -236 57 -287 32 -31 45 -52 49 -81 12 -75 43 -95 148 -95 l74 0 6 -66
c6 -74 22 -100 72 -110 22 -4 38 0 55 14 22 18 26 31 30 99 l5 78 30 3 c66 5
154 34 176 58 l23 25 -22 42 c-13 23 -63 86 -112 141 l-90 98 0 89 c0 62 -6
104 -19 141 -11 29 -22 75 -26 103 -8 61 -26 97 -61 124 -31 24 -86 28 -104 6
-11 -13 -20 -8 -67 35 -30 28 -61 50 -68 50 -7 0 -20 3 -28 6 -24 9 -67 -38
-87 -96 -11 -31 -25 -56 -34 -58 -14 -3 -16 14 -16 132 0 82 -4 137 -10 141
-16 10 -60 83 -60 100 0 8 14 18 33 23 l32 9 -3 159 c-1 87 -7 211 -12 274 -5
63 -10 171 -10 240 0 142 0 141 129 459 39 96 78 201 87 234 10 39 24 67 39
79 14 10 58 64 100 120 41 56 89 110 106 120 29 18 31 22 25 62 -5 34 -2 51
13 77 11 19 23 61 27 94 7 57 10 63 81 139 94 100 178 227 258 391 258 525
171 937 -299 1410 l-149 150 -54 135 c-64 157 -64 168 -18 380 23 109 26 140
22 245 -5 132 -23 193 -78 270 -37 52 -64 65 -132 65 -140 0 -302 -145 -463
-416 -9 -16 -15 -15 -70 19 -32 20 -87 44 -121 54 -35 10 -63 21 -63 25 0 4
20 24 45 45 52 43 81 88 101 154 8 26 36 88 63 139 42 80 54 95 89 110 58 26
95 86 100 161 3 43 0 65 -12 83 -15 23 -14 29 8 88 23 61 25 63 60 64 91 3
168 168 120 259 -14 28 -14 33 11 92 26 60 28 62 56 56 38 -7 79 29 108 97 32
75 35 119 12 164 l-21 40 50 146 c46 133 94 332 87 362 -1 7 14 17 33 24 35
11 60 43 60 77 0 10 -12 38 -26 63 l-26 44 61 0 61 0 26 -52 c58 -117 154
-231 284 -340 270 -226 568 -358 808 -358 l77 0 61 49 60 49 18 -50 c19 -53
92 -173 122 -199 11 -9 32 -23 49 -32 l29 -15 -79 -50 c-137 -87 -155 -101
-155 -120 0 -53 55 -54 236 -7 271 72 501 170 563 241 27 31 39 36 103 44 168
22 257 65 298 143 21 40 29 47 55 47 54 0 133 47 213 125 43 41 91 86 108 100
l32 25 40 -40 c22 -22 46 -40 54 -40 9 0 40 13 70 29 68 37 176 53 311 47 81
-3 100 -7 111 -22 11 -15 25 -18 70 -16 56 2 56 2 56 -27 0 -21 -9 -36 -35
-55 l-35 -27 30 -59 c17 -33 37 -60 44 -60 31 0 133 45 171 76 43 34 87 108
90 151 0 6 9 21 20 33 19 21 19 22 -13 118 -35 104 -66 152 -100 155 -12 1
-22 4 -22 8 0 12 28 17 121 24 118 10 122 19 72 150 -39 103 -60 125 -122 125
-16 0 -33 5 -36 10 -6 10 13 15 46 12 10 -1 22 11 28 26 10 24 7 40 -22 117
-38 99 -63 126 -118 127 -19 0 -42 7 -51 16 -14 11 -32 13 -79 9 -34 -4 -69
-3 -79 3 -37 20 -125 14 -196 -13 -38 -14 -89 -31 -113 -37 -24 -6 -60 -20
-80 -31 -20 -10 -45 -19 -56 -19 -12 0 6 15 45 37 36 20 232 130 435 246 396
225 639 353 910 482 292 139 292 138 30 37 -99 -38 -337 -127 -530 -197 -891
-323 -1126 -439 -1591 -779 l-101 -75 -39 12 c-126 39 -174 152 -125 293 84
238 476 508 986 680 476 159 906 249 1623 340 89 11 31 14 -94 4 -71 -5 -192
-15 -269 -21 -463 -35 -796 -86 -1125 -171 -556 -142 -1006 -350 -1530 -706
-176 -119 -423 -302 -417 -309 3 -2 35 8 73 22 220 83 388 69 496 -40 43 -44
56 -81 65 -181 l6 -71 -49 -54 c-27 -30 -58 -66 -69 -80 -19 -24 -29 -26 -115
-32 -52 -3 -119 -13 -149 -22 l-54 -17 -23 29 c-13 15 -76 105 -139 198 -64
94 -135 197 -158 230 -57 84 -231 253 -299 294 -226 132 -426 131 -554 -5 -41
-43 -42 -44 -70 -29 -75 39 -198 -4 -225 -79 -7 -20 -16 -36 -20 -36 -4 0 -14
-3 -22 -6 -10 -3 -16 4 -20 23 -12 62 99 226 188 278 39 23 207 69 344 95 80
14 150 49 186 92 23 27 26 39 22 76 -6 56 -31 81 -131 133 -44 23 -135 81
-201 129 -171 124 -346 237 -457 294 l-96 49 -36 -22 c-20 -13 -36 -27 -36
-32 0 -5 -4 -9 -10 -9 -5 0 -1 19 9 43 10 23 24 66 31 96 38 161 -61 331 -281
477 -183 122 -381 197 -807 305 -275 69 -433 94 -510 78 -33 -7 -42 3 -42 46
0 34 -52 80 -118 105 -77 29 -223 38 -274 17 -74 -31 -174 -190 -242 -386 -36
-104 -156 -516 -228 -786 -41 -156 -100 -321 -121 -343 -8 -8 -66 -16 -157
-22 -80 -5 -155 -12 -166 -16 -19 -5 -27 3 -53 53 -132 247 -329 370 -544 341
-63 -9 -146 -42 -200 -80 -22 -16 -47 -23 -88 -24 -68 -2 -123 -29 -237 -119
-153 -121 -212 -222 -212 -363 0 -60 5 -88 24 -129 33 -70 94 -134 159 -166
l54 -26 6 -78 c3 -43 4 -79 2 -81 -1 -2 -29 10 -61 26 -117 58 -322 111 -492
127 -69 7 -73 9 -68 29 19 80 61 407 76 593 16 202 14 586 -5 738 -45 377
-138 740 -285 1110 -91 229 -343 770 -385 827 -10 12 -15 16 -12 8z m3558
-1555 c25 -80 49 -113 128 -178 143 -119 182 -201 189 -396 2 -68 1 -156 -3
-196 l-7 -73 -54 19 c-64 23 -134 24 -173 4 -29 -15 -51 -58 -51 -102 0 -21
-2 -21 -34 14 -112 125 -196 322 -226 531 -15 99 -9 357 8 392 13 24 16 25
112 25 l98 0 13 -40z m-3215 -1490 c67 -30 120 -84 155 -159 42 -88 40 -96
-23 -96 -63 0 -222 -24 -298 -44 -30 -9 -56 -14 -57 -12 -2 2 1 52 7 112 5 60
11 129 13 154 2 43 4 45 47 62 51 20 82 16 156 -17z m7916 -655 l5 -45 -76 -1
c-84 0 -121 -14 -184 -70 -41 -38 -54 -41 -83 -20 -18 13 -6 21 156 100 96 47
175 84 176 83 1 -1 4 -22 6 -47z m-5739 -2304 l27 -83 73 -33 c39 -18 99 -45
132 -60 33 -15 79 -35 103 -45 24 -10 47 -26 53 -36 8 -16 3 -17 -78 -12 -102
7 -212 -18 -299 -67 l-51 -29 -12 26 c-21 46 -41 146 -41 208 0 57 44 215 60
215 3 0 18 -38 33 -84z m1539 -1158 c-49 -19 -72 -5 -56 36 5 13 11 12 39 -7
28 -18 31 -23 17 -29z m-3240 -1212 c-2 -63 2 -152 9 -198 7 -46 13 -114 13
-153 1 -38 7 -85 15 -103 12 -29 11 -46 -15 -164 l-28 -132 -19 43 c-52 118
-69 429 -34 603 16 78 54 218 60 218 1 0 1 -51 -1 -114z m-2136 -3130 c-7 -24
-79 -82 -84 -68 -4 13 35 109 61 152 l22 35 3 -49 c2 -27 1 -59 -2 -70z m799
-101 c-19 -32 -35 -52 -35 -43 0 17 30 107 51 153 l14 30 3 -41 c2 -31 -5 -53
-33 -99z"/>
<path d="M2091 12174 c0 -11 3 -14 6 -6 3 7 2 16 -1 19 -3 4 -6 -2 -5 -13z"/>
</g>
</svg>
