<?xml version="1.0" standalone="no"?>
<!DOCTYPE svg PUBLIC "-//W3C//DTD SVG 20010904//EN"
 "http://www.w3.org/TR/2001/REC-SVG-20010904/DTD/svg10.dtd">
<svg version="1.0" xmlns="http://www.w3.org/2000/svg"
 width="1203.000000pt" height="1280.000000pt" viewBox="0 0 1203.000000 1280.000000"
 preserveAspectRatio="xMidYMid meet">
<metadata>
Created by potrace 1.15, written by Peter Selinger 2001-2017
</metadata>
<g transform="translate(0.000000,1280.000000) scale(0.100000,-0.100000)"
fill="#000000" stroke="none">
<path d="M6503 12777 c-24 -11 -43 -24 -43 -29 0 -4 28 -26 63 -50 34 -23 96
-71 137 -107 41 -37 88 -75 103 -86 l28 -20 -40 -54 c-39 -52 -45 -78 -15 -67
8 3 14 2 14 -2 -1 -4 -56 -39 -123 -78 -67 -39 -400 -236 -740 -437 l-618
-367 -79 0 -78 0 -26 44 c-14 25 -26 47 -26 50 0 3 24 21 53 39 62 41 122 101
113 115 -4 6 -32 5 -78 -4 -40 -8 -74 -14 -75 -14 -2 0 -3 9 -3 20 0 13 -21
32 -70 61 -39 23 -73 39 -77 36 -3 -4 1 -42 10 -85 19 -94 8 -166 -40 -278
l-31 -71 52 -52 51 -52 -50 -44 c-101 -89 -589 -435 -743 -526 -45 -27 -91
-49 -102 -49 -19 0 -258 -82 -407 -140 -71 -27 -88 -39 -123 -82 -22 -28 -40
-55 -40 -61 0 -5 23 -40 50 -77 l50 -68 137 -26 c75 -15 139 -29 141 -31 3 -2
-3 -106 -13 -231 -17 -210 -20 -227 -39 -235 -12 -5 -248 -90 -526 -188 l-504
-178 -33 -69 c-18 -38 -33 -75 -33 -82 0 -7 16 -51 36 -97 43 -97 1 -79 321
-140 l191 -37 7 -32 c5 -17 10 -126 12 -242 3 -167 1 -213 -9 -222 -8 -6 -214
-90 -458 -187 -366 -145 -790 -332 -790 -347 0 -2 38 -49 84 -103 l84 -100
198 -81 199 -81 3 -279 2 -280 -117 -81 c-100 -68 -141 -89 -268 -136 -723
-268 -801 -299 -880 -349 -139 -90 -142 -76 36 -161 85 -40 254 -111 377 -157
l223 -83 -5 -106 c-4 -58 -8 -186 -11 -284 -4 -155 -7 -183 -24 -210 -17 -26
-79 -57 -453 -224 -304 -136 -493 -214 -636 -262 -195 -67 -205 -71 -267 -126
-36 -31 -65 -64 -65 -73 0 -10 10 -50 23 -90 l22 -74 250 -92 250 -91 3 -79
c2 -46 -2 -84 -8 -90 -6 -6 -10 -113 -10 -304 0 -197 -4 -300 -11 -314 -6 -12
-55 -81 -109 -153 -125 -168 -121 -161 -111 -226 5 -30 5 -58 1 -64 -4 -5 -54
-158 -110 -340 -56 -181 -114 -357 -130 -390 -32 -66 -140 -341 -140 -357 0
-23 -289 -490 -361 -581 -43 -56 -77 -106 -76 -111 4 -12 -34 -3 752 -166 347
-72 758 -157 915 -190 157 -33 461 -96 675 -140 215 -44 498 -103 630 -131
132 -27 348 -73 480 -100 218 -46 670 -145 2340 -514 557 -123 570 -125 585
-106 8 10 103 74 210 142 107 67 353 222 545 344 193 122 388 244 435 272 47
27 202 123 345 213 143 90 470 293 727 451 257 159 736 465 1065 682 1245 820
1597 1042 2118 1333 109 62 201 116 203 122 1 5 -45 44 -103 85 -105 75 -107
77 -187 204 -136 218 -168 281 -260 513 -103 264 -289 893 -269 913 12 12 14
53 5 110 -5 27 -11 37 -23 35 -9 -1 -64 22 -122 52 l-106 54 -6 350 c-4 193
-7 405 -7 471 l0 120 203 127 202 127 38 166 c20 92 35 171 31 176 -10 18
-153 109 -170 109 -9 0 -118 -25 -242 -56 -267 -66 -246 -66 -649 -8 l-253 36
-45 -25 c-39 -22 -45 -23 -45 -9 0 27 80 646 84 650 2 2 125 76 272 166 264
159 269 163 303 220 l34 57 -26 27 -25 27 15 78 c8 44 13 80 11 82 -2 2 -86 8
-188 14 -133 7 -230 7 -345 -1 -182 -13 -360 0 -430 32 -22 10 -83 30 -135 44
-190 53 -220 66 -220 89 0 12 11 107 25 212 l25 191 -39 105 c-22 57 -36 107
-33 111 4 3 113 76 242 162 129 85 245 163 257 173 l22 18 -17 84 c-10 47 -22
86 -28 88 -6 2 -73 -23 -150 -55 l-140 -59 -438 28 c-241 15 -440 30 -443 33
-10 9 18 500 29 513 5 7 83 63 173 124 l162 111 47 106 c46 102 47 107 36 154
-7 26 -16 51 -21 54 -5 3 -85 -6 -177 -21 l-167 -26 -292 39 c-161 21 -295 41
-298 44 -3 2 -18 100 -33 217 l-28 212 224 176 224 176 -4 75 c-4 61 -9 79
-27 93 -31 25 -182 32 -471 22 l-245 -8 -324 277 -324 278 -2 53 c-1 29 -5 58
-9 65 -5 8 -37 12 -92 12 l-84 0 -31 66 c-21 44 -41 72 -61 83 -23 13 -28 21
-24 41 13 59 19 160 9 160 -6 0 -41 -25 -79 -55 -38 -30 -79 -55 -91 -55 -14
0 -39 20 -70 55 -26 30 -50 55 -53 54 -3 0 -24 -10 -47 -22z m92 -67 c67 -68
91 -67 183 8 41 34 42 34 42 11 0 -13 -7 -49 -15 -79 -21 -77 -20 -80 18 -78
30 3 34 0 64 -62 17 -36 42 -71 55 -77 13 -7 53 -13 89 -13 68 0 79 -6 79 -47
0 -11 -6 -14 -22 -9 -65 17 -267 47 -290 42 -34 -7 -35 -3 -3 38 14 18 25 38
25 44 0 5 -19 25 -42 43 -24 18 -72 58 -108 89 -36 31 -86 71 -113 89 -26 18
-45 36 -42 42 12 18 32 8 80 -41z m378 -361 l109 -20 347 -297 347 -297 180 8
c233 11 510 5 526 -11 7 -7 14 -40 16 -75 l4 -62 -260 -203 c-253 -198 -290
-223 -1312 -873 -579 -368 -1061 -669 -1071 -669 -11 0 -97 13 -192 30 -94 16
-226 39 -292 51 -66 11 -140 24 -165 29 -25 5 -97 18 -160 30 -63 12 -299 57
-525 101 -225 44 -502 98 -615 120 -321 62 -292 52 -339 119 l-41 58 34 43
c31 42 42 47 216 112 100 38 216 77 258 88 41 10 96 31 121 45 132 77 664 451
761 535 30 27 93 72 140 100 47 28 112 69 145 92 128 86 1621 967 1640 967 11
0 69 -9 128 -21z m-1933 -641 c0 -31 7 -33 78 -19 59 12 51 -4 -29 -56 -35
-24 -65 -46 -66 -50 -1 -5 15 -35 35 -68 l38 -60 57 0 c31 0 56 -4 54 -8 -1
-5 -51 -38 -110 -74 l-108 -66 -46 46 -46 46 31 75 c25 60 50 169 45 196 0 3
-4 29 -8 58 l-7 54 41 -24 c32 -18 41 -29 41 -50z m3045 -708 c14 -106 25
-194 23 -195 -5 -4 -1409 -926 -1758 -1154 -417 -274 -450 -294 -454 -290 -2
2 -6 104 -10 225 -5 199 -4 222 10 228 21 8 1996 1273 2088 1337 38 27 71 47
73 46 2 -2 14 -90 28 -197z m355 -270 l307 -41 153 26 c84 14 157 22 161 18 4
-4 10 -24 13 -43 5 -28 -3 -53 -42 -130 l-47 -95 -149 -102 c-82 -56 -168
-120 -190 -141 -23 -22 -155 -130 -294 -241 l-253 -201 -62 -2 c-34 -1 -73 -2
-87 -3 -14 -1 -88 -2 -166 -3 l-141 -2 -149 -98 c-180 -119 -242 -179 -375
-359 -82 -112 -120 -154 -204 -225 -102 -85 -105 -86 -170 -93 -36 -4 -72 -13
-79 -20 -7 -7 -36 -16 -66 -20 -60 -8 -74 -19 -259 -189 -142 -131 -171 -153
-278 -212 -54 -30 -101 -54 -104 -54 -4 0 -4 71 -1 158 4 137 0 188 -27 401
-18 134 -29 246 -26 250 18 18 2202 1459 2213 1460 8 1 152 -17 322 -39z m189
-799 l-12 -230 -291 -196 -290 -195 -38 192 c-20 106 -40 203 -43 215 -5 20
-1 22 74 29 l79 6 194 139 c106 76 224 169 262 208 39 39 72 69 74 67 2 -3 -2
-108 -9 -235z m-4199 140 c272 -50 581 -105 685 -125 230 -42 634 -113 691
-122 l41 -6 7 -67 c3 -36 6 -141 6 -233 0 -153 -2 -168 -17 -168 -10 0 -310
58 -668 129 -357 71 -795 157 -972 192 l-323 64 0 35 c0 19 7 109 15 200 8 91
15 171 15 178 0 6 6 12 13 12 7 0 235 -40 507 -89z m3494 -348 c20 -67 92
-489 91 -538 l0 -59 -130 -90 c-189 -132 -929 -614 -934 -609 -3 2 -19 128
-36 281 l-32 277 80 85 c44 47 92 96 107 110 15 14 74 89 133 166 99 133 114
148 239 242 144 109 180 124 338 142 116 13 138 12 144 -7z m1901 -67 l12 -64
-246 -163 c-135 -90 -253 -165 -261 -167 -8 -2 -104 -68 -212 -147 -176 -128
-995 -698 -1483 -1032 -99 -67 -234 -160 -300 -206 -600 -420 -773 -534 -1004
-669 -140 -81 -257 -146 -259 -144 -3 4 -161 830 -158 832 9 9 623 410 683
446 80 48 84 49 140 43 32 -3 91 -13 131 -22 70 -16 73 -16 95 4 28 26 720
497 943 642 l171 111 -14 67 c-11 54 -11 69 -1 79 7 7 139 101 292 209 l280
197 450 -30 451 -29 135 57 c74 31 137 55 139 53 2 -1 10 -32 16 -67z m-5578
-37 c214 -44 559 -116 768 -159 209 -43 479 -99 599 -125 121 -25 227 -43 237
-40 20 7 20 8 49 -225 15 -112 20 -215 20 -373 l0 -217 -65 -32 -65 -32 -93
32 c-79 27 -127 35 -336 57 -134 14 -299 25 -368 25 -143 0 -141 -1 -254 107
-79 76 -251 163 -322 163 -23 0 -70 7 -105 15 -57 14 -71 13 -149 -2 -47 -9
-93 -24 -102 -33 -36 -37 -95 -41 -235 -14 -195 37 -290 61 -404 101 -81 28
-105 41 -115 61 -11 24 -26 28 -246 71 l-235 46 -34 77 -35 77 28 64 29 65
520 185 c287 102 522 186 523 186 2 1 177 -35 390 -80z m5108 -511 l36 -97
-26 -192 c-33 -252 -33 -245 10 -259 19 -6 35 -15 35 -19 0 -3 -33 -23 -72
-43 -40 -19 -221 -131 -403 -248 -181 -117 -377 -235 -434 -263 l-104 -49 -29
30 -29 29 53 20 53 20 3 103 c1 57 -2 108 -7 113 -6 6 -34 -4 -78 -28 -37 -20
-70 -39 -71 -40 -2 -2 4 -43 13 -91 17 -84 17 -88 -1 -101 -10 -7 -27 -13 -38
-13 -21 0 -445 125 -453 133 -9 10 1494 1103 1504 1094 1 -1 18 -46 38 -99z
m-2467 -420 c18 -155 29 -285 25 -289 -5 -4 -51 10 -103 30 l-95 37 -7 145
c-3 79 -9 183 -11 232 l-4 87 43 0 c23 0 46 5 49 11 7 11 42 27 61 28 6 1 23
-107 42 -281z m-212 7 c6 -127 14 -237 18 -247 5 -12 1 -18 -16 -23 -13 -4
-75 -40 -138 -80 -141 -88 -607 -365 -615 -365 -6 0 1 237 11 388 l6 83 106
55 c143 74 188 107 312 228 100 99 195 170 250 187 56 17 54 22 66 -226z
m-3251 131 c44 -13 96 -29 115 -35 33 -10 64 -16 278 -59 71 -14 82 -19 79
-34 -3 -10 -20 -97 -38 -193 -20 -104 -38 -175 -44 -175 -7 0 -114 27 -239 60
-125 33 -234 60 -242 60 -12 0 -14 34 -14 200 0 153 3 200 13 200 6 0 48 -11
92 -24z m1025 -81 c131 -34 169 -59 330 -209 l55 -51 11 -240 c6 -132 9 -242
7 -244 -3 -4 -407 35 -501 49 -147 22 -318 53 -326 60 -9 9 51 620 63 632 3 4
31 13 61 21 71 19 187 13 300 -18z m-400 -32 c0 -21 -47 -469 -56 -532 l-6
-43 -13 26 c-8 15 -36 52 -63 84 l-50 57 34 200 c18 110 33 201 33 203 1 1 16
2 34 3 17 0 41 4 52 9 30 13 35 12 35 -7z m5413 -210 c-7 -2 -21 -2 -30 0 -10
3 -4 5 12 5 17 0 24 -2 18 -5z m-4370 -225 c14 -117 23 -215 19 -218 -15 -13
-215 -91 -219 -86 -3 3 -8 115 -11 250 l-5 245 39 6 c21 4 44 8 49 10 6 2 30
4 55 4 l46 1 27 -212z m234 192 c76 -11 217 -35 313 -54 l175 -35 44 25 c24
13 45 24 48 24 4 0 0 -108 -13 -367 -6 -109 -7 -113 -29 -113 -40 0 -704 105
-711 113 -3 3 -17 100 -32 216 l-28 211 48 0 c26 0 109 -9 185 -20z m3998 -24
c-39 -26 -341 -213 -555 -344 -14 -9 -20 -11 -15 -5 11 12 363 238 505 325
103 63 145 79 65 24z m395 -7 c251 -31 258 -32 435 -20 125 8 229 8 338 2 88
-5 160 -11 162 -13 2 -2 -3 -34 -10 -73 -13 -67 -13 -71 8 -93 l22 -23 -25
-47 c-24 -44 -41 -56 -305 -215 -154 -92 -361 -209 -460 -259 -132 -67 -244
-134 -420 -253 -132 -90 -400 -259 -595 -377 -1522 -921 -2735 -1650 -2787
-1677 -55 -27 -63 -29 -63 -14 0 10 7 86 15 169 l15 152 -34 148 c-52 227 -53
260 -12 369 l33 90 594 377 c327 208 598 378 602 378 16 0 62 -64 80 -110 l17
-47 178 -71 c110 -45 199 -74 234 -78 l57 -7 17 37 c16 32 74 71 488 328 259
161 549 333 643 383 95 49 173 95 173 101 0 9 -188 89 -532 228 -70 28 -128
53 -128 56 0 3 35 25 78 49 113 65 763 466 827 510 34 24 63 37 77 35 13 -2
138 -18 278 -35z m-6132 -88 c128 -33 235 -61 236 -62 13 -17 86 -163 86 -172
1 -7 9 -22 19 -34 15 -18 41 -26 147 -41 71 -11 285 -43 476 -73 l346 -52 126
51 c69 29 138 52 154 52 27 0 243 -35 566 -93 85 -15 132 -27 137 -37 7 -12
159 -811 159 -834 0 -4 -4 -5 -9 -1 -5 3 -12 1 -16 -5 -4 -6 -59 -10 -136 -10
-118 0 -178 8 -677 94 -301 52 -691 117 -867 146 -176 28 -401 66 -500 85
-301 57 -1197 206 -1210 201 -15 -5 -393 147 -410 166 -66 74 -125 147 -125
154 1 17 329 165 650 292 179 71 381 152 450 180 69 27 134 50 145 51 11 0
125 -26 253 -58z m4342 -105 c0 -8 -175 -134 -210 -151 -50 -25 -37 -15 91 75
119 82 119 82 119 76z m490 -106 l0 -81 -32 -14 c-18 -7 -36 -11 -39 -9 -4 2
-9 23 -13 46 -4 24 -9 53 -12 64 -5 17 3 27 38 47 24 14 46 25 51 26 4 1 7
-35 7 -79z m-387 -126 c206 -62 231 -67 260 -56 29 11 34 10 57 -13 13 -14 19
-25 12 -25 -6 0 -12 -11 -12 -25 0 -37 -132 -307 -319 -655 -183 -341 -218
-394 -275 -420 l-39 -18 -111 40 c-61 22 -126 45 -144 52 -36 13 -146 132
-167 182 -12 30 -9 39 94 250 80 164 126 274 182 437 l74 217 64 56 c37 32 71
54 80 51 9 -2 119 -35 244 -73z m-407 -16 c-8 -13 -47 -120 -87 -238 -54 -160
-98 -264 -170 -410 -53 -107 -105 -205 -115 -217 -10 -12 -79 -47 -152 -78
-122 -51 -172 -82 -619 -380 -268 -178 -489 -323 -491 -320 -4 4 35 557 43
610 6 34 17 41 144 81 51 15 105 41 135 63 81 60 993 711 1080 771 75 52 222
138 239 139 4 1 1 -9 -7 -21z m881 -54 c-43 -25 -81 -43 -85 -40 -7 8 -6 9 73
49 98 50 105 45 12 -9z m208 -229 c163 -64 300 -113 305 -110 4 3 18 1 30 -3
19 -7 -3 -22 -146 -98 -93 -50 -355 -206 -582 -347 -227 -141 -423 -262 -434
-268 -26 -14 -21 -4 44 78 32 40 87 142 159 293 61 128 152 303 201 389 97
167 106 181 118 181 5 0 142 -52 305 -115z m1350 8 c-3 -16 -21 -156 -41 -313
-19 -156 -36 -285 -37 -285 -1 -1 -72 -46 -157 -102 -85 -55 -181 -115 -214
-133 l-58 -33 -77 17 c-42 10 -123 31 -181 48 -154 44 -157 44 -187 -15 l-25
-49 25 -27 25 -26 -76 -149 -77 -149 -750 -478 c-475 -303 -759 -479 -775
-479 -14 0 -106 12 -205 26 -99 14 -200 28 -225 31 l-45 5 -23 -76 c-26 -90
-27 -106 -6 -106 20 0 17 -21 -26 -158 l-31 -97 -432 -257 c-239 -142 -436
-258 -440 -258 -4 0 -7 146 -7 325 l0 325 53 34 c71 45 210 117 842 436 l540
273 550 372 c302 204 701 473 886 598 281 189 1147 727 1171 727 4 0 5 -12 3
-27z m-6753 -308 c496 -80 836 -142 1413 -257 l760 -152 243 -4 242 -3 0 -77
c0 -236 -14 -541 -24 -533 -6 4 -81 11 -166 14 l-154 6 -131 133 -132 133 -33
93 c-18 52 -39 96 -46 99 -6 2 -67 -28 -135 -67 -67 -39 -144 -83 -172 -96
l-49 -26 3 83 4 82 -103 27 c-128 34 -125 37 -108 -118 11 -97 16 -114 37
-132 l24 -20 -25 5 c-14 3 -140 25 -280 50 -140 24 -304 54 -365 65 -60 12
-132 25 -160 30 -27 5 -99 19 -160 30 -60 12 -127 24 -147 27 -31 5 -53 21
-122 93 -46 48 -92 102 -101 119 -9 18 -20 71 -26 118 -5 47 -12 90 -15 94 -8
14 -81 -28 -222 -129 -73 -52 -134 -93 -136 -91 -3 2 2 56 9 119 7 63 10 119
6 123 -4 4 -48 7 -97 5 l-89 -3 -3 -119 c-2 -89 1 -121 10 -127 7 -5 36 -11
65 -15 29 -3 53 -10 53 -14 0 -20 -46 -19 -187 2 l-153 23 0 257 c0 163 4 258
10 258 5 0 303 -47 662 -105z m-296 -202 c-3 -10 -8 -55 -12 -99 -3 -45 -9
-86 -13 -92 -4 -7 -23 -7 -59 0 l-52 11 0 98 0 99 71 0 c62 0 70 -2 65 -17z
m3389 -2 c-66 -59 -228 -152 -242 -137 -3 3 235 144 247 145 2 1 0 -3 -5 -8z
m-3034 -151 c6 -41 20 -77 35 -97 13 -17 24 -35 24 -39 0 -3 41 -49 90 -101
86 -90 90 -95 85 -131 -7 -48 -44 -408 -55 -536 -5 -54 -11 -100 -12 -101 -2
-2 -101 90 -220 203 -207 197 -293 292 -401 444 -26 36 -58 75 -72 86 -14 11
-25 22 -25 25 0 7 128 107 136 107 4 0 23 12 42 27 19 14 107 75 196 135 l161
109 3 -33 c1 -18 7 -62 13 -98z m7959 53 c49 -32 69 -51 66 -62 -3 -9 -19 -79
-36 -156 -17 -77 -32 -141 -33 -141 -1 -1 -105 -66 -232 -144 -126 -79 -709
-443 -1295 -810 -2559 -1603 -3596 -2252 -3603 -2253 -12 -3 -72 166 -90 254
-9 41 -30 231 -48 422 -31 341 -31 349 -13 366 11 10 209 136 442 279 404 249
423 260 431 239 15 -39 159 -487 184 -572 16 -55 28 -80 38 -79 8 1 93 51 189
112 96 61 348 219 560 350 296 183 386 243 388 260 2 12 1 22 -2 22 -17 0
-364 94 -456 122 l-104 33 -36 61 c-44 78 -58 94 -89 105 -28 11 -101 -39 863
599 l549 364 32 -37 c63 -72 86 -196 101 -529 3 -78 10 -138 16 -138 5 0 51
29 101 64 90 62 867 566 1020 660 42 26 77 54 77 62 0 16 -5 17 -313 86 l-237
53 -25 37 c-14 21 -25 44 -25 53 0 8 -7 15 -16 15 -20 0 -114 33 -114 40 0 6
16 15 280 162 l215 120 251 -36 c398 -57 390 -57 644 8 118 30 223 55 233 55
9 1 49 -20 87 -46z m-6247 10 c-7 -2 -19 -2 -25 0 -7 3 -2 5 12 5 14 0 19 -2
13 -5z m277 -45 c149 -26 231 -44 208 -46 -30 -3 -425 68 -463 83 -28 10 31 2
255 -37z m1759 -52 c-3 -3 -888 -563 -965 -612 -16 -9 -24 -13 -19 -7 27 29
858 572 910 595 55 24 85 34 74 24z m-4353 -72 c159 -23 156 -21 75 -82 l-69
-53 -4 -76 -4 -76 -218 -212 c-227 -219 -239 -236 -179 -249 27 -6 284 -47
868 -142 154 -24 292 -51 308 -60 35 -19 35 -19 40 126 2 63 17 233 33 378 22
200 32 262 43 262 38 0 1070 -198 1081 -207 2 -2 -1 -8 -8 -12 -7 -4 -21 -22
-30 -39 -9 -17 -96 -129 -193 -249 l-176 -218 -108 -45 c-60 -25 -110 -50
-112 -56 -4 -13 8 -16 512 -129 362 -81 728 -148 783 -143 l35 3 96 287 c74
221 102 294 123 314 l27 27 -27 35 -27 35 126 -6 c69 -4 133 -9 142 -12 20 -8
28 -55 31 -203 2 -66 7 -125 10 -131 14 -22 36 -324 36 -488 0 -147 -2 -173
-15 -173 -8 0 -250 41 -537 90 -754 131 -835 144 -1128 195 -146 25 -341 58
-435 75 -239 42 -1415 244 -1685 289 -213 36 -236 42 -425 113 -155 59 -450
185 -473 204 -2 1 34 27 80 56 50 33 133 72 208 100 69 26 278 104 465 174
187 69 348 130 357 135 9 5 72 47 140 94 67 47 124 85 125 85 1 0 50 -7 109
-16z m4599 -24 c3 -5 1 -10 -4 -10 -6 0 -11 5 -11 10 0 6 2 10 4 10 3 0 8 -4
11 -10z m1936 -46 c85 -21 325 -90 377 -109 8 -3 -43 -65 -135 -164 l-148
-158 -110 -261 c-60 -144 -113 -261 -117 -262 -5 0 -8 73 -8 163 0 161 0 163
-34 247 -18 47 -46 111 -60 142 l-27 57 70 132 c62 116 69 135 57 148 -20 22
-22 42 -8 69 16 28 17 28 143 -4z m-656 7 c-6 -4 -284 -193 -620 -418 l-610
-410 -345 -173 c-190 -95 -382 -192 -428 -217 -174 -94 -79 -30 236 159 180
108 651 393 1047 632 396 239 722 435 725 436 2 0 0 -4 -5 -9z m-3817 -50 c41
-11 76 -21 78 -24 2 -2 1 -38 -2 -79 l-7 -76 -39 -18 c-36 -16 -43 -16 -66 -3
-22 12 -28 25 -33 64 -15 108 -18 155 -11 155 4 0 40 -9 80 -19z m524 -204
c31 -38 92 -113 135 -167 43 -55 85 -99 95 -99 9 -1 28 -15 43 -32 l26 -32
-21 -22 c-12 -13 -57 -132 -110 -290 -49 -148 -94 -273 -99 -278 -6 -6 -34 7
-74 34 -49 33 -92 78 -177 184 -62 77 -147 176 -190 220 -43 44 -81 91 -85
105 -5 14 -11 81 -14 150 l-6 125 -50 3 -49 3 144 86 c80 47 192 111 250 141
l105 55 10 -59 c8 -50 19 -70 67 -127z m-2463 52 c142 -189 228 -284 410 -454
105 -98 190 -180 188 -181 -1 -1 -54 7 -117 17 -177 29 -836 136 -922 150 -43
6 -78 14 -78 17 0 3 94 97 209 209 l209 203 7 66 c5 41 12 64 19 61 6 -2 40
-41 75 -88z m6849 21 c13 -16 29 -30 36 -30 8 0 16 -5 18 -11 3 -8 446 -109
480 -109 19 0 5 -17 -34 -41 -24 -15 -269 -168 -545 -342 -277 -173 -503 -314
-503 -313 0 1 61 129 135 284 135 282 135 283 258 437 67 85 125 154 128 154
3 1 15 -12 27 -29z m-4911 -213 c7 -8 23 -143 23 -201 0 -67 1 -71 65 -170 58
-91 81 -116 240 -256 97 -85 171 -156 166 -158 -14 -5 -349 55 -509 90 -79 18
-139 34 -133 36 6 2 69 -3 141 -12 153 -19 180 -20 180 -5 0 12 -280 369 -289
369 -3 0 -93 -62 -199 -138 l-194 -138 -69 15 c-38 8 -66 18 -62 22 5 4 43 22
87 40 l79 33 195 244 196 244 40 -7 c22 -3 41 -7 43 -8z m6091 -166 l-3 -129
-2382 -1551 c-1309 -853 -2383 -1551 -2386 -1551 -6 0 -16 311 -10 347 4 24
12 34 34 42 16 5 640 394 1386 864 747 470 1727 1086 2178 1369 451 283 899
565 995 626 96 61 179 111 183 111 4 1 6 -57 5 -128z m-1495 84 c-9 -19 -18
-33 -21 -31 -4 5 26 66 33 66 3 0 -3 -16 -12 -35z m-3419 -117 c-4 -13 -15
-41 -25 -63 l-18 -40 0 42 c-1 23 -4 49 -7 57 -4 12 -2 15 9 10 8 -3 18 -1 22
5 12 20 27 12 19 -11z m-1171 -299 c65 -83 117 -152 115 -154 -7 -7 -578 59
-576 67 4 11 321 237 333 237 6 0 63 -68 128 -150z m261 -15 c43 -53 29 -49
-35 9 -50 46 -119 134 -119 153 0 5 114 -115 154 -162z m5811 134 c5 -36 25
-259 25 -295 0 -28 -8 -34 -650 -450 l-545 -354 -9 121 c-5 70 -13 120 -19
120 -6 0 -41 -14 -78 -31 -59 -27 -68 -35 -73 -63 -10 -61 -18 -204 -12 -215
4 -6 31 -1 74 15 37 14 63 21 57 16 -5 -5 -163 -108 -350 -229 -187 -121 -630
-408 -985 -638 -777 -503 -700 -455 -677 -429 14 17 17 41 17 137 0 81 -4 117
-11 117 -7 0 -36 -21 -65 -46 l-54 -46 0 -123 0 -123 -347 -225 c-414 -268
-997 -646 -1035 -671 l-28 -18 0 185 0 185 2278 1483 c1252 815 2320 1511
2372 1546 52 35 98 63 102 63 4 0 10 -15 13 -32z m-8509 -188 c183 -33 549
-96 815 -140 266 -45 485 -83 487 -85 2 -2 -17 -30 -42 -63 -56 -71 -190 -181
-246 -203 -28 -10 -49 -28 -63 -51 -12 -20 -41 -68 -65 -107 -24 -39 -49 -71
-57 -71 -7 0 -164 34 -347 76 -183 42 -457 102 -608 134 l-275 57 3 199 c1
109 5 227 8 262 6 62 6 63 32 58 15 -4 176 -33 358 -66z m8534 -332 l-1 -163
-2386 -1560 c-1312 -858 -2390 -1561 -2394 -1563 -5 -2 -9 74 -9 170 l0 173
528 341 c1882 1219 4164 2701 4202 2729 25 19 48 34 53 34 4 1 7 -72 7 -161z
m-4912 91 c-3 -33 -4 -33 -8 8 -3 23 -2 39 3 34 5 -5 7 -24 5 -42z m-1747 -74
c547 -91 1699 -302 1712 -315 5 -4 3 -150 -4 -324 -10 -260 -15 -316 -27 -316
-8 0 -87 18 -175 40 -115 28 -253 51 -477 80 -173 22 -385 52 -470 66 -152 25
-156 26 -191 62 -20 20 -148 159 -284 307 -361 392 -384 415 -420 415 -25 0
-180 53 -194 66 -8 8 20 3 530 -81z m-471 18 c84 -31 174 -111 510 -454 l335
-342 -3 -104 c-1 -64 -7 -115 -16 -131 -7 -15 -39 -99 -71 -187 -70 -195 -70
-195 -94 -188 -11 3 -152 161 -314 352 -162 190 -391 447 -508 570 -118 123
-215 229 -217 235 -1 6 15 22 35 36 21 13 71 53 111 88 111 98 166 142 176
142 6 0 31 -8 56 -17z m286 -170 l128 -138 -139 135 c-77 74 -142 136 -144
137 -2 2 3 3 11 3 9 0 73 -62 144 -137z m3028 102 c50 -9 176 -29 279 -45 104
-16 191 -31 194 -33 2 -3 -54 -112 -126 -243 -109 -197 -146 -277 -222 -473
-50 -130 -92 -237 -94 -239 -5 -5 -78 219 -143 440 l-59 197 33 133 c24 94 32
145 28 175 -6 41 2 103 14 103 3 0 47 -7 96 -15z m3948 -112 c36 -16 66 -32
68 -38 2 -5 -687 -454 -1531 -998 -844 -543 -1967 -1267 -2496 -1608 -530
-341 -969 -622 -977 -625 -8 -3 -261 47 -563 110 -301 64 -930 197 -1396 295
-467 99 -851 182 -855 185 -3 4 7 20 24 36 l30 30 199 -40 c110 -23 353 -72
540 -110 187 -38 453 -92 590 -120 423 -87 1378 -280 1381 -280 2 0 4 -12 4
-26 0 -18 4 -24 13 -21 10 4 3637 2373 4695 3067 163 107 203 137 199 152 -7
24 -1 23 75 -9z m-3412 -57 c17 -29 38 -60 48 -69 9 -8 71 -29 137 -46 123
-31 380 -110 373 -115 -1 -2 -91 -59 -198 -127 -107 -69 -207 -133 -222 -143
-16 -10 -28 -16 -28 -13 0 3 63 49 140 102 151 105 170 122 149 130 -61 21
-384 94 -389 88 -11 -12 -190 -482 -190 -498 0 -12 -288 -200 -296 -193 -1 2
35 99 80 216 61 158 117 278 216 467 74 140 138 255 142 255 4 0 21 -24 38
-54z m-5250 -41 c195 -42 416 -89 490 -105 74 -16 171 -36 215 -46 44 -9 84
-20 88 -24 4 -4 -66 -79 -157 -167 -153 -149 -175 -166 -306 -243 -78 -46
-169 -103 -202 -127 -50 -37 -58 -47 -47 -57 8 -7 136 -36 284 -65 149 -28
522 -101 830 -162 308 -61 619 -121 690 -135 72 -14 139 -29 150 -33 33 -14
64 -11 74 7 18 34 159 408 167 442 4 19 6 70 5 113 -3 70 -1 77 17 77 58 0
1284 -208 1296 -220 7 -7 6 -26 -3 -58 -15 -53 -15 -70 -1 -307 9 -139 17
-194 45 -300 31 -117 74 -430 60 -443 -2 -2 -68 7 -147 22 -131 23 -292 52
-928 165 -1096 195 -1338 238 -1567 282 -145 27 -308 58 -364 69 -56 11 -293
54 -528 95 -383 66 -1174 205 -1373 240 -68 12 -565 185 -594 207 -6 4 -19 38
-29 75 l-18 67 57 51 c54 46 72 55 264 120 147 50 332 127 638 264 423 189
433 194 463 238 26 36 36 44 54 40 12 -3 182 -40 377 -82z m8770 -9 l0 -44
-1137 -723 c-626 -398 -1262 -801 -1413 -897 -151 -96 -774 -492 -1383 -879
-609 -388 -1111 -702 -1114 -699 -4 3 -1 16 4 28 7 14 415 283 1080 710 587
378 1716 1106 2508 1617 792 511 1443 929 1448 930 4 1 7 -19 7 -43z m-7568
-208 c197 -214 790 -889 785 -894 -1 -1 -101 17 -222 42 -121 24 -404 79 -630
123 -893 174 -979 191 -982 194 -1 2 77 55 174 118 157 102 196 133 361 289
101 96 195 181 207 187 24 13 29 22 40 83 9 43 31 80 49 80 7 0 106 -100 218
-222z m7618 -40 c23 -84 44 -156 46 -159 6 -10 -295 -205 -360 -233 -68 -30
-86 -32 -86 -10 0 8 -18 76 -41 151 -22 74 -39 136 -37 138 16 15 416 264 424
265 7 0 31 -69 54 -152z m-1525 90 c3 -18 5 -62 3 -98 l-3 -65 -63 -22 -63
-23 6 93 c4 50 11 96 16 101 8 9 78 44 91 45 4 1 10 -14 13 -31z m-1697 -93
c2 -2 -103 -78 -234 -169 -130 -91 -239 -164 -241 -162 -3 3 142 389 153 407
3 6 314 -67 322 -76z m2756 -267 c21 -73 40 -140 42 -148 3 -12 -47 -40 -197
-110 -193 -91 -295 -127 -312 -111 -4 4 -30 43 -57 86 -31 50 -46 83 -40 89
16 16 505 325 515 325 6 1 28 -59 49 -131z m566 -80 c23 -84 45 -160 47 -169
4 -12 -24 -34 -104 -81 -175 -106 -244 -141 -252 -132 -10 11 -101 283 -101
301 0 7 11 15 24 19 13 3 93 52 177 109 85 57 157 104 160 104 3 1 25 -68 49
-151z m-388 -248 c26 -79 48 -147 48 -150 0 -3 -40 -26 -90 -50 -49 -24 -90
-47 -90 -50 0 -3 27 -86 60 -185 33 -99 60 -182 60 -186 0 -3 -35 -12 -77 -18
-248 -39 -562 -93 -585 -101 -26 -8 -30 -5 -103 102 -49 71 -74 116 -70 127
38 103 193 440 201 437 27 -10 138 29 287 100 177 85 274 124 296 121 9 -1 33
-58 63 -147z m-727 30 c25 -39 45 -74 45 -79 0 -5 -45 -112 -100 -237 -55
-125 -100 -233 -100 -239 0 -5 34 -61 75 -122 41 -62 75 -121 74 -130 0 -10
-35 -92 -77 -182 l-77 -164 -44 -13 c-25 -7 -174 -39 -332 -70 -224 -44 -291
-54 -302 -45 -8 6 -61 73 -118 147 l-103 136 86 82 c52 49 109 115 142 166
l56 84 -55 104 c-31 57 -53 107 -50 112 13 21 806 520 828 520 4 0 27 -32 52
-70z m1245 -157 c34 -87 62 -162 63 -167 2 -9 -302 -200 -438 -275 -126 -70
-113 -79 -183 130 l-61 180 77 35 c129 59 252 124 357 190 55 34 105 62 112
63 6 1 39 -70 73 -156z m-5433 -40 c-3 -10 -5 -2 -5 17 0 19 2 27 5 18 2 -10
2 -26 0 -35z m-4651 -22 c267 -48 572 -102 1239 -221 913 -162 958 -170 1525
-280 168 -33 670 -129 1115 -215 446 -86 820 -159 833 -162 22 -5 22 -7 22
-178 0 -96 -3 -176 -7 -178 -5 -3 -294 60 -643 139 -349 79 -774 175 -945 214
-324 73 -1346 304 -1955 441 -195 44 -494 112 -665 150 -170 39 -416 94 -545
123 l-235 53 -3 76 c-3 76 -2 77 21 77 14 0 123 -18 243 -39z m4678 -226 c4
-48 3 -63 -4 -48 -5 12 -11 75 -14 140 -4 98 -3 106 4 48 4 -38 11 -101 14
-140z m-4644 16 c455 -103 1102 -249 1420 -321 168 -38 465 -105 660 -149 655
-148 1023 -231 1380 -311 195 -44 551 -125 790 -179 l435 -98 3 -188 c1 -104
-1 -192 -5 -195 -5 -4 -186 30 -403 76 -217 46 -622 131 -900 189 -278 58
-824 173 -1215 255 -390 82 -948 199 -1240 260 -793 166 -1197 251 -1223 257
l-24 6 7 226 c4 124 10 230 12 234 3 4 12 6 21 3 10 -3 136 -32 282 -65z
m10210 -86 c4 -5 26 -42 48 -82 l40 -72 -121 -72 c-67 -40 -191 -112 -274
-160 -133 -76 -154 -86 -162 -71 -13 26 -88 253 -95 287 -6 29 -3 32 61 70 37
22 147 88 243 147 l174 106 39 -71 c21 -40 42 -76 47 -82z m-2264 -53 l51 -97
-53 -79 c-31 -47 -91 -115 -147 -166 l-93 -86 -185 -61 c-101 -34 -200 -64
-220 -68 l-36 -7 -62 98 c-48 74 -60 99 -49 105 7 4 173 109 368 233 195 124
360 226 365 226 6 0 33 -44 61 -98z m-1731 -281 l-35 -36 0 97 0 96 33 28 32
27 3 -88 3 -89 -36 -35z m3419 99 c12 -41 37 -115 56 -165 l33 -89 -68 -62
c-57 -52 -81 -66 -139 -83 -39 -12 -215 -68 -390 -126 -176 -57 -321 -103
-322 -102 -1 1 -32 49 -67 106 l-65 104 35 76 c19 42 55 122 80 178 32 69 53
104 69 112 13 5 173 35 356 65 183 30 344 57 358 59 40 7 41 5 64 -73z m728
-6 c25 -42 54 -69 125 -120 51 -36 93 -69 93 -72 0 -4 -62 -41 -137 -82 -75
-41 -263 -150 -417 -241 l-281 -166 -16 56 c-8 31 -37 98 -63 149 l-47 94 58
53 c35 32 136 99 258 169 110 63 240 140 289 170 49 30 93 53 98 50 4 -3 22
-29 40 -60z m-10076 -230 c330 -69 748 -156 929 -194 182 -38 600 -126 930
-195 330 -69 749 -157 930 -195 1295 -271 1582 -331 1595 -335 13 -4 14 -28
12 -152 -2 -81 -5 -149 -7 -151 -2 -2 -50 6 -107 18 -56 12 -256 52 -443 90
-187 38 -563 115 -835 170 -566 116 -1281 260 -1287 260 -3 0 9 17 26 37 28
34 41 73 25 73 -8 0 -515 130 -742 191 -199 53 -223 57 -242 34 -7 -8 -36 -28
-65 -45 l-52 -30 -244 45 c-319 60 -598 115 -839 168 l-195 43 2 134 c1 74 3
141 3 148 0 6 2 12 4 12 2 0 273 -56 602 -126z m4458 40 c14 -44 15 -58 5 -70
-6 -8 -14 -12 -17 -10 -7 8 -19 136 -12 136 4 0 14 -25 24 -56z m2438 -112
l58 -93 -142 -225 -142 -226 -215 7 c-141 5 -220 11 -227 19 -6 6 -32 47 -58
90 -39 65 -45 81 -34 91 28 27 682 435 692 432 5 -2 36 -45 68 -95z m-7359
-171 c381 -70 1084 -217 1097 -228 9 -8 -59 -63 -72 -58 -7 2 -112 22 -233 44
-534 98 -1151 212 -1158 214 -4 1 34 60 85 130 l93 127 3 -97 3 -98 182 -34z
m8017 60 l110 -144 -57 -106 c-31 -58 -88 -157 -127 -220 l-71 -114 -290 -68
c-159 -38 -297 -69 -306 -69 -11 0 -34 40 -72 129 l-57 129 143 226 142 226
145 46 c80 25 183 60 230 79 47 19 88 33 92 32 4 -1 57 -67 118 -146z m-3193
113 c-3 -3 -12 -4 -19 -1 -8 3 -5 6 6 6 11 1 17 -2 13 -5z m50 -10 c-3 -3 -12
-4 -19 -1 -8 3 -5 6 6 6 11 1 17 -2 13 -5z m4954 -201 c32 -69 51 -123 52
-150 l2 -41 -479 -312 c-264 -172 -485 -314 -492 -317 -7 -2 -51 46 -102 115
l-90 119 136 221 137 222 355 116 c195 63 366 119 380 124 14 5 31 9 38 9 7 1
35 -47 63 -106z m-947 -15 c31 -51 62 -100 68 -109 9 -14 -12 -55 -122 -232
l-133 -216 -101 -36 c-210 -77 -498 -175 -511 -175 -7 0 -39 48 -71 108 -31
59 -68 125 -80 148 l-24 41 52 84 c28 46 84 142 123 213 l72 130 329 67 c181
36 332 67 336 68 3 0 31 -41 62 -91z m-8988 -53 c131 -24 412 -76 624 -115
212 -39 408 -75 437 -81 l52 -10 -40 -36 -40 -36 -642 112 c-353 62 -642 113
-643 114 -1 1 -5 23 -8 50 -6 37 -4 47 7 47 8 0 122 -20 253 -45z m1844 -140
c228 -58 422 -109 432 -113 13 -6 -2 -23 -73 -86 -49 -43 -89 -86 -89 -95 0
-9 -18 -34 -39 -55 -38 -37 -41 -38 -88 -31 -49 7 -364 83 -533 128 -52 14
-158 38 -235 52 -77 15 -144 30 -148 34 -9 9 84 91 102 91 6 0 60 43 119 95
61 53 113 93 122 90 8 -2 202 -51 430 -110z m-1651 -21 c240 -42 438 -78 440
-80 4 -4 -32 -241 -46 -300 -4 -18 -18 -24 -91 -39 -71 -14 -114 -16 -236 -10
l-150 7 -235 90 c-130 50 -239 93 -243 97 -4 3 14 75 39 159 40 130 50 152 67
152 11 0 216 -34 455 -76z m6529 -13 c49 -82 52 -92 40 -114 -7 -13 -67 -107
-132 -209 l-120 -184 -220 -80 c-121 -43 -225 -80 -232 -82 -11 -3 -112 239
-117 280 -1 13 89 76 358 247 198 127 362 230 365 231 3 0 29 -40 58 -89z
m-5868 -102 c86 -15 130 -27 142 -39 9 -10 52 -25 95 -35 140 -30 155 -36 149
-59 -2 -12 -16 -82 -31 -156 -14 -74 -27 -135 -28 -135 -1 -1 -82 -12 -180
-25 l-177 -23 -93 84 c-50 45 -98 88 -105 94 -10 9 -7 43 15 169 l27 158 30
-6 c17 -4 87 -16 156 -27z m6278 -15 l91 -7 61 -138 60 -138 -47 -138 -48
-138 -55 -17 c-30 -10 -148 -40 -262 -66 l-207 -48 -96 141 -96 142 133 206
133 207 121 0 c66 0 162 -3 212 -6z m-5797 -115 l51 -11 -6 -107 c-3 -58 -9
-193 -12 -299 l-7 -193 -81 -72 c-78 -70 -150 -127 -159 -127 -3 0 10 60 29
133 18 72 41 191 49 262 13 109 58 370 71 413 4 15 1 15 65 1z m-1481 -109
c129 -50 236 -93 239 -96 5 -4 -66 -223 -79 -244 -7 -12 -515 53 -515 65 0 12
116 365 119 365 1 0 108 -41 236 -90z m1610 -194 c0 -346 -4 -370 -53 -333
-16 11 -16 31 -2 312 8 165 15 301 15 302 0 0 9 -1 20 -4 19 -5 20 -14 20
-277z m3080 -241 c223 -47 413 -88 422 -91 15 -4 15 -10 4 -47 -8 -26 -18 -41
-27 -40 -38 6 -2346 469 -2504 503 -228 48 -324 70 -346 79 -24 9 -24 9 24 53
l48 44 987 -208 c543 -114 1169 -246 1392 -293z m3534 358 c70 -130 77 -149
66 -167 -19 -30 -252 -320 -264 -328 -6 -4 -25 -8 -42 -8 -25 0 -176 -29 -390
-75 -18 -4 -29 14 -88 148 l-67 153 39 139 39 140 299 71 c164 40 306 72 314
73 9 0 44 -53 94 -146z m-6554 -142 c0 -237 -2 -280 -15 -291 -9 -7 -17 -11
-19 -9 -2 2 -1 133 2 292 4 233 7 287 18 287 12 0 14 -51 14 -279z m135 250
c61 -15 70 -21 68 -39 -2 -13 6 -26 19 -33 18 -10 24 -8 38 11 15 20 21 21 51
11 19 -6 56 -13 82 -16 38 -5 50 -11 59 -31 13 -28 25 -30 49 -8 15 14 23 14
74 0 31 -8 59 -16 60 -18 4 -4 -53 -510 -58 -514 -1 -2 -29 6 -62 18 -42 14
-82 20 -134 19 -52 -1 -79 3 -90 13 -9 8 -65 24 -126 36 -60 11 -113 24 -116
28 -4 4 -10 127 -14 275 -8 307 -19 279 100 248z m7238 -177 l86 -117 -332
-219 c-183 -121 -392 -259 -466 -308 l-134 -89 -24 52 c-43 92 -103 236 -103
246 0 6 59 85 130 175 126 159 132 165 188 185 225 79 549 190 558 190 6 1 49
-51 97 -115z m-2933 -54 c29 -74 56 -142 60 -150 10 -18 -11 -62 -111 -221
-44 -69 -79 -130 -79 -137 0 -13 -26 -18 -190 -32 -69 -6 -158 -20 -199 -31
-40 -11 -77 -17 -81 -12 -4 4 -18 84 -30 176 -18 131 -20 171 -11 180 26 26
576 373 583 368 4 -3 30 -67 58 -141z m-5250 30 l109 -95 -5 -60 c-3 -33 -9
-63 -13 -66 -3 -3 -103 -16 -221 -29 l-215 -22 -158 40 c-88 22 -161 42 -163
45 -2 2 15 60 39 128 l44 124 149 -3 c117 -2 166 2 229 17 44 10 84 18 88 17
5 -1 58 -44 117 -96z m1790 14 c146 -31 267 -58 269 -60 2 -2 -87 -283 -93
-291 -4 -6 -508 -24 -513 -19 -10 10 50 426 61 426 6 0 130 -25 276 -56z
m4094 -180 c94 -134 95 -137 82 -168 -7 -17 -52 -123 -100 -236 -48 -113 -92
-210 -99 -216 -7 -6 -91 -28 -187 -47 -307 -63 -321 -66 -325 -53 -2 6 -23 81
-46 166 -23 85 -45 163 -50 172 -7 13 5 40 50 110 33 51 79 129 104 172 l43
80 210 77 c115 43 212 78 216 78 4 1 50 -60 102 -135z m-5424 104 c0 -35 -45
-288 -52 -288 -4 0 -71 28 -148 62 -88 38 -139 66 -136 73 2 6 7 37 11 68 4
32 8 57 9 58 0 0 55 9 121 19 150 22 195 24 195 8z m1978 -57 c161 -32 294
-60 296 -62 6 -6 -43 -242 -52 -250 -4 -4 -82 -28 -174 -53 l-167 -47 -173 87
c-95 47 -174 87 -175 88 -2 1 20 71 48 155 50 150 51 152 78 146 14 -3 158
-32 319 -64z m-3408 -56 c180 -23 316 -47 423 -74 88 -22 161 -42 164 -45 5
-5 -15 -317 -21 -323 -7 -7 -199 18 -286 37 -47 10 -212 45 -368 77 -156 32
-284 60 -285 63 -1 4 105 300 108 300 0 0 119 -16 265 -35z m4389 -142 c4 -3
-21 -240 -36 -337 l-6 -38 -51 6 c-28 3 -98 1 -156 -5 l-106 -12 -172 132
c-95 73 -172 136 -172 140 0 8 34 183 45 227 4 20 12 19 327 -44 178 -36 325
-66 327 -69z m3152 80 c11 -27 43 -99 70 -162 l50 -113 -77 -139 c-41 -76 -83
-148 -92 -158 -10 -11 -62 -33 -117 -51 -55 -17 -182 -65 -283 -107 -100 -42
-184 -74 -186 -72 -7 9 -136 231 -136 235 0 10 192 460 200 468 5 5 100 30
212 57 158 38 299 75 335 88 1 1 12 -20 24 -46z m-6306 -85 c77 -33 141 -61
142 -62 1 -1 -2 -20 -8 -42 -31 -120 -40 -144 -54 -144 -8 0 -15 6 -15 14 0
20 -19 31 -32 18 -8 -8 -17 -8 -30 -1 -10 5 -22 7 -27 4 -5 -3 -102 -131 -217
-285 -114 -154 -210 -279 -214 -278 -4 2 -43 30 -87 63 l-81 60 -6 59 c-10 98
-7 245 10 433 8 97 16 178 17 179 9 6 427 50 442 47 11 -3 83 -32 160 -65z
m4329 -134 c20 -131 22 -171 13 -180 -14 -12 -314 -184 -322 -184 -7 0 -4 208
4 290 l6 65 135 91 c74 51 136 91 137 90 2 -1 14 -79 27 -172z m-744 56 c195
-39 366 -74 378 -78 24 -8 24 -8 22 -177 0 -93 -2 -171 -4 -173 -2 -2 -98 4
-212 13 -189 14 -229 20 -416 67 -161 40 -208 55 -208 67 0 26 40 335 45 349
3 7 13 11 22 8 10 -3 178 -37 373 -76z m-2876 20 c62 -13 103 -26 111 -37 10
-13 25 -15 86 -11 61 5 85 2 138 -17 35 -13 67 -27 72 -32 6 -6 -73 -277 -86
-291 -1 -1 -85 16 -186 37 -534 115 -703 152 -706 155 -2 1 18 18 45 37 26 18
81 64 123 101 42 37 80 64 83 61 14 -14 79 -31 95 -25 9 3 31 16 50 29 20 13
42 21 55 18 11 -3 66 -14 120 -25z m1152 -76 c98 -47 181 -88 183 -90 5 -5
-30 -238 -37 -245 -4 -4 -102 -17 -217 -29 l-211 -21 -79 30 c-53 21 -106 33
-160 37 -65 5 -199 31 -251 49 -8 2 1 43 27 127 21 68 43 142 49 166 10 41 12
42 53 43 23 1 112 5 197 9 293 13 245 21 446 -76z m5117 -115 l56 -130 -322
-213 c-259 -171 -323 -210 -329 -197 -28 63 -98 253 -98 267 0 15 150 297 170
317 4 4 72 21 151 36 79 16 167 33 194 39 28 5 66 10 86 11 l36 1 56 -131z
m-4378 -15 l164 -125 3 -102 c2 -56 0 -106 -4 -112 -3 -5 -11 -46 -17 -90 -12
-89 -40 -175 -57 -182 -7 -2 -98 23 -204 57 -106 34 -195 58 -200 53 -4 -4
-24 -56 -45 -115 -21 -59 -43 -112 -49 -118 -7 -5 -91 -16 -187 -25 -96 -8
-184 -17 -197 -20 -16 -4 -64 20 -171 85 l-149 91 51 154 c49 146 53 155 82
164 16 5 109 17 205 26 96 9 184 20 195 25 18 6 23 25 38 130 9 68 18 124 19
125 4 3 340 103 351 104 4 1 82 -56 172 -125z m-3927 56 c128 -26 235 -50 238
-52 4 -4 -118 -261 -130 -275 -2 -2 -129 25 -284 60 l-281 62 63 106 c98 167
91 159 129 152 17 -3 137 -27 265 -53z m1322 -56 c0 -7 -564 -791 -585 -813
-8 -7 -21 -11 -29 -8 -17 7 -22 -1 421 595 150 202 193 252 193 226z m4919
-168 l54 -174 -134 -130 c-74 -71 -148 -141 -165 -155 -34 -29 -188 -100 -191
-89 -2 4 -16 68 -33 142 -31 135 -31 135 -10 149 19 13 20 23 20 196 l0 183
50 12 c42 10 244 34 330 39 24 1 27 -7 79 -173z m-5815 134 c67 -11 146 -22
177 -25 l56 -6 6 -152 c4 -83 5 -153 3 -154 -2 -2 -55 -9 -118 -15 l-114 -12
-138 55 c-76 30 -140 59 -142 65 -3 6 22 68 55 137 43 92 65 127 77 127 10 0
72 -9 138 -20z m966 15 c0 -3 -4 -13 -9 -23 -5 -9 -14 -29 -22 -44 -7 -16 -17
-28 -24 -28 -6 0 -21 -20 -33 -46 -31 -62 -164 -253 -178 -254 -18 0 -94 -107
-88 -123 3 -8 -7 -25 -21 -38 -14 -13 -40 -50 -57 -82 -17 -31 -45 -73 -63
-91 -17 -19 -38 -48 -45 -65 -12 -31 -24 -35 -67 -23 -21 6 -1 37 238 367 143
198 276 381 295 408 21 29 42 47 54 47 11 0 20 -2 20 -5z m245 -54 c463 -109
678 -168 672 -185 -2 -6 -15 -11 -28 -10 -20 1 -805 195 -848 210 -10 3 -11 8
-2 18 8 10 21 11 44 6 18 -5 91 -22 162 -39z m4117 -148 c2 -87 2 -162 0 -168
-1 -5 -15 -17 -30 -26 -15 -9 -105 -64 -201 -122 -95 -59 -175 -107 -177 -107
-3 0 -3 84 -2 187 l3 187 180 103 c99 57 190 103 202 103 22 0 22 -3 25 -157z
m-3899 27 c229 -58 417 -108 417 -111 0 -21 -65 -10 -392 67 -200 46 -393 92
-430 100 -70 16 -77 21 -56 42 16 16 -32 26 461 -98z m2687 33 c52 -14 122
-32 155 -39 33 -8 80 -19 104 -26 l44 -11 -7 -96 c-3 -53 -6 -127 -6 -165 l0
-69 -87 7 c-125 10 -143 16 -395 133 l-228 106 0 88 0 87 78 7 c42 4 82 8 87
10 23 10 167 -9 255 -32z m-3090 -7 c36 -8 103 -24 150 -35 47 -11 193 -45
325 -76 353 -82 328 -73 303 -108 -12 -16 -47 -8 -438 93 -234 61 -431 113
-439 116 -17 6 4 35 22 29 7 -2 41 -10 77 -19z m1060 -25 c47 -11 119 -22 160
-24 41 -3 93 -13 115 -22 22 -10 54 -23 72 -30 l32 -14 -53 -157 -52 -158
-160 -53 c-117 -39 -167 -52 -189 -47 -41 9 -135 56 -135 68 0 5 41 84 90 176
86 160 90 168 79 201 -17 48 -28 59 -60 59 -21 0 -27 4 -23 15 4 9 14 13 23
11 9 -3 54 -14 101 -25z m-2655 -56 c232 -51 315 -74 414 -114 68 -28 129 -55
136 -61 20 -17 -90 -343 -113 -336 -16 5 -657 139 -899 188 -62 12 -113 27
-113 31 0 5 31 48 69 97 37 49 92 129 122 179 44 75 57 90 74 86 11 -3 151
-34 310 -70z m1907 -67 l436 -112 -14 -29 c-9 -16 -21 -27 -27 -24 -7 2 -205
53 -442 112 -236 60 -432 110 -433 111 -5 3 31 53 38 54 3 1 202 -50 442 -112z
m602 60 c-10 -19 -97 -162 -101 -167 -2 -2 -6 -2 -9 1 -9 9 99 178 113 178 2
0 1 -6 -3 -12z m79 -9 c4 -14 -61 -142 -209 -418 l-215 -398 -50 10 c-35 7
-48 14 -45 23 8 22 458 767 474 787 20 23 38 22 45 -4z m2656 6 c107 -8 196
-17 198 -19 6 -6 4 -359 -2 -364 -4 -4 -301 42 -387 60 l-48 10 0 96 c0 154
10 232 29 232 9 0 103 -7 210 -15z m1811 -105 l71 -120 -55 -69 c-31 -38 -105
-113 -165 -166 l-109 -97 -313 -124 c-171 -69 -314 -122 -318 -119 -3 3 -15
86 -27 183 l-23 177 179 176 c170 167 182 177 232 187 247 52 435 91 445 91 7
1 44 -53 83 -119z m698 17 c13 -34 35 -95 50 -136 l27 -73 -24 -17 c-116 -80
-825 -511 -831 -504 -24 24 -150 229 -148 239 2 6 51 55 110 107 59 53 127
123 151 154 25 32 53 65 63 74 26 23 296 144 375 168 124 39 194 58 199 54 2
-2 15 -32 28 -66z m-5888 -53 c234 -58 427 -108 429 -110 3 -3 -3 -12 -12 -21
-15 -16 -32 -13 -239 35 -478 110 -663 154 -667 158 -2 2 4 15 13 29 11 17 23
24 34 21 9 -3 208 -53 442 -112z m2851 -161 l25 -11 -25 -148 c-14 -82 -29
-149 -34 -148 -4 1 -48 7 -98 14 l-90 12 -145 100 c-79 54 -144 101 -144 103
0 16 53 224 60 237 6 10 10 24 10 32 0 10 67 -17 208 -83 114 -53 219 -102
233 -108z m-2941 97 c217 -50 413 -96 434 -101 l39 -11 -24 -23 -24 -24 -440
100 c-242 55 -441 102 -443 104 -10 9 32 55 47 51 9 -3 194 -46 411 -96z
m-866 -6 c47 -36 86 -69 86 -73 0 -3 -43 -65 -96 -136 -53 -72 -99 -135 -102
-142 -5 -8 -46 -3 -157 20 -82 17 -152 32 -154 33 -1 2 22 79 53 172 l57 170
102 9 c56 6 107 11 113 12 6 0 50 -29 98 -65z m681 -44 c149 -34 340 -77 425
-96 194 -43 195 -43 177 -68 -13 -18 -17 -18 -108 -1 -358 65 -833 155 -836
159 -10 10 43 75 57 71 8 -2 137 -31 285 -65z m783 32 c-13 -21 -95 -159 -183
-305 -143 -239 -175 -286 -175 -259 0 11 337 562 357 584 26 28 26 21 1 -20z
m3519 -120 l30 -132 -151 -94 c-234 -145 -257 -159 -260 -155 -9 10 -26 168
-26 232 l1 72 182 111 c100 61 185 108 188 105 4 -3 20 -66 36 -139z m-1742
-47 c45 -19 285 -185 293 -204 4 -9 6 -68 4 -133 l-4 -116 -66 -15 c-37 -9
-113 -18 -168 -21 -113 -7 -111 -7 -275 71 l-96 45 -44 91 c-24 49 -57 109
-73 131 l-30 41 34 95 c18 52 36 105 41 117 8 21 9 21 181 -34 95 -30 187 -61
203 -68z m-2463 15 c238 -45 441 -84 450 -88 16 -6 16 -9 -5 -34 l-22 -27
-445 90 c-245 49 -453 92 -463 95 -18 6 -18 7 -1 25 9 10 25 19 35 19 10 0
213 -36 451 -80z m3173 39 c39 -5 95 -11 125 -13 30 -1 148 -18 262 -37 l208
-34 0 -115 c1 -63 5 -134 9 -157 5 -23 6 -44 4 -46 -2 -2 -56 6 -121 19 -64
13 -207 37 -317 54 -110 17 -225 36 -256 42 l-56 10 23 132 c13 72 26 137 29
144 5 14 2 14 90 1z m-3225 -121 c250 -50 458 -94 462 -97 4 -4 0 -18 -10 -32
l-17 -25 -470 92 c-259 51 -471 93 -473 94 -6 0 39 60 46 60 4 0 212 -41 462
-92z m1447 3 c81 -49 156 -96 166 -103 17 -13 17 -27 6 -263 -6 -138 -13 -251
-14 -253 -2 -2 -601 119 -662 134 -22 6 -23 10 -23 112 0 96 4 118 40 233 l41
128 147 49 c81 28 148 51 149 51 1 1 68 -39 150 -88z m-589 20 c31 -15 69 -31
83 -34 l27 -7 -39 -121 c-36 -111 -39 -131 -39 -231 0 -85 -3 -109 -13 -105
-7 2 -86 20 -175 38 -89 18 -161 36 -160 39 41 82 245 450 251 450 4 0 33 -13
65 -29z m-929 -107 c240 -47 444 -87 454 -90 16 -5 16 -7 0 -35 -10 -16 -24
-29 -33 -29 -23 0 -900 187 -906 193 -9 8 20 47 35 47 7 0 210 -38 450 -86z
m4549 -91 c20 -163 20 -179 6 -188 -9 -5 -30 -20 -48 -32 -17 -12 -69 -43
-116 -69 -47 -26 -125 -78 -174 -116 -54 -43 -110 -77 -144 -89 -30 -10 -57
-17 -59 -15 -6 5 -63 335 -63 361 0 15 47 49 198 142 109 67 223 130 253 141
31 11 65 25 75 31 46 26 49 21 72 -166z m-2420 80 c16 -21 51 -81 77 -134 l48
-95 76 -41 c42 -22 109 -53 148 -68 40 -14 74 -30 76 -33 5 -9 -47 -330 -55
-337 -3 -3 -181 34 -397 81 l-391 87 0 61 c0 84 20 479 24 484 4 4 268 29 328
31 31 1 41 -5 66 -36z m-2215 -68 c221 -48 427 -91 457 -97 30 -6 56 -12 58
-14 11 -8 -22 -44 -39 -44 -12 0 -154 27 -318 59 -163 33 -368 74 -456 91 -88
17 -161 33 -163 35 -7 7 31 55 44 55 8 0 195 -38 417 -85z m5391 -101 c43 -70
76 -127 74 -129 -2 -1 -57 -37 -123 -78 -66 -41 -230 -145 -365 -230 -134 -86
-246 -155 -247 -153 -2 1 -33 97 -69 211 l-67 209 23 15 c22 16 666 278 686
280 6 1 46 -56 88 -125z m-2099 65 c137 -22 250 -41 251 -42 1 -1 4 -84 7
-184 l6 -182 -80 -3 -81 -3 -199 105 -199 105 0 121 c0 66 3 123 6 126 3 3 13
4 22 2 9 -2 129 -22 267 -45z m559 -89 c82 -16 150 -31 151 -32 1 -2 12 -70
24 -153 12 -82 26 -163 32 -179 7 -23 6 -33 -6 -45 -13 -13 -38 -11 -222 23
-115 21 -218 40 -230 43 -23 5 -23 6 -23 195 l0 191 63 -7 c34 -4 129 -20 211
-36z m-3177 -106 c-3 -3 -12 -4 -19 -1 -8 3 -5 6 6 6 11 1 17 -2 13 -5z m2478
-123 c124 -65 194 -107 203 -123 14 -25 13 -300 0 -314 -8 -7 -717 134 -730
145 -3 3 6 83 21 176 l27 170 90 6 c49 4 109 13 134 22 25 8 50 15 55 16 6 1
96 -44 200 -98z m1450 -36 c15 -49 42 -137 61 -194 19 -57 34 -111 33 -120 0
-17 -402 -276 -428 -276 -16 0 -164 415 -153 426 4 4 32 15 62 24 35 12 81 39
128 77 81 67 253 171 263 160 4 -4 19 -47 34 -97z m-795 -145 c118 -22 227
-38 242 -35 23 6 27 3 33 -26 4 -17 38 -114 77 -216 38 -102 67 -187 65 -190
-3 -2 -187 36 -409 84 l-403 89 -3 167 -2 167 92 0 c66 0 156 -12 308 -40z"/>
<path d="M4688 10824 c-258 -187 -286 -209 -275 -220 4 -4 118 -22 254 -40
892 -118 833 -111 833 -96 0 8 -495 474 -546 514 -22 18 -26 16 -266 -158z
m494 -91 c134 -124 245 -230 246 -235 2 -5 -7 -6 -20 -3 -12 2 -129 18 -258
35 -530 68 -670 87 -676 92 -5 6 445 338 458 338 4 0 116 -102 250 -227z"/>
<path d="M7852 10972 l-74 -67 -5 -107 c-7 -127 -3 -130 71 -62 47 44 49 46
72 157 25 119 29 147 17 147 -5 0 -41 -31 -81 -68z m30 -100 c-15 -63 -25 -86
-48 -105 l-29 -25 -3 71 -3 72 47 45 c26 24 49 40 51 34 2 -6 -5 -47 -15 -92z"/>
<path d="M7655 10849 c-33 -21 -68 -39 -77 -39 -16 0 -18 -12 -18 -120 0 -142
-2 -141 105 -76 l70 42 0 114 c0 67 -4 114 -10 116 -5 1 -37 -15 -70 -37z m55
-94 l0 -85 -52 -27 c-29 -15 -56 -29 -60 -31 -5 -2 -8 34 -8 80 l0 83 53 32
c28 18 55 32 60 33 4 0 7 -38 7 -85z"/>
<path d="M7290 10618 c-41 -22 -75 -46 -74 -54 0 -8 1 -53 2 -101 1 -49 6 -94
10 -101 7 -10 24 -4 75 25 l65 38 7 95 c4 52 8 104 8 114 3 30 -13 27 -93 -16z
m58 -75 c-3 -43 -7 -83 -7 -90 -1 -11 -64 -53 -82 -53 -5 0 -9 36 -9 79 l0 79
48 30 c26 17 49 31 52 31 3 1 2 -34 -2 -76z"/>
<path d="M7125 10518 l-60 -51 -5 -104 c-3 -58 -1 -107 3 -110 4 -3 37 14 72
37 l65 42 0 114 c0 62 -3 115 -7 117 -5 3 -35 -18 -68 -45z m45 -90 l0 -83
-35 -22 c-19 -13 -38 -23 -43 -23 -4 0 -6 33 -4 73 3 67 6 74 38 105 18 17 36
32 39 32 3 0 5 -37 5 -82z"/>
<path d="M6774 10292 l-61 -36 -7 -74 c-9 -107 -7 -170 4 -177 14 -9 128 52
134 72 2 10 8 71 12 136 7 136 10 133 -82 79z m50 -110 l-7 -99 -43 -22 -44
-21 1 58 c1 113 10 140 54 166 22 14 41 23 43 21 2 -1 0 -48 -4 -103z"/>
<path d="M6578 10164 l-68 -34 0 -120 c0 -102 2 -120 15 -120 9 0 49 23 90 50
l75 50 -6 43 c-3 23 -8 69 -12 101 -4 33 -11 61 -17 62 -5 2 -40 -13 -77 -32z
m67 -56 c3 -29 8 -65 11 -79 4 -22 -3 -31 -50 -62 -31 -20 -58 -37 -61 -37 -3
0 -5 40 -5 89 l0 89 43 26 c23 14 45 25 49 26 3 0 9 -24 13 -52z"/>
<path d="M6178 9899 l-78 -52 0 -46 c0 -79 12 -181 22 -181 5 0 40 25 79 56
l69 56 0 109 c0 60 -3 109 -7 109 -5 0 -43 -23 -85 -51z m62 -78 l0 -78 -47
-37 c-25 -20 -50 -36 -55 -36 -4 0 -8 37 -8 83 l0 82 48 32 c26 17 50 32 55
32 4 1 7 -34 7 -78z"/>
<path d="M6018 9813 l-46 -48 -7 -132 c-8 -147 -8 -146 53 -114 79 41 81 44
75 188 -6 179 -5 177 -75 106z m46 -114 c8 -110 5 -119 -47 -146 l-30 -15 7
109 c6 90 11 112 28 131 12 12 25 22 28 22 4 0 10 -45 14 -101z"/>
<path d="M8423 9929 l-73 -60 0 -120 c0 -94 3 -121 14 -125 8 -3 50 10 93 28
l78 34 -2 111 c-1 106 -16 194 -31 193 -4 -1 -40 -28 -79 -61z m84 -115 l6
-110 -67 -26 -66 -26 0 102 0 102 52 43 c28 23 55 38 60 33 4 -4 11 -58 15
-118z"/>
<path d="M8226 9810 c-57 -37 -76 -55 -72 -68 2 -9 7 -52 11 -94 4 -43 10 -80
14 -83 13 -7 80 17 96 35 27 30 56 150 49 203 -4 26 -10 50 -14 52 -4 3 -42
-18 -84 -45z m71 -16 c10 -28 -28 -164 -51 -180 -42 -29 -47 -21 -59 93 -5 41
-3 43 42 72 53 36 59 37 68 15z"/>
<path d="M4059 10026 c-16 -16 -19 -35 -19 -109 0 -48 5 -97 10 -107 14 -26
118 -59 129 -42 10 17 56 250 51 256 -3 2 -38 8 -79 13 -67 9 -75 8 -92 -11z
m136 -28 c5 -4 -31 -198 -39 -205 -1 -2 -20 3 -42 10 l-39 14 -3 87 c-2 50 2
93 7 100 10 12 103 7 116 -6z"/>
<path d="M4267 9953 c-4 -26 -10 -85 -13 -130 l-7 -83 93 0 92 0 -7 118 c-4
64 -10 120 -14 123 -3 4 -36 10 -72 14 l-66 6 -6 -48z m119 4 c1 -1 5 -44 9
-94 l7 -93 -62 0 -62 0 8 93 c3 50 9 96 12 101 4 6 81 1 88 -7z"/>
<path d="M4793 9911 c-34 -3 -64 -9 -67 -12 -9 -8 -29 -216 -23 -232 4 -11
107 -37 149 -37 12 0 17 27 25 138 6 75 9 140 6 145 -2 4 -10 6 -16 5 -7 0
-40 -4 -74 -7z m60 -103 c-4 -88 -11 -148 -18 -148 -2 0 -27 5 -55 11 l-52 11
7 82 c9 114 9 114 58 119 23 2 47 4 53 5 7 1 9 -25 7 -80z"/>
<path d="M4898 9754 c-2 -71 -2 -135 0 -141 3 -9 26 -13 68 -13 l64 0 25 56
c16 35 27 85 31 135 l7 79 -35 0 c-19 0 -62 3 -95 6 l-61 7 -4 -129z m126 89
l38 -6 -6 -65 c-4 -35 -16 -82 -27 -103 -18 -35 -23 -39 -59 -39 -21 0 -41 4
-45 9 -3 5 -2 55 1 110 8 113 4 110 98 94z"/>
<path d="M5346 9811 c-4 -6 -4 -17 1 -23 4 -7 8 -67 8 -133 l0 -120 75 -11
c41 -7 79 -8 83 -4 5 4 11 71 14 149 l6 141 -69 0 c-38 0 -79 3 -90 6 -12 3
-25 1 -28 -5z m118 -31 l42 0 -4 -92 c-2 -51 -7 -104 -10 -118 -7 -25 -9 -25
-59 -17 l-53 9 0 67 c0 105 10 163 27 157 8 -4 34 -6 57 -6z"/>
<path d="M5556 9743 c-3 -21 -6 -85 -8 -143 l-3 -105 65 -12 c36 -7 78 -12 94
-13 l28 0 -7 133 c-10 180 -8 177 -94 177 l-69 0 -6 -37z m128 -2 c3 -5 9 -62
12 -126 l7 -118 -39 7 c-100 17 -97 15 -90 48 3 17 6 68 6 114 l0 84 49 0 c28
0 52 -4 55 -9z"/>
<path d="M7772 9343 l-83 -48 6 -85 c4 -47 9 -87 11 -89 7 -8 118 31 147 51
26 18 27 23 27 103 0 81 -5 115 -19 115 -3 0 -43 -21 -89 -47z m70 -145 c-5
-5 -31 -17 -59 -28 l-51 -19 -7 60 c-4 34 -3 65 1 69 5 5 34 23 64 39 l55 30
3 -71 c2 -39 -1 -75 -6 -80z"/>
<path d="M7516 9158 l-69 -41 7 -96 c4 -53 10 -99 14 -102 4 -4 36 11 71 34
l63 40 -6 57 c-5 39 -2 69 9 99 8 24 15 45 15 47 0 13 -45 -3 -104 -38z m51
-81 l2 -72 -38 -22 -39 -22 -6 22 c-3 12 -6 43 -6 69 0 44 3 50 38 72 20 14
39 25 42 25 3 1 6 -32 7 -72z"/>
<path d="M7318 9040 c-40 -33 -73 -64 -72 -70 1 -5 2 -48 3 -95 1 -61 5 -85
14 -85 7 0 43 20 80 45 l67 45 0 105 c0 57 -4 106 -9 109 -5 4 -42 -21 -83
-54z m62 -69 l0 -79 -47 -31 -48 -31 -6 63 -6 62 50 48 c28 26 52 47 54 47 2
0 3 -35 3 -79z"/>
<path d="M7052 8865 c-38 -30 -72 -64 -76 -77 -3 -13 -6 -55 -6 -94 0 -94 15
-110 67 -67 58 47 72 72 88 163 17 98 19 130 6 130 -5 0 -40 -25 -79 -55z m44
-73 c-9 -59 -18 -81 -44 -113 -18 -21 -37 -39 -43 -39 -5 0 -9 34 -9 75 l0 74
52 40 c29 22 53 39 54 38 1 -1 -4 -35 -10 -75z"/>
<path d="M9083 8703 l-63 -35 0 -134 c0 -74 3 -134 6 -134 4 0 38 23 77 52
l70 52 -6 110 c-4 60 -10 113 -14 117 -5 4 -36 -9 -70 -28z m57 -101 l0 -89
-45 -32 -45 -32 0 99 0 100 33 21 c54 34 57 30 57 -67z"/>
<path d="M8911 8614 l-74 -35 5 -153 c3 -85 9 -159 13 -166 8 -14 121 91 135
126 12 31 16 257 5 260 -6 1 -43 -13 -84 -32z m61 -111 l-4 -108 -44 -45 c-24
-24 -45 -42 -48 -39 -3 2 -6 58 -7 124 l-2 120 49 27 c27 15 52 28 55 28 3 0
4 -48 1 -107z"/>
<path d="M8540 8363 c-25 -9 -48 -20 -51 -25 -3 -4 1 -52 8 -106 13 -94 13
-98 -8 -135 -11 -21 -18 -41 -15 -45 7 -7 80 11 130 32 l33 14 -4 98 c-2 55
-6 118 -9 142 -6 48 -12 50 -84 25z m60 -97 c0 -46 3 -98 6 -115 6 -28 4 -32
-29 -46 -50 -21 -60 -20 -47 4 7 14 7 42 0 88 -17 116 -15 129 23 141 17 5 35
10 40 11 4 1 7 -37 7 -83z"/>
<path d="M6526 8651 c-32 -22 -65 -37 -75 -34 -21 5 -27 -16 -37 -137 -9 -100
-1 -104 94 -56 l69 35 10 108 c5 59 7 111 4 115 -4 4 -33 -10 -65 -31z m27
-136 c-7 -34 -15 -44 -55 -65 -26 -13 -50 -21 -54 -18 -3 4 -3 36 0 72 7 64 8
64 59 99 l52 34 3 -41 c2 -23 -1 -59 -5 -81z"/>
<path d="M6243 8492 l-61 -47 -7 -118 c-4 -65 -4 -121 -1 -125 6 -6 31 7 109
55 36 23 37 24 37 86 0 34 3 92 7 130 7 83 1 84 -84 19z m53 -54 c-3 -29 -6
-73 -6 -98 0 -43 -2 -46 -46 -73 l-47 -28 7 93 c6 92 7 93 44 125 20 18 41 33
46 33 5 0 6 -24 2 -52z"/>
<path d="M6075 8387 l-60 -43 -3 -112 c-3 -130 0 -133 70 -69 46 41 47 44 57
126 13 99 14 141 4 141 -5 -1 -35 -20 -68 -43z m35 -93 c-7 -56 -17 -85 -32
-101 -12 -13 -25 -23 -30 -23 -4 0 -8 35 -8 78 l0 79 37 26 c20 15 39 25 41
23 2 -2 -2 -39 -8 -82z"/>
<path d="M3466 8688 c-4 -35 -8 -90 -9 -123 l-2 -60 85 -17 c47 -9 88 -13 92
-10 3 4 9 67 13 140 l8 132 -91 0 -90 0 -6 -62z m154 -21 c0 -29 -3 -76 -7
-106 l-6 -53 -49 6 c-80 11 -79 10 -73 85 12 136 6 126 75 123 l60 -4 0 -51z"/>
<path d="M3657 8589 c-4 -73 -3 -136 1 -140 12 -11 150 -21 156 -11 3 5 10 51
16 103 6 52 13 108 16 126 6 37 2 39 -107 48 l-76 7 -6 -133z m154 86 c6 -5
-15 -202 -23 -210 -3 -3 -29 -3 -57 1 l-51 7 0 56 c0 31 3 80 7 109 l6 54 56
-7 c31 -4 59 -9 62 -10z"/>
<path d="M4122 8438 c-5 -7 -11 -58 -13 -113 l-4 -100 74 0 c87 0 84 -4 96
140 l7 85 -75 0 c-48 0 -78 -5 -85 -12z m123 -95 c-4 -43 -9 -81 -12 -85 -2
-5 -26 -8 -54 -8 -56 0 -54 -4 -43 109 l7 61 54 0 55 0 -7 -77z"/>
<path d="M4616 8342 c-6 -10 -10 -211 -5 -216 16 -11 155 -54 160 -48 9 9 30
253 23 264 -7 10 -171 11 -178 0z m150 -59 c-3 -21 -8 -69 -11 -106 -6 -64 -8
-67 -28 -61 -70 22 -92 32 -91 43 1 6 2 45 3 86 l1 75 66 0 66 0 -6 -37z"/>
<path d="M5446 8351 c-10 -16 -27 -150 -24 -187 l3 -38 75 -13 c41 -7 78 -9
82 -5 3 4 10 59 14 123 l7 116 -24 6 c-35 10 -127 8 -133 -2z m122 -116 c-3
-53 -7 -97 -9 -99 -2 -2 -28 1 -58 6 l-54 11 6 72 c9 103 10 105 69 105 l51 0
-5 -95z"/>
<path d="M5617 8333 c-3 -4 -8 -65 -12 -134 l-7 -126 23 -6 c42 -11 127 -8
135 5 12 18 43 242 35 249 -10 10 -169 21 -174 12z m142 -38 c2 -3 -1 -50 -9
-105 l-12 -100 -54 0 -54 0 0 49 c0 26 3 76 7 111 l6 62 56 -6 c30 -4 57 -9
60 -11z"/>
<path d="M6903 7267 c-70 -50 -72 -53 -74 -97 -1 -27 -3 -35 -6 -20 -8 52 -9
52 -85 14 -40 -20 -76 -42 -80 -48 -12 -17 -10 -254 2 -261 6 -3 44 12 85 35
57 32 75 47 75 63 0 18 17 29 90 61 l90 38 2 119 c0 65 1 125 2 131 2 27 -32
15 -101 -35z m69 -96 l-7 -103 -55 -23 -55 -23 -3 36 c-2 20 -1 61 3 89 6 50
9 55 62 93 31 22 58 39 59 37 2 -1 0 -49 -4 -106z m-184 -123 l-3 -102 -45
-27 c-25 -15 -48 -28 -52 -28 -5 -1 -8 46 -8 103 l0 105 43 25 c67 41 68 39
65 -76z"/>
<path d="M6368 6909 l-56 -20 -12 -87 c-19 -134 -30 -159 -23 -54 5 71 3 92
-7 92 -7 0 -43 -16 -80 -36 l-67 -37 -7 -130 c-4 -72 -3 -134 1 -138 5 -5 41
10 81 33 57 33 72 47 72 65 0 14 4 22 10 18 5 -3 40 15 78 40 77 51 74 45 88
198 8 88 10 86 -78 56z m47 -86 c-4 -38 -9 -76 -11 -85 -6 -21 -94 -84 -94
-68 0 14 19 148 25 177 3 12 17 26 32 31 53 20 55 18 48 -55z m-165 -51 c0
-16 -3 -63 -6 -106 l-7 -76 -48 -30 -49 -30 1 63 c0 34 4 84 7 110 6 42 12 51
47 71 52 31 55 31 55 -2z"/>
<path d="M8375 7627 c-7 -17 -61 -140 -119 -272 -58 -132 -106 -243 -106 -247
0 -5 6 -8 13 -8 21 0 702 400 702 412 0 7 -91 36 -210 69 -115 31 -223 62
-238 68 -26 10 -29 9 -42 -22z m245 -67 c101 -28 186 -52 187 -54 2 -2 -132
-83 -299 -179 -166 -97 -303 -175 -305 -173 -2 1 43 107 99 234 79 182 105
231 117 228 9 -3 99 -28 201 -56z"/>
<path d="M9715 7254 c-68 -38 -69 -41 -80 -167 -8 -106 -1 -109 73 -34 49 49
53 58 68 135 10 49 13 86 8 91 -5 5 -36 -6 -69 -25z m41 -31 c-4 -9 -10 -36
-13 -59 -4 -30 -15 -52 -39 -75 -19 -18 -35 -31 -37 -28 -3 2 -2 32 1 67 4 59
7 65 41 87 42 29 56 31 47 8z"/>
<path d="M9539 7184 l-76 -36 -6 -97 c-3 -53 -2 -99 2 -104 8 -8 116 26 136
43 10 8 39 165 40 214 0 20 -23 15 -96 -20z m51 -93 l-12 -80 -44 -17 c-25 -9
-47 -14 -50 -11 -4 3 -3 37 1 75 l7 69 51 25 c29 14 54 24 56 22 2 -2 -2 -39
-9 -83z"/>
<path d="M8736 6684 l-69 -46 6 -106 c3 -58 10 -109 14 -113 5 -5 34 15 64 44
l56 52 6 100 c3 55 3 103 -1 107 -4 4 -39 -13 -76 -38z m47 -81 c-5 -72 -8
-80 -37 -105 -17 -15 -34 -28 -38 -28 -5 0 -8 35 -8 78 l1 77 37 27 c20 15 40
27 44 28 3 0 4 -35 1 -77z"/>
<path d="M8547 6573 l-77 -47 0 -47 c0 -86 13 -199 23 -199 5 0 43 21 83 47
l74 46 0 124 c0 92 -3 123 -13 123 -7 0 -47 -21 -90 -47z m73 -88 l0 -95 -55
-35 c-30 -19 -57 -35 -60 -35 -3 0 -4 44 -3 97 l3 97 55 33 c30 18 56 33 58
33 1 0 2 -43 2 -95z"/>
<path d="M8208 6315 l-65 -45 -6 -98 c-3 -53 -2 -101 3 -106 5 -5 36 13 74 43
l65 52 3 90 c2 50 0 95 -3 100 -3 5 -35 -11 -71 -36z m44 -75 c-4 -68 -4 -70
-45 -100 -22 -16 -42 -28 -44 -26 -2 2 0 34 3 72 6 65 9 71 43 96 20 14 38 27
41 27 3 1 4 -30 2 -69z"/>
<path d="M8022 6230 l-71 -50 -3 -111 c-2 -83 0 -113 10 -116 7 -3 41 20 76
50 l63 56 7 102 c3 57 3 106 -2 111 -5 5 -40 -14 -80 -42z m53 -77 c-6 -76 -8
-79 -48 -115 -23 -21 -44 -38 -47 -38 -3 0 -3 38 0 84 l5 85 40 30 c22 16 44
30 48 30 4 1 5 -34 2 -76z"/>
<path d="M7642 5965 c-33 -30 -66 -55 -73 -55 -8 0 -50 -24 -94 -53 -76 -50
-80 -54 -87 -97 -11 -78 -9 -147 6 -159 10 -9 30 -3 87 28 l74 39 8 78 c12
116 24 132 19 26 -4 -74 -2 -92 9 -92 8 0 45 21 83 46 l69 46 -7 67 c-3 36 -6
92 -6 124 0 73 -11 74 -88 2z m58 -22 c0 -16 3 -57 6 -93 l6 -65 -52 -33 -52
-32 3 89 c4 87 5 91 38 125 42 43 51 45 51 9z m-159 -162 c-6 -45 -13 -87 -17
-92 -5 -9 -97 -59 -109 -59 -7 0 -4 98 4 133 4 19 24 39 66 67 32 21 61 38 63
36 1 -2 -2 -40 -7 -85z"/>
<path d="M6516 5252 c-33 -21 -64 -46 -70 -57 -6 -11 -17 -24 -25 -29 -7 -5
-31 -25 -53 -44 -34 -30 -42 -34 -58 -24 -11 6 -21 8 -24 4 -10 -16 -26 -216
-18 -224 4 -4 38 14 74 40 64 45 68 50 78 102 24 120 24 120 31 52 3 -34 9
-65 12 -69 4 -3 39 15 78 41 l72 48 -7 66 c-3 37 -6 82 -6 100 0 41 -10 40
-84 -6z m63 -94 l1 -57 -45 -27 c-25 -14 -47 -25 -49 -23 -2 2 -6 34 -9 71
l-6 67 47 29 c56 34 60 30 61 -60z m-172 -62 c-3 -7 -9 -34 -12 -60 -6 -40
-14 -52 -53 -82 -25 -19 -46 -33 -46 -32 -1 2 0 32 2 66 4 61 5 64 36 77 18 8
38 21 46 29 15 20 34 21 27 2z"/>
<path d="M3665 7078 c-21 -125 -34 -243 -28 -249 12 -11 177 -40 184 -31 7 8
30 265 24 271 -4 3 -153 40 -167 41 -4 0 -10 -15 -13 -32z m103 -19 l49 -10
-4 -52 c-2 -29 -6 -80 -9 -113 l-5 -61 -65 12 c-35 6 -66 14 -69 16 -2 3 2 47
10 99 8 52 15 101 15 108 0 15 15 15 78 1z"/>
<path d="M4105 7020 c-9 -15 -25 -254 -18 -261 5 -4 49 -10 100 -14 l91 -6 7
78 c4 43 7 96 8 117 l2 40 -93 27 c-51 15 -94 23 -97 19z m103 -51 l62 -21 -6
-56 c-3 -32 -7 -72 -10 -91 l-5 -34 -46 7 c-25 3 -57 6 -70 6 -23 0 -23 1 -18
83 7 97 13 127 23 127 5 0 36 -9 70 -21z"/>
<path d="M4317 6963 c-3 -5 -6 -60 -8 -123 l-4 -115 68 -13 c38 -8 74 -11 81
-9 16 6 43 225 29 237 -7 7 -123 30 -151 30 -6 0 -13 -3 -15 -7z m121 -39 c22
-4 23 -8 17 -62 -15 -139 -12 -133 -53 -126 -77 12 -75 11 -68 68 3 28 6 70 6
94 l0 43 38 -6 c20 -3 47 -8 60 -11z"/>
<path d="M5595 6718 c-9 -32 -25 -242 -18 -248 15 -13 183 -61 193 -55 6 4 10
64 10 140 l0 134 -42 11 c-24 6 -59 15 -78 21 -47 12 -60 11 -65 -3z m80 -31
c11 -3 32 -8 48 -11 l27 -6 0 -110 c0 -81 -3 -110 -12 -110 -7 0 -40 8 -73 18
l-60 19 2 54 c6 121 13 160 31 155 9 -2 26 -7 37 -9z"/>
<path d="M2662 6394 c-84 -75 -152 -140 -152 -145 0 -11 -11 -8 338 -74 308
-58 332 -61 332 -45 0 8 -357 400 -364 400 -1 0 -71 -61 -154 -136z m306 -68
c84 -91 152 -167 152 -170 0 -3 -6 -3 -12 -1 -7 3 -125 25 -263 50 -137 25
-258 49 -267 53 -14 6 9 30 109 120 69 61 126 112 128 112 1 0 70 -74 153
-164z"/>
<path d="M9714 6524 c-8 -20 -51 -117 -95 -216 -44 -99 -77 -184 -74 -189 4
-5 124 71 268 168 334 226 313 211 302 222 -9 8 -313 51 -364 51 -16 0 -26
-10 -37 -36z m199 -11 c75 -10 137 -20 137 -24 0 -7 -425 -297 -447 -306 -6
-3 14 53 46 124 32 70 67 149 79 176 11 26 27 47 34 47 7 0 75 -8 151 -17z"/>
<path d="M10558 5839 c-42 -21 -78 -42 -80 -46 -6 -12 8 -222 15 -229 7 -8
127 64 127 76 0 5 7 57 16 116 9 58 12 110 7 114 -4 5 -43 -9 -85 -31z m59
-22 c-3 -8 -8 -45 -12 -83 -7 -58 -12 -73 -37 -96 -46 -43 -58 -37 -58 26 0
29 -3 67 -6 84 -6 28 -3 32 42 56 55 28 79 32 71 13z"/>
<path d="M10175 5554 l-60 -45 -7 -92 c-4 -52 -4 -95 1 -100 10 -10 115 29
131 48 5 6 12 61 16 123 8 132 8 132 -81 66z m55 -28 c0 -12 -3 -50 -6 -83 -6
-57 -9 -62 -41 -77 -52 -25 -54 -23 -47 52 5 61 9 70 42 99 44 39 52 40 52 9z"/>
<path d="M10009 5455 l-66 -34 -6 -68 c-9 -93 -9 -143 1 -143 5 0 40 13 78 28
l69 29 3 103 c1 57 -1 107 -5 111 -4 4 -38 -8 -74 -26z m51 -90 l0 -76 -46
-19 c-25 -11 -48 -20 -50 -20 -6 0 -5 61 2 112 5 38 12 48 38 61 53 27 56 24
56 -58z"/>
<path d="M9445 5120 l-60 -39 -12 -83 c-12 -90 -16 -168 -8 -168 3 0 41 18 86
40 l80 41 -3 121 c-2 70 -7 123 -13 124 -5 2 -37 -15 -70 -36z m55 -100 l0
-90 -50 -25 c-27 -14 -52 -25 -56 -25 -3 0 -3 26 0 58 14 114 17 122 55 147
19 14 39 25 43 25 5 0 8 -40 8 -90z"/>
<path d="M9185 4918 c-33 -17 -62 -32 -65 -35 -2 -2 -10 -50 -16 -106 l-11
-102 -2 76 c0 42 -4 78 -7 81 -3 3 -20 2 -37 -2 -18 -5 -51 -14 -74 -20 l-43
-11 0 -124 c0 -69 2 -125 5 -125 19 0 155 84 155 96 0 7 6 12 13 9 6 -2 41 11
77 28 73 36 71 31 85 190 8 90 8 90 -80 45z m51 -55 c-4 -27 -9 -66 -12 -89
-5 -36 -11 -43 -50 -62 l-44 -22 1 38 c0 20 4 58 7 85 6 42 12 50 47 72 22 13
44 25 49 25 4 0 5 -21 2 -47z m-176 -141 l0 -78 -45 -22 c-25 -12 -49 -22 -53
-22 -4 0 -6 39 -5 87 l1 88 39 12 c64 19 63 20 63 -65z"/>
<path d="M8703 4615 c-40 -30 -77 -55 -84 -55 -12 0 -124 -64 -151 -87 -11
-10 -18 -38 -22 -96 -4 -45 -9 -99 -12 -119 -8 -51 5 -50 105 9 l81 47 2 81
c2 69 2 72 5 22 3 -37 9 -60 18 -63 7 -3 45 18 84 46 l71 52 0 109 c0 81 -3
109 -12 109 -7 0 -45 -25 -85 -55z m67 -69 l0 -83 -42 -29 c-24 -16 -48 -33
-55 -37 -10 -6 -13 9 -13 70 l0 78 53 42 c28 23 53 42 55 43 1 0 2 -38 2 -84z
m-176 -125 l-7 -91 -57 -35 c-32 -19 -60 -35 -64 -35 -3 0 -4 12 -1 28 2 15 7
57 10 94 l7 67 56 35 c31 19 58 33 60 32 2 -2 0 -45 -4 -95z"/>
<path d="M8164 4277 c-89 -55 -84 -46 -84 -178 0 -65 4 -120 8 -123 4 -2 39
14 77 37 l70 42 0 124 c0 75 -4 125 -10 127 -5 1 -33 -12 -61 -29z m46 -111
l0 -94 -44 -26 c-25 -14 -47 -26 -50 -26 -3 0 -6 42 -6 94 l0 93 38 26 c59 41
62 38 62 -67z"/>
<path d="M7957 4165 l-67 -45 0 -125 c0 -68 4 -126 8 -129 4 -2 40 14 80 37
l73 41 -3 130 c-2 75 -7 131 -13 133 -6 2 -40 -17 -78 -42z m63 -100 l0 -104
-43 -26 c-24 -14 -47 -25 -50 -25 -4 0 -7 44 -7 98 l0 97 48 32 c26 17 48 32
50 32 1 1 2 -46 2 -104z"/>
<path d="M7408 3790 l-68 -50 0 -114 c0 -63 4 -117 8 -120 4 -2 40 14 80 37
l72 41 0 128 c0 96 -3 128 -12 128 -7 0 -43 -23 -80 -50z m62 -95 l0 -94 -43
-26 c-24 -14 -47 -25 -50 -25 -4 0 -7 40 -7 89 l0 90 43 30 c23 17 45 30 50
31 4 0 7 -43 7 -95z"/>
<path d="M7018 3547 l-48 -21 0 -128 c0 -71 4 -128 9 -128 5 0 34 15 65 33
l56 32 0 118 c0 133 2 131 -82 94z m52 -106 l0 -89 -35 -21 -35 -20 0 98 c0
92 1 99 23 109 44 21 47 17 47 -77z"/>
<path d="M6823 3423 l-63 -14 0 -140 c0 -105 3 -139 13 -138 6 0 44 19 82 43
l70 42 3 112 c3 129 10 123 -105 95z m77 -101 l0 -88 -55 -31 -55 -32 0 108 0
108 43 10 c70 17 67 21 67 -75z"/>
<path d="M6485 3197 l-80 -32 -3 -129 c-1 -75 1 -133 7 -139 7 -7 39 7 93 39
l83 50 0 119 c0 70 -4 119 -10 121 -5 2 -46 -11 -90 -29z m73 -102 l-3 -96
-62 -35 -63 -35 0 108 0 108 53 22 c81 33 78 35 75 -72z"/>
<path d="M2319 5703 c-2 -23 2 -136 7 -190 l6 -61 70 -17 c44 -11 73 -14 79
-8 5 5 8 68 7 144 l-3 134 -82 3 c-46 2 -83 -1 -84 -5z m139 -137 c2 -100 0
-118 -12 -113 -8 3 -30 9 -50 12 -19 4 -37 13 -40 20 -4 11 -9 170 -7 196 1 4
25 6 54 5 l52 -1 3 -119z"/>
<path d="M2517 5635 c-4 -26 -7 -89 -7 -140 l0 -92 38 -7 c20 -3 65 -6 100 -6
l62 0 0 33 c1 17 5 77 10 132 5 55 6 103 2 107 -4 4 -50 10 -103 14 l-96 7 -6
-48z m145 9 c37 -6 37 -7 33 -48 -3 -22 -7 -72 -11 -109 l-6 -68 -66 3 -67 3
-3 113 -3 112 43 0 c24 0 60 -3 80 -6z"/>
<path d="M2840 5606 c-6 -6 -10 -67 -10 -137 l0 -126 53 -7 c63 -7 117 -8 117
-1 0 3 9 62 20 132 11 69 18 128 16 131 -11 10 -187 17 -196 8z m162 -65 c-2
-19 -9 -66 -16 -105 -13 -78 -21 -85 -92 -71 l-34 6 0 103 c0 56 2 105 4 107
2 2 35 2 73 -1 l68 -5 -3 -34z"/>
<path d="M3065 5559 c-2 -8 -13 -70 -23 -137 -22 -144 -27 -137 83 -137 l70 0
17 105 c25 153 24 157 -14 163 -103 18 -128 19 -133 6z m104 -29 l34 0 -7 -47
c-3 -27 -11 -76 -17 -110 l-11 -63 -54 0 c-62 0 -61 -2 -44 110 19 120 20 122
43 116 12 -3 37 -6 56 -6z"/>
<path d="M4746 5212 c-8 -14 -28 -251 -22 -261 7 -11 185 -35 194 -26 7 7 22
256 16 267 -2 3 -28 9 -57 12 -28 4 -68 9 -88 12 -21 3 -40 1 -43 -4z m126
-37 l37 -6 -6 -107 c-3 -59 -7 -109 -9 -111 -1 -1 -35 2 -74 9 l-71 12 6 76
c3 43 8 92 11 110 6 36 -3 34 106 17z"/>
<path d="M4946 5108 c-3 -40 -7 -104 -8 -143 l-2 -70 96 -3 96 -3 5 43 c4 24
7 81 9 128 l3 85 -85 17 c-47 9 -90 17 -96 18 -7 0 -14 -28 -18 -72z m106 27
c25 -4 49 -10 54 -13 14 -11 2 -207 -13 -206 -7 1 -39 2 -70 2 l-58 2 3 102
c3 116 6 132 26 125 7 -3 34 -8 58 -12z"/>
<path d="M5416 5068 c-3 -13 -7 -71 -9 -130 l-5 -107 80 -27 c43 -14 82 -23
86 -20 9 10 41 270 33 278 -8 8 -115 28 -153 28 -21 0 -29 -6 -32 -22z m155
-24 c6 -3 -19 -215 -26 -222 -2 -2 -29 4 -60 13 l-57 16 6 37 c3 20 6 68 6
105 l0 69 63 -7 c34 -4 65 -9 68 -11z"/>
<path d="M5640 5036 c-8 -20 -40 -219 -40 -251 0 -13 13 -15 88 -13 l87 3 19
122 c11 68 18 125 15 127 -2 2 -39 11 -82 19 -77 15 -79 15 -87 -7z m139 -32
c2 -2 -2 -38 -8 -81 -21 -132 -15 -123 -83 -123 l-60 0 5 28 c3 15 11 65 17
110 l13 84 56 -7 c31 -4 58 -9 60 -11z"/>
<path d="M3060 4815 c-157 -102 -291 -192 -299 -200 -13 -12 -13 -15 0 -19 18
-7 1170 -216 1187 -216 6 0 12 4 12 8 0 13 -591 612 -603 612 -7 0 -140 -83
-297 -185z m564 -117 c146 -150 264 -274 262 -276 -2 -2 -203 33 -447 78 -244
45 -486 89 -537 97 -51 9 -90 19 -86 22 10 10 529 349 536 350 3 1 126 -121
272 -271z"/>
<path d="M1450 3963 c0 -16 -7 -63 -15 -106 -23 -120 -28 -111 81 -137 52 -12
101 -19 108 -17 15 6 30 226 16 241 -8 8 -151 45 -177 46 -8 0 -13 -12 -13
-27z m158 -33 c10 0 11 -22 6 -97 -4 -54 -8 -99 -9 -100 -1 -2 -36 5 -79 14
l-78 17 6 30 c3 17 10 61 16 97 l12 67 56 -14 c32 -7 63 -13 70 -14z"/>
<path d="M1875 3897 c-11 -35 -42 -243 -36 -249 11 -11 164 -39 172 -31 13 13
34 222 23 232 -5 4 -42 20 -82 34 -53 20 -74 24 -77 14z m80 -46 l50 -19 -2
-64 c-1 -35 -4 -77 -8 -94 l-5 -31 -53 10 c-28 5 -56 13 -61 18 -10 9 16 199
27 199 1 0 25 -9 52 -19z"/>
<path d="M2076 3859 c-16 -49 -46 -243 -39 -249 15 -15 163 -73 170 -67 9 10
72 250 67 258 -2 4 -41 20 -87 35 -45 15 -88 29 -94 32 -7 2 -15 -2 -17 -9z
m100 -51 c42 -14 64 -27 64 -37 0 -31 -47 -185 -57 -188 -6 -2 -36 7 -67 21
-49 22 -56 28 -52 48 3 13 10 50 16 83 14 74 20 95 27 95 3 0 34 -10 69 -22z"/>
<path d="M2491 3644 c-12 -64 -21 -118 -19 -119 14 -12 148 -52 153 -45 6 9
55 222 55 239 0 9 -120 41 -153 41 -11 0 -21 -32 -36 -116z m120 70 c21 -4 39
-8 39 -10 0 -8 -43 -189 -46 -193 -1 -1 -25 5 -53 14 -44 14 -50 20 -46 38 2
12 9 49 15 82 15 82 18 88 36 81 9 -3 33 -9 55 -12z"/>
<path d="M2725 3707 c-31 -95 -72 -254 -67 -259 11 -9 206 -28 213 -20 9 9 27
265 20 273 -3 4 -41 9 -84 13 -57 4 -79 3 -82 -7z m141 -30 c2 -3 -17 -222
-19 -224 -4 -3 -150 17 -154 21 -4 4 18 88 49 185 l10 33 57 -7 c31 -4 56 -8
57 -8z"/>
<path d="M3157 3613 c-3 -4 -6 -66 -8 -137 l-4 -130 80 -22 c122 -34 111 -44
120 107 5 103 4 133 -6 140 -7 4 -42 15 -78 24 -36 9 -73 18 -83 21 -9 3 -18
1 -21 -3z m125 -54 c36 -9 38 -12 38 -52 0 -23 -3 -72 -6 -108 l-7 -67 -64 18
c-35 10 -66 20 -69 23 -3 3 -2 51 1 107 l8 102 30 -6 c17 -4 48 -11 69 -17z"/>
<path d="M3646 3469 c-14 -101 -25 -222 -21 -229 6 -10 154 -34 161 -27 3 3
18 63 34 132 31 144 34 137 -59 149 -30 4 -66 10 -82 13 -26 5 -28 3 -33 -38z
m163 -15 c4 -3 -37 -205 -43 -211 -4 -5 -92 9 -104 16 -9 5 1 168 13 207 2 8
22 8 67 2 34 -6 65 -12 67 -14z"/>
<path d="M3875 3458 c-16 -65 -53 -274 -49 -277 6 -6 101 -19 145 -20 l36 -1
18 123 c10 67 19 128 19 136 1 9 -20 21 -55 31 -107 33 -108 33 -114 8z m80
-29 c22 -5 45 -12 51 -14 11 -3 -16 -209 -29 -222 -3 -3 -31 -2 -62 2 -65 8
-63 2 -35 140 11 53 20 99 20 101 0 6 12 5 55 -7z"/>
<path d="M4326 3348 c-3 -7 -7 -63 -11 -124 l-6 -112 78 -14 c43 -8 81 -12 85
-9 4 3 10 61 14 127 l7 122 -42 6 c-22 3 -59 9 -81 12 -29 4 -41 2 -44 -8z
m119 -33 c20 -4 20 -9 14 -77 -4 -40 -8 -84 -8 -97 -1 -22 -3 -23 -48 -16 -27
4 -52 10 -56 14 -4 5 -5 49 -1 100 l7 91 36 -5 c20 -4 45 -8 56 -10z"/>
<path d="M4510 3191 l0 -138 62 -18 c34 -9 67 -19 74 -22 18 -6 22 17 29 158
l7 127 -70 16 c-111 25 -102 36 -102 -123z m104 93 l39 -7 -7 -111 c-4 -61 -9
-112 -11 -114 -2 -2 -25 2 -52 10 l-48 14 -3 113 -3 113 23 -5 c13 -3 40 -9
62 -13z"/>
<path d="M4982 3073 l3 -138 60 -3 c33 -1 65 1 70 5 11 8 65 197 65 225 0 10
-28 20 -88 31 -49 9 -94 17 -101 17 -8 0 -11 -36 -9 -137z m100 92 c25 -4 50
-10 56 -14 11 -6 1 -58 -34 -173 -4 -14 -16 -18 -50 -18 l-44 0 0 111 c0 90 3
110 14 106 7 -3 34 -8 58 -12z"/>
<path d="M5196 3084 c-4 -49 -9 -106 -12 -126 -5 -33 -3 -39 19 -47 39 -15
114 -24 120 -14 9 14 51 252 46 257 -2 2 -41 7 -85 11 l-81 7 -7 -88z m141 43
c4 -5 -32 -195 -39 -202 -3 -3 -23 -2 -44 3 l-39 8 3 60 c1 32 5 79 8 103 l6
44 50 -6 c28 -4 52 -8 55 -10z"/>
<path d="M5602 2959 l3 -133 80 -23 c44 -12 86 -23 93 -23 9 0 12 35 12 144 0
165 12 149 -118 162 l-73 7 3 -134z m161 84 c8 -5 10 -217 2 -225 -3 -3 -33 3
-68 12 l-62 17 -3 108 -3 107 63 -7 c35 -4 66 -9 71 -12z"/>
</g>
</svg>
