<?xml version="1.0" standalone="no"?>
<!DOCTYPE svg PUBLIC "-//W3C//DTD SVG 20010904//EN"
 "http://www.w3.org/TR/2001/REC-SVG-20010904/DTD/svg10.dtd">
<svg version="1.0" xmlns="http://www.w3.org/2000/svg"
 width="1280.000000pt" height="956.000000pt" viewBox="0 0 1280.000000 956.000000"
 preserveAspectRatio="xMidYMid meet">
<metadata>
Created by potrace 1.15, written by Peter Selinger 2001-2017
</metadata>
<g transform="translate(0.000000,956.000000) scale(0.100000,-0.100000)"
fill="#000000" stroke="none">
<path d="M6150 9554 c-306 -12 -544 -25 -610 -34 -41 -6 -208 -28 -370 -51
-162 -22 -320 -46 -350 -54 -30 -7 -77 -16 -105 -20 -62 -8 -756 -184 -885
-224 -141 -43 -327 -111 -490 -179 -80 -33 -174 -70 -210 -83 -36 -13 -90 -38
-119 -56 -30 -18 -91 -47 -135 -64 -188 -72 -328 -143 -798 -404 -141 -79
-314 -180 -385 -226 -326 -210 -707 -485 -803 -578 -25 -25 -81 -69 -125 -99
-157 -107 -424 -341 -599 -524 -172 -181 -172 -181 -155 -220 8 -19 26 -36 50
-47 20 -9 76 -53 123 -98 64 -61 86 -88 86 -107 0 -22 5 -26 27 -26 20 0 42
-14 78 -49 27 -27 86 -83 129 -123 44 -40 118 -113 165 -162 78 -81 618 -596
986 -941 565 -530 1050 -993 1101 -1050 32 -37 72 -80 87 -94 16 -14 50 -48
75 -75 26 -27 58 -59 72 -70 14 -11 84 -80 157 -153 72 -73 153 -152 181 -175
27 -24 78 -77 113 -118 69 -81 212 -233 243 -259 11 -9 40 -34 65 -57 25 -22
68 -57 94 -77 26 -19 57 -47 68 -61 11 -14 27 -26 35 -26 8 0 17 -7 21 -15 3
-9 23 -25 44 -35 46 -24 79 -58 79 -81 0 -22 87 -101 151 -137 31 -17 52 -37
58 -55 7 -18 23 -33 45 -42 20 -8 41 -25 47 -37 13 -27 43 -58 598 -628 228
-234 464 -481 524 -550 61 -69 158 -176 216 -237 103 -112 182 -210 245 -308
18 -28 83 -103 145 -167 l112 -117 -93 -74 c-136 -108 -151 -130 -150 -213 1
-88 16 -105 159 -176 71 -35 135 -70 144 -79 15 -15 27 -16 130 -3 265 31 271
33 459 152 58 36 107 67 109 69 2 1 7 43 12 93 4 58 14 105 27 132 l21 41 -22
29 c-12 16 -41 51 -64 77 -47 53 -51 61 -27 61 14 0 14 3 4 15 -7 8 -25 15
-41 15 -35 0 -98 40 -99 62 0 19 39 64 234 271 72 75 138 140 148 143 10 3 25
18 33 34 21 41 349 423 541 630 298 321 294 317 294 293 0 -30 26 -30 41 -1
36 69 165 234 292 374 215 237 314 327 450 408 98 58 127 81 181 145 105 123
365 380 392 387 16 4 42 31 74 78 55 80 491 519 581 584 37 27 63 55 77 84 23
51 126 151 234 231 59 44 79 65 88 94 16 49 35 70 75 83 34 11 65 43 165 165
30 37 67 75 82 84 44 28 135 118 170 169 69 101 1624 1665 1766 1776 l62 49 0
78 c0 43 5 81 10 84 13 8 13 42 0 50 -6 3 -14 -5 -20 -19 -5 -14 -14 -26 -19
-26 -13 0 -258 217 -284 252 -12 17 -34 36 -50 44 -24 13 -155 125 -246 212
-18 18 -37 32 -42 32 -5 0 -9 9 -9 20 0 14 -7 20 -23 20 -13 0 -34 11 -46 24
-13 13 -51 41 -84 62 -104 63 -138 95 -164 151 -28 60 -35 67 -26 23 3 -18 1
-30 -5 -30 -6 0 -64 42 -129 93 -133 105 -218 164 -282 196 -69 36 -321 185
-494 293 -180 112 -256 152 -447 233 -74 32 -148 67 -165 80 -16 12 -46 28
-65 35 -19 7 -116 50 -215 96 -184 84 -240 105 -635 239 -352 120 -426 142
-725 215 -468 114 -632 146 -1025 195 -352 44 -1062 73 -1440 59z m3816 -1441
c-10 -10 -19 5 -10 18 6 11 8 11 12 0 2 -7 1 -15 -2 -18z m-39 -85 c-3 -8 -6
-5 -6 6 -1 11 2 17 5 13 3 -3 4 -12 1 -19z m-3778 -4017 l35 -28 4 -140 4
-140 -26 -25 -27 -24 26 -28 c23 -25 25 -35 25 -117 0 -52 -5 -97 -12 -108
-10 -16 -8 -26 6 -53 22 -41 18 -72 -10 -76 -29 -4 -35 16 -75 243 l-33 187
28 51 c27 51 27 54 17 130 -13 91 -14 157 -3 157 4 0 22 -13 41 -29z m299 -34
c2 -10 -4 -24 -14 -32 -17 -12 -17 -14 -1 -38 21 -32 22 -47 2 -47 -22 0 -35
33 -35 90 0 48 2 51 22 48 13 -2 24 -11 26 -21z m52 -221 c-9 -41 -8 -52 6
-67 9 -10 13 -23 8 -30 -4 -7 -10 -84 -14 -171 -4 -89 -12 -164 -18 -170 -19
-19 -42 36 -52 128 -6 49 -13 100 -16 114 -4 14 -8 63 -10 110 -2 47 -5 94 -6
105 -3 18 2 20 45 18 l47 -1 0 88 c0 49 3 97 8 107 12 29 14 -176 2 -231z
m333 210 c-3 -13 0 -33 6 -44 8 -15 7 -23 -4 -32 -8 -6 -19 -36 -26 -66 -11
-47 -10 -59 5 -93 24 -51 19 -103 -32 -382 -48 -263 -53 -279 -64 -229 -14 66
-22 390 -10 390 8 0 12 -22 13 -62 1 -69 11 -119 21 -103 3 6 13 45 22 87 18
89 21 221 5 267 -12 34 -35 41 -42 14 -3 -10 -5 9 -4 42 2 54 4 60 27 65 23 5
25 11 31 79 4 55 10 77 24 87 23 17 33 10 28 -20z m-83 -28 c0 -51 -9 -88 -21
-88 -10 0 -12 73 -3 108 10 37 24 25 24 -20z m-906 -2 c3 -13 26 -167 51 -343
26 -175 53 -346 61 -381 17 -76 18 -106 3 -130 -9 -14 -5 -28 15 -66 17 -32
26 -65 26 -94 l0 -45 -30 45 c-45 68 -121 307 -144 453 -4 22 -19 79 -33 128
l-26 87 28 30 28 30 -37 136 c-20 75 -35 142 -32 149 3 8 20 15 38 18 18 2 36
5 39 5 4 1 10 -9 13 -22z m1406 -52 c0 -15 -5 -56 -12 -91 -10 -54 -9 -66 3
-74 11 -8 9 -13 -15 -31 -27 -21 -56 -72 -56 -101 0 -8 14 -31 30 -52 32 -40
37 -55 19 -55 -24 0 -76 -69 -109 -144 -19 -44 -40 -81 -46 -83 -14 -5 -2 74
21 143 9 27 20 91 25 144 8 89 41 204 95 333 18 43 45 50 45 11z m-1821 -192
c11 -43 21 -86 21 -95 0 -20 -21 -22 -38 -5 -17 17 -15 -4 4 -30 12 -18 19
-20 29 -12 21 18 47 -51 50 -133 1 -37 7 -73 14 -80 6 -6 11 -18 11 -27 0 -8
9 -21 20 -28 11 -7 20 -21 20 -32 0 -20 30 -115 75 -235 32 -84 45 -149 34
-166 -10 -16 -8 -18 -52 52 -47 74 -49 85 -14 81 15 -2 27 -1 27 3 0 14 -25
52 -57 88 -32 36 -211 388 -248 490 -13 33 -23 47 -36 47 -22 0 -21 -5 -23 88
-2 67 -1 72 18 72 12 1 37 9 56 20 34 19 35 19 51 0 9 -11 26 -55 38 -98z
m2215 41 c-10 -62 -15 -67 -58 -49 -20 8 -36 22 -36 30 0 20 9 20 31 0 24 -21
39 -10 39 30 0 18 3 36 7 40 14 14 23 -13 17 -51z m246 -83 c0 -9 7 -25 15
-37 20 -29 49 -19 42 13 -5 26 4 30 34 14 10 -6 19 -21 19 -34 0 -38 -86 -199
-135 -253 -28 -32 -55 -78 -75 -129 -43 -109 -75 -162 -128 -212 -25 -23 -68
-77 -96 -119 -28 -42 -57 -78 -65 -81 -9 -3 -12 0 -8 9 149 351 185 437 190
452 5 13 18 17 54 17 l48 1 -27 20 c-16 11 -28 29 -28 39 0 33 46 148 74 184
14 19 26 42 26 50 0 29 43 107 52 93 4 -6 8 -19 8 -27z m-307 1 c15 -6 27 -17
27 -26 0 -17 -30 -50 -51 -57 -12 -4 -12 -7 0 -21 11 -14 11 -20 1 -32 -7 -8
-16 -15 -21 -15 -5 0 -9 7 -9 15 0 19 -10 19 -39 -1 -20 -15 -23 -23 -18 -63
3 -25 -1 -66 -8 -91 -52 -189 -70 -237 -94 -263 -17 -18 -27 -41 -28 -65 -4
-70 -20 -133 -40 -159 -22 -31 -49 -50 -58 -41 -8 8 71 271 96 320 11 21 24
38 29 38 16 0 48 59 66 119 12 41 13 60 5 84 -18 51 -13 93 15 126 14 17 27
47 30 68 11 83 13 86 42 80 15 -3 39 -10 55 -16z m-2518 -133 c32 -68 77 -168
101 -223 23 -55 63 -145 89 -200 53 -114 95 -214 95 -228 0 -9 -23 19 -139
168 -21 28 -75 121 -119 208 -68 133 -87 163 -125 192 -56 43 -94 114 -77 145
11 20 81 59 106 60 6 0 37 -55 69 -122z m3195 -45 c0 -16 5 -35 10 -43 8 -13
13 -13 31 -2 62 39 9 -36 -117 -168 -43 -44 -81 -95 -93 -124 l-21 -48 -35 43
c-19 24 -35 51 -35 60 0 26 29 31 61 12 36 -21 42 -15 64 62 25 88 103 235
125 235 6 0 10 -12 10 -27z m-3563 -63 c9 -19 9 -27 0 -39 -9 -11 -9 -15 1
-19 29 -9 112 -115 112 -142 0 -9 9 -25 20 -35 11 -10 45 -61 76 -114 32 -53
86 -144 121 -202 34 -59 63 -111 63 -115 -1 -10 -35 29 -101 111 -22 28 -52
57 -67 66 -15 8 -52 46 -82 83 -58 71 -85 93 -94 77 -8 -12 136 -195 196 -249
32 -30 48 -52 48 -68 0 -14 14 -52 31 -85 17 -34 28 -63 26 -66 -3 -2 -20 17
-38 43 -18 27 -69 89 -112 138 -44 50 -98 115 -120 145 -22 31 -69 88 -103
128 -96 111 -144 178 -144 201 0 28 6 28 47 -4 41 -31 52 -24 55 33 1 27 -6
50 -20 71 -28 38 -28 38 6 56 37 21 64 16 79 -14z m1773 -238 c0 -49 -3 -73
-10 -66 -12 12 -25 118 -16 139 13 35 26 0 26 -73z m2176 57 c19 -11 34 -28
34 -37 0 -28 -122 -200 -221 -312 -123 -139 -497 -515 -505 -508 -3 4 5 26 17
50 37 70 39 77 39 103 0 40 -32 28 -43 -15 -3 -14 -29 -63 -57 -109 -29 -49
-50 -96 -50 -113 0 -22 -20 -51 -89 -126 -135 -147 -171 -180 -171 -156 0 32
187 322 446 691 129 184 159 219 207 245 48 27 56 44 27 53 -31 10 -7 34 41
41 33 6 39 10 39 31 0 18 22 48 72 99 61 63 76 74 98 69 14 -3 32 -1 40 5 22
15 39 12 76 -11z m-2456 1 c28 18 31 10 24 -46 -4 -38 -3 -55 4 -50 13 8 22
-17 22 -62 0 -94 -31 -110 -55 -29 -17 58 -32 209 -18 190 6 -8 14 -9 23 -3z
m1842 -192 c-7 -7 -12 -8 -12 -2 0 14 12 26 19 19 2 -3 -1 -11 -7 -17z m-978
-64 c12 -30 6 -65 -11 -71 -10 -3 -27 -13 -37 -22 -18 -15 -19 -15 -12 14 10
40 36 95 46 95 4 0 11 -7 14 -16z m906 -17 c0 -1 -37 -53 -82 -114 -46 -62
-107 -158 -137 -215 -50 -97 -141 -230 -178 -260 -10 -7 -5 6 11 32 15 25 49
88 75 140 63 122 173 289 240 363 44 48 71 68 71 54z m-3730 -212 c7 -9 10
-18 7 -22 -8 -7 -37 15 -37 28 0 14 16 11 30 -6z"/>
<path d="M5840 3449 c0 -11 4 -18 10 -14 5 3 7 12 3 20 -7 21 -13 19 -13 -6z"/>
<path d="M5870 3230 c0 -5 5 -10 10 -10 6 0 10 5 10 10 0 6 -4 10 -10 10 -5 0
-10 -4 -10 -10z"/>
<path d="M7900 3559 c0 -5 5 -7 10 -4 6 3 10 8 10 11 0 2 -4 4 -10 4 -5 0 -10
-5 -10 -11z"/>
<path d="M7868 3480 c-12 -39 -10 -86 3 -73 5 5 9 30 7 54 -3 37 -4 40 -10 19z"/>
<path d="M4770 3125 c0 -8 4 -15 10 -15 5 0 7 7 4 15 -4 8 -8 15 -10 15 -2 0
-4 -7 -4 -15z"/>
<path d="M206 6504 c-9 -22 -8 -24 8 -18 20 8 29 34 12 34 -8 0 -17 -7 -20
-16z"/>
<path d="M11026 5091 c-4 -7 -5 -15 -2 -18 9 -9 19 4 14 18 -4 11 -6 11 -12 0z"/>
<path d="M9335 3329 c-4 -6 -5 -13 -2 -16 7 -7 27 6 27 18 0 12 -17 12 -25 -2z"/>
<path d="M4005 2850 c-4 -6 -3 -16 3 -22 6 -6 12 -6 17 2 4 6 3 16 -3 22 -6 6
-12 6 -17 -2z"/>
<path d="M4275 2250 c4 -6 11 -8 16 -5 14 9 11 15 -7 15 -8 0 -12 -5 -9 -10z"/>
<path d="M7998 2053 c-38 -44 -48 -92 -13 -63 15 13 45 62 45 75 0 11 -17 4
-32 -12z"/>
<path d="M7782 1095 c-6 -14 -7 -25 -2 -25 9 0 25 39 18 46 -3 2 -10 -7 -16
-21z"/>
</g>
</svg>
