<?xml version="1.0" standalone="no"?>
<!DOCTYPE svg PUBLIC "-//W3C//DTD SVG 20010904//EN"
 "http://www.w3.org/TR/2001/REC-SVG-20010904/DTD/svg10.dtd">
<svg version="1.0" xmlns="http://www.w3.org/2000/svg"
 width="1280.000000pt" height="958.000000pt" viewBox="0 0 1280.000000 958.000000"
 preserveAspectRatio="xMidYMid meet">
<metadata>
Created by potrace 1.15, written by Peter Selinger 2001-2017
</metadata>
<g transform="translate(0.000000,958.000000) scale(0.100000,-0.100000)"
fill="#000000" stroke="none">
<path d="M8047 9570 c-156 -25 -319 -90 -458 -183 -78 -52 -203 -175 -228
-225 -12 -23 -24 -69 -28 -102 -3 -33 -11 -68 -18 -77 -11 -15 -15 -15 -54 0
-31 13 -47 15 -61 7 -37 -20 -23 -51 60 -132 80 -78 80 -79 80 -131 0 -67 -15
-119 -44 -154 -12 -15 -34 -53 -48 -84 -14 -31 -44 -87 -67 -124 -22 -38 -41
-77 -41 -86 0 -10 18 -75 40 -144 53 -166 53 -168 -12 -194 -116 -46 -361
-111 -625 -166 -283 -58 -466 -117 -507 -163 -15 -17 -17 -30 -12 -69 4 -26 8
-71 9 -99 2 -43 9 -59 45 -107 77 -99 99 -199 71 -326 -7 -34 -7 -66 0 -103 5
-30 13 -92 16 -139 l7 -84 -88 -60 c-48 -33 -127 -96 -175 -140 -87 -80 -165
-134 -305 -210 -40 -22 -108 -71 -149 -109 -42 -37 -79 -66 -82 -62 -4 3 0 99
8 213 25 376 14 858 -23 988 -15 51 -135 173 -238 241 -102 68 -294 168 -371
194 -90 30 -263 57 -404 65 -170 9 -169 8 -162 52 4 19 22 55 41 80 24 31 36
59 41 96 4 29 12 63 17 77 17 44 26 251 17 373 -8 104 -12 126 -40 177 -37 70
-191 237 -259 281 -49 32 -49 32 -44 78 5 37 0 56 -23 101 -41 79 -56 83 -318
77 -208 -6 -282 -13 -401 -42 l-61 -15 -67 35 c-86 44 -140 47 -186 9 -80 -68
-95 -172 -41 -286 18 -37 35 -83 38 -102 5 -31 2 -37 -38 -66 -56 -40 -160
-90 -205 -97 -43 -7 -124 -78 -149 -128 -20 -44 -15 -85 26 -202 16 -45 29
-88 29 -96 0 -24 -69 -168 -97 -201 -38 -46 -27 -104 44 -217 10 -16 14 -35 9
-52 -5 -23 -10 -26 -31 -21 -21 5 -27 -1 -54 -54 -18 -35 -58 -88 -94 -124
-35 -35 -89 -99 -120 -143 -30 -44 -86 -116 -122 -160 -67 -80 -102 -138 -124
-207 -7 -21 -33 -60 -58 -88 -25 -28 -67 -87 -95 -133 -56 -93 -356 -687 -383
-759 -10 -27 -22 -48 -26 -48 -15 0 -57 -73 -74 -130 -9 -30 -30 -82 -46 -115
-16 -33 -37 -96 -45 -140 -20 -97 -30 -118 -93 -190 -64 -73 -117 -176 -135
-259 -10 -47 -27 -86 -59 -134 -61 -91 -217 -408 -217 -441 0 -76 -88 -310
-150 -402 -21 -31 -55 -89 -76 -129 -24 -44 -55 -87 -81 -109 l-43 -35 0 -120
c0 -91 3 -123 15 -136 8 -9 30 -57 49 -108 51 -137 77 -174 235 -333 127 -127
157 -151 230 -188 46 -24 91 -51 102 -62 33 -33 266 -145 467 -224 68 -27 134
-59 147 -71 13 -12 29 -41 35 -65 7 -24 21 -60 32 -81 24 -42 19 -77 -13 -97
-12 -7 -113 -55 -223 -106 -593 -274 -736 -350 -961 -512 -138 -100 -285 -244
-312 -305 -30 -70 -124 -252 -138 -268 -17 -19 -44 -102 -51 -155 -5 -33 0
-54 25 -108 17 -37 38 -97 46 -134 32 -139 37 -142 178 -123 191 26 286 65
390 159 37 33 79 63 94 67 16 3 35 8 44 10 8 2 67 -5 130 -16 236 -42 262 -44
422 -32 84 6 175 18 202 26 28 8 101 20 164 26 136 13 194 31 353 111 66 33
126 58 133 55 18 -7 5 -53 -41 -149 -19 -39 -34 -77 -34 -83 0 -16 57 -64 76
-64 19 0 17 -27 -6 -79 -38 -83 -20 -114 75 -125 98 -12 314 -26 542 -36 305
-13 434 -3 641 49 225 56 321 66 510 50 181 -14 469 -7 617 16 159 24 492 111
570 149 46 22 105 64 173 125 56 50 121 101 145 112 45 23 249 69 307 69 43 0
63 -14 171 -112 124 -114 506 -424 544 -442 42 -20 163 -21 247 -1 35 8 144
44 243 80 324 119 484 145 945 152 l325 5 80 66 c44 35 91 70 105 76 14 5 47
30 74 53 82 73 478 254 502 230 4 -4 1 -40 -7 -79 -9 -45 -14 -138 -14 -243 0
-164 1 -172 27 -229 42 -88 90 -148 181 -223 125 -103 233 -210 271 -268 77
-115 218 -210 327 -222 48 -5 78 3 274 67 121 39 294 100 385 135 200 76 247
92 325 110 71 17 186 19 235 5 80 -24 124 -28 156 -15 63 26 215 204 287 338
153 282 190 357 227 462 23 66 53 140 68 165 59 103 251 389 294 437 25 28 49
66 53 85 11 48 22 58 69 58 54 0 72 -14 94 -72 41 -107 120 -178 201 -178 70
0 107 40 192 209 31 63 43 99 47 146 7 87 -16 381 -34 430 -8 22 -19 103 -24
180 -13 195 -46 307 -143 484 l-40 74 -98 -5 c-69 -4 -105 -10 -124 -22 -35
-23 -81 -18 -78 9 1 11 7 72 13 135 7 63 15 201 18 305 l7 190 25 -3 c13 -1
48 -14 78 -28 71 -33 224 -89 301 -109 55 -14 64 -14 98 0 21 9 55 28 76 42
36 25 38 29 32 62 -12 64 -74 183 -115 222 -22 22 -107 71 -200 118 -88 45
-160 86 -160 91 0 14 33 19 151 22 145 4 153 11 147 128 -5 90 -36 177 -78
215 -19 18 -21 18 -54 0 -31 -17 -43 -18 -147 -6 -62 7 -115 14 -117 16 -2 2
-6 133 -8 292 -3 158 -9 313 -15 343 -17 91 -57 214 -81 250 -28 41 -43 45
-243 60 -82 6 -153 14 -157 18 -12 13 -57 196 -83 337 -13 77 -39 190 -55 250
-17 61 -66 252 -110 425 -43 173 -92 366 -109 428 l-31 112 30 60 c17 34 34
89 40 127 13 91 13 774 0 904 -14 135 -24 169 -57 201 -39 36 -100 54 -265 78
-372 52 -646 63 -819 31 -172 -32 -378 -79 -507 -116 -66 -19 -134 -35 -151
-35 -36 0 -105 50 -143 105 -27 40 -27 41 -13 95 18 66 19 176 2 210 -17 34
-58 53 -222 100 -168 49 -180 58 -172 140 3 36 17 78 38 119 29 55 34 76 37
145 3 87 -16 148 -49 154 -9 2 -35 -13 -58 -33 -72 -59 -113 -48 -239 66 -90
82 -213 148 -337 180 -92 23 -305 33 -398 19z m443 -131 c0 -14 -66 -40 -84
-33 -19 7 -21 30 -3 37 23 10 87 7 87 -4z m-148 -31 c-9 -9 -15 -9 -24 0 -9 9
-7 12 12 12 19 0 21 -3 12 -12z m183 -38 c-3 -5 -13 -10 -21 -10 -8 0 -14 5
-14 10 0 6 9 10 21 10 11 0 17 -4 14 -10z m-171 -158 c26 -10 48 -30 67 -61
33 -51 36 -72 14 -105 -33 -50 -76 -320 -61 -380 9 -37 50 -55 74 -33 30 27
304 109 318 94 18 -18 14 -89 -10 -166 -14 -45 -26 -95 -26 -110 0 -36 -65
-125 -148 -204 l-61 -57 -88 2 c-94 1 -136 -7 -130 -25 2 -7 25 -27 51 -44 39
-27 58 -33 99 -33 65 0 110 22 215 105 46 37 86 64 89 61 3 -3 8 -56 11 -119
6 -138 0 -157 -83 -292 -34 -55 -74 -123 -88 -150 -14 -28 -67 -104 -118 -171
-52 -66 -119 -157 -149 -202 -30 -45 -59 -81 -65 -79 -5 2 -23 49 -39 105 -35
119 -34 122 50 133 31 4 64 14 72 23 13 13 9 16 -39 30 -106 32 -169 38 -278
27 -57 -6 -175 -11 -263 -11 l-161 0 -34 36 c-46 49 -70 100 -82 172 -5 33
-19 83 -31 111 -12 28 -20 57 -17 65 11 27 111 85 177 102 82 21 144 14 247
-28 74 -30 137 -38 225 -29 9 1 44 -16 77 -38 63 -43 98 -51 108 -25 14 36
-76 139 -150 172 -46 20 -226 181 -259 231 -10 14 -18 38 -18 54 0 32 -10 34
-35 7 -18 -20 -18 -20 -51 -1 -86 51 -125 15 -60 -56 39 -44 58 -78 49 -87 -7
-7 -283 -9 -283 -2 0 2 6 38 14 79 18 92 52 161 123 250 60 74 89 131 99 194
5 34 3 44 -15 62 -31 31 -56 14 -76 -54 -9 -31 -22 -58 -29 -61 -7 -3 -39 5
-71 17 -53 20 -57 23 -40 35 10 7 37 16 60 20 l43 6 12 65 c12 64 12 64 -16
94 -16 16 -52 41 -81 55 -63 29 -66 44 -20 103 65 85 180 116 482 130 212 10
345 5 399 -17z m316 8 c0 -16 -46 -30 -101 -30 -58 0 -64 14 -11 28 50 13 112
14 112 2z m-4966 -86 c7 -18 -13 -66 -31 -71 -17 -6 -25 30 -14 61 12 29 36
35 45 10z m5261 -46 c-9 -48 -26 -88 -36 -88 -5 0 -7 12 -3 28 13 57 26 92 36
92 6 0 7 -13 3 -32z m-5185 10 c0 -7 -5 -20 -10 -28 -7 -12 -12 -12 -21 -3 -9
9 -9 16 1 28 15 18 30 20 30 3z m-482 -62 c3 -12 -1 -17 -10 -14 -7 3 -15 13
-16 22 -3 12 1 17 10 14 7 -3 15 -13 16 -22z m5332 -51 c0 -8 -54 -33 -80 -36
-41 -6 -31 25 10 32 48 9 70 10 70 4z m318 -63 c4 -26 -16 -65 -29 -57 -10 7
-12 68 -2 79 12 11 28 0 31 -22z m-188 -32 c0 -5 -6 -10 -12 -11 -7 0 -43 -3
-80 -8 -73 -8 -96 4 -25 13 23 3 53 7 67 10 46 6 50 6 50 -4z m-232 -32 c-7
-20 -48 -23 -48 -4 0 11 9 16 26 16 16 0 24 -5 22 -12z m-5498 -172 c0 -1 -22
-17 -50 -34 -37 -23 -50 -27 -50 -16 0 17 57 54 83 54 9 0 17 -2 17 -4z m6047
-81 c3 -9 3 -18 1 -21 -9 -9 -38 8 -38 22 0 19 29 18 37 -1z m-105 -49 c55
-26 81 -55 67 -72 -16 -20 -36 -17 -85 11 -42 25 -89 77 -78 88 7 7 51 -6 96
-27z m265 -28 c-3 -7 -5 -2 -5 12 0 14 2 19 5 13 2 -7 2 -19 0 -25z m-5496
-11 c43 -29 43 -47 -1 -63 -37 -13 -103 -18 -113 -8 -8 8 10 55 30 76 21 24
43 23 84 -5z m-692 -16 c16 -10 8 -41 -11 -41 -7 1 -33 12 -58 25 l-45 24 50
0 c28 1 56 -3 64 -8z m4379 -65 c2 -24 -2 -44 -12 -55 -8 -9 -18 -41 -22 -71
-7 -60 -48 -146 -76 -161 -26 -14 -23 8 7 68 17 34 27 75 33 140 10 95 23 126
51 121 11 -2 17 -16 19 -42z m-3405 -26 c85 -26 100 -44 54 -64 -66 -27 -56
-57 24 -70 62 -10 101 -33 97 -58 -2 -17 -14 -24 -58 -33 -30 -7 -63 -15 -72
-20 -15 -6 -18 -2 -18 28 0 50 -9 67 -35 67 -16 0 -26 8 -31 23 -4 12 -22 44
-40 72 -19 27 -34 55 -34 62 0 18 38 16 113 -7z m5007 -35 c36 -8 114 -14 174
-15 91 0 114 -3 141 -20 39 -24 103 -104 112 -140 3 -14 24 -68 47 -120 34
-80 40 -105 40 -160 -1 -78 -50 -229 -125 -388 -27 -56 -56 -132 -65 -168 -8
-36 -23 -87 -34 -113 -37 -96 -60 -271 -65 -506 -4 -195 -25 -311 -82 -454
-52 -133 -141 -224 -288 -297 -96 -48 -235 -80 -447 -103 -106 -12 -503 -14
-530 -3 -9 4 -29 23 -45 43 -15 21 -50 66 -77 100 -91 120 -228 444 -266 632
-20 101 2 112 47 24 14 -29 62 -89 106 -134 73 -75 84 -83 136 -94 65 -13 180
-5 221 16 58 30 154 179 172 269 6 30 25 81 42 113 27 48 47 68 112 111 108
74 292 222 342 276 82 89 138 239 174 468 18 118 22 187 23 398 1 140 2 261 3
268 3 16 51 15 132 -3z m-5264 -30 c29 -7 82 -32 122 -59 67 -44 71 -49 78
-93 11 -74 -1 -229 -20 -258 -27 -41 -36 -29 -36 45 0 79 -15 97 -51 64 -38
-34 -52 -73 -47 -133 3 -31 7 -63 9 -70 3 -12 -12 -15 -84 -15 -75 -1 -91 -4
-102 -20 -19 -25 -4 -52 39 -70 42 -18 52 -34 34 -53 -15 -14 -392 -112 -435
-113 -28 0 -49 30 -73 109 -28 88 -60 250 -53 267 3 8 17 14 32 14 59 0 63 12
62 173 -1 108 2 155 13 182 18 42 34 45 41 8 19 -91 29 -122 55 -179 50 -112
70 -100 168 93 l67 134 65 -7 c35 -4 87 -12 116 -19z m7224 -66 c81 -12 120
-27 120 -46 0 -21 -16 -49 -70 -123 -26 -36 -58 -85 -70 -110 -35 -70 -201
-315 -279 -413 -39 -48 -86 -111 -105 -140 -35 -51 -111 -154 -204 -272 -65
-83 -312 -335 -329 -335 -7 0 -13 8 -13 18 0 22 41 110 74 159 14 21 26 51 26
68 0 66 -94 211 -168 260 -20 13 -57 28 -81 34 -86 19 -79 45 17 57 64 8 98
34 131 99 33 67 33 137 -1 171 -24 25 -28 25 -79 15 -75 -15 -287 -33 -299
-26 -13 8 -13 56 2 128 11 52 10 68 -9 145 -36 141 -37 155 -16 175 11 9 66
25 128 38 61 11 155 32 210 45 123 30 297 53 475 64 156 10 445 4 540 -11z
m-3056 -135 c21 -21 12 -34 -24 -34 -32 0 -80 19 -80 31 0 22 83 25 104 3z
m-362 -16 c-7 -7 -42 -14 -80 -16 -45 -3 -64 -1 -57 6 14 14 41 19 100 21 38
1 46 -2 37 -11z m3680 -117 c4 -45 13 -90 20 -98 19 -24 19 -603 -1 -626 -11
-14 -11 -21 3 -42 9 -14 12 -25 7 -25 -16 0 -56 76 -101 190 -23 58 -69 157
-102 221 -46 87 -59 122 -55 141 7 28 117 211 168 281 19 25 39 45 44 43 6 -1
13 -40 17 -85z m-7156 45 c3 -13 4 -32 3 -42 -2 -11 0 -25 5 -32 12 -20 -2
-78 -28 -109 -13 -15 -26 -40 -30 -55 -8 -33 -39 -64 -73 -73 -29 -7 -78 19
-100 52 -17 25 -15 26 80 38 75 10 88 29 86 126 -1 64 2 84 16 99 24 26 33 25
41 -4z m3284 -12 c-18 -21 -24 -10 -9 18 8 14 14 18 17 10 2 -7 -2 -19 -8 -28z
m-56 -189 c-7 -17 9 -48 53 -101 37 -46 42 -70 14 -79 -28 -8 -30 -21 -38
-181 -3 -79 -11 -151 -17 -159 -7 -10 -45 -18 -116 -25 -340 -35 -347 -37
-336 -93 8 -38 50 -94 96 -124 28 -19 46 -23 118 -23 l85 0 -65 -68 c-71 -74
-148 -184 -148 -214 0 -23 28 -23 160 -3 52 8 98 11 101 7 4 -4 15 -56 24
-117 9 -60 25 -144 36 -185 23 -91 35 -205 22 -213 -5 -3 -110 44 -234 105
l-224 111 -190 191 c-178 178 -194 198 -253 303 -71 127 -154 299 -172 358
-15 50 -38 118 -59 172 -8 23 -12 45 -9 49 4 4 40 10 80 14 42 4 91 16 115 29
24 12 82 31 130 42 49 11 144 38 213 59 69 21 161 48 205 58 127 31 388 102
393 107 9 9 21 -6 16 -20z m-4550 -38 c17 -13 17 -14 1 -31 -23 -22 -39 -16
-43 17 -4 30 13 35 42 14z m181 -102 c9 -49 29 -139 45 -200 16 -60 31 -129
35 -153 3 -23 17 -72 31 -107 13 -36 24 -78 24 -94 0 -20 8 -34 25 -45 24 -16
34 -50 16 -60 -11 -7 -105 126 -167 234 -26 47 -76 132 -110 189 l-63 104 46
91 c54 108 83 151 93 139 5 -4 16 -48 25 -98z m105 55 c0 -26 8 -51 21 -70 15
-19 28 -64 40 -137 22 -124 23 -147 9 -138 -5 3 -10 13 -10 22 0 8 -9 26 -19
39 -12 16 -22 49 -26 95 -4 39 -13 83 -21 98 -16 30 -19 131 -4 131 6 0 10
-18 10 -40z m1341 -133 c21 -14 46 -46 64 -83 17 -34 39 -69 48 -79 10 -9 24
-29 32 -44 7 -15 39 -47 70 -70 65 -49 68 -71 12 -83 -71 -15 -207 -100 -207
-130 0 -5 -20 -34 -45 -65 -50 -61 -55 -81 -25 -108 19 -17 23 -17 53 -3 17 8
71 52 119 97 90 83 119 96 138 62 15 -29 13 -35 -30 -87 -22 -27 -45 -64 -52
-84 -6 -19 -26 -57 -44 -85 -41 -63 -59 -123 -50 -169 8 -44 29 -56 95 -56 49
0 117 29 233 99 l37 22 23 -38 c13 -21 37 -64 53 -95 15 -32 37 -65 47 -75 18
-16 21 -16 55 2 118 64 186 238 149 383 -9 35 -16 68 -16 73 0 18 67 9 85 -11
17 -19 17 -40 11 -357 -13 -578 -19 -680 -42 -703 -24 -24 -138 -35 -537 -50
-287 -11 -360 -20 -390 -48 -53 -47 -84 -172 -66 -263 11 -56 9 -102 -10 -234
-5 -38 -10 -131 -10 -206 -1 -136 -7 -199 -20 -199 -4 0 -75 66 -157 148 -130
127 -158 161 -212 252 -34 58 -70 128 -81 155 -10 28 -33 86 -51 130 -18 44
-46 116 -62 160 -17 44 -43 112 -59 150 -32 76 -57 180 -46 191 3 3 27 10 53
15 26 5 55 16 65 25 15 14 21 12 64 -26 81 -70 129 -85 173 -54 31 22 28 57
-14 153 -44 102 -76 227 -72 281 4 49 22 54 26 6 2 -19 12 -42 23 -51 10 -10
19 -28 19 -40 0 -41 57 -102 157 -167 54 -36 104 -72 112 -81 7 -10 22 -17 33
-17 28 0 76 27 88 49 24 46 3 189 -44 295 -38 87 -71 123 -126 141 -52 17
-100 63 -100 95 0 23 55 70 81 70 62 0 191 -101 261 -203 65 -96 116 -113 104
-34 -9 57 -63 180 -89 205 -30 28 -182 99 -232 107 -22 4 -60 23 -85 42 -43
33 -48 34 -102 28 -64 -7 -56 -13 -89 74 -27 73 -191 219 -265 237 -16 4 -37
13 -46 22 -25 21 -75 102 -83 133 -7 27 -6 27 162 83 259 86 474 125 729 134
39 2 59 -4 85 -21z m254 -7 c54 -16 109 -30 124 -30 43 0 51 -13 61 -96 5 -43
14 -94 19 -113 6 -19 8 -38 5 -42 -8 -14 -30 -10 -45 7 -9 11 -22 14 -44 10
-41 -8 -61 7 -130 100 -72 95 -109 160 -101 179 7 19 -3 20 111 -15z m-2034
-26 c7 -25 28 -71 49 -103 20 -31 49 -77 64 -103 14 -26 51 -80 81 -120 30
-40 55 -78 55 -85 0 -6 11 -24 24 -40 13 -15 47 -72 77 -127 37 -67 70 -113
104 -143 60 -54 62 -60 81 -186 28 -188 77 -321 150 -408 47 -56 61 -86 47
-100 -18 -18 -46 5 -127 103 -41 51 -104 127 -139 168 -35 41 -109 134 -164
205 -55 72 -117 146 -137 164 -20 19 -36 40 -36 46 0 6 -27 47 -60 91 -33 43
-87 132 -120 197 -50 98 -60 126 -60 168 0 81 68 319 91 319 5 0 14 -21 20
-46z m6089 16 c0 -30 -26 -87 -55 -121 -13 -17 -43 -66 -66 -109 -44 -85 -112
-170 -135 -170 -21 0 -17 23 6 38 11 7 20 21 20 32 0 11 5 20 10 20 6 0 20 21
31 48 11 26 28 56 38 67 10 11 44 64 75 118 56 96 76 116 76 77z m2238 -43
c12 -12 27 -39 33 -61 6 -23 37 -98 69 -167 78 -168 108 -257 191 -559 38
-140 85 -303 104 -362 39 -120 42 -143 19 -152 -8 -3 -57 12 -107 33 -191 81
-327 108 -491 98 -202 -13 -333 -69 -484 -207 -54 -49 -109 -108 -122 -131
-14 -22 -35 -53 -47 -69 -13 -15 -23 -37 -23 -47 0 -11 -7 -28 -16 -39 -15
-18 -15 -17 -10 16 3 19 71 166 151 325 131 262 145 295 145 342 0 60 -19 86
-59 81 -23 -3 -38 -27 -136 -223 -60 -121 -114 -219 -120 -218 -15 2 -22 60
-30 249 l-7 171 69 38 c37 20 90 53 117 73 51 37 446 474 446 493 0 6 30 45
66 86 36 42 86 108 111 147 77 121 83 125 131 83z m-1157 -17 c13 -10 18 -19
12 -20 -23 0 -153 -131 -153 -154 0 -11 9 -36 21 -55 20 -33 22 -33 70 -28 39
5 59 1 102 -18 28 -14 48 -25 42 -25 -5 -1 -30 -5 -55 -10 -28 -5 -63 -5 -92
2 -40 8 -56 19 -94 64 -32 37 -54 54 -70 54 -44 0 -47 -25 -42 -295 5 -256 1
-354 -17 -358 -5 -1 -23 37 -40 84 -32 92 -48 119 -73 119 -42 0 25 330 98
491 22 47 40 100 40 118 0 42 21 50 136 50 77 1 96 -2 115 -19z m-1954 -106
c70 -7 72 -10 74 -104 0 -30 4 -77 9 -105 25 -150 34 -191 46 -205 7 -8 26
-50 43 -93 17 -42 43 -95 57 -117 32 -48 28 -70 -21 -127 -32 -38 -41 -42 -88
-45 l-52 -3 -5 -48 c-7 -57 -30 -85 -60 -71 -12 5 -57 50 -100 99 -74 84 -82
97 -115 195 l-35 105 0 269 0 269 93 -7 c50 -3 120 -9 154 -12z m-5422 -197
c17 -72 30 -138 30 -144 0 -27 -21 -13 -43 28 -12 24 -41 62 -62 84 -22 23
-40 48 -40 56 0 16 67 109 79 109 3 0 20 -60 36 -133z m785 101 c22 -37 26
-79 9 -110 -15 -29 -31 -4 -23 38 4 23 2 33 -10 37 -21 8 -21 67 1 67 2 0 12
-15 23 -32z m186 -39 c8 -14 -14 -29 -33 -22 -7 3 -13 11 -13 19 0 17 36 19
46 3z m4754 -42 c0 -18 9 -50 21 -71 20 -37 20 -54 1 -42 -14 9 -42 94 -42
128 0 17 4 27 10 23 6 -3 10 -21 10 -38z m-3368 -57 c-2 -14 -10 -35 -18 -48
-14 -21 -16 -21 -44 -7 -38 19 -37 27 1 60 39 32 65 30 61 -5z m2613 2 c25
-18 37 -46 46 -108 5 -36 16 -82 25 -100 9 -19 14 -40 11 -47 -8 -21 -348
-119 -363 -104 -15 15 106 127 138 127 25 0 68 57 68 91 0 48 -35 62 -171 69
-105 4 -121 8 -141 27 -17 18 -19 23 -7 28 45 17 375 32 394 17z m2581 -160
c-26 -99 -41 -132 -61 -132 -24 0 -125 155 -125 194 0 21 15 24 116 25 l92 1
-22 -88z m-7569 -77 c87 -115 123 -155 136 -155 18 0 0 108 -22 136 -22 28
-28 64 -11 64 6 0 10 -7 10 -15 0 -9 6 -18 14 -21 8 -3 31 -34 51 -69 21 -34
69 -103 107 -151 39 -49 105 -141 148 -204 43 -63 125 -171 184 -239 149 -172
165 -209 72 -161 -22 10 -43 17 -47 14 -41 -25 78 -185 149 -199 44 -10 268
-100 290 -117 6 -6 12 -23 12 -39 0 -29 0 -29 -33 -15 -19 7 -58 17 -88 21
-66 9 -94 19 -139 50 -37 25 -145 45 -246 45 -48 0 -60 -4 -85 -29 -36 -37
-38 -77 -5 -146 47 -103 164 -173 304 -183 62 -4 72 -7 66 -21 -25 -59 -33
-93 -34 -142 0 -87 33 -101 114 -47 53 35 92 87 102 136 14 69 43 45 70 -58
20 -76 38 -116 67 -147 24 -27 45 -29 73 -8 30 22 51 18 77 -17 31 -42 77
-133 77 -153 0 -8 -31 -35 -69 -59 -38 -25 -90 -61 -117 -81 -26 -20 -69 -47
-95 -61 -27 -13 -76 -49 -110 -79 -34 -30 -67 -55 -75 -55 -7 0 -41 32 -76 72
-35 39 -99 111 -143 160 -162 181 -238 273 -306 372 -38 55 -85 124 -104 151
-72 101 -255 504 -255 562 0 40 -22 94 -55 133 -37 44 -67 117 -93 223 -16 67
-16 70 3 83 10 8 29 14 41 14 43 0 47 18 30 165 -18 157 -39 249 -65 285 -28
40 -61 107 -61 126 0 26 47 -22 137 -141z m7328 0 c30 -44 72 -119 96 -168 38
-81 43 -97 55 -225 32 -322 45 -409 70 -475 8 -20 14 -47 14 -58 0 -30 -62
-168 -104 -231 -27 -41 -40 -76 -52 -139 -8 -46 -21 -93 -28 -104 -8 -11 -17
-36 -21 -55 -9 -45 -162 -438 -181 -468 -32 -48 -53 -48 -165 2 -204 91 -192
82 -205 156 -7 36 -23 121 -37 190 -30 146 -72 489 -63 522 3 13 41 63 85 111
86 95 107 136 141 281 19 78 38 255 43 389 2 69 17 90 28 39 16 -77 99 -149
156 -136 43 10 111 52 129 80 16 23 15 28 -21 101 -34 68 -39 86 -43 174 -2
54 -2 105 2 115 6 15 8 15 27 -2 12 -10 45 -55 74 -99z m-6316 48 c17 -61 9
-423 -9 -423 -4 0 -13 19 -21 43 -15 46 -20 340 -6 390 10 38 24 34 36 -10z
m2913 -140 c43 -46 52 -71 35 -96 -8 -12 -26 -29 -41 -37 -37 -19 -46 -4 -46
81 0 88 9 97 52 52z m1083 -182 c22 -124 15 -156 -13 -66 -26 87 -36 149 -28
172 7 16 8 16 16 2 5 -9 17 -58 25 -108z m-5270 -47 c34 -51 53 -109 74 -220
11 -62 38 -143 105 -327 20 -54 36 -111 36 -128 0 -26 -3 -30 -22 -27 -16 2
-30 17 -44 46 -35 73 -53 77 -119 27 l-46 -36 -56 51 c-58 51 -203 130 -239
130 -12 0 -36 -10 -55 -23 -63 -42 -51 -97 44 -210 80 -94 84 -87 -50 -85
-140 3 -148 0 -268 -105 -62 -55 -81 -67 -83 -53 -2 9 7 31 21 49 13 18 29 47
35 64 6 18 24 50 41 70 16 21 41 70 56 108 30 77 227 478 246 501 18 21 30 17
83 -26 57 -47 107 -53 162 -19 71 44 92 107 54 164 -11 17 -20 36 -20 43 0 7
-18 43 -40 79 -22 37 -40 71 -40 76 0 13 88 -91 125 -149z m1393 32 c-2 -31
-7 -57 -13 -59 -11 -2 -20 97 -10 121 12 32 26 -6 23 -62z m2964 -13 c18 -15
74 -66 125 -114 152 -144 335 -257 576 -356 183 -74 179 -71 210 -153 33 -82
108 -396 100 -416 -7 -19 -26 -17 -65 5 -18 11 -94 36 -168 56 -167 46 -669
210 -844 276 -72 28 -204 70 -294 95 -264 72 -302 91 -302 149 0 67 23 88 297
263 54 34 130 90 168 123 82 71 124 99 147 99 9 0 31 -12 50 -27z m-2962 -192
c0 -43 -21 -8 -26 40 l-4 44 14 -30 c9 -16 15 -41 16 -54z m3917 -43 c-2 -13
-4 -5 -4 17 -1 22 1 32 4 23 2 -10 2 -28 0 -40z m-3920 -145 c-3 -10 -5 -2 -5
17 0 19 2 27 5 18 2 -10 2 -26 0 -35z m7489 -108 c4 -8 -4 -34 -16 -57 -31
-59 -37 -152 -13 -198 30 -58 74 -54 154 15 52 44 79 56 79 34 0 -15 -100
-199 -109 -199 -3 0 -12 -14 -18 -30 -10 -27 -14 -29 -36 -21 -45 18 -133 70
-172 104 -58 51 -57 59 55 277 48 94 63 109 76 75z m-3453 -47 c13 -18 36 -54
50 -79 15 -26 33 -49 42 -53 8 -3 15 -14 15 -25 0 -45 143 -202 221 -242 25
-12 43 -32 57 -62 29 -61 55 -155 46 -168 -11 -18 -113 -1 -281 47 -49 14 -53
18 -63 57 -27 106 -56 199 -87 279 -18 48 -33 95 -33 104 0 10 -8 26 -17 37
-31 34 -18 137 18 137 4 0 19 -15 32 -32z m-1954 -54 c24 -30 28 -84 8 -84
-32 0 -75 78 -54 99 16 16 23 14 46 -15z m4837 -80 c32 -20 86 -52 119 -71 33
-19 92 -58 130 -87 39 -30 86 -61 105 -71 19 -9 49 -30 65 -45 17 -15 113 -83
215 -150 174 -116 301 -211 308 -231 3 -6 -45 -7 -117 -3 -104 6 -121 5 -126
-9 -7 -16 11 -55 47 -99 12 -15 18 -31 14 -35 -16 -17 -409 202 -596 331 -41
29 -104 69 -139 90 -65 37 -186 133 -229 179 -23 24 -23 26 -5 35 23 13 88
-13 118 -48 46 -52 128 -67 165 -30 41 41 12 102 -87 183 -69 56 -82 75 -66
90 10 11 16 9 79 -29z m-4340 -119 c-13 -32 -23 -45 -37 -45 -31 0 -24 44 12
75 17 14 34 23 37 21 3 -3 -3 -26 -12 -51z m154 16 c0 -6 -4 -13 -10 -16 -5
-3 -10 -26 -10 -50 0 -49 -9 -60 -35 -41 -21 15 -13 68 16 97 20 20 39 25 39
10z m118 -17 c32 -9 65 -21 76 -26 17 -9 16 -12 -13 -38 -17 -16 -31 -36 -31
-44 0 -20 -34 -38 -55 -30 -13 5 -16 18 -13 57 3 47 1 52 -25 65 -15 7 -25 17
-22 23 8 12 18 12 83 -7z m-665 -137 c84 -78 170 -157 192 -176 51 -43 58 -56
46 -80 -24 -44 -193 -85 -292 -71 -139 20 -170 15 -320 -51 -94 -41 -148 -72
-174 -97 -40 -40 -135 -220 -135 -256 0 -13 -14 -43 -31 -67 -41 -58 -140
-159 -156 -159 -7 0 -30 -18 -52 -40 -37 -37 -129 -90 -158 -90 -26 0 -12 21
37 56 58 42 133 137 167 214 13 30 31 58 39 63 21 12 19 113 -4 156 -28 56
-64 76 -136 76 -52 0 -76 -7 -139 -38 -117 -58 -179 -137 -261 -332 -41 -97
-69 -136 -86 -119 -20 20 47 220 107 323 34 58 115 145 162 173 95 57 141 91
146 109 8 25 -20 69 -43 69 -22 0 -97 -56 -217 -162 -84 -75 -115 -92 -115
-65 0 16 45 83 84 125 17 19 69 61 116 94 47 33 95 72 107 86 27 32 30 70 6
79 -22 9 -109 -38 -200 -109 -72 -55 -103 -70 -103 -48 0 6 9 18 20 27 11 10
20 25 20 34 0 29 46 74 109 108 69 37 101 72 101 112 0 29 -22 59 -45 59 -7 0
-35 -17 -62 -38 -77 -62 -131 -94 -142 -87 -30 18 13 125 63 157 30 18 44 19
371 12 304 -6 347 -5 405 11 36 9 144 32 240 50 96 18 176 34 178 34 2 1 72
-63 155 -142z m4323 68 c4 -23 -1 -58 -15 -105 -26 -86 -27 -117 -7 -200 9
-36 16 -92 16 -126 0 -115 30 -176 174 -354 86 -105 197 -212 253 -242 82 -45
320 -98 440 -98 259 0 539 170 680 414 7 11 13 31 13 43 0 34 11 53 30 53 22
0 25 -10 40 -115 15 -110 30 -176 45 -201 8 -12 18 -56 24 -99 6 -43 25 -138
41 -210 51 -222 52 -230 29 -404 -15 -115 -18 -181 -13 -251 l6 -95 -48 -64
c-83 -110 -142 -162 -259 -227 -152 -85 -232 -105 -445 -111 -143 -4 -179 -2
-270 17 -155 32 -403 130 -439 174 -17 21 -10 20 91 -4 95 -23 262 -37 271
-24 6 10 -52 290 -78 380 -26 91 -178 291 -294 388 -81 68 -285 168 -421 208
-52 14 -294 58 -326 58 -16 0 10 112 47 203 21 53 39 105 39 113 0 19 228 594
301 760 27 61 49 120 49 132 0 35 18 25 26 -13z m-3341 -34 c39 -23 42 -42 10
-80 -33 -38 -45 -32 -45 20 0 37 -2 39 -31 39 -29 0 -31 -2 -24 -27 3 -15 7
-32 8 -38 3 -13 -62 -10 -76 4 -11 11 -29 120 -21 132 6 10 141 -28 179 -50z
m-823 24 c74 -30 102 -55 134 -117 13 -26 36 -62 52 -80 15 -18 35 -49 44 -68
8 -19 46 -77 83 -128 101 -140 104 -150 107 -338 l3 -159 -25 3 c-38 4 -257
116 -332 169 -148 106 -209 157 -214 180 -17 68 34 41 216 -111 157 -131 218
-159 262 -119 27 24 22 55 -23 161 -97 228 -166 339 -304 492 -42 47 -85 97
-96 113 l-20 27 26 0 c14 0 53 -11 87 -25z m3104 -20 c8 -19 19 -81 24 -137
14 -131 36 -251 66 -356 29 -99 30 -122 6 -122 -9 0 -59 13 -111 30 -51 16
-114 32 -139 36 -67 10 -95 43 -127 150 -15 49 -39 109 -53 135 l-25 45 33 67
c46 91 73 114 182 152 120 43 126 43 144 0z m-446 -50 c0 -19 -65 -61 -110
-70 -45 -9 -75 -31 -183 -129 -70 -63 -91 -77 -98 -65 -17 27 -30 84 -36 167
-6 76 -5 82 13 83 10 0 75 6 144 13 183 19 270 20 270 1z m-1633 -18 c11 -11
11 -20 3 -43 -22 -57 -61 -79 -100 -54 -13 8 -13 14 -1 42 8 18 14 44 13 57 0
21 3 23 36 17 19 -3 42 -11 49 -19z m-515 -77 c145 -44 304 -91 353 -105 50
-13 189 -58 310 -100 121 -42 297 -103 390 -135 94 -31 189 -67 210 -78 51
-26 92 -71 140 -152 21 -36 67 -107 101 -158 35 -51 68 -109 73 -130 6 -20 22
-54 36 -74 32 -47 33 -84 3 -92 -13 -3 -122 -6 -243 -6 l-220 0 -65 102 c-78
120 -142 182 -213 203 -58 17 -130 20 -157 5 -24 -13 -115 -128 -131 -166 -29
-66 -19 -64 -273 -64 -219 0 -505 12 -608 26 -68 9 -106 39 -158 126 -25 42
-61 95 -81 119 -38 46 -79 109 -79 121 0 16 57 -16 139 -77 47 -36 111 -77
141 -91 30 -15 84 -42 121 -60 86 -44 149 -58 200 -44 29 8 40 17 45 37 10 39
-4 239 -21 313 -27 112 -130 306 -268 504 -28 41 -33 56 -18 56 5 0 128 -36
273 -80z m670 32 c15 -15 16 -23 7 -53 -16 -49 -43 -83 -62 -76 -18 7 -33 102
-22 137 6 18 12 20 33 15 15 -3 35 -14 44 -23z m-4547 -8 c14 -15 22 -31 18
-36 -12 -20 -215 11 -249 38 -17 13 -13 14 41 9 33 -3 74 -2 90 4 51 16 75 12
100 -15z m4733 -80 c1 -16 -6 -45 -15 -64 -15 -30 -22 -34 -47 -32 -17 2 -40
8 -53 13 -23 9 -23 9 -6 35 21 32 92 86 107 81 6 -2 12 -17 14 -33z m305 -61
c59 -18 107 -35 107 -37 0 -1 -11 -17 -25 -36 -16 -22 -25 -47 -25 -72 0 -42
-13 -49 -30 -18 -8 16 -21 20 -60 20 -28 0 -50 3 -50 6 0 3 11 15 25 26 14 11
25 27 25 37 0 26 -44 63 -72 59 -19 -2 -24 -10 -26 -40 -3 -40 -16 -46 -70
-31 -23 5 -24 9 -17 59 5 45 3 56 -14 73 -12 12 -21 23 -21 25 0 6 117 -27
253 -71z m977 17 c8 -5 12 -12 9 -15 -8 -8 -39 5 -39 16 0 11 11 11 30 -1z
m-7060 -39 c104 -30 140 -48 196 -101 67 -63 170 -113 291 -141 64 -15 110
-32 142 -53 103 -70 162 -78 349 -46 113 19 142 21 189 11 75 -15 75 -15 116
13 43 29 38 32 141 -94 214 -264 284 -346 309 -358 38 -18 36 -65 -7 -161 -19
-42 -40 -98 -46 -126 -9 -43 -28 -103 -36 -113 -7 -9 -167 84 -182 105 -44 62
-66 83 -108 99 -56 21 -97 11 -181 -46 l-58 -39 -37 36 -38 37 -48 -12 c-27
-7 -99 -12 -165 -11 -113 2 -118 1 -158 -26 -45 -32 -59 -52 -59 -88 0 -31 15
-43 87 -73 32 -13 53 -24 46 -24 -133 -2 -355 -78 -383 -129 -19 -36 58 -133
120 -152 19 -6 105 -13 190 -16 147 -5 159 -4 230 20 41 14 79 22 84 17 13
-13 -3 -68 -31 -101 -14 -16 -35 -58 -47 -92 -31 -89 -51 -100 -301 -167 -151
-40 -139 -60 35 -60 169 0 249 26 393 127 50 35 75 40 127 22 26 -10 42 -9 79
4 44 16 180 41 186 35 2 -2 -3 -32 -11 -68 -18 -81 -160 -370 -245 -500 -35
-52 -92 -124 -128 -160 -64 -64 -220 -169 -312 -209 -125 -56 -432 -67 -571
-22 -62 20 -89 41 -54 41 8 0 28 11 44 25 24 20 32 38 41 88 15 88 14 178 -3
203 -8 11 -19 39 -26 63 -6 24 -34 94 -61 157 -27 62 -49 123 -49 135 0 25 26
59 46 59 36 0 162 -218 199 -343 20 -69 59 -107 84 -82 13 13 14 27 4 102 -15
116 -47 194 -144 344 -44 68 -82 134 -86 147 -3 12 6 69 21 125 66 260 72 337
30 386 -31 38 -71 42 -83 9 -4 -13 -11 -65 -14 -116 -4 -51 -11 -101 -16 -110
-5 -10 -14 -53 -20 -96 -6 -43 -13 -82 -16 -86 -3 -5 -33 -27 -66 -50 l-62
-42 7 34 c22 112 27 180 24 319 -3 148 -5 158 -33 212 -40 80 -94 137 -130
137 -93 0 -189 -259 -151 -407 15 -59 -11 -37 -79 67 -75 114 -96 131 -127
103 -34 -30 -67 -109 -78 -181 -5 -38 -14 -82 -20 -96 -14 -38 -12 -72 6 -108
21 -41 92 -116 126 -134 35 -18 36 -42 3 -50 -40 -10 -68 2 -142 60 -46 36
-94 62 -143 80 -101 35 -108 43 -77 92 67 107 180 319 211 396 19 48 47 110
61 137 14 28 56 126 94 218 141 343 349 781 392 824 24 24 47 24 129 0z m525
-3 c-9 -30 -56 -98 -77 -112 -13 -7 -29 -4 -67 14 -61 28 -88 54 -70 66 26 16
156 53 187 54 30 0 33 -2 27 -22z m5798 -64 c4 -4 -6 -29 -21 -55 -23 -43 -25
-51 -14 -70 19 -30 9 -34 -40 -14 -67 27 -73 35 -36 54 17 9 40 33 51 54 17
34 43 47 60 31z m689 -44 c13 -26 18 -60 18 -131 0 -108 -18 -185 -55 -226
-35 -42 -40 -13 -16 92 35 147 28 192 -39 224 -39 19 -51 41 -22 41 11 0 22 9
25 21 4 16 12 20 39 17 26 -2 37 -10 50 -38z m2220 -23 c40 -20 86 -47 102
-60 l29 -24 -59 -112 c-66 -126 -104 -178 -122 -167 -8 4 -12 36 -12 85 0 85
-8 101 -52 101 -20 0 -35 -10 -55 -36 -113 -148 -156 -153 -97 -11 27 64 35
164 19 237 l-7 33 90 -5 c79 -4 99 -9 164 -41z m-2782 -22 c0 -31 -23 -90 -40
-100 -18 -11 -60 4 -60 22 0 17 77 103 92 103 4 0 8 -11 8 -25z m-5652 -19
c32 -18 77 -44 101 -57 46 -25 64 -49 37 -49 -24 0 -179 50 -203 66 -25 16
-30 43 -11 62 16 16 12 17 76 -22z m3762 5 c27 -26 69 -136 57 -148 -11 -10
-45 9 -102 57 -32 27 -67 53 -77 56 -23 7 -23 40 0 53 35 21 92 13 122 -18z
m-455 -48 c33 -33 89 -144 152 -296 58 -144 67 -160 110 -208 37 -40 40 -76 5
-65 -27 9 -241 25 -427 32 l-170 6 -37 -52 c-37 -51 -38 -55 -37 -134 0 -44 6
-101 12 -126 11 -39 16 -45 47 -52 19 -4 206 -12 415 -18 527 -15 532 -15 645
-116 87 -77 208 -166 289 -213 198 -114 252 -141 314 -156 37 -10 67 -20 67
-24 0 -3 -24 -20 -53 -38 -119 -73 -457 -353 -574 -476 -90 -95 -130 -153
-145 -213 -6 -27 -18 -57 -26 -66 -8 -9 -16 -44 -19 -77 -3 -35 -11 -61 -17
-61 -6 0 -40 26 -76 56 -50 44 -226 168 -334 236 -23 15 -268 118 -294 124
-15 4 -40 15 -57 24 -16 10 -59 26 -95 35 -36 9 -141 45 -235 80 -93 34 -260
93 -370 130 -110 37 -208 71 -217 76 -25 14 -22 55 8 119 14 30 43 100 64 155
21 55 49 125 63 156 29 61 44 117 81 293 14 65 32 128 39 140 8 12 58 46 111
76 168 95 240 167 323 324 61 115 118 192 177 241 56 46 183 114 212 115 12 0
34 -12 49 -27z m2495 -12 c0 -49 -35 -98 -56 -80 -9 7 -12 20 -8 33 6 21 51
86 60 86 2 0 4 -17 4 -39z m3845 20 c175 -17 175 -18 188 -361 6 -157 7 -288
1 -340 l-9 -85 -73 1 c-40 1 -75 4 -77 6 -2 2 5 33 17 68 36 113 25 448 -17
531 -11 20 -25 27 -75 37 -94 17 -110 31 -110 97 l0 55 33 0 c17 0 73 -4 122
-9z m-3591 -51 c16 -16 17 -23 7 -51 -6 -18 -19 -41 -28 -51 -30 -34 -102 -18
-150 34 l-22 23 34 37 c49 53 63 59 105 42 19 -8 43 -23 54 -34z m-3544 -128
c0 -11 -14 -47 -31 -80 -36 -72 -77 -102 -182 -129 -63 -16 -68 -17 -84 -1
-15 16 -15 20 11 56 28 41 130 128 181 155 17 9 47 16 68 17 29 0 37 -4 37
-18z m7087 -98 c3 -9 1 -55 -5 -102 -13 -97 -32 -133 -32 -60 0 25 -7 58 -15
74 -21 41 -2 104 32 104 7 0 16 -7 20 -16z m-7906 -25 c28 -15 18 -24 -74 -70
-45 -23 -93 -52 -107 -66 -14 -13 -77 -57 -141 -97 -64 -40 -138 -89 -164
-109 -26 -21 -52 -37 -56 -37 -15 0 -21 47 -10 69 7 11 24 24 39 27 15 4 33
16 40 26 7 10 20 18 27 18 8 0 20 9 27 20 7 11 20 20 29 20 9 0 38 17 65 38
51 40 184 122 198 122 5 0 19 11 32 25 24 27 62 32 95 14z m4363 -5 c9 -3 16
-17 16 -30 0 -26 -35 -55 -57 -47 -14 6 -43 54 -43 73 0 11 58 14 84 4z m497
-119 c49 -19 96 -35 104 -35 9 0 33 -9 53 -19 21 -11 77 -31 124 -44 81 -24
139 -48 198 -82 14 -8 37 -17 53 -20 34 -7 69 -41 65 -63 -6 -33 -68 -37 -321
-18 -133 10 -395 22 -582 26 -187 5 -341 9 -342 9 -6 3 -33 99 -33 115 1 20 1
20 11 3 26 -44 145 -62 216 -32 19 8 43 15 52 15 10 0 60 40 112 88 52 49 101
92 109 95 26 11 89 -2 181 -38z m-4690 -4 c30 -30 39 -46 39 -74 0 -19 -7 -40
-15 -47 -9 -7 -13 -21 -9 -35 3 -12 -2 -48 -11 -80 -17 -55 -16 -58 3 -84 15
-20 29 -26 58 -27 22 -1 43 -2 47 -3 4 0 -27 -69 -69 -152 -57 -112 -84 -155
-106 -169 -48 -29 -258 -38 -368 -16 -139 28 -196 47 -231 75 -29 24 -33 35
-37 88 -3 46 1 71 16 104 36 81 230 269 277 269 9 0 31 10 48 23 18 13 61 36
97 50 64 27 91 42 159 92 19 14 41 25 49 25 8 0 32 -17 53 -39z m4319 0 c0 -5
-17 -24 -37 -41 -26 -23 -38 -29 -41 -20 -3 8 9 26 27 42 32 28 51 36 51 19z
m-1195 -37 c22 -23 6 -37 -44 -40 -21 -1 -59 -14 -83 -28 -52 -30 -60 -32 -52
-11 10 24 114 95 140 95 12 0 30 -7 39 -16z m-2625 -28 c0 -15 -55 -66 -71
-66 -18 0 -8 32 17 55 30 28 54 32 54 11z m2630 -122 c0 -21 -5 -24 -40 -24
-46 0 -50 11 -15 46 21 21 29 23 40 14 8 -7 15 -23 15 -36z m146 -15 c17 -33
18 -49 4 -49 -14 0 -50 60 -50 84 0 16 2 16 16 5 8 -7 22 -25 30 -40z m-3162
2 c7 -10 -18 -34 -27 -25 -7 8 3 34 13 34 5 0 11 -4 14 -9z m276 -10 c14 -28
12 -106 -4 -144 -23 -57 -217 -250 -233 -233 -3 3 15 50 40 105 26 54 47 107
47 118 0 36 103 173 130 173 5 0 14 -9 20 -19z m900 -10 c0 -9 -53 -31 -76
-31 -20 0 -17 28 4 33 31 8 72 7 72 -2z m533 -38 c10 -10 -13 -33 -34 -33 -24
0 -35 20 -18 31 17 10 43 12 52 2z m125 -2 c9 -5 12 -28 10 -77 l-3 -69 -39
-3 c-38 -3 -38 -3 -22 20 23 33 20 75 -8 103 -13 13 -21 26 -18 29 8 9 65 7
80 -3z m271 -2 c32 -11 33 -14 35 -94 1 -39 5 -50 19 -53 69 -14 107 55 60
109 -12 15 -7 17 54 22 93 7 317 -9 348 -25 l26 -14 -38 -25 c-27 -17 -41 -35
-49 -64 -9 -33 -15 -40 -35 -40 -23 0 -24 3 -21 50 5 70 -15 87 -98 86 -34 0
-73 -6 -88 -13 -23 -11 -28 -21 -32 -68 l-5 -55 -65 -3 c-82 -4 -280 16 -297
30 -10 8 -10 16 2 39 18 34 19 71 4 86 -7 7 -9 19 -6 27 5 13 22 16 80 16 41
0 88 -5 106 -11z m-699 -49 c51 -14 51 -30 0 -30 -29 0 -40 -4 -40 -15 0 -8
-6 -15 -14 -15 -10 0 -17 16 -21 44 -9 55 1 76 21 47 8 -11 33 -25 54 -31z
m1529 10 c43 -22 32 -154 -13 -166 -30 -7 -133 20 -157 42 -19 17 -25 58 -13
89 14 37 137 60 183 35z m-1382 -74 c-4 -9 -11 -16 -17 -16 -11 0 -14 33 -3
44 11 10 26 -11 20 -28z m133 25 c0 -5 -8 -17 -17 -27 -20 -20 -32 -1 -13 21
14 17 30 20 30 6z m720 -46 c0 -30 -4 -55 -10 -55 -12 0 -24 63 -15 89 12 39
25 21 25 -34z m2900 48 c-1 -5 -14 -24 -30 -43 -31 -36 -39 -26 -20 24 9 23
51 39 50 19z m-6206 -73 c0 -27 -6 -56 -13 -64 -11 -13 -11 -19 -1 -31 10 -12
9 -15 -8 -15 -22 0 -72 53 -72 76 0 24 28 72 52 88 31 22 43 6 42 -54z m2114
64 c12 -4 22 -13 22 -20 0 -10 -15 -14 -55 -14 -59 0 -71 12 -27 28 34 13 33
13 60 6z m4475 -31 c-7 -2 -19 -2 -25 0 -7 3 -2 5 12 5 14 0 19 -2 13 -5z
m-3023 -27 c0 -16 -24 -38 -33 -30 -8 9 11 44 23 44 6 0 10 -6 10 -14z m3179
-41 c92 -47 161 -98 149 -110 -4 -4 -22 5 -39 19 -18 15 -72 47 -120 71 -83
42 -114 65 -89 65 7 0 51 -20 99 -45z m-2787 -67 c-31 -69 -69 -108 -106 -108
-40 0 -69 20 -65 45 3 13 19 22 57 30 61 14 107 52 119 99 l7 31 4 -27 c2 -15
-5 -47 -16 -70z m2443 72 c3 -5 -3 -30 -14 -55 -25 -56 -47 -58 -91 -8 l-33
37 23 18 c24 19 104 25 115 8z m244 -65 c105 -54 255 -171 259 -202 3 -21 -42
-111 -85 -169 -12 -17 -40 -69 -62 -115 -21 -47 -47 -91 -56 -99 -50 -41 -110
-186 -156 -370 -39 -159 -66 -209 -143 -266 -34 -24 -65 -44 -70 -45 -4 0 -30
49 -57 108 -79 172 -109 184 -109 47 0 -45 9 -108 25 -168 14 -53 25 -101 25
-106 0 -38 -100 53 -187 173 -86 116 -123 135 -123 64 0 -53 17 -95 58 -145
46 -55 82 -112 82 -129 0 -19 -104 -17 -140 2 -33 17 -65 57 -105 133 -42 77
-84 81 -121 10 -8 -16 -25 -30 -42 -34 -75 -16 -89 -42 -57 -104 22 -42 58
-48 111 -19 52 28 97 19 102 -20 5 -32 -12 -41 -81 -41 -73 0 -117 18 -151 62
-28 37 -66 137 -66 173 0 81 233 294 489 445 220 130 199 108 269 272 34 79
82 203 108 274 25 71 66 171 90 222 42 86 46 92 75 92 17 0 70 -20 118 -45z
m-324 -123 c19 -10 19 -12 3 -28 -14 -15 -21 -15 -48 -4 -36 15 -76 60 -101
115 -35 76 -21 76 54 1 39 -41 81 -78 92 -84z m-2995 93 c96 -8 190 -18 208
-21 35 -7 41 -16 61 -91 16 -58 66 -121 135 -168 33 -22 59 -44 60 -50 2 -19
-92 -29 -152 -17 -97 19 -472 222 -567 306 -69 61 -38 66 255 41z m394 -64
c32 -62 78 -101 119 -101 18 0 55 14 82 30 59 35 75 37 75 11 0 -35 -145 -117
-185 -105 -31 9 -85 53 -85 69 0 7 -12 27 -26 44 -31 38 -45 101 -20 101 9 0
26 -21 40 -49z m2394 -24 c29 -22 62 -54 74 -70 l21 -30 -22 -18 c-33 -27
-119 -57 -291 -101 -123 -32 -173 -40 -241 -40 -104 0 -262 18 -344 38 -72 19
-207 92 -276 151 -28 24 -57 43 -65 43 -8 0 -14 6 -14 14 0 38 152 24 310 -28
120 -39 240 -66 300 -66 104 0 299 59 404 123 33 20 66 33 75 30 9 -3 40 -24
69 -46z m838 36 c29 -18 168 -188 194 -236 10 -18 27 -50 39 -72 21 -40 29
-101 11 -90 -5 3 -34 54 -65 113 -32 63 -80 136 -115 177 -103 119 -118 144
-64 108z m-2666 -14 c0 -14 -63 -39 -101 -39 -36 0 -35 18 2 37 29 15 99 17
99 2z m483 -21 c12 -6 61 -48 110 -94 48 -46 118 -101 155 -123 87 -53 99 -62
116 -96 17 -32 7 -55 -23 -55 -25 0 -112 44 -147 73 -18 15 -40 27 -49 27 -27
0 -72 36 -192 154 -78 76 -109 112 -100 118 18 12 105 10 130 -4z m733 -3
c-33 -25 -134 -17 -109 9 3 3 34 6 67 6 56 -1 59 -2 42 -15z m-938 -65 c18
-30 38 -73 44 -94 l12 -39 -109 -100 c-159 -145 -320 -311 -395 -406 -82 -104
-219 -318 -226 -351 -5 -25 -16 -48 -80 -165 -40 -74 -82 -196 -100 -295 -9
-45 -17 -184 -20 -350 -12 -534 27 -740 151 -804 114 -59 565 1 864 114 56 22
191 37 233 27 13 -4 38 -27 56 -52 18 -25 38 -47 45 -49 253 -77 254 -78 364
-79 l108 -2 32 -50 c18 -27 29 -52 25 -55 -4 -4 -29 -15 -57 -25 -121 -43
-416 -216 -468 -275 -15 -16 -53 -43 -85 -59 -141 -71 -221 -84 -737 -121
-477 -33 -496 -36 -722 -110 -221 -73 -219 -73 -396 46 -78 53 -185 129 -237
167 -52 39 -119 81 -149 93 -73 30 -83 51 -89 195 -6 151 7 232 73 475 67 241
115 471 115 546 0 30 4 68 10 84 5 16 26 120 45 232 78 442 152 561 558 892
97 80 203 167 235 193 74 62 259 188 387 262 55 32 111 67 125 76 14 10 78 38
142 63 64 25 130 52 145 60 45 25 65 16 101 -44z m-3662 -39 c-10 -15 -149
-69 -248 -97 -119 -32 -293 -44 -323 -21 -20 15 -19 16 8 26 16 6 52 11 81 11
69 0 215 25 346 60 114 30 144 35 136 21z m-1216 -51 c0 -70 -39 -130 -85
-130 -12 0 -43 -11 -68 -25 -121 -64 -267 -26 -267 70 0 31 32 65 63 65 52 1
234 11 263 16 17 2 41 15 54 29 29 31 40 24 40 -25z m426 9 c4 -7 -1 -16 -10
-21 -10 -5 -21 -19 -26 -31 -9 -22 -9 -22 -9 1 -2 44 28 78 45 51z m6920 -99
c14 -21 28 -57 31 -79 l6 -41 -46 0 c-59 0 -92 13 -112 44 -14 21 -15 31 -5
60 6 20 23 45 37 56 31 24 53 15 89 -40z m-816 -1 c0 -6 -14 -43 -30 -83 -30
-72 -61 -116 -81 -116 -15 0 -119 101 -119 116 0 17 24 30 130 70 83 31 100
33 100 13z m-1446 -81 c3 -24 8 -236 11 -473 3 -236 9 -450 14 -475 5 -25 14
-115 21 -200 17 -231 47 -501 81 -724 26 -164 29 -200 17 -208 -18 -12 -103
-2 -180 22 -34 11 -84 20 -109 20 -58 0 -192 40 -289 86 -60 28 -94 38 -167
45 -50 4 -136 18 -190 29 -54 12 -113 24 -131 27 -18 3 -37 14 -43 25 -16 30
-23 349 -10 503 12 149 38 268 67 313 10 15 53 95 97 177 159 303 242 404 562
685 176 155 219 189 237 190 4 0 9 -19 12 -42z m573 -3 c72 -30 203 -151 203
-187 0 -4 -15 -8 -32 -8 -57 0 -107 20 -129 50 -12 15 -30 30 -39 33 -23 6
-80 84 -80 109 0 22 27 24 77 3z m470 -36 c34 -12 99 -74 119 -111 13 -25 12
-28 -5 -38 -29 -15 -110 -12 -170 6 -39 11 -67 30 -109 71 -32 30 -52 57 -47
59 8 3 78 12 172 23 6 0 24 -4 40 -10z m2883 -59 l45 -18 -2 -193 c-3 -225
-16 -367 -40 -412 -31 -60 -339 -349 -578 -542 -60 -49 -137 -114 -170 -145
-64 -58 -212 -156 -222 -146 -19 18 114 163 299 326 142 125 356 319 441 400
l69 65 18 225 c21 244 38 412 47 448 6 25 10 24 93 -8z m-3795 -77 c-3 -13
-11 -23 -18 -20 -13 4 -11 25 6 66 l11 26 4 -24 c2 -12 1 -34 -3 -48z m170 55
c27 -12 32 -27 13 -46 -32 -32 -96 9 -67 44 14 17 21 17 54 2z m1934 -19 c122
-25 138 -24 184 8 42 29 50 26 64 -26 8 -32 -8 -55 -40 -59 -27 -3 -330 64
-360 80 -10 5 -15 13 -12 18 6 10 13 9 164 -21z m-1738 -115 c54 -59 154 -74
336 -50 135 18 233 21 233 7 0 -5 -29 -33 -65 -61 -36 -28 -73 -61 -82 -74
-10 -12 -39 -34 -65 -49 -57 -33 -171 -156 -200 -215 -18 -38 -20 -55 -15
-126 4 -44 14 -108 23 -141 22 -79 22 -179 0 -290 -12 -63 -19 -160 -23 -320
-7 -310 11 -547 53 -694 7 -23 5 -24 -27 -17 -19 3 -104 41 -190 82 l-156 76
-27 127 c-14 69 -31 162 -36 206 -6 44 -19 125 -30 180 -29 149 -48 273 -64
440 -20 196 -55 667 -58 775 -3 85 -3 85 23 88 19 2 31 -4 43 -22 33 -52 90
-32 214 76 42 36 81 37 113 2z m-4193 -43 c57 -46 228 -126 371 -175 152 -52
191 -71 191 -92 0 -24 38 -91 56 -98 9 -3 45 3 81 14 36 11 69 20 75 20 5 0
24 -17 43 -37 31 -34 40 -38 85 -39 34 0 71 -10 110 -29 57 -27 62 -28 110
-16 63 16 89 10 157 -39 l54 -38 -203 -4 c-236 -4 -254 -8 -244 -66 8 -52 59
-150 119 -232 61 -83 128 -122 241 -141 99 -17 259 -7 321 19 68 29 89 31 93
9 10 -49 -37 -62 -263 -77 -257 -18 -350 -49 -475 -158 -66 -58 -77 -78 -54
-103 9 -10 22 -19 29 -19 6 0 35 -20 63 -45 63 -53 87 -58 234 -53 91 3 121 8
154 26 40 20 94 74 94 93 0 16 -44 10 -140 -21 -175 -55 -214 -52 -328 22
l-64 42 53 19 c45 15 97 20 305 25 185 5 255 11 267 20 20 17 57 12 70 -10 28
-44 -98 -198 -206 -251 -30 -15 -62 -27 -70 -27 -8 0 -20 -6 -27 -14 -9 -12
-5 -18 27 -34 21 -11 72 -30 113 -42 41 -12 76 -23 77 -24 2 -2 -13 -70 -32
-152 -45 -192 -63 -302 -70 -433 -8 -141 -11 -151 -38 -151 -12 0 -62 -20
-111 -45 -84 -43 -126 -55 -126 -36 0 4 13 25 30 46 52 66 72 136 77 275 8
209 -24 314 -146 474 -104 138 -178 201 -359 309 -219 132 -582 323 -685 362
-58 22 -67 40 -67 133 0 136 -43 437 -85 600 -19 73 -19 125 1 165 34 67 40
69 92 28z m5795 -69 c67 -32 147 -74 178 -94 l57 -36 -1 -64 c0 -49 7 -80 31
-140 39 -93 40 -125 6 -214 -26 -68 -26 -71 -15 -189 6 -66 16 -201 21 -300
17 -287 26 -330 116 -563 105 -273 98 -267 303 -267 l148 0 89 44 c197 98 309
279 399 651 10 41 22 79 25 83 4 4 10 -56 13 -135 4 -79 11 -172 18 -208 19
-113 -9 -427 -43 -467 -7 -9 -15 -68 -19 -152 -6 -109 -13 -152 -33 -211 -14
-40 -26 -81 -26 -91 0 -10 -10 -30 -23 -46 -13 -15 -38 -55 -56 -88 -76 -137
-324 -515 -356 -544 -44 -38 -55 -39 -88 -1 -24 27 -33 30 -85 29 -31 0 -86
-8 -122 -18 -36 -10 -105 -29 -155 -41 -49 -12 -164 -49 -255 -82 -297 -108
-494 -170 -541 -172 -41 -1 -56 5 -115 46 -38 26 -134 103 -212 171 -79 68
-169 139 -200 157 -102 59 -132 82 -152 115 -19 31 -19 36 -5 91 25 98 53 282
70 454 15 152 22 180 87 389 84 271 134 417 182 534 20 48 45 120 55 160 23
84 126 321 176 405 19 31 35 67 35 79 0 12 9 27 20 33 15 8 21 6 30 -10 17
-32 55 -25 106 22 85 79 97 128 64 269 -13 55 -13 59 13 117 15 33 27 71 27
84 0 39 37 172 60 217 11 23 27 41 35 41 9 0 70 -26 138 -58z m1578 -160 c-7
-91 -14 -170 -17 -174 -3 -4 -12 -8 -21 -8 -24 0 -63 -32 -231 -188 -242 -224
-313 -279 -297 -229 10 31 76 258 90 312 9 33 20 96 24 140 11 97 21 108 149
157 69 28 111 53 192 118 100 79 105 82 114 60 7 -14 6 -77 -3 -188z m-8780
62 c84 -51 86 -54 91 -174 3 -78 9 -115 23 -145 l20 -40 65 0 c58 0 66 2 76
23 7 15 14 20 18 13 4 -6 23 -11 42 -11 28 0 45 -9 80 -42 76 -73 94 -88 110
-88 8 0 39 -14 68 -31 30 -16 131 -65 224 -108 94 -43 184 -88 201 -100 l31
-22 -16 -37 c-39 -90 -28 -102 88 -102 65 0 81 -3 98 -20 11 -11 20 -27 20
-35 0 -8 14 -30 30 -48 37 -43 37 -52 3 -69 -40 -19 -38 -82 3 -133 48 -61 62
-86 69 -124 19 -114 51 -124 146 -50 43 34 65 37 74 9 8 -27 0 -37 -34 -45
-47 -10 -116 -60 -211 -151 l-89 -86 -88 82 c-49 46 -129 115 -178 155 -156
125 -553 483 -716 645 -150 149 -379 414 -428 494 -32 50 -29 76 14 171 59
129 63 131 166 69z m1210 -24 c16 -9 19 -22 19 -88 0 -46 12 -134 29 -219 16
-78 33 -190 37 -249 l7 -107 -39 7 c-21 4 -64 21 -94 38 -374 205 -596 318
-626 318 -13 0 -84 67 -84 79 0 11 69 61 83 61 5 0 32 20 61 45 79 67 82 68
406 118 54 9 182 6 201 -3z m6449 -67 c36 -1 139 -12 230 -23 91 -12 199 -20
240 -18 72 3 75 2 78 -21 2 -13 -4 -43 -13 -66 -8 -24 -20 -85 -24 -136 -5
-57 -17 -116 -31 -149 -12 -30 -30 -101 -41 -157 -23 -129 -63 -232 -139 -357
-33 -55 -60 -110 -60 -123 0 -12 -14 -39 -32 -59 -37 -42 -155 -134 -173 -134
-16 0 -45 64 -52 119 -3 25 -14 62 -24 81 -37 70 -43 167 -44 622 0 288 3 434
10 430 6 -4 39 -7 75 -9z m-9845 -51 c0 -18 -20 -15 -23 4 -3 10 1 15 10 12 7
-3 13 -10 13 -16z m317 -69 c24 -22 23 -35 -4 -31 -15 2 -24 11 -26 26 -4 26
5 28 30 5z m8716 -184 c3 -30 -2 -41 -28 -63 -17 -14 -42 -26 -54 -26 -27 0
-81 54 -71 70 11 18 107 61 130 58 15 -2 21 -12 23 -39z m-8600 -32 c2 -10 -3
-17 -12 -17 -18 0 -29 16 -21 31 9 14 29 6 33 -14z m4673 -74 c44 -31 69 -63
50 -63 -5 0 -11 6 -14 14 -3 7 -25 23 -49 35 -55 29 -108 69 -108 82 0 12 50
-16 121 -68z m-3000 -50 c110 -113 139 -201 34 -103 -99 94 -177 213 -117 181
9 -5 47 -40 83 -78z m2740 71 c61 -18 179 -80 179 -94 0 -15 -63 -12 -103 5
-45 19 -110 20 -105 3 12 -37 211 -109 305 -111 45 -2 58 -6 61 -19 5 -28 -61
-43 -198 -42 -146 0 -186 10 -270 66 -99 65 -166 168 -133 201 13 14 209 7
264 -9z m6761 -159 c9 -60 23 -125 32 -144 8 -20 17 -66 20 -103 3 -37 12 -91
20 -120 29 -102 49 -399 27 -412 -14 -9 -40 28 -59 85 -18 53 -21 55 -128 121
-130 79 -262 175 -275 199 -13 24 -22 273 -12 333 8 47 10 49 53 62 25 8 72
19 104 25 33 6 85 24 115 39 31 16 63 28 71 27 11 -2 19 -32 32 -112z m-9382
-248 c323 -321 485 -471 790 -733 202 -174 275 -250 290 -302 9 -34 8 -39 -15
-59 -34 -30 -194 -80 -313 -97 -212 -32 -452 -46 -452 -26 0 9 158 141 221
185 16 11 29 27 29 36 0 9 14 31 31 48 32 34 89 144 89 172 0 46 -65 65 -266
81 l-151 11 -63 -41 c-67 -45 -90 -51 -114 -26 -20 20 -20 19 6 73 19 38 23
64 23 148 l1 103 36 37 c41 43 58 73 58 101 0 32 -54 69 -117 82 -80 15 -86
20 -100 80 -6 29 -17 56 -24 61 -22 13 -156 22 -175 11 -10 -5 -29 -27 -44
-48 -19 -29 -41 -45 -88 -64 -87 -35 -97 -47 -97 -126 0 -70 6 -79 86 -135
l23 -16 -27 -60 c-20 -45 -27 -77 -27 -122 0 -60 0 -61 -28 -61 -19 0 -38 11
-58 31 -16 17 -65 60 -108 95 -78 63 -80 64 -140 64 -81 0 -109 -15 -117 -63
-7 -42 -13 -52 -28 -43 -6 4 -54 73 -107 153 -107 162 -197 339 -239 469 -36
109 -30 118 70 112 56 -4 79 -11 115 -34 40 -27 51 -29 129 -28 97 1 171 24
324 101 48 24 111 52 140 63 30 11 66 34 82 50 16 17 31 30 34 30 3 0 147
-141 321 -313z m6524 285 c2 -4 -9 -28 -26 -52 -60 -88 -254 -521 -288 -641
-10 -37 -23 -75 -28 -85 -19 -36 -74 -200 -103 -309 -16 -60 -38 -130 -49
-155 -10 -25 -22 -70 -26 -99 l-7 -53 -35 53 c-61 95 -90 171 -101 260 -29
239 -55 765 -46 900 l7 96 136 6 c100 4 155 11 202 27 112 36 352 71 364 52z
m2364 -167 c28 -169 32 -195 24 -195 -4 0 -27 14 -51 30 -39 27 -52 30 -118
30 -55 0 -73 3 -73 14 0 44 23 123 43 144 36 40 140 113 148 105 4 -4 16 -62
27 -128z m-8544 -245 c141 -120 215 -187 363 -326 76 -71 147 -135 158 -141
11 -6 17 -14 13 -18 -15 -16 -96 44 -219 162 -74 71 -154 144 -179 164 -110
89 -325 307 -243 248 10 -8 59 -48 107 -89z m2552 89 c3 -6 1 -15 -6 -19 -17
-10 -197 -30 -273 -30 -108 1 -54 16 193 53 51 8 79 7 86 -4z m5629 -7 c0 -18
-20 -15 -23 4 -3 10 1 15 10 12 7 -3 13 -10 13 -16z m-7041 -67 c23 -30 33
-35 67 -35 21 0 39 -2 39 -5 0 -2 -14 -24 -31 -48 -30 -43 -31 -45 -14 -70 27
-42 0 -64 -37 -30 -11 10 -18 30 -18 52 0 21 -11 53 -25 76 -24 39 -34 95 -16
95 5 0 21 -16 35 -35z m-1604 -69 c0 -12 -11 -33 -25 -46 l-25 -23 0 29 c0 33
26 77 41 69 5 -4 9 -16 9 -29z m1918 4 c23 -17 42 -37 42 -45 0 -18 -60 -35
-122 -35 -39 0 -48 3 -48 18 0 31 50 91 76 92 6 0 30 -14 52 -30z m6528 -5
c10 -24 -33 -145 -81 -230 -25 -44 -54 -99 -65 -121 -27 -56 -135 -156 -206
-189 -68 -32 -120 -36 -157 -12 -24 16 -136 162 -137 179 0 4 60 36 133 71 72
35 138 71 146 80 7 10 19 17 26 17 16 0 194 119 264 176 58 48 69 52 77 29z
m-6948 -11 c25 -7 29 -22 7 -30 -18 -7 -75 14 -75 27 0 10 34 12 68 3z m-1689
-79 c29 -14 45 -38 34 -49 -11 -11 -59 -6 -71 6 -15 15 -16 58 -2 58 6 0 24
-7 39 -15z m2392 -72 c32 -31 57 -58 55 -60 -6 -6 -136 45 -173 68 -27 17 -31
24 -22 35 6 8 27 14 46 14 28 0 45 -10 94 -57z m-3509 20 c23 -21 23 -43 1
-43 -26 0 -85 39 -78 50 10 16 57 12 77 -7z m1474 6 c10 -17 -13 -36 -27 -22
-12 12 -4 33 11 33 5 0 12 -5 16 -11z m1368 -40 c-12 -41 -34 -50 -34 -14 0
37 19 70 32 57 8 -8 8 -22 2 -43z m-2636 25 c29 -8 28 -28 -3 -42 -49 -22 -82
-12 -69 22 5 13 16 19 44 25 3 0 15 -2 28 -5z m3130 -32 c22 -33 134 -86 228
-107 60 -13 74 -20 72 -33 -11 -50 -310 35 -390 111 -36 34 -35 45 5 55 43 11
65 5 85 -26z m6853 -52 c16 0 166 -92 209 -128 29 -25 33 -32 22 -45 -7 -8
-24 -18 -37 -21 -13 -3 -29 -15 -35 -26 -6 -11 -16 -20 -22 -20 -6 0 -41 -31
-77 -70 -97 -103 -110 -96 -111 65 0 50 -5 130 -10 178 -11 110 -6 127 26 92
13 -14 28 -25 35 -25z m-5878 13 c-7 -2 -19 -2 -25 0 -7 3 -2 5 12 5 14 0 19
-2 13 -5z m-4528 -106 c41 -54 74 -78 121 -83 52 -6 64 4 72 62 l7 49 63 3
c36 2 62 -1 62 -7 0 -5 -7 -40 -16 -77 -8 -36 -12 -79 -9 -94 8 -38 49 -74
120 -106 51 -24 76 -28 170 -31 170 -6 168 -5 259 -91 45 -43 106 -99 136
-125 l55 -48 -44 16 c-51 18 -167 20 -243 4 -153 -32 -375 -109 -392 -138 -4
-6 -23 -11 -41 -11 -31 0 -38 6 -69 54 -19 30 -39 57 -46 61 -6 4 -33 -1 -60
-11 l-50 -18 -27 26 c-38 35 -65 41 -107 24 -28 -12 -38 -23 -43 -46 -8 -40
-33 -50 -123 -48 -66 1 -73 -1 -131 -40 -57 -39 -122 -62 -136 -49 -3 4 0 36
7 71 7 36 10 73 6 81 -8 22 -53 18 -94 -7 -28 -17 -38 -19 -53 -10 -24 15 -29
15 -29 -2 0 -23 -51 -56 -213 -140 -152 -78 -209 -113 -284 -174 -52 -42 -78
-38 -68 10 11 55 93 217 161 320 57 87 195 230 249 261 10 5 65 -8 157 -38
181 -59 231 -65 278 -33 71 47 94 158 45 216 l-24 29 24 23 c33 31 32 58 -2
71 -49 19 -9 34 105 39 l107 5 25 39 c22 33 26 36 35 21 5 -10 24 -36 40 -58z
m93 54 c3 -8 -1 -12 -9 -9 -7 2 -15 10 -17 17 -3 8 1 12 9 9 7 -2 15 -10 17
-17z m3282 8 c0 -5 15 -16 33 -24 19 -8 39 -20 46 -28 6 -9 48 -30 92 -47 43
-18 82 -36 85 -41 16 -27 -173 6 -222 37 -12 9 -35 14 -51 12 -24 -3 -28 -8
-28 -33 0 -50 44 -72 219 -106 37 -7 55 -14 49 -20 -16 -16 -189 -41 -288 -43
-75 -1 -100 3 -148 23 -46 20 -60 22 -70 12 -16 -17 20 -47 75 -62 22 -5 76
-26 121 -46 67 -29 97 -37 176 -42 l96 -6 -60 -24 c-77 -31 -142 -30 -220 2
-33 14 -104 34 -158 46 -175 37 -191 58 -104 138 74 67 185 125 234 121 37 -3
38 -2 43 37 7 47 24 80 48 94 22 13 32 13 32 0z m-2825 -55 c29 -31 75 -121
75 -146 0 -24 -20 -23 -81 3 -59 26 -84 64 -73 112 13 63 40 73 79 31z m-906
-87 c6 -8 8 -17 5 -20 -9 -8 -44 11 -44 23 0 15 26 12 39 -3z m6217 -22 c58
-20 131 -46 163 -59 31 -14 85 -29 121 -36 36 -6 89 -23 119 -37 30 -14 86
-29 125 -34 39 -5 77 -15 84 -23 12 -12 -5 -18 -115 -44 -138 -34 -333 -62
-424 -62 -70 0 -97 22 -139 113 -36 77 -65 217 -44 217 3 0 52 -16 110 -35z
m-4499 -28 c-6 -19 -22 -6 -25 20 -2 27 -2 27 13 8 8 -10 14 -23 12 -28z
m9648 17 c13 -9 43 -22 67 -28 23 -7 44 -18 46 -25 2 -6 -12 -27 -32 -47 -31
-31 -41 -36 -68 -30 -38 7 -86 51 -95 84 -3 14 1 30 12 42 22 24 38 25 70 4z
m-10095 -33 c0 -11 8 -26 18 -33 10 -7 22 -25 26 -40 3 -16 11 -28 16 -28 5 0
26 -26 46 -57 20 -32 54 -80 76 -106 22 -27 38 -51 35 -54 -15 -15 -155 123
-218 214 -36 52 -40 123 -7 123 4 0 8 -9 8 -19z m708 3 c-2 -10 -21 -22 -47
-30 l-43 -13 28 30 c31 32 68 40 62 13z m2392 -12 c0 -15 -9 -59 -19 -97 -23
-82 -48 -109 -162 -169 -41 -21 -84 -48 -97 -60 -13 -11 -76 -39 -140 -62 -64
-23 -146 -54 -182 -69 -76 -32 -205 -126 -232 -170 -25 -40 -20 -96 9 -111 12
-6 31 -22 43 -36 14 -18 43 -32 102 -49 74 -21 102 -24 266 -23 l182 0 -42
-21 c-24 -12 -65 -35 -93 -53 -69 -44 -247 -109 -336 -123 -41 -6 -100 -20
-132 -31 -99 -32 -645 -49 -611 -19 5 4 35 13 66 20 31 7 62 19 69 27 7 9 45
32 83 51 56 28 96 60 184 148 68 69 120 130 132 157 39 86 16 240 -50 337 -50
73 -41 86 46 66 99 -22 243 -38 364 -39 l115 -1 87 42 c158 78 307 208 323
284 8 37 25 38 25 1z m-1357 -42 c69 -47 221 -210 251 -272 34 -71 56 -157 63
-248 5 -64 2 -82 -15 -116 -26 -52 -96 -116 -164 -150 -29 -15 -118 -65 -196
-112 -181 -107 -249 -135 -387 -161 -171 -32 -232 -39 -500 -56 -137 -8 -277
-20 -310 -26 -88 -16 -275 5 -335 36 -14 8 -37 16 -52 20 -29 6 -38 30 -15 38
6 2 116 2 242 -1 201 -4 260 -1 470 22 492 54 581 70 631 117 19 18 28 20 46
12 18 -8 40 -4 103 19 44 17 101 36 127 44 97 30 269 194 284 270 4 20 4 67 2
105 -5 59 -14 85 -64 185 -59 116 -92 156 -224 273 -46 40 -19 41 43 1z
m-1555 -26 c29 -20 31 -49 2 -34 -21 11 -46 50 -33 50 5 0 19 -7 31 -16z
m-1488 -51 c0 -20 -17 -16 -34 9 -26 37 -20 55 9 28 14 -13 25 -29 25 -37z
m4177 2 c-54 -50 -124 -80 -162 -71 -47 12 -19 56 37 56 13 0 52 14 88 29 36
16 70 29 75 30 6 0 -11 -20 -38 -44z m-1617 -17 c0 -38 -181 -230 -260 -276
-30 -17 -84 -50 -119 -72 -36 -22 -69 -40 -74 -40 -19 0 1 26 35 44 19 11 40
32 45 47 7 18 31 39 67 59 31 18 56 37 56 44 0 7 18 29 40 51 30 30 37 42 29
52 -17 20 -63 16 -94 -9 -15 -11 -62 -40 -104 -62 -68 -37 -76 -44 -79 -73 -3
-34 -18 -44 -28 -19 -7 18 20 71 59 116 49 56 99 89 135 90 18 0 43 7 56 15
47 31 236 57 236 33z m-535 -48 c4 -6 -6 -10 -22 -10 -22 0 -25 2 -13 10 19
12 27 12 35 0z m-55 -107 c0 -30 -30 -89 -63 -125 -26 -28 -67 -38 -67 -17 0
20 71 164 87 176 21 16 43 -1 43 -34z m2380 -27 c0 -34 -181 -176 -277 -217
-59 -25 -262 -81 -277 -76 -11 4 51 42 279 168 169 93 256 139 268 139 4 0 7
-6 7 -14z m61 -161 c-76 -153 -169 -227 -326 -260 -95 -20 -228 -23 -270 -6
-27 11 -28 14 -12 22 10 6 56 14 104 19 142 15 268 85 448 250 49 45 91 76 93
70 3 -7 -14 -49 -37 -95z m139 59 c0 -16 -16 -19 -25 -4 -8 13 4 32 16 25 5
-4 9 -13 9 -21z m-2835 -97 c28 -8 99 -34 159 -56 60 -23 166 -56 235 -74 118
-30 137 -32 296 -31 243 0 423 36 631 124 105 45 110 46 118 24 16 -42 -92
-194 -170 -240 -56 -33 -153 -64 -221 -70 -28 -3 -109 -21 -180 -40 l-128 -35
-365 -10 c-340 -9 -558 -7 -707 7 l-62 6 61 122 c33 66 79 150 103 186 23 36
45 77 49 92 3 15 13 34 22 42 14 14 20 13 62 -8 26 -13 70 -31 97 -39z m-397
-32 c-9 -79 -24 -91 -123 -99 -126 -9 -230 -33 -299 -68 -90 -46 -219 -89
-230 -78 -14 14 -10 80 6 96 7 7 81 29 163 49 191 45 297 78 377 114 34 16 74
30 87 30 22 1 23 -2 19 -44z m-1549 -162 c0 -51 -3 -95 -9 -98 -5 -3 -35 -12
-65 -20 -60 -16 -224 -95 -242 -117 -17 -19 -171 -93 -179 -85 -12 11 16 88
48 135 71 103 229 229 316 252 24 6 60 26 80 45 l37 34 6 -27 c4 -15 7 -68 8
-119z m4671 87 c-16 -30 -119 -137 -120 -123 0 14 85 119 108 132 23 14 24 14
12 -9z m-3895 -53 c8 -13 16 -41 18 -63 2 -34 -1 -39 -18 -37 -95 9 -135 16
-151 28 -18 13 -18 14 1 36 22 24 90 58 117 59 10 0 24 -11 33 -23z m-485 -16
c0 -24 6 -31 38 -44 l37 -15 -35 -6 c-19 -3 -51 -7 -70 -8 -54 -4 -50 -30 10
-75 l51 -38 -30 -3 c-44 -5 -110 16 -138 44 -19 19 -24 33 -21 67 3 41 5 43
67 75 79 40 91 40 91 3z"/>
<path d="M8010 8988 c-25 -5 -79 -10 -122 -11 -84 -2 -118 -20 -118 -63 0 -29
60 -91 106 -110 50 -21 132 -17 210 10 88 30 124 48 149 76 11 13 37 33 58 46
42 27 48 49 15 58 -34 9 -246 5 -298 -6z"/>
<path d="M7883 8730 c-52 -12 -83 -38 -105 -87 -32 -72 -34 -114 -8 -138 20
-18 35 -20 159 -18 75 1 151 5 168 8 29 5 31 8 21 24 -10 16 -7 24 15 51 15
17 27 40 27 50 0 23 14 32 59 39 41 7 61 33 45 59 -10 15 -31 17 -180 19 -93
0 -184 -2 -201 -7z m197 -74 c0 -7 -15 -21 -34 -30 -38 -18 -86 -21 -86 -6 0
6 0 13 0 18 0 4 21 12 48 18 65 16 72 16 72 0z"/>
<path d="M3670 8291 c-35 -10 -37 -38 -4 -72 32 -34 78 -49 150 -49 56 0 84
19 84 58 0 17 -6 22 -29 22 -16 0 -39 10 -55 25 -21 20 -37 25 -74 24 -26 -1
-58 -4 -72 -8z"/>
<path d="M3636 7461 c-12 -18 7 -41 32 -41 l25 0 -23 25 c-27 28 -27 28 -34
16z"/>
<path d="M3803 7333 c-4 -10 11 -50 40 -104 26 -48 47 -97 47 -109 0 -29 40
-100 56 -100 22 0 34 36 34 102 0 53 -5 72 -29 109 -62 96 -132 145 -148 102z"/>
<path d="M6271 4566 c-15 -17 -11 -98 5 -103 6 -2 19 12 29 31 16 29 17 39 7
60 -13 29 -24 32 -41 12z"/>
</g>
</svg>
