<?xml version="1.0" standalone="no"?>
<!DOCTYPE svg PUBLIC "-//W3C//DTD SVG 20010904//EN"
 "http://www.w3.org/TR/2001/REC-SVG-20010904/DTD/svg10.dtd">
<svg version="1.0" xmlns="http://www.w3.org/2000/svg"
 width="1266.000000pt" height="1280.000000pt" viewBox="0 0 1266.000000 1280.000000"
 preserveAspectRatio="xMidYMid meet">
<metadata>
Created by potrace 1.15, written by Peter Selinger 2001-2017
</metadata>
<g transform="translate(0.000000,1280.000000) scale(0.100000,-0.100000)"
fill="#000000" stroke="none">
<path d="M5770 12780 c-30 -12 -81 -30 -113 -40 -32 -10 -83 -37 -115 -61 -89
-66 -373 -358 -405 -416 -15 -28 -39 -97 -53 -153 -13 -56 -38 -141 -54 -188
-17 -47 -30 -92 -30 -101 0 -9 -9 -32 -19 -52 -28 -52 -70 -283 -72 -394 -4
-200 -4 -199 21 -250 l25 -50 85 0 c55 0 105 7 141 19 52 17 59 17 87 2 70
-36 82 -105 31 -177 -37 -53 -63 -75 -107 -94 -61 -27 -15 -55 64 -40 75 14
119 85 131 213 l6 62 -47 43 c-25 24 -46 46 -46 51 0 4 15 6 33 4 28 -3 32 0
30 18 -1 12 -16 44 -33 70 -56 91 -63 291 -15 439 12 39 21 73 18 78 -2 4 -21
-6 -41 -23 -68 -56 -48 -6 31 77 67 71 98 88 192 108 83 17 148 43 149 60 2
26 -151 11 -219 -21 -19 -9 -65 -43 -102 -76 -76 -68 -123 -99 -135 -92 -17
11 -7 34 22 49 17 9 61 45 98 80 80 75 93 81 209 95 94 11 153 27 153 40 0 4
-7 13 -15 20 -37 30 -256 -21 -346 -80 -69 -46 -66 -34 19 70 38 47 46 70 22
70 -16 0 -82 -63 -137 -132 -30 -37 -58 -68 -63 -68 -20 0 -9 29 25 72 19 24
48 63 63 87 63 102 98 119 302 145 229 30 420 32 420 6 0 -10 -87 -30 -133
-30 -18 0 -49 -5 -70 -11 -31 -8 -38 -14 -35 -32 3 -22 5 -22 173 -20 278 3
438 37 504 107 13 14 21 32 18 40 -5 13 -76 70 -207 166 -68 51 -158 97 -221
114 l-54 15 50 0 c55 1 136 -35 243 -107 124 -85 146 -91 304 -96 104 -2 155
-8 188 -21 25 -9 60 -19 78 -22 28 -5 32 -2 32 16 0 14 -9 25 -27 32 -51 19
-176 38 -311 47 l-133 8 -37 36 c-97 93 -240 163 -362 178 -46 5 -103 10 -127
10 -44 0 -65 16 -42 32 24 16 188 1 279 -26 261 -76 237 -72 290 -53 55 20 89
21 145 6 54 -15 75 -36 75 -75 0 -18 5 -36 10 -39 6 -3 41 -10 79 -14 53 -5
77 -13 105 -35 69 -53 190 -206 162 -206 -3 0 -38 14 -80 30 -112 45 -203 67
-217 53 -6 -6 -9 -18 -6 -25 5 -14 19 -22 159 -87 127 -60 147 -96 173 -314
29 -252 20 -293 -72 -333 -97 -42 -122 -56 -128 -72 -8 -22 0 -25 38 -13 18 6
73 18 121 26 48 7 94 19 102 26 19 16 19 209 -1 534 -24 393 -27 403 -112 424
-62 16 -91 32 -151 84 -65 55 -209 131 -287 151 -77 19 -261 35 -490 42 -166
4 -184 3 -235 -16z m605 -80 c0 -18 -52 -27 -67 -12 -17 17 2 33 35 30 20 -2
32 -8 32 -18z m-530 -80 c3 -5 -3 -10 -15 -10 -12 0 -18 5 -15 10 3 6 10 10
15 10 5 0 12 -4 15 -10z m-20 -75 c121 -18 252 -58 346 -105 67 -34 114 -74
104 -90 -11 -19 -43 -10 -127 34 -104 55 -137 64 -273 77 -108 10 -205 5 -205
-11 0 -13 22 -18 142 -36 134 -19 259 -54 345 -95 66 -31 86 -63 36 -54 -16 3
-102 18 -193 35 -308 55 -295 54 -383 25 -117 -38 -217 -32 -217 14 0 21 69
88 161 156 72 53 117 76 139 70 8 -2 65 -11 125 -20z m1135 -115 c0 -5 -6 -10
-14 -10 -8 0 -18 5 -21 10 -3 6 3 10 14 10 12 0 21 -4 21 -10z m-1730 -170 c0
-13 -37 -50 -50 -50 -15 0 -12 21 7 42 17 19 43 24 43 8z m-130 -491 c13 -24
8 -34 -15 -26 -16 7 -21 47 -5 47 5 0 14 -9 20 -21z m150 -269 c0 -6 -8 -25
-17 -43 l-18 -32 -3 28 c-3 28 12 57 29 57 5 0 9 -5 9 -10z m-189 -143 c-1
-12 -15 -9 -19 4 -3 6 1 10 8 8 6 -3 11 -8 11 -12z m97 -194 c2 -9 -7 -13 -27
-13 -21 0 -31 5 -31 16 0 19 51 16 58 -3z"/>
<path d="M6364 12575 c-17 -42 40 -70 116 -57 24 4 45 13 48 20 5 15 -53 40
-113 49 -37 5 -46 3 -51 -12z"/>
<path d="M5480 12177 c-20 -7 -36 -20 -38 -31 -4 -18 1 -19 103 -12 115 7 156
19 136 39 -17 17 -159 19 -201 4z"/>
<path d="M5545 11894 c-39 -10 -75 -27 -75 -35 0 -5 38 -9 84 -9 93 0 147 13
128 32 -12 12 -104 20 -137 12z"/>
<path d="M5580 11755 c-55 -12 -90 -24 -90 -30 0 -2 3 -11 6 -20 6 -14 17 -15
78 -9 96 9 118 18 114 47 -4 27 -31 30 -108 12z"/>
<path d="M5550 11580 c-10 -7 7 -10 57 -10 39 0 75 5 78 10 8 13 -115 13 -135
0z"/>
<path d="M6255 11549 c-104 -25 -50 -43 108 -37 124 5 152 13 122 35 -22 15
-166 16 -230 2z"/>
<path d="M5382 11418 c-16 -16 -15 -53 2 -67 8 -7 27 -13 42 -14 38 -3 42 22
9 62 -30 34 -35 37 -53 19z"/>
<path d="M6740 11364 c0 -41 36 -205 54 -248 8 -20 22 -36 30 -36 21 0 21 48
0 136 -19 83 -13 106 19 76 12 -11 40 -24 62 -28 22 -4 43 -12 47 -18 11 -17
9 -360 -2 -456 -6 -47 -24 -140 -40 -208 -33 -137 -37 -172 -17 -172 75 0 136
304 137 673 0 293 1 292 -186 304 l-104 6 0 -29z"/>
<path d="M6230 11362 c0 -6 15 -22 33 -36 80 -61 170 -74 213 -31 39 39 27 49
-62 56 -43 3 -103 10 -131 14 -36 5 -53 4 -53 -3z"/>
<path d="M6416 10881 c-10 -15 5 -41 23 -41 23 0 63 29 56 41 -8 12 -72 12
-79 0z"/>
<path d="M6630 10877 c-30 -15 -38 -58 -15 -77 36 -30 163 41 135 75 -15 18
-86 19 -120 2z"/>
<path d="M5055 10795 c-5 -3 -66 -9 -135 -14 -86 -6 -139 -15 -170 -29 -25
-10 -167 -97 -315 -192 -306 -196 -624 -387 -841 -505 -155 -84 -426 -257
-458 -294 -17 -19 -18 -24 -5 -36 12 -12 23 -9 83 21 101 52 238 139 295 187
29 25 154 95 303 171 139 71 297 156 350 188 53 31 118 62 144 68 57 13 84 31
194 131 98 88 218 169 293 197 29 11 92 27 141 37 89 16 166 47 166 65 0 10
-25 12 -45 5z"/>
<path d="M7057 10736 c-7 -16 25 -47 72 -71 19 -10 109 -44 199 -76 108 -39
199 -79 263 -116 54 -32 135 -78 181 -103 97 -53 190 -137 236 -212 18 -30 50
-97 71 -149 29 -72 43 -94 57 -94 26 0 29 46 9 126 -48 186 -128 276 -373 423
-200 120 -248 142 -471 215 -205 68 -237 76 -244 57z"/>
<path d="M6668 10650 c-150 -15 -258 -44 -237 -64 12 -13 128 -29 214 -30 82
-1 96 2 158 31 37 18 67 38 67 46 0 27 -51 31 -202 17z"/>
<path d="M6635 10481 c-48 -8 -65 -17 -65 -36 0 -41 133 -47 172 -7 45 44 3
61 -107 43z"/>
<path d="M5863 10263 c37 -39 34 -46 -10 -27 -21 9 -44 18 -50 21 -8 3 -13 -3
-13 -16 0 -15 17 -32 58 -58 120 -77 417 -194 528 -209 72 -9 112 7 189 77 36
32 72 59 80 59 10 0 15 10 15 30 0 26 8 34 65 67 36 20 65 41 65 45 0 13 -88
9 -180 -7 -107 -19 -210 -19 -381 -1 -285 31 -335 37 -364 43 l-30 6 28 -30z
m138 -78 c59 -21 342 -92 402 -100 30 -5 47 -12 47 -21 0 -38 -124 -28 -267
20 -123 42 -233 91 -233 105 0 14 -1 14 51 -4z"/>
<path d="M6706 10103 c-11 -11 28 -52 119 -128 145 -119 98 -122 -80 -5 -50
33 -99 60 -108 60 -34 0 -15 -29 51 -79 95 -70 144 -91 218 -91 34 0 78 -7 97
-15 40 -16 77 -20 77 -7 0 5 -35 33 -77 64 -43 31 -114 85 -157 121 -74 62
-127 92 -140 80z"/>
<path d="M5845 10063 c34 -26 205 -104 310 -140 115 -40 235 -54 285 -33 56
23 30 44 -70 54 -84 9 -150 26 -338 87 -84 27 -165 49 -180 49 -26 -1 -27 -1
-7 -17z"/>
<path d="M6900 10066 c0 -16 83 -93 150 -139 57 -40 146 -76 186 -77 40 0 134
28 134 40 0 11 -59 42 -113 60 -33 10 -41 10 -58 -6 -23 -21 -38 -16 -152 58
-100 63 -147 84 -147 64z"/>
<path d="M5900 9914 c0 -11 168 -84 240 -103 107 -28 194 -38 188 -20 -10 31
-428 151 -428 123z"/>
<path d="M8183 9893 c-23 -8 -13 -56 33 -168 25 -60 59 -146 75 -190 17 -44
64 -152 106 -240 91 -192 153 -342 204 -490 20 -60 43 -124 50 -142 18 -45 -1
-100 -55 -160 -42 -46 -46 -48 -97 -48 -44 0 -54 -3 -57 -19 -5 -24 55 -86 84
-86 12 0 52 27 94 65 40 36 83 68 95 71 32 8 36 35 20 122 -34 178 -104 368
-273 747 -68 154 -140 321 -158 370 -19 50 -41 104 -50 121 -16 33 -50 54 -71
47z"/>
<path d="M5951 9784 c8 -38 275 -105 294 -74 5 8 1 18 -9 26 -23 16 -157 52
-230 60 -53 6 -58 6 -55 -12z"/>
<path d="M7686 9769 c-27 -32 -33 -54 -16 -64 23 -14 80 46 80 85 0 21 -39 9
-64 -21z"/>
<path d="M2969 9675 c-19 -20 -56 -47 -84 -59 -55 -25 -154 -97 -252 -184 -82
-72 -96 -94 -83 -127 19 -50 40 -38 231 134 57 51 114 98 127 104 12 6 25 21
29 35 4 18 24 32 80 58 57 26 74 38 71 51 -2 13 -14 19 -44 21 -37 3 -45 -1
-75 -33z"/>
<path d="M5980 9691 c-13 -9 -13 -12 2 -27 11 -11 34 -17 72 -18 61 0 91 15
60 32 -29 15 -117 23 -134 13z"/>
<path d="M5485 9630 c-56 -33 -77 -37 -95 -16 -36 44 -160 -83 -160 -164 0
-37 14 -60 37 -60 8 0 44 28 81 63 37 34 102 88 145 120 107 80 102 121 -8 57z
m-145 -103 c0 -19 -56 -70 -71 -65 -7 2 0 17 21 41 33 38 50 46 50 24z"/>
<path d="M6076 9590 c-28 -9 -86 -56 -86 -71 0 -17 34 -39 60 -39 31 0 44 13
45 45 0 13 8 21 23 23 28 4 41 30 21 43 -17 10 -24 10 -63 -1z"/>
<path d="M7676 9551 c-28 -31 -15 -46 17 -21 15 12 27 26 27 31 0 16 -26 10
-44 -10z"/>
<path d="M7700 9465 c-56 -52 -128 -107 -188 -142 -194 -114 -226 -159 -381
-553 -49 -124 -112 -277 -141 -340 -59 -131 -70 -170 -47 -170 9 0 25 14 37
31 12 16 24 28 27 25 3 -2 -8 -41 -24 -85 -23 -68 -26 -84 -15 -101 18 -29 16
-36 -23 -79 -57 -63 -262 -154 -343 -152 -20 0 -86 -7 -145 -15 -99 -14 -111
-14 -133 1 -29 19 -30 35 -5 114 10 33 17 62 14 65 -2 2 -18 0 -35 -5 -54 -15
-61 6 -28 80 l20 43 -35 -4 c-19 -2 -35 -1 -35 3 0 3 12 28 26 53 27 48 23 75
-10 63 -32 -13 -166 -283 -166 -337 0 -22 52 -60 82 -60 9 0 45 -15 81 -33 89
-47 145 -60 272 -62 104 -3 110 -4 113 -24 2 -12 21 -33 42 -46 67 -43 140
-162 140 -230 0 -30 -7 -44 -36 -70 -42 -39 -38 -55 15 -55 21 0 41 -3 44 -6
13 -14 -16 -45 -66 -71 -40 -20 -47 -28 -32 -31 85 -15 97 -30 109 -138 14
-114 -5 -133 -150 -152 -80 -11 -134 -28 -134 -43 0 -15 39 -22 153 -27 114
-4 117 -5 111 -26 -13 -47 -40 -91 -67 -110 -27 -20 -39 -21 -258 -18 -222 3
-248 0 -216 -26 15 -12 160 -37 277 -47 91 -7 150 -22 150 -36 0 -6 -16 -27
-35 -46 l-36 -36 -147 6 c-81 4 -202 10 -269 13 -88 5 -123 4 -123 -4 0 -21
39 -32 217 -63 241 -41 253 -44 253 -73 0 -31 -40 -88 -73 -104 -22 -11 -60
-10 -219 3 -106 8 -227 18 -268 20 l-75 5 50 -25 c32 -15 106 -34 200 -51 238
-41 255 -45 255 -55 0 -6 -17 -17 -37 -26 -57 -23 -316 -12 -488 22 -169 33
-267 47 -274 39 -13 -12 35 -34 118 -53 140 -33 388 -71 509 -78 61 -3 112 -9
112 -13 0 -8 -90 -130 -133 -180 l-28 -33 -237 2 c-256 2 -377 15 -530 56 -99
27 -142 31 -142 15 0 -15 71 -48 152 -70 165 -45 306 -63 508 -66 107 -1 197
-2 199 -3 15 -3 -49 -53 -78 -61 -102 -28 -369 -3 -684 65 -92 20 -172 33
-177 30 -72 -45 323 -140 637 -154 83 -3 155 -9 158 -13 11 -11 -19 -48 -53
-64 -26 -12 -50 -14 -110 -9 -183 17 -596 95 -712 136 -65 23 -70 23 -70 4 0
-51 436 -165 740 -193 57 -5 75 -11 78 -23 5 -25 -26 -29 -208 -29 -211 0
-257 8 -473 81 -98 33 -190 59 -205 57 l-27 -3 24 -22 c47 -44 378 -151 531
-173 78 -11 97 -20 85 -40 -5 -9 -25 -10 -66 -6 -81 10 -465 106 -660 166 -89
28 -177 50 -196 50 -61 0 -293 134 -342 197 -12 15 -36 46 -52 68 -17 22 -136
153 -264 290 -274 293 -328 358 -423 497 -39 57 -98 135 -132 173 -67 77 -132
201 -182 348 -29 83 -32 104 -32 212 -1 98 3 133 22 193 38 121 277 577 394
751 69 103 67 102 284 112 273 11 634 55 659 80 6 6 5 13 -5 20 -18 12 -93 6
-310 -23 -177 -23 -421 -30 -427 -11 -5 15 37 27 212 58 308 55 575 117 575
135 0 17 -56 11 -246 -25 -200 -38 -356 -55 -339 -37 10 10 75 30 292 87 56
15 110 33 120 41 16 12 13 13 -25 14 -24 0 -93 -11 -154 -26 -72 -16 -114 -22
-121 -15 -11 11 -12 11 143 88 125 63 280 159 280 174 0 18 -26 8 -102 -36
-79 -46 -98 -53 -98 -35 0 16 33 44 112 98 89 60 138 105 138 126 0 9 -2 16
-5 16 -2 0 -73 -47 -157 -104 -280 -189 -468 -292 -694 -380 -66 -25 -160 -69
-209 -97 -49 -28 -114 -58 -144 -65 -31 -8 -78 -26 -106 -39 -65 -32 -239
-187 -335 -299 -79 -91 -106 -133 -115 -177 -7 -38 -86 -121 -158 -168 -34
-22 -72 -48 -84 -56 -26 -18 -32 -65 -8 -65 9 0 70 36 136 81 74 50 116 73
109 60 -18 -34 -109 -122 -215 -207 -160 -129 -202 -170 -188 -184 17 -18 94
28 220 131 59 49 111 89 116 89 5 0 -5 -17 -21 -37 -43 -54 -299 -303 -347
-338 -50 -36 -115 -96 -115 -107 0 -17 47 -6 95 22 100 58 127 71 132 66 11
-11 -29 -56 -151 -171 -148 -140 -164 -175 -51 -117 37 19 239 215 267 259 19
31 19 35 4 52 -9 10 -16 22 -16 28 0 14 99 123 110 123 12 0 -32 -126 -74
-213 -44 -92 -90 -155 -121 -167 -13 -5 -36 -28 -51 -51 -30 -47 -98 -116
-191 -192 -64 -51 -100 -94 -89 -105 11 -11 90 34 185 107 92 69 111 80 111
62 0 -14 -242 -244 -290 -275 -85 -57 -115 -96 -72 -96 24 0 132 65 204 123
33 27 64 47 68 45 17 -6 -35 -90 -78 -126 -101 -86 -125 -113 -114 -124 8 -8
22 -6 52 6 46 18 71 11 91 -26 10 -18 8 -24 -7 -35 -11 -8 -30 -16 -44 -19
-50 -10 -73 -19 -78 -31 -2 -8 6 -13 22 -13 35 0 34 -26 -3 -45 -16 -8 -79
-26 -140 -41 -119 -27 -149 -46 -116 -71 15 -10 34 -12 70 -8 98 13 190 36
242 60 28 14 69 25 91 25 29 0 50 8 78 31 53 42 238 131 264 127 39 -6 24 -23
-57 -63 -89 -44 -115 -63 -107 -76 9 -15 57 -10 103 11 59 27 76 25 91 -10 19
-46 50 -48 139 -10 114 49 120 49 193 -2 35 -25 95 -62 133 -83 85 -47 159
-115 280 -261 51 -61 131 -146 178 -189 47 -43 99 -97 115 -119 36 -52 145
-316 174 -421 18 -67 21 -109 22 -260 l1 -181 -38 -76 c-38 -78 -84 -128 -117
-128 -15 0 -14 5 10 30 61 65 102 234 103 420 0 141 -16 219 -59 269 -50 59
-51 53 -46 -224 3 -179 1 -273 -8 -317 -24 -122 -130 -302 -160 -272 -7 7 -1
39 19 100 49 148 75 332 76 534 0 121 -4 181 -12 195 -10 17 -12 5 -13 -70 -1
-147 -62 -526 -91 -561 -6 -7 -17 -42 -24 -77 -22 -105 -92 -217 -136 -217
-24 0 -24 1 10 63 100 179 202 665 161 771 -24 65 -53 5 -69 -144 -34 -305
-105 -567 -169 -623 -27 -25 -66 -19 -70 10 -2 12 13 51 32 86 89 160 162 627
97 627 -14 0 -27 -48 -65 -240 -53 -266 -106 -430 -139 -430 -22 0 -57 31 -57
50 0 11 20 90 45 176 72 248 90 356 65 394 -16 23 -35 -8 -55 -88 -78 -309
-170 -556 -212 -570 -22 -7 -15 33 28 150 123 340 150 425 152 473 2 47 1 50
-23 50 -18 0 -27 -7 -32 -25 -35 -122 -128 -383 -164 -458 -34 -72 -47 -93
-61 -90 -41 8 -19 127 48 262 30 62 37 100 18 112 -19 11 -37 -17 -127 -196
-78 -156 -111 -205 -126 -189 -3 3 4 34 15 69 21 68 22 121 2 127 -6 2 -25
-25 -42 -61 -34 -72 -57 -83 -101 -48 l-22 18 44 59 c25 33 48 68 51 79 6 16
14 17 76 11 63 -6 70 -5 80 13 6 12 11 35 11 53 l0 32 -52 -7 c-29 -3 -66 -9
-82 -12 l-28 -7 17 27 c15 22 17 40 12 99 -7 97 -63 376 -89 444 -24 64 -72
123 -100 123 -17 0 -20 -5 -15 -30 4 -16 18 -47 32 -69 42 -62 54 -121 66
-314 12 -190 7 -328 -13 -371 -24 -55 -85 -37 -106 30 -15 49 -37 312 -29 345
4 17 18 28 49 39 50 18 63 46 24 55 -14 3 -38 7 -52 10 -15 4 -36 18 -48 32
-68 83 -94 106 -109 100 -28 -11 -19 -42 30 -114 l47 -68 -3 -150 c-2 -162 3
-147 -63 -197 -23 -17 -23 -18 -4 -33 11 -8 33 -15 48 -15 31 0 56 -36 45 -64
-13 -34 -116 -4 -136 40 -17 38 -79 301 -96 408 -9 54 -23 113 -32 130 -41 79
-138 166 -186 166 -25 0 -26 -2 -26 -72 0 -44 -10 -115 -25 -178 -14 -58 -30
-143 -36 -189 -11 -98 -19 -109 -55 -93 -35 16 -55 68 -55 140 0 68 -9 122
-20 122 -14 0 -31 -64 -37 -140 -4 -59 -2 -83 10 -107 20 -37 70 -81 103 -89
60 -15 124 84 124 192 0 54 4 68 35 113 19 28 35 57 35 66 0 27 19 16 39 -22
46 -93 111 -341 111 -428 0 -21 -9 -49 -21 -66 -13 -19 -24 -57 -30 -102 -12
-91 -24 -130 -51 -153 -21 -18 -21 -18 -15 0 13 35 30 155 24 170 -11 28 -27
17 -47 -29 -27 -62 -52 -187 -40 -199 6 -6 45 -13 87 -17 43 -4 79 -13 81 -18
2 -6 19 -11 37 -11 39 0 105 -55 105 -87 0 -12 24 -44 55 -74 62 -60 68 -79
28 -79 -16 0 -34 -4 -42 -9 -20 -13 -16 -72 5 -84 36 -20 114 -235 114 -314 0
-54 -16 -87 -67 -135 -47 -44 -158 -117 -193 -125 -53 -12 -120 -46 -120 -60
0 -12 13 -15 69 -11 82 4 190 53 265 120 46 40 49 41 62 23 8 -10 14 -29 14
-42 0 -25 -32 -63 -54 -63 -7 0 -26 -16 -40 -35 -54 -70 -297 -213 -399 -235
-63 -13 -92 -33 -83 -56 5 -14 15 -15 59 -10 78 11 223 62 302 107 38 22 82
43 97 46 24 5 28 2 28 -16 0 -30 -38 -62 -129 -110 -162 -84 -430 -175 -611
-206 -106 -18 -122 -24 -117 -39 3 -7 36 -10 98 -9 167 2 412 71 642 180 158
75 173 74 133 -5 -31 -60 -46 -73 -46 -37 0 43 -26 41 -76 -5 -107 -99 -447
-216 -682 -236 -82 -7 -108 -18 -81 -35 20 -12 190 -11 290 2 99 13 205 49
387 131 73 32 141 58 150 56 10 -2 18 -14 20 -30 3 -25 1 -27 -30 -22 -28 4
-42 -2 -88 -37 -62 -47 -139 -84 -267 -128 -175 -59 -373 -101 -488 -101 -57
0 -81 -11 -72 -33 16 -43 211 -34 416 18 160 41 259 75 371 129 84 40 104 44
96 19 -36 -127 -55 -184 -100 -310 -29 -82 -68 -178 -85 -215 -17 -37 -40
-104 -50 -150 -11 -48 -26 -87 -37 -95 -9 -6 -42 -17 -73 -24 -31 -6 -75 -19
-99 -30 -35 -15 -43 -23 -40 -41 5 -34 61 -35 138 -3 99 41 93 10 -9 -46 -131
-74 -133 -113 -5 -72 30 9 57 14 60 10 14 -14 -8 -38 -58 -63 -94 -47 -120
-84 -74 -106 20 -9 33 -7 67 10 24 12 45 20 47 17 13 -12 -15 -63 -58 -109
-52 -55 -54 -66 -11 -66 l25 0 -27 -28 c-31 -32 -34 -42 -12 -42 20 0 19 -38
-3 -74 -9 -16 -44 -45 -76 -65 -80 -48 -82 -61 -12 -61 95 0 68 -29 -94 -100
-121 -53 -152 -74 -143 -96 8 -22 38 -17 142 25 107 43 136 51 141 36 6 -17
-177 -102 -283 -131 -140 -38 -189 -59 -185 -81 8 -43 102 -21 339 78 121 51
139 56 139 39 0 -25 -294 -161 -443 -204 -105 -30 -129 -43 -125 -64 5 -27 55
-26 142 4 101 34 312 128 335 148 19 17 41 21 41 8 0 -42 -298 -198 -458 -240
-67 -17 -90 -37 -79 -66 13 -32 58 -20 297 78 74 31 172 79 217 106 45 28 86
50 92 50 13 0 25 -101 17 -148 -8 -49 -57 -142 -87 -164 -13 -9 -66 -24 -118
-33 -156 -26 -494 -116 -716 -190 -55 -18 -131 -41 -170 -50 -84 -21 -145 -50
-145 -70 0 -26 42 -45 103 -45 46 0 83 10 175 46 144 57 270 96 382 119 47 9
110 27 140 40 30 13 99 32 152 44 106 23 162 40 253 78 33 14 79 31 102 38 23
7 65 27 94 44 66 41 126 64 220 85 50 11 100 31 143 57 119 72 180 85 443 99
247 13 294 33 148 63 l-70 14 55 6 c30 4 131 11 223 17 333 22 500 63 482 121
-8 25 28 35 335 84 403 66 545 94 640 125 176 58 536 94 925 92 972 -5 1079 0
1036 51 -19 23 -61 28 -370 37 -275 8 -332 15 -299 36 21 14 640 7 949 -11
295 -17 320 -15 362 22 15 15 31 15 165 2 107 -10 298 -14 707 -14 546 1 764
10 789 35 16 16 -32 58 -113 98 l-75 37 -146 -1 c-161 -1 -292 -20 -405 -60
-93 -33 -290 -50 -440 -36 l-108 9 -41 46 c-29 31 -56 49 -85 57 -48 13 -121
79 -121 110 0 12 7 32 16 45 14 22 14 26 -2 54 -17 29 -17 30 8 59 67 80 169
488 187 751 14 191 -5 637 -36 860 l-15 113 65 67 c68 69 137 156 137 172 0 5
-10 9 -23 9 -28 0 -79 -46 -138 -124 l-44 -60 -3 40 c-2 21 -1 58 3 82 10 66
87 207 170 312 41 52 75 98 75 102 0 4 -4 10 -10 13 -28 17 -126 -73 -182
-169 -32 -54 -42 -66 -49 -53 -12 20 9 80 52 154 19 31 89 114 157 183 67 70
122 133 122 139 0 52 -181 -96 -297 -244 -17 -22 -35 -37 -39 -33 -14 14 50
94 195 241 161 164 259 249 314 272 50 21 49 45 -2 45 -28 0 -54 -10 -92 -36
-63 -42 -96 -57 -104 -45 -8 14 58 66 121 95 89 40 109 53 112 72 6 25 -16 34
-80 34 -62 0 -67 4 -43 30 15 16 12 20 -32 45 -78 46 -119 82 -207 184 -153
177 -310 401 -381 540 -45 91 -45 108 1 117 50 9 165 0 191 -16 15 -10 30 -11
54 -4 78 22 23 61 -186 130 -191 62 -446 127 -649 164 -94 17 -178 36 -188 41
-49 26 7 124 87 155 39 15 68 16 208 11 142 -6 204 -12 420 -43 32 -5 47 -3
47 4 0 19 -41 40 -110 57 -36 9 -82 21 -102 26 -22 6 -38 16 -38 24 0 20 51
20 152 0 47 -9 86 -11 100 -6 l22 8 -22 12 c-21 11 -156 32 -434 65 -141 18
-177 29 -182 60 -3 12 -9 50 -14 86 -6 36 -14 77 -17 92 -6 21 4 51 39 127 66
139 73 213 57 556 -6 143 -16 303 -21 356 l-10 96 64 107 c79 130 102 190 122
315 57 355 77 429 160 591 64 126 150 260 167 260 14 0 81 -68 212 -215 49
-55 134 -146 189 -202 l99 -102 8 -478 c4 -263 12 -532 18 -598 6 -66 17 -194
25 -285 27 -295 36 -500 26 -589 -5 -46 -12 -86 -15 -89 -3 -3 -18 1 -33 10
-55 32 -130 50 -284 68 -156 18 -204 31 -192 52 4 7 37 9 95 6 146 -9 102 23
-61 43 -133 17 -537 18 -573 2 -27 -13 -45 -38 -34 -50 3 -3 95 -6 204 -7 171
-2 209 -5 278 -25 142 -40 397 -128 509 -175 59 -26 115 -46 124 -44 10 2 25
28 37 64 40 115 128 233 188 253 36 12 267 32 280 24 4 -2 39 -51 77 -108 87
-130 182 -244 350 -421 218 -230 265 -320 242 -460 -11 -66 -25 -95 -39 -81
-3 4 -11 58 -15 120 -11 137 -21 177 -54 217 -50 58 -75 32 -50 -53 31 -107
50 -450 26 -487 -14 -23 -30 0 -46 66 -24 107 -28 189 -10 234 34 86 17 150
-60 215 -37 32 -54 54 -54 70 0 43 -64 71 -90 40 -10 -13 -7 -26 18 -78 46
-95 55 -138 43 -216 -5 -36 -13 -107 -16 -158 -8 -109 -17 -148 -35 -148 -19
0 -27 37 -45 205 -26 232 -40 277 -108 354 -19 21 -55 73 -80 115 -25 42 -57
89 -71 104 -26 28 -76 37 -76 14 0 -6 27 -50 60 -96 33 -46 60 -93 60 -104 0
-31 -29 -83 -55 -97 -35 -18 -105 -7 -128 21 -15 19 -17 33 -11 87 6 63 6 64
-17 60 -35 -5 -61 -61 -56 -118 6 -55 41 -88 128 -120 47 -18 69 -21 118 -15
46 5 67 3 94 -10 31 -15 38 -25 56 -85 14 -46 21 -96 21 -152 0 -54 5 -91 14
-103 7 -11 16 -31 19 -45 3 -14 29 -52 58 -85 93 -109 199 -282 199 -326 0
-22 -1 -22 -30 6 -17 16 -62 75 -100 130 -39 56 -86 120 -106 143 -33 39 -66
53 -78 34 -7 -12 28 -66 84 -132 26 -30 79 -102 117 -160 75 -112 106 -146
138 -152 16 -3 21 -12 23 -54 2 -43 -1 -57 -21 -79 -19 -23 -32 -28 -71 -29
-44 -1 -51 2 -85 40 -35 40 -185 268 -198 301 -4 11 -2 14 8 11 23 -7 114
-126 170 -220 56 -94 82 -124 98 -113 19 11 12 39 -29 108 -105 180 -367 517
-402 517 -18 0 -6 -36 38 -107 26 -40 44 -76 41 -79 -7 -7 -172 173 -215 236
-28 40 -45 56 -65 58 -49 6 -42 -6 148 -263 61 -82 158 -217 216 -299 143
-206 186 -251 257 -273 31 -9 58 -17 59 -18 5 -2 -98 -469 -123 -559 -30 -109
-56 -152 -203 -341 -47 -60 -152 -209 -235 -330 -82 -121 -202 -292 -266 -380
-158 -216 -212 -300 -208 -321 2 -13 15 -6 61 36 69 63 172 200 367 485 213
313 356 495 388 495 16 0 15 -21 -3 -44 -8 -11 -15 -34 -15 -50 -1 -17 -7 -42
-15 -56 -8 -14 -14 -35 -15 -47 0 -12 -13 -32 -31 -45 -85 -64 -141 -127 -210
-233 -190 -296 -254 -388 -338 -490 -50 -60 -91 -114 -91 -118 0 -4 32 -7 71
-5 l72 3 12 40 c14 47 40 91 167 285 53 80 105 165 118 190 26 53 150 229 176
250 16 14 17 11 10 -60 -9 -100 -56 -333 -112 -555 -56 -218 -66 -352 -40
-505 28 -160 79 -239 170 -264 28 -8 125 -35 216 -61 164 -47 302 -83 393
-104 27 -6 65 -23 85 -36 53 -36 64 -33 60 18 -3 39 -1 42 22 42 17 0 26 -6
28 -20 10 -51 105 -114 174 -115 20 0 88 -9 152 -20 218 -37 223 -75 5 -45
-146 20 -326 18 -353 -4 -34 -29 -14 -34 223 -56 161 -15 274 -35 312 -55 51
-28 -6 -66 -160 -107 -90 -24 -113 -26 -391 -30 -162 -2 -305 -6 -317 -9 -33
-7 -30 -42 5 -56 49 -21 1261 -9 1320 13 27 10 30 49 4 72 -16 15 -45 17 -200
17 -119 0 -182 4 -182 10 0 6 8 22 17 36 15 23 15 36 5 104 -6 44 -17 88 -24
99 -7 12 -41 33 -75 47 -34 15 -70 35 -80 46 -9 10 -44 36 -77 56 l-61 37 140
3 c76 1 145 0 151 -2 7 -3 14 -17 16 -33 4 -37 43 -56 98 -47 51 8 104 43 108
70 4 25 -34 43 -157 75 -77 20 -93 29 -128 73 -20 24 -114 29 -398 20 -148 -5
-378 -9 -510 -9 l-240 0 -69 33 c-38 18 -67 33 -65 35 7 5 711 -11 1014 -23
160 -6 336 -18 392 -26 80 -11 108 -12 125 -3 l22 12 -26 22 c-21 18 -48 25
-130 34 -277 31 -504 42 -1003 50 l-440 6 -37 65 c-67 117 -70 227 -12 481 14
62 63 288 110 503 88 409 116 522 141 570 16 30 17 36 30 172 5 45 14 88 22
97 9 11 11 28 7 52 -5 26 -1 48 13 78 23 51 55 188 115 494 68 350 89 504 83
602 -4 71 -2 86 13 101 10 10 24 36 30 57 20 72 50 265 50 326 0 111 -57 199
-271 423 -150 156 -227 250 -320 384 -34 51 -81 108 -105 127 l-42 35 20 34
c42 72 130 476 189 874 40 270 53 595 23 617 -22 16 -68 17 -97 1 -12 -6 -62
-49 -110 -95 -48 -45 -95 -83 -103 -83 -19 0 -56 -38 -49 -50 18 -30 89 4 200
96 112 93 135 108 135 90 0 -23 -167 -194 -256 -262 -96 -74 -112 -111 -36
-85 59 21 142 75 209 135 62 57 83 67 83 41 0 -29 -23 -64 -51 -75 -15 -7 -55
-43 -88 -80 -34 -38 -103 -102 -154 -143 -51 -41 -99 -82 -106 -91 -38 -45 46
-25 135 32 32 21 92 69 132 106 78 71 101 77 77 20 -29 -69 -126 -167 -240
-244 -64 -42 -105 -80 -105 -97 0 -35 86 4 224 103 55 40 103 68 105 63 4 -13
-55 -101 -110 -163 -24 -27 -68 -65 -99 -84 -74 -47 -138 -99 -151 -124 -11
-20 -9 -21 21 -15 18 4 89 41 158 82 69 41 128 73 130 70 15 -14 -153 -177
-250 -243 -54 -37 -64 -50 -50 -64 16 -16 73 8 172 73 50 32 97 59 105 59 51
0 -50 -111 -155 -170 -123 -69 -174 -119 -130 -128 8 -1 67 22 130 53 67 32
118 51 123 46 27 -27 -55 -124 -147 -176 -120 -68 -138 -101 -36 -63 121 45
159 49 130 13 -23 -28 -88 -56 -178 -75 -117 -26 -130 -26 -138 5 -8 32 -21
32 -55 -1 -48 -46 -55 -32 -62 128 -4 78 -11 170 -17 203 -14 86 -37 381 -51
663 -11 231 -8 604 6 647 4 13 33 33 82 54 92 42 175 95 271 173 80 66 107
100 98 123 -8 21 -29 9 -116 -64 -100 -83 -206 -143 -262 -149 -69 -7 -63 18
15 64 158 92 360 286 343 329 -10 27 -34 16 -82 -41 -86 -100 -321 -274 -371
-274 -39 0 -93 30 -93 51 0 11 17 29 43 45 128 81 190 127 269 202 78 75 148
161 148 184 0 24 -39 -2 -136 -89 -182 -166 -227 -202 -288 -233 -72 -37 -86
-37 -125 -4 -35 29 -40 54 -12 54 46 0 362 248 415 327 51 74 14 54 -137 -76
-199 -171 -295 -219 -352 -177 -30 22 -8 56 84 125 101 77 297 256 334 305 16
20 26 44 23 52 -10 26 -56 -7 -137 -97 -135 -150 -333 -309 -385 -309 -18 0
-24 5 -24 23 0 34 23 61 108 124 99 75 372 343 372 366 0 43 -45 13 -178 -116
-144 -139 -271 -247 -291 -247 -17 0 13 48 125 200 98 134 114 160 114 184 0
32 -31 14 -120 -69z m-4000 -924 c0 -5 -37 -66 -82 -134 -269 -408 -300 -463
-389 -709 -70 -196 -108 -265 -202 -366 -128 -140 -166 -207 -181 -317 -14
-104 -23 -112 -184 -166 -97 -33 -112 -35 -112 -15 0 8 43 110 96 228 53 117
121 276 151 353 120 302 385 841 470 953 52 69 433 221 433 173z m2490 -512
c0 -20 -21 -49 -35 -49 -18 0 -20 31 -3 48 15 15 38 16 38 1z m540 -159 c0 -5
-4 -10 -10 -10 -5 0 -10 5 -10 10 0 6 5 10 10 10 6 0 10 -4 10 -10z m-3682
-710 c3 -34 -1 -47 -15 -58 -16 -11 -19 -36 -24 -220 -7 -237 -9 -230 92 -351
49 -59 133 -120 147 -107 11 11 -25 67 -96 149 -82 94 -110 137 -89 137 15 0
235 -242 337 -369 28 -36 73 -101 100 -145 27 -45 81 -117 120 -161 73 -82 97
-115 83 -115 -5 0 -73 66 -153 146 -80 80 -188 179 -240 219 -151 116 -321
301 -366 400 -52 110 -19 389 57 496 28 39 43 32 47 -21z m232 -86 c17 -41 33
-88 36 -106 l6 -33 -21 25 c-29 35 -81 163 -81 197 1 26 1 27 15 9 8 -10 28
-52 45 -92z m-90 -66 c109 -257 149 -317 401 -606 85 -97 173 -199 195 -227
44 -54 80 -115 66 -115 -4 0 -55 55 -114 123 -58 67 -167 187 -243 267 -266
282 -326 386 -360 633 -3 26 -4 47 -2 47 3 0 28 -55 57 -122z m-66 -171 c20
-48 36 -97 36 -110 -1 -21 -2 -20 -30 10 -16 18 -34 49 -39 70 -10 36 -16 131
-7 122 2 -2 20 -43 40 -92z m266 -75 c0 -12 -3 -12 -15 -2 -8 7 -15 22 -15 34
1 21 1 21 15 2 8 -11 15 -26 15 -34z m-640 24 c0 -6 -220 -76 -238 -76 -20 0
-14 28 10 41 31 17 228 46 228 35z m5370 -80 c0 -18 -17 -29 -30 -21 -8 5 -7
11 1 21 15 18 29 18 29 0z m-5261 -10 c10 -12 7 -17 -16 -29 -43 -23 -360
-100 -378 -93 -11 4 -15 15 -13 33 3 26 7 29 63 36 33 4 107 20 165 36 119 33
162 37 179 17z m693 -113 c72 -75 105 -119 95 -129 -5 -5 -109 105 -159 169
-50 63 -15 41 64 -40z m-611 -15 c38 -45 89 -127 89 -142 0 -40 -98 8 -111 54
-9 31 -11 110 -3 110 3 0 14 -10 25 -22z m-101 -3 c0 -8 -4 -15 -10 -15 -5 0
-10 7 -10 15 0 8 5 15 10 15 6 0 10 -7 10 -15z m-45 -23 c0 -7 -36 -25 -80
-41 -44 -16 -124 -49 -177 -75 -54 -25 -100 -46 -102 -46 -6 0 -26 60 -26 76
0 12 102 48 250 88 66 17 135 17 135 -2z m3895 -204 c-23 -61 -40 -82 -40 -50
0 28 37 102 50 102 6 0 1 -23 -10 -52z m252 24 c20 -20 0 -27 -72 -27 -69 0
-99 12 -85 35 10 16 140 9 157 -8z m148 -37 c0 -19 -34 -20 -49 -2 -8 10 -7
17 1 25 14 14 48 -2 48 -23z m-455 -115 c3 -5 1 -10 -4 -10 -6 0 -11 5 -11 10
0 6 2 10 4 10 3 0 8 -4 11 -10z m-45 -70 c0 -5 -5 -10 -11 -10 -5 0 -7 5 -4
10 3 6 8 10 11 10 2 0 4 -4 4 -10z m-2870 -70 c0 -5 -5 -10 -11 -10 -5 0 -7 5
-4 10 3 6 8 10 11 10 2 0 4 -4 4 -10z m2725 1 c5 -10 -20 -41 -34 -41 -18 0
-20 15 -4 32 18 20 29 23 38 9z m105 -16 c0 -8 -4 -16 -9 -19 -12 -8 -34 21
-27 33 9 14 36 2 36 -14z m-2530 -15 c0 -5 -2 -10 -4 -10 -3 0 -8 5 -11 10 -3
6 -1 10 4 10 6 0 11 -4 11 -10z m2860 -59 c28 -7 16 -9 -60 -9 -52 0 -117 6
-145 14 -49 13 -47 13 60 9 61 -3 126 -9 145 -14z m-519 -29 c-23 -34 -50 -57
-56 -50 -9 8 46 78 61 78 13 0 12 -5 -5 -28z m-2213 -36 c31 -30 54 -58 50
-61 -9 -10 -82 48 -108 86 -34 47 -3 34 58 -25z m2892 34 c0 -5 -13 -10 -30
-10 -16 0 -30 5 -30 10 0 6 14 10 30 10 17 0 30 -4 30 -10z m95 -20 c4 -6 -6
-10 -22 -10 -22 0 -25 2 -13 10 19 12 27 12 35 0z m-190 -40 c179 -28 321 -59
361 -78 25 -11 38 -27 50 -61 59 -160 101 -245 174 -349 100 -143 244 -322
350 -435 80 -87 81 -89 63 -109 -29 -32 -114 -71 -159 -72 -29 -1 -52 7 -80
26 -25 18 -51 27 -73 26 -30 -1 -43 7 -96 64 -64 67 -224 277 -312 408 -66 99
-127 213 -147 277 -18 54 -38 79 -56 68 -15 -9 -12 -39 10 -97 11 -28 18 -53
16 -55 -2 -2 -32 16 -67 41 -160 113 -276 189 -332 218 -135 67 -163 101 -120
144 15 15 33 16 153 11 74 -3 194 -15 265 -27z m275 16 c0 -3 -4 -8 -10 -11
-5 -3 -10 -1 -10 4 0 6 5 11 10 11 6 0 10 -2 10 -4z m-2809 -185 c53 -36 174
-149 166 -157 -15 -15 -257 152 -257 178 0 18 49 6 91 -21z m2152 12 c18 -9
27 -18 20 -20 -12 -4 -73 23 -73 32 0 10 21 5 53 -12z m-431 -56 c-23 -23 -42
-38 -42 -34 0 12 72 88 78 82 3 -3 -13 -25 -36 -48z m411 -38 c181 -91 246
-148 307 -269 64 -127 189 -317 264 -400 85 -94 138 -168 133 -184 -15 -45
-94 22 -276 234 -175 204 -215 261 -344 500 -35 65 -54 56 -32 -16 8 -27 21
-58 29 -69 21 -27 20 -35 -5 -35 -50 0 -189 188 -189 257 0 33 19 30 113 -18z
m-1538 -133 c66 -19 176 -48 245 -66 144 -38 200 -58 200 -72 0 -34 -436 81
-587 154 -72 35 -84 55 -20 32 23 -8 96 -30 162 -48z m1339 45 c12 -13 14 -21
6 -26 -13 -8 -52 24 -44 36 8 14 19 11 38 -10z m-1864 -77 c63 -39 174 -104
245 -144 72 -39 150 -85 175 -100 25 -16 75 -41 113 -55 79 -32 99 -51 41 -41
-54 9 -317 140 -441 219 -107 68 -257 179 -269 199 -8 13 -17 18 136 -78z
m2400 56 c19 -16 29 -29 23 -30 -7 0 -27 13 -45 30 -43 38 -23 39 22 0z
m-2577 -31 c37 -28 67 -55 67 -60 0 -15 -77 31 -124 73 -61 55 -22 46 57 -13z
m417 -9 c0 -5 -4 -10 -10 -10 -5 0 -10 5 -10 10 0 6 5 10 10 10 6 0 10 -4 10
-10z m-630 -35 c0 -8 -4 -15 -10 -15 -5 0 -10 7 -10 15 0 8 5 15 10 15 6 0 10
-7 10 -15z m1690 0 c0 -18 -56 -49 -76 -41 -22 8 -17 24 14 40 35 20 62 20 62
1z m-1550 -10 c6 -8 56 -41 110 -75 55 -33 102 -65 105 -71 9 -14 -60 16 -123
54 -54 32 -134 107 -115 107 6 0 16 -7 23 -15z m2039 -21 c11 -14 25 -42 32
-62 47 -150 357 -581 471 -654 l51 -33 -42 -3 c-99 -7 -193 47 -305 177 -161
186 -313 500 -278 575 15 33 45 33 71 0z m127 -22 c54 -40 113 -107 252 -290
66 -86 163 -204 216 -262 122 -133 122 -165 0 -119 -43 16 -75 38 -120 83 -93
94 -343 456 -360 520 -3 14 -10 26 -14 26 -16 0 -40 31 -40 51 0 27 20 24 66
-9z m599 -50 c132 -95 193 -153 300 -286 62 -78 143 -170 179 -206 62 -60 83
-100 53 -100 -7 0 -20 9 -30 20 -12 15 -24 18 -46 14 -75 -15 -133 35 -336
291 -159 201 -235 307 -235 330 0 9 60 -24 115 -63z m-1820 -18 c87 -20 173
-42 190 -50 28 -13 23 -14 -65 -10 -111 6 -230 34 -315 76 l-60 30 45 -5 c25
-3 117 -22 205 -41z m785 6 c-17 -22 -36 -40 -41 -40 -14 0 -11 7 22 45 43 48
58 44 19 -5z m-1035 -28 c75 -32 111 -55 97 -60 -13 -4 -202 83 -202 93 0 9
33 -2 105 -33z m1695 -12 c0 -14 -14 -12 -28 2 -19 19 -14 30 8 18 11 -6 20
-15 20 -20z m-2264 -44 c55 -35 107 -76 116 -92 24 -41 35 -124 53 -399 9
-132 20 -258 25 -280 9 -40 21 -445 40 -1315 13 -571 19 -656 55 -775 32 -102
43 -121 59 -105 8 8 12 270 14 883 3 888 -5 1299 -33 1562 -22 205 -28 323
-16 305 15 -25 38 -173 70 -470 36 -325 47 -501 61 -985 12 -440 26 -729 45
-940 21 -233 25 -251 94 -384 33 -64 41 41 41 508 0 447 -14 842 -39 1111 -11
118 -27 321 -36 450 -31 471 -57 620 -111 640 -29 12 -31 26 -4 35 30 10 157
-14 181 -34 20 -16 21 -30 30 -291 4 -151 13 -369 18 -485 14 -294 21 -535 32
-1190 5 -313 13 -588 17 -610 18 -97 25 26 30 513 3 332 8 510 14 504 6 -6 14
-231 20 -558 5 -302 13 -562 17 -579 4 -16 15 -31 23 -33 37 -7 41 31 39 368
-1 311 -23 1271 -37 1640 -4 96 -4 173 -1 170 10 -10 63 -658 107 -1320 6 -91
14 -252 19 -357 7 -182 8 -194 30 -217 30 -32 40 -86 40 -216 1 -114 -10 -178
-31 -191 -23 -15 -72 -10 -107 12 -25 15 -45 19 -70 16 -20 -3 -57 -9 -83 -12
-35 -6 -52 -3 -69 9 -30 20 -65 21 -73 0 -10 -26 -7 -69 6 -82 17 -17 147 -15
181 3 26 13 32 13 70 -6 33 -17 49 -20 86 -14 25 5 75 8 110 9 l64 0 -7 107
-7 107 28 14 c34 16 40 41 42 170 1 93 11 128 26 90 4 -9 11 -104 15 -210 5
-105 14 -201 20 -212 7 -13 21 -20 42 -20 30 0 31 0 25 43 -9 58 -25 334 -37
632 -6 138 -14 342 -20 455 -5 113 -14 347 -20 520 -11 315 -26 571 -55 900
-19 227 -19 290 -1 290 21 0 34 -50 46 -170 17 -173 79 -1390 89 -1765 17
-560 19 -583 71 -610 21 -11 30 -23 30 -40 0 -37 40 -135 55 -135 18 0 22 81
13 250 -26 479 -32 703 -28 975 3 147 17 63 25 -150 9 -243 21 -389 56 -645
42 -318 44 -327 80 -346 35 -17 34 -36 -2 -44 -19 -5 -25 -14 -29 -45 -5 -39
-6 -40 -60 -53 -104 -23 -128 -32 -177 -65 -26 -19 -68 -40 -93 -49 -30 -10
-49 -23 -58 -41 -16 -32 -33 -34 -71 -7 -24 19 -34 20 -92 11 -121 -18 -274
-23 -894 -30 -674 -8 -652 -6 -720 -66 l-30 -26 115 6 c555 28 1043 34 1022
13 -8 -8 -74 -12 -214 -14 -138 -1 -254 -9 -363 -23 -88 -11 -240 -25 -338
-29 -177 -9 -177 -9 -208 -38 -37 -36 -89 -115 -89 -137 0 -38 35 -42 300 -39
140 1 266 0 280 -4 24 -5 24 -6 5 -17 -13 -7 -61 -10 -135 -7 -235 8 -279 1
-299 -53 -15 -38 -36 -48 -114 -56 -74 -7 -122 -28 -134 -58 -7 -19 13 -33 49
-33 33 0 45 -16 21 -29 -10 -5 -71 -17 -136 -25 -123 -18 -147 -23 -147 -36 0
-17 31 -31 91 -44 35 -7 64 -17 66 -23 6 -16 -71 -32 -212 -44 -214 -17 -291
-40 -371 -111 -53 -47 -61 -50 -209 -58 -114 -6 -139 -11 -200 -38 -39 -17
-83 -34 -100 -38 -16 -4 -43 -13 -59 -21 -40 -20 -21 -34 56 -43 l63 -7 -47
-21 c-26 -13 -80 -27 -120 -32 -88 -11 -238 -13 -238 -2 0 76 41 410 60 487 5
22 12 83 16 135 4 52 13 108 21 123 8 16 22 77 32 136 10 60 26 119 35 133 9
15 22 74 31 153 20 176 24 192 53 250 14 28 53 131 88 230 34 99 89 253 123
342 69 182 94 279 116 449 35 268 30 477 -17 656 -24 94 -19 118 26 118 12 0
31 7 42 15 29 19 76 29 292 60 100 14 210 35 242 45 33 11 86 24 119 30 144
26 213 57 470 211 91 55 172 98 180 97 8 -2 18 -16 23 -33 5 -17 4 -254 -2
-530 -23 -1123 -24 -1244 -6 -1325 18 -86 68 -195 97 -210 28 -15 46 -57 54
-125 10 -81 26 -109 74 -128 42 -17 76 -12 131 22 76 46 83 73 54 198 -19 81
-21 186 -6 348 20 218 34 862 30 1390 -4 474 -7 532 -27 655 -46 288 -97 476
-142 522 -57 61 -23 52 97 -26z m1802 37 c6 -16 13 -42 16 -59 3 -17 23 -57
44 -90 22 -32 75 -112 117 -178 51 -78 113 -155 181 -226 57 -59 104 -110 104
-114 0 -13 -56 -5 -98 15 -88 43 -264 244 -355 406 -86 152 -102 273 -36 273
9 0 21 -12 27 -27z m-408 7 c0 -5 -7 -10 -15 -10 -8 0 -15 5 -15 10 0 6 7 10
15 10 8 0 15 -4 15 -10z m-150 -16 c22 -9 40 -19 40 -23 0 -15 -89 -37 -131
-33 -25 3 -32 32 -13 53 21 23 51 24 104 3z m239 -40 c-28 -30 -88 -68 -95
-61 -3 3 20 26 52 51 61 48 84 53 43 10z m-1129 -29 c10 -12 9 -15 -8 -15 -11
0 -25 7 -32 15 -10 12 -9 15 8 15 11 0 25 -7 32 -15z m458 -32 c-10 -2 -26 -2
-35 0 -10 3 -2 5 17 5 19 0 27 -2 18 -5z m842 -36 c0 -7 11 -38 24 -69 13 -32
20 -58 16 -58 -4 0 -22 16 -39 35 -30 34 -38 66 -25 99 7 17 24 12 24 -7z
m-541 3 c63 -9 92 -23 78 -37 -7 -7 -211 12 -255 24 -12 3 -22 9 -22 14 0 12
117 11 199 -1z m-1317 -82 c8 -29 8 -51 -1 -93 -7 -30 -16 -55 -20 -55 -10 0
-21 86 -21 165 1 55 2 59 16 40 8 -11 20 -37 26 -57z m568 52 c11 -7 4 -10
-25 -10 -29 0 -36 3 -25 10 8 5 20 10 25 10 6 0 17 -5 25 -10z m108 -27 c-10
-2 -26 -2 -35 0 -10 3 -2 5 17 5 19 0 27 -2 18 -5z m277 -43 c4 -6 -7 -10 -27
-10 -25 0 -29 3 -18 10 19 13 37 13 45 0z m1856 -137 c61 -63 129 -149 129
-164 0 -18 -28 -8 -71 25 -46 35 -122 124 -192 221 l-40 57 59 -40 c32 -23 84
-67 115 -99z m-1009 57 c50 -39 198 -274 198 -315 0 -47 -67 21 -144 145 -104
167 -122 224 -54 170z m-222 -60 c25 -140 41 -610 21 -610 -5 0 -11 15 -15 33
-24 133 -47 659 -27 642 6 -6 15 -35 21 -65z m-582 -165 l0 -100 -14 120 c-16
149 -15 171 1 120 8 -23 13 -83 13 -140z m201 157 c5 -10 12 -83 16 -162 4
-80 13 -212 20 -295 30 -315 63 -1247 48 -1353 -6 -46 -7 -46 -15 -17 -11 42
-28 324 -28 483 0 215 -33 631 -87 1098 -14 127 -23 238 -20 248 9 22 54 21
66 -2z m871 -107 c38 -74 37 -102 -2 -63 -30 29 -88 139 -88 165 0 29 55 -32
90 -102z m-1994 38 c10 -36 -3 -252 -21 -347 -18 -100 -40 -129 -32 -41 4 33
9 134 12 225 4 91 8 171 11 178 6 21 23 13 30 -15z m1759 -120 c65 -76 75 -93
53 -93 -34 0 -138 113 -138 152 0 32 18 20 85 -59z m-1368 -40 c-2 -21 -4 -4
-4 37 0 41 2 58 4 38 2 -21 2 -55 0 -75z m-2307 62 c0 -8 -4 -15 -10 -15 -5 0
-10 7 -10 15 0 8 5 15 10 15 6 0 10 -7 10 -15z m5650 -25 c0 -14 -68 -45 -77
-36 -10 10 37 45 60 46 9 0 17 -5 17 -10z m-246 -19 c3 -5 -2 -15 -11 -22 -45
-38 -79 -227 -104 -575 -9 -136 -8 -498 4 -714 2 -43 0 -45 -35 -62 -21 -10
-38 -22 -38 -27 0 -14 25 -31 58 -37 57 -12 58 -16 72 -311 16 -331 -3 -486
-54 -443 -9 7 -16 28 -16 46 0 50 -27 62 -166 74 -127 10 -339 -1 -375 -21
-16 -8 -18 -13 -8 -25 6 -8 20 -14 29 -14 10 0 40 -17 67 -37 48 -37 121 -63
177 -63 16 0 27 -3 23 -6 -14 -15 -100 -24 -308 -34 -123 -6 -359 -22 -524
-35 -165 -14 -334 -27 -375 -31 -43 -3 -86 -1 -101 5 -34 12 -35 20 -54 382
-8 152 -19 307 -24 345 -17 120 -30 395 -42 884 -11 469 -10 593 8 611 5 5 27
3 53 -5 25 -7 84 -19 132 -26 l87 -12 -6 -83 c-4 -61 -2 -94 10 -128 34 -99
151 -237 202 -237 43 0 41 26 -5 76 -47 51 -102 160 -125 249 -19 73 -19 99
-1 114 33 28 67 -20 95 -135 29 -120 39 -135 60 -96 7 13 5 31 -4 58 -45 126
7 194 150 194 65 0 237 40 344 79 72 26 99 31 180 32 53 0 177 8 276 18 202
21 341 25 349 12z m-1320 -22 c37 -29 34 -51 -5 -47 -35 3 -56 26 -46 52 8 21
19 20 51 -5z m1376 -15 c0 -8 -5 -12 -10 -9 -6 4 -8 11 -5 16 9 14 15 11 15
-7z m-5300 -9 c0 -8 -4 -15 -10 -15 -5 0 -10 7 -10 15 0 8 5 15 10 15 6 0 10
-7 10 -15z m1877 -923 c5 -845 1 -1085 -18 -1002 -13 58 -20 215 -28 608 -8
379 -14 433 -43 366 l-12 -29 -4 32 c-4 41 22 97 52 111 33 15 34 44 30 481
-3 284 -1 369 7 346 8 -21 13 -299 16 -913z m-2082 828 c-20 -59 -41 -80 -30
-29 4 19 15 52 23 74 23 56 28 19 7 -45z m5634 18 c-52 -66 -193 -208 -207
-208 -21 0 43 82 133 170 89 86 127 106 74 38z m-5199 -15 c0 -22 -2 -25 -10
-13 -13 20 -13 40 0 40 6 0 10 -12 10 -27z m248 -5 c17 -17 15 -58 -3 -64 -19
-8 -45 13 -45 35 0 17 18 41 30 41 3 0 11 -5 18 -12z m-388 -17 c5 -11 7 -27
4 -36 -6 -14 -9 -13 -30 6 -13 12 -24 28 -24 36 0 20 38 15 50 -6z m696 -67
c11 -43 -42 -74 -74 -42 -17 17 -15 38 9 78 l21 34 19 -23 c11 -13 22 -34 25
-47z m-466 27 c0 -12 -29 -35 -36 -28 -11 10 5 37 21 37 8 0 15 -4 15 -9z
m-296 -52 c-3 -5 -10 -7 -15 -3 -5 3 -7 10 -3 15 3 5 10 7 15 3 5 -3 7 -10 3
-15z m553 5 c8 -21 -13 -42 -28 -27 -13 13 -5 43 11 43 6 0 13 -7 17 -16z
m-168 -8 c9 -10 9 -16 1 -21 -13 -8 -42 14 -34 26 8 13 20 11 33 -5z m-179
-36 c0 -5 -4 -10 -10 -10 -5 0 -10 5 -10 10 0 6 5 10 10 10 6 0 10 -4 10 -10z
m680 -15 c6 -8 9 -18 6 -24 -10 -16 -63 -23 -86 -11 -16 9 -18 15 -10 30 13
24 71 27 90 5z m1915 -265 c17 -197 30 -666 15 -562 -5 34 -16 200 -24 370 -9
169 -18 343 -21 387 -7 136 12 7 30 -195z m-2335 230 c0 -5 -4 -10 -10 -10 -5
0 -10 5 -10 10 0 6 5 10 10 10 6 0 10 -4 10 -10z m200 0 c0 -5 -7 -10 -15 -10
-8 0 -15 5 -15 10 0 6 7 10 15 10 8 0 15 -4 15 -10z m-360 -20 c0 -5 -4 -10
-10 -10 -5 0 -10 5 -10 10 0 6 5 10 10 10 6 0 10 -4 10 -10z m2879 -175 c13
-129 14 -287 2 -265 -10 18 -31 260 -30 350 1 92 15 50 28 -85z m-1009 44 c0
-17 -4 -28 -10 -24 -5 3 -10 17 -10 31 0 13 5 24 10 24 6 0 10 -14 10 -31z
m437 -216 c-2 -21 -4 -4 -4 37 0 41 2 58 4 38 2 -21 2 -55 0 -75z m-1007 -12
c0 -61 -12 -131 -21 -125 -10 6 -12 107 -3 142 10 35 24 26 24 -17z m1019
-161 c6 -28 11 -70 10 -93 0 -36 -2 -39 -10 -19 -12 32 -27 162 -18 162 4 0
12 -23 18 -50z m-247 -82 c-9 -9 -12 -7 -12 12 0 19 3 21 12 12 9 -9 9 -15 0
-24z m908 -4 c0 -14 -4 -23 -10 -19 -5 3 -10 15 -10 26 0 10 5 19 10 19 6 0
10 -12 10 -26z m-1695 6 c3 -5 -3 -10 -15 -10 -12 0 -18 5 -15 10 3 6 10 10
15 10 5 0 12 -4 15 -10z m1622 -102 c-2 -18 -4 -6 -4 27 0 33 2 48 4 33 2 -15
2 -42 0 -60z m0 -180 c-2 -13 -4 -3 -4 22 0 25 2 35 4 23 2 -13 2 -33 0 -45z
m-1040 -90 c-2 -24 -4 -5 -4 42 0 47 2 66 4 43 2 -24 2 -62 0 -85z m247 -385
c3 -84 2 -153 -3 -153 -18 0 -21 53 -19 350 1 329 2 321 22 -197z m-771 40
c-4 -393 -8 -462 -25 -445 -11 11 -13 216 -2 233 3 5 2 24 -2 44 -10 56 -44
41 -44 -20 0 -34 -10 -55 -26 -55 -17 0 -18 39 -4 129 6 35 15 168 19 296 5
128 12 239 16 246 6 9 17 3 40 -24 l31 -36 -3 -368z m-1608 347 c3 -5 -3 -10
-15 -10 -12 0 -18 5 -15 10 3 6 10 10 15 10 5 0 12 -4 15 -10z m3194 -270 c1
-114 -7 -180 -20 -180 -10 0 -12 280 -2 306 13 34 22 -16 22 -126z m-1499 89
c0 -17 -4 -28 -10 -24 -5 3 -10 17 -10 31 0 13 5 24 10 24 6 0 10 -14 10 -31z
m1133 -174 c4 -8 2 -17 -3 -20 -6 -4 -10 3 -10 14 0 25 6 27 13 6z m-1133 -46
c0 -10 -4 -19 -10 -19 -5 0 -10 12 -10 26 0 14 4 23 10 19 6 -3 10 -15 10 -26z
m1300 -121 c0 -70 -3 -98 -10 -88 -17 26 -11 190 6 190 2 0 4 -46 4 -102z
m-1269 -126 c5 -59 20 -161 34 -227 13 -66 25 -136 25 -156 0 -43 -21 -75 -44
-66 -18 7 -19 23 -6 124 10 79 6 105 -16 96 -24 -9 -35 44 -29 136 10 154 17
213 23 207 3 -3 9 -54 13 -114z m656 -50 l2 -67 -14 70 c-17 89 -17 91 -3 77
7 -7 13 -42 15 -80z m543 -117 c0 -8 -4 -17 -10 -20 -6 -4 -10 5 -10 20 0 15
4 24 10 20 6 -3 10 -12 10 -20z m0 -65 c0 -5 -4 -10 -10 -10 -5 0 -10 5 -10
10 0 6 5 10 10 10 6 0 10 -4 10 -10z m2145 -70 c3 -5 -3 -10 -15 -10 -12 0
-18 5 -15 10 3 6 10 10 15 10 5 0 12 -4 15 -10z m-310 -70 c4 -6 -7 -10 -24
-10 -17 0 -31 5 -31 10 0 6 11 10 24 10 14 0 28 -4 31 -10z m-355 -8 c0 -18
-169 -46 -595 -97 -159 -19 -310 -38 -335 -41 l-45 -7 25 28 c37 41 95 63 211
80 213 31 739 57 739 37z m245 -52 c0 -11 -13 -16 -50 -18 -54 -2 -82 9 -70
27 11 18 120 10 120 -9z m379 -10 c26 -9 36 -43 17 -55 -5 -3 -31 6 -57 20
-26 14 -58 25 -70 25 -13 0 -24 5 -24 10 0 13 101 13 134 0z m-624 -20 c0 -5
-4 -10 -10 -10 -5 0 -10 5 -10 10 0 6 5 10 10 10 6 0 10 -4 10 -10z m350 -50
c0 -5 -4 -10 -10 -10 -5 0 -10 5 -10 10 0 6 5 10 10 10 6 0 10 -4 10 -10z
m-74 -15 c19 -14 19 -14 -2 -15 -35 0 -226 -20 -256 -26 -16 -3 -28 -1 -28 4
0 8 55 24 155 45 46 10 112 6 131 -8z m-486 -35 c0 -5 -2 -10 -4 -10 -3 0 -8
5 -11 10 -3 6 -1 10 4 10 6 0 11 -4 11 -10z m-640 -20 c0 -5 -14 -10 -31 -10
-17 0 -28 4 -24 10 3 6 17 10 31 10 13 0 24 -4 24 -10z m543 -1 c-19 -6 -40
-5 -55 0 -18 8 -12 10 32 9 50 0 52 -1 23 -9z m-229 -15 c9 -3 16 -12 16 -20
0 -7 8 -17 17 -23 16 -8 15 -10 -7 -15 -45 -10 -413 -58 -510 -67 -107 -9
-326 -12 -318 -4 10 11 562 108 702 124 39 5 74 9 78 10 3 0 13 -2 22 -5z
m-479 -15 c-16 -5 -64 -11 -105 -14 -74 -5 -75 -5 -35 9 22 8 69 14 105 14 55
0 60 -1 35 -9z m665 -59 c0 -5 -4 -10 -10 -10 -5 0 -10 5 -10 10 0 6 5 10 10
10 6 0 10 -4 10 -10z m943 -16 c8 -9 -11 -44 -23 -44 -6 0 -10 8 -10 18 0 27
18 41 33 26z m2182 -14 c-100 -29 -541 -52 -575 -30 -22 14 -2 28 45 33 81 8
560 5 530 -3z m-4472 -90 c-14 -6 -32 -6 -45 0 -19 7 -15 9 22 9 37 0 41 -2
23 -9z m4384 3 c-20 -2 -52 -2 -70 0 -17 2 0 4 38 4 39 0 53 -2 32 -4z m-3537
-23 c0 -5 -22 -10 -50 -10 -27 0 -50 5 -50 10 0 6 23 10 50 10 28 0 50 -4 50
-10z m415 0 c4 -6 -10 -10 -35 -10 -25 0 -39 4 -35 10 3 6 19 10 35 10 16 0
32 -4 35 -10z m-811 -25 c0 -5 -12 -16 -25 -24 -22 -12 -28 -12 -52 4 -15 9
-24 21 -21 27 8 12 99 6 98 -7z m1576 -5 c27 -17 -36 -30 -143 -30 -56 0 -195
-5 -309 -11 -201 -11 -260 -8 -228 11 15 9 142 28 225 33 120 8 441 6 455 -3z
m-2164 -22 c18 -19 -18 -23 -184 -23 -182 0 -249 8 -221 26 16 11 394 8 405
-3z m134 8 c0 -9 -39 -13 -51 -5 -10 6 -4 9 19 9 17 0 32 -2 32 -4z m4495 -6
c-3 -5 -13 -10 -21 -10 -8 0 -14 5 -14 10 0 6 9 10 21 10 11 0 17 -4 14 -10z
m-5126 -15 c-4 -4 -232 -42 -351 -59 -41 -5 -50 7 -19 23 20 11 162 29 266 34
33 2 71 4 84 5 13 1 22 0 20 -3z m866 -5 c3 -5 -3 -10 -15 -10 -12 0 -18 5
-15 10 3 6 10 10 15 10 5 0 12 -4 15 -10z m915 0 c0 -5 -16 -10 -36 -10 -21 0
-33 4 -29 10 3 6 19 10 36 10 16 0 29 -4 29 -10z m-170 -20 c0 -5 -5 -10 -11
-10 -5 0 -7 5 -4 10 3 6 8 10 11 10 2 0 4 -4 4 -10z m-273 -27 c-20 -2 -52 -2
-70 0 -17 2 0 4 38 4 39 0 53 -2 32 -4z m-597 -23 c0 -5 -16 -10 -35 -10 -19
0 -35 5 -35 10 0 6 16 10 35 10 19 0 35 -4 35 -10z m-170 -20 c11 -7 3 -10
-30 -9 -34 0 -40 2 -25 9 27 12 37 12 55 0z m1225 0 c14 -6 -2 -9 -50 -9 -48
0 -64 3 -50 9 11 5 34 9 50 9 17 0 39 -4 50 -9z m-1585 -11 c-71 -17 -287 -40
-345 -37 -58 3 -59 4 -31 16 37 16 172 29 306 30 78 0 96 -2 70 -9z m2066 0
c79 -14 98 -34 24 -24 -55 7 -129 33 -99 34 8 1 42 -4 75 -10z m-1846 -19 c0
-5 -2 -10 -4 -10 -3 0 -8 5 -11 10 -3 6 -1 10 4 10 6 0 11 -4 11 -10z m-1097
-17 c-18 -2 -48 -2 -65 0 -18 2 -4 4 32 4 36 0 50 -2 33 -4z m2177 -3 c0 -5
-12 -10 -26 -10 -14 0 -23 4 -19 10 3 6 15 10 26 10 10 0 19 -4 19 -10z m1045
0 c-3 -5 -19 -10 -35 -10 -16 0 -32 5 -35 10 -4 6 10 10 35 10 25 0 39 -4 35
-10z m-2375 -44 c0 -3 -4 -8 -10 -11 -5 -3 -10 -1 -10 4 0 6 5 11 10 11 6 0
10 -2 10 -4z m1890 -26 c-45 -10 -356 -30 -451 -29 -63 1 -69 2 -42 10 44 13
248 26 403 27 84 0 113 -3 90 -8z m-765 -20 l30 -7 -28 -11 c-36 -15 -157 -15
-194 -1 l-28 12 25 7 c31 10 155 10 195 0z m753 -95 c3 -3 0 -11 -7 -18 -16
-16 -225 -17 -242 0 -9 9 -7 13 12 17 13 3 33 7 44 10 25 6 186 -1 193 -9z
m-468 -10 c0 -8 -4 -15 -10 -15 -5 0 -10 7 -10 15 0 8 5 15 10 15 6 0 10 -7
10 -15z m-2241 -18 c15 -19 4 -27 -39 -27 -36 0 -67 20 -53 33 12 12 80 7 92
-6z m189 -4 c-2 -10 -13 -19 -26 -21 -17 -3 -22 2 -22 17 0 16 6 21 26 21 19
0 25 -5 22 -17z m779 1 c6 -17 -19 -23 -126 -34 -155 -17 -200 6 -70 35 74 16
191 15 196 -1z m3581 -6 c3 -14 -3 -18 -26 -18 -30 0 -58 21 -45 34 14 14 68
1 71 -16z m-4080 -10 c-7 -22 -58 -40 -125 -46 -94 -7 -80 28 20 48 67 13 109
12 105 -2z m772 -3 c10 -12 8 -16 -14 -25 -17 -6 -35 -6 -52 0 -22 9 -24 13
-14 25 7 8 25 15 40 15 15 0 33 -7 40 -15z m-620 -15 c13 -9 12 -12 -4 -25
-23 -17 -54 -19 -76 -5 -13 9 -12 12 4 25 23 17 54 19 76 5z m890 -50 c25 -16
-3 -31 -58 -32 -27 0 -60 3 -73 7 -22 7 -22 8 -4 21 21 16 112 19 135 4z m477
-1 c25 -9 26 -12 11 -20 -20 -11 -161 -14 -201 -4 -29 8 -35 20 -14 28 23 10
176 7 204 -4z m-1347 -48 c0 -5 -10 -11 -22 -15 -30 -7 -253 -31 -543 -56
-126 -11 -248 -23 -270 -25 -90 -12 -81 37 10 54 48 9 219 24 465 40 165 12
360 12 360 2z m-463 -117 c9 -23 -13 -40 -32 -24 -12 10 -13 16 -4 26 15 18
28 18 36 -2z m-507 -242 c30 -19 14 -27 -35 -18 -37 7 -50 20 -40 36 8 12 39
5 75 -18z m-320 -6 c0 -3 -4 -8 -10 -11 -5 -3 -10 -1 -10 4 0 6 5 11 10 11 6
0 10 -2 10 -4z"/>
<path d="M7170 5785 c-22 -27 -1 -99 70 -242 113 -227 276 -461 401 -577 83
-77 169 -116 169 -76 0 5 -47 58 -104 118 -129 137 -194 217 -288 357 -121
179 -178 294 -202 408 -7 30 -27 35 -46 12z"/>
<path d="M4490 3700 c0 -34 14 -39 29 -12 7 13 6 23 -1 30 -19 19 -28 14 -28
-18z"/>
<path d="M4484 3628 c-13 -20 -17 -1221 -5 -1360 14 -147 21 -168 60 -168 16
0 32 4 35 8 2 4 -2 68 -9 142 -18 167 -35 678 -35 1030 0 146 -5 282 -9 304
-11 46 -25 63 -37 44z"/>
<path d="M4707 2183 c-13 -13 -7 -61 11 -82 39 -48 157 -26 157 29 0 24 -3 25
-48 22 -41 -3 -51 0 -63 17 -15 20 -44 28 -57 14z"/>
<path d="M4451 2054 c-36 -7 -69 -19 -75 -25 -8 -9 20 -10 114 -6 132 6 181
15 188 35 5 17 -144 14 -227 -4z"/>
<path d="M4245 2010 c3 -5 10 -10 16 -10 5 0 9 5 9 10 0 6 -7 10 -16 10 -8 0
-12 -4 -9 -10z"/>
<path d="M7155 3401 c-13 -22 100 -80 187 -96 45 -8 85 9 68 30 -6 8 -26 17
-43 20 -18 4 -51 18 -74 31 -42 24 -126 33 -138 15z"/>
<path d="M7063 3284 c-17 -45 171 -138 323 -158 39 -6 53 -4 63 8 17 20 -12
38 -109 66 -41 13 -106 36 -145 53 -101 43 -125 49 -132 31z"/>
<path d="M6891 3113 c-31 -27 -12 -45 56 -54 63 -9 213 -2 234 12 11 6 10 11
-6 23 -52 38 -245 51 -284 19z"/>
<path d="M7462 2953 c4 -23 65 -63 94 -63 26 0 57 27 48 42 -11 17 -71 38
-109 38 -29 0 -36 -4 -33 -17z"/>
<path d="M6703 2935 c-18 -8 -33 -16 -33 -19 0 -12 84 -26 215 -36 184 -15
312 -35 375 -60 64 -25 96 -25 110 0 14 26 -12 43 -111 70 -187 51 -487 75
-556 45z"/>
<path d="M6582 2760 c-66 -14 -106 -41 -110 -74 -8 -62 51 -75 80 -16 22 44
35 48 133 49 84 1 125 8 125 21 0 4 -8 11 -17 14 -30 12 -166 15 -211 6z"/>
<path d="M4613 9473 c-11 -15 -37 -61 -58 -101 -34 -66 -155 -212 -175 -212
-4 0 11 33 34 73 64 113 81 156 68 169 -16 16 -37 -4 -75 -76 -35 -66 -180
-225 -259 -282 -27 -20 -47 -39 -44 -41 2 -3 49 14 103 37 224 95 347 193 416
330 20 41 38 86 40 100 3 35 -27 37 -50 3z"/>
<path d="M4124 9183 c-104 -112 -211 -201 -284 -239 -19 -10 -59 -21 -89 -25
-30 -4 -73 -20 -100 -36 -52 -33 -66 -63 -29 -63 31 0 164 42 213 68 61 31
176 115 242 176 61 56 173 195 173 214 0 31 -27 11 -126 -95z"/>
<path d="M2460 9183 c-44 -68 -111 -211 -192 -408 -39 -93 -94 -222 -123 -285
-67 -144 -201 -569 -269 -850 -35 -148 -125 -633 -136 -735 -11 -109 -5 -265
10 -265 12 0 27 78 66 344 55 377 126 695 239 1064 68 224 97 299 263 667 152
339 191 434 194 477 4 48 -18 44 -52 -9z"/>
<path d="M6098 9080 c-38 -50 -40 -74 -6 -78 31 -4 42 20 36 79 l-3 34 -27
-35z"/>
<path d="M6120 8919 c-37 -57 -46 -121 -18 -127 11 -2 24 14 43 54 56 118 37
171 -25 73z"/>
<path d="M6152 8733 c-31 -45 -62 -111 -62 -133 0 -25 21 -26 43 -2 21 23 67
122 67 145 0 26 -26 20 -48 -10z"/>
<path d="M8379 8590 c-30 -17 -114 -59 -186 -95 -124 -61 -151 -83 -123 -100
16 -10 118 23 209 68 86 43 171 109 171 132 0 26 -18 25 -71 -5z"/>
<path d="M6208 8557 c-9 -12 -30 -51 -48 -87 -18 -37 -55 -87 -84 -115 -30
-29 -67 -81 -90 -125 -54 -104 -104 -175 -180 -259 -36 -39 -66 -75 -66 -81 0
-16 32 1 79 42 54 47 82 52 51 8 -32 -44 -75 -74 -181 -124 -138 -66 -252 -96
-360 -96 -162 0 -529 59 -658 105 -77 28 -111 31 -111 12 0 -51 143 -102 383
-137 177 -26 224 -38 248 -64 18 -19 33 -21 140 -24 196 -6 300 26 452 138 45
33 92 67 104 75 12 9 27 34 33 57 7 23 26 54 46 73 53 50 96 152 105 251 8 88
13 104 33 104 45 0 157 198 141 249 -8 27 -19 27 -37 -2z m-228 -460 c0 -19
-53 -93 -57 -80 -5 15 35 93 47 93 6 0 10 -6 10 -13z m-435 -407 c3 -5 -3 -10
-15 -10 -12 0 -18 5 -15 10 3 6 10 10 15 10 5 0 12 -4 15 -10z"/>
<path d="M4015 8439 c-125 -13 -149 -19 -136 -32 8 -8 80 -11 234 -11 222 1
284 9 274 37 -5 15 -249 19 -372 6z"/>
<path d="M8708 8429 c-24 -14 -22 -31 6 -58 l23 -22 7 33 c8 39 -10 62 -36 47z"/>
<path d="M4002 8360 c-154 -8 -189 -20 -125 -41 50 -16 359 -16 471 1 82 12
108 24 75 34 -36 10 -283 14 -421 6z"/>
<path d="M8380 8280 c0 -19 3 -21 12 -12 9 9 9 15 0 24 -9 9 -12 7 -12 -12z"/>
<path d="M3840 8246 c0 -16 8 -30 23 -37 12 -7 44 -31 70 -55 99 -89 220 -123
439 -124 208 0 171 23 -97 60 -166 22 -245 39 -245 50 0 15 65 20 185 14 133
-7 219 0 212 19 -5 16 -79 30 -322 63 -110 15 -215 29 -232 31 -30 5 -33 3
-33 -21z"/>
<path d="M4056 8011 c-13 -20 9 -42 68 -70 102 -47 288 -88 342 -75 46 12 7
32 -126 64 -68 17 -154 44 -191 61 -73 31 -85 34 -93 20z"/>
<path d="M6415 7920 c-3 -5 3 -10 15 -10 12 0 18 5 15 10 -3 6 -10 10 -15 10
-5 0 -12 -4 -15 -10z"/>
<path d="M4190 7837 c0 -23 55 -62 122 -87 31 -11 96 -46 145 -77 128 -82 130
-82 355 -83 203 0 228 3 228 26 0 21 -62 31 -255 43 l-180 10 -75 41 c-228
122 -340 164 -340 127z"/>
<path d="M3940 7833 c0 -28 91 -81 218 -127 182 -65 151 4 -39 85 -91 40 -179
60 -179 42z"/>
<path d="M3820 7706 c0 -37 194 -136 273 -139 36 -2 42 1 42 18 0 15 -27 31
-135 77 -139 59 -180 69 -180 44z"/>
<path d="M3700 7561 c0 -23 54 -70 102 -89 111 -44 158 -50 183 -26 22 23 5
40 -48 47 -23 3 -84 22 -134 41 -102 40 -103 40 -103 27z"/>
<path d="M3755 7360 c3 -5 13 -10 21 -10 8 0 14 5 14 10 0 6 -9 10 -21 10 -11
0 -17 -4 -14 -10z"/>
<path d="M6693 7113 c-20 -7 -15 -31 6 -38 23 -7 71 4 71 16 0 20 -49 34 -77
22z"/>
<path d="M7003 6780 c-28 -11 -30 -36 -4 -50 12 -6 95 -10 202 -10 107 0 225
-6 288 -15 58 -8 120 -17 137 -19 17 -2 37 0 44 4 21 13 -13 47 -59 60 -108
31 -551 53 -608 30z"/>
<path d="M1480 6434 c-117 -23 -275 -89 -313 -131 -15 -17 -15 -22 -4 -32 11
-9 35 -1 109 39 52 27 134 63 181 81 77 27 107 44 96 53 -2 2 -33 -3 -69 -10z"/>
<path d="M1696 6431 c-15 -16 -22 -52 -32 -168 -7 -82 -18 -186 -24 -233 -6
-47 -14 -138 -18 -202 -8 -102 -12 -122 -35 -157 -16 -24 -42 -47 -63 -56 -69
-29 -326 -241 -342 -283 -6 -15 -15 -60 -21 -101 -8 -61 -17 -83 -52 -133 -56
-80 -139 -245 -139 -276 l0 -25 24 22 c30 29 111 175 177 321 66 147 126 237
214 325 105 105 200 148 218 100 11 -28 -45 -113 -149 -225 -192 -206 -344
-395 -344 -427 0 -31 34 -5 70 53 86 142 266 354 288 340 19 -11 16 -26 -47
-219 -94 -289 -163 -560 -195 -767 -26 -169 -46 -333 -50 -418 -3 -60 -9 -89
-21 -102 -9 -10 -15 -25 -13 -32 3 -7 -3 -29 -14 -48 -25 -48 -24 -160 2 -219
15 -32 20 -65 20 -130 1 -47 7 -113 15 -146 8 -33 15 -89 15 -125 0 -36 7
-124 15 -195 9 -72 31 -269 51 -440 36 -326 65 -521 90 -618 10 -39 14 -94 12
-167 -3 -107 -2 -110 24 -136 34 -34 58 -27 58 18 0 19 -7 44 -16 57 -15 21
-15 27 0 81 12 43 14 65 6 84 -5 15 -10 44 -10 64 0 21 -6 46 -14 57 -7 11
-16 54 -19 95 -15 187 -26 268 -45 310 -30 66 -48 196 -94 680 -47 494 -52
685 -26 880 9 69 19 170 23 225 9 147 24 253 46 315 10 30 19 68 19 85 0 42
165 559 195 610 13 22 26 57 30 78 4 20 42 105 84 189 43 84 80 160 83 168 5
11 21 0 64 -43 39 -40 64 -57 78 -55 32 5 31 39 -3 117 -36 80 -36 87 -15 130
13 25 13 35 4 47 -7 8 -21 12 -31 9 -13 -4 -27 8 -55 51 l-38 56 12 138 c7 76
24 197 38 269 22 113 24 134 12 158 -17 35 -39 40 -62 14z m-481 -1151 c3 -5
-3 -10 -15 -10 -12 0 -18 5 -15 10 3 6 10 10 15 10 5 0 12 -4 15 -10z"/>
<path d="M1434 6330 c-90 -32 -266 -127 -364 -197 -53 -37 -115 -77 -138 -87
-42 -19 -54 -42 -28 -52 19 -7 89 29 242 127 158 102 261 156 311 164 47 8
109 34 124 52 17 20 -84 16 -147 -7z"/>
<path d="M8027 6273 c-37 -37 74 -239 127 -231 32 5 32 43 -1 85 -15 20 -39
56 -53 81 -25 46 -61 78 -73 65z"/>
<path d="M1557 6253 c-14 -13 -7 -33 11 -33 19 0 42 18 42 32 0 10 -44 11 -53
1z"/>
<path d="M2480 6245 c0 -9 87 -104 193 -213 106 -109 200 -214 210 -234 20
-42 44 -55 65 -34 38 37 -35 136 -235 318 -193 176 -233 204 -233 163z"/>
<path d="M975 6171 c-66 -40 -86 -92 -27 -70 28 11 92 67 92 81 0 14 -34 9
-65 -11z"/>
<path d="M1366 6169 c-26 -21 -34 -43 -17 -53 10 -7 91 50 91 64 0 18 -46 11
-74 -11z"/>
<path d="M5375 6181 c22 -36 354 -118 638 -157 105 -14 137 -15 180 -5 123 27
100 49 -64 61 -221 17 -474 53 -621 91 -82 20 -143 25 -133 10z"/>
<path d="M1240 6085 c-6 -8 -9 -19 -5 -25 9 -14 45 6 45 25 0 19 -24 19 -40 0z"/>
<path d="M1475 6093 c-11 -3 -27 -11 -36 -19 -8 -8 -31 -17 -50 -20 -19 -4
-70 -23 -113 -42 -44 -19 -111 -43 -150 -54 -71 -19 -183 -75 -205 -102 -10
-11 -9 -16 5 -24 9 -5 26 -7 38 -5 74 17 199 59 246 84 122 63 252 119 278
119 32 0 113 39 120 58 4 12 -89 16 -133 5z"/>
<path d="M8360 6061 c-12 -23 -3 -51 15 -51 20 0 28 18 21 46 -8 29 -22 31
-36 5z"/>
<path d="M1475 5993 c-62 -32 -87 -73 -46 -73 23 0 105 60 103 75 -2 16 -25
16 -57 -2z"/>
<path d="M1335 5870 c-11 -12 -15 -26 -10 -37 6 -16 9 -15 31 10 35 41 15 67
-21 27z"/>
<path d="M1042 5797 c-93 -74 -233 -250 -252 -316 -4 -16 -4 -34 0 -42 12 -19
37 6 120 116 37 50 99 128 138 174 70 82 85 111 60 111 -7 0 -37 -19 -66 -43z"/>
<path d="M1464 5762 c-101 -35 -232 -127 -384 -269 -52 -49 -111 -95 -130
-102 -69 -26 -86 -37 -132 -84 -94 -98 -272 -356 -266 -387 2 -9 14 -15 28
-15 19 0 36 16 73 65 158 212 603 637 697 665 14 4 36 17 50 30 32 29 64 45
89 45 26 0 76 43 67 58 -10 16 -32 15 -92 -6z"/>
<path d="M2747 5774 c-22 -23 4 -178 46 -274 28 -64 48 -144 81 -329 24 -129
41 -171 65 -157 7 4 11 41 11 92 0 56 5 95 15 114 8 16 19 46 23 67 l8 38 8
-48 c6 -42 10 -48 29 -45 27 4 107 119 107 153 0 30 -17 42 -78 55 -28 6 -56
17 -62 25 -6 7 -17 49 -25 94 -24 136 -55 166 -55 52 0 -45 -5 -72 -13 -80
-21 -17 -41 12 -82 119 -35 92 -64 138 -78 124z m180 -461 c-2 -16 -4 -5 -4
22 0 28 2 40 4 28 2 -13 2 -35 0 -50z"/>
<path d="M1220 5735 c-33 -34 -36 -53 -6 -42 15 6 51 66 44 73 -3 2 -20 -12
-38 -31z"/>
<path d="M1850 5641 c0 -12 5 -21 10 -21 6 0 10 6 10 14 0 8 -4 18 -10 21 -5
3 -10 -3 -10 -14z"/>
<path d="M1060 5570 c-15 -15 -19 -25 -12 -32 13 -13 65 17 59 35 -6 20 -25
19 -47 -3z"/>
<path d="M7753 5505 c-8 -23 47 -128 123 -236 124 -175 228 -279 281 -279 49
0 35 28 -64 127 -100 99 -200 225 -249 311 -30 52 -63 92 -76 92 -5 0 -11 -7
-15 -15z"/>
<path d="M7917 5514 c-11 -11 28 -76 104 -174 93 -122 316 -346 352 -355 16
-4 41 -2 59 6 31 13 32 12 77 -37 61 -66 98 -91 114 -75 18 18 -9 59 -174 256
-82 99 -180 224 -217 277 -66 96 -84 114 -104 102 -30 -18 71 -190 202 -344
61 -72 83 -106 77 -122 -5 -17 -272 252 -354 357 -34 44 -69 88 -78 98 -15 17
-46 23 -58 11z"/>
<path d="M3267 5482 c-19 -21 -22 -57 -7 -67 33 -20 84 42 59 71 -16 19 -33
18 -52 -4z"/>
<path d="M2005 4596 c-18 -28 -10 -56 16 -56 23 0 42 34 34 60 -9 27 -31 25
-50 -4z"/>
<path d="M2399 3791 c-56 -36 -111 -91 -106 -105 7 -20 69 -8 111 21 44 31 89
90 80 104 -10 16 -40 9 -85 -20z"/>
<path d="M7906 3739 c-39 -34 -176 -231 -176 -253 0 -8 7 -17 16 -20 21 -8 54
2 54 15 0 6 33 59 74 119 41 60 77 119 81 131 13 39 -10 43 -49 8z"/>
<path d="M8255 3698 c-39 -40 -123 -143 -187 -228 -63 -85 -154 -206 -202
-268 -55 -72 -86 -121 -86 -138 0 -21 3 -23 19 -14 60 31 551 664 551 709 0
25 -28 7 -95 -61z"/>
<path d="M8487 3740 c-34 -27 -129 -146 -218 -273 -40 -56 -131 -185 -204
-287 -159 -222 -171 -243 -149 -261 12 -10 22 -4 62 37 40 43 423 579 520 728
47 73 42 97 -11 56z"/>
<path d="M8053 3703 c-43 -39 -93 -105 -148 -196 -25 -42 -75 -109 -111 -147
-61 -66 -75 -92 -56 -104 28 -17 119 79 222 234 35 52 85 124 112 159 26 35
48 68 48 72 0 18 -37 8 -67 -18z"/>
<path d="M9536 3205 c-16 -25 -19 -25 -149 -26 -132 -1 -217 -14 -224 -35 -2
-6 4 -15 13 -18 10 -4 151 -11 313 -16 312 -11 349 -14 358 -36 12 -32 88 -37
688 -43 594 -7 600 -7 650 -29 60 -28 167 -39 460 -47 332 -9 634 -25 705 -36
36 -5 89 -19 118 -29 29 -11 62 -20 74 -20 20 0 19 3 -12 35 -57 58 -145 74
-525 95 -231 13 -346 25 -490 50 -60 11 -159 24 -220 30 -276 27 -269 29 110
25 452 -5 686 -25 889 -76 43 -11 80 -18 83 -16 11 11 -102 69 -168 86 -163
42 -366 56 -819 56 -386 0 -430 -2 -485 -19 -118 -36 -798 -31 -970 8 -33 8
-122 30 -198 50 -165 43 -180 44 -201 11z"/>
<path d="M8485 3076 c-18 -20 -67 -91 -108 -159 -41 -67 -100 -162 -131 -212
l-57 -90 28 -3 c38 -5 67 30 186 222 103 165 137 227 137 250 0 30 -22 27 -55
-8z"/>
<path d="M8975 3034 c-105 -30 78 -58 451 -70 155 -5 213 -4 218 5 19 31 -180
60 -449 66 -110 2 -209 2 -220 -1z"/>
<path d="M10126 2940 c-174 -22 -147 -38 86 -50 244 -14 1392 -18 1398 -5 10
21 -77 35 -268 45 -271 14 -1132 21 -1216 10z"/>
<path d="M9027 2813 l-298 -3 6 -23 c11 -35 37 -87 46 -93 5 -3 25 4 44 16 23
14 64 24 127 31 133 16 1969 5 2183 -12 280 -22 395 -16 353 19 -37 30 -352
49 -1023 62 -469 9 -706 9 -1438 3z"/>
<path d="M11768 2813 c-16 -2 -28 -8 -28 -13 0 -6 12 -12 28 -16 15 -3 34 -8
42 -10 8 -2 112 -10 230 -19 287 -21 372 -36 346 -62 -3 -4 -57 -7 -119 -8
-77 -2 -139 -9 -197 -24 -47 -12 -121 -24 -165 -28 -248 -19 -125 -79 325
-158 167 -29 250 -33 250 -11 0 23 -11 26 -190 62 -92 18 -179 39 -194 45 -26
12 -26 13 -7 21 11 4 113 10 226 14 l207 7 -7 36 c-10 52 -33 91 -61 101 -31
12 -182 36 -349 55 -121 14 -274 18 -337 8z"/>
<path d="M12640 2780 c0 -5 5 -10 10 -10 6 0 10 5 10 10 0 6 -4 10 -10 10 -5
0 -10 -4 -10 -10z"/>
<path d="M9438 2718 c-38 -13 -35 -24 10 -38 20 -7 49 -23 63 -37 26 -24 26
-24 305 -27 283 -4 434 -13 434 -26 0 -4 -77 -9 -171 -12 -103 -3 -174 -9
-181 -16 -16 -16 16 -21 187 -30 l150 -8 -40 -18 c-72 -32 -144 -36 -645 -37
-272 -1 -506 -4 -520 -8 l-25 -7 30 -7 c30 -7 310 -18 915 -37 427 -14 665
-27 812 -45 145 -19 189 -19 213 -1 18 13 17 14 -6 29 -26 17 -220 48 -434 69
l-130 13 105 6 c139 8 409 -7 496 -26 130 -31 126 -30 122 -4 -7 50 -126 79
-423 103 -164 13 -166 14 -70 14 100 1 323 -12 401 -24 32 -5 42 -2 47 10 12
30 -27 54 -107 67 -42 7 -76 17 -76 21 0 4 24 8 53 8 49 0 88 12 76 24 -9 9
-387 26 -934 41 -605 17 -620 17 -657 3z m882 -128 c0 -5 -4 -10 -10 -10 -5 0
-10 5 -10 10 0 6 5 10 10 10 6 0 10 -4 10 -10z"/>
<path d="M2190 2620 c-99 -58 -186 -89 -366 -129 -136 -31 -207 -57 -201 -75
15 -44 363 30 545 116 69 33 142 95 142 121 0 28 -31 19 -120 -33z"/>
<path d="M9195 2570 c-4 -6 -4 -14 0 -18 9 -9 569 -15 614 -7 32 6 34 8 16 18
-29 17 -620 23 -630 7z"/>
<path d="M2065 2419 c-154 -56 -250 -86 -317 -98 -144 -27 -168 -33 -173 -42
-9 -14 41 -29 100 -29 194 0 557 140 520 200 -8 14 -6 14 -130 -31z"/>
<path d="M8763 2333 c-26 -10 -11 -22 40 -32 80 -16 351 -30 802 -41 226 -6
442 -15 480 -20 168 -23 183 -24 211 -5 23 15 24 19 12 31 -8 8 -41 19 -74 24
-171 28 -1418 65 -1471 43z"/>
<path d="M2030 2264 c-57 -23 -130 -45 -272 -84 -63 -18 -39 -60 33 -60 121 0
371 116 344 159 -9 16 -33 13 -105 -15z"/>
<path d="M2055 2134 c-11 -8 -51 -24 -90 -35 -38 -11 -83 -25 -98 -31 -37 -14
-50 -40 -33 -63 12 -16 18 -17 67 -5 112 26 239 99 239 137 0 18 -60 16 -85
-3z"/>
<path d="M8167 2093 c-42 -45 -92 -104 -121 -145 -8 -12 -35 -21 -78 -27 -82
-12 -130 -36 -192 -100 l-49 -50 43 -17 c37 -15 41 -19 26 -29 -27 -20 -20
-45 12 -45 55 0 110 44 257 204 154 167 201 228 190 245 -13 22 -45 9 -88 -36z
m-257 -243 c0 -5 -2 -10 -4 -10 -3 0 -8 5 -11 10 -3 6 -1 10 4 10 6 0 11 -4
11 -10z"/>
<path d="M8186 1938 c-33 -35 -87 -85 -119 -111 -86 -72 -71 -121 19 -61 91
60 218 207 197 228 -16 15 -40 1 -97 -56z"/>
<path d="M10165 1694 c-11 -3 -30 -7 -42 -10 -13 -2 -23 -11 -23 -18 0 -20 95
-29 278 -24 155 3 192 12 164 41 -9 8 -63 12 -185 14 -95 1 -181 -1 -192 -3z"/>
<path d="M1335 1368 c-19 -65 -34 -83 -110 -135 -33 -23 -87 -62 -120 -87 -33
-26 -77 -54 -97 -63 -41 -18 -47 -33 -22 -57 20 -21 32 -20 74 5 54 33 229
180 283 237 58 62 71 93 55 127 -19 43 -45 32 -63 -27z"/>
<path d="M714 861 c-28 -10 -71 -30 -95 -44 -24 -14 -79 -37 -122 -52 -59 -19
-88 -36 -115 -64 -23 -23 -60 -47 -95 -60 -95 -35 -130 -56 -180 -110 -58 -62
-94 -137 -102 -211 -7 -60 -3 -70 36 -91 15 -8 42 -34 61 -59 29 -39 42 -47
95 -60 42 -10 70 -24 87 -43 72 -78 223 -89 286 -22 34 37 15 50 -73 51 -63 0
-85 6 -182 48 -60 26 -113 50 -118 53 -26 16 137 139 250 188 83 36 109 59 83
75 -8 5 -28 10 -45 11 -48 2 -80 14 -80 29 0 12 -20 15 -105 15 -58 0 -107 4
-110 10 -3 5 42 23 100 40 121 36 130 40 194 93 26 22 66 45 89 52 81 24 217
121 217 154 0 20 -13 20 -76 -3z m-396 -429 c6 -19 -76 -94 -130 -120 -45 -23
-98 -29 -98 -13 0 37 156 154 199 149 13 -2 26 -9 29 -16z"/>
<path d="M3270 792 c0 -5 11 -15 25 -22 27 -15 54 -2 41 19 -8 13 -66 15 -66
3z"/>
<path d="M1884 696 c-18 -8 -79 -41 -137 -75 -57 -33 -129 -71 -158 -84 -30
-13 -61 -32 -69 -41 -22 -27 10 -48 53 -35 48 13 288 137 342 176 70 51 47 93
-31 59z"/>
<path d="M506 363 c-123 -51 -232 -151 -198 -185 13 -13 45 4 106 59 26 24 60
46 75 49 70 15 151 69 151 100 0 22 -38 16 -134 -23z"/>
</g>
</svg>
