<?xml version="1.0" standalone="no"?>
<!DOCTYPE svg PUBLIC "-//W3C//DTD SVG 20010904//EN"
 "http://www.w3.org/TR/2001/REC-SVG-20010904/DTD/svg10.dtd">
<svg version="1.0" xmlns="http://www.w3.org/2000/svg"
 width="1280.000000pt" height="1124.000000pt" viewBox="0 0 1280.000000 1124.000000"
 preserveAspectRatio="xMidYMid meet">
<metadata>
Created by potrace 1.15, written by Peter Selinger 2001-2017
</metadata>
<g transform="translate(0.000000,1124.000000) scale(0.100000,-0.100000)"
fill="#000000" stroke="none">
<path d="M6260 11038 c-1411 -1020 -2309 -2562 -2495 -4283 -32 -306 -43 -701
-26 -974 l6 -103 -60 -30 c-713 -358 -1378 -878 -1901 -1488 -809 -945 -1307
-2112 -1428 -3349 -8 -80 -12 -150 -9 -157 5 -14 216 -111 398 -184 491 -196
1048 -335 1575 -394 472 -53 1052 -46 1515 20 873 123 1700 430 2442 906 l122
78 123 -78 c756 -482 1572 -784 2443 -906 465 -66 1043 -73 1515 -20 528 59
1083 198 1575 394 182 73 393 170 398 184 7 16 -19 269 -44 441 -216 1480
-968 2820 -2124 3785 -316 264 -665 498 -1055 706 l-175 94 6 102 c17 271 6
667 -26 973 -174 1610 -977 3077 -2239 4088 -181 144 -379 287 -398 286 -7 0
-69 -41 -138 -91z m261 -1586 c551 -567 977 -1334 1179 -2117 93 -363 139
-677 156 -1068 l7 -158 -24 6 c-488 115 -934 166 -1444 166 -406 0 -686 -24
-1067 -91 -142 -25 -214 -40 -367 -76 l-24 -5 7 158 c49 1121 432 2121 1138
2968 87 105 306 335 318 335 4 0 58 -53 121 -118z m109 -4386 c196 -6 436 -33
645 -71 143 -26 413 -89 422 -99 21 -20 -154 -533 -262 -771 -240 -526 -537
-965 -932 -1378 l-103 -108 -103 108 c-450 470 -771 970 -1017 1583 -86 215
-191 552 -177 566 9 10 279 73 422 99 209 38 457 65 675 74 107 4 209 6 225 4
17 -1 109 -5 205 -7z m-2605 -823 c220 -683 575 -1343 1022 -1906 103 -129
280 -332 337 -386 20 -19 36 -40 36 -45 0 -14 -247 -146 -400 -216 -690 -312
-1383 -454 -2130 -437 -274 6 -457 23 -695 63 -145 24 -436 87 -482 105 l-22
8 25 93 c14 51 48 161 76 243 313 934 899 1740 1704 2347 118 90 445 305 465
307 4 1 32 -79 64 -176z m4905 122 c549 -333 1068 -818 1444 -1350 315 -446
572 -986 710 -1493 l25 -93 -22 -8 c-46 -18 -337 -81 -482 -105 -238 -40 -421
-57 -695 -63 -747 -17 -1440 125 -2130 437 -153 70 -400 202 -400 216 0 5 16
26 36 45 57 54 234 257 337 386 447 563 802 1223 1022 1906 32 97 59 177 61
177 2 0 44 -25 94 -55z"/>
</g>
</svg>
