<?xml version="1.0" standalone="no"?>
<!DOCTYPE svg PUBLIC "-//W3C//DTD SVG 20010904//EN"
 "http://www.w3.org/TR/2001/REC-SVG-20010904/DTD/svg10.dtd">
<svg version="1.0" xmlns="http://www.w3.org/2000/svg"
 width="1280.000000pt" height="640.000000pt" viewBox="0 0 1280.000000 640.000000"
 preserveAspectRatio="xMidYMid meet">
<metadata>
Created by potrace 1.15, written by Peter Selinger 2001-2017
</metadata>
<g transform="translate(0.000000,640.000000) scale(0.100000,-0.100000)"
fill="#000000" stroke="none">
<path d="M12649 4366 c-7 -7 -297 -25 -854 -51 -613 -29 -1076 -54 -1785 -95
-1173 -69 -1395 -80 -2320 -120 -703 -30 -964 -56 -1038 -100 -18 -11 -43 -42
-58 -72 -88 -175 -462 -428 -693 -470 -77 -14 -107 -1 -121 50 -8 30 -18 44
-43 55 -82 39 -252 30 -437 -25 -99 -29 -112 -30 -225 -25 -272 12 -629 123
-775 239 -48 38 -60 43 -106 43 -58 0 -80 -14 -120 -77 -43 -67 -143 -100
-344 -113 -261 -16 -653 31 -1275 155 -387 77 -566 103 -820 121 -573 39
-1090 -78 -1356 -308 -206 -178 -290 -388 -276 -687 19 -413 169 -579 684
-756 211 -73 284 -84 563 -84 405 0 692 48 1425 239 592 154 687 169 1055 170
276 0 341 -10 411 -66 87 -69 170 -54 284 51 111 102 352 218 581 280 97 27
296 38 345 21 62 -22 197 -25 289 -7 98 20 130 35 187 87 23 21 60 43 85 50
94 25 284 -15 453 -95 125 -60 193 -109 299 -214 l91 -91 180 9 c99 5 367 19
595 30 532 26 1508 80 2385 130 922 54 1357 77 1675 90 374 15 573 32 769 66
80 14 433 93 439 99 3 3 -33 743 -48 995 -20 325 -42 461 -76 474 -19 7 -19 7
-25 2z m-56 -144 c42 -46 62 -229 72 -647 7 -302 21 -499 37 -525 17 -27 -7
-53 -44 -46 -22 4 -34 -1 -59 -25 -38 -37 -65 -35 -61 6 l3 28 -43 -35 c-57
-46 -92 -64 -164 -81 -32 -8 -67 -18 -77 -22 -39 -16 71 169 199 336 41 52 74
99 74 104 0 5 -60 -50 -133 -123 -74 -73 -139 -132 -146 -132 -23 0 -3 49 65
161 35 58 66 115 70 125 3 10 -30 -18 -74 -63 -44 -46 -87 -83 -96 -83 -26 0
-38 49 -34 131 4 63 11 89 45 160 44 90 124 202 223 312 70 79 95 115 87 124
-15 14 -184 -163 -217 -227 -18 -35 -76 -78 -88 -65 -15 14 120 228 264 417
41 54 74 100 74 103 0 3 -24 -15 -54 -39 -66 -54 -92 -63 -114 -43 -24 22 -61
4 -151 -77 -80 -71 -101 -80 -101 -42 0 33 55 102 114 143 40 27 57 33 103 33
52 0 56 2 108 55 59 59 90 69 118 37z m-700 -87 c53 -8 110 -21 126 -29 26
-14 28 -20 35 -93 34 -396 70 -1144 56 -1153 -6 -4 -55 -10 -108 -14 -53 -3
-155 -10 -227 -16 -71 -5 -359 -21 -640 -35 -280 -13 -544 -27 -585 -30 -110
-8 -1868 -102 -2815 -150 -556 -28 -869 -32 -958 -11 -35 8 -72 25 -92 42 -18
16 -69 60 -112 97 -106 93 -201 151 -317 192 -116 41 -158 64 -154 85 5 22
178 18 293 -8 50 -11 92 -19 93 -17 2 2 -13 12 -35 23 -48 25 -76 55 -75 84 0
13 10 60 22 106 28 103 67 149 225 267 107 80 175 144 175 165 0 20 -24 9 -75
-34 -213 -183 -690 -401 -730 -335 -12 18 21 43 133 103 60 31 158 94 218 139
104 78 295 257 325 305 25 40 154 55 859 97 234 14 541 35 683 45 142 11 259
20 261 20 2 0 -7 -35 -20 -77 l-24 -78 44 47 c73 78 140 102 319 114 104 7
147 1 147 -21 0 -8 -29 -38 -65 -66 -70 -54 -88 -81 -99 -142 -5 -26 -21 -50
-53 -82 -26 -24 -44 -48 -40 -52 10 -9 67 47 188 183 106 120 207 204 245 204
13 0 24 -5 24 -10 0 -29 -35 -85 -87 -142 -61 -65 -129 -158 -117 -158 4 0 68
60 143 133 75 73 152 140 173 150 43 20 81 22 97 4 14 -17 -7 -44 -153 -203
-181 -196 -309 -364 -291 -382 8 -8 74 62 186 198 167 203 406 439 430 424 16
-9 -24 -68 -217 -316 -291 -374 -366 -478 -345 -478 10 0 76 79 425 508 131
160 242 292 247 292 6 0 87 4 182 10 95 5 253 15 352 20 228 13 588 38 725 50
58 5 106 8 107 7 1 -1 -89 -128 -199 -282 -243 -340 -287 -404 -264 -386 24
20 170 197 313 381 166 213 251 298 267 271 10 -16 -57 -132 -163 -281 -57
-80 -110 -158 -118 -175 -28 -56 92 71 233 247 129 160 188 218 226 218 33 0
27 -18 -35 -96 -74 -95 -132 -183 -124 -190 7 -7 141 132 207 216 28 36 58 73
66 83 10 12 28 17 64 17 27 0 50 -4 50 -10 0 -5 -30 -55 -66 -110 -36 -55 -64
-105 -62 -112 5 -14 130 130 162 185 13 24 32 41 51 46 47 14 181 12 288 -4z
m507 -100 c10 -12 7 -23 -13 -58 -26 -44 -175 -193 -184 -184 -8 8 83 178 117
220 33 39 60 47 80 22z m-10602 -250 c81 -9 323 -43 538 -75 216 -33 400 -60
410 -60 10 0 53 -10 96 -21 57 -16 91 -32 125 -59 71 -60 253 -113 586 -172
70 -12 127 -26 127 -30 0 -5 -89 -8 -197 -9 -109 0 -216 -4 -238 -8 l-40 -7
40 -13 c22 -6 85 -17 139 -23 112 -12 361 1 501 27 148 27 165 22 165 -50 0
-64 -21 -76 -162 -91 -129 -14 -178 -26 -178 -43 0 -17 38 -23 177 -30 147 -8
163 -15 163 -70 0 -47 -13 -56 -57 -39 -21 9 -63 18 -93 22 -344 39 -1383 53
-1444 19 -19 -10 -19 -11 1 -17 41 -13 385 -26 708 -26 309 0 393 -7 335 -25
-47 -15 7 -24 210 -34 113 -6 216 -14 230 -17 107 -25 112 -39 24 -69 -63 -21
-70 -34 -50 -92 11 -35 -31 -56 -122 -61 -73 -4 -99 0 -263 40 -40 10 -51 9
-90 -10 -24 -12 -89 -31 -144 -43 -181 -38 -753 -214 -803 -245 -12 -8 -20
-19 -16 -25 9 -15 78 -3 249 42 212 55 318 69 530 68 l180 -1 -215 -44 c-194
-39 -432 -97 -760 -184 -313 -83 -698 -159 -970 -190 -152 -18 -315 -11 -360
16 -76 44 -117 145 -146 354 -22 159 -22 612 0 812 32 288 63 396 127 436 35
21 120 48 174 55 78 10 381 5 513 -8z m-888 -54 c0 -16 -28 -32 -64 -38 -52
-8 -44 -23 12 -23 59 0 92 -20 76 -47 -17 -29 -74 -52 -164 -66 l-85 -13 78
-7 c43 -4 94 -14 113 -23 66 -31 83 -109 37 -165 -35 -42 -79 -59 -150 -59
-87 0 -97 -16 -14 -23 69 -6 109 -19 123 -41 11 -16 10 -84 -2 -105 -15 -29
-78 -49 -238 -75 -157 -26 -202 -39 -202 -56 0 -22 34 -21 136 5 181 46 304
26 312 -51 4 -41 -25 -65 -101 -81 -102 -21 -407 -12 -572 18 -163 29 -176
148 -31 287 108 104 204 156 399 217 l112 35 -70 -6 c-118 -11 -265 -64 -412
-151 -47 -27 -59 -26 -48 6 13 41 99 111 199 162 105 54 110 67 29 68 -18 1
-33 6 -33 11 0 20 67 51 210 97 110 35 140 48 125 54 -11 4 -30 8 -42 8 -41 2
-24 20 33 37 102 29 234 44 234 25z m3353 -71 c-24 -364 -2 -1073 37 -1176 13
-33 -11 -49 -53 -38 -42 13 -53 45 -71 227 -48 459 -60 906 -27 967 27 49 43
61 80 58 34 -3 36 -5 34 -38z m-828 -124 c132 -8 310 -18 395 -21 178 -8 190
-10 190 -35 0 -13 -11 -22 -37 -30 -62 -17 -250 -23 -365 -11 -139 14 -523
111 -437 111 7 0 122 -7 254 -14z m1295 -46 c80 -22 197 -49 260 -60 173 -32
215 -43 215 -59 0 -21 -52 -32 -114 -25 -52 6 -53 6 -42 -14 13 -25 65 -37
121 -28 86 14 98 -85 15 -120 -46 -19 -84 -18 -185 7 -101 24 -220 37 -205 22
6 -6 33 -18 60 -27 56 -18 95 -42 95 -57 0 -17 -67 -39 -119 -39 -65 0 -179
-23 -270 -54 -41 -14 -85 -26 -98 -26 -41 0 -23 32 37 68 59 35 73 52 43 52
-10 0 -37 9 -60 20 -50 22 -57 51 -19 75 32 21 147 44 226 46 65 2 65 2 20 10
-25 4 -74 8 -110 9 -36 1 -81 6 -100 13 -29 10 -35 17 -35 42 0 25 5 30 35 37
19 4 102 3 183 -3 82 -6 151 -9 153 -6 2 2 -46 14 -108 25 -189 36 -238 58
-238 107 0 44 25 43 240 -15z m940 -145 c16 -19 8 -87 -14 -119 -50 -76 -260
-103 -322 -41 -29 29 -34 104 -9 125 8 7 66 16 133 21 64 5 133 13 152 18 19
5 38 9 41 10 4 1 12 -6 19 -14z m-434 -276 c3 -6 -3 -20 -14 -31 -16 -16 -41
-22 -119 -29 -127 -12 -235 -33 -408 -80 -135 -38 -195 -47 -195 -31 1 55 260
136 485 152 72 6 144 14 160 19 42 13 83 13 91 0z m-8 -141 c38 -38 -12 -68
-191 -117 -81 -22 -213 -67 -294 -99 -82 -33 -161 -62 -176 -66 -41 -10 -67 1
-67 28 0 68 160 136 600 255 50 13 114 13 128 -1z m-4938 -120 c139 -26 411
-32 497 -10 67 18 93 10 93 -28 0 -50 -20 -53 -259 -46 -195 6 -263 1 -234
-17 18 -11 146 -26 299 -36 148 -9 199 -21 191 -44 -13 -40 -137 -49 -238 -17
-35 10 -107 24 -159 30 -106 12 -143 21 -215 58 -92 46 -138 93 -120 122 8 14
14 13 145 -12z m-18 -187 c103 -53 120 -59 193 -64 131 -10 399 -87 438 -126
29 -28 13 -44 -37 -36 -22 4 -108 29 -191 55 -189 61 -225 68 -225 46 0 -9 21
-30 48 -47 60 -39 294 -153 347 -169 22 -7 48 -20 59 -29 28 -24 68 -90 61
-101 -23 -37 -280 42 -292 90 -4 16 -12 18 -47 14 -36 -5 -42 -3 -51 18 -8 19
-16 23 -48 20 -36 -3 -37 -2 -31 22 5 23 4 24 -33 19 -45 -6 -81 9 -159 67
-84 63 -195 227 -180 266 9 23 30 17 148 -45z m3743 11 c30 -6 41 -12 43 -29
2 -12 13 -24 26 -27 27 -7 38 -27 26 -45 -6 -10 -79 -8 -361 13 -195 15 -381
31 -414 36 -33 6 -64 10 -68 10 -5 0 -6 4 -3 9 6 9 103 27 181 34 77 7 530 6
570 -1z"/>
<path d="M12592 3105 c-29 -27 -41 -45 -31 -45 14 0 45 29 78 73 24 31 1 18
-47 -28z"/>
<path d="M12448 3092 c-39 -41 -109 -145 -102 -151 8 -8 80 74 111 127 30 51
26 62 -9 24z"/>
<path d="M8647 3892 c-57 -58 -46 -89 12 -34 29 27 50 72 34 72 -5 0 -26 -17
-46 -38z"/>
<path d="M11543 3703 c-22 -27 -67 -89 -100 -139 -61 -91 -233 -323 -312 -421
-64 -79 -33 -64 49 24 154 165 445 583 406 583 -2 0 -22 -21 -43 -47z"/>
<path d="M8117 3650 c-20 -17 -82 -86 -138 -153 l-102 -122 122 120 c123 120
168 172 158 181 -3 3 -21 -9 -40 -26z"/>
<path d="M8189 3553 c-14 -16 -41 -48 -60 -73 -19 -25 -73 -90 -120 -145 -98
-115 -127 -155 -110 -155 40 0 331 342 331 389 0 18 -15 13 -41 -16z"/>
<path d="M11558 3459 c-59 -78 -83 -118 -75 -125 6 -6 77 80 111 134 47 74 23
68 -36 -9z"/>
<path d="M10696 3420 c-63 -67 -77 -90 -56 -90 24 0 140 125 140 152 0 20 -22
4 -84 -62z"/>
<path d="M8232 3437 c-12 -13 -22 -27 -22 -31 0 -16 -84 -127 -170 -225 -99
-112 -126 -149 -117 -157 12 -12 283 278 348 373 17 24 27 48 24 53 -11 17
-41 11 -63 -13z"/>
<path d="M8218 3213 c-89 -107 -122 -153 -116 -159 8 -7 115 112 155 173 20
29 34 56 31 59 -3 2 -35 -30 -70 -73z"/>
<path d="M11407 3249 c-26 -23 -45 -45 -41 -50 3 -5 11 -6 18 -2 19 11 79 83
74 88 -2 2 -25 -14 -51 -36z"/>
<path d="M10301 3164 c-28 -30 -51 -61 -51 -67 0 -13 96 79 111 106 19 35 -10
16 -60 -39z"/>
<path d="M1605 3680 c11 -5 227 -35 480 -66 406 -49 616 -79 708 -100 29 -7
36 6 14 24 -56 47 -557 121 -927 137 -74 3 -171 7 -215 10 -55 3 -74 2 -60 -5z"/>
<path d="M1185 3580 c11 -5 45 -9 75 -9 30 0 64 4 75 9 13 6 -13 9 -75 9 -62
0 -88 -3 -75 -9z"/>
<path d="M1855 3580 c-4 -6 10 -10 34 -10 23 0 41 5 41 10 0 6 -15 10 -34 10
-19 0 -38 -4 -41 -10z"/>
<path d="M2289 3512 c21 -40 133 -63 438 -93 159 -15 218 -18 227 -9 26 26
-48 41 -314 66 -173 16 -308 35 -344 50 -16 6 -17 5 -7 -14z"/>
<path d="M1330 3478 c-142 -13 -137 -28 11 -28 126 0 478 25 487 35 9 8 -395
3 -498 -7z"/>
<path d="M1975 3480 c3 -6 48 -10 100 -10 52 0 97 4 100 10 4 6 -32 10 -100
10 -68 0 -104 -4 -100 -10z"/>
<path d="M3005 3419 c-12 -19 29 -50 74 -56 50 -7 54 8 9 35 -46 27 -75 35
-83 21z"/>
<path d="M1317 3353 c-41 -6 -22 -23 26 -23 40 0 94 19 57 20 -8 0 -24 2 -35
4 -11 2 -32 1 -48 -1z"/>
<path d="M2165 3351 l-30 -7 40 -6 c22 -4 56 -3 75 1 19 5 28 9 19 10 -9 1
-29 3 -45 5 -16 2 -42 1 -59 -3z"/>
<path d="M1110 3310 c0 -5 20 -10 45 -10 25 0 45 5 45 10 0 6 -20 10 -45 10
-25 0 -45 -4 -45 -10z"/>
<path d="M1820 3310 c0 -6 32 -10 75 -10 43 0 75 4 75 10 0 6 -32 10 -75 10
-43 0 -75 -4 -75 -10z"/>
<path d="M1555 3280 c-13 -6 8 -9 65 -9 58 -1 80 2 70 9 -18 12 -107 12 -135
0z"/>
<path d="M2980 3231 c30 -18 623 -47 660 -32 l25 10 -30 0 c-16 1 -93 5 -170
10 -234 16 -501 22 -485 12z"/>
<path d="M2176 3149 c-105 -12 -200 -29 -216 -39 -33 -20 8 -22 152 -6 84 9
174 16 200 16 52 0 98 14 98 30 0 12 -130 11 -234 -1z"/>
<path d="M1455 3110 c-13 -6 13 -9 75 -9 62 0 88 3 75 9 -11 5 -45 9 -75 9
-30 0 -64 -4 -75 -9z"/>
<path d="M1500 3025 c-129 -16 -193 -32 -184 -47 14 -22 331 17 414 51 36 14
-96 12 -230 -4z"/>
<path d="M1126 2935 c-21 -7 -46 -21 -55 -29 -14 -15 -12 -16 19 -16 39 0 160
39 160 52 0 13 -81 8 -124 -7z"/>
<path d="M2125 2930 c-38 -10 -73 -19 -77 -19 -5 -1 -8 -6 -8 -12 0 -17 245
-8 262 9 11 11 10 16 -6 28 -26 19 -86 17 -171 -6z"/>
<path d="M2466 2937 c-40 -29 -14 -39 99 -42 89 -1 138 -9 254 -38 80 -20 149
-41 154 -46 11 -11 -8 -15 -197 -35 -76 -8 -143 -19 -148 -24 -5 -5 8 -15 32
-25 90 -35 39 -65 -180 -108 -190 -37 -259 -58 -271 -82 -30 -55 -214 -88
-494 -89 -209 0 -306 10 -467 48 -138 33 -153 31 -153 -20 0 -84 90 -101 495
-93 358 7 625 46 702 102 59 43 82 52 168 69 146 30 580 153 850 242 113 37
138 49 128 59 -12 13 -193 34 -418 50 -124 9 -288 22 -365 30 -170 18 -167 18
-189 2z"/>
<path d="M1585 2903 c-11 -2 -56 -11 -100 -19 -201 -38 -395 -109 -395 -145 0
-28 44 -25 190 15 137 37 274 68 390 86 85 14 165 44 155 60 -6 10 -197 13
-240 3z"/>
<path d="M3666 2851 c-18 -20 -18 -20 6 -26 13 -3 55 -5 93 -3 l70 3 -40 19
c-63 29 -107 32 -129 7z"/>
<path d="M3538 2843 c-31 -8 -20 -23 16 -23 38 0 55 14 30 24 -17 6 -19 6 -46
-1z"/>
<path d="M1840 2809 c-83 -15 -170 -41 -170 -50 0 -5 7 -9 15 -9 67 0 -77 -54
-328 -123 -65 -17 -119 -36 -119 -42 0 -5 24 -19 53 -29 44 -16 88 -20 244
-24 299 -6 533 26 701 98 50 21 130 50 178 63 95 27 105 32 90 47 -22 22 -134
31 -339 28 -117 -2 -208 0 -202 4 7 4 20 8 29 8 23 0 68 21 68 32 0 10 -160 9
-220 -3z m288 -112 c22 -15 -14 -44 -82 -67 -100 -33 -211 -50 -328 -50 -149
0 -189 22 -105 60 35 16 66 20 182 20 l140 1 -53 17 c-30 9 -50 21 -45 25 10
11 274 5 291 -6z"/>
<path d="M3741 2771 c-20 -13 23 -25 57 -16 20 5 23 8 11 16 -18 11 -50 11
-68 0z"/>
<path d="M1459 2760 c-26 -4 -59 -14 -74 -22 l-28 -15 39 -6 c71 -11 177 22
142 44 -15 10 -15 10 -79 -1z"/>
<path d="M1105 2630 c-4 -6 10 -10 34 -10 23 0 41 5 41 10 0 6 -15 10 -34 10
-19 0 -38 -4 -41 -10z"/>
<path d="M2040 2343 c-14 -2 -47 -12 -75 -21 -72 -25 -551 -24 -709 1 -125 20
-134 17 -120 -40 8 -32 15 -40 49 -51 127 -43 615 -17 945 49 118 24 144 33
114 43 -23 7 -155 26 -169 24 -5 0 -21 -3 -35 -5z"/>
<path d="M547 3523 c-9 -2 -15 -9 -12 -14 8 -12 82 -12 90 1 3 6 0 10 -7 10
-7 0 -22 2 -33 4 -11 2 -28 2 -38 -1z"/>
<path d="M495 3240 c-4 -6 10 -10 34 -10 23 0 41 5 41 10 0 6 -15 10 -34 10
-19 0 -38 -4 -41 -10z"/>
<path d="M236 2499 c51 -55 264 -144 264 -111 0 21 -44 52 -71 52 -16 0 -68
20 -116 45 -48 25 -92 45 -97 45 -5 0 3 -14 20 -31z"/>
</g>
</svg>
