<?xml version="1.0" standalone="no"?>
<!DOCTYPE svg PUBLIC "-//W3C//DTD SVG 20010904//EN"
 "http://www.w3.org/TR/2001/REC-SVG-20010904/DTD/svg10.dtd">
<svg version="1.0" xmlns="http://www.w3.org/2000/svg"
 width="1280.000000pt" height="640.000000pt" viewBox="0 0 1280.000000 640.000000"
 preserveAspectRatio="xMidYMid meet">
<metadata>
Created by potrace 1.15, written by Peter Selinger 2001-2017
</metadata>
<g transform="translate(0.000000,640.000000) scale(0.100000,-0.100000)"
fill="#000000" stroke="none">
<path d="M8760 4550 c-8 -5 -31 -10 -51 -10 -58 0 -105 -55 -129 -151 -10 -39
-8 -54 10 -107 20 -58 21 -64 6 -119 -59 -217 -106 -430 -106 -478 l0 -57
-577 5 c-608 5 -935 17 -1168 41 -151 16 -413 32 -700 41 -99 4 -219 11 -266
16 -47 5 -231 18 -410 28 -179 11 -332 23 -340 25 -15 6 -366 46 -624 71 -463
45 -731 83 -865 122 -145 43 -242 62 -314 63 -68 0 -70 -1 -330 -130 -143 -71
-295 -140 -336 -154 -41 -13 -96 -33 -121 -44 -25 -11 -71 -25 -102 -32 -31
-6 -95 -27 -141 -46 -47 -19 -92 -34 -100 -34 -8 0 -43 -13 -78 -29 -36 -16
-85 -32 -109 -36 -24 -4 -68 -18 -98 -31 -29 -13 -64 -24 -78 -24 -13 0 -36
-6 -51 -14 -15 -8 -92 -26 -172 -41 -80 -14 -158 -30 -175 -35 -16 -5 -68 -14
-114 -20 -47 -6 -103 -18 -125 -25 -23 -8 -63 -13 -91 -12 -27 1 -95 -5 -150
-12 -64 -8 -233 -14 -464 -16 -315 -2 -365 -5 -379 -19 -13 -13 -14 -19 -3
-39 18 -33 86 -75 151 -93 30 -8 79 -26 108 -39 29 -14 61 -25 72 -25 10 0 21
-4 25 -9 3 -6 27 -13 53 -16 26 -4 81 -17 122 -30 149 -46 218 -64 405 -104
292 -63 472 -98 586 -115 57 -9 130 -23 163 -31 145 -38 682 -102 1091 -130
359 -24 481 -34 600 -45 189 -17 1034 -41 1680 -47 341 -3 1167 0 1835 6
l1215 13 53 51 c29 29 55 62 59 75 8 33 40 42 157 42 l103 0 12 -202 c7 -112
19 -239 28 -283 9 -44 16 -134 17 -200 1 -169 22 -208 119 -221 93 -13 192 47
217 133 12 39 11 46 -15 98 l-28 55 27 223 c15 122 30 244 33 270 8 66 20 70
146 57 56 -6 109 -13 117 -15 9 -3 94 -10 190 -15 96 -6 222 -15 280 -20 58
-5 184 -9 280 -10 96 0 222 -5 280 -11 58 -5 166 -14 240 -19 74 -5 230 -16
345 -24 116 -9 230 -16 255 -15 25 1 99 -3 165 -9 206 -19 586 -32 952 -32
522 0 548 10 609 235 15 55 28 129 29 165 1 36 6 135 10 220 7 136 6 163 -9
208 -23 69 -100 153 -173 189 -54 26 -67 28 -252 35 -108 4 -270 13 -361 20
-120 9 -561 12 -1612 10 l-1448 -2 0 93 c0 50 -7 117 -15 147 -8 30 -15 80
-15 110 0 30 -11 107 -24 170 -22 101 -23 117 -10 142 8 15 18 30 24 33 5 3
10 32 10 63 0 69 -33 146 -79 185 -35 29 -48 32 -71 17z m34 -84 c34 -32 36
-37 36 -99 0 -61 -2 -68 -30 -94 l-31 -29 20 -126 c34 -211 42 -389 39 -883
-3 -409 -5 -470 -18 -471 -8 -1 -25 -2 -37 -2 -30 -2 -30 -22 0 -22 40 0 60
-22 48 -51 -10 -27 -35 -39 -84 -39 l-27 0 7 143 c11 202 9 1036 -4 1264 -10
183 -11 195 -36 230 -56 81 -56 149 0 193 38 30 76 26 117 -14z m-5414 -546
c210 -44 517 -112 535 -120 29 -13 -38 -13 -104 0 -70 13 -403 58 -516 69
-102 10 -128 3 -230 -60 -33 -21 -98 -52 -145 -69 -171 -62 -340 -133 -340
-141 0 -5 -4 -9 -10 -9 -32 0 5 26 118 83 232 118 277 142 312 168 19 15 55
37 80 49 25 13 56 31 70 42 28 22 79 20 230 -12z m-150 -125 c46 -16 422 -68
609 -85 153 -13 331 -41 331 -51 0 -16 -293 -10 -357 6 -39 10 -107 15 -214
15 -87 0 -193 6 -240 14 -46 8 -127 16 -180 20 -88 5 -150 20 -149 35 1 11
105 58 131 60 15 0 46 -6 69 -14z m939 -41 c17 -4 31 -11 31 -15 0 -10 -45 -2
-70 12 -18 10 -3 11 39 3z m196 -34 c7 -12 -29 -12 -65 0 -21 7 -19 8 17 9 23
1 45 -3 48 -9z m240 -15 c94 -6 181 -14 520 -50 422 -44 1337 -112 1378 -101
45 11 32 33 -25 45 -44 9 -31 10 77 6 72 -3 346 -12 610 -20 264 -8 572 -20
685 -25 113 -6 317 -10 454 -10 l249 0 -6 -235 c-6 -227 -32 -474 -48 -458 -4
5 -12 36 -18 71 -16 98 -34 108 -47 24 -4 -26 -11 -58 -16 -72 -10 -24 -11
-24 -18 -5 -5 11 -9 47 -9 80 -2 120 -23 140 -40 38 -16 -91 -31 -135 -44
-130 -7 2 -11 15 -10 28 1 13 -5 41 -13 62 -8 20 -14 55 -14 77 0 48 -17 53
-24 8 -25 -178 -47 -251 -68 -230 -9 9 -9 35 2 110 25 183 25 198 -3 217 -41
26 -174 33 -752 39 -516 6 -774 11 -1625 36 -190 6 -617 15 -950 20 -655 10
-1097 22 -1704 45 -214 8 -516 15 -670 15 -301 0 -690 15 -709 27 -26 17 87
22 473 22 450 0 772 -10 1103 -35 215 -16 335 -14 367 7 13 8 13 10 1 18 -19
12 -170 25 -218 18 -21 -3 -119 1 -218 8 -349 27 -521 38 -620 41 -115 4 -383
24 -405 30 -24 8 9 24 50 24 46 0 101 16 112 32 6 10 12 8 24 -7 13 -17 31
-20 162 -27 303 -14 417 -7 373 21 -19 12 -69 19 -246 31 -82 6 -175 13 -205
16 l-55 6 75 25 75 25 190 -21 c105 -11 294 -25 420 -31 127 -6 307 -15 402
-20 108 -6 239 -6 354 0 171 9 200 13 187 25 -2 3 -150 12 -329 20 -178 8
-382 19 -454 25 -151 11 -408 27 -513 33 -40 3 -76 8 -80 12 -12 12 37 44 91
60 42 12 71 13 161 5 316 -28 398 -33 596 -42 118 -5 422 -12 675 -17 414 -8
486 -12 720 -39 290 -33 535 -48 535 -32 0 5 -11 17 -24 26 -19 11 -66 18
-188 24 -90 5 -206 15 -258 24 -52 8 -221 29 -375 46 -154 17 -289 35 -300 40
-14 7 -5 8 30 5 28 -2 95 -7 150 -10z m5904 -182 c150 -5 177 -9 193 -25 23
-23 63 -25 54 -3 -5 14 8 15 112 9 64 -3 136 -13 160 -21 54 -20 240 -11 258
12 16 22 118 19 184 -4 94 -33 380 -56 380 -31 0 18 -42 31 -133 41 -51 5 -96
12 -102 14 -23 11 409 -6 505 -20 58 -8 188 -15 290 -16 102 0 196 -4 210 -8
57 -16 129 -187 102 -246 -11 -24 -16 -26 -45 -20 -18 3 -108 10 -201 15 -93
5 -174 14 -179 19 -6 6 2 15 22 25 38 20 40 43 4 57 -33 13 -254 -4 -343 -26
-101 -26 -321 -37 -465 -24 -176 16 -334 7 -380 -21 -19 -12 -35 -17 -35 -12
0 6 6 12 13 15 21 8 -37 25 -112 33 -39 3 -74 10 -76 14 -11 17 88 22 440 21
420 -1 545 4 545 25 0 8 -9 14 -20 14 -12 0 -34 7 -49 15 -49 25 -148 29 -244
10 -76 -15 -103 -16 -200 -6 -62 6 -211 16 -332 21 -121 6 -256 15 -300 20
-60 6 -96 5 -145 -6 -97 -21 -296 -29 -350 -14 -50 14 -215 31 -300 32 -78 1
-209 -17 -223 -31 -6 -6 -19 -11 -29 -11 -10 0 -18 -4 -18 -9 0 -11 25 -21 51
-21 25 0 35 -25 19 -45 -17 -21 -49 -19 -85 5 -16 11 -39 25 -50 32 -11 7 -38
24 -59 38 -36 23 -49 25 -135 24 -92 -1 -110 -6 -175 -41 -27 -14 -33 -14 -78
2 -36 13 -71 16 -148 13 l-100 -3 0 60 0 60 19 -24 c25 -32 126 -43 162 -17
20 14 65 16 329 17 319 1 411 7 375 24 -41 20 365 30 684 18z m-429 -148 c25
-1 95 -6 155 -10 76 -5 119 -13 140 -25 17 -10 57 -20 91 -23 75 -8 114 -22
114 -41 0 -11 -7 -13 -32 -6 -18 5 -160 14 -316 20 -155 6 -288 12 -295 15 -6
2 -24 6 -40 9 -23 6 -26 9 -17 25 8 15 5 20 -13 26 -21 7 -20 8 8 15 17 5 59
7 95 4 36 -3 85 -7 110 -9z m-820 -85 c277 9 342 7 351 -10 36 -68 38 -80 17
-91 -26 -14 -46 -5 -50 23 -3 20 -10 24 -58 29 -30 3 -63 9 -73 13 -17 8 -134
-16 -169 -35 -30 -16 -126 -10 -188 11 -33 11 -82 25 -110 31 -49 10 -62 22
-37 33 6 3 46 3 87 -1 41 -4 145 -5 230 -3z m-6340 -70 c228 -6 546 -15 705
-21 160 -6 459 -15 665 -19 364 -8 965 -28 1495 -50 401 -16 1235 -30 1813
-30 l522 0 -2 -192 -3 -192 -35 -7 c-149 -31 -915 -51 -1960 -52 -1016 -1
-1221 2 -1227 19 -2 6 15 31 37 56 22 25 40 49 40 52 0 18 -30 -1 -90 -58 -71
-67 -118 -88 -146 -66 -9 9 -36 11 -79 8 -36 -3 -65 -4 -65 -1 0 2 44 52 98
111 120 133 192 228 192 254 0 18 -3 17 -38 -10 -21 -17 -59 -54 -85 -84 -56
-62 -136 -151 -204 -225 l-48 -53 -440 10 c-242 6 -468 15 -502 20 -45 8 -68
7 -87 -2 -20 -9 -29 -9 -38 0 -15 15 -3 42 57 124 43 57 85 129 85 143 0 3 -7
5 -15 5 -8 0 -15 -4 -15 -10 0 -5 -25 -39 -56 -75 -30 -37 -60 -79 -65 -94
-20 -58 -133 -93 -163 -50 -14 20 -16 20 -37 5 -33 -23 -70 -21 -76 5 -4 16
-11 19 -27 14 -11 -3 -38 -9 -58 -12 -42 -6 -50 7 -21 39 18 20 10 38 -12 23
-8 -6 -31 -22 -52 -37 -34 -24 -43 -26 -88 -20 -29 4 -50 12 -50 20 0 15 -13
14 -40 -4 -16 -9 -51 -10 -160 -3 -246 16 -357 27 -475 48 -63 11 -191 30
-285 41 -165 21 -444 74 -555 106 -30 9 -147 40 -260 69 -113 29 -276 71 -363
94 -87 23 -180 41 -207 41 -27 0 -51 4 -54 9 -3 5 113 11 262 14 147 3 287 10
311 17 25 6 108 15 185 19 208 12 1239 12 1716 1z m9300 -12 c-58 -16 -140
-60 -152 -81 -16 -31 14 -48 76 -42 51 5 518 45 566 48 24 2 25 0 28 -75 l3
-76 -65 -7 c-104 -11 -321 -11 -324 0 -1 6 19 13 46 16 27 4 58 11 70 18 28
15 68 14 120 -4 44 -16 107 -12 118 7 11 18 -27 46 -78 59 -37 8 -93 10 -202
4 -181 -10 -293 -10 -486 -3 -80 4 -176 7 -214 7 -125 2 -57 19 112 29 129 7
167 12 180 25 15 16 15 18 -3 31 -11 8 -39 20 -62 27 -24 6 -43 16 -43 20 0 5
78 9 173 8 129 -1 163 -3 137 -11z m-1265 -77 c76 -37 125 -67 125 -76 0 -20
-45 -37 -176 -69 -158 -37 -194 -35 -325 20 -123 52 -147 75 -109 106 12 10
37 18 55 18 19 0 60 15 97 35 58 33 68 35 135 32 65 -4 85 -10 198 -66z
m-2315 -282 c-12 -345 -26 -559 -38 -571 -5 -5 -14 86 -20 202 -11 181 -10
219 3 273 8 34 21 130 30 212 15 147 24 200 32 192 2 -2 -1 -141 -7 -308z
m405 301 c-7 -12 -66 -23 -96 -18 l-24 5 25 11 c31 13 103 16 95 2z m455 -20
c0 -16 10 -20 60 -26 33 -4 63 -11 66 -15 6 -11 -183 -11 -210 0 -17 7 -14 11
25 34 53 32 59 33 59 7z m1998 -17 c-16 -2 -40 -2 -55 0 -16 2 -3 4 27 4 30 0
43 -2 28 -4z m-2239 -12 c20 -13 -5 -24 -37 -16 -20 5 -23 8 -11 16 18 11 30
11 48 0z m631 -27 c55 -12 12 -24 -84 -24 -55 0 -86 4 -80 9 16 17 111 25 164
15z m330 -13 c0 -8 -81 -23 -88 -16 -4 4 54 23 76 24 6 1 12 -3 12 -8z m-1140
-110 c0 -5 -24 -11 -52 -15 -29 -4 -69 -9 -88 -13 -31 -5 -34 -4 -22 10 8 9
26 18 40 20 52 8 122 7 122 -2z m2686 -28 c19 -25 17 -32 -6 -26 -24 6 -34 19
-25 33 9 14 16 12 31 -7z m-2112 -49 c24 -9 9 -24 -24 -24 -29 0 -45 12 -33
24 8 8 37 8 57 0z m172 -20 c-25 -18 -69 -19 -64 -1 4 11 67 27 78 19 3 -2 -4
-10 -14 -18z m251 3 c4 -7 0 -8 -11 -4 -10 4 -22 7 -27 7 -5 0 -9 4 -9 9 0 12
38 2 47 -12z m86 -4 c-7 -2 -19 -2 -25 0 -7 3 -2 5 12 5 14 0 19 -2 13 -5z
m-1359 -239 c24 -9 19 -30 -10 -53 -50 -40 -97 -17 -79 39 5 15 15 20 40 20
18 0 40 -3 49 -6z m-16 -146 c4 -19 -29 -43 -72 -54 -28 -7 -29 -6 -22 22 11
42 23 52 59 51 21 -1 33 -8 35 -19z m-21 -288 c2 -14 10 -66 20 -117 16 -89
16 -93 -2 -113 -13 -15 -30 -20 -67 -20 -68 0 -88 22 -88 98 0 46 4 63 20 77
11 10 20 29 20 42 0 16 11 30 33 43 40 25 61 22 64 -10z"/>
</g>
</svg>
