<?xml version="1.0" standalone="no"?>
<!DOCTYPE svg PUBLIC "-//W3C//DTD SVG 20010904//EN"
 "http://www.w3.org/TR/2001/REC-SVG-20010904/DTD/svg10.dtd">
<svg version="1.0" xmlns="http://www.w3.org/2000/svg"
 width="1280.000000pt" height="854.000000pt" viewBox="0 0 1280.000000 854.000000"
 preserveAspectRatio="xMidYMid meet">
<metadata>
Created by potrace 1.15, written by Peter Selinger 2001-2017
</metadata>
<g transform="translate(0.000000,854.000000) scale(0.100000,-0.100000)"
fill="#000000" stroke="none">
<path d="M10058 8518 c-52 -79 -115 -230 -147 -351 -107 -399 -88 -891 65
-1685 l35 -183 -20 -92 c-39 -175 -61 -313 -71 -452 l-11 -140 25 -20 c14 -11
52 -31 86 -44 33 -13 59 -25 57 -27 -1 -2 -236 4 -522 11 -286 8 -882 24
-1325 35 -443 11 -934 24 -1093 29 -276 7 -296 7 -502 -19 -118 -15 -217 -29
-219 -31 -7 -8 -15 -449 -8 -450 4 -1 57 -4 117 -8 l110 -6 0 -45 c0 -38 -3
-45 -20 -45 -11 0 -188 6 -393 14 -543 20 -763 13 -1247 -44 l-389 -45 -66
-39 c-168 -100 -316 -223 -379 -314 l-30 -44 -88 -11 c-87 -11 -89 -12 -129
-57 l-40 -45 -1363 0 c-1348 0 -1363 0 -1388 -20 -42 -33 -89 -26 -133 18 -46
46 -43 23 -70 497 -20 342 -30 423 -71 570 -87 307 -179 381 -517 416 l-114
12 -39 -39 c-59 -57 -98 -123 -130 -221 l-29 -86 0 -1360 c0 -1204 2 -1371 16
-1456 23 -136 40 -162 149 -227 116 -69 191 -96 287 -102 70 -4 83 -2 134 23
86 42 178 134 218 219 l35 71 40 563 c37 526 41 566 63 610 28 56 60 68 123
46 38 -12 121 -12 662 1 340 8 951 22 1359 31 l740 17 40 -26 c32 -20 57 -27
132 -32 l93 -7 29 -58 c63 -124 183 -224 413 -341 l117 -60 1118 10 c614 6
1430 13 1812 16 l695 7 -37 -27 -38 -26 0 -152 0 -152 -47 -25 c-61 -32 -103
-90 -103 -142 0 -109 72 -354 140 -474 58 -103 58 -90 6 -499 -66 -516 -90
-882 -83 -1241 5 -277 17 -373 63 -520 33 -106 75 -178 126 -214 l41 -30 213
0 214 0 35 54 c45 66 80 170 102 295 13 74 17 156 17 361 -1 255 -7 368 -54
905 -60 697 -62 784 -25 886 58 162 93 369 80 484 -7 71 -24 92 -92 117 l-34
12 7 171 7 170 -52 35 c-59 40 -59 43 -11 147 51 111 137 186 265 232 l60 22
620 -30 c340 -17 622 -28 625 -25 3 3 7 53 8 110 l4 104 273 0 274 0 5 -32 c3
-18 8 -55 11 -83 14 -114 56 -219 101 -254 26 -21 35 -21 475 -21 l449 0 440
201 440 202 0 271 0 271 -433 167 c-347 134 -446 168 -498 172 -35 3 -236 13
-446 22 -441 19 -413 24 -463 -76 -29 -58 -61 -175 -75 -272 l-6 -48 -274 0
c-210 0 -274 -3 -278 -12 -2 -7 -6 31 -10 85 -3 55 -7 100 -9 102 -2 1 -285
-14 -629 -34 l-626 -35 -64 31 c-81 40 -173 131 -247 244 -32 48 -61 94 -67
102 -9 14 -41 13 -305 -3 -294 -18 -961 -58 -1054 -63 l-49 -2 -15 43 c-8 24
-12 45 -11 46 2 2 258 8 569 15 311 6 975 20 1475 31 501 11 1011 21 1135 23
l225 2 3 160 2 161 -57 28 -57 28 92 44 c71 34 98 53 117 82 l24 37 -20 169
c-11 94 -29 208 -40 255 -47 202 -47 181 4 446 100 511 120 682 121 1005 1
145 -4 271 -12 330 -32 228 -92 450 -155 580 l-32 65 -281 3 -281 2 -15 -22z"/>
</g>
</svg>
