<?xml version="1.0" standalone="no"?>
<!DOCTYPE svg PUBLIC "-//W3C//DTD SVG 20010904//EN"
 "http://www.w3.org/TR/2001/REC-SVG-20010904/DTD/svg10.dtd">
<svg version="1.0" xmlns="http://www.w3.org/2000/svg"
 width="1280.000000pt" height="821.000000pt" viewBox="0 0 1280.000000 821.000000"
 preserveAspectRatio="xMidYMid meet">
<metadata>
Created by potrace 1.15, written by Peter Selinger 2001-2017
</metadata>
<g transform="translate(0.000000,821.000000) scale(0.100000,-0.100000)"
fill="#000000" stroke="none">
<path d="M4812 8194 c-16 -11 -22 -23 -18 -37 9 -37 -24 -88 -187 -280 l-109
-129 1 -176 c1 -97 8 -582 17 -1077 19 -1113 33 -3560 22 -3750 -4 -77 -17
-230 -29 -339 -20 -196 -20 -202 -3 -335 10 -75 18 -156 19 -181 l0 -45 -80 3
c-79 4 -83 3 -169 -42 -48 -25 -93 -46 -100 -46 -7 0 -29 18 -49 41 -38 41
-65 47 -59 13 7 -41 108 -231 257 -484 87 -146 223 -382 302 -525 149 -267
189 -331 211 -339 7 -4 23 19 41 59 37 82 108 190 262 403 144 197 408 578
469 676 41 65 43 69 25 82 -10 8 -29 14 -42 14 -33 0 -81 26 -130 71 -40 37
-46 39 -107 39 -36 0 -76 5 -90 11 -50 23 -60 89 -81 539 -30 678 -33 893 -25
1775 35 3593 35 3591 14 3618 -10 14 -62 78 -115 144 -113 139 -166 217 -184
270 -15 44 -30 50 -63 27z m8 -319 c0 -57 -3 -66 -26 -84 -32 -25 -144 -31
-144 -8 0 21 146 171 159 163 6 -4 11 -34 11 -71z m155 -8 c50 -46 76 -77 71
-85 -4 -7 -31 -12 -67 -12 -50 0 -64 4 -84 25 -20 20 -25 34 -25 78 0 88 5 88
105 -6z m-158 -1229 c-6 -1193 -6 -1197 -80 -1243 -18 -11 -48 -44 -67 -73
-32 -49 -35 -51 -43 -30 -4 12 -12 130 -17 263 -11 309 -25 2099 -16 2114 5 7
47 11 117 11 l111 0 -5 -1042z m281 312 c3 -668 -10 -1439 -27 -1586 -5 -45
-13 -69 -34 -93 -15 -18 -30 -45 -33 -59 -27 -118 -36 -125 -53 -36 -16 85
-40 422 -51 729 -12 334 -30 1274 -30 1573 l0 203 113 -3 112 -3 3 -725z
m-296 -1662 c9 -17 13 -73 12 -198 0 -157 -3 -186 -27 -275 -15 -55 -50 -149
-79 -208 -49 -102 -53 -107 -60 -80 -5 15 -11 91 -15 168 -7 162 10 290 57
437 28 89 73 178 90 178 5 0 15 -10 22 -22z m238 -367 c0 -82 -67 -318 -105
-367 -22 -29 -36 0 -29 61 14 121 95 355 123 355 6 0 11 -21 11 -49z m50 -612
c-6 -76 -17 -175 -25 -220 -29 -157 -118 -409 -144 -409 -18 0 -24 71 -18 229
9 237 39 377 130 607 l52 131 7 -101 c4 -56 3 -162 -2 -237z m-286 65 c-1 -62
-9 -102 -38 -188 -39 -117 -115 -273 -146 -301 -20 -18 -20 -17 -20 27 0 57
28 164 80 303 56 150 101 246 114 242 7 -3 11 -34 10 -83z m13 -520 c6 -146
-9 -357 -33 -454 -9 -36 -41 -114 -72 -174 -62 -122 -63 -122 -81 4 -15 114 9
301 65 503 49 176 89 276 105 260 6 -6 13 -68 16 -139z m275 -294 c-4 -69 -61
-290 -105 -408 -57 -151 -89 -181 -95 -88 -7 114 84 409 166 534 24 36 37 21
34 -38z m-292 -697 c-24 -102 -90 -262 -161 -388 -49 -88 -50 -89 -44 -45 13
89 37 197 65 295 29 97 51 159 121 335 l34 85 3 -98 c2 -71 -3 -120 -18 -184z
m295 90 c-2 -204 -16 -309 -65 -496 -30 -117 -94 -299 -126 -358 l-19 -34 -6
55 c-11 85 -10 342 1 466 12 132 36 216 97 339 49 97 113 215 117 215 2 0 2
-84 1 -187z m-280 -711 c0 -239 -2 -282 -17 -314 -21 -46 -37 -47 -82 -8 -55
49 -73 128 -56 253 14 103 44 204 82 282 68 136 73 123 73 -213z m279 -199 c1
-103 -8 -134 -44 -153 -27 -14 -60 4 -60 33 0 58 77 244 93 228 6 -6 11 -55
11 -108z m-380 -219 c30 -30 13 -74 -29 -74 -42 0 -59 44 -29 74 8 9 22 16 29
16 7 0 21 -7 29 -16z m321 -23 c10 -32 -119 -380 -148 -398 -13 -8 -2 285 13
339 13 46 52 78 96 78 23 0 34 -5 39 -19z m-502 -31 c14 -11 36 -41 49 -68 43
-88 24 -296 -43 -451 -12 -28 -27 -51 -34 -51 -36 0 -280 416 -273 465 3 22
33 33 101 34 68 1 112 22 125 60 13 37 38 40 75 11z m750 -34 c48 -20 85 -62
92 -106 13 -79 77 -89 91 -14 7 40 27 41 32 0 8 -63 -82 -177 -152 -192 -48
-10 -57 -21 -50 -64 8 -46 -9 -100 -43 -141 -20 -23 -28 -27 -39 -18 -18 15
-38 84 -63 219 -36 192 -35 298 1 322 20 12 96 9 131 -6z m-488 -478 c-8 -40
-23 -84 -34 -98 -24 -33 -75 -62 -95 -54 -45 17 -21 116 81 335 l58 125 3
-117 c2 -77 -3 -143 -13 -191z m289 -83 l1 -131 -37 -75 c-21 -42 -68 -116
-105 -164 l-68 -89 -3 110 c-7 227 31 404 124 578 l48 90 19 -95 c13 -62 20
-138 21 -224z m-368 -190 c14 -22 15 -32 5 -65 -13 -44 -21 -48 -43 -22 -22
24 -31 59 -24 88 8 32 41 31 62 -1z"/>
<path d="M460 8137 c0 -67 -49 -97 -160 -97 -156 0 -213 -63 -239 -260 -12
-91 -26 -430 -36 -857 l-6 -263 103 -1 c268 -1 307 -4 324 -20 23 -24 3 -56
-44 -68 -20 -5 -112 -13 -205 -17 l-167 -7 5 -246 c3 -135 7 -354 10 -486 6
-290 19 -474 46 -658 l21 -139 -27 -51 c-25 -47 -28 -67 -36 -207 -17 -315 31
-979 87 -1205 9 -33 28 -102 45 -153 39 -124 38 -167 -11 -304 -45 -125 -91
-304 -116 -448 -52 -308 -10 -1100 68 -1277 29 -65 21 -139 -41 -407 -81 -345
-96 -452 -68 -490 17 -23 33 -15 131 61 37 29 75 53 84 53 30 0 84 -53 108
-106 31 -70 49 -145 69 -288 18 -129 35 -192 50 -189 15 2 49 111 90 288 55
236 68 255 183 255 80 -1 135 -28 161 -79 42 -82 59 -67 73 68 19 180 -12 506
-72 762 -39 166 -39 246 0 401 47 191 63 397 63 818 0 408 -15 607 -58 780
-32 131 -32 216 0 365 46 214 59 376 59 775 1 382 -6 459 -44 508 -48 60 -51
219 -6 297 41 69 47 160 53 741 l5 542 -158 5 c-88 3 -175 10 -195 16 -41 13
-101 50 -106 67 -2 7 14 25 36 40 46 33 50 45 19 59 -42 18 -48 89 -55 613
l-6 482 186 0 186 0 4 -552 c2 -322 8 -568 14 -588 l10 -35 11 26 c23 56 34
223 39 589 4 254 2 433 -6 525 -20 235 -40 254 -283 270 -117 8 -158 29 -172
88 -12 46 -26 48 -26 4z m-45 -209 c10 -10 -90 -17 -130 -9 -40 8 -35 17 15
23 28 4 107 -6 115 -14z m349 1 c6 -5 -36 -9 -102 -9 -64 0 -112 4 -112 9 0
19 195 18 214 0z m-385 -108 c39 -5 46 -10 53 -36 12 -43 27 -475 28 -797 l0
-278 -165 0 -165 0 0 566 0 566 103 -7 c56 -4 122 -10 146 -14z m491 -1871 l0
-530 -92 0 c-164 1 -207 23 -233 120 -16 59 -29 242 -45 620 -6 135 -15 249
-21 255 -5 5 -10 7 -11 5 0 -3 -4 -228 -7 -500 l-6 -495 -160 0 -160 0 -3 528
-2 527 370 0 370 0 0 -530z m-429 -652 c17 -31 16 -306 -1 -339 -19 -35 -28
-39 -108 -39 -63 0 -76 3 -97 24 -29 30 -40 107 -31 225 5 72 10 90 30 110 27
27 69 39 143 40 44 1 54 -2 64 -21z m269 -1 c36 -18 51 -74 57 -215 7 -155 3
-162 -102 -162 -106 0 -110 6 -108 129 3 142 17 211 48 239 29 25 67 28 105 9z
m-293 -489 c76 -37 37 -116 -146 -298 l-136 -135 -3 215 c-1 118 0 221 3 229
5 12 27 13 131 8 69 -4 137 -12 151 -19z m453 -210 c0 -334 -13 -392 -98 -452
-62 -44 -68 -30 -43 94 47 231 17 335 -109 381 -72 26 -100 51 -100 89 0 31
37 66 95 89 28 11 146 27 223 30 l32 1 0 -232z m-246 -75 c14 -14 29 -37 33
-51 12 -50 -7 -198 -49 -364 l-43 -172 -8 64 c-4 36 -9 167 -10 291 -2 179 1
229 12 242 19 24 34 21 65 -10z m-188 -5 c19 -30 22 -121 13 -378 -15 -448
-32 -548 -111 -666 -28 -41 -54 -71 -58 -67 -13 15 -80 238 -96 318 -24 120
-22 346 4 461 36 162 105 279 191 324 43 23 48 23 57 8z m422 -482 c7 -133
-56 -399 -155 -655 -53 -139 -140 -321 -152 -321 -16 0 -24 89 -18 199 12 201
94 488 199 696 80 160 121 186 126 81z m-435 -688 c24 -49 37 -181 26 -273
-15 -136 -98 -341 -244 -605 -105 -190 -108 -190 -74 -16 37 195 59 278 115
432 102 285 115 326 129 390 9 44 11 74 4 91 -15 41 23 25 44 -19z m412 -133
c44 -306 9 -509 -164 -948 -66 -166 -118 -262 -141 -262 -13 0 -15 26 -15 170
0 161 -4 195 -25 195 -14 0 -28 -95 -35 -235 -10 -214 -42 -328 -146 -532 -77
-151 -103 -188 -119 -163 -29 47 -54 285 -46 440 6 117 25 216 69 350 63 193
187 450 217 450 5 0 19 -27 31 -60 33 -92 40 -85 59 72 8 62 24 120 56 200 58
145 227 471 235 455 4 -7 14 -66 24 -132z m26 -1084 c-24 -302 -109 -607 -245
-880 -50 -101 -68 -131 -78 -131 -20 0 -31 97 -31 270 0 220 12 298 54 358 31
43 192 335 264 479 22 44 42 73 44 65 2 -9 -2 -81 -8 -161z m-426 -973 c-11
-44 -28 -74 -63 -116 -72 -84 -105 -137 -174 -276 -34 -70 -63 -125 -64 -123
-2 1 2 36 7 77 22 168 86 349 225 643 l79 167 3 -156 c2 -115 -2 -172 -13
-216z m374 94 c29 -107 70 -514 58 -564 -10 -39 -63 -53 -142 -39 -77 14 -131
51 -156 104 -24 54 -24 103 2 180 46 139 192 379 220 362 4 -3 13 -23 18 -43z"/>
<path d="M2620 8132 c0 -26 -7 -45 -19 -56 -23 -21 -118 -35 -236 -36 -192 -2
-321 -61 -362 -168 -17 -44 -18 -87 -16 -597 1 -302 5 -568 8 -591 l6 -41 262
5 c271 5 361 -4 338 -32 -21 -25 -144 -47 -430 -76 -107 -11 -197 -22 -199
-25 -3 -3 0 -69 7 -147 25 -312 63 -1037 116 -2223 14 -313 28 -598 31 -631
l5 -61 67 -6 c37 -4 121 -10 187 -13 167 -9 179 -23 20 -24 -71 0 -168 -3
-214 -7 l-83 -6 6 -116 c16 -290 36 -939 37 -1166 1 -252 -6 -326 -37 -391
-19 -40 -75 -89 -113 -99 -14 -4 -145 -10 -291 -14 -233 -6 -270 -10 -305 -27
-90 -43 -112 -174 -122 -722 l-6 -354 419 4 c470 5 494 8 564 71 31 28 49 37
76 37 89 0 154 -82 209 -265 29 -96 60 -165 74 -165 11 0 43 74 69 160 61 198
79 245 94 254 14 8 34 3 90 -26 40 -20 98 -42 128 -49 34 -7 222 -13 501 -16
l446 -5 6 153 c15 346 5 709 -24 848 -14 66 -48 105 -109 121 -24 6 -159 17
-301 24 -297 15 -307 18 -349 101 l-25 50 1 395 c1 217 9 553 18 745 9 193 16
365 16 383 l0 32 -97 1 c-54 0 -116 3 -138 8 -34 6 -22 9 83 21 69 7 125 18
127 24 6 21 115 2922 115 3074 l0 42 -123 0 c-190 0 -402 35 -465 76 -23 15
-23 17 -8 32 14 15 53 18 279 22 l262 5 12 50 c20 81 33 312 33 600 -1 395
-21 635 -57 670 -28 29 -120 46 -293 56 -208 12 -237 22 -260 87 -18 52 -30
54 -30 4z m-117 -192 c26 0 47 -4 47 -10 0 -6 -52 -10 -137 -10 -86 0 -133 4
-127 9 9 10 114 20 149 14 11 -1 41 -3 68 -3z m483 0 c30 0 54 -4 54 -10 0 -6
-57 -10 -152 -10 -95 0 -148 4 -142 9 10 11 112 20 158 14 16 -1 53 -3 82 -3z
m-372 -182 c3 -29 11 -156 17 -283 5 -126 12 -232 15 -234 2 -2 4 40 4 95 0
54 3 183 7 287 l6 187 254 0 253 0 0 -550 0 -550 -255 0 -255 0 -1 98 c-1 53
-4 147 -8 207 l-6 110 -24 -190 c-13 -104 -27 -193 -30 -196 -3 -4 -96 -12
-206 -18 -110 -6 -226 -14 -258 -17 l-59 -6 5 473 c3 350 7 485 17 518 15 48
67 107 102 114 13 2 112 5 220 6 l197 1 5 -52z m6 -1668 l0 -390 -255 0 -255
0 0 390 0 390 255 0 255 0 0 -390z m550 0 l0 -390 -255 0 -255 0 0 390 0 390
255 0 255 0 0 -390z m-552 -1538 l2 -1052 -207 2 -208 3 -7 395 c-3 217 -14
589 -22 825 -9 237 -18 500 -21 585 -3 85 -8 188 -11 228 l-5 72 238 -2 238
-3 3 -1053z m502 656 c0 -754 -39 -1560 -83 -1709 -16 -52 0 -50 -199 -13
l-147 27 -5 61 c-3 34 -8 505 -11 1049 l-6 987 225 0 226 0 0 -402z m-568
-1883 l68 -17 0 -779 0 -779 -184 0 -183 0 -7 263 c-12 508 -19 1185 -12 1228
17 114 103 136 318 84z m534 -57 c-32 -228 -56 -731 -56 -1170 0 -305 -1 -328
-17 -329 -10 0 -94 -6 -188 -13 -93 -7 -171 -12 -172 -11 -3 2 45 1536 49
1540 5 4 241 22 322 23 l68 2 -6 -42z m-513 -1583 c28 -12 19 -35 -20 -52 -50
-21 -203 -29 -275 -14 -97 21 -95 50 5 71 47 10 262 6 290 -5z m440 6 c26 -4
50 -11 54 -14 12 -12 -15 -51 -117 -172 -122 -142 -175 -221 -194 -286 -19
-63 -34 -89 -50 -89 -29 0 -38 66 -43 318 l-6 252 154 -1 c85 0 175 -4 202 -8z
m187 -137 c0 -49 -130 -213 -340 -428 -231 -236 -251 -237 -85 -3 30 43 61
101 70 130 27 94 169 242 289 302 50 25 66 25 66 -1z m-737 -55 c21 -6 40 -16
43 -24 5 -13 -250 -709 -267 -728 -4 -5 -52 58 -107 140 -125 184 -185 259
-240 297 -56 39 -109 41 -148 6 -37 -35 -153 -190 -269 -364 -54 -80 -100
-144 -102 -142 -5 5 33 454 53 624 19 172 22 178 76 188 132 23 876 25 961 3z
m1373 -11 c-41 -57 -51 -87 -38 -120 6 -18 9 -34 6 -37 -6 -7 -154 146 -154
160 0 5 17 -2 37 -16 49 -32 71 -32 119 5 47 36 51 37 30 8z m-308 -15 c26
-15 97 -77 158 -137 139 -139 156 -178 70 -168 -31 4 -34 7 -40 45 -8 49 -72
139 -119 168 -18 10 -48 19 -67 19 -25 0 -43 9 -67 32 -67 65 -23 92 65 41z
m-169 -48 c30 -15 121 -111 121 -126 0 -19 -22 -8 -54 27 -30 33 -37 36 -72
30 -43 -7 -55 -2 -73 32 -26 48 18 69 78 37z m-764 -274 c-30 -208 -85 -382
-137 -438 -26 -28 -39 -29 -69 -5 l-22 19 17 69 c40 163 163 503 204 564 17
25 17 25 20 -35 2 -33 -4 -111 -13 -174z m668 148 c29 -15 56 -50 57 -71 0
-38 -118 -13 -134 28 -7 19 19 54 41 54 8 0 24 -5 36 -11z m-80 -142 c32 -31
38 -64 8 -47 -21 10 -111 112 -111 124 0 8 57 -35 103 -77z m414 -129 c169
-304 216 -399 206 -409 -30 -30 -781 -17 -855 14 -74 31 -66 89 13 100 71 9
166 85 357 283 97 101 179 181 183 179 3 -3 47 -78 96 -167z m237 -67 c31 -33
30 -49 -1 -32 -20 10 -182 184 -198 211 -9 16 150 -127 199 -179z m-1939 132
c56 -59 227 -313 210 -313 -4 0 -38 9 -75 21 -100 30 -114 24 -67 -28 41 -44
111 -83 153 -83 58 0 86 -42 40 -60 -50 -19 -225 -30 -471 -30 -140 0 -255 2
-255 5 0 6 150 252 193 315 38 57 78 100 92 100 6 0 24 -27 40 -60 41 -86 90
-128 128 -108 30 16 21 64 -22 111 -64 70 -88 136 -59 165 22 22 47 12 93 -35z
m1188 -67 c39 -37 47 -56 23 -56 -15 0 -116 107 -116 123 0 10 42 -20 93 -67z
m-115 -116 c67 -57 67 -70 2 -70 -44 0 -63 12 -54 33 3 9 -5 37 -20 63 -14 26
-26 49 -26 52 0 5 1 5 98 -78z"/>
<path d="M10512 8120 c-56 -59 -83 -70 -154 -63 -48 5 -56 3 -79 -21 -15 -15
-30 -41 -33 -60 -17 -91 -49 -1026 -61 -1776 -18 -1162 -40 -1994 -54 -2048
-9 -34 -46 -52 -127 -62 -103 -13 -167 -75 -206 -203 -28 -94 -22 -176 20
-249 42 -75 52 -170 62 -588 10 -424 17 -471 97 -649 67 -151 69 -181 19 -299
-98 -228 -148 -575 -115 -796 6 -42 17 -83 24 -93 11 -15 16 -11 45 40 38 68
78 103 128 114 59 13 242 7 287 -8 35 -12 41 -19 52 -59 18 -71 15 -267 -8
-474 -30 -262 -30 -262 110 -511 48 -86 60 -116 55 -138 -10 -48 5 -29 52 66
25 50 68 121 94 157 70 96 73 109 65 343 -8 215 1 337 35 478 34 145 46 154
199 154 140 -1 185 -18 251 -96 30 -36 46 -47 53 -40 21 21 31 416 19 696 -13
284 -27 388 -74 540 -41 131 -41 192 0 309 70 197 80 339 67 959 l-7 367 -139
0 -139 0 0 213 c0 646 -22 2887 -30 3148 -11 309 -26 452 -53 505 -31 60 -99
98 -172 96 -73 -2 -114 12 -169 58 -26 22 -53 40 -58 40 -6 0 -31 -22 -56 -50z
m-22 -286 c15 -39 28 -285 35 -664 8 -443 28 -671 56 -643 17 17 29 228 29
528 1 434 14 725 35 764 19 38 38 47 73 35 51 -18 53 -40 63 -664 10 -661 27
-1282 35 -1322 4 -16 10 -28 14 -28 17 0 20 163 20 964 0 763 7 1017 26 1048
15 23 24 -39 36 -230 19 -292 18 -3282 0 -3406 -14 -96 -25 -126 -46 -126 -59
0 -90 184 -47 281 32 72 44 278 45 799 1 447 -6 620 -24 620 -20 0 -32 -87
-39 -289 -8 -189 -11 -216 -26 -228 -16 -11 -24 -9 -58 10 -56 31 -76 63 -87
137 -5 36 -14 261 -20 500 -9 421 -14 490 -30 490 -14 0 -19 -80 -30 -520 -6
-239 -15 -462 -20 -495 -12 -74 -32 -102 -96 -136 -89 -47 -85 -20 -82 -609 2
-417 0 -520 -10 -539 -36 -63 -48 46 -57 514 -11 590 19 2759 41 2990 l7 70
13 -63 c15 -71 31 -105 44 -97 21 13 39 112 37 201 -2 78 1 95 17 113 25 28
34 27 46 -5z m223 -2702 c30 -33 39 -125 35 -366 -3 -189 -6 -238 -20 -268
-21 -47 -58 -52 -84 -13 -31 48 -40 469 -12 598 14 64 49 85 81 49z m-173 -16
c14 -37 30 -204 30 -310 0 -109 -17 -286 -30 -321 -13 -34 -36 -31 -57 8 -16
28 -18 57 -16 222 2 302 37 495 73 401z m5 -760 c8 -19 17 -52 21 -74 13 -81
-36 -196 -69 -163 -13 13 -17 223 -5 254 12 28 38 20 53 -17z m175 -6 c25 -25
34 -60 28 -118 -8 -80 -53 -151 -80 -124 -4 4 -14 57 -20 116 -12 108 -12 108
11 127 29 24 36 24 61 -1z m538 -573 c-2 -190 -6 -227 -20 -249 -21 -32 -73
-43 -159 -33 -54 6 -66 12 -103 49 -23 22 -62 48 -86 56 -64 22 -81 52 -91
159 -5 50 -16 105 -25 122 -15 29 -17 30 -32 15 -13 -13 -18 -44 -23 -131 -5
-81 -11 -122 -23 -140 -17 -26 -50 -33 -62 -14 -8 13 -5 196 4 294 l7 70 210
11 c116 6 254 12 308 12 l99 2 -4 -223z m-948 203 c10 -7 -26 -10 -110 -10
-84 0 -120 3 -110 10 8 5 58 10 110 10 52 0 102 -5 110 -10z m242 -27 c18 -52
16 -322 -3 -382 -18 -56 -42 -73 -66 -48 -16 15 -18 36 -17 145 3 249 47 396
86 285z m-214 -136 c35 -19 40 -38 15 -58 -22 -19 -241 -26 -295 -10 -61 19
-47 50 34 77 58 19 202 13 246 -9z m12 -230 c14 -7 26 -23 28 -35 6 -37 -52
-55 -188 -56 -121 -1 -207 16 -217 41 -9 23 23 47 74 54 87 12 276 10 303 -4z
m510 -99 c12 -21 17 -41 13 -58 -8 -38 -53 -111 -64 -105 -10 7 -12 137 -3
173 9 31 31 27 54 -10z m-134 -25 c14 -55 -27 -245 -66 -303 -19 -28 -30 11
-24 85 14 171 23 228 36 236 26 17 48 9 54 -18z m-165 -108 c13 -67 7 -241
-11 -322 -12 -56 -34 -83 -51 -66 -46 46 -34 364 17 440 21 33 31 21 45 -52z
m-373 -88 c-68 -73 -141 -154 -163 -180 -50 -60 -53 -53 -54 109 -1 132 10
181 43 194 11 5 83 9 159 9 l138 1 -123 -133z m1048 108 c10 -13 14 -50 14
-130 0 -119 -11 -204 -36 -272 -28 -76 -36 -60 -54 112 -18 168 -44 255 -76
255 -29 0 -90 -39 -169 -109 -102 -90 -121 -94 -67 -15 92 138 172 186 300
181 59 -2 77 -6 88 -22z m-857 -287 c-7 -296 -19 -338 -166 -585 -87 -147
-105 -153 -155 -52 -77 156 -52 389 63 582 37 62 239 287 258 287 3 0 3 -105
0 -232z m712 -137 c6 -31 20 -78 30 -104 11 -26 19 -60 19 -75 0 -56 -85 -204
-196 -344 -64 -79 -110 -116 -127 -99 -7 7 -14 85 -18 212 -9 254 -31 354 -61
282 -7 -18 -12 -110 -14 -253 -2 -124 -6 -256 -9 -294 -9 -118 -62 -200 -82
-128 -13 44 -7 529 7 597 11 55 18 65 80 125 42 40 72 78 79 100 15 47 73 118
179 217 l87 82 7 -131 c4 -71 12 -156 19 -187z m-527 -484 c10 -200 -3 -473
-24 -519 -9 -18 -38 -42 -84 -67 -70 -38 -179 -118 -340 -248 -124 -100 -145
-104 -146 -26 0 104 203 572 315 725 61 83 99 94 159 47 l28 -22 -30 -13 c-41
-17 -53 -65 -53 -207 1 -175 38 -261 68 -158 16 56 24 173 27 416 2 150 5 197
18 225 40 87 51 60 62 -153z m629 -84 c51 -204 65 -400 48 -672 -7 -107 -13
-196 -14 -198 -1 -1 -29 11 -62 28 -43 21 -97 35 -190 50 -71 11 -141 22 -154
25 l-23 5 4 222 c5 249 12 279 84 379 42 59 256 308 265 308 3 0 22 -66 42
-147z m-447 -409 c12 -47 -2 -306 -18 -344 -22 -50 -41 -64 -67 -48 -31 19
-45 64 -44 139 1 86 26 171 66 231 36 54 54 60 63 22z m-180 -230 c8 -45 -11
-110 -36 -124 -29 -15 -70 -12 -77 7 -11 29 77 171 98 158 4 -3 11 -22 15 -41z
m-186 -87 c0 -41 -43 -61 -80 -37 -13 9 -11 14 13 35 36 32 67 33 67 2z m175
-297 c15 -17 16 -23 5 -50 -14 -34 -44 -55 -66 -46 -20 8 -18 75 3 98 21 23
36 23 58 -2z m173 3 c6 -11 6 -43 1 -78 -9 -64 -85 -340 -101 -365 -16 -26 -2
308 15 363 28 87 64 121 85 80z m-170 -483 c0 -154 -13 -235 -38 -235 -48 0
-45 166 7 359 23 85 32 52 31 -124z m142 -202 c0 -123 -36 -248 -70 -248 -13
0 -13 102 1 176 12 65 47 154 60 154 5 0 9 -37 9 -82z"/>
<path d="M10374 7442 c-48 -31 -42 -170 8 -180 27 -5 51 53 45 106 -5 46 -34
87 -53 74z"/>
<path d="M10366 7169 c-35 -235 -32 -1729 3 -1854 8 -29 8 -29 15 15 25 173
35 1241 15 1640 -11 220 -21 279 -33 199z"/>
<path d="M8274 8133 c-3 -16 -7 -33 -9 -40 -8 -26 -55 -42 -157 -52 -111 -11
-190 -38 -207 -70 -34 -64 -50 -360 -60 -1119 -5 -337 -11 -616 -15 -619 -3
-3 -137 -12 -298 -19 -160 -7 -296 -15 -302 -17 -8 -3 -9 -332 -5 -1133 6
-1083 15 -1400 39 -1429 21 -26 30 -341 40 -1415 9 -1068 24 -1857 37 -1947 3
-26 11 -43 19 -43 26 0 75 53 103 113 51 106 72 241 78 500 l6 227 100 -192
c173 -336 225 -402 418 -531 133 -88 198 -151 208 -198 9 -45 35 -49 56 -9 11
21 20 78 26 169 6 75 15 153 20 173 12 46 51 79 145 124 43 20 99 58 134 90
32 31 64 53 70 49 6 -4 30 -48 55 -98 63 -133 151 -217 226 -217 11 0 34 13
49 30 46 49 61 37 53 -40 -6 -54 17 -89 78 -120 77 -40 98 -20 119 110 18 113
29 793 30 1790 0 881 9 1261 31 1370 6 32 21 65 35 80 14 16 28 48 34 80 21
108 29 540 30 1496 l0 971 -97 7 c-54 3 -174 8 -268 11 -93 3 -198 8 -232 11
l-61 5 -6 122 c-3 67 -13 372 -21 677 -22 759 -32 992 -45 1000 -7 4 -84 10
-173 13 -193 6 -217 13 -217 60 0 58 -54 82 -66 30z m-41 -291 c24 -27 37
-136 37 -327 0 -160 11 -311 26 -358 6 -20 7 -20 18 -1 7 12 13 126 16 334 5
322 9 350 46 364 8 3 49 6 90 6 l74 0 0 -1032 c-1 -999 -6 -1247 -31 -1316
-12 -35 -42 -49 -83 -38 -52 13 -56 52 -66 676 -8 526 -18 721 -39 758 -30 53
-41 -109 -51 -723 -5 -319 -14 -604 -19 -633 -12 -66 -25 -82 -62 -82 -22 0
-32 7 -42 28 -9 20 -13 269 -15 1047 -3 999 3 1270 29 1301 16 19 53 18 72 -4z
m447 -411 c0 -49 -12 -71 -41 -71 -25 0 -31 27 -14 67 32 77 55 79 55 4z
m-731 -1307 c14 -18 21 -41 21 -71 0 -37 -5 -50 -31 -74 -17 -16 -39 -29 -48
-29 -9 0 -26 -3 -38 -6 -33 -9 -29 10 11 59 47 59 59 85 52 118 -7 36 6 37 33
3z m1415 -26 c-5 -7 -21 -31 -36 -53 -20 -26 -27 -47 -23 -62 7 -28 -41 -86
-242 -295 -186 -194 -263 -290 -263 -327 0 -21 -11 -39 -41 -65 -50 -46 -83
-46 -87 0 -2 25 8 44 58 105 57 69 61 77 57 116 -4 38 -3 41 14 33 33 -18 61
-10 101 29 35 36 38 43 33 75 l-7 35 43 3 c42 3 44 5 50 39 6 42 32 79 113
169 62 68 91 122 81 148 -4 12 -3 13 9 3 19 -16 50 -7 100 30 44 32 51 35 40
17z m-1650 -6 c12 -19 -38 -85 -152 -204 -69 -70 -131 -128 -140 -128 -12 0
-13 8 -8 41 14 90 93 182 165 195 46 8 61 21 61 50 0 33 59 70 74 46z m1164
-14 c3 -18 -194 -228 -214 -228 -19 0 -18 59 1 86 8 12 28 24 44 27 25 5 32
13 40 45 12 44 36 69 77 82 36 10 48 8 52 -12z m216 16 c22 -8 20 -30 -4 -65
-12 -15 -26 -42 -31 -59 -8 -21 -17 -30 -34 -30 -51 0 -175 -143 -175 -202 0
-25 -4 -28 -33 -28 -40 0 -57 -15 -57 -51 0 -47 -83 -139 -105 -117 -27 27 55
149 220 327 102 111 155 180 155 204 0 23 33 33 64 21z m-1718 -129 c6 -26
-22 -78 -40 -72 -15 5 -20 75 -6 92 15 18 39 8 46 -20z m374 -122 c0 -64 -43
-139 -73 -128 -41 16 -30 79 21 122 32 27 52 29 52 6z m1610 0 c0 -33 -49
-124 -105 -196 -31 -39 -58 -82 -61 -94 -4 -13 -14 -23 -24 -23 -46 0 -189
-148 -190 -197 -1 -69 -379 -438 -413 -404 -16 16 2 61 28 71 14 5 30 22 36
37 29 78 151 190 193 179 43 -11 123 65 112 107 -7 28 3 45 101 155 78 88 101
123 117 175 6 18 11 21 60 32 16 3 44 21 63 40 30 30 33 38 27 70 -4 22 -2 41
6 50 17 21 50 19 50 -2z m-1384 -27 c8 -21 -20 -68 -82 -142 -76 -90 -104
-133 -104 -161 0 -19 -4 -23 -18 -19 -11 4 -40 -5 -67 -19 -53 -29 -70 -22
-60 23 21 88 249 326 318 331 4 1 10 -5 13 -13z m-356 -185 c0 -11 -145 -148
-172 -162 -15 -8 -13 0 12 44 16 29 30 66 30 80 0 20 6 28 23 31 12 3 31 7 42
9 37 8 65 7 65 -2z m1739 -92 c-18 -35 -90 -109 -106 -109 -10 0 -5 14 16 44
45 66 119 118 90 65z m-1444 -80 c-19 -28 -35 -64 -35 -79 0 -34 -39 -88 -116
-161 -72 -68 -102 -85 -117 -70 -27 27 87 180 218 294 42 37 78 67 81 67 2 0
-11 -23 -31 -51z m-445 -146 c0 -3 -14 -18 -32 -33 -38 -32 -31 -50 22 -50 29
0 42 -5 50 -19 13 -25 13 -101 0 -101 -5 0 -52 44 -104 98 -86 88 -93 98 -73
104 30 8 137 10 137 1z m1758 -40 c75 -80 143 -165 138 -171 -3 -3 -32 20 -65
51 -32 31 -71 59 -87 62 -16 4 -35 8 -41 11 -17 5 -18 94 -1 94 6 0 32 -21 56
-47z m-1248 0 c0 -42 -37 -108 -85 -152 -25 -23 -49 -41 -55 -41 -16 0 -12 68
6 105 19 41 110 129 124 120 6 -3 10 -18 10 -32z m90 -120 c0 -32 -35 -110
-74 -168 -19 -27 -26 -49 -23 -68 3 -21 0 -26 -10 -23 -22 9 -83 -21 -135 -65
-57 -48 -70 -50 -31 -6 52 60 75 105 71 141 -4 33 -4 34 34 28 33 -4 42 0 71
29 21 21 37 49 41 73 8 41 32 86 47 86 5 0 9 -12 9 -27z m-637 -163 c31 -30
57 -58 57 -62 0 -25 -37 2 -102 73 -126 139 -108 135 45 -11z m1436 -27 c-7
-10 -34 -43 -60 -73 -62 -74 -100 -133 -102 -159 -1 -16 -8 -21 -30 -21 -17 0
-45 -9 -63 -21 -19 -11 -34 -18 -34 -14 0 4 24 35 54 68 78 91 116 147 116
174 0 18 5 23 28 23 15 0 41 9 57 19 38 25 51 26 34 4z m432 -132 c20 -16 24
-28 23 -70 -1 -81 -44 -111 -141 -96 -62 9 -83 33 -83 94 0 42 4 53 26 70 37
29 141 30 175 2z m-1231 -24 c0 -35 -66 -125 -159 -214 -46 -46 -88 -83 -93
-83 -5 0 7 23 27 51 23 33 35 63 35 85 0 26 11 45 58 95 59 64 109 102 124 93
4 -3 8 -15 8 -27z m-507 -18 c22 -28 22 -50 -3 -82 -33 -42 -165 -76 -192 -49
-6 6 -13 32 -15 59 -9 87 44 121 152 100 22 -4 48 -17 58 -28z m1331 -68 c12
-19 -13 -61 -35 -61 -29 0 -59 -28 -59 -55 0 -11 -13 -42 -30 -68 -21 -34 -44
-54 -88 -76 -61 -31 -132 -49 -132 -34 0 11 245 253 285 281 33 23 51 27 59
13z m-1437 -169 c54 -50 64 -85 32 -118 -32 -34 -39 -30 -33 19 5 35 1 50 -25
90 -17 26 -27 47 -23 47 4 0 26 -17 49 -38z m593 -12 c0 -15 -13 -45 -29 -66
-39 -54 -240 -249 -248 -241 -3 4 25 41 63 83 136 150 180 218 169 255 -6 17
-4 18 19 8 19 -9 26 -20 26 -39z m1263 -1 c53 -47 72 -79 46 -79 -13 0 -66 54
-99 100 -31 44 -13 37 53 -21z m-144 -36 c20 -78 56 -115 116 -117 17 -1 20
-9 23 -53 2 -29 1 -53 -3 -53 -3 0 -24 14 -47 30 -22 17 -50 30 -62 30 -31 0
-43 11 -61 53 -15 36 -21 158 -8 170 12 13 31 -14 42 -60z m-279 -73 c0 -5
-11 -26 -25 -47 -15 -21 -25 -48 -23 -63 3 -22 -1 -25 -28 -28 -37 -4 -64 19
-64 52 0 28 35 74 64 86 29 12 76 12 76 0z m-1504 -38 c54 -40 131 -124 151
-166 13 -29 14 -40 5 -61 -6 -14 -19 -25 -28 -25 -12 0 -14 6 -9 29 4 18 1 41
-9 58 -16 33 -99 112 -118 114 -7 1 -22 2 -33 3 -21 1 -32 34 -21 62 8 20 18
18 62 -14z m774 -102 c0 -6 -11 -22 -25 -36 -19 -19 -34 -24 -58 -22 -42 4
-39 18 9 45 42 24 74 30 74 13z m480 -173 c3 -93 10 -161 18 -174 14 -26 57
-39 156 -49 125 -13 45 -26 -132 -22 -172 4 -227 15 -227 48 0 8 21 26 47 40
59 32 88 59 88 81 0 24 -38 49 -75 49 -76 1 -70 30 26 131 54 57 72 70 82 60
7 -7 14 -65 17 -164z m589 47 c50 -48 91 -92 91 -99 0 -19 -36 -47 -56 -43
-11 2 -18 13 -18 30 -2 33 -16 49 -58 62 -38 13 -64 48 -73 99 -9 57 12 48
114 -49z m-1810 -29 c44 -46 81 -91 81 -99 0 -41 -97 -22 -134 27 -35 47 -61
157 -37 157 4 0 45 -38 90 -85z m491 -82 c-15 -33 -24 -43 -31 -36 -16 16 -2
83 24 124 l22 34 3 -37 c2 -22 -5 -57 -18 -85z m942 52 c7 -43 1 -105 -12
-105 -10 0 -20 26 -20 52 0 17 -5 19 -27 16 -16 -3 -36 -9 -45 -13 -31 -13
-20 13 24 55 24 22 49 39 58 38 8 -2 18 -20 22 -43z m-692 -35 c11 -11 20 -24
20 -29 0 -16 -43 -41 -70 -41 -30 0 -70 25 -70 45 0 20 40 45 72 45 16 0 37
-9 48 -20z m-789 -161 c12 -45 7 -99 -10 -99 -12 0 -31 80 -31 132 0 37 2 40
14 28 8 -8 20 -36 27 -61z m1914 -123 c32 -23 12 -46 -39 -46 -57 0 -66 14
-24 40 39 24 39 24 63 6z m-1297 -34 c18 -10 22 -21 22 -57 0 -51 16 -65 74
-65 106 0 117 -66 16 -99 -53 -17 -96 -46 -102 -69 -9 -32 22 -52 93 -62 116
-17 115 -57 -5 -114 -82 -39 -106 -65 -81 -90 9 -8 31 -18 50 -21 19 -3 50 -7
69 -10 83 -13 67 -59 -38 -109 -41 -19 -79 -44 -85 -54 -16 -30 16 -52 90 -62
117 -17 115 -50 -7 -105 -84 -39 -105 -64 -74 -95 20 -20 34 -25 104 -34 22
-3 46 -12 55 -20 13 -14 13 -18 -3 -35 -10 -11 -39 -28 -65 -37 -68 -26 -101
-51 -101 -79 0 -35 45 -55 125 -55 36 0 65 -3 65 -7 0 -5 -28 -26 -61 -48 -78
-52 -131 -110 -127 -138 3 -21 7 -22 86 -19 77 3 82 2 82 -16 0 -22 -26 -43
-102 -81 -49 -24 -64 -47 -53 -80 8 -25 27 -33 95 -40 50 -6 55 -8 55 -31 0
-21 -12 -32 -72 -64 -74 -39 -90 -59 -78 -97 8 -25 43 -39 101 -39 32 0 46 -5
51 -16 10 -26 -10 -47 -77 -80 -71 -35 -90 -55 -90 -96 0 -43 48 -68 130 -69
l65 0 -70 -33 c-112 -53 -160 -121 -116 -165 19 -19 28 -20 92 -15 71 7 71 7
67 -17 -2 -18 -20 -33 -71 -60 -71 -37 -87 -52 -87 -81 0 -34 28 -48 96 -48
56 0 65 -2 62 -17 -2 -9 -35 -32 -75 -52 -116 -58 -146 -98 -146 -191 0 -87
30 -142 133 -241 119 -113 121 -136 7 -78 -192 98 -292 216 -466 551 l-91 176
0 1234 c0 679 3 1238 8 1242 13 13 424 2 450 -12z m1109 -1324 c-7 -1502 -16
-1828 -53 -1828 -100 0 -419 422 -459 607 -6 28 -4 33 13 33 26 0 45 25 37 49
-10 32 -69 77 -134 102 -34 13 -61 26 -61 30 0 3 24 11 53 18 61 16 118 43
136 65 11 13 11 20 -3 41 -15 23 -148 95 -177 95 -27 0 7 18 65 34 129 37 143
136 20 136 -57 0 -74 8 -74 35 0 26 35 55 89 74 46 15 71 39 71 66 0 34 -24
47 -93 54 -54 5 -62 9 -65 27 -4 25 33 55 89 73 20 6 45 21 57 32 47 44 15 89
-91 128 -36 14 -64 28 -62 32 3 4 21 10 42 14 58 11 112 42 119 69 14 58 -17
86 -99 86 -84 0 -70 54 22 85 65 21 91 42 91 70 0 36 -35 53 -117 57 -40 2
-73 5 -73 8 0 3 28 23 61 45 68 45 142 120 136 138 -7 23 -53 37 -124 37 -40
0 -73 3 -72 8 0 4 50 45 110 91 l111 85 -74 21 c-40 12 -85 29 -100 39 -50 33
-27 76 40 76 100 0 143 77 69 124 -12 8 -52 16 -89 18 -38 1 -68 5 -68 8 0 3
20 18 45 33 75 48 145 116 145 143 0 28 -26 44 -73 44 -43 0 -94 17 -100 35
-9 21 33 52 93 69 78 22 199 33 389 35 l164 1 -6 -1342z m-1714 1281 c51 -45
72 -79 49 -79 -11 0 -78 66 -104 103 -30 42 -8 32 55 -24z m958 -179 c37 -20
18 -80 -26 -80 -42 0 -59 44 -29 74 18 19 28 20 55 6z m-87 -2636 c22 -21 20
-60 -3 -83 -42 -42 -182 -34 -196 10 -9 26 27 66 69 78 51 15 113 13 130 -5z
m320 0 c9 -8 16 -29 16 -44 0 -44 -39 -65 -117 -65 -51 0 -66 4 -85 22 l-22
23 20 27 c36 48 154 71 188 37z"/>
<path d="M9199 5914 c-78 -75 -143 -153 -135 -161 7 -8 129 109 178 170 48 60
25 55 -43 -9z"/>
<path d="M7501 5914 c-48 -52 -61 -74 -43 -74 17 1 112 104 112 122 0 19 -21
4 -69 -48z"/>
<path d="M8752 5146 c-65 -70 -78 -108 -24 -70 25 17 82 91 82 106 0 18 -19 6
-58 -36z"/>
<path d="M7794 5655 c-70 -69 -125 -128 -121 -131 3 -3 19 3 34 15 40 31 233
224 233 233 0 21 -30 -2 -146 -117z"/>
<path d="M7788 5331 c-57 -52 -115 -127 -105 -137 3 -3 34 23 69 58 108 105
138 172 36 79z"/>
<path d="M7986 4750 c-37 -33 -82 -97 -73 -106 8 -8 74 54 98 92 29 47 19 52
-25 14z"/>
<path d="M8696 4538 c-48 -55 -61 -87 -28 -69 21 12 64 57 87 94 31 49 -9 32
-59 -25z"/>
<path d="M6238 8084 c-17 -18 -57 -35 -122 -54 -118 -34 -142 -49 -150 -92
-12 -64 -26 -418 -36 -888 -17 -836 -9 -1516 20 -1585 19 -43 25 -444 11 -603
-8 -78 -19 -142 -31 -167 -38 -83 -60 -573 -59 -1270 1 -514 5 -550 57 -577
32 -15 33 -17 14 -27 -13 -7 -24 -29 -32 -63 -40 -185 -33 -1286 11 -1733 23
-232 62 -419 110 -532 11 -26 51 -88 90 -139 39 -50 83 -116 98 -145 15 -29
31 -54 36 -56 6 -2 22 21 37 50 16 28 62 94 103 145 41 51 86 112 99 135 44
75 94 244 115 392 38 264 43 389 48 1162 l5 762 -23 6 c-13 2 -58 6 -99 7
l-75 3 60 13 c33 8 70 20 82 28 45 29 48 76 48 849 -1 764 -8 935 -45 1017
-50 114 -53 610 -4 714 8 17 19 88 24 160 18 243 32 1079 27 1564 -9 793 -26
858 -220 859 -69 1 -111 20 -132 61 -19 37 -33 38 -67 4z m265 -268 c37 -7 70
-15 72 -18 5 -5 2 -167 -25 -1198 -5 -206 -12 -519 -16 -695 -5 -274 -9 -322
-22 -332 -10 -8 -49 -13 -107 -13 l-92 0 -6 263 c-9 339 -9 1845 0 1926 5 51
10 64 27 71 31 13 91 11 169 -4z m-269 -98 c3 -51 8 -558 12 -1125 l6 -1033
-116 0 -116 0 0 1125 0 1125 104 0 104 0 6 -92z m-34 -2258 c34 -18 42 -68 47
-310 6 -260 -6 -411 -33 -441 -12 -13 -31 -19 -60 -19 -67 0 -76 21 -86 203
-7 145 -3 403 8 495 3 24 14 52 25 63 20 20 69 25 99 9z m230 0 c30 -16 39
-71 46 -265 7 -224 -6 -444 -30 -480 -38 -58 -78 -16 -96 102 -13 86 -25 536
-16 586 11 60 49 82 96 57z m-269 -870 c65 -13 99 -41 79 -65 -7 -9 -26 -23
-41 -31 -76 -39 -122 -314 -139 -839 -19 -586 -49 -726 -69 -327 -6 103 -13
431 -16 730 l-6 542 69 0 c38 0 93 -5 123 -10z m405 -777 c-3 -434 -9 -806
-13 -828 l-7 -40 -7 45 c-4 25 -13 311 -19 635 -12 639 -16 679 -70 792 -21
46 -39 69 -69 88 -84 52 -31 91 128 94 l64 1 -7 -787z m-172 485 c41 -230 64
-1313 28 -1375 -19 -34 -40 -28 -52 15 -24 78 -34 544 -22 940 12 378 18 452
32 452 4 0 10 -15 14 -32z m-167 -105 c4 -43 8 -334 8 -648 0 -515 -2 -574
-17 -607 -13 -29 -23 -38 -42 -38 -46 0 -51 26 -50 250 2 269 38 894 58 1020
3 14 7 42 11 63 10 60 23 43 32 -40z m-31 -1441 c48 -32 57 -219 44 -977 -12
-767 -29 -1104 -61 -1273 -13 -66 -27 -63 -56 9 -30 74 -50 211 -62 410 -8
135 -15 181 -37 245 l-26 79 6 250 c3 138 14 399 25 580 12 182 25 399 30 483
9 157 15 176 56 192 25 11 67 12 81 2z m267 -17 c35 -34 62 -438 73 -1070 8
-480 -4 -729 -45 -885 -42 -163 -79 -252 -144 -350 l-57 -85 0 108 c0 328 22
1639 30 1857 11 257 21 366 40 414 8 22 16 26 49 26 22 0 46 -7 54 -15z"/>
<path d="M11956 8079 c-110 -27 -149 -113 -177 -384 -7 -70 -14 -610 -19
-1480 -9 -1500 -10 -1508 -68 -1521 -78 -16 -97 -28 -105 -69 -19 -91 -29
-117 -59 -151 -60 -68 -45 -198 46 -406 24 -57 51 -127 59 -155 28 -93 40
-283 33 -503 -8 -249 -21 -373 -46 -422 -30 -57 -44 -264 -36 -518 6 -234 15
-300 41 -315 47 -27 133 -97 263 -213 l143 -127 -5 -140 c-3 -77 -9 -333 -12
-570 -7 -468 -3 -541 42 -632 29 -60 148 -193 173 -193 32 0 152 145 190 230
26 57 26 118 1 255 -22 121 -25 209 -9 252 22 57 30 145 39 423 13 410 16 422
220 830 l121 241 2 1017 c2 1079 1 1118 -44 1154 -11 9 -24 32 -29 49 -24 84
-32 410 -40 1659 -6 848 -13 1352 -20 1400 -23 163 -57 237 -124 273 -39 21
-55 22 -291 24 -137 1 -267 -2 -289 -8z m400 -219 c21 -18 32 -72 46 -216 18
-186 18 -1918 1 -1935 -10 -10 -31 6 -104 79 l-92 91 -47 -39 c-26 -22 -53
-47 -60 -55 -20 -24 -85 -55 -115 -55 -31 0 -30 30 -30 -557 0 -416 -1 -454
-17 -470 -25 -25 -36 -9 -48 72 -41 275 -35 2873 6 3060 l7 30 8 -30 c19 -66
30 -390 40 -1125 10 -748 16 -929 31 -885 14 41 28 429 38 1045 5 349 12 708
16 798 7 187 5 184 104 201 68 12 196 6 216 -9z m216 -182 c8 -116 12 -587 12
-1428 1 -1480 -3 -1560 -72 -1560 -59 0 -97 52 -82 111 33 126 40 176 50 364
6 116 15 698 20 1295 9 972 18 1346 36 1404 14 42 25 -17 36 -186z m-326
-1936 c28 -23 58 -71 50 -79 -12 -13 -114 -8 -140 7 -30 15 -33 36 -10 68 19
27 69 29 100 4z m72 -158 c54 -35 70 -152 53 -374 -19 -228 -29 -245 -147
-245 -86 1 -121 20 -141 76 -15 43 -16 179 -2 350 12 148 29 199 69 211 38 11
140 0 168 -18z m-42 -713 c77 -35 105 -102 65 -152 -17 -22 -28 -24 -118 -27
-100 -3 -135 6 -156 39 -16 26 1 86 37 124 29 31 39 35 82 35 27 0 67 -9 90
-19z m11 -297 l51 -7 7 -121 c4 -66 7 -165 8 -219 2 -94 1 -100 -23 -119 -22
-18 -36 -20 -108 -16 -142 8 -174 53 -153 219 19 159 -3 181 -203 199 -122 12
-166 22 -166 40 0 5 10 12 23 14 12 3 31 7 42 9 32 7 465 7 522 1z m380 -19
c12 -8 26 -30 32 -48 10 -32 31 -283 31 -371 l0 -46 -154 0 -154 0 4 143 c11
333 12 337 141 337 54 0 85 -5 100 -15z m-690 -167 c14 -11 17 -56 5 -74 -16
-25 -57 -35 -140 -35 -94 -1 -162 18 -162 45 0 34 59 60 180 80 36 6 102 -3
117 -16z m-72 -265 c36 -6 38 -7 15 -14 -33 -9 -139 -11 -181 -2 -33 7 -33 7
-9 14 33 9 125 10 175 2z m21 -144 c59 -18 59 -19 62 -526 l3 -463 -115 0
-116 0 0 504 0 504 68 -5 c37 -3 81 -9 98 -14z m355 1 c23 -13 45 -54 59 -111
6 -24 15 -174 20 -334 8 -257 20 -388 35 -403 22 -23 35 106 35 368 1 273 11
407 35 443 19 30 62 47 116 47 33 0 38 -3 43 -27 9 -47 25 -326 31 -543 3
-113 8 -256 11 -317 l6 -113 -95 0 c-113 0 -149 10 -147 43 4 38 0 47 -17 47
-20 0 -53 -28 -53 -46 0 -32 -242 -66 -270 -38 -7 7 -11 154 -13 455 -2 398 0
448 15 481 12 27 26 40 50 47 45 13 115 13 139 1z m58 -1112 c12 -7 21 -23 21
-35 0 -27 22 -30 41 -7 37 44 160 77 244 64 66 -10 80 -28 80 -103 0 -89 -22
-122 -117 -173 -42 -23 -100 -60 -129 -83 -28 -22 -56 -41 -62 -41 -6 0 -7 21
-3 58 17 143 18 177 4 195 -17 23 -46 13 -54 -18 -16 -64 -266 -103 -281 -44
-7 25 -50 36 -69 18 -7 -8 -18 -38 -23 -66 -13 -65 -55 -150 -116 -230 -79
-105 -140 -132 -169 -74 -47 90 -47 411 -1 501 18 35 87 60 166 60 82 0 106
-14 121 -68 23 -80 70 -84 89 -8 6 25 17 51 25 57 34 28 186 26 233 -3z m-65
-304 c9 -3 16 -17 16 -31 0 -29 -68 -168 -141 -290 l-53 -88 -12 75 c-18 111
-16 218 4 260 24 48 75 80 128 80 23 0 49 -3 58 -6z m396 -7 c0 -44 -172 -435
-199 -451 -15 -10 -22 65 -12 120 26 135 140 334 192 334 10 0 19 -2 19 -3z
m-682 -331 c1 -77 -1 -143 -6 -148 -15 -15 -112 142 -112 182 0 26 78 112 99
108 14 -3 16 -25 19 -142z m313 -50 c11 -39 -14 -125 -67 -236 -49 -103 -121
-220 -135 -220 -18 0 -9 129 16 213 32 113 71 192 116 240 42 43 59 44 70 3z
m35 -376 c-46 -132 -267 -533 -250 -455 39 185 166 465 250 550 19 18 19 18
22 -2 2 -11 -8 -53 -22 -93z m24 -277 c0 -60 -174 -403 -249 -493 l-20 -25 -1
28 c-1 82 141 387 218 470 24 25 52 36 52 20z m-15 -385 c-4 -18 -34 -91 -67
-163 -65 -140 -91 -208 -102 -267 -7 -39 -39 -70 -62 -61 -21 8 -17 93 7 165
50 149 176 358 217 358 10 0 12 -8 7 -32z m3 -389 c30 -56 -5 -227 -56 -272
-47 -43 -77 5 -62 98 16 99 35 150 68 188 19 22 33 18 50 -14z"/>
<path d="M657 6694 c-14 -15 7 -24 54 -24 48 0 65 12 33 24 -21 8 -79 8 -87 0z"/>
</g>
</svg>
