<?xml version="1.0" encoding="UTF-8" standalone="no"?>
<!-- Created with Inkscape (http://www.inkscape.org/) -->

<svg
   width="21mm"
   height="21mm"
   viewBox="0 0 21 21"
   version="1.1"
   id="svg1"
   inkscape:version="1.4 (86a8ad7, 2024-10-11)"
   sodipodi:docname="roll.svg"
   xmlns:inkscape="http://www.inkscape.org/namespaces/inkscape"
   xmlns:sodipodi="http://sodipodi.sourceforge.net/DTD/sodipodi-0.dtd"
   xmlns:xlink="http://www.w3.org/1999/xlink"
   xmlns="http://www.w3.org/2000/svg"
   xmlns:svg="http://www.w3.org/2000/svg">
  <sodipodi:namedview
     id="namedview1"
     pagecolor="#ffffff"
     bordercolor="#666666"
     borderopacity="1.0"
     inkscape:showpageshadow="2"
     inkscape:pageopacity="0.0"
     inkscape:pagecheckerboard="0"
     inkscape:deskcolor="#d1d1d1"
     inkscape:document-units="mm"
     inkscape:zoom="4.3274553"
     inkscape:cx="-1.5020375"
     inkscape:cy="73.599836"
     inkscape:window-width="1920"
     inkscape:window-height="1009"
     inkscape:window-x="1912"
     inkscape:window-y="-8"
     inkscape:window-maximized="1"
     inkscape:current-layer="g8" />
  <defs
     id="defs1">
    <linearGradient
       id="linearGradient9"
       inkscape:collect="always">
      <stop
         style="stop-color:#ffa700;stop-opacity:1;"
         offset="0"
         id="stop9" />
      <stop
         style="stop-color:#ff00d8;stop-opacity:1;"
         offset="1"
         id="stop10" />
    </linearGradient>
    <linearGradient
       inkscape:collect="always"
       xlink:href="#linearGradient9"
       id="linearGradient10"
       x1="101.52206"
       y1="156.01352"
       x2="117.20527"
       y2="156.01352"
       gradientUnits="userSpaceOnUse" />
    <filter
       inkscape:collect="always"
       style="color-interpolation-filters:sRGB"
       id="filter12"
       x="-0.03626421"
       y="-0.03364854"
       width="1.0725284"
       height="1.0672971">
      <feGaussianBlur
         inkscape:collect="always"
         stdDeviation="0.27549196"
         id="feGaussianBlur12" />
    </filter>
    <linearGradient
       inkscape:collect="always"
       xlink:href="#linearGradient9"
       id="linearGradient12"
       gradientUnits="userSpaceOnUse"
       x1="101.52206"
       y1="156.01352"
       x2="117.20527"
       y2="156.01352" />
  </defs>
  <g
     inkscape:label="Livello 1"
     inkscape:groupmode="layer"
     id="layer1"
     transform="translate(-101.269,-146.17957)">
    <g
       id="g8"
       transform="translate(1.5080582,0.54684727)">
      <g
         id="g12"
         transform="translate(0.72266234,0.01401751)">
        <path
           id="path12"
           style="mix-blend-mode:normal;fill:#24221c;stroke:none;stroke-width:0.264583px;stroke-linecap:butt;stroke-linejoin:miter;stroke-opacity:1;filter:url(#filter12)"
           d="m 108.55644,146.2939 -8.13432,5.42841 0.8344,9.60411 8.4848,4.61709 6.40293,-3.42778 2.51019,-4.75469 -2.28685,-7.90754 z"
           sodipodi:nodetypes="cccccccc" />
        <path
           id="path11"
           style="fill:#ffffff;stroke:none;stroke-width:0.264583px;stroke-linecap:butt;stroke-linejoin:miter;stroke-opacity:1"
           d="m 108.55644,146.2939 -8.13432,5.42841 0.8344,9.60411 8.4848,4.61709 6.40293,-3.42778 2.51019,-4.75469 -2.28685,-7.90754 z"
           sodipodi:nodetypes="cccccccc" />
        <path
           id="path447"
           style="fill:url(#linearGradient12);stroke:none;stroke-width:0.264583"
           inkscape:label="front"
           d="m 108.69724,147.27163 c -1.39269,1.69564 -3.42666,1.45306 -3.58163,2.26746 0.0892,0.55126 -1.54065,1.14741 -1.90988,1.69963 -0.26898,0.48925 -1.26035,1.42265 -1.58118,1.03038 0.53767,0.78322 -0.15255,2.09998 0.34806,2.6682 -0.15959,1.36105 0.16862,2.80031 0.0467,3.11868 0.12012,1.36706 -0.24677,1.00233 0.22181,2.12999 0.2815,1.72709 1.1584,1.46697 1.52899,1.76838 1.57202,0.19679 1.47014,1.92661 2.74462,1.22647 0.97327,0.83831 1.54071,1.73368 2.83872,1.42362 0.44938,0.2198 0.52949,0.0342 0.83163,0.15097 0.61633,-0.37556 1.40104,-0.4942 1.12527,-0.64594 -0.0271,0.005 0.30891,-0.6456 1.18459,-0.34752 0.35735,-0.62577 1.11529,-1.47586 2.61453,-1.88419 -0.14777,-0.93837 1.26036,-2.62364 1.92031,-3.35756 -0.49694,-0.40902 0.24932,-0.44857 -0.18708,-1.26164 0.63749,0.20405 0.30302,-0.6718 -0.009,-1.29719 -0.0178,-2.1293 0.5467,-2.6775 -0.36147,-3.28726 -0.53182,0.71282 -0.30303,-2.68772 -1.79821,-2.17961 -0.92565,-0.42068 -0.78944,-0.95264 -1.83376,-0.93479 -0.41701,-1.03569 -1.36825,-0.46296 -2.3867,-1.11357 -0.18496,-1.07884 -1.7459,-0.19909 -1.75677,-1.17451 z m -6.97993,5.03897 c 0.0812,0.0719 0.35137,-0.0285 0,0 z m 7.15305,-3.20239 c 0.47117,0.0557 0.12199,0.70617 0,0 z m 0.55604,0.11731 c 0.46217,0.18953 -0.40258,0.4523 0,0 z m -3.65198,0.0124 c 0.0573,0.37214 0.13742,0.003 0,0 z m 7.7277,0.0284 -0.0181,0.004 z m -3.6649,0.045 c 0.60716,-0.0158 0.0858,0.17074 0,0 z m 0.28009,0.24546 c 0.68161,1.225 1.86649,0.40688 2.15756,0.26941 0.74989,0.39075 0.41826,0.1042 -0.46407,0.31617 0.27616,1.47741 3.15877,1.57999 2.56425,2.35904 -0.38455,-0.003 -1.20193,0.31979 -1.87153,-0.0446 -0.63758,-0.20523 -0.62075,-0.22697 -1.00344,-0.49747 -0.16237,-0.29071 -0.91395,-0.52798 -1.60973,-0.7855 -0.19131,-0.32137 -2.1613,-0.62853 -0.95274,-0.84318 -1.03162,-0.0711 0.19814,-1.22157 0.4654,-0.32772 0.81836,0.10066 0.47537,-0.0998 0.7143,-0.44614 z m -0.77618,0.0134 c 0.24519,0.32413 -0.18505,0.087 0,0 z m -1.42007,0.0946 c 0.0367,0.96355 -0.82321,0.39265 -0.98607,1.84714 -0.76392,0.26567 0.0752,0.93201 -1.28404,0.89689 0.20928,0.48954 -0.25929,1.40272 -1.1732,1.06042 0.99297,0.40642 -0.50809,1.29196 -1.48501,1.11883 0.0165,-0.5899 0.8331,-1.86535 1.91414,-2.16609 0.233,-1.25845 2.59787,-0.82384 1.63966,-2.11248 0.36493,-0.62235 1.00342,-0.40598 1.37452,-0.64471 z m 4.4111,0.17311 c 0.19063,-0.0704 0.0201,0.16574 0,0 z m 1.60662,0.0522 c 0.25552,0.3895 -0.43622,0.10494 0,0 z m -5.61154,0.27285 c 0.27334,0.3554 -0.43458,0.0433 0,0 z m -1.81746,0.0553 c 0.12819,0.16899 -0.20351,0.018 0,0 z m 1.34979,0.0703 c 0.30512,-0.0117 -0.1664,0.28439 0,0 z m 4.97592,0.015 c 0.13777,0.20068 -0.20116,0.0834 0,0 z m -4.6514,0.01 c 0.2224,-0.041 -0.009,0.15676 0,0 z m -0.007,0.0455 c 0.19914,0.009 -0.0246,0.25306 0,0 z m 0.15813,0.061 c 0.0224,0.003 -0.0386,0.0614 0,0 z m 4.92786,0.16795 c 1.13912,1.00113 -0.65997,0.006 0,0 z m -9.30279,0.0119 -0.015,0.0868 z m 8.69146,0.062 c 0.20976,0.38498 -0.49808,0.12111 0,0 z m 3.43493,0.0305 c -0.15677,-0.005 0.0691,0.38693 0,0 z m -10.26914,0.11783 c 0.0165,0.0941 -0.0993,0.0614 0,0 z m 1.67173,0.03 c 0.5038,0.0733 -0.33824,0.2334 0,0 z m 8.45013,0.0114 c -0.20993,0.1732 0.27499,-0.002 0,0 z m -6.74997,0.0661 c 0.0131,0.0644 -0.082,0.004 0,0 z m 6.97011,0.0274 0.0258,0.0548 z m -8.41188,0.008 c 0.0321,0.0748 -0.18895,0.12639 0,0 z m 0.93741,0.0258 c 0.32046,0.52734 0.97364,0.40118 1.32132,0.92735 0.63712,0.0356 1.21706,0.44608 1.83363,0.94191 -0.0539,-0.14927 1.47576,0.37105 0.57366,0.81615 -0.0724,0.85363 0.007,1.36454 -0.3062,2.23995 -0.55364,0.95686 0.28386,0.35047 -0.55881,2.06771 -0.88495,0.001 -0.80355,0.41242 -2.06875,0.60878 -1.45066,0.0889 -2.09112,0.90383 -2.81965,-0.45479 -0.34201,-1.09124 -0.88176,-0.89115 -1.03566,-2.13565 -0.70421,-0.62589 -0.67939,-1.79584 -0.049,-1.99684 0.18938,-0.13692 -0.11468,-0.24195 0.42597,-0.8727 1.0002,-0.97312 0.71051,-0.90029 1.75581,-1.70261 -0.65517,-0.38231 0.97733,-0.34758 0.92764,-0.43926 z m -0.37621,0.0367 c -0.0487,10e-4 -0.13076,0.1103 0,0 z m -2.53731,2.49442 c -0.007,6e-4 -0.009,0.015 0,0 z m 6.33605,2.39417 c 0.19197,-0.23637 -0.72265,-0.14349 0,0 z m 1.19527,-4.82244 c 0.51366,0.49389 -0.22072,0.0815 0,0 z m -3.63182,0.008 c 0.0902,0.18573 -0.14529,0.0823 0,0 z m -0.72088,0.0238 c 0.17873,0.0254 -0.24307,0.14801 0,0 z m 4.91546,0.0548 c 0.65909,0.71284 -0.36526,0.22873 0,0 z m -8.78758,0.0269 c -0.0115,0.23495 -0.15122,0.0642 0,0 z m 4.28759,0.12867 c 0.0441,-0.0132 0.0133,0.0833 0,0 z m 0.88212,0.0506 c 0.14591,-0.0195 0.008,0.12315 0,0 z m -6.8926,0.0222 c 0.1971,0.12585 -0.031,0.0514 0,0 z m 4.19251,0.0129 c 0.0243,0.24295 -0.43181,-0.0264 0,0 z m -1.17099,0.24339 c 0.32665,0.35699 0.33203,0.10859 0,0 z m 0.24391,0.24334 c 0.33097,0.0489 -0.1879,0.35907 0,0 z m 8.58191,0.25477 c 0.0833,0.23121 0.41304,0.36783 -0.0456,0.0977 l 0.0465,-0.0966 z m 0.0382,0.17673 c 0.0358,-0.0359 -0.03,-0.0126 0,0 z m -10.89804,-0.11782 c 0.2989,0.19761 -0.0388,0.0994 0,0 z m 3.94446,0.0114 c -1.05004,0.86273 0.2996,0.44295 -1.11275,0.93123 -1.44853,0.17123 -0.36575,1.89872 -0.59728,2.91685 1.28113,0.70792 1.42068,1.49589 2.55802,1.81051 0.95965,0.25611 1.17925,-0.53614 1.20702,-1.45104 0.98395,-0.007 1.35428,-0.95574 1.02017,-1.89033 -0.37002,-2.18688 -1.61325,-1.76976 -3.07518,-2.31722 z m -1.82883,0.007 c 0.0162,0.0117 -0.0276,0.0295 0,0 z m 8.58759,0.009 c 0.19354,0.15365 0.0422,0.47224 0,0 z m 0.1049,0.0382 c 0.0994,-0.002 -0.0344,0.0455 0,0 z m -8.78086,0.11369 c -0.039,0.10618 -0.22818,0.0769 0,0 z m 8.07858,0.23719 c 0.21101,0.17833 -0.15529,0.30912 0,0 z m -0.32505,0.0837 c 0.15132,0.25476 0.0284,0.0926 0,0 z m -5.31337,0.0248 c 0.25137,0.0262 -0.29255,0.23789 0,0 z m 6.92981,0.0563 c 0.10309,0.16131 -0.34392,0.0538 0,0 z m -2.63808,0.0253 c -0.04,0.20182 -0.54223,-0.15677 0,0 z m -7.24607,0.03 c 0.1888,0.28175 -0.48351,0.26822 0,0 z m 9.19117,0.003 c -0.94779,0.80816 0.41833,2.7761 0.54103,3.23352 0.42346,1.29311 1.33825,1.12792 0.21374,1.97798 -0.33962,1.75788 -1.40204,1.10969 -2.23124,0.96492 0.13608,0.31321 -0.84993,-0.74915 -0.95713,-0.87632 -0.21167,-0.82184 0.158,-1.29236 -0.0431,-1.86632 0.64281,-1.22064 0.21533,-2.16149 0.86512,-3.04181 1.0527,-0.80538 1.04725,0.54136 1.56702,-0.38688 l 0.0439,-0.005 z m 1.12861,4.5403 c 0.17711,-0.11855 -0.17485,-0.10218 0,0 z m -0.39274,-4.51807 c 0.27089,0.53521 -0.12601,0.071 0,0 z m -2.41277,0.19688 c 0.006,0.0169 -0.0273,-0.008 0,0 z m -0.29404,0.26975 c -0.0159,0.0114 -0.0555,0.0243 0,0 z m 1.98799,0.0346 c 0.19318,-0.0104 0.11023,0.31086 0,0 z m 0.89762,0.25011 c 0.16343,0.16474 -0.41136,0.21304 0,0 z m 0.0393,0.16588 c 0.10601,0.10695 -0.16159,0.0477 0,0 z m -8.35918,0.29611 c 1.46383,0.0952 0.41848,0.34683 0.62772,0.89804 -1.39444,-0.22405 -0.0238,-0.47478 -0.76216,-0.7352 0.17583,0.18728 0.28102,-0.12124 0.13444,-0.16284 z m 8.43824,0.0382 c 0.0576,0.15454 -0.47099,0.30191 0,0 z m -0.4346,0.0258 c 0.18873,0.84363 -0.53117,0.83678 0,0 z m 0.45166,0.0481 c 0.54667,0.56923 -1.14202,-9.3e-4 0,0 z m -6.37533,0.002 c 2.1367,0.18082 -0.96421,1.38915 0,0 z m -1.45417,0.0238 c -0.20109,0.0576 0.2803,10e-4 0,0 z m -3.13107,0.0315 c 0.0193,0.0234 -0.0127,0.0131 0,0 z m 7.5985,0.0734 c 0.0919,0.26303 -0.48179,-0.0405 0,0 z m -4.8519,0.12144 c -0.0201,0.005 0.0284,0.0108 0,0 z m -3.65094,0.0129 c 0.29188,0.0129 -0.11232,0.0911 0,0 z m -0.17674,0.008 c 0.42725,-0.0991 -0.21902,0.36018 0,0 z m 3.7667,0.0181 c -0.19203,0.0841 0.24478,0.13458 0,0 z m 0.0961,0.11163 c -0.21364,0.0101 0.0775,0.15415 0,0 z m -0.0315,0.0713 c -0.0599,0.0256 0.0528,0.0129 0,0 z m -0.016,0.0139 c -0.13743,-0.0359 -0.0128,0.0606 0,0 z m 0.0367,-0.16226 c 0.11692,0.10498 0.0855,0.005 0,0 z m -0.14935,0.0196 c -0.0579,-0.0167 0.0186,0.0526 0,0 z m 4.13773,0.16847 c 0.0986,0.17912 0.3949,0.0139 0,0 z m 3.56826,0.0336 c 0.80458,-0.0996 1.50124,1.3306 0,0 z m -11.92434,0.0279 c 0.25982,-0.0232 0.23145,0.39112 0,0 z m 9.22786,0.33697 c 0.10491,0.0695 -0.15657,0.24967 0,0 z m -5.97793,0.0413 c 0.10938,0.0289 0.0287,0.16207 0,0 z m -3.1228,0.0269 c 0.0159,0.44769 -0.18579,-0.059 0,0 z m 0.52451,0.11937 c 0.30835,1.4825 1.73526,1.57939 1.47831,2.40086 0.16346,0.96595 2.04684,1.42882 0.92373,2.07828 0.1599,0.0884 -0.97836,2.01065 -1.62128,1.48282 -0.0842,-0.93518 -0.75868,-0.7688 -0.79423,-1.10318 -0.48571,-0.73132 -1.15706,-1.22752 -1.30087,-1.81485 0.4693,-1.32417 -0.56566,-2.60814 0.95079,-2.97079 l 0.36328,-0.0734 z m 0.10801,5.2e-4 c 0.0571,-0.0339 0.008,0.0906 0,0 z m -1.70119,0.0563 c 0.018,-0.0183 0.0312,0.0324 0,0 z m 4.24832,0.15917 c 0.1358,0.0981 -0.0359,0.12332 0,0 z m 4.28346,0.1695 c 0.23813,0.3302 -0.31005,-0.004 0,0 z m -1.46968,0.6289 c 0.0562,0.10906 -0.27653,0.25987 0,0 z m 6.73757,0.10955 c 0.86566,0.083 0.26884,0.78063 0,0 z m -13.9764,0.0315 c 1.22499,0.0952 -0.65781,0.53556 0,0 z m 7.10189,0.0853 c -0.0979,0.30513 -0.0846,0.0152 0,0 z m -0.0884,0.0108 c 0.0776,0.0989 -0.16139,0.0546 0,0 z m 0.0202,0.0434 c 0.031,0.0723 -0.0323,7.4e-4 0,0 z m -7.93233,0.0889 c -0.0102,0.0312 0.0996,-0.012 0,0 z m 10.23917,0.12557 c 0.0159,0.077 0.10295,0.0841 0,0 z m -1.91771,0.13798 c 0.077,0.006 -0.0467,0.044 0,0 z m -7.42229,0.20463 c 0.43711,0.21486 -0.34275,0.25838 0,0 z m 14.26786,0.0124 c 0.2923,0.0727 -0.13873,0.39511 0,0 z m -6.61613,0.003 c -0.0516,0.10664 -0.0347,-0.0101 0,0 z m -0.11575,0.10335 c -0.20888,0.15834 -0.50652,0.0812 0,0 z m -0.65629,0.0682 c 0.12208,0.27642 -0.10512,-0.007 -0.29149,0.0835 0.0103,0.0352 0.21385,-0.24647 0.29149,-0.0835 z m 0.5705,0.11472 c 0.3263,0.30791 -0.51447,0.13229 0,0 z m -0.25528,0.0243 c 0.0144,0.0342 -0.0382,-0.0116 0,0 z m 7.46104,0.0289 c -0.27764,0.1275 0.2159,0.0648 0,0 z m -0.46095,0.19999 c 0.0485,0.18303 -0.10477,0.0575 0,0 z m 0.49609,0.0992 c -9.7e-4,0.003 0.002,-6.5e-4 0,0 z m 0,0.001 c -0.0245,0.0161 0.0183,0.0169 0,0 z m -0.63148,0.1354 c 0.0776,-0.004 -0.0842,0.0922 0,0 z m -10.10688,0.11937 c 0.0773,0.15273 -0.78761,0.12053 0,0 z m 5.86114,0.0693 c 0.0781,0.10307 -0.13224,-0.0131 0,0 z m -1.23971,0.0165 c 0.19684,-0.0561 0.0247,0.1983 0,0 z m -7.9375,0.11059 c -0.0357,0.009 -0.0599,0.10327 0,0 z m 9.37875,0.0615 c -0.0315,0.10814 -0.0646,-0.0212 0,0 z m -1.40715,0.0413 c 0.16459,0.36495 -0.51332,-0.10933 0,0 z m 0.41031,0.0703 c 1.85281,1.04594 1.35853,0.0121 2.35383,1.95879 -0.18493,0.83476 -0.13894,0.88779 -1.09535,1.58599 -1.11602,-0.80609 -0.65221,2.08088 -2.25859,1.13498 -0.53795,0.56698 -2.17841,-0.90482 -2.45832,-0.4002 -0.41887,-0.31759 -1.81898,-0.67277 -1.43189,-1.50222 0.3165,-0.81929 0.67531,-0.56407 0.94964,-1.83788 1.01981,1.2734 1.08125,-1.12508 1.25169,-0.16338 -0.82693,-0.11997 1.39828,0.85557 1.12278,0.0121 0.95873,-0.0563 1.38971,-0.47522 1.56621,-0.7882 z m -0.5581,0.13537 c 0.38054,-0.0522 -0.0802,0.16864 0,0 z m -4.07934,0.1235 c 0.0747,0.0279 -0.086,0.10826 0,0 z m 0.12144,0.17829 c 0.34902,0.21534 -0.18122,0.13844 0,0 z m 3.25717,0.005 c 0.0286,0.19058 -0.10708,-0.0329 0,0 z m -1.23662,0.0264 c 0.46548,0.35093 -0.48911,0.45664 0,0 z m -1.75958,5.2e-4 c 0.24382,-0.053 0.0202,0.305 0,0 z m 1.89394,0.004 c 0.22435,0.0116 -0.002,0.43622 0,0 z m -2.44792,0.0563 c -0.6413,0.0821 0.50841,0.19939 0,0 z m 6.78667,0.01 c 0.0585,0.0353 0.21321,0.0797 0,0 z m -4.6054,0.11162 c 0.2404,0.1689 -0.21815,0.17651 0,0 z m 4.73097,0.0827 c 0.0181,0.0522 -0.0368,0.008 0,0 z m 1.96526,0.0165 c 0.24858,0.008 -0.0111,0.10211 0,0 z m -12.24215,0.19327 c -0.0756,0.16785 -0.12386,0.0881 0,0 z m 12.73979,0.0884 c 0.3143,0.49903 -0.0748,0.0755 0,0 z m -12.83746,0.0424 c -0.0592,0.0874 -0.0314,0.005 0,0 z m -0.2992,0.13436 c 0.0458,0.002 -0.0122,0.0269 0,0 z m 0.0785,0.35605 c 2.3e-4,0.0193 -0.0114,-0.005 0,0 z m 11.84528,0.16795 c 0.19033,0.004 -0.10428,0.10665 0,0 z m 0.10748,0.0465 c 0.16737,0.009 -0.28722,0.32302 0,0 z m -11.29233,0.049 c 0.54688,0.0792 -0.5625,0.4983 0,0 z m 2.69286,0.22428 c 0.41024,0.20734 -0.28664,0.0758 0,0 z m 8.38243,0.19688 c 0.007,0.62126 0.0241,0.21466 0,0 z m -8.27805,0.015 c 0.33429,-0.0599 -0.24146,0.67474 0,0 z m -1.9761,0.0413 c -0.26307,0.845 -0.69766,-0.11703 0,0 z m 9.49602,0.42327 c 0.12526,0.0869 -0.11291,0.0671 0,0 z m -9.6759,0.0636 c 0.0125,0.0831 -0.0863,0.036 0,0 z m 1.45263,0.13178 c 0.13592,0.21816 -0.0917,0.13297 0,0 z m 8.20983,0.0749 c 0.17549,0.37885 -0.34934,0.0694 0,0 z m -9.37255,0.10128 c 0.55718,-0.19209 0.0545,0.29309 0,0 z m 10.57713,0.32195 c -0.0151,0.0485 0.0203,0.0114 0,0 z m 0,0.0233 c -0.0342,-0.002 0.021,0.043 0,0 z m -8.34264,0.3349 c 0.0298,-0.007 -0.011,0.0106 0,0 z m 0.34726,0.47697 c 0.29684,0.15771 -0.18912,-4.7e-4 0,0 z m -1.98489,0.22479 c -0.35283,0.17925 0.32242,0.38152 0,0 z m 6.68487,0.0114 c 0.17213,0.41132 -0.62619,-0.0184 0,0 z m -4.64055,0.16175 c 0.39307,0.11912 -0.17686,0.1538 0,0 z m 0.19275,0.0176 c 0.0773,0.0239 -0.0682,0.12153 0,0 z m 0.58446,0.0718 c 0.31431,0.11062 -0.3093,0.21566 0,0 z m 0.67077,0.0599 c 0.56856,0.18499 -0.58178,0.28276 0,0 z m 0.17776,0.0801 c 0.19985,0.28002 -0.41657,0.25432 0,0 z m -0.40617,0.0176 c 0.049,0.0649 -0.15514,0.003 0,0 z m 2.04742,0.1478 c -0.0811,0.12362 -0.28631,0.12963 0,0 z m -0.16382,0.0951 c 0.008,0.11307 -0.0843,0.0431 0,0 z m -1.10846,0.46137 c 0.02,-0.006 0.007,0.0255 0,0 z m 1.40922,0 c 0.0299,0.0162 0.0246,0.0435 0,0 z m 0.50126,0.0636 c 0.18182,0.21345 -0.22772,0.17932 0,0 z m -0.40928,0.032 c 0.014,0.0106 -9.4e-4,0.005 0,0 z m -0.0703,0.12919 c 0.19985,-0.04 -0.0209,0.12425 0,0 z m 0.25838,0.0176 c 0.0899,0.085 -0.0424,0.034 0,0 z m 0.0419,0.0424 c 0.0292,0.0455 -0.036,0.007 0,0 z m -1.19372,0.14728 c 0.37636,0.41542 -0.29391,-0.0657 0,0 z"
           sodipodi:nodetypes="ccccccccccccccccccccccccccccccccccccsccccccccssccccccccccccccccccccccccccccccccccccccccccccccccccsccccccccccccscccccccccccccccccccccccccccccccccccccccccccccccccccccccccccccccccccccccccccccccccccccccccccccccccccccccccccccccccccccccccccccccccccccccccccccccccccccccccccccccccccccccccccccccccccccccccccccccccccccccccccccccsccccccccsscccccccccccccccccccccccccccccccccccccccccccccccccccccccccccccccccccccccccccccccccccccccccccccccccccccc" />
        <path
           id="path10"
           style="fill:url(#linearGradient10);stroke:none;stroke-width:0.264583"
           inkscape:label="front"
           d="m 108.69724,147.27163 c -1.39269,1.69564 -3.42666,1.45306 -3.58163,2.26746 0.0892,0.55126 -1.54065,1.14741 -1.90988,1.69963 -0.26898,0.48925 -1.26035,1.42265 -1.58118,1.03038 0.53767,0.78322 -0.15255,2.09998 0.34806,2.6682 -0.15959,1.36105 0.16862,2.80031 0.0467,3.11868 0.12012,1.36706 -0.24677,1.00233 0.22181,2.12999 0.2815,1.72709 1.1584,1.46697 1.52899,1.76838 1.57202,0.19679 1.47014,1.92661 2.74462,1.22647 0.97327,0.83831 1.54071,1.73368 2.83872,1.42362 0.44938,0.2198 0.52949,0.0342 0.83163,0.15097 0.61633,-0.37556 1.40104,-0.4942 1.12527,-0.64594 -0.0271,0.005 0.30891,-0.6456 1.18459,-0.34752 0.35735,-0.62577 1.11529,-1.47586 2.61453,-1.88419 -0.14777,-0.93837 1.26036,-2.62364 1.92031,-3.35756 -0.49694,-0.40902 0.24932,-0.44857 -0.18708,-1.26164 0.63749,0.20405 0.30302,-0.6718 -0.009,-1.29719 -0.0178,-2.1293 0.5467,-2.6775 -0.36147,-3.28726 -0.53182,0.71282 -0.30303,-2.68772 -1.79821,-2.17961 -0.92565,-0.42068 -0.78944,-0.95264 -1.83376,-0.93479 -0.41701,-1.03569 -1.36825,-0.46296 -2.3867,-1.11357 -0.18496,-1.07884 -1.7459,-0.19909 -1.75677,-1.17451 z m -6.97993,5.03897 c 0.0812,0.0719 0.35137,-0.0285 0,0 z m 7.15305,-3.20239 c 0.47117,0.0557 0.12199,0.70617 0,0 z m 0.55604,0.11731 c 0.46217,0.18953 -0.40258,0.4523 0,0 z m -3.65198,0.0124 c 0.0573,0.37214 0.13742,0.003 0,0 z m 7.7277,0.0284 -0.0181,0.004 z m -3.6649,0.045 c 0.60716,-0.0158 0.0858,0.17074 0,0 z m 0.28009,0.24546 c 0.68161,1.225 1.86649,0.40688 2.15756,0.26941 0.74989,0.39075 0.41826,0.1042 -0.46407,0.31617 0.27616,1.47741 3.15877,1.57999 2.56425,2.35904 -0.38455,-0.003 -1.20193,0.31979 -1.87153,-0.0446 -0.63758,-0.20523 -0.62075,-0.22697 -1.00344,-0.49747 -0.16237,-0.29071 -0.91395,-0.52798 -1.60973,-0.7855 -0.19131,-0.32137 -2.1613,-0.62853 -0.95274,-0.84318 -1.03162,-0.0711 0.19814,-1.22157 0.4654,-0.32772 0.81836,0.10066 0.47537,-0.0998 0.7143,-0.44614 z m -0.77618,0.0134 c 0.24519,0.32413 -0.18505,0.087 0,0 z m -1.42007,0.0946 c 0.0367,0.96355 -0.82321,0.39265 -0.98607,1.84714 -0.76392,0.26567 0.0752,0.93201 -1.28404,0.89689 0.20928,0.48954 -0.25929,1.40272 -1.1732,1.06042 0.99297,0.40642 -0.50809,1.29196 -1.48501,1.11883 0.0165,-0.5899 0.8331,-1.86535 1.91414,-2.16609 0.233,-1.25845 2.59787,-0.82384 1.63966,-2.11248 0.36493,-0.62235 1.00342,-0.40598 1.37452,-0.64471 z m 4.4111,0.17311 c 0.19063,-0.0704 0.0201,0.16574 0,0 z m 1.60662,0.0522 c 0.25552,0.3895 -0.43622,0.10494 0,0 z m -5.61154,0.27285 c 0.27334,0.3554 -0.43458,0.0433 0,0 z m -1.81746,0.0553 c 0.12819,0.16899 -0.20351,0.018 0,0 z m 1.34979,0.0703 c 0.30512,-0.0117 -0.1664,0.28439 0,0 z m 4.97592,0.015 c 0.13777,0.20068 -0.20116,0.0834 0,0 z m -4.6514,0.01 c 0.2224,-0.041 -0.009,0.15676 0,0 z m -0.007,0.0455 c 0.19914,0.009 -0.0246,0.25306 0,0 z m 0.15813,0.061 c 0.0224,0.003 -0.0386,0.0614 0,0 z m 4.92786,0.16795 c 1.13912,1.00113 -0.65997,0.006 0,0 z m -9.30279,0.0119 -0.015,0.0868 z m 8.69146,0.062 c 0.20976,0.38498 -0.49808,0.12111 0,0 z m 3.43493,0.0305 c -0.15677,-0.005 0.0691,0.38693 0,0 z m -10.26914,0.11783 c 0.0165,0.0941 -0.0993,0.0614 0,0 z m 1.67173,0.03 c 0.5038,0.0733 -0.33824,0.2334 0,0 z m 8.45013,0.0114 c -0.20993,0.1732 0.27499,-0.002 0,0 z m -6.74997,0.0661 c 0.0131,0.0644 -0.082,0.004 0,0 z m 6.97011,0.0274 0.0258,0.0548 z m -8.41188,0.008 c 0.0321,0.0748 -0.18895,0.12639 0,0 z m 0.93741,0.0258 c 0.32046,0.52734 0.97364,0.40118 1.32132,0.92735 0.63712,0.0356 1.21706,0.44608 1.83363,0.94191 -0.0539,-0.14927 1.47576,0.37105 0.57366,0.81615 -0.0724,0.85363 0.007,1.36454 -0.3062,2.23995 -0.55364,0.95686 0.28386,0.35047 -0.55881,2.06771 -0.88495,0.001 -0.80355,0.41242 -2.06875,0.60878 -1.45066,0.0889 -2.09112,0.90383 -2.81965,-0.45479 -0.34201,-1.09124 -0.88176,-0.89115 -1.03566,-2.13565 -0.70421,-0.62589 -0.67939,-1.79584 -0.049,-1.99684 0.18938,-0.13692 -0.11468,-0.24195 0.42597,-0.8727 1.0002,-0.97312 0.71051,-0.90029 1.75581,-1.70261 -0.65517,-0.38231 0.97733,-0.34758 0.92764,-0.43926 z m -0.37621,0.0367 c -0.0487,10e-4 -0.13076,0.1103 0,0 z m -2.53731,2.49442 c -0.007,6e-4 -0.009,0.015 0,0 z m 6.33605,2.39417 c 0.19197,-0.23637 -0.72265,-0.14349 0,0 z m 1.19527,-4.82244 c 0.51366,0.49389 -0.22072,0.0815 0,0 z m -3.63182,0.008 c 0.0902,0.18573 -0.14529,0.0823 0,0 z m -0.72088,0.0238 c 0.17873,0.0254 -0.24307,0.14801 0,0 z m 4.91546,0.0548 c 0.65909,0.71284 -0.36526,0.22873 0,0 z m -8.78758,0.0269 c -0.0115,0.23495 -0.15122,0.0642 0,0 z m 4.28759,0.12867 c 0.0441,-0.0132 0.0133,0.0833 0,0 z m 0.88212,0.0506 c 0.14591,-0.0195 0.008,0.12315 0,0 z m -6.8926,0.0222 c 0.1971,0.12585 -0.031,0.0514 0,0 z m 4.19251,0.0129 c 0.0243,0.24295 -0.43181,-0.0264 0,0 z m -1.17099,0.24339 c 0.32665,0.35699 0.33203,0.10859 0,0 z m 0.24391,0.24334 c 0.33097,0.0489 -0.1879,0.35907 0,0 z m 8.58191,0.25477 c 0.0833,0.23121 0.41304,0.36783 -0.0456,0.0977 l 0.0465,-0.0966 z m 0.0382,0.17673 c 0.0358,-0.0359 -0.03,-0.0126 0,0 z m -10.89804,-0.11782 c 0.2989,0.19761 -0.0388,0.0994 0,0 z m 3.94446,0.0114 c -1.05004,0.86273 0.2996,0.44295 -1.11275,0.93123 -1.44853,0.17123 -0.36575,1.89872 -0.59728,2.91685 1.28113,0.70792 1.42068,1.49589 2.55802,1.81051 0.95965,0.25611 1.17925,-0.53614 1.20702,-1.45104 0.98395,-0.007 1.35428,-0.95574 1.02017,-1.89033 -0.37002,-2.18688 -1.61325,-1.76976 -3.07518,-2.31722 z m -1.82883,0.007 c 0.0162,0.0117 -0.0276,0.0295 0,0 z m 8.58759,0.009 c 0.19354,0.15365 0.0422,0.47224 0,0 z m 0.1049,0.0382 c 0.0994,-0.002 -0.0344,0.0455 0,0 z m -8.78086,0.11369 c -0.039,0.10618 -0.22818,0.0769 0,0 z m 8.07858,0.23719 c 0.21101,0.17833 -0.15529,0.30912 0,0 z m -0.32505,0.0837 c 0.15132,0.25476 0.0284,0.0926 0,0 z m -5.31337,0.0248 c 0.25137,0.0262 -0.29255,0.23789 0,0 z m 6.92981,0.0563 c 0.10309,0.16131 -0.34392,0.0538 0,0 z m -2.63808,0.0253 c -0.04,0.20182 -0.54223,-0.15677 0,0 z m -7.24607,0.03 c 0.1888,0.28175 -0.48351,0.26822 0,0 z m 9.19117,0.003 c -0.94779,0.80816 0.41833,2.7761 0.54103,3.23352 0.42346,1.29311 1.33825,1.12792 0.21374,1.97798 -0.33962,1.75788 -1.40204,1.10969 -2.23124,0.96492 0.13608,0.31321 -0.84993,-0.74915 -0.95713,-0.87632 -0.21167,-0.82184 0.158,-1.29236 -0.0431,-1.86632 0.64281,-1.22064 0.21533,-2.16149 0.86512,-3.04181 1.0527,-0.80538 1.04725,0.54136 1.56702,-0.38688 l 0.0439,-0.005 z m 1.12861,4.5403 c 0.17711,-0.11855 -0.17485,-0.10218 0,0 z m -0.39274,-4.51807 c 0.27089,0.53521 -0.12601,0.071 0,0 z m -2.41277,0.19688 c 0.006,0.0169 -0.0273,-0.008 0,0 z m -0.29404,0.26975 c -0.0159,0.0114 -0.0555,0.0243 0,0 z m 1.98799,0.0346 c 0.19318,-0.0104 0.11023,0.31086 0,0 z m 0.89762,0.25011 c 0.16343,0.16474 -0.41136,0.21304 0,0 z m 0.0393,0.16588 c 0.10601,0.10695 -0.16159,0.0477 0,0 z m -8.35918,0.29611 c 1.46383,0.0952 0.41848,0.34683 0.62772,0.89804 -1.39444,-0.22405 -0.0238,-0.47478 -0.76216,-0.7352 0.17583,0.18728 0.28102,-0.12124 0.13444,-0.16284 z m 8.43824,0.0382 c 0.0576,0.15454 -0.47099,0.30191 0,0 z m -0.4346,0.0258 c 0.18873,0.84363 -0.53117,0.83678 0,0 z m 0.45166,0.0481 c 0.54667,0.56923 -1.14202,-9.3e-4 0,0 z m -6.37533,0.002 c 2.1367,0.18082 -0.96421,1.38915 0,0 z m -1.45417,0.0238 c -0.20109,0.0576 0.2803,10e-4 0,0 z m -3.13107,0.0315 c 0.0193,0.0234 -0.0127,0.0131 0,0 z m 7.5985,0.0734 c 0.0919,0.26303 -0.48179,-0.0405 0,0 z m -4.8519,0.12144 c -0.0201,0.005 0.0284,0.0108 0,0 z m -3.65094,0.0129 c 0.29188,0.0129 -0.11232,0.0911 0,0 z m -0.17674,0.008 c 0.42725,-0.0991 -0.21902,0.36018 0,0 z m 3.7667,0.0181 c -0.19203,0.0841 0.24478,0.13458 0,0 z m 0.0961,0.11163 c -0.21364,0.0101 0.0775,0.15415 0,0 z m -0.0315,0.0713 c -0.0599,0.0256 0.0528,0.0129 0,0 z m -0.016,0.0139 c -0.13743,-0.0359 -0.0128,0.0606 0,0 z m 0.0367,-0.16226 c 0.11692,0.10498 0.0855,0.005 0,0 z m -0.14935,0.0196 c -0.0579,-0.0167 0.0186,0.0526 0,0 z m 4.13773,0.16847 c 0.0986,0.17912 0.3949,0.0139 0,0 z m 3.56826,0.0336 c 0.80458,-0.0996 1.50124,1.3306 0,0 z m -11.92434,0.0279 c 0.25982,-0.0232 0.23145,0.39112 0,0 z m 9.22786,0.33697 c 0.10491,0.0695 -0.15657,0.24967 0,0 z m -5.97793,0.0413 c 0.10938,0.0289 0.0287,0.16207 0,0 z m -3.1228,0.0269 c 0.0159,0.44769 -0.18579,-0.059 0,0 z m 0.52451,0.11937 c 0.30835,1.4825 1.73526,1.57939 1.47831,2.40086 0.16346,0.96595 2.04684,1.42882 0.92373,2.07828 0.1599,0.0884 -0.97836,2.01065 -1.62128,1.48282 -0.0842,-0.93518 -0.75868,-0.7688 -0.79423,-1.10318 -0.48571,-0.73132 -1.15706,-1.22752 -1.30087,-1.81485 0.4693,-1.32417 -0.56566,-2.60814 0.95079,-2.97079 l 0.36328,-0.0734 z m 0.10801,5.2e-4 c 0.0571,-0.0339 0.008,0.0906 0,0 z m -1.70119,0.0563 c 0.018,-0.0183 0.0312,0.0324 0,0 z m 4.24832,0.15917 c 0.1358,0.0981 -0.0359,0.12332 0,0 z m 4.28346,0.1695 c 0.23813,0.3302 -0.31005,-0.004 0,0 z m -1.46968,0.6289 c 0.0562,0.10906 -0.27653,0.25987 0,0 z m 6.73757,0.10955 c 0.86566,0.083 0.26884,0.78063 0,0 z m -13.9764,0.0315 c 1.22499,0.0952 -0.65781,0.53556 0,0 z m 7.10189,0.0853 c -0.0979,0.30513 -0.0846,0.0152 0,0 z m -0.0884,0.0108 c 0.0776,0.0989 -0.16139,0.0546 0,0 z m 0.0202,0.0434 c 0.031,0.0723 -0.0323,7.4e-4 0,0 z m -7.93233,0.0889 c -0.0102,0.0312 0.0996,-0.012 0,0 z m 10.23917,0.12557 c 0.0159,0.077 0.10295,0.0841 0,0 z m -1.91771,0.13798 c 0.077,0.006 -0.0467,0.044 0,0 z m -7.42229,0.20463 c 0.43711,0.21486 -0.34275,0.25838 0,0 z m 14.26786,0.0124 c 0.2923,0.0727 -0.13873,0.39511 0,0 z m -6.61613,0.003 c -0.0516,0.10664 -0.0347,-0.0101 0,0 z m -0.11575,0.10335 c -0.20888,0.15834 -0.50652,0.0812 0,0 z m -0.65629,0.0682 c 0.12208,0.27642 -0.10512,-0.007 -0.29149,0.0835 0.0103,0.0352 0.21385,-0.24647 0.29149,-0.0835 z m 0.5705,0.11472 c 0.3263,0.30791 -0.51447,0.13229 0,0 z m -0.25528,0.0243 c 0.0144,0.0342 -0.0382,-0.0116 0,0 z m 7.46104,0.0289 c -0.27764,0.1275 0.2159,0.0648 0,0 z m -0.46095,0.19999 c 0.0485,0.18303 -0.10477,0.0575 0,0 z m 0.49609,0.0992 c -9.7e-4,0.003 0.002,-6.5e-4 0,0 z m 0,0.001 c -0.0245,0.0161 0.0183,0.0169 0,0 z m -0.63148,0.1354 c 0.0776,-0.004 -0.0842,0.0922 0,0 z m -10.10688,0.11937 c 0.0773,0.15273 -0.78761,0.12053 0,0 z m 5.86114,0.0693 c 0.0781,0.10307 -0.13224,-0.0131 0,0 z m -1.23971,0.0165 c 0.19684,-0.0561 0.0247,0.1983 0,0 z m -7.9375,0.11059 c -0.0357,0.009 -0.0599,0.10327 0,0 z m 9.37875,0.0615 c -0.0315,0.10814 -0.0646,-0.0212 0,0 z m -1.40715,0.0413 c 0.16459,0.36495 -0.51332,-0.10933 0,0 z m 0.41031,0.0703 c 1.85281,1.04594 1.35853,0.0121 2.35383,1.95879 -0.18493,0.83476 -0.13894,0.88779 -1.09535,1.58599 -1.11602,-0.80609 -0.65221,2.08088 -2.25859,1.13498 -0.53795,0.56698 -2.17841,-0.90482 -2.45832,-0.4002 -0.41887,-0.31759 -1.81898,-0.67277 -1.43189,-1.50222 0.3165,-0.81929 0.67531,-0.56407 0.94964,-1.83788 1.01981,1.2734 1.08125,-1.12508 1.25169,-0.16338 -0.82693,-0.11997 1.39828,0.85557 1.12278,0.0121 0.95873,-0.0563 1.38971,-0.47522 1.56621,-0.7882 z m -0.5581,0.13537 c 0.38054,-0.0522 -0.0802,0.16864 0,0 z m -4.07934,0.1235 c 0.0747,0.0279 -0.086,0.10826 0,0 z m 0.12144,0.17829 c 0.34902,0.21534 -0.18122,0.13844 0,0 z m 3.25717,0.005 c 0.0286,0.19058 -0.10708,-0.0329 0,0 z m -1.23662,0.0264 c 0.46548,0.35093 -0.48911,0.45664 0,0 z m -1.75958,5.2e-4 c 0.24382,-0.053 0.0202,0.305 0,0 z m 1.89394,0.004 c 0.22435,0.0116 -0.002,0.43622 0,0 z m -2.44792,0.0563 c -0.6413,0.0821 0.50841,0.19939 0,0 z m 6.78667,0.01 c 0.0585,0.0353 0.21321,0.0797 0,0 z m -4.6054,0.11162 c 0.2404,0.1689 -0.21815,0.17651 0,0 z m 4.73097,0.0827 c 0.0181,0.0522 -0.0368,0.008 0,0 z m 1.96526,0.0165 c 0.24858,0.008 -0.0111,0.10211 0,0 z m -12.24215,0.19327 c -0.0756,0.16785 -0.12386,0.0881 0,0 z m 12.73979,0.0884 c 0.3143,0.49903 -0.0748,0.0755 0,0 z m -12.83746,0.0424 c -0.0592,0.0874 -0.0314,0.005 0,0 z m -0.2992,0.13436 c 0.0458,0.002 -0.0122,0.0269 0,0 z m 0.0785,0.35605 c 2.3e-4,0.0193 -0.0114,-0.005 0,0 z m 11.84528,0.16795 c 0.19033,0.004 -0.10428,0.10665 0,0 z m 0.10748,0.0465 c 0.16737,0.009 -0.28722,0.32302 0,0 z m -11.29233,0.049 c 0.54688,0.0792 -0.5625,0.4983 0,0 z m 2.69286,0.22428 c 0.41024,0.20734 -0.28664,0.0758 0,0 z m 8.38243,0.19688 c 0.007,0.62126 0.0241,0.21466 0,0 z m -8.27805,0.015 c 0.33429,-0.0599 -0.24146,0.67474 0,0 z m -1.9761,0.0413 c -0.26307,0.845 -0.69766,-0.11703 0,0 z m 9.49602,0.42327 c 0.12526,0.0869 -0.11291,0.0671 0,0 z m -9.6759,0.0636 c 0.0125,0.0831 -0.0863,0.036 0,0 z m 1.45263,0.13178 c 0.13592,0.21816 -0.0917,0.13297 0,0 z m 8.20983,0.0749 c 0.17549,0.37885 -0.34934,0.0694 0,0 z m -9.37255,0.10128 c 0.55718,-0.19209 0.0545,0.29309 0,0 z m 10.57713,0.32195 c -0.0151,0.0485 0.0203,0.0114 0,0 z m 0,0.0233 c -0.0342,-0.002 0.021,0.043 0,0 z m -8.34264,0.3349 c 0.0298,-0.007 -0.011,0.0106 0,0 z m 0.34726,0.47697 c 0.29684,0.15771 -0.18912,-4.7e-4 0,0 z m -1.98489,0.22479 c -0.35283,0.17925 0.32242,0.38152 0,0 z m 6.68487,0.0114 c 0.17213,0.41132 -0.62619,-0.0184 0,0 z m -4.64055,0.16175 c 0.39307,0.11912 -0.17686,0.1538 0,0 z m 0.19275,0.0176 c 0.0773,0.0239 -0.0682,0.12153 0,0 z m 0.58446,0.0718 c 0.31431,0.11062 -0.3093,0.21566 0,0 z m 0.67077,0.0599 c 0.56856,0.18499 -0.58178,0.28276 0,0 z m 0.17776,0.0801 c 0.19985,0.28002 -0.41657,0.25432 0,0 z m -0.40617,0.0176 c 0.049,0.0649 -0.15514,0.003 0,0 z m 2.04742,0.1478 c -0.0811,0.12362 -0.28631,0.12963 0,0 z m -0.16382,0.0951 c 0.008,0.11307 -0.0843,0.0431 0,0 z m -1.10846,0.46137 c 0.02,-0.006 0.007,0.0255 0,0 z m 1.40922,0 c 0.0299,0.0162 0.0246,0.0435 0,0 z m 0.50126,0.0636 c 0.18182,0.21345 -0.22772,0.17932 0,0 z m -0.40928,0.032 c 0.014,0.0106 -9.4e-4,0.005 0,0 z m -0.0703,0.12919 c 0.19985,-0.04 -0.0209,0.12425 0,0 z m 0.25838,0.0176 c 0.0899,0.085 -0.0424,0.034 0,0 z m 0.0419,0.0424 c 0.0292,0.0455 -0.036,0.007 0,0 z m -1.19372,0.14728 c 0.37636,0.41542 -0.29391,-0.0657 0,0 z"
           sodipodi:nodetypes="ccccccccccccccccccccccccccccccccccccsccccccccssccccccccccccccccccccccccccccccccccccccccccccccccccsccccccccccccscccccccccccccccccccccccccccccccccccccccccccccccccccccccccccccccccccccccccccccccccccccccccccccccccccccccccccccccccccccccccccccccccccccccccccccccccccccccccccccccccccccccccccccccccccccccccccccccccccccccccccccccsccccccccsscccccccccccccccccccccccccccccccccccccccccccccccccccccccccccccccccccccccccccccccccccccccccccccccccccccc" />
      </g>
    </g>
  </g>
</svg>
