<?xml version="1.0" standalone="no"?>
<!DOCTYPE svg PUBLIC "-//W3C//DTD SVG 20010904//EN"
 "http://www.w3.org/TR/2001/REC-SVG-20010904/DTD/svg10.dtd">
<svg version="1.0" xmlns="http://www.w3.org/2000/svg"
 width="1189.000000pt" height="1280.000000pt" viewBox="0 0 1189.000000 1280.000000"
 preserveAspectRatio="xMidYMid meet">
<metadata>
Created by potrace 1.15, written by Peter Selinger 2001-2017
</metadata>
<g transform="translate(0.000000,1280.000000) scale(0.100000,-0.100000)"
fill="#000000" stroke="none">
<path d="M6290 12785 c-225 -37 -421 -137 -587 -298 -285 -276 -395 -681 -292
-1067 27 -100 115 -279 179 -364 135 -177 315 -308 516 -377 136 -46 333 -75
348 -50 3 5 11 52 17 106 49 443 357 807 783 930 311 89 638 36 913 -148 96
-64 212 -179 277 -275 27 -39 51 -70 53 -68 2 2 -1 45 -7 97 -34 306 -186 579
-418 754 -206 155 -416 225 -672 225 -284 0 -536 -101 -741 -297 -101 -97
-166 -183 -224 -298 -88 -176 -120 -332 -112 -542 6 -155 26 -247 83 -378 20
-44 38 -86 41 -94 10 -23 -46 12 -133 82 -171 138 -301 341 -360 565 -32 121
-43 322 -24 439 80 498 489 880 985 921 l90 8 -50 26 c-68 35 -185 76 -270 94
-100 22 -292 26 -395 9z"/>
<path d="M4900 12063 c-74 -50 -237 -214 -285 -288 -196 -299 -239 -650 -121
-981 206 -576 857 -871 1423 -644 200 80 378 221 493 390 22 33 43 60 47 60
12 0 -8 -161 -32 -254 -95 -377 -396 -679 -780 -783 -91 -24 -116 -27 -275
-27 -158 0 -185 3 -272 26 -269 73 -483 229 -647 473 -96 142 -160 221 -225
278 -205 176 -421 263 -683 274 -202 9 -359 -24 -528 -109 -120 -61 -191 -112
-286 -207 -211 -210 -319 -472 -319 -775 0 -164 39 -335 106 -468 14 -27 23
-52 20 -55 -10 -10 -141 90 -212 162 -282 284 -386 718 -263 1096 75 232 228
439 420 570 146 99 350 171 529 187 l85 8 -80 38 c-213 100 -458 129 -686 81
-271 -57 -528 -231 -682 -461 -207 -313 -241 -710 -89 -1049 141 -313 425
-547 753 -619 89 -20 240 -35 233 -24 -10 16 122 -81 186 -137 302 -262 433
-695 330 -1087 -82 -311 -286 -561 -575 -705 -138 -69 -258 -98 -474 -113
-185 -13 -309 -43 -446 -109 -295 -141 -508 -406 -591 -731 -27 -108 -27 -393
0 -500 96 -376 356 -660 717 -783 91 -32 243 -59 302 -55 l42 3 2 45 c24 452
329 851 751 984 46 14 125 33 175 41 349 57 716 -71 959 -334 37 -39 101 -125
143 -189 207 -314 493 -491 846 -522 369 -32 733 131 959 428 71 93 155 267
187 387 24 90 26 117 26 270 0 151 -3 181 -26 267 -14 53 -44 136 -66 183 -22
47 -37 85 -35 85 20 0 144 -98 214 -169 198 -198 302 -435 316 -716 26 -509
-316 -975 -811 -1105 -44 -11 -143 -25 -220 -31 -286 -20 -447 -68 -625 -185
-91 -59 -242 -206 -299 -292 -252 -375 -254 -856 -7 -1226 157 -235 408 -403
688 -460 42 -9 94 -16 115 -17 21 -1 49 -4 63 -8 23 -7 19 -10 -40 -38 -166
-79 -310 -108 -510 -100 -176 7 -269 29 -416 97 -188 87 -351 230 -462 405
-128 204 -188 456 -163 685 16 148 50 259 127 420 36 74 76 166 89 205 168
502 -66 1069 -540 1308 -163 82 -310 117 -490 117 -304 0 -564 -107 -775 -318
-79 -80 -168 -197 -158 -208 3 -2 43 13 89 35 127 59 231 82 392 88 154 6 246
-5 372 -44 355 -111 634 -403 732 -768 24 -90 27 -117 27 -270 0 -153 -3 -180
-27 -269 -15 -56 -53 -155 -88 -225 -103 -214 -131 -300 -149 -468 -47 -437
200 -885 595 -1078 186 -90 325 -120 530 -112 149 6 240 24 363 73 194 77 369
218 494 396 l47 67 -82 57 c-458 321 -598 953 -317 1434 183 313 485 507 843
540 329 30 399 46 552 122 115 58 180 103 268 187 246 235 363 543 335 886
-40 495 -424 906 -918 981 -134 20 -138 19 -256 -31 -190 -81 -358 -111 -540
-95 -158 14 -275 47 -406 114 -465 237 -693 757 -557 1266 11 41 53 145 94
230 86 181 120 288 135 434 27 248 -43 518 -191 731 -109 158 -307 315 -487
388 -138 56 -224 72 -402 72 -214 0 -322 -25 -500 -116 -162 -83 -303 -206
-400 -349 -23 -34 -44 -60 -46 -58 -9 10 19 201 41 281 161 573 756 910 1333
756 96 -25 239 -92 334 -156 106 -71 214 -185 308 -325 104 -154 180 -241 273
-311 133 -102 263 -165 432 -207 129 -33 350 -33 484 0 420 101 731 416 821
830 52 237 27 472 -75 688 l-44 92 77 -52 c461 -318 604 -956 322 -1438 -183
-313 -485 -507 -843 -540 -329 -30 -399 -46 -552 -122 -115 -58 -180 -103
-268 -187 -246 -235 -363 -543 -335 -886 40 -495 424 -906 918 -981 134 -20
138 -19 256 31 190 81 358 111 540 95 158 -14 275 -47 406 -114 465 -237 693
-757 557 -1266 -11 -41 -53 -145 -94 -230 -86 -181 -120 -288 -135 -434 -27
-248 43 -518 191 -731 109 -158 307 -315 487 -388 138 -56 224 -72 402 -72
214 0 322 25 500 116 162 83 303 206 400 349 23 34 44 60 46 58 9 -10 -19
-201 -41 -281 -161 -573 -756 -910 -1333 -756 -96 25 -239 92 -334 156 -106
71 -214 185 -308 325 -104 154 -180 241 -273 311 -133 102 -263 165 -432 207
-129 33 -350 33 -484 0 -420 -101 -731 -416 -821 -830 -52 -237 -27 -472 74
-686 l43 -91 79 38 c208 100 461 131 682 84 264 -56 493 -199 646 -402 155
-206 226 -415 226 -663 0 -174 -35 -331 -104 -474 -18 -36 -30 -66 -28 -66 2
0 29 17 60 37 75 48 238 212 287 288 196 299 239 650 121 981 -206 576 -857
871 -1423 644 -200 -80 -378 -221 -493 -390 -22 -33 -43 -60 -47 -60 -12 0 8
162 32 257 96 376 397 676 783 781 87 23 114 26 272 26 158 0 185 -3 272 -26
269 -73 483 -229 647 -473 96 -142 160 -221 225 -278 205 -176 421 -263 683
-274 202 -9 359 24 528 109 120 61 191 112 286 207 211 210 319 472 319 775 0
164 -39 335 -106 468 -14 27 -23 52 -20 55 10 10 141 -90 212 -162 282 -284
386 -718 263 -1096 -75 -232 -228 -439 -420 -570 -146 -99 -350 -171 -529
-187 l-85 -8 80 -38 c213 -100 458 -129 686 -81 271 57 528 231 682 461 207
313 241 710 89 1049 -141 313 -425 547 -753 619 -89 20 -240 35 -233 24 10
-16 -122 81 -186 137 -302 262 -433 695 -330 1087 82 311 286 561 575 705 138
69 258 98 474 113 185 13 309 43 446 109 295 141 508 406 591 731 27 108 27
393 0 500 -96 376 -356 660 -717 783 -91 32 -243 59 -302 55 l-42 -3 -2 -45
c-24 -452 -329 -851 -751 -984 -46 -14 -125 -33 -175 -41 -349 -57 -716 71
-959 334 -37 39 -101 125 -143 189 -207 314 -493 491 -846 522 -369 32 -733
-131 -959 -428 -71 -93 -155 -267 -187 -387 -24 -90 -26 -117 -26 -270 0 -151
3 -181 26 -267 14 -53 44 -136 66 -183 22 -47 37 -85 35 -85 -20 0 -144 98
-214 169 -198 198 -302 435 -316 716 -26 509 316 975 811 1105 44 11 143 25
220 31 286 20 447 68 625 185 91 59 242 206 299 292 252 375 254 856 7 1226
-157 235 -408 403 -688 460 -42 9 -94 16 -115 17 -21 1 -49 4 -63 8 -23 7 -19
10 40 38 166 79 310 108 510 100 176 -7 269 -29 416 -97 188 -87 351 -230 462
-405 128 -204 188 -456 163 -685 -16 -148 -50 -259 -127 -420 -36 -74 -76
-166 -89 -205 -168 -502 66 -1069 540 -1308 163 -82 310 -117 490 -117 304 0
564 107 775 318 79 80 168 197 158 208 -3 2 -43 -13 -89 -35 -127 -59 -231
-82 -392 -88 -154 -6 -246 5 -372 44 -355 111 -634 403 -732 768 -24 90 -27
117 -27 270 0 153 3 180 27 269 15 56 53 155 88 225 103 214 131 300 149 468
47 437 -200 885 -595 1078 -186 90 -325 120 -530 112 -188 -8 -334 -47 -485
-130 -134 -74 -284 -210 -368 -334 -51 -75 -64 -86 -145 -123 -152 -69 -367
-109 -520 -96 -321 27 -609 181 -791 423 -155 206 -226 415 -226 663 0 174 35
331 104 474 18 36 30 66 27 66 -3 -1 -31 -17 -61 -37z m-1542 -2993 c222 -58
406 -169 551 -333 205 -232 306 -542 272 -833 -17 -147 -51 -256 -131 -424
-82 -172 -105 -237 -125 -362 -29 -177 -14 -343 46 -523 182 -544 760 -850
1318 -699 237 64 478 234 607 429 20 30 39 55 42 55 10 0 -7 -167 -24 -235
-168 -679 -916 -1029 -1539 -720 -195 96 -324 214 -459 419 -228 346 -547 526
-934 526 -235 0 -409 -52 -608 -181 -92 -60 -231 -196 -293 -288 -88 -129
-159 -313 -181 -466 -29 -206 9 -446 100 -625 17 -33 27 -60 23 -60 -18 0
-120 77 -189 143 -447 424 -458 1121 -24 1558 204 206 437 305 765 324 194 12
340 50 485 127 480 255 699 820 516 1332 -57 161 -129 273 -258 404 -170 171
-423 293 -643 309 -44 3 -86 9 -93 13 -29 15 189 99 328 126 101 20 345 11
448 -16z m6570 -1056 c30 -20 87 -68 128 -107 447 -424 458 -1121 24 -1558
-204 -206 -437 -305 -765 -324 -194 -12 -340 -50 -485 -127 -480 -255 -699
-820 -516 -1332 57 -161 129 -273 258 -404 170 -171 423 -293 643 -309 44 -3
86 -9 93 -13 17 -8 -117 -70 -213 -98 -231 -67 -495 -53 -718 39 -440 181
-722 652 -668 1115 17 147 51 256 131 424 82 172 105 237 125 362 29 177 14
343 -46 523 -182 544 -760 850 -1318 699 -237 -64 -478 -234 -607 -429 -20
-30 -39 -55 -42 -55 -10 0 7 167 24 235 168 679 916 1029 1539 720 195 -96
324 -214 459 -419 228 -346 547 -526 934 -526 235 0 409 52 608 181 92 60 231
196 293 288 88 129 159 313 181 466 29 206 -9 446 -100 625 -17 33 -27 60 -23
60 5 0 32 -16 61 -36z"/>
<path d="M987 10398 c-81 -55 -188 -158 -248 -237 -69 -91 -154 -267 -186
-386 -25 -91 -28 -116 -28 -270 0 -147 3 -182 24 -260 85 -326 281 -569 576
-715 142 -70 230 -96 382 -112 255 -27 550 56 754 211 104 80 279 276 279 314
0 4 -22 -4 -50 -18 -444 -225 -1018 -101 -1324 286 -161 203 -232 390 -243
635 -9 201 23 364 102 527 18 37 30 67 27 66 -4 0 -33 -18 -65 -41z"/>
<path d="M9640 10220 c-220 -47 -379 -131 -540 -286 -328 -316 -425 -800 -244
-1216 156 -357 487 -601 879 -648 55 -7 104 -14 109 -18 5 -3 6 0 2 7 -4 6
-34 29 -67 52 -271 184 -447 501 -465 839 -30 577 399 1080 972 1139 53 6 98
12 100 14 6 6 -121 61 -197 87 -159 52 -389 65 -549 30z"/>
<path d="M10672 9690 c-470 -59 -841 -403 -944 -875 -8 -37 -12 -122 -12 -220
1 -141 4 -172 28 -260 28 -103 98 -265 114 -265 5 0 43 16 84 35 337 155 723
130 1044 -70 89 -56 216 -173 284 -263 72 -95 155 -268 185 -387 63 -245 34
-528 -76 -747 -16 -32 -27 -58 -24 -58 15 0 132 87 189 141 447 418 460 1125
28 1558 -366 368 -916 431 -1358 156 -116 -73 -223 -179 -337 -335 -18 -25
-18 -24 -13 61 14 253 136 503 337 694 470 446 1240 375 1621 -149 73 -101 71
-100 63 -16 -33 362 -225 671 -529 854 -191 115 -463 173 -684 146z"/>
<path d="M2547 8870 c-19 -257 -151 -530 -340 -707 -139 -129 -293 -213 -487
-265 -116 -31 -346 -36 -470 -10 -285 59 -531 223 -695 462 l-37 55 6 -86 c32
-469 392 -876 861 -975 486 -102 995 151 1206 600 139 297 141 634 5 921 l-42
90 -7 -85z"/>
<path d="M467 6179 c-82 -57 -177 -149 -241 -232 -331 -434 -292 -1041 92
-1426 366 -368 916 -431 1358 -156 116 73 223 179 337 335 18 25 18 24 13 -61
-14 -253 -136 -503 -337 -694 -470 -446 -1240 -375 -1621 149 -73 101 -71 100
-63 16 24 -261 122 -482 297 -665 153 -162 315 -255 543 -313 171 -43 411 -33
585 25 271 90 507 295 634 550 86 174 111 285 110 498 -1 141 -4 172 -28 260
-28 103 -98 265 -114 265 -5 0 -43 -16 -84 -35 -337 -155 -723 -130 -1044 70
-89 56 -216 173 -284 263 -72 95 -155 268 -185 387 -63 245 -34 528 76 748 16
31 26 57 22 56 -5 0 -34 -18 -66 -40z"/>
<path d="M10113 5466 c-353 -58 -664 -291 -814 -610 -139 -297 -141 -630 -6
-921 l42 -90 7 85 c32 378 264 721 601 887 159 79 261 104 452 110 124 4 166
1 245 -15 285 -59 531 -223 695 -462 l37 -55 -6 86 c-32 469 -391 875 -861
975 -99 21 -293 26 -392 10z"/>
<path d="M2044 4741 c4 -6 34 -29 67 -52 271 -184 447 -501 465 -839 30 -577
-399 -1080 -972 -1139 -53 -6 -98 -12 -100 -14 -3 -2 26 -18 64 -35 178 -79
318 -106 512 -99 278 10 503 105 705 298 333 318 431 802 249 1221 -156 357
-487 601 -879 648 -55 7 -104 14 -109 18 -5 3 -6 0 -2 -7z"/>
<path d="M10135 4379 c-165 -24 -379 -112 -506 -208 -104 -80 -279 -276 -279
-314 0 -4 22 4 50 18 444 225 1018 101 1324 -286 161 -203 232 -390 243 -635
9 -201 -23 -364 -102 -526 -18 -38 -31 -68 -29 -68 3 0 32 18 65 41 81 55 189
157 250 238 69 91 154 267 186 386 25 91 28 116 28 270 0 147 -3 182 -24 260
-85 326 -281 569 -576 715 -66 33 -154 68 -195 79 -142 38 -303 49 -435 30z"/>
<path d="M5436 2171 c-3 -5 -11 -52 -17 -106 -49 -443 -357 -807 -783 -930
-311 -89 -638 -36 -913 148 -96 64 -212 179 -277 275 -27 39 -51 70 -53 68 -2
-2 1 -45 7 -97 34 -306 186 -579 418 -754 206 -155 416 -225 672 -225 284 0
536 101 741 297 101 97 166 183 224 298 88 176 120 332 112 542 -6 155 -26
247 -83 378 -20 44 -38 86 -41 94 -10 23 46 -12 133 -82 171 -138 301 -341
360 -565 32 -121 43 -322 24 -439 -80 -498 -489 -880 -985 -921 l-90 -8 50
-26 c289 -149 650 -155 951 -13 123 57 203 113 301 208 285 276 395 681 292
1067 -27 100 -115 279 -179 364 -135 177 -315 308 -516 377 -136 46 -333 75
-348 50z"/>
</g>
</svg>
